<svg xmlns="http://www.w3.org/2000/svg" xmlns:xlink="http://www.w3.org/1999/xlink" width="108" height="108" viewBox="0 0 108 108">
  <defs>
    <filter id="Trazado_904820" x="0" y="0" width="108" height="108" filterUnits="userSpaceOnUse">
      <feOffset dy="3" input="SourceAlpha"/>
      <feGaussianBlur stdDeviation="3" result="blur"/>
      <feFlood flood-opacity="0.161"/>
      <feComposite operator="in" in2="blur"/>
      <feComposite in="SourceGraphic"/>
    </filter>
  </defs>
  <g id="Grupo_1210313" data-name="Grupo 1210313" transform="translate(-620 -5225.215)">
    <g id="Grupo_1210103" data-name="Grupo 1210103" transform="translate(629 5231.215)">
      <g id="Grupo_1206197" data-name="Grupo 1206197" transform="translate(0 0)">
        <g id="Grupo_1202705" data-name="Grupo 1202705" transform="translate(0)">
          <g id="Grupo_1173585" data-name="Grupo 1173585">
            <g id="Grupo_1173428" data-name="Grupo 1173428">
              <g id="Grupo_1171958" data-name="Grupo 1171958">
                <g id="Grupo_1167341" data-name="Grupo 1167341">
                  <g id="Grupo_1166792" data-name="Grupo 1166792">
                    <g transform="matrix(1, 0, 0, 1, -9, -6)" filter="url(#Trazado_904820)">
                      <g id="Trazado_904820-2" data-name="Trazado 904820" transform="translate(9 6)" fill="#edf5fb">
                        <path d="M 44.99999618530273 88.50003051757812 C 39.12687301635742 88.50003051757812 33.43022155761719 87.35010528564453 28.06829643249512 85.08219146728516 C 22.88852119445801 82.89134216308594 18.23629570007324 79.75461578369141 14.24084663391113 75.75916290283203 C 10.24540901184082 71.76371765136719 7.108683586120605 67.11148834228516 4.917821407318115 61.93171691894531 C 2.649921178817749 56.56978988647461 1.499996185302734 50.87313842773438 1.499996185302734 45.00001525878906 C 1.499996185302734 39.12689208984375 2.649921178817749 33.43024063110352 4.917821407318115 28.06830215454102 C 7.108683586120605 22.88852691650391 10.24540901184082 18.23631477355957 14.24084663391113 14.24086570739746 C 18.23629570007324 10.24541568756104 22.88852119445801 7.10869026184082 28.06829643249512 4.917827606201172 C 33.43022155761719 2.649927854537964 39.12687301635742 1.50000274181366 44.99999618530273 1.50000274181366 C 50.87311935424805 1.50000274181366 56.56977081298828 2.649927854537964 61.93169784545898 4.917827606201172 C 67.11147308349609 7.10869026184082 71.76369476318359 10.24541568756104 75.75914764404297 14.24086570739746 C 79.75458526611328 18.23631477355957 82.89131164550781 22.88852691650391 85.08216857910156 28.06830215454102 C 87.35007476806641 33.43024063110352 88.5 39.12689208984375 88.5 45.00001525878906 C 88.5 50.87313842773438 87.35007476806641 56.56978988647461 85.08216857910156 61.93171691894531 C 82.89131164550781 67.11148834228516 79.75458526611328 71.76371765136719 75.75914764404297 75.75916290283203 C 71.76369476318359 79.75461578369141 67.11147308349609 82.89134216308594 61.93169784545898 85.08219146728516 C 56.56977081298828 87.35010528564453 50.87311935424805 88.50003051757812 44.99999618530273 88.50003051757812 Z" stroke="none"/>
                        <path d="M 44.99999618530273 3 C 39.32870864868164 3 33.82865142822266 4.110061645507812 28.65262603759766 6.299346923828125 C 23.65165710449219 8.414573669433594 19.15968322753906 11.44334411621094 15.301513671875 15.301513671875 C 11.44333648681641 19.15968322753906 8.414566040039062 23.65165710449219 6.299339294433594 28.65262985229492 C 4.110054016113281 33.82867050170898 2.999992370605469 39.32872772216797 2.999992370605469 45.00001525878906 C 2.999992370605469 50.67130279541016 4.110054016113281 56.17136001586914 6.299339294433594 61.34738922119141 C 8.414566040039062 66.34837341308594 11.44333648681641 70.84033203125 15.301513671875 74.69850158691406 C 19.15968322753906 78.55668640136719 23.65165710449219 81.58545684814453 28.65262603759766 83.70068359375 C 33.82865142822266 85.88996887207031 39.32870864868164 87.00003051757812 44.99999618530273 87.00003051757812 C 50.67128372192383 87.00003051757812 56.17134094238281 85.88996887207031 61.34736633300781 83.70068359375 C 66.34834289550781 81.58545684814453 70.84030914306641 78.55668640136719 74.69847869873047 74.69850158691406 C 78.55665588378906 70.84033203125 81.58542633056641 66.34837341308594 83.70065307617188 61.34738922119141 C 85.88993835449219 56.17136001586914 87 50.67130279541016 87 45.00001525878906 C 87 39.32872772216797 85.88993835449219 33.82867050170898 83.70065307617188 28.65262985229492 C 81.58542633056641 23.65165710449219 78.55665588378906 19.15968322753906 74.69847869873047 15.301513671875 C 70.84030914306641 11.44334411621094 66.34834289550781 8.414573669433594 61.34736633300781 6.299346923828125 C 56.17134094238281 4.110061645507812 50.67128372192383 3 44.99999618530273 3 M 44.99999618530273 0 C 69.85281372070312 0 90 20.14718627929688 90 45.00001525878906 C 90 69.85282897949219 69.85281372070312 90.00003051757812 44.99999618530273 90.00003051757812 C 20.14717864990234 90.00003051757812 -7.62939453125e-06 69.85282897949219 -7.62939453125e-06 45.00001525878906 C -7.62939453125e-06 20.14718627929688 20.14717864990234 0 44.99999618530273 0 Z" stroke="none" fill="#2f5b79"/>
                      </g>
                    </g>
                  </g>
                </g>
              </g>
            </g>
          </g>
        </g>
      </g>
    </g>
    <g id="light_948488" transform="translate(644.227 5250.011)">
      <g id="Grupo_1210311" data-name="Grupo 1210311" transform="translate(0.96 0.96)">
        <path id="Trazado_1050104" data-name="Trazado 1050104" d="M347.212,89.606a9.6,9.6,0,0,0-9.9-9.6,9.7,9.7,0,0,0-9.305,9.518,9.568,9.568,0,0,0,2.881,6.935v12.354a1.92,1.92,0,0,0,1.921,1.921h9.6a1.92,1.92,0,0,0,1.921-1.921V96.459A9.574,9.574,0,0,0,347.212,89.606Z" transform="translate(-289.589 -71.358)" fill="#8c95a4"/>
        <path id="Trazado_1050105" data-name="Trazado 1050105" d="M34.891,8H13.762A5.762,5.762,0,0,0,8,13.762V27.7a5.766,5.766,0,0,0,1.687,4.075l.466.466a5.759,5.759,0,0,1,1.688,4.074v14.9a3.842,3.842,0,0,0,3.842,3.842H32.97a3.842,3.842,0,0,0,3.842-3.842v-14.9A5.766,5.766,0,0,1,38.5,32.242l.466-.466A5.759,5.759,0,0,0,40.653,27.7V13.762A5.762,5.762,0,0,0,34.891,8Z" transform="translate(-8 -8)" fill="#8c95a4"/>
      </g>
      <path id="Trazado_1050106" data-name="Trazado 1050106" d="M150.376,378.881a15.373,15.373,0,0,0,14.6,10.564h0c7.16,0,12.7-4.9,14.406-11.525l-4.8-1.921c-1.224,3.9-5.3,7.683-9.6,7.683h0a9.6,9.6,0,0,1-8.319-4.8Z" transform="translate(-132.323 -330.861)" fill="#afb8c9"/>
      <path id="Trazado_1050107" data-name="Trazado 1050107" d="M50.564,77.455H44.8a.961.961,0,0,1-.96-.96V64.476a9.6,9.6,0,0,0-2.813-6.79l-.466-.466A1.922,1.922,0,0,1,40,55.861V41.921A1.92,1.92,0,0,1,41.921,40H63.049a1.92,1.92,0,0,1,1.921,1.921v13.94a1.922,1.922,0,0,1-.563,1.359l-.465.465a9.606,9.606,0,0,0-2.814,6.793V76.495a.961.961,0,0,1-.96.96h-9.6Z" transform="translate(-35.198 -35.198)" fill="#ececec"/>
      <g id="Grupo_1210312" data-name="Grupo 1210312" transform="translate(8.644 8.644)">
        <path id="Trazado_1050108" data-name="Trazado 1050108" d="M82.564,81.6H72V72H89.287v9.6H82.564Z" transform="translate(-72 -72)" fill="#39c3fc"/>
        <rect id="Rectángulo_419548" data-name="Rectángulo 419548" width="10" height="3" transform="translate(4.129 14.128)" fill="#39c3fc"/>
      </g>
      <ellipse id="Elipse_11561" data-name="Elipse 11561" cx="3" cy="2.5" rx="3" ry="2.5" transform="translate(16.773 31.772)" fill="#fcd770"/>
      <circle id="Elipse_11562" data-name="Elipse 11562" cx="6" cy="6" r="6" transform="translate(42.773 12.772)" fill="#ececec"/>
      <path id="Trazado_1050109" data-name="Trazado 1050109" d="M365.762,156.8a5.759,5.759,0,0,1-5.676-4.8,5.762,5.762,0,1,0,11.352,0A5.759,5.759,0,0,1,365.762,156.8Z" transform="translate(-316.782 -133.753)" fill="#b6c1ce"/>
      <path id="Trazado_1050110" data-name="Trazado 1050110" d="M166.723,72H160.96L160,81.6h6.723Z" transform="translate(-140.792 -63.356)" fill="#148ce0"/>
      <path id="Trazado_1050111" data-name="Trazado 1050111" d="M72,328H89.287v1.921a.961.961,0,0,1-.96.96H72.96a.961.961,0,0,1-.96-.96Z" transform="translate(-63.356 -288.624)" fill="#b6c1ce"/>
      <path id="Trazado_1050112" data-name="Trazado 1050112" d="M56.336,11.625a10.47,10.47,0,0,0-7.683-2.976,10.657,10.657,0,0,0-10.237,10.47A10.469,10.469,0,0,0,41.3,26.454V38.416A2.885,2.885,0,0,0,44.178,41.3v2.4a11.2,11.2,0,0,1-.061,1.151l-2.465-.986-.311.988c-1.059,3.372-4.682,7.011-8.688,7.011a8.661,8.661,0,0,1-6.441-2.91,4.794,4.794,0,0,0,4.521-4.773v-14.9a4.775,4.775,0,0,1,1.406-3.4l.466-.466a6.679,6.679,0,0,0,1.969-4.754V6.723A6.73,6.73,0,0,0,27.85,0H6.723A6.73,6.73,0,0,0,0,6.723v13.94a6.681,6.681,0,0,0,1.969,4.754l.466.466a4.768,4.768,0,0,1,1.407,3.395v14.9a4.807,4.807,0,0,0,4.8,4.8h8.742A16.287,16.287,0,0,0,32.653,59.544,15.819,15.819,0,0,0,47.989,47.3l.21-.817-2.253-.9A12.98,12.98,0,0,0,46.1,43.7V41.3h7.683a2.885,2.885,0,0,0,2.881-2.881V26.453a10.558,10.558,0,0,0-.328-14.828Zm-15.714,38.2c.176-.2.344-.4.506-.608l3.192,1.843A14.481,14.481,0,0,1,43.3,52.507Zm-1.376,1.341,2.746,2.746a13.8,13.8,0,0,1-1.391,1.15l-1.968-3.408C38.843,51.5,39.047,51.336,39.246,51.168Zm-8.382,2.441c.275.048.55.083.83.109v3.868a14.436,14.436,0,0,1-1.831-.243Zm-2.858,3.244a14.352,14.352,0,0,1-1.708-.707l1.938-3.358c.254.117.51.223.772.32Zm5.609-3.129c.279-.031.553-.074.826-.131l1,3.736a13.642,13.642,0,0,1-1.827.255Zm2.659-.71c.248-.1.491-.218.731-.342l1.966,3.406a13.4,13.4,0,0,1-1.68.733Zm-9.7-1.186-1.937,3.356a14.222,14.222,0,0,1-1.468-1.122L25.91,51.32C26.125,51.5,26.345,51.667,26.573,51.829Zm-2.025-1.864-2.743,2.743a14.218,14.218,0,0,1-1.118-1.471L24.039,49.3C24.2,49.529,24.37,49.75,24.549,49.964ZM5.762,44.178v-14.9a6.681,6.681,0,0,0-1.969-4.754l-.467-.466a4.771,4.771,0,0,1-1.406-3.395V6.723a4.807,4.807,0,0,1,4.8-4.8H27.851a4.807,4.807,0,0,1,4.8,4.8v13.94a4.775,4.775,0,0,1-1.406,3.4l-.466.466a6.679,6.679,0,0,0-1.969,4.754v14.9a2.885,2.885,0,0,1-2.881,2.881H8.644A2.885,2.885,0,0,1,5.762,44.178Zm14.989,4.8-1.024.591c-.1-.195-.189-.391-.276-.591Zm24.472.386L42.2,47.621a12.055,12.055,0,0,0,.615-1.224L45.9,47.63A15.2,15.2,0,0,1,45.223,49.366Zm9.808-23.991-.288.282V38.416a.961.961,0,0,1-.96.96h-9.6a.961.961,0,0,1-.96-.96V25.658l-.288-.282a8.572,8.572,0,0,1-2.593-6.242,8.718,8.718,0,0,1,8.374-8.566c.091,0,.182,0,.272,0a8.64,8.64,0,0,1,6.049,14.811Z"/>
      <path id="Trazado_1050113" data-name="Trazado 1050113" d="M55.049,69.455V57.438a8.59,8.59,0,0,1,2.533-6.114l.465-.465a2.864,2.864,0,0,0,.844-2.038V34.881A2.885,2.885,0,0,0,56.01,32H34.881A2.885,2.885,0,0,0,32,34.881v13.94a2.864,2.864,0,0,0,.844,2.038l.466.466a8.586,8.586,0,0,1,2.532,6.111V69.455a1.923,1.923,0,0,0,1.921,1.921h6.723V69.455H37.762V57.436a10.491,10.491,0,0,0-3.094-7.469L34.2,49.5a.956.956,0,0,1-.281-.68V34.881a.962.962,0,0,1,.96-.96H56.01a.962.962,0,0,1,.96.96v13.94a.968.968,0,0,1-.281.68l-.465.465a10.5,10.5,0,0,0-3.1,7.472V69.455H46.406v1.921h6.723A1.923,1.923,0,0,0,55.049,69.455Z" transform="translate(-28.158 -28.158)"/>
      <path id="Trazado_1050114" data-name="Trazado 1050114" d="M121.6,73.6v1.921h3.842V64H112v1.921h11.525V73.6Z" transform="translate(-98.554 -56.317)"/>
      <path id="Trazado_1050115" data-name="Trazado 1050115" d="M67.842,65.921V64H64V75.525H77.446V73.6H65.921V65.921Z" transform="translate(-56.317 -56.317)"/>
      <path id="Trazado_1050116" data-name="Trazado 1050116" d="M107.525,176H96v5.762h11.525Zm-1.921,3.842H97.921v-1.921H105.6Z" transform="translate(-84.475 -154.871)"/>
      <path id="Trazado_1050117" data-name="Trazado 1050117" d="M131.842,263.683A3.842,3.842,0,1,0,128,259.842,3.845,3.845,0,0,0,131.842,263.683Zm0-5.762a1.921,1.921,0,1,1-1.921,1.921A1.923,1.923,0,0,1,131.842,257.921Z" transform="translate(-112.634 -225.267)"/>
      <rect id="Rectángulo_419549" data-name="Rectángulo 419549" width="1" height="3" transform="translate(11.773 36.772)"/>
      <rect id="Rectángulo_419550" data-name="Rectángulo 419550" width="1" height="2" transform="translate(11.773 33.772)"/>
      <rect id="Rectángulo_419551" data-name="Rectángulo 419551" width="1" height="2" transform="translate(11.773 29.772)"/>
      <path id="Trazado_1050118" data-name="Trazado 1050118" d="M379.468,104a6.674,6.674,0,0,0-3.892,1.248l1.114,1.564a4.8,4.8,0,0,1,6.689,6.689l1.565,1.114A6.716,6.716,0,0,0,379.468,104Z" transform="translate(-330.488 -91.515)"/>
      <path id="Trazado_1050119" data-name="Trazado 1050119" d="M358.723,136.27a4.8,4.8,0,0,1-3.911-7.58l-1.564-1.114a6.716,6.716,0,0,0,9.368,9.368l-1.114-1.564A4.767,4.767,0,0,1,358.723,136.27Z" transform="translate(-309.743 -112.261)"/>
    </g>
  </g>
</svg>
