<svg xmlns="http://www.w3.org/2000/svg" xmlns:xlink="http://www.w3.org/1999/xlink" width="108" height="108" viewBox="0 0 108 108">
  <defs>
    <filter id="Trazado_904820" x="0" y="0" width="108" height="108" filterUnits="userSpaceOnUse">
      <feOffset dy="3" input="SourceAlpha"/>
      <feGaussianBlur stdDeviation="3" result="blur"/>
      <feFlood flood-opacity="0.161"/>
      <feComposite operator="in" in2="blur"/>
      <feComposite in="SourceGraphic"/>
    </filter>
  </defs>
  <g id="Grupo_1210318" data-name="Grupo 1210318" transform="translate(-825.929 -9345.754)">
    <g id="Grupo_1210117" data-name="Grupo 1210117" transform="translate(634.929 7900.754)">
      <g id="Grupo_1206690" data-name="Grupo 1206690" transform="translate(-9 683)">
        <g id="Grupo_1202705" data-name="Grupo 1202705" transform="translate(209 768)">
          <g id="Grupo_1173585" data-name="Grupo 1173585" transform="translate(0 0)">
            <g id="Grupo_1173428" data-name="Grupo 1173428">
              <g id="Grupo_1171958" data-name="Grupo 1171958">
                <g id="Grupo_1167341" data-name="Grupo 1167341">
                  <g id="Grupo_1166792" data-name="Grupo 1166792">
                    <g transform="matrix(1, 0, 0, 1, -9, -6)" filter="url(#Trazado_904820)">
                      <g id="Trazado_904820-2" data-name="Trazado 904820" transform="translate(9 6)" fill="#fef9e7">
                        <path d="M 44.99999618530273 88.50002288818359 C 39.12687301635742 88.50002288818359 33.43022155761719 87.35009765625 28.06829643249512 85.08218383789062 C 22.88852119445801 82.89133453369141 18.23629570007324 79.75460815429688 14.24084663391113 75.75916290283203 C 10.24540901184082 71.76371002197266 7.108683586120605 67.11148834228516 4.917821407318115 61.93171310424805 C 2.649921178817749 56.56978607177734 1.499996185302734 50.87313461303711 1.499996185302734 45.0000114440918 C 1.499996185302734 39.12688827514648 2.649921178817749 33.43023681640625 4.917821407318115 28.06829833984375 C 7.108683586120605 22.88852310180664 10.24540901184082 18.2363109588623 14.24084663391113 14.2408618927002 C 18.23629570007324 10.24541187286377 22.88852119445801 7.108686447143555 28.06829643249512 4.917823791503906 C 33.43022155761719 2.649924039840698 39.12687301635742 1.499998927116394 44.99999618530273 1.499998927116394 C 50.87311935424805 1.499998927116394 56.56977081298828 2.649924039840698 61.93169784545898 4.917823791503906 C 67.11147308349609 7.108686447143555 71.76369476318359 10.24541187286377 75.75914764404297 14.2408618927002 C 79.75458526611328 18.2363109588623 82.89131164550781 22.88852310180664 85.08216857910156 28.06829833984375 C 87.35007476806641 33.43023681640625 88.5 39.12688827514648 88.5 45.0000114440918 C 88.5 50.87313461303711 87.35007476806641 56.56978607177734 85.08216857910156 61.93171310424805 C 82.89131164550781 67.11148834228516 79.75458526611328 71.76371002197266 75.75914764404297 75.75916290283203 C 71.76369476318359 79.75460815429688 67.11147308349609 82.89133453369141 61.93169784545898 85.08218383789062 C 56.56977081298828 87.35009765625 50.87311935424805 88.50002288818359 44.99999618530273 88.50002288818359 Z" stroke="none"/>
                        <path d="M 44.99999618530273 3 C 39.32870864868164 3 33.82865142822266 4.110054016113281 28.65262603759766 6.299339294433594 C 23.65165710449219 8.414566040039062 19.15968322753906 11.44333648681641 15.301513671875 15.30152893066406 C 11.44333648681641 19.15969848632812 8.414566040039062 23.65165710449219 6.299339294433594 28.65264129638672 C 4.110054016113281 33.82866668701172 2.999992370605469 39.3287239074707 2.999992370605469 45.0000114440918 C 2.999992370605469 50.67129898071289 4.110054016113281 56.17135620117188 6.299339294433594 61.34738159179688 C 8.414566040039062 66.34836578369141 11.44333648681641 70.84032440185547 15.301513671875 74.69849395751953 C 19.15968322753906 78.55668640136719 23.65165710449219 81.58545684814453 28.65262603759766 83.70068359375 C 33.82865142822266 85.88996887207031 39.32870864868164 87.00002288818359 44.99999618530273 87.00002288818359 C 50.67128372192383 87.00002288818359 56.17134094238281 85.88996887207031 61.34736633300781 83.70068359375 C 66.34834289550781 81.58545684814453 70.84030914306641 78.55668640136719 74.69847869873047 74.69849395751953 C 78.55665588378906 70.84032440185547 81.58542633056641 66.34836578369141 83.70065307617188 61.34738159179688 C 85.88993835449219 56.17135620117188 87 50.67129898071289 87 45.0000114440918 C 87 39.3287239074707 85.88993835449219 33.82866668701172 83.70065307617188 28.65264129638672 C 81.58542633056641 23.65165710449219 78.55665588378906 19.15969848632812 74.69847869873047 15.30152893066406 C 70.84030914306641 11.44333648681641 66.34834289550781 8.414566040039062 61.34736633300781 6.299339294433594 C 56.17134094238281 4.110054016113281 50.67128372192383 3 44.99999618530273 3 M 44.99999618530273 0 C 69.85281372070312 0 90 20.14719390869141 90 45.0000114440918 C 90 69.85282897949219 69.85281372070312 90.00002288818359 44.99999618530273 90.00002288818359 C 20.14717864990234 90.00002288818359 -7.62939453125e-06 69.85282897949219 -7.62939453125e-06 45.0000114440918 C -7.62939453125e-06 20.14719390869141 20.14717864990234 0 44.99999618530273 0 Z" stroke="none" fill="#887013"/>
                      </g>
                    </g>
                  </g>
                </g>
              </g>
            </g>
          </g>
        </g>
      </g>
    </g>
    <g id="volume-up_6155884" transform="translate(846.934 9363.608)">
      <path id="Trazado_1050147" data-name="Trazado 1050147" d="M19.822,28.381H12v8.277h7.822a15.519,15.519,0,0,0,14.94,11.381V17a15.519,15.519,0,0,0-14.94,11.381Z" transform="translate(0.381 0.548)" fill="#efd248"/>
      <path id="Trazado_1050148" data-name="Trazado 1050148" d="M12,28h7.242v8.277H12Z" transform="translate(0.381 0.929)" fill="#9ccddb"/>
      <path id="Trazado_1050149" data-name="Trazado 1050149" d="M32.965,6.132a26.9,26.9,0,0,1,26.806,24.83H63.91a31.038,31.038,0,0,0-61.91,0H6.138A26.9,26.9,0,0,1,32.965,6.132Z" transform="translate(0.035 0.036)" fill="#7aa94c"/>
      <path id="Trazado_1050150" data-name="Trazado 1050150" d="M32.965,58.83A26.9,26.9,0,0,1,6.138,34H2a31.038,31.038,0,0,0,61.92,0H59.782A26.9,26.9,0,0,1,32.965,58.83Z" transform="translate(0.035 1.136)" fill="#7aa94c"/>
      <path id="Trazado_1050151" data-name="Trazado 1050151" d="M52.484,30.173H47.311V25H43.173v5.173H38v4.138h5.173v5.173h4.138V34.311h5.173Z" transform="translate(1.28 0.825)" fill="#9ccddb"/>
      <path id="Trazado_1050152" data-name="Trazado 1050152" d="M19.08,27.381H12.035A1.035,1.035,0,0,0,11,28.415v8.277a1.035,1.035,0,0,0,1.035,1.035H19.08A16.605,16.605,0,0,0,34.8,49.107a1.035,1.035,0,0,0,1.035-1.035V17.035A1.035,1.035,0,0,0,34.8,16,16.605,16.605,0,0,0,19.08,27.381Zm-.838,8.277H13.069V29.45h5.173ZM33.761,47.038A14.484,14.484,0,0,1,20.849,36.413a1.035,1.035,0,0,0-.538-.631V29.326a1.035,1.035,0,0,0,.538-.631A14.484,14.484,0,0,1,33.761,18.069Z" transform="translate(0.346 0.514)"/>
      <path id="Trazado_1050153" data-name="Trazado 1050153" d="M2.035,32.032H6.173a1.035,1.035,0,0,0,1.035-.952,25.865,25.865,0,0,1,51.564,0,1.035,1.035,0,0,0,1.035.952h4.138a1.044,1.044,0,0,0,1.035-1.107A32.072,32.072,0,0,0,1,30.925a1.044,1.044,0,0,0,1.035,1.107ZM33,3.064a30.065,30.065,0,0,1,29.827,26.9H60.758a27.934,27.934,0,0,0-55.516,0H3.173A30.065,30.065,0,0,1,33,3.064Z" transform="translate(0)"/>
      <path id="Trazado_1050154" data-name="Trazado 1050154" d="M33,64.038A32.124,32.124,0,0,0,64.99,34.107,1.044,1.044,0,0,0,63.955,33H59.817a1.035,1.035,0,0,0-1.035.952,25.865,25.865,0,0,1-51.575,0A1.035,1.035,0,0,0,6.173,33H2.035A1.044,1.044,0,0,0,1,34.107,32.134,32.134,0,0,0,33,64.038ZM5.242,35.069a27.934,27.934,0,0,0,55.506,0h2.069a30,30,0,0,1-59.655,0Z" transform="translate(0 1.102)"/>
      <path id="Trazado_1050155" data-name="Trazado 1050155" d="M43.208,40.554h4.138a1.035,1.035,0,0,0,1.035-1.035V35.381h4.138a1.035,1.035,0,0,0,1.035-1.035V30.208a1.035,1.035,0,0,0-1.035-1.035H48.381V25.035A1.035,1.035,0,0,0,47.346,24H43.208a1.035,1.035,0,0,0-1.035,1.035v4.138H38.035A1.035,1.035,0,0,0,37,30.208v4.138a1.035,1.035,0,0,0,1.035,1.035h4.138v4.138A1.035,1.035,0,0,0,43.208,40.554Zm-4.138-7.242V31.242h4.138a1.035,1.035,0,0,0,1.035-1.035V26.069h2.069v4.138a1.035,1.035,0,0,0,1.035,1.035h4.138v2.069H47.346a1.035,1.035,0,0,0-1.035,1.035v4.138H44.242V34.346a1.035,1.035,0,0,0-1.035-1.035Z" transform="translate(1.245 0.79)"/>
    </g>
  </g>
</svg>
