<svg xmlns="http://www.w3.org/2000/svg" xmlns:xlink="http://www.w3.org/1999/xlink" width="113" height="113" viewBox="0 0 113 113">
  <defs>
    <filter id="Trazado_982547" x="0" y="-0.001" width="113" height="113" filterUnits="userSpaceOnUse">
      <feOffset dy="3" input="SourceAlpha"/>
      <feGaussianBlur stdDeviation="3" result="blur"/>
      <feFlood flood-opacity="0.161"/>
      <feComposite operator="in" in2="blur"/>
      <feComposite in="SourceGraphic"/>
    </filter>
  </defs>
  <g id="Grupo_1210325" data-name="Grupo 1210325" transform="translate(-797 -11373.483)">
    <g id="Grupo_1210122" data-name="Grupo 1210122" transform="translate(3.51 9051.484)">
      <g id="Grupo_1209048" data-name="Grupo 1209048" transform="translate(0 1091.783)">
        <g id="Grupo_1208492" data-name="Grupo 1208492" transform="translate(0 -4397.209)">
          <g id="Grupo_1177675" data-name="Grupo 1177675" transform="translate(-4493 3707.152)">
            <g id="Grupo_1176928" data-name="Grupo 1176928" transform="translate(5295.49 1926.273)">
              <g id="Grupo_1172322" data-name="Grupo 1172322" transform="translate(0 0)">
                <g id="Grupo_1164700" data-name="Grupo 1164700">
                  <g id="Grupo_1160931" data-name="Grupo 1160931">
                    <g id="Grupo_1160749" data-name="Grupo 1160749">
                      <g id="Grupo_1158891" data-name="Grupo 1158891">
                        <g id="Grupo_1157406" data-name="Grupo 1157406">
                          <g id="Grupo_1155793" data-name="Grupo 1155793">
                            <g id="Grupo_1154704" data-name="Grupo 1154704">
                              <g id="Grupo_1150790" data-name="Grupo 1150790">
                                <g id="Grupo_1154214" data-name="Grupo 1154214">
                                  <g id="Grupo_1152583" data-name="Grupo 1152583">
                                    <g id="Grupo_1146973" data-name="Grupo 1146973">
                                      <g id="Grupo_1146954" data-name="Grupo 1146954">
                                        <g transform="matrix(1, 0, 0, 1, -9, -6)" filter="url(#Trazado_982547)">
                                          <g id="Trazado_982547-2" data-name="Trazado 982547" transform="translate(9 6)" fill="#fef9e7">
                                            <path d="M 47.5000114440918 93.49987030029297 C 41.28938293457031 93.49987030029297 35.26534652709961 92.28384399414062 29.5951976776123 89.88558959960938 C 24.11773109436035 87.56881713867188 19.19814491271973 84.25183868408203 14.97310447692871 80.02680206298828 C 10.74805164337158 75.80176544189453 7.43107795715332 70.88218688964844 5.114304542541504 65.40472412109375 C 2.716038227081299 59.73458862304688 1.500011444091797 53.71054840087891 1.500011444091797 47.49993515014648 C 1.500011444091797 41.28932189941406 2.716038227081299 35.26528167724609 5.114304542541504 29.59514808654785 C 7.43107795715332 24.1176815032959 10.74805164337158 19.1981086730957 14.97310447692871 14.97306823730469 C 19.19814491271973 10.74802875518799 24.11773109436035 7.431055068969727 29.5951976776123 5.11428165435791 C 35.26534652709961 2.716028451919556 41.28938293457031 1.500001788139343 47.5000114440918 1.500001788139343 C 53.71063995361328 1.500001788139343 59.73467636108398 2.716028451919556 65.40482330322266 5.11428165435791 C 70.88229370117188 7.431055068969727 75.8018798828125 10.74802875518799 80.02691650390625 14.97306823730469 C 84.25196838378906 19.1981086730957 87.56894683837891 24.1176815032959 89.88571929931641 29.59514808654785 C 92.28398132324219 35.26528167724609 93.50001525878906 41.28932189941406 93.50001525878906 47.49993515014648 C 93.50001525878906 53.71054840087891 92.28398132324219 59.73458862304688 89.88571929931641 65.40472412109375 C 87.56894683837891 70.88218688964844 84.25196838378906 75.80176544189453 80.02691650390625 80.02680206298828 C 75.8018798828125 84.25183868408203 70.88229370117188 87.56881713867188 65.40482330322266 89.88558959960938 C 59.73467636108398 92.28384399414062 53.71063995361328 93.49987030029297 47.5000114440918 93.49987030029297 Z" stroke="none"/>
                                            <path d="M 47.5000114440918 3 C 41.49122619628906 3 35.66378021240234 4.1761474609375 30.17951965332031 6.495796203613281 C 24.880859375 8.7369384765625 20.12153625488281 11.94596862792969 16.03376770019531 16.03373718261719 C 11.94598388671875 20.12149047851562 8.736968994140625 24.88081359863281 6.495811462402344 30.17947387695312 C 4.176162719726562 35.66371917724609 3.000007629394531 41.49116516113281 3.000007629394531 47.49993515014648 C 3.000007629394531 53.50870513916016 4.176162719726562 59.33615112304688 6.495811462402344 64.82039642333984 C 8.736968994140625 70.11905670166016 11.94598388671875 74.87837982177734 16.03376770019531 78.96613311767578 C 20.12153625488281 83.05390167236328 24.880859375 86.26293182373047 30.17951965332031 88.50407409667969 C 35.66378021240234 90.82372283935547 41.49122619628906 91.99987030029297 47.5000114440918 91.99987030029297 C 53.50879669189453 91.99987030029297 59.33624267578125 90.82372283935547 64.82050323486328 88.50407409667969 C 70.11916351318359 86.26293182373047 74.87848663330078 83.05390167236328 78.96625518798828 78.96613311767578 C 83.05403900146484 74.87837982177734 86.2630615234375 70.11905670166016 88.50421142578125 64.82039642333984 C 90.82386016845703 59.33615112304688 92.00001525878906 53.50870513916016 92.00001525878906 47.49993515014648 C 92.00001525878906 41.49116516113281 90.82386016845703 35.66371917724609 88.50421142578125 30.17947387695312 C 86.2630615234375 24.88081359863281 83.05403900146484 20.12149047851562 78.96625518798828 16.03373718261719 C 74.87848663330078 11.94596862792969 70.11916351318359 8.7369384765625 64.82050323486328 6.495796203613281 C 59.33624267578125 4.1761474609375 53.50879669189453 3 47.5000114440918 3 M 47.5000114440918 0 C 73.73353576660156 0 95.00001525878906 21.26644134521484 95.00001525878906 47.49993515014648 C 95.00001525878906 73.73342895507812 73.73353576660156 94.99987030029297 47.5000114440918 94.99987030029297 C 21.26648712158203 94.99987030029297 7.62939453125e-06 73.73342895507812 7.62939453125e-06 47.49993515014648 C 7.62939453125e-06 21.26644134521484 21.26648712158203 0 47.5000114440918 0 Z" stroke="none" fill="#f8ce24"/>
                                          </g>
                                        </g>
                                      </g>
                                    </g>
                                  </g>
                                </g>
                              </g>
                            </g>
                          </g>
                        </g>
                      </g>
                    </g>
                  </g>
                </g>
              </g>
            </g>
          </g>
        </g>
      </g>
    </g>
    <g id="deafness_13098671" transform="translate(748.685 11383.715)">
      <g id="Grupo_1210324" data-name="Grupo 1210324" transform="translate(80.617 9.97)">
        <g id="Grupo_1210321" data-name="Grupo 1210321" transform="translate(0 0)">
          <path id="Trazado_1050310" data-name="Trazado 1050310" d="M86.464,37.761s1.789,12.448,1.15,18.166c-.593,5.3-3.862,8.884-5.584,14.424-.813,2.617-.682,4.518,1.784,6.248,1.672,1.173,3.086,2.592,4.539,3.755A8.482,8.482,0,0,0,93.535,82.6c3.513.072,5.306-3.072,7.768-5.262,13.139-11.685,28.1-17.592,28.674-39.575a21.756,21.756,0,1,0-43.513,0Z" transform="translate(-81.583 -16.005)" fill="#efc7a4" fill-rule="evenodd"/>
          <circle id="Elipse_11563" data-name="Elipse 11563" cx="16.16" cy="16.16" r="16.16" transform="translate(7.714 8.947) rotate(-10.894)" fill="#d5a889"/>
        </g>
        <g id="Grupo_1210322" data-name="Grupo 1210322" transform="translate(14.842 11.643)">
          <path id="Trazado_1050311" data-name="Trazado 1050311" d="M189.391,106.045H193.4l8.391-5.966a.832.832,0,0,1,1.315.678v18.557a.833.833,0,0,1-1.315.678l-8.391-5.966h-4.006a.834.834,0,0,1-.832-.832v-6.317A.834.834,0,0,1,189.391,106.045Z" transform="translate(-188.559 -99.922)" fill="#e4e8eb" fill-rule="evenodd"/>
          <path id="Trazado_1050312" data-name="Trazado 1050312" d="M193.4,144.054h-4.006a.834.834,0,0,0-.832.832V151.2a.834.834,0,0,0,.832.832H193.4Z" transform="translate(-188.559 -137.931)" fill="#cad0d7" fill-rule="evenodd"/>
        </g>
        <g id="Grupo_1210323" data-name="Grupo 1210323" transform="translate(27.883 16.091)">
          <path id="Trazado_1050313" data-name="Trazado 1050313" d="M288.225,143.316a5.665,5.665,0,1,0-5.665-5.665A5.676,5.676,0,0,0,288.225,143.316Z" transform="translate(-282.56 -131.985)" fill="#f76c82" fill-rule="evenodd"/>
        </g>
      </g>
      <path id="Trazado_1050314" data-name="Trazado 1050314" d="M115.927,29.153a.97.97,0,0,0-1.374,0l-1.2,1.2-1.2-1.2a.971.971,0,0,0-1.372,1.374l1.2,1.2-1.2,1.2a.971.971,0,0,0,1.374,1.374l1.2-1.2,1.2,1.2a.971.971,0,1,0,1.374-1.374l-1.2-1.2,1.2-1.2a.97.97,0,0,0,0-1.374Zm2.12,2.573a4.694,4.694,0,1,1-4.694-4.7A4.7,4.7,0,0,1,118.047,31.726Zm-9.827,9.01V35.927a6.619,6.619,0,0,1,0-8.4V22.717l-7.444,5.292v7.434Zm-12.6-5.991h3.218V28.706H95.617Zm24.372-3.019a6.632,6.632,0,0,1-9.827,5.816v5.075a.975.975,0,0,1-.526.863.975.975,0,0,1-1.008-.071l-9.454-6.722H94.646a.972.972,0,0,1-.971-.971V27.735a.973.973,0,0,1,.971-.971h4.529l9.454-6.72a.971.971,0,0,1,1.534.792v5.074a6.632,6.632,0,0,1,9.826,5.817Zm-31,14.58A19.275,19.275,0,0,1,90.17,56.9a.973.973,0,0,0,.766,1.14.934.934,0,0,0,.189.018.971.971,0,0,0,.952-.784,20.9,20.9,0,0,0-1.329-11.782.971.971,0,0,0-1.761.817ZM106.443,9a22.754,22.754,0,0,1,22.727,22.729v.025C128.7,49.6,118.862,57.23,108.444,65.3c-2.731,2.117-5.554,4.3-8.275,6.725-.578.514-1.142,1.11-1.686,1.684-1.779,1.879-3.618,3.824-6.6,3.824h-.142c-2.493-.052-4.192-1.636-5.834-3.169a11.442,11.442,0,0,0-4.158-2.873.972.972,0,0,1,.584-1.854,13.138,13.138,0,0,1,4.9,3.307c1.5,1.4,2.8,2.612,4.548,2.648,2.209.049,3.641-1.466,5.3-3.216.573-.6,1.164-1.231,1.806-1.8,2.769-2.462,5.619-4.672,8.375-6.808,10.476-8.121,19.525-15.133,19.973-32.054a20.785,20.785,0,0,0-41.57.012.971.971,0,1,1-1.942,0A22.754,22.754,0,0,1,106.443,9ZM121.63,31.726a15.188,15.188,0,1,1-15.188-15.189A15.206,15.206,0,0,1,121.63,31.726ZM106.443,48.858a17.132,17.132,0,1,1,17.131-17.132A17.152,17.152,0,0,1,106.443,48.858Zm4.433,6.509a33.491,33.491,0,0,1-7.345,4.412.971.971,0,1,0,.831,1.755,35.459,35.459,0,0,0,7.69-4.623.971.971,0,1,0-1.176-1.544ZM80.622,60.906a.968.968,0,0,1,.026-1.107c3.2-4.39,4.308-6.1,4.217-9.883a.971.971,0,1,1,1.942-.047c.091,3.8-.942,5.927-3.275,9.245a7.346,7.346,0,0,1,3.925,1.009,16.691,16.691,0,0,1,1.737,1.2,7.8,7.8,0,0,0,4.242,1.949,5.148,5.148,0,0,0,4.642-1.591,8.934,8.934,0,0,0,1.77-5,.971.971,0,0,1,1.933.193,10.783,10.783,0,0,1-2.233,6.077,6.821,6.821,0,0,1-5.373,2.3c-.3,0-.605-.014-.917-.043a9.614,9.614,0,0,1-5.232-2.332,15.092,15.092,0,0,0-1.537-1.064,6.07,6.07,0,0,0-4.838-.49.97.97,0,0,1-1.03-.412Z" transform="translate(0)" fill-rule="evenodd"/>
    </g>
  </g>
</svg>
