<svg xmlns="http://www.w3.org/2000/svg" xmlns:xlink="http://www.w3.org/1999/xlink" width="113" height="113" viewBox="0 0 113 113">
  <defs>
    <filter id="Trazado_982547" x="0" y="0" width="113" height="113" filterUnits="userSpaceOnUse">
      <feOffset dy="3" input="SourceAlpha"/>
      <feGaussianBlur stdDeviation="3" result="blur"/>
      <feFlood flood-opacity="0.161"/>
      <feComposite operator="in" in2="blur"/>
      <feComposite in="SourceGraphic"/>
    </filter>
  </defs>
  <g id="Grupo_1210335" data-name="Grupo 1210335" transform="translate(-1112 -11373.483)">
    <g id="Grupo_1210123" data-name="Grupo 1210123" transform="translate(0 9051.484)">
      <g id="Grupo_1209055" data-name="Grupo 1209055" transform="translate(0 1091.783)">
        <g id="Grupo_1209049" data-name="Grupo 1209049">
          <g id="Grupo_1208493" data-name="Grupo 1208493" transform="translate(0 -4397.209)">
            <g id="Grupo_1202104" data-name="Grupo 1202104" transform="translate(0 -1149.226)">
              <g id="Grupo_1201923" data-name="Grupo 1201923" transform="translate(-4174.49 4856.378)">
                <g id="Grupo_1176928" data-name="Grupo 1176928" transform="translate(5295.49 1926.273)">
                  <g id="Grupo_1172322" data-name="Grupo 1172322" transform="translate(0 0)">
                    <g id="Grupo_1164700" data-name="Grupo 1164700">
                      <g id="Grupo_1160931" data-name="Grupo 1160931">
                        <g id="Grupo_1160749" data-name="Grupo 1160749">
                          <g id="Grupo_1158891" data-name="Grupo 1158891">
                            <g id="Grupo_1157406" data-name="Grupo 1157406">
                              <g id="Grupo_1155793" data-name="Grupo 1155793">
                                <g id="Grupo_1154704" data-name="Grupo 1154704">
                                  <g id="Grupo_1150790" data-name="Grupo 1150790">
                                    <g id="Grupo_1154214" data-name="Grupo 1154214">
                                      <g id="Grupo_1152583" data-name="Grupo 1152583">
                                        <g id="Grupo_1146973" data-name="Grupo 1146973">
                                          <g id="Grupo_1146954" data-name="Grupo 1146954">
                                            <g transform="matrix(1, 0, 0, 1, -9, -6)" filter="url(#Trazado_982547)">
                                              <g id="Trazado_982547-2" data-name="Trazado 982547" transform="translate(9 6)" fill="#fef9e7">
                                                <path d="M 47.5000114440918 93.49987030029297 C 41.28938293457031 93.49987030029297 35.26534652709961 92.28384399414062 29.5951976776123 89.88558959960938 C 24.11773109436035 87.56881713867188 19.19814491271973 84.25183868408203 14.97310447692871 80.02680206298828 C 10.74805164337158 75.80176544189453 7.43107795715332 70.88218688964844 5.114304542541504 65.40472412109375 C 2.716038227081299 59.73458862304688 1.500011444091797 53.71054840087891 1.500011444091797 47.49993515014648 C 1.500011444091797 41.28932189941406 2.716038227081299 35.26528167724609 5.114304542541504 29.59514808654785 C 7.43107795715332 24.1176815032959 10.74805164337158 19.1981086730957 14.97310447692871 14.97306823730469 C 19.19814491271973 10.74802875518799 24.11773109436035 7.431055068969727 29.5951976776123 5.11428165435791 C 35.26534652709961 2.716028451919556 41.28938293457031 1.500001788139343 47.5000114440918 1.500001788139343 C 53.71063995361328 1.500001788139343 59.73467636108398 2.716028451919556 65.40482330322266 5.11428165435791 C 70.88229370117188 7.431055068969727 75.8018798828125 10.74802875518799 80.02691650390625 14.97306823730469 C 84.25196838378906 19.1981086730957 87.56894683837891 24.1176815032959 89.88571929931641 29.59514808654785 C 92.28398132324219 35.26528167724609 93.50001525878906 41.28932189941406 93.50001525878906 47.49993515014648 C 93.50001525878906 53.71054840087891 92.28398132324219 59.73458862304688 89.88571929931641 65.40472412109375 C 87.56894683837891 70.88218688964844 84.25196838378906 75.80176544189453 80.02691650390625 80.02680206298828 C 75.8018798828125 84.25183868408203 70.88229370117188 87.56881713867188 65.40482330322266 89.88558959960938 C 59.73467636108398 92.28384399414062 53.71063995361328 93.49987030029297 47.5000114440918 93.49987030029297 Z" stroke="none"/>
                                                <path d="M 47.5000114440918 3 C 41.49122619628906 3 35.66378021240234 4.1761474609375 30.17951965332031 6.495796203613281 C 24.880859375 8.7369384765625 20.12153625488281 11.94596862792969 16.03376770019531 16.03373718261719 C 11.94598388671875 20.12149047851562 8.736968994140625 24.88081359863281 6.495811462402344 30.17947387695312 C 4.176162719726562 35.66371917724609 3.000007629394531 41.49116516113281 3.000007629394531 47.49993515014648 C 3.000007629394531 53.50870513916016 4.176162719726562 59.33615112304688 6.495811462402344 64.82039642333984 C 8.736968994140625 70.11905670166016 11.94598388671875 74.87837982177734 16.03376770019531 78.96613311767578 C 20.12153625488281 83.05390167236328 24.880859375 86.26293182373047 30.17951965332031 88.50407409667969 C 35.66378021240234 90.82372283935547 41.49122619628906 91.99987030029297 47.5000114440918 91.99987030029297 C 53.50879669189453 91.99987030029297 59.33624267578125 90.82372283935547 64.82050323486328 88.50407409667969 C 70.11916351318359 86.26293182373047 74.87848663330078 83.05390167236328 78.96625518798828 78.96613311767578 C 83.05403900146484 74.87837982177734 86.2630615234375 70.11905670166016 88.50421142578125 64.82039642333984 C 90.82386016845703 59.33615112304688 92.00001525878906 53.50870513916016 92.00001525878906 47.49993515014648 C 92.00001525878906 41.49116516113281 90.82386016845703 35.66371917724609 88.50421142578125 30.17947387695312 C 86.2630615234375 24.88081359863281 83.05403900146484 20.12149047851562 78.96625518798828 16.03373718261719 C 74.87848663330078 11.94596862792969 70.11916351318359 8.7369384765625 64.82050323486328 6.495796203613281 C 59.33624267578125 4.1761474609375 53.50879669189453 3 47.5000114440918 3 M 47.5000114440918 0 C 73.73353576660156 0 95.00001525878906 21.26644134521484 95.00001525878906 47.49993515014648 C 95.00001525878906 73.73342895507812 73.73353576660156 94.99987030029297 47.5000114440918 94.99987030029297 C 21.26648712158203 94.99987030029297 7.62939453125e-06 73.73342895507812 7.62939453125e-06 47.49993515014648 C 7.62939453125e-06 21.26644134521484 21.26648712158203 0 47.5000114440918 0 Z" stroke="none" fill="#f8ce24"/>
                                              </g>
                                            </g>
                                          </g>
                                        </g>
                                      </g>
                                    </g>
                                  </g>
                                </g>
                              </g>
                            </g>
                          </g>
                        </g>
                      </g>
                    </g>
                  </g>
                </g>
              </g>
            </g>
          </g>
        </g>
      </g>
    </g>
    <g id="key-performance-indicator_9422810" transform="translate(1096.683 11386.621)">
      <path id="Trazado_1050315" data-name="Trazado 1050315" d="M74.738,92.98V77.507a.9.9,0,0,1,.9-.9H88.877v-26.1a1.282,1.282,0,0,0-1.282-1.282H45.437a1.282,1.282,0,0,0-1.282,1.282V92.98Z" transform="translate(0 -36.377)" fill="#dff6fd"/>
      <g id="Grupo_1210326" data-name="Grupo 1210326" transform="translate(83.6 12.85)">
        <path id="Trazado_1050316" data-name="Trazado 1050316" d="M355.79,49.227h-3.995a1.282,1.282,0,0,1,1.282,1.282v26.1h3.995v-26.1A1.282,1.282,0,0,0,355.79,49.227Z" transform="translate(-351.795 -49.227)" fill="#c8effe"/>
      </g>
      <path id="Trazado_1050317" data-name="Trazado 1050317" d="M54.927,49.227h-9.49a1.282,1.282,0,0,0-1.282,1.282V92.98" transform="translate(0 -36.377)" fill="none" stroke="#000" stroke-linecap="round" stroke-linejoin="round" stroke-miterlimit="10" stroke-width="1.5"/>
      <path id="Trazado_1050318" data-name="Trazado 1050318" d="M319.707,76.481V50.509a1.282,1.282,0,0,0-1.282-1.282h-9.49" transform="translate(-230.83 -36.377)" fill="none" stroke="#000" stroke-linecap="round" stroke-linejoin="round" stroke-miterlimit="10" stroke-width="1.5"/>
      <path id="Trazado_1050319" data-name="Trazado 1050319" d="M74.738,389.463H44.155V399.7a1.282,1.282,0,0,0,1.282,1.282h29.3Z" transform="translate(0 -332.989)" fill="#26a6fe"/>
      <rect id="Rectángulo_419554" data-name="Rectángulo 419554" width="3.995" height="11.523" transform="translate(70.743 56.474)" fill="#0593fc"/>
      <path id="Trazado_1050320" data-name="Trazado 1050320" d="M53.751,400.986H74.61V389.463H44.155V399.7a1.282,1.282,0,0,0,1.282,1.282h3.827" transform="translate(0 -332.989)" fill="none" stroke="#000" stroke-linecap="round" stroke-linejoin="round" stroke-miterlimit="10" stroke-width="1.5"/>
      <g id="Grupo_1210328" data-name="Grupo 1210328" transform="translate(51.302 7.5)">
        <path id="Trazado_1050321" data-name="Trazado 1050321" d="M115.111,7.5A15.228,15.228,0,0,0,99.9,22.065a.639.639,0,0,0,.641.663h11.82a2.753,2.753,0,0,1,5.505,0h11.819a.639.639,0,0,0,.641-.663A15.228,15.228,0,0,0,115.111,7.5Z" transform="translate(-99.897 -7.5)" fill="#fff"/>
        <g id="Grupo_1210327" data-name="Grupo 1210327" transform="translate(12.528 0)">
          <path id="Trazado_1050322" data-name="Trazado 1050322" d="M200.291,7.5a15.309,15.309,0,0,0-2.686.237,15.233,15.233,0,0,1,12.527,14.328.639.639,0,0,1-.641.663h5.372a.639.639,0,0,0,.641-.663A15.228,15.228,0,0,0,200.291,7.5Z" transform="translate(-197.605 -7.5)" fill="#f9f3f1"/>
        </g>
        <path id="Trazado_1050323" data-name="Trazado 1050323" d="M117.863,22.727h11.819a.639.639,0,0,0,.641-.663,15.228,15.228,0,0,0-30.426,0,.639.639,0,0,0,.641.663h3.6" transform="translate(-99.896 -7.5)" fill="none" stroke="#000" stroke-linecap="round" stroke-linejoin="round" stroke-miterlimit="10" stroke-width="1.5"/>
        <line id="Línea_830" data-name="Línea 830" x2="3.729" transform="translate(8.732 15.227)" fill="none" stroke="#000" stroke-linecap="round" stroke-linejoin="round" stroke-miterlimit="10" stroke-width="1.5"/>
        <path id="Trazado_1050324" data-name="Trazado 1050324" d="M146.386,50.572a10.424,10.424,0,0,1,18.506,0" transform="translate(-140.425 -40.146)" fill="none" stroke="#000" stroke-linecap="round" stroke-linejoin="round" stroke-miterlimit="10" stroke-width="1.5"/>
        <circle id="Elipse_11564" data-name="Elipse 11564" cx="2.881" cy="2.881" r="2.881" transform="translate(12.333 12.347)" fill="#26a6fe"/>
        <path id="Trazado_1050325" data-name="Trazado 1050325" d="M209.8,103.793a2.869,2.869,0,0,0-1.288.3,2.881,2.881,0,0,1,0,5.154,2.881,2.881,0,1,0,1.288-5.458Z" transform="translate(-194.585 -91.447)" fill="#0593fc"/>
        <circle id="Elipse_11565" data-name="Elipse 11565" cx="2.881" cy="2.881" r="2.881" transform="translate(12.333 12.347)" fill="none" stroke="#000" stroke-linecap="round" stroke-linejoin="round" stroke-miterlimit="10" stroke-width="1.5"/>
        <line id="Línea_831" data-name="Línea 831" x1="6.759" y2="6.053" transform="translate(17.372 7.271)" fill="none" stroke="#000" stroke-linecap="round" stroke-linejoin="round" stroke-miterlimit="10" stroke-width="1.5"/>
      </g>
      <g id="Grupo_1210333" data-name="Grupo 1210333" transform="translate(49.62 28.718)">
        <g id="Grupo_1210329" data-name="Grupo 1210329" transform="translate(0)">
          <circle id="Elipse_11566" data-name="Elipse 11566" cx="4.55" cy="4.55" r="4.55" fill="#05e39c"/>
          <path id="Trazado_1050326" data-name="Trazado 1050326" d="M113.2,172.985a4.547,4.547,0,0,0-1.332.2,4.551,4.551,0,0,1,0,8.7,4.55,4.55,0,1,0,1.332-8.9Z" transform="translate(-108.653 -172.985)" fill="#0ed290"/>
          <circle id="Elipse_11567" data-name="Elipse 11567" cx="4.55" cy="4.55" r="4.55" fill="none" stroke="#000" stroke-linecap="round" stroke-linejoin="round" stroke-miterlimit="10" stroke-width="1.5"/>
          <path id="Trazado_1050327" data-name="Trazado 1050327" d="M108.944,202.387l1.351,1.351,2.095-2.095" transform="translate(-106.102 -197.969)" fill="none" stroke="#000" stroke-linecap="round" stroke-linejoin="round" stroke-miterlimit="10" stroke-width="1.5"/>
        </g>
        <g id="Grupo_1210330" data-name="Grupo 1210330" transform="translate(12.529 2.492)">
          <line id="Línea_832" data-name="Línea 832" x2="21.264" fill="none" stroke="#000" stroke-linecap="round" stroke-linejoin="round" stroke-miterlimit="10" stroke-width="1.5"/>
          <line id="Línea_833" data-name="Línea 833" x2="14.169" transform="translate(0 4.115)" fill="none" stroke="#000" stroke-linecap="round" stroke-linejoin="round" stroke-miterlimit="10" stroke-width="1.5"/>
          <line id="Línea_834" data-name="Línea 834" x2="3.761" transform="translate(17.503 4.115)" fill="none" stroke="#000" stroke-linecap="round" stroke-linejoin="round" stroke-miterlimit="10" stroke-width="1.5"/>
        </g>
        <g id="Grupo_1210331" data-name="Grupo 1210331" transform="translate(0 12.97)">
          <circle id="Elipse_11568" data-name="Elipse 11568" cx="4.55" cy="4.55" r="4.55" fill="#05e39c"/>
          <path id="Trazado_1050328" data-name="Trazado 1050328" d="M113.2,274.141a4.546,4.546,0,0,0-1.332.2,4.551,4.551,0,0,1,0,8.7,4.55,4.55,0,1,0,1.332-8.9Z" transform="translate(-108.653 -274.141)" fill="#0ed290"/>
          <circle id="Elipse_11569" data-name="Elipse 11569" cx="4.55" cy="4.55" r="4.55" fill="none" stroke="#000" stroke-linecap="round" stroke-linejoin="round" stroke-miterlimit="10" stroke-width="1.5"/>
          <path id="Trazado_1050329" data-name="Trazado 1050329" d="M108.944,303.542l1.351,1.351,2.095-2.095" transform="translate(-106.102 -299.125)" fill="none" stroke="#000" stroke-linecap="round" stroke-linejoin="round" stroke-miterlimit="10" stroke-width="1.5"/>
        </g>
        <g id="Grupo_1210332" data-name="Grupo 1210332" transform="translate(12.529 15.462)">
          <line id="Línea_835" data-name="Línea 835" x2="12.461" fill="none" stroke="#000" stroke-linecap="round" stroke-linejoin="round" stroke-miterlimit="10" stroke-width="1.5"/>
          <line id="Línea_836" data-name="Línea 836" x2="12.461" transform="translate(0 4.115)" fill="none" stroke="#000" stroke-linecap="round" stroke-linejoin="round" stroke-miterlimit="10" stroke-width="1.5"/>
        </g>
      </g>
      <line id="Línea_837" data-name="Línea 837" x2="16.755" transform="translate(57.854 61.962)" fill="none" stroke="#000" stroke-linecap="round" stroke-linejoin="round" stroke-miterlimit="10" stroke-width="1.5"/>
      <line id="Línea_838" data-name="Línea 838" x1="4.961" transform="translate(49.62 61.962)" fill="none" stroke="#000" stroke-linecap="round" stroke-linejoin="round" stroke-miterlimit="10" stroke-width="1.5"/>
      <g id="Grupo_1210334" data-name="Grupo 1210334" transform="translate(74.61 40.104)">
        <path id="Trazado_1050330" data-name="Trazado 1050330" d="M299.534,261.788H282.7a1.026,1.026,0,0,0-1.026,1.026v29.069a1.026,1.026,0,0,0,1.026,1.026h21.818a1.026,1.026,0,0,0,1.026-1.026V267.8a1.026,1.026,0,0,0-.3-.725l-4.988-4.988A1.026,1.026,0,0,0,299.534,261.788Z" transform="translate(-281.678 -261.788)" fill="#ffd15b"/>
        <path id="Trazado_1050331" data-name="Trazado 1050331" d="M399.039,267.076l-4.988-4.988a1.026,1.026,0,0,0-.725-.3h-4.062a1.026,1.026,0,0,1,.725.3l4.988,4.988a1.026,1.026,0,0,1,.3.725v24.08a1.026,1.026,0,0,1-1.026,1.026h4.062a1.026,1.026,0,0,0,1.026-1.026V267.8A1.026,1.026,0,0,0,399.039,267.076Z" transform="translate(-375.47 -261.788)" fill="#ffc344"/>
        <path id="Trazado_1050332" data-name="Trazado 1050332" d="M281.678,276.3v15.578a1.026,1.026,0,0,0,1.026,1.026h21.818a1.026,1.026,0,0,0,1.026-1.026V267.8a1.026,1.026,0,0,0-.3-.725l-4.988-4.988a1.026,1.026,0,0,0-.725-.3H282.7a1.026,1.026,0,0,0-1.026,1.026v9" transform="translate(-281.678 -261.788)" fill="none" stroke="#000" stroke-linecap="round" stroke-linejoin="round" stroke-miterlimit="10" stroke-width="1.5"/>
        <line id="Línea_839" data-name="Línea 839" x2="7.395" transform="translate(6.109 15.492)" fill="none" stroke="#000" stroke-linecap="round" stroke-linejoin="round" stroke-miterlimit="10" stroke-width="1.5"/>
        <line id="Línea_840" data-name="Línea 840" x2="1.626" transform="translate(6.109 6.864)" fill="none" stroke="#000" stroke-linecap="round" stroke-linejoin="round" stroke-miterlimit="10" stroke-width="1.5"/>
        <line id="Línea_841" data-name="Línea 841" x2="7.078" transform="translate(10.683 6.864)" fill="none" stroke="#000" stroke-linecap="round" stroke-linejoin="round" stroke-miterlimit="10" stroke-width="1.5"/>
        <line id="Línea_842" data-name="Línea 842" x2="11.653" transform="translate(6.109 11.178)" fill="none" stroke="#000" stroke-linecap="round" stroke-linejoin="round" stroke-miterlimit="10" stroke-width="1.5"/>
        <line id="Línea_843" data-name="Línea 843" x2="1.436" transform="translate(16.325 15.492)" fill="none" stroke="#000" stroke-linecap="round" stroke-linejoin="round" stroke-miterlimit="10" stroke-width="1.5"/>
        <line id="Línea_844" data-name="Línea 844" x2="11.653" transform="translate(6.109 19.806)" fill="none" stroke="#000" stroke-linecap="round" stroke-linejoin="round" stroke-miterlimit="10" stroke-width="1.5"/>
        <line id="Línea_845" data-name="Línea 845" x2="5.575" transform="translate(6.109 24.119)" fill="none" stroke="#000" stroke-linecap="round" stroke-linejoin="round" stroke-miterlimit="10" stroke-width="1.5"/>
      </g>
    </g>
  </g>
</svg>
