<svg xmlns="http://www.w3.org/2000/svg" xmlns:xlink="http://www.w3.org/1999/xlink" width="103" height="103" viewBox="0 0 103 103">
  <defs>
    <filter id="Trazado_904820" x="0" y="0" width="103" height="103" filterUnits="userSpaceOnUse">
      <feOffset dy="3" input="SourceAlpha"/>
      <feGaussianBlur stdDeviation="3" result="blur"/>
      <feFlood flood-opacity="0.161"/>
      <feComposite operator="in" in2="blur"/>
      <feComposite in="SourceGraphic"/>
    </filter>
  </defs>
  <g id="Grupo_1210198" data-name="Grupo 1210198" transform="translate(-189 -844.783)">
    <g id="Grupo_1210086" data-name="Grupo 1210086" transform="translate(4 -1506.217)">
      <g id="Grupo_1209249" data-name="Grupo 1209249" transform="translate(-15 1589)">
        <g id="Grupo_1202705" data-name="Grupo 1202705" transform="translate(209 768)">
          <g id="Grupo_1173585" data-name="Grupo 1173585" transform="translate(0 0)">
            <g id="Grupo_1173428" data-name="Grupo 1173428">
              <g id="Grupo_1171958" data-name="Grupo 1171958">
                <g id="Grupo_1167341" data-name="Grupo 1167341">
                  <g id="Grupo_1166792" data-name="Grupo 1166792">
                    <g transform="matrix(1, 0, 0, 1, -9, -6)" filter="url(#Trazado_904820)">
                      <g id="Trazado_904820-2" data-name="Trazado 904820" transform="translate(9 6)" fill="#fef9e7">
                        <path d="M 42.49999618530273 83.50002288818359 C 36.96437454223633 83.50002288818359 31.59512519836426 82.41619873046875 26.54140853881836 80.27865600585938 C 21.65933799743652 78.21370697021484 17.27447891235352 75.25724792480469 13.50861930847168 71.49138641357422 C 9.742773056030273 67.72554016113281 6.786302089691162 63.34067153930664 4.721360683441162 58.45859909057617 C 2.583819627761841 53.40488052368164 1.499996185302734 48.0356330871582 1.499996185302734 42.5000114440918 C 1.499996185302734 36.96438980102539 2.583819627761841 31.59514045715332 4.721360683441162 26.54142379760742 C 6.786302089691162 21.65933990478516 9.742773056030273 17.27448272705078 13.50861930847168 13.50862312316895 C 17.27447891235352 9.742775917053223 21.65933799743652 6.78630542755127 26.54140853881836 4.721364498138428 C 31.59512519836426 2.583823204040527 36.96437454223633 1.499999642372131 42.49999618530273 1.499999642372131 C 48.03561782836914 1.499999642372131 53.40486526489258 2.583823204040527 58.45858383178711 4.721364498138428 C 63.34065628051758 6.78630542755127 67.72551727294922 9.742775917053223 71.49137115478516 13.50862312316895 C 75.25721740722656 17.27448272705078 78.21369171142578 21.65933990478516 80.27863311767578 26.54142379760742 C 82.41617584228516 31.59514045715332 83.5 36.96438980102539 83.5 42.5000114440918 C 83.5 48.0356330871582 82.41617584228516 53.40488052368164 80.27863311767578 58.45859909057617 C 78.21369171142578 63.34067153930664 75.25721740722656 67.72554016113281 71.49137115478516 71.49138641357422 C 67.72551727294922 75.25724792480469 63.34065628051758 78.21370697021484 58.45858383178711 80.27865600585938 C 53.40486526489258 82.41619873046875 48.03561782836914 83.50002288818359 42.49999618530273 83.50002288818359 Z" stroke="none"/>
                        <path d="M 42.49999618530273 3 C 37.16621017456055 3 31.99356842041016 4.043960571289062 27.1257438659668 6.102874755859375 C 22.42246246337891 8.092201232910156 18.19786071777344 10.94070434570312 14.56927490234375 14.56929016113281 C 10.94070434570312 18.19786834716797 8.092185974121094 22.42246627807617 6.102874755859375 27.1257438659668 C 4.043952941894531 31.99357223510742 2.999992370605469 37.16622543334961 2.999992370605469 42.5000114440918 C 2.999992370605469 47.83379745483398 4.043952941894531 53.00645065307617 6.102874755859375 57.8742790222168 C 8.092185974121094 62.57754516601562 10.94070434570312 66.80214691162109 14.56927490234375 70.43073272705078 C 18.19786071777344 74.05931854248047 22.42246246337891 76.90782165527344 27.1257438659668 78.89714813232422 C 31.99356842041016 80.95606231689453 37.16621017456055 82.00002288818359 42.49999618530273 82.00002288818359 C 47.83378219604492 82.00002288818359 53.00642395019531 80.95606231689453 57.87425231933594 78.89714813232422 C 62.57752990722656 76.90782165527344 66.80213165283203 74.05931854248047 70.43071746826172 70.43073272705078 C 74.05928802490234 66.80214691162109 76.90780639648438 62.57754516601562 78.89711761474609 57.8742790222168 C 80.95603942871094 53.00645065307617 82 47.83379745483398 82 42.5000114440918 C 82 37.16622543334961 80.95603942871094 31.99357223510742 78.89711761474609 27.1257438659668 C 76.90780639648438 22.42246627807617 74.05928802490234 18.19786834716797 70.43071746826172 14.56929016113281 C 66.80213165283203 10.94070434570312 62.57752990722656 8.092201232910156 57.87425231933594 6.102874755859375 C 53.00642395019531 4.043960571289062 47.83378219604492 3 42.49999618530273 3 M 42.49999618530273 0 C 65.97209167480469 0 85 19.02790832519531 85 42.5000114440918 C 85 65.97210693359375 65.97209167480469 85.00002288818359 42.49999618530273 85.00002288818359 C 19.02790069580078 85.00002288818359 -7.62939453125e-06 65.97210693359375 -7.62939453125e-06 42.5000114440918 C -7.62939453125e-06 19.02790832519531 19.02790069580078 0 42.49999618530273 0 Z" stroke="none" fill="#887013"/>
                      </g>
                    </g>
                  </g>
                </g>
              </g>
            </g>
          </g>
        </g>
      </g>
    </g>
    <g id="nuclear-weapon_11299052" transform="translate(205 854.783)">
      <g id="Grupo_1210193" data-name="Grupo 1210193" transform="translate(7.5 7.5)">
        <rect id="Rectángulo_419504" data-name="Rectángulo 419504" width="7.324" height="42.472" transform="translate(24.338 8.653)" fill="#fff"/>
        <rect id="Rectángulo_419505" data-name="Rectángulo 419505" width="2.817" height="42.472" transform="translate(24.338 8.653)" fill="#e3e9ee"/>
        <path id="Trazado_1049693" data-name="Trazado 1049693" d="M171.695,219.423a2.955,2.955,0,0,0-1.8.607,2.966,2.966,0,0,0-3.594,0,2.966,2.966,0,0,0-3.471-.089,2.966,2.966,0,0,0-3.471.089,2.966,2.966,0,0,0-3.594,0,2.968,2.968,0,1,0,0,4.723,2.966,2.966,0,0,0,3.594,0,2.966,2.966,0,0,0,3.471.089,2.966,2.966,0,0,0,3.471-.089,2.966,2.966,0,0,0,3.594,0,2.968,2.968,0,1,0,1.8-5.33Z" transform="translate(-134.832 -195.544)" fill="#ff6a47"/>
        <path id="Trazado_1049694" data-name="Trazado 1049694" d="M116.237,13.021a4.823,4.823,0,0,0-1.2.152,6.086,6.086,0,0,0-8.438-2.79,6.084,6.084,0,0,0-10.348,0,6.086,6.086,0,0,0-8.438,2.79,4.813,4.813,0,1,0,2.442,7.8A6.05,6.05,0,0,0,93.1,21.8a4.811,4.811,0,0,0,8.321,2.373,4.811,4.811,0,0,0,8.321-2.373,6.049,6.049,0,0,0,2.849-.832,4.812,4.812,0,1,0,3.647-7.95Z" transform="translate(-73.42 -7.5)" fill="#ff6a47"/>
        <g id="Grupo_1210191" data-name="Grupo 1210191" transform="translate(0 38.986)">
          <path id="Trazado_1049695" data-name="Trazado 1049695" d="M32.063,362.514c-5.543,0-6.7-9.014-10.93-9.014a5.635,5.635,0,0,0-5.556,4.7,4.509,4.509,0,0,0-5.613,5.677,3.38,3.38,0,0,0,.915,6.634H60.12a3.38,3.38,0,0,0,.915-6.634,4.509,4.509,0,0,0-5.613-5.677,5.634,5.634,0,0,0-5.556-4.7c-4.225,0-6.459,9.014-10.93,9.014Z" transform="translate(-7.5 -353.5)" fill="#fff"/>
          <path id="Trazado_1049696" data-name="Trazado 1049696" d="M11.672,368.019A3.362,3.362,0,0,1,14.2,364.8a4.3,4.3,0,0,1-.217-1.349A4.541,4.541,0,0,1,18.609,359a4.79,4.79,0,0,1,1.352.194,5.637,5.637,0,0,1,3.829-4.346,3.674,3.674,0,0,0-2.656-1.352,5.634,5.634,0,0,0-5.556,4.7,4.509,4.509,0,0,0-5.613,5.677,3.38,3.38,0,0,0,.915,6.634h1.955A3.278,3.278,0,0,1,11.672,368.019Z" transform="translate(-7.5 -353.499)" fill="#e3e9ee"/>
        </g>
        <g id="Grupo_1210192" data-name="Grupo 1210192" transform="translate(16.732 33.465)">
          <circle id="Elipse_11553" data-name="Elipse 11553" cx="11.268" cy="11.268" r="11.268" fill="#fde31d"/>
          <path id="Trazado_1049697" data-name="Trazado 1049697" d="M159.13,315.768a11.269,11.269,0,0,1,9.7-11.159,11.268,11.268,0,1,0,0,22.318A11.269,11.269,0,0,1,159.13,315.768Z" transform="translate(-156 -304.5)" fill="#e7c900"/>
        </g>
        <path id="Trazado_1049698" data-name="Trazado 1049698" d="M154.379,222.391a2.964,2.964,0,0,1,1.276-2.438,2.968,2.968,0,1,0,0,4.876A2.964,2.964,0,0,1,154.379,222.391Z" transform="translate(-134.83 -195.544)" fill="#fd3501"/>
        <path id="Trazado_1049699" data-name="Trazado 1049699" d="M90.531,34.661a17.457,17.457,0,0,1,.505-4.177,6.107,6.107,0,0,0-3.229,3.083,4.813,4.813,0,1,0,2.442,7.8,6.042,6.042,0,0,0,1.943.728A17.351,17.351,0,0,1,90.531,34.661Z" transform="translate(-73.42 -27.894)" fill="#fd3501"/>
        <path id="Trazado_1049700" data-name="Trazado 1049700" d="M203.373,351.008l4.715.538a6.823,6.823,0,0,0-4.07-7.046l-1.889,4.352a2.312,2.312,0,0,0-1.954-.087l-1.851-4.264a6.823,6.823,0,0,0-4.07,7.046l4.493-.512a2.314,2.314,0,0,0,1.068,1.829l-2.824,3.813a6.823,6.823,0,0,0,8.137,0l-2.824-3.813A2.314,2.314,0,0,0,203.373,351.008Z" transform="translate(-173.171 -306.528)" fill="#767676"/>
      </g>
      <g id="Grupo_1210196" data-name="Grupo 1210196" transform="translate(7.5 7.5)">
        <line id="Línea_824" data-name="Línea 824" y1="6.122" transform="translate(24.338 18.23)" fill="none" stroke="#000" stroke-miterlimit="10" stroke-width="1.5"/>
        <line id="Línea_825" data-name="Línea 825" y1="4.63" transform="translate(24.338 29.342)" fill="none" stroke="#000" stroke-miterlimit="10" stroke-width="1.5"/>
        <line id="Línea_826" data-name="Línea 826" y1="4.63" transform="translate(31.662 29.342)" fill="none" stroke="#000" stroke-miterlimit="10" stroke-width="1.5"/>
        <line id="Línea_827" data-name="Línea 827" y1="6.122" transform="translate(31.662 18.23)" fill="none" stroke="#000" stroke-miterlimit="10" stroke-width="1.5"/>
        <path id="Trazado_1049701" data-name="Trazado 1049701" d="M171.694,219.416a2.955,2.955,0,0,0-1.8.607,2.986,2.986,0,0,0-3.594,0,2.988,2.988,0,0,0-3.471-.089,2.988,2.988,0,0,0-3.471.089,2.986,2.986,0,0,0-3.594,0,2.968,2.968,0,1,0,0,4.723,2.986,2.986,0,0,0,3.594,0,2.988,2.988,0,0,0,3.471.089,2.988,2.988,0,0,0,3.471-.089,2.986,2.986,0,0,0,3.594,0,2.968,2.968,0,1,0,1.8-5.33Z" transform="translate(-134.831 -195.538)" fill="none" stroke="#000" stroke-miterlimit="10" stroke-width="1.5"/>
        <path id="Trazado_1049702" data-name="Trazado 1049702" d="M116.237,13.021a4.823,4.823,0,0,0-1.2.152,6.086,6.086,0,0,0-8.438-2.79,6.084,6.084,0,0,0-10.348,0,6.086,6.086,0,0,0-8.438,2.79,4.813,4.813,0,1,0,2.442,7.8A6.05,6.05,0,0,0,93.1,21.8a4.811,4.811,0,0,0,8.321,2.373,4.811,4.811,0,0,0,8.321-2.373,6.049,6.049,0,0,0,2.849-.832,4.812,4.812,0,1,0,3.647-7.95Z" transform="translate(-73.42 -7.5)" fill="none" stroke="#000" stroke-miterlimit="10" stroke-width="1.5"/>
        <path id="Trazado_1049703" data-name="Trazado 1049703" d="M129.97,504.5h28.4" transform="translate(-116.171 -448.5)" fill="none" stroke="#000" stroke-miterlimit="10" stroke-width="1.5"/>
        <path id="Trazado_1049704" data-name="Trazado 1049704" d="M19.609,370.514H10.88a3.38,3.38,0,0,1-.915-6.634,4.509,4.509,0,0,1,5.612-5.677,5.635,5.635,0,0,1,5.556-4.7c1.457,0,2.549,1.072,3.582,2.476" transform="translate(-7.5 -314.514)" fill="none" stroke="#000" stroke-miterlimit="10" stroke-width="1.5"/>
        <path id="Trazado_1049705" data-name="Trazado 1049705" d="M351.11,355.755c1.1-1.294,2.27-2.255,3.65-2.255a5.635,5.635,0,0,1,5.556,4.7,4.508,4.508,0,0,1,5.612,5.677,3.38,3.38,0,0,1-.915,6.634h-8.729" transform="translate(-312.393 -314.514)" fill="none" stroke="#000" stroke-miterlimit="10" stroke-width="1.5"/>
        <path id="Trazado_1049706" data-name="Trazado 1049706" d="M40.88,474.5a3.38,3.38,0,0,1-3.38,3.38" transform="translate(-34.12 -421.88)" fill="none" stroke="#000" stroke-miterlimit="10" stroke-width="1.5"/>
        <path id="Trazado_1049707" data-name="Trazado 1049707" d="M413.514,431.5a4.507,4.507,0,0,1-9.014,0" transform="translate(-359.768 -383.725)" fill="none" stroke="#000" stroke-miterlimit="10" stroke-width="1.5"/>
        <path id="Trazado_1049708" data-name="Trazado 1049708" d="M67.5,393.5a4.507,4.507,0,0,1,4.507,4.507" transform="translate(-60.739 -350.007)" fill="none" stroke="#000" stroke-miterlimit="10" stroke-width="1.5"/>
        <g id="Grupo_1210194" data-name="Grupo 1210194" transform="translate(13.183 0)">
          <path id="Trazado_1049709" data-name="Trazado 1049709" d="M256,7.5a6.085,6.085,0,0,1,6.085,6.085" transform="translate(-241.183 -7.5)" fill="none" stroke="#000" stroke-miterlimit="10" stroke-width="1.5"/>
          <path id="Trazado_1049710" data-name="Trazado 1049710" d="M184.209,26.5a6.085,6.085,0,0,1,6.085,6.085" transform="translate(-177.481 -24.359)" fill="none" stroke="#000" stroke-miterlimit="10" stroke-width="1.5"/>
          <path id="Trazado_1049711" data-name="Trazado 1049711" d="M129.312,99.209a4.812,4.812,0,0,1-4.812,4.812" transform="translate(-124.5 -88.876)" fill="none" stroke="#000" stroke-miterlimit="10" stroke-width="1.5"/>
          <path id="Trazado_1049712" data-name="Trazado 1049712" d="M229.015,127a4.812,4.812,0,0,1-4.812,4.812" transform="translate(-212.969 -113.538)" fill="none" stroke="#000" stroke-miterlimit="10" stroke-width="1.5"/>
          <path id="Trazado_1049713" data-name="Trazado 1049713" d="M349.6,56.5a4.812,4.812,0,0,0-4.812,4.812" transform="translate(-319.97 -50.979)" fill="none" stroke="#000" stroke-miterlimit="10" stroke-width="1.5"/>
        </g>
        <circle id="Elipse_11554" data-name="Elipse 11554" cx="11.268" cy="11.268" r="11.268" transform="translate(16.732 33.465)" fill="none" stroke="#000" stroke-miterlimit="10" stroke-width="1.5"/>
        <g id="Grupo_1210195" data-name="Grupo 1210195" transform="translate(21.038 37.972)">
          <circle id="Elipse_11555" data-name="Elipse 11555" cx="2.319" cy="2.319" r="2.319" transform="translate(4.531 4.089)" fill="none" stroke="#000" stroke-miterlimit="10" stroke-width="1.5"/>
          <path id="Trazado_1049714" data-name="Trazado 1049714" d="M224.239,419.046l2.8,3.776a6.823,6.823,0,0,1-8.137,0l2.8-3.776" transform="translate(-216.117 -410.646)" fill="none" stroke="#000" stroke-miterlimit="10" stroke-width="1.5"/>
          <path id="Trazado_1049715" data-name="Trazado 1049715" d="M264.663,348.81l1.871-4.31a6.823,6.823,0,0,1,4.07,7.046l-4.668-.532" transform="translate(-256.725 -344.5)" fill="none" stroke="#000" stroke-miterlimit="10" stroke-width="1.5"/>
          <path id="Trazado_1049716" data-name="Trazado 1049716" d="M198.923,351.012l-4.669.532a6.823,6.823,0,0,1,4.07-7.046l1.871,4.31" transform="translate(-194.209 -344.499)" fill="none" stroke="#000" stroke-miterlimit="10" stroke-width="1.5"/>
        </g>
      </g>
      <g id="Grupo_1210197" data-name="Grupo 1210197" transform="translate(31.072 17.452)">
        <line id="Línea_828" data-name="Línea 828" x2="1.69" transform="translate(0 1.573)" fill="none" stroke="#fff" stroke-miterlimit="10" stroke-width="1.5"/>
        <line id="Línea_829" data-name="Línea 829" x2="1.69" transform="translate(7.818 0)" fill="none" stroke="#fff" stroke-miterlimit="10" stroke-width="1.5"/>
      </g>
    </g>
  </g>
</svg>
