<svg xmlns="http://www.w3.org/2000/svg" xmlns:xlink="http://www.w3.org/1999/xlink" width="400" height="357.722" viewBox="0 0 400 357.722">
  <defs>
    <clipPath id="clip-path">
      <rect id="Rectángulo_419570" data-name="Rectángulo 419570" width="400" height="357.722" transform="translate(1020 11953.184)" fill="#aed3eb"/>
    </clipPath>
    <filter id="Rectángulo_419397" x="20.5" y="-6" width="359" height="375.722" filterUnits="userSpaceOnUse">
      <feOffset dy="3" input="SourceAlpha"/>
      <feGaussianBlur stdDeviation="3" result="blur"/>
      <feFlood flood-opacity="0.161"/>
      <feComposite operator="in" in2="blur"/>
      <feComposite in="SourceGraphic"/>
    </filter>
    <clipPath id="clip-path-2">
      <rect id="Rectángulo_419569" data-name="Rectángulo 419569" width="315.089" height="332.453" fill="none"/>
    </clipPath>
    <clipPath id="clip-path-4">
      <rect id="Rectángulo_419559" data-name="Rectángulo 419559" width="27.998" height="57.48" fill="none"/>
    </clipPath>
    <clipPath id="clip-path-5">
      <rect id="Rectángulo_419560" data-name="Rectángulo 419560" width="15.751" height="28.25" fill="none"/>
    </clipPath>
    <clipPath id="clip-path-6">
      <rect id="Rectángulo_419561" data-name="Rectángulo 419561" width="23.031" height="57.48" fill="none"/>
    </clipPath>
    <clipPath id="clip-path-7">
      <rect id="Rectángulo_419562" data-name="Rectángulo 419562" width="18.562" height="29.436" fill="none"/>
    </clipPath>
    <clipPath id="clip-path-8">
      <rect id="Rectángulo_419563" data-name="Rectángulo 419563" width="51.453" height="89.401" fill="none"/>
    </clipPath>
    <clipPath id="clip-path-9">
      <rect id="Rectángulo_419564" data-name="Rectángulo 419564" width="2.297" height="11.856" fill="none"/>
    </clipPath>
    <clipPath id="clip-path-10">
      <rect id="Rectángulo_419565" data-name="Rectángulo 419565" width="5.182" height="7.579" fill="none"/>
    </clipPath>
    <clipPath id="clip-path-11">
      <rect id="Rectángulo_419566" data-name="Rectángulo 419566" width="17.094" height="29.876" fill="none"/>
    </clipPath>
    <clipPath id="clip-path-12">
      <rect id="Rectángulo_419567" data-name="Rectángulo 419567" width="3.421" height="29.775" fill="none"/>
    </clipPath>
  </defs>
  <g id="Enmascarar_grupo_1098810" data-name="Enmascarar grupo 1098810" transform="translate(-1020 -11953.184)" clip-path="url(#clip-path)">
    <g transform="matrix(1, 0, 0, 1, 1020, 11953.18)" filter="url(#Rectángulo_419397)">
      <rect id="Rectángulo_419397-2" data-name="Rectángulo 419397" width="341" height="357.722" rx="8" transform="translate(29.5)" fill="#aed3eb"/>
    </g>
    <g id="Grupo_1210379" data-name="Grupo 1210379" transform="translate(0 9)">
      <g id="Grupo_1210378" data-name="Grupo 1210378" transform="translate(1062.456 11978.452)">
        <g id="Grupo_1210377" data-name="Grupo 1210377" clip-path="url(#clip-path-2)">
          <g id="Grupo_1210376" data-name="Grupo 1210376">
            <g id="Grupo_1210375" data-name="Grupo 1210375" clip-path="url(#clip-path-2)">
              <path id="Trazado_1050345" data-name="Trazado 1050345" d="M233.189,370.161a1.209,1.209,0,0,1-.237-2.394l93.492-18.817a1.209,1.209,0,0,1,.476,2.37l-93.491,18.817a1.282,1.282,0,0,1-.24.023" transform="translate(-45.031 -67.731)" fill="#0a88a5"/>
              <path id="Trazado_1050346" data-name="Trazado 1050346" d="M266.59,238.359a1.209,1.209,0,0,1-.039-2.417l66.574-2.216a1.209,1.209,0,0,1,.081,2.416l-66.574,2.216h-.041" transform="translate(-51.514 -45.368)" fill="#0a88a5"/>
              <path id="Trazado_1050347" data-name="Trazado 1050347" d="M234.109,135.375a1.209,1.209,0,0,1-.226-2.4l77.027-14.82a1.209,1.209,0,0,1,.456,2.374l-77.027,14.821a1.239,1.239,0,0,1-.23.022" transform="translate(-45.209 -22.932)" fill="#0a88a5"/>
              <path id="Trazado_1050348" data-name="Trazado 1050348" d="M136.909,138.656a1.212,1.212,0,0,1-.272-.031l-76.2-17.511a1.209,1.209,0,0,1,.542-2.356l76.2,17.512a1.209,1.209,0,0,1-.27,2.387" transform="translate(-11.55 -23.046)" fill="#0a88a5"/>
              <path id="Trazado_1050349" data-name="Trazado 1050349" d="M41.712,338.68a1.209,1.209,0,0,1-.755-2.153l64.777-51.746a1.209,1.209,0,0,1,1.509,1.889L42.465,338.416a1.2,1.2,0,0,1-.754.264" transform="translate(-7.862 -55.228)" fill="#0a88a5"/>
              <path id="Trazado_1050350" data-name="Trazado 1050350" d="M41.711,226.409a1.209,1.209,0,0,1-.594-2.262L143.153,166.7a1.209,1.209,0,0,1,1.186,2.107L42.3,226.253a1.192,1.192,0,0,1-.592.156" transform="translate(-7.862 -32.329)" fill="#0a88a5"/>
              <path id="Trazado_1050351" data-name="Trazado 1050351" d="M195.121,88.221h0a1.208,1.208,0,0,1-1.207-1.21l.064-45.307a1.21,1.21,0,0,1,1.209-1.208h0a1.209,1.209,0,0,1,1.207,1.211l-.064,45.307a1.208,1.208,0,0,1-1.209,1.206" transform="translate(-37.641 -7.861)" fill="#0a88a5"/>
              <path id="Trazado_1050352" data-name="Trazado 1050352" d="M221.187,33.847A33.847,33.847,0,1,1,187.339,0a33.848,33.848,0,0,1,33.847,33.847" transform="translate(-29.795)" fill="#0a88a5"/>
              <path id="Trazado_1050353" data-name="Trazado 1050353" d="M188.358,5.25a29.616,29.616,0,1,0,29.616,29.616A29.616,29.616,0,0,0,188.358,5.25m18.659,36.4a86.425,86.425,0,0,1-18.655,1.9,86.432,86.432,0,0,1-18.659-1.9c-3.823,0-5.71-.707-1.609-4.117a20.842,20.842,0,0,1,7.187-12.168,1.491,1.491,0,0,1,.561-2l2.592-1.494a1.493,1.493,0,0,1,2.042.547l.021.035a21.517,21.517,0,0,1,4.869-1.151V21.1a1.5,1.5,0,0,1,1.495-1.5h3a1.5,1.5,0,0,1,1.493,1.5V21.3a21.469,21.469,0,0,1,4.868,1.151l.023-.035a1.492,1.492,0,0,1,2.041-.547l2.592,1.494a1.491,1.491,0,0,1,.562,2,20.85,20.85,0,0,1,7.186,12.168c4.1,3.411,2.215,4.117-1.607,4.117" transform="translate(-30.814 -1.019)" fill="#f5f5f5"/>
              <path id="Trazado_1050354" data-name="Trazado 1050354" d="M67.695,227.074a33.847,33.847,0,1,1-33.847-33.847,33.848,33.848,0,0,1,33.847,33.847" transform="translate(0 -37.508)" fill="#0a88a5"/>
              <path id="Trazado_1050355" data-name="Trazado 1050355" d="M34.866,198.478a29.616,29.616,0,1,0,29.616,29.615,29.616,29.616,0,0,0-29.616-29.615M14.179,221.393c0-2.365.57-3.726,1.742-4.162,2.607-.971,6.885,3.481,11.469,8.747-.3.328-.587.675-.865,1.038-2.768-3.193-8.175-9.259-10.138-8.536-.563.21-.873,1.243-.873,2.912,0,6.362,4.461,11.718,8.414,14.9a9.962,9.962,0,0,0,.654,2.154c-4.623-3.234-10.4-9.569-10.4-17.052m20.688,21.969c-5.409,0-9.792-3.6-9.792-9.007,0-3.319,2.211-6.777,4.826-8.957,1.646-1.372,2.351-3.337,4.966-3.337,2.692,0,3.322,1.966,4.971,3.34,2.613,2.179,4.822,5.639,4.822,8.955,0,5.409-4.384,9.007-9.793,9.007m10.285-4.919a9.941,9.941,0,0,0,.654-2.153c3.954-3.179,8.414-8.535,8.414-14.9,0-1.669-.31-2.7-.872-2.912-1.96-.73-7.369,5.34-10.138,8.534-.279-.364-.569-.711-.865-1.039,4.582-5.266,8.856-9.718,11.468-8.745,1.172.436,1.742,1.8,1.742,4.162,0,7.482-5.778,13.817-10.4,17.05m-5.614-10.376c-.667,0-2-2.669-4.671-2.669s-4,2.669-4.673,2.669a.63.63,0,0,0-.666.666.665.665,0,0,0,.666.668c.668,0,3.337-2.669,4.673-2.669s4,2.669,4.671,2.669a.641.641,0,0,0,.666-.668.666.666,0,0,0-.666-.666" transform="translate(-1.019 -38.527)" fill="#f5f5f5"/>
              <path id="Trazado_1050356" data-name="Trazado 1050356" d="M355.679,112.073a33.847,33.847,0,1,1-33.847-33.847,33.849,33.849,0,0,1,33.847,33.847" transform="translate(-55.901 -15.185)" fill="#0a88a5"/>
              <path id="Trazado_1050357" data-name="Trazado 1050357" d="M322.849,83.477a29.616,29.616,0,1,0,29.618,29.616,29.617,29.617,0,0,0-29.618-29.616m20.69,29.616a1.334,1.334,0,0,1-1.335,1.335h-.76a10.687,10.687,0,0,1-10.586,9.343,10.562,10.562,0,0,1-5.338-1.335c-.446-.21-1.333-1.334-2.667-1.272-1.335-.061-2.224,1.063-2.671,1.272a10.556,10.556,0,0,1-5.338,1.335,10.686,10.686,0,0,1-10.585-9.343H303.5a1.334,1.334,0,0,1-1.337-1.335v-5.337a1.335,1.335,0,0,1,1.337-1.335h.666v-1.335a2.673,2.673,0,0,1,2.671-2.671h32.032a2.669,2.669,0,0,1,2.668,2.671v1.335h.668a1.335,1.335,0,0,1,1.335,1.335Zm-12.681-7.673H314.843c-6.455,0-7.673,1.219-7.673,7.673a7.678,7.678,0,0,0,7.673,7.676,9.1,9.1,0,0,0,4.106-1.361,6.472,6.472,0,0,1,7.8,0,9.089,9.089,0,0,0,4.105,1.362,7.684,7.684,0,0,0,7.675-7.676c0-3.5-.392-5.26-1.4-6.267s-2.768-1.405-6.274-1.405" transform="translate(-56.921 -16.204)" fill="#f5f5f5"/>
              <path id="Trazado_1050358" data-name="Trazado 1050358" d="M86.695,112.074A33.847,33.847,0,1,1,52.847,78.227a33.848,33.848,0,0,1,33.847,33.847" transform="translate(-3.688 -15.185)" fill="#0a88a5"/>
              <path id="Trazado_1050359" data-name="Trazado 1050359" d="M53.866,83.477a29.616,29.616,0,1,0,29.617,29.616A29.615,29.615,0,0,0,53.866,83.477m16.42,44.16a1.6,1.6,0,0,1-1.648,1.553,1.623,1.623,0,0,1-1.47-1.743l.806-14.838a1.59,1.59,0,0,1,1.649-1.551,1.62,1.62,0,0,1,1.468,1.742c.047,0,.092.014.137.019a18.941,18.941,0,0,0-4.909-10.461,5.538,5.538,0,0,1-3.1-1.546,9.607,9.607,0,0,1-1.43-1.466,6.381,6.381,0,0,1-3.085-.655,8.316,8.316,0,0,1-2.165-1.33,8.467,8.467,0,0,1-5.34,0,8.306,8.306,0,0,1-2.168,1.33,6.374,6.374,0,0,1-3.082.655,9.548,9.548,0,0,1-1.431,1.466,5.525,5.525,0,0,1-3.1,1.545A18.946,18.946,0,0,0,36.5,112.819c.047,0,.092-.015.139-.019a1.618,1.618,0,0,1,1.47-1.742,1.59,1.59,0,0,1,1.646,1.551l.807,14.838a1.624,1.624,0,0,1-1.47,1.743,1.6,1.6,0,0,1-1.648-1.553c-2.583.155-4.855-3.039-5.079-7.135a10.188,10.188,0,0,1,.952-5.064v-.025c0-11.971,9.215-21.711,20.544-21.711s20.546,9.739,20.546,21.711v.027a10.217,10.217,0,0,1,.953,5.062c-.225,4.1-2.5,7.288-5.079,7.135" transform="translate(-4.707 -16.204)" fill="#f5f5f5"/>
              <path id="Trazado_1050360" data-name="Trazado 1050360" d="M374.679,342.074a33.847,33.847,0,1,1-33.847-33.847,33.848,33.848,0,0,1,33.847,33.847" transform="translate(-59.589 -59.831)" fill="#0a88a5"/>
              <path id="Trazado_1050361" data-name="Trazado 1050361" d="M341.85,313.477a29.616,29.616,0,1,0,29.616,29.617,29.617,29.617,0,0,0-29.616-29.617m-4.8,10.434h15.986l0,1.864H341.049v3.466h-3.8l-.1-1.072c-.055-.583-.1-1.539-.1-2.126Zm-7.636,35.167h-2.489a2.607,2.607,0,0,1-1.332-.265,1.878,1.878,0,0,1-.266-1.067c0-.435.12-.8.266-.8s.147-.239,0-.534a4.535,4.535,0,0,1-.264-1.6,2.618,2.618,0,0,1,.53-1.6,4.734,4.734,0,0,1,1.546-.87l1.175-.391a16.358,16.358,0,0,1,2.061-.513l4.291-.716a3.881,3.881,0,0,0,1.8-.929l1.692-1.69a2.468,2.468,0,0,0,.619-1.812l-.8-6.408c-.075-.582-.177-1.534-.228-2.119l-.633-6.932H341.1c.015.237.03.463.048.653l.109,1.212.764,8.388c.054.6.159,1.567.233,2.161l.8,6.414a1.228,1.228,0,0,1-.242.7l-1.689,1.689a2.655,2.655,0,0,1-1.078.557l-4.295.715a17.861,17.861,0,0,0-2.264.56l-1.177.392a6.01,6.01,0,0,0-2.065,1.194,3.9,3.9,0,0,0-.922,2.54,7.117,7.117,0,0,0,.09,1.065m27.979-18.11c-.053.582-.175,1.533-.271,2.113l-.716,4.291a15.626,15.626,0,0,0-.176,2.119,7.91,7.91,0,0,0,.337,2.073l.392,1.176a7.864,7.864,0,0,1,.337,2.078v3.729a2.865,2.865,0,0,1-.266,1.066c-.147.3-.147.532,0,.532s.266.362.266.8a3.386,3.386,0,0,1-.132,1.065c-.074.147-.615.266-1.2.266h-5.062c-.587,0-1.066-.241-1.066-.533s-.479-.532-1.064-.532H347.71a2.621,2.621,0,0,0-1.6.532,2.6,2.6,0,0,1-1.6.533H332.258a2.581,2.581,0,0,1-1.331-.266,1.868,1.868,0,0,1-.268-1.065c0-.439.122-.8.268-.8s.147-.236,0-.532a4.507,4.507,0,0,1-.268-1.6,2.6,2.6,0,0,1,.534-1.6,4.715,4.715,0,0,1,1.543-.871l1.175-.393a17.138,17.138,0,0,1,2.063-.509l4.292-.715a3.909,3.909,0,0,0,1.8-.93l1.689-1.688a2.473,2.473,0,0,0,.621-1.812l-.8-6.412c-.072-.582-.172-1.536-.228-2.118l-.629-6.931h15.307Zm.97-11.726c0,.586-.045,1.542-.1,2.127l-.1,1.069h-15.6l-.1-1.069c-.053-.584-.1-1.541-.1-2.127l0-2.132h15.985Z" transform="translate(-60.609 -60.85)" fill="#f5f5f5"/>
              <path id="Trazado_1050362" data-name="Trazado 1050362" d="M67.695,342.074a33.847,33.847,0,1,1-33.847-33.847,33.848,33.848,0,0,1,33.847,33.847" transform="translate(0 -59.831)" fill="#0a88a5"/>
              <path id="Trazado_1050363" data-name="Trazado 1050363" d="M34.866,313.478a29.616,29.616,0,1,0,29.616,29.616,29.616,29.616,0,0,0-29.616-29.616M22.8,348.58,14.444,343.7a2.358,2.358,0,1,1,2.377-4.074l3.361,1.962-3.53-9.382a2.044,2.044,0,0,1,3.822-1.449l-.715-1.9,0-.006a2.045,2.045,0,0,1,3.827-1.441h0l.359.953a2.045,2.045,0,0,1,3.83-1.436h0L28.85,329.8a2.043,2.043,0,1,1,3.826-1.434l.805,2.14a3.655,3.655,0,0,0-2.232,4.362l2.322,8.837-4.288,7.559a2.366,2.366,0,0,0-1.947,1.377,2.337,2.337,0,0,0-.2.86l-2.695,1.015Zm3.333,11.73a1.023,1.023,0,1,1-.72-1.914l.086-.029-.636-2.3,2.751-1.036a2.325,2.325,0,0,0,.892.727l4.418,2Zm20.527-.039a1.023,1.023,0,0,1-.842,1.865l-16.761-7.6a1.023,1.023,0,0,1,.845-1.863l.085.039,1.179-2.077,16.194,7.336-.785,2.257Zm3.287-9.733h0l-2.06,5.919-15.93-7.217L35,343.887l-2.459-9.36a2.358,2.358,0,0,1,4.561-1.2l.989,3.765,4.137-9.132a2.044,2.044,0,0,1,3.728,1.679l.837-1.849v0a2.045,2.045,0,0,1,3.726,1.686l-.418.928a2.044,2.044,0,0,1,3.721,1.692h0l-1.268,2.791a2.045,2.045,0,1,1,3.723,1.691Z" transform="translate(-1.019 -60.85)" fill="#f5f5f5"/>
              <path id="Trazado_1050364" data-name="Trazado 1050364" d="M374.679,227.073a33.847,33.847,0,1,1-33.847-33.847,33.848,33.848,0,0,1,33.847,33.847" transform="translate(-59.589 -37.508)" fill="#0a88a5"/>
              <path id="Trazado_1050365" data-name="Trazado 1050365" d="M341.848,198.478a29.616,29.616,0,1,0,29.619,29.616,29.616,29.616,0,0,0-29.619-29.616m-18,30.1a9.738,9.738,0,0,0,5.214-10.109l-.978-9.43,3.154-.442,4.467,24.261H323.852Zm18,16.19a3.392,3.392,0,0,1-3.175,3.573l-11.644-1.19a3.392,3.392,0,0,1-3.176-3.572v-2.385h18Zm0-5.956h-18v-3.573h18Zm0-5.955h-3.643l-4.531-24.605,2.883-.406,5.291,13.1Zm5.294-25.012,2.883.406-4.533,24.605h-2.31V220.688l-.615-1.52Zm12.7,35.733a3.391,3.391,0,0,1-3.175,3.572l-11.643,1.19a3.027,3.027,0,0,1-2.389-1.238,5.221,5.221,0,0,0,.544-2.335v-3.575h16.663Zm0-4.767H343.182v-3.573h16.663Zm0-5.955H347.986l4.47-24.261,3.155.442-.98,9.43a9.738,9.738,0,0,0,5.213,10.109Z" transform="translate(-60.609 -38.527)" fill="#f5f5f5"/>
              <path id="Trazado_1050368" data-name="Trazado 1050368" d="M203.619,170.176c0,7.2-6.047,2.605-10.83,2.605s-10.83,4.59-10.83-2.605,6.045-54.725,10.83-54.725,10.83,47.529,10.83,54.725" transform="translate(-35.321 -22.41)" fill="#681e1e"/>
              <path id="Trazado_1050369" data-name="Trazado 1050369" d="M143.215,244.862H132.667c0-30.8,16.406-53.9,22.641-57.48l5.254,9.146.1-.064c-3.08,2.177-17.45,21.726-17.45,48.4" transform="translate(-25.752 -36.373)" fill="#ffcc80"/>
              <g id="Grupo_1210350" data-name="Grupo 1210350" transform="translate(106.915 151.009)" opacity="0.05">
                <g id="Grupo_1210349" data-name="Grupo 1210349">
                  <g id="Grupo_1210348" data-name="Grupo 1210348" clip-path="url(#clip-path-4)">
                    <path id="Trazado_1050370" data-name="Trazado 1050370" d="M160.562,196.528l-5.254-9.146c-.068.039-.143.093-.213.136l4.784,8.326.1-.064c-3.081,2.177-17.451,21.727-17.451,48.4h-9.853c0,.228-.011.454-.011.683h10.548c0-26.672,14.37-46.221,17.45-48.4Z" transform="translate(-132.667 -187.382)" fill="#212121"/>
                  </g>
                </g>
              </g>
              <path id="Trazado_1050371" data-name="Trazado 1050371" d="M129.219,269.1c-.236,6.217,2.768,11.423,6.705,11.619,10.7.535,7.326-4.685,7.563-10.9s-2.766-11.423-6.7-11.62c-6.653-.334-7.135-.359-7.564,10.9" transform="translate(-25.08 -50.102)" fill="#ff8f00"/>
              <path id="Trazado_1050372" data-name="Trazado 1050372" d="M143.006,267.04c2.385,3.6,5.271,5.694,6.45,4.667s.2-4.781-2.185-8.386-5.269-5.7-6.45-4.673-.2,4.782,2.184,8.392" transform="translate(-27.238 -50.156)" fill="#ff8f00"/>
              <path id="Trazado_1050373" data-name="Trazado 1050373" d="M144.348,250.876c.2,2.887-1.124,8.611-1.124,8.611l-12.7.863s-1.488-8.231-.537-10.659c2.163.9,11.718,2.122,14.363,1.185" transform="translate(-25.17 -48.468)" fill="#ff8f00"/>
              <g id="Grupo_1210353" data-name="Grupo 1210353" transform="translate(106.965 202.408)" opacity="0.5">
                <g id="Grupo_1210352" data-name="Grupo 1210352">
                  <g id="Grupo_1210351" data-name="Grupo 1210351" clip-path="url(#clip-path-5)">
                    <path id="Trazado_1050374" data-name="Trazado 1050374" d="M145.8,261.917a19.725,19.725,0,0,0-1.909-2.459c.268-1.221,1.228-5.808,1.053-8.3a4.3,4.3,0,0,1-.666.165,45.112,45.112,0,0,1-1.071,7.45,19.577,19.577,0,0,1,1.91,2.458c2.382,3.606,3.362,7.361,2.185,8.387-.76.662-2.231.016-3.819-1.483-.106,6.062,2.945,11.079-7.556,10.554a5.213,5.213,0,0,1-3.194-1.4,5.554,5.554,0,0,0,3.878,2.086c10.5.525,7.45-4.492,7.556-10.555,1.587,1.5,3.059,2.145,3.818,1.484,1.177-1.025.2-4.781-2.185-8.387" transform="translate(-132.73 -251.162)" fill="#212121"/>
                  </g>
                </g>
              </g>
              <path id="Trazado_1050375" data-name="Trazado 1050375" d="M251.38,244.862H240.834c0-26.673-14.371-46.222-17.449-48.4l5.356-9.082c6.234,3.582,22.639,26.681,22.639,57.48" transform="translate(-43.362 -36.373)" fill="#ffcc80"/>
              <g id="Grupo_1210356" data-name="Grupo 1210356" transform="translate(184.987 151.009)" opacity="0.05">
                <g id="Grupo_1210355" data-name="Grupo 1210355">
                  <g id="Grupo_1210354" data-name="Grupo 1210354" clip-path="url(#clip-path-6)">
                    <path id="Trazado_1050376" data-name="Trazado 1050376" d="M229.937,187.382l-.392.666c6.807,5.172,21.664,27.5,21.664,56.814h1.367c0-30.8-16.4-53.9-22.639-57.48" transform="translate(-229.545 -187.382)" fill="#212121"/>
                  </g>
                </g>
              </g>
              <path id="Trazado_1050377" data-name="Trazado 1050377" d="M258.059,269.1c.236,6.217-2.767,11.423-6.705,11.619-10.7.535-7.329-4.685-7.563-10.9s2.764-11.423,6.7-11.62c6.655-.334,7.139-.359,7.567,10.9" transform="translate(-47.259 -50.102)" fill="#ff8f00"/>
              <path id="Trazado_1050378" data-name="Trazado 1050378" d="M245.469,267.04c-2.385,3.6-5.273,5.694-6.45,4.667s-.2-4.781,2.186-8.386,5.27-5.7,6.447-4.673.2,4.782-2.183,8.392" transform="translate(-46.3 -50.156)" fill="#ff8f00"/>
              <path id="Trazado_1050379" data-name="Trazado 1050379" d="M242.907,250.876c-.2,2.887,1.123,8.611,1.123,8.611l12.7.863s1.491-8.231.538-10.659c-2.164.9-11.72,2.122-14.363,1.185" transform="translate(-47.147 -48.468)" fill="#ff8f00"/>
              <g id="Grupo_1210359" data-name="Grupo 1210359" transform="translate(192.25 201.223)" opacity="0.5">
                <g id="Grupo_1210358" data-name="Grupo 1210358">
                  <g id="Grupo_1210357" data-name="Grupo 1210357" clip-path="url(#clip-path-7)">
                    <path id="Trazado_1050380" data-name="Trazado 1050380" d="M257.107,267.47c-.173-4.519-.359-7.2-.944-8.8.377-2.535.948-7.243.268-8.984a8.153,8.153,0,0,1-1.077.334,41.357,41.357,0,0,1-.558,7.284c.584,1.594.771,4.276.943,8.795.236,6.217-2.767,11.423-6.7,11.62-2.987.149-4.875-.152-6.054-.8.791,1.543,2.781,2.4,7.421,2.163,3.938-.2,6.942-5.4,6.706-11.619m-18.081,2.548c.517.45,1.364.284,2.352-.331.936-.669,1.763-1.159,1.678-2.141-1.1,1.036-3.709,1.273-4.5,1.344a1.686,1.686,0,0,0,.469,1.128" transform="translate(-238.557 -249.691)" fill="#212121"/>
                  </g>
                </g>
              </g>
              <path id="Trazado_1050381" data-name="Trazado 1050381" d="M216.7,357.151H205.329l-7.581-84.141,28.424-5.261Z" transform="translate(-38.385 -51.974)" fill="#184054"/>
              <path id="Trazado_1050382" data-name="Trazado 1050382" d="M167.248,357.151h11.368L186.2,273.01l-28.425-5.261Z" transform="translate(-30.626 -51.974)" fill="#184054"/>
              <path id="Trazado_1050383" data-name="Trazado 1050383" d="M201.149,293.413,196,290.373h-4.867l-5.148,3.041V264.487h15.16Z" transform="translate(-36.103 -51.34)" fill="#184054"/>
              <g id="Grupo_1210362" data-name="Grupo 1210362" transform="translate(136.333 215.776)" opacity="0.4">
                <g id="Grupo_1210361" data-name="Grupo 1210361">
                  <g id="Grupo_1210360" data-name="Grupo 1210360" clip-path="url(#clip-path-8)">
                    <path id="Trazado_1050384" data-name="Trazado 1050384" d="M217.539,268.321l-9.123,86.1h-8.882l.247,2.734H211.15l9.474-89.4ZM192.2,288.272h-7.063l-1.144.675-5.9,65.47h-8.924l.289,2.734h11.369l5.9-65.471,1.144-.675h4.867l1.143.675Z" transform="translate(-169.171 -267.75)" fill="#212121"/>
                  </g>
                </g>
              </g>
              <path id="Trazado_1050385" data-name="Trazado 1050385" d="M158.755,219.937c0-39.09,13.222-49.515,29.531-49.515s29.528,10.424,29.528,49.515Z" transform="translate(-30.816 -33.081)" fill="#153d51"/>
              <path id="Trazado_1050386" data-name="Trazado 1050386" d="M226.564,207.993c11.811,0,13.782-10.421,13.782-13.027s-5.907-13.031-19.688-18.243-1.969,20.848-1.969,20.848Z" transform="translate(-41.536 -34.17)" fill="#153d51"/>
              <path id="Trazado_1050387" data-name="Trazado 1050387" d="M157.878,207.993c-11.811,0-13.779-10.421-13.779-13.027s5.9-13.031,19.685-18.243,1.968,20.848,1.968,20.848Z" transform="translate(-27.971 -34.17)" fill="#153d51"/>
              <path id="Trazado_1050388" data-name="Trazado 1050388" d="M220.8,189.966c0,10.8-14.985,19.544-33.465,19.544s-33.468-8.749-33.468-19.544,14.985-19.544,33.468-19.544,33.465,8.75,33.465,19.544" transform="translate(-29.868 -33.081)" fill="#153d51"/>
              <path id="Trazado_1050389" data-name="Trazado 1050389" d="M224.941,216c-8.819-4.38-10.716-18.867-6.67-38.976.122-.613.245-1.209.372-1.816l-12.5-4.785L195.4,199.393V250.1c0,4,2.546,7.243,5.685,7.243l20.844-2.415c3.138,0,5.686-3.245,5.686-7.245l-1.984-30.368c-.133-.73.23-.863-.688-1.317" transform="translate(-37.929 -33.081)" fill="#f57f17"/>
              <path id="Trazado_1050390" data-name="Trazado 1050390" d="M225.952,218.275c-.132-.728.225-.861-.679-1.311l.791,29.807c0,4-2.548,7.245-5.686,7.245l-20.844,2.415a4.663,4.663,0,0,1-2.47-.748,5.286,5.286,0,0,0,4.341,2.619l20.844-2.415c3.139,0,5.687-3.244,5.687-7.244Zm-4.807-4.685c-5.187-6.466-5.861-19.15-2.551-35.608.122-.612.246-1.209.372-1.815l-2.092-.8c-.05.247-.1.492-.152.744-3.669,18.253-2.427,31.845,4.424,37.479" transform="translate(-38.253 -34.041)" fill="#e26910"/>
              <path id="Trazado_1050391" data-name="Trazado 1050391" d="M226.34,241.163H195.4v-4.829h30.642Z" transform="translate(-37.929 -45.875)" fill="#212121"/>
              <path id="Trazado_1050392" data-name="Trazado 1050392" d="M227.138,256.142H195.4v-4.828h31.421Z" transform="translate(-37.929 -48.783)" fill="#212121"/>
              <path id="Trazado_1050393" data-name="Trazado 1050393" d="M214.83,173.777,205.427,224l-.456,2.414-3.7-1.111.247-1.3,10.8-51.188Z" transform="translate(-39.07 -33.546)" fill="#212121"/>
              <path id="Trazado_1050394" data-name="Trazado 1050394" d="M158.1,216c8.818-4.38,10.713-18.867,6.67-38.976-.123-.613-.247-1.209-.371-1.816l12.5-4.785,10.742,28.972V250.1c0,4-2.547,7.243-5.686,7.243l-20.846-2.415c-3.14,0-5.683-3.245-5.683-7.245l1.984-30.368c.134-.73-.23-.863.688-1.317" transform="translate(-30.17 -33.081)" fill="#f57f17"/>
              <path id="Trazado_1050395" data-name="Trazado 1050395" d="M177.263,170.422l-.753.288,10.128,27.316v50.707c0,3.995-2.547,7.242-5.686,7.242l-20.845-2.415a4.746,4.746,0,0,1-2.792-.969,5.2,5.2,0,0,0,4.158,2.335l20.845,2.415c3.14,0,5.686-3.246,5.686-7.243V199.394Z" transform="translate(-30.537 -33.081)" fill="#e26910"/>
              <path id="Trazado_1050396" data-name="Trazado 1050396" d="M157,241.163h30.945v-4.829H157.3Z" transform="translate(-30.475 -45.875)" fill="#212121"/>
              <path id="Trazado_1050397" data-name="Trazado 1050397" d="M156.011,256.142h31.741v-4.828H156.332Z" transform="translate(-30.284 -48.783)" fill="#212121"/>
              <path id="Trazado_1050398" data-name="Trazado 1050398" d="M172.767,173.754,182.117,224l.453,2.414,3.7-1.11-.246-1.3-10.8-51.188Z" transform="translate(-33.536 -33.546)" fill="#212121"/>
              <path id="Trazado_1050399" data-name="Trazado 1050399" d="M196.116,255.872a.975.975,0,1,1-1.895,0v-48.29a.975.975,0,1,1,1.895,0Z" transform="translate(-37.701 -40.06)" fill="#212121"/>
              <path id="Trazado_1050400" data-name="Trazado 1050400" d="M195.659,209.368h-1.9l-1.894,7.244.945,2.414h3.793l.947-2.414Zm-.948,8.543a1.484,1.484,0,1,1,1.484-1.484,1.483,1.483,0,0,1-1.484,1.484" transform="translate(-37.244 -40.641)" fill="#e0e0e0"/>
              <path id="Trazado_1050401" data-name="Trazado 1050401" d="M203.14,169.064c-1.491,3.116-5.479,5.345-10.2,5.345s-8.709-2.229-10.2-5.345c.243-2.066.514-4.349.84-6.766,1.873-2.389,5.345-4,9.36-4s7.487,1.612,9.36,4c.326,2.417.6,4.7.839,6.766" transform="translate(-35.472 -30.727)" fill="#ffb74d"/>
              <path id="Trazado_1050402" data-name="Trazado 1050402" d="M208.649,136.8c0,12.98-7.816,27.651-17.456,27.651S173.734,149.78,173.734,136.8s7.816-19.355,17.459-19.355,17.456,6.375,17.456,19.355" transform="translate(-33.724 -22.798)" fill="#ffcc80"/>
              <path id="Trazado_1050403" data-name="Trazado 1050403" d="M216.531,146.075c-.423,3.294.384,6.088-1.429,5.9s-2.937-3.023-2.514-6.317,2.242-5.81,4.055-5.618.314,2.741-.112,6.039" transform="translate(-41.249 -27.181)" fill="#ffcc80"/>
              <path id="Trazado_1050404" data-name="Trazado 1050404" d="M173.054,146.075c.423,3.294-.388,6.088,1.429,5.9s2.939-3.023,2.514-6.317-2.242-5.81-4.055-5.618-.313,2.741.113,6.039" transform="translate(-33.4 -27.181)" fill="#ffcc80"/>
              <path id="Trazado_1050405" data-name="Trazado 1050405" d="M202.878,158.979c0,5.441-4.411,9.063-9.854,9.063s-9.854-3.622-9.854-9.063c0-3.338,2.226-6.82,4.856-9.013,1.659-1.38,2.366-3.355,5-3.355,2.705,0,3.343,1.975,5,3.357,2.627,2.193,4.851,5.673,4.851,9.011" transform="translate(-35.555 -28.459)" fill="#f5f5f5"/>
              <path id="Trazado_1050406" data-name="Trazado 1050406" d="M184.316,152.276a.672.672,0,0,1-.452-.174l-10.737-9.734a.671.671,0,0,1,.9-.993l10.738,9.731a.673.673,0,0,1-.451,1.169" transform="translate(-33.563 -27.409)" fill="#f5f5f5"/>
              <path id="Trazado_1050407" data-name="Trazado 1050407" d="M203.567,152.276a.672.672,0,0,1-.459-1.163l10.4-9.732a.672.672,0,0,1,.918.981l-10.4,9.733a.669.669,0,0,1-.459.181" transform="translate(-39.385 -27.409)" fill="#f5f5f5"/>
              <path id="Trazado_1050408" data-name="Trazado 1050408" d="M183.619,166.333a.666.666,0,0,1-.475-.2l-6.716-6.716a.671.671,0,0,1,.948-.95l6.718,6.715a.672.672,0,0,1,0,.949.666.666,0,0,1-.475.2" transform="translate(-34.209 -30.723)" fill="#f5f5f5"/>
              <path id="Trazado_1050409" data-name="Trazado 1050409" d="M205.232,166.333a.661.661,0,0,1-.471-.2.669.669,0,0,1,0-.951l6.711-6.715a.672.672,0,1,1,.949.95l-6.711,6.716a.677.677,0,0,1-.479.2" transform="translate(-39.708 -30.723)" fill="#f5f5f5"/>
              <path id="Trazado_1050410" data-name="Trazado 1050410" d="M199.474,154.132a.646.646,0,0,1-.671.673c-.672,0-3.357-2.688-4.7-2.687s-4.03,2.687-4.7,2.687a.672.672,0,0,1-.671-.673.635.635,0,0,1,.671-.672c.671,0,2.015-2.685,4.7-2.686s4.027,2.686,4.7,2.686a.671.671,0,0,1,.671.672" transform="translate(-36.635 -29.267)" fill="#757575"/>
              <path id="Trazado_1050411" data-name="Trazado 1050411" d="M198.343,160.674a.434.434,0,0,1-.367.464c-2.339.07-4.689.07-7.029,0a.432.432,0,0,1-.366-.464.418.418,0,0,1,.368-.453h7.025a.419.419,0,0,1,.368.453" transform="translate(-36.994 -31.101)" fill="#bdbdbd"/>
              <path id="Trazado_1050412" data-name="Trazado 1050412" d="M198.925,164.054a.528.528,0,0,1-.434.507,28.84,28.84,0,0,1-8.427,0,.531.531,0,0,1-.434-.507.382.382,0,0,1,.436-.387,38.138,38.138,0,0,0,8.424,0,.381.381,0,0,1,.436.387" transform="translate(-36.809 -31.769)" fill="#bdbdbd"/>
              <path id="Trazado_1050413" data-name="Trazado 1050413" d="M198.62,167.569a.575.575,0,0,1-.395.546,16.642,16.642,0,0,1-7.7,0,.576.576,0,0,1-.395-.546.333.333,0,0,1,.4-.361,19.262,19.262,0,0,0,7.7,0,.333.333,0,0,1,.4.361" transform="translate(-36.906 -32.456)" fill="#bdbdbd"/>
              <path id="Trazado_1050414" data-name="Trazado 1050414" d="M206.612,144.166c0,11.239-12.09,3.746-14.776,3.746s-14.774,7.463-14.774-3.774c0-8.059,0-6.716,14.774-6.716s14.776-1.343,14.776,6.744" transform="translate(-34.37 -26.659)" fill="#263238"/>
              <path id="Trazado_1050415" data-name="Trazado 1050415" d="M208.651,138.275a1.547,1.547,0,0,1-1.341,1.688H175.078a1.733,1.733,0,0,1,0-3.378H207.31a1.547,1.547,0,0,1,1.341,1.69" transform="translate(-33.724 -26.513)" fill="#263238"/>
              <path id="Trazado_1050416" data-name="Trazado 1050416" d="M213.406,144.158c.74,0,1.343-3.005,1.343-6.715H212.06c0,3.71.6,6.715,1.346,6.715" transform="translate(-41.164 -26.679)" fill="#263238"/>
              <path id="Trazado_1050417" data-name="Trazado 1050417" d="M176.741,144.158c.743,0,1.347-3.005,1.347-6.715H175.4c0,3.71.6,6.715,1.341,6.715" transform="translate(-34.047 -26.679)" fill="#263238"/>
              <path id="Trazado_1050418" data-name="Trazado 1050418" d="M191.315,143.279v-2.686l-.335-.671c-2.122,0-2.6-.026-4.157-.05-1.15-.019-2.157-.035-3.039-.035-3.105,0-3.776.253-3.9.4-.32.386-.32,2.51-.32,4.384a5.247,5.247,0,0,0,.905,3.522,2.535,2.535,0,0,0,2.067.669,20.943,20.943,0,0,0,6.142-1.487,5.892,5.892,0,0,0,1.965-.943Z" transform="translate(-34.856 -27.144)" fill="#bbdefb"/>
              <path id="Trazado_1050419" data-name="Trazado 1050419" d="M186.492,146.369A1.287,1.287,0,1,1,188,145.1a1.4,1.4,0,0,1-1.509,1.268" transform="translate(-35.908 -27.92)" fill="#90caf9"/>
              <path id="Trazado_1050420" data-name="Trazado 1050420" d="M208.075,140.243c-.124-.151-.8-.4-3.913-.4-.882,0-1.887.014-3.04.033-1.557.023-2.028.05-4.141.05l-.335.671v2.686l.67,3.105a5.981,5.981,0,0,0,1.978.949,20.843,20.843,0,0,0,6.146,1.5c1.177,0,2.956,0,2.956-4.181,0-1.977,0-4.017-.321-4.407" transform="translate(-38.171 -27.145)" fill="#bbdefb"/>
              <path id="Trazado_1050421" data-name="Trazado 1050421" d="M203.573,146.379a1.287,1.287,0,1,1,1.508-1.268,1.4,1.4,0,0,1-1.508,1.268" transform="translate(-39.224 -27.922)" fill="#90caf9"/>
              <path id="Trazado_1050422" data-name="Trazado 1050422" d="M190.546,113.467c9.814,0,17.773,9.019,17.773,20.145h2.372c0-12.61-9.021-22.832-20.145-22.832S170.4,121,170.4,133.612h2.368c0-11.126,7.958-20.145,17.777-20.145" transform="translate(-33.077 -21.504)" fill="#ff8f00"/>
              <path id="Trazado_1050423" data-name="Trazado 1050423" d="M174.8,149.867a1.588,1.588,0,0,1-3.171.182l-.818-14.262a1.588,1.588,0,1,1,3.17-.182Z" transform="translate(-33.156 -26.032)" fill="#212121"/>
              <path id="Trazado_1050424" data-name="Trazado 1050424" d="M170.582,150.454c-2.627.15-4.938-2.92-5.163-6.857s1.72-7.255,4.344-7.4Z" transform="translate(-32.107 -26.437)" fill="#ff8f00"/>
              <g id="Grupo_1210365" data-name="Grupo 1210365" transform="translate(136.184 112.16)" opacity="0.1">
                <g id="Grupo_1210364" data-name="Grupo 1210364">
                  <g id="Grupo_1210363" data-name="Grupo 1210363" clip-path="url(#clip-path-9)">
                    <path id="Trazado_1050425" data-name="Trazado 1050425" d="M168.986,150.3c1.121-2.3,1.763-8.312,1.613-11.128l.684,11.852a3.586,3.586,0,0,1-2.3-.724" transform="translate(-168.986 -139.176)" fill="#212121"/>
                  </g>
                </g>
              </g>
              <path id="Trazado_1050426" data-name="Trazado 1050426" d="M215.03,149.867a1.589,1.589,0,0,0,3.172.182l.813-14.262a1.586,1.586,0,1,0-3.166-.182Z" transform="translate(-41.74 -26.032)" fill="#212121"/>
              <path id="Trazado_1050427" data-name="Trazado 1050427" d="M218.963,150.454c2.627.15,4.936-2.92,5.164-6.857s-1.719-7.255-4.347-7.4Z" transform="translate(-42.503 -26.437)" fill="#ff8f00"/>
              <g id="Grupo_1210368" data-name="Grupo 1210368" transform="translate(176.455 116.439)" opacity="0.1">
                <g id="Grupo_1210367" data-name="Grupo 1210367">
                  <g id="Grupo_1210366" data-name="Grupo 1210366" clip-path="url(#clip-path-10)">
                    <path id="Trazado_1050428" data-name="Trazado 1050428" d="M224.139,144.486c0,.232,0,.479-.013.724-.233,3.938-2.543,7-5.169,6.848l.1-1.586c3.143-.218,4.473-4.209,5.087-5.987" transform="translate(-218.957 -144.486)" fill="#212121"/>
                  </g>
                </g>
              </g>
              <path id="Trazado_1050429" data-name="Trazado 1050429" d="M207.841,128.971a87.117,87.117,0,0,1-35.145,0c-3.6,0-5.373-.656-1.5-3.869a19.574,19.574,0,0,1,6.768-11.469,1.383,1.383,0,0,1,.533-1.873l2.434-1.422a1.423,1.423,0,0,1,1.926.52l.015.041c.027-.014.055-.014.082-.028a19.771,19.771,0,0,1,4.511-1.065v-.177a.847.847,0,0,1,.015-.192,1.414,1.414,0,0,1,1.394-1.217h2.816a1.406,1.406,0,0,1,1.407,1.409v.177a.089.089,0,0,1,.056.013,19.3,19.3,0,0,1,4.537,1.081l.015-.041c0-.014.014-.014.028-.027a1.4,1.4,0,0,1,1.9-.492l2.433,1.422a1.382,1.382,0,0,1,.532,1.873,19.565,19.565,0,0,1,6.767,11.469c3.869,3.213,2.093,3.869-1.517,3.869" transform="translate(-32.808 -21.007)" fill="#f57f17"/>
              <path id="Trazado_1050430" data-name="Trazado 1050430" d="M203.345,111.215l-.753,7.1a2.324,2.324,0,0,1-4.635-.233,1.411,1.411,0,0,1,.015-.247l.793-7.628a19.3,19.3,0,0,1,4.538,1.08l.015-.04c0-.014.014-.014.028-.027" transform="translate(-38.426 -21.392)" fill="#e26910"/>
              <path id="Trazado_1050431" data-name="Trazado 1050431" d="M191.678,117.828a1.33,1.33,0,0,1,.014.233,2.338,2.338,0,0,1-2.092,2.323,2.313,2.313,0,0,1-2.555-2.078l-.738-7.054a19.718,19.718,0,0,1,4.511-1.066Z" transform="translate(-36.164 -21.389)" fill="#e26910"/>
              <path id="Trazado_1050432" data-name="Trazado 1050432" d="M214.48,127.489c-12.835,3.6-15.926,2.543-19.083,2.543,3.883-1.011,18.96-.629,16.308-9.514a21.507,21.507,0,0,1,2.775,6.972" transform="translate(-37.929 -23.394)" fill="#e26910"/>
              <path id="Trazado_1050433" data-name="Trazado 1050433" d="M234.072,388.438a.907.907,0,0,1,.12-.454,5.188,5.188,0,0,0,.3-1.83,3,3,0,0,0-.609-1.83,5.416,5.416,0,0,0-1.767-1l-1.347-.448a18.384,18.384,0,0,0-2.36-.585l-4.917-.821a4.478,4.478,0,0,1-2.069-1.061l-1.935-1.936a2.839,2.839,0,0,1-.71-2.075l.92-7.345c.081-.666.2-1.756.26-2.425l.718-7.938H203.15l.72,7.938c.064.669.2,1.759.314,2.42l.82,4.915a17.924,17.924,0,0,1,.2,2.423,8.929,8.929,0,0,1-.389,2.381l-.445,1.343a8.932,8.932,0,0,0-.387,2.381v4.272a3.268,3.268,0,0,0,.305,1.219.826.826,0,0,1,.113.482c4.257-.708,19.692.484,29.67-.028" transform="translate(-39.434 -69.627)" fill="#dedede"/>
              <g id="Grupo_1210371" data-name="Grupo 1210371" transform="translate(177.968 289.065)" opacity="0.5">
                <g id="Grupo_1210370" data-name="Grupo 1210370">
                  <g id="Grupo_1210369" data-name="Grupo 1210369" clip-path="url(#clip-path-11)">
                    <path id="Trazado_1050434" data-name="Trazado 1050434" d="M237.32,384.324a5.4,5.4,0,0,0-1.767-1l-1.347-.449a18.4,18.4,0,0,0-2.361-.585l-4.917-.82a4.49,4.49,0,0,1-2.069-1.061l-1.934-1.937a2.835,2.835,0,0,1-.71-2.075l.919-7.344c.082-.666.2-1.757.262-2.426l.717-7.938h-1.366l-.718,7.938c-.063.669-.181,1.76-.263,2.426l-.917,7.344a2.837,2.837,0,0,0,.708,2.075l1.935,1.937a4.5,4.5,0,0,0,2.07,1.061l4.918.82a18.474,18.474,0,0,1,2.36.585l1.348.449a5.406,5.406,0,0,1,1.768,1,3,3,0,0,1,.608,1.83,5.185,5.185,0,0,1-.3,1.83.91.91,0,0,0-.12.454c-1.686.087-3.534.122-5.449.129,2.409.007,4.734-.022,6.816-.129a.921.921,0,0,1,.121-.454,5.184,5.184,0,0,0,.3-1.83,3,3,0,0,0-.609-1.83" transform="translate(-220.835 -358.692)" fill="#212121"/>
                  </g>
                </g>
              </g>
              <path id="Trazado_1050435" data-name="Trazado 1050435" d="M234.393,395.543c-.077,0-.115-.063-.121-.157-9.978.511-25.413-.68-29.67.028-.012.076-.045.129-.113.129-.167,0-.305.411-.305.915a3.916,3.916,0,0,0,.152,1.223c.082.167.7.3,1.372.3h5.8c.671,0,1.218-.275,1.218-.61s.551-.611,1.223-.611h1.219a2.985,2.985,0,0,1,1.83.611,3,3,0,0,0,1.833.61h14.035a2.991,2.991,0,0,0,1.527-.3,2.164,2.164,0,0,0,.3-1.223c0-.5-.137-.915-.3-.915" transform="translate(-39.635 -76.71)" fill="#212121"/>
              <path id="Trazado_1050436" data-name="Trazado 1050436" d="M149.172,388.438a.924.924,0,0,0-.12-.454,5.185,5.185,0,0,1-.3-1.83,3,3,0,0,1,.609-1.83,5.416,5.416,0,0,1,1.767-1l1.348-.448a18.341,18.341,0,0,1,2.36-.585l4.918-.821a4.482,4.482,0,0,0,2.069-1.061l1.935-1.936a2.841,2.841,0,0,0,.708-2.075l-.919-7.345c-.081-.666-.2-1.756-.261-2.425l-.719-7.938h17.53l-.72,7.938c-.063.669-.2,1.759-.313,2.42l-.821,4.915a18.055,18.055,0,0,0-.2,2.423,8.962,8.962,0,0,0,.389,2.381l.446,1.343a8.965,8.965,0,0,1,.388,2.381v4.272a3.285,3.285,0,0,1-.306,1.219.847.847,0,0,0-.114.482c-4.258-.708-19.692.484-29.67-.028" transform="translate(-28.874 -69.627)" fill="#dedede"/>
              <g id="Grupo_1210374" data-name="Grupo 1210374" transform="translate(147.798 289.065)" opacity="0.5">
                <g id="Grupo_1210373" data-name="Grupo 1210373">
                  <g id="Grupo_1210372" data-name="Grupo 1210372" clip-path="url(#clip-path-12)">
                    <path id="Trazado_1050437" data-name="Trazado 1050437" d="M185.785,369.051c.111-.661.251-1.752.313-2.421l.72-7.938h-1.367l-.721,7.938c-.062.669-.2,1.76-.312,2.421l-.821,4.915a17.909,17.909,0,0,0-.2,2.423,8.993,8.993,0,0,0,.388,2.381l.446,1.343a8.966,8.966,0,0,1,.388,2.381v4.271a3.285,3.285,0,0,1-.306,1.219,1.027,1.027,0,0,0-.106.343c.519.036.993.079,1.359.139a.848.848,0,0,1,.114-.483,3.285,3.285,0,0,0,.306-1.219v-4.271a8.965,8.965,0,0,0-.388-2.381l-.446-1.343a8.962,8.962,0,0,1-.389-2.381,18.043,18.043,0,0,1,.2-2.423Z" transform="translate(-183.398 -358.692)" fill="#212121"/>
                  </g>
                </g>
              </g>
              <path id="Trazado_1050438" data-name="Trazado 1050438" d="M149.052,395.543c.077,0,.114-.063.12-.157,9.978.511,25.413-.68,29.67.028.011.076.045.129.113.129.167,0,.306.411.306.915a3.91,3.91,0,0,1-.153,1.223c-.082.167-.7.3-1.372.3h-5.8c-.672,0-1.219-.275-1.219-.61s-.552-.611-1.223-.611h-1.219a2.985,2.985,0,0,0-1.829.611,3,3,0,0,1-1.833.61H150.578a2.988,2.988,0,0,1-1.526-.3,2.164,2.164,0,0,1-.3-1.223c0-.5.138-.915.3-.915" transform="translate(-28.874 -76.71)" fill="#212121"/>
            </g>
          </g>
        </g>
      </g>
      <path id="Trazado_1050439" data-name="Trazado 1050439" d="M3838.9,12310.086h189.393" transform="translate(-2713.896 -10.217)" fill="none" stroke="#0a88a5" stroke-linecap="round" stroke-width="3"/>
    </g>
  </g>
</svg>
