<svg xmlns="http://www.w3.org/2000/svg" xmlns:xlink="http://www.w3.org/1999/xlink" width="98" height="98" viewBox="0 0 98 98">
  <defs>
    <filter id="Trazado_904820" x="0" y="0" width="98" height="98" filterUnits="userSpaceOnUse">
      <feOffset dy="3" input="SourceAlpha"/>
      <feGaussianBlur stdDeviation="3" result="blur"/>
      <feFlood flood-opacity="0.161"/>
      <feComposite operator="in" in2="blur"/>
      <feComposite in="SourceGraphic"/>
    </filter>
  </defs>
  <g id="Grupo_1210391" data-name="Grupo 1210391" transform="translate(-191 -12477.241)">
    <g id="Grupo_1210129" data-name="Grupo 1210129" transform="translate(0 4735.458)">
      <g id="Grupo_1209198" data-name="Grupo 1209198" transform="translate(200 7747.783)">
        <g id="Grupo_1202705" data-name="Grupo 1202705" transform="translate(0 0)">
          <g id="Grupo_1173585" data-name="Grupo 1173585" transform="translate(0 0)">
            <g id="Grupo_1173428" data-name="Grupo 1173428">
              <g id="Grupo_1171958" data-name="Grupo 1171958">
                <g id="Grupo_1167341" data-name="Grupo 1167341">
                  <g id="Grupo_1166792" data-name="Grupo 1166792">
                    <g transform="matrix(1, 0, 0, 1, -9, -6)" filter="url(#Trazado_904820)">
                      <g id="Trazado_904820-2" data-name="Trazado 904820" transform="translate(9 6)" fill="#fef9e7">
                        <path d="M 39.99999618530273 78.50002288818359 C 34.80187225341797 78.50002288818359 29.76002883911133 77.4822998046875 25.01451873779297 75.47511291503906 C 20.43014144897461 73.53608703613281 16.31264114379883 70.7598876953125 12.77638530731201 67.22362518310547 C 9.240129470825195 63.6873664855957 6.463929653167725 59.56986618041992 4.524896144866943 54.98548889160156 C 2.517718315124512 50.2399787902832 1.499996185302734 45.19814300537109 1.499996185302734 40.0000114440918 C 1.499996185302734 34.8018798828125 2.517718315124512 29.76003456115723 4.524896144866943 25.01453399658203 C 6.463929653167725 20.43015670776367 9.240129470825195 16.31264495849609 12.77638530731201 12.77638912200928 C 16.31264114379883 9.240133285522461 20.43014144897461 6.46393346786499 25.01451873779297 4.524900436401367 C 29.76002883911133 2.517722606658936 34.80186462402344 1.500000357627869 39.99999618530273 1.500000357627869 C 45.19812774658203 1.500000357627869 50.23996353149414 2.517722606658936 54.9854736328125 4.524900436401367 C 59.56985092163086 6.46393346786499 63.68735122680664 9.240133285522461 67.22360992431641 12.77638912200928 C 70.75986480712891 16.31264495849609 73.53606414794922 20.43015670776367 75.47509765625 25.01453399658203 C 77.48227691650391 29.76003456115723 78.5 34.8018798828125 78.5 40.0000114440918 C 78.5 45.19814300537109 77.48227691650391 50.2399787902832 75.47509765625 54.98548889160156 C 73.53606414794922 59.56986618041992 70.75986480712891 63.6873664855957 67.22360992431641 67.22362518310547 C 63.68735122680664 70.7598876953125 59.56985092163086 73.53608703613281 54.9854736328125 75.47511291503906 C 50.23996353149414 77.4822998046875 45.1981201171875 78.50002288818359 39.99999618530273 78.50002288818359 Z" stroke="none"/>
                        <path d="M 39.99999618530273 3 C 35.00370407104492 3 30.15846252441406 3.977851867675781 25.59885025024414 5.906410217285156 C 21.19327545166016 7.769813537597656 17.23603439331055 10.43806457519531 13.83705139160156 13.83705139160156 C 10.43806457519531 17.23603820800781 7.769805908203125 21.19327926635742 5.906410217285156 25.59885025024414 C 3.977851867675781 30.15846633911133 2.999992370605469 35.00371932983398 2.999992370605469 40.0000114440918 C 2.999992370605469 44.99630355834961 3.977851867675781 49.84154510498047 5.906410217285156 54.40115737915039 C 7.769805908203125 58.80674743652344 10.43806457519531 62.76398468017578 13.83705139160156 66.16297149658203 C 17.23603439331055 69.56195831298828 21.19327545166016 72.23020935058594 25.59885025024414 74.09361267089844 C 30.15846252441406 76.02217102050781 35.00370407104492 77.00002288818359 39.99999618530273 77.00002288818359 C 44.99628829956055 77.00002288818359 49.84152984619141 76.02217102050781 54.40114212036133 74.09361267089844 C 58.80671691894531 72.23020935058594 62.76395416259766 69.56195831298828 66.16294097900391 66.16297149658203 C 69.56192779541016 62.76398468017578 72.23017883300781 58.80674743652344 74.09358215332031 54.40115737915039 C 76.02214050292969 49.84154510498047 77 44.99630355834961 77 40.0000114440918 C 77 35.00371932983398 76.02214050292969 30.15846633911133 74.09358215332031 25.59885025024414 C 72.23017883300781 21.19327926635742 69.56192779541016 17.23603820800781 66.16294097900391 13.83705139160156 C 62.76395416259766 10.43806457519531 58.80671691894531 7.769813537597656 54.40114212036133 5.906410217285156 C 49.84152984619141 3.977851867675781 44.99628829956055 3 39.99999618530273 3 M 39.99999618530273 0 C 62.09138488769531 0 80 17.90861129760742 80 40.0000114440918 C 80 62.09140014648438 62.09138488769531 80.00002288818359 39.99999618530273 80.00002288818359 C 17.90861129760742 80.00002288818359 -7.62939453125e-06 62.09140014648438 -7.62939453125e-06 40.0000114440918 C -7.62939453125e-06 17.90861129760742 17.90861129760742 0 39.99999618530273 0 Z" stroke="none" fill="#887013"/>
                      </g>
                    </g>
                  </g>
                </g>
              </g>
            </g>
          </g>
        </g>
      </g>
    </g>
    <g id="smart-watch_7253486" transform="translate(208.5 12491.283)">
      <g id="Grupo_1210384" data-name="Grupo 1210384" transform="translate(7.5 7.5)">
        <g id="Grupo_1210383" data-name="Grupo 1210383" transform="translate(0 0)">
          <g id="Grupo_1210380" data-name="Grupo 1210380" transform="translate(1.986)">
            <path id="Trazado_1050440" data-name="Trazado 1050440" d="M68.058,12.462l-1.215-1.077c-.041-.1.258-1.312.21-1.41A4.411,4.411,0,0,0,63.087,7.5L59.5,7.5a7.388,7.388,0,0,0-6.075,3.2l-1.437,2.089a9.971,9.971,0,0,1-8.216,4.321H27.64V37.367H44.409a9.57,9.57,0,0,1,5.026,1.141h0a19.8,19.8,0,0,0,10.3,2.891l9.757.407a4.421,4.421,0,0,0,3.825-1.966,3.741,3.741,0,0,0,.226-1.285h0a3.749,3.749,0,0,0-3.749-3.749l1.513-.5c1.409-.194,2.011-.742,3.149-1.985a3.722,3.722,0,0,0,.2-1.205,3.806,3.806,0,0,0-3.214-3.768,3.6,3.6,0,0,0,1.81-1.066,11.229,11.229,0,0,0,1.205-1.421,3.725,3.725,0,0,0,.2-1.207,3.8,3.8,0,0,0-3.214-3.767H70.077A3.368,3.368,0,0,0,72.268,18.7c.478-.418,1.314-1.3,1.314-1.3a3.706,3.706,0,0,0,.207-1.226h0a3.713,3.713,0,0,0-3.712-3.712Z" transform="translate(-27.64 -7.501)" fill="#fee7ce"/>
          </g>
          <g id="Grupo_1210381" data-name="Grupo 1210381" transform="translate(1.986 28.057)">
            <path id="Trazado_1050441" data-name="Trazado 1050441" d="M73.316,296.363a3.753,3.753,0,0,1-3.525,2.465l-10.132,0a19.814,19.814,0,0,1-10.3-2.892,9.512,9.512,0,0,0-4.95-1.389H27.64V292.08H45.79a9.512,9.512,0,0,1,4.95,1.389,19.813,19.813,0,0,0,10.3,2.892Z" transform="translate(-27.64 -292.08)" fill="#ffd0bd"/>
          </g>
          <path id="Trazado_1050442" data-name="Trazado 1050442" d="M136.519,106.056l.94.432h4.919a1.323,1.323,0,0,0,1.323-1.323V81.822a1.323,1.323,0,0,0-1.323-1.323h-4.919l-.622.579a1.323,1.323,0,0,0-1.323,1.323l-.318,22.332A1.323,1.323,0,0,0,136.519,106.056Z" transform="translate(-122.606 -73.302)" fill="#f1f3f2"/>
          <path id="Trazado_1050443" data-name="Trazado 1050443" d="M131.108,80.5v25.989h-1.635a1.323,1.323,0,0,1-1.323-1.323V81.823a1.323,1.323,0,0,1,1.323-1.323Z" transform="translate(-116.255 -73.303)" fill="#e2e8e8"/>
          <path id="Trazado_1050444" data-name="Trazado 1050444" d="M10.31,63.216l1.714-.415h1.183a1.972,1.972,0,0,1,1.972,1.972V90.308a1.972,1.972,0,0,1-1.972,1.972H12.024l-1.324-.5a.2.2,0,0,1-.2-.2l-.39-28.172A.2.2,0,0,1,10.31,63.216Z" transform="translate(-9.855 -57.349)" fill="#6e6f80"/>
          <path id="Trazado_1050445" data-name="Trazado 1050445" d="M9.669,62.8V92.279H7.7a.2.2,0,0,1-.2-.2V63a.2.2,0,0,1,.2-.2Z" transform="translate(-7.5 -57.348)" fill="#575965"/>
          <path id="Trazado_1050446" data-name="Trazado 1050446" d="M354.681,32.892l.872,2.185h-7.73a1.243,1.243,0,1,1,0-2.485h6.725Q354.619,32.738,354.681,32.892Z" transform="translate(-313.15 -30.116)" fill="#ffd0bd"/>
          <path id="Trazado_1050447" data-name="Trazado 1050447" d="M450.189,259.23a3.669,3.669,0,0,1-3.539,2.486h-.938a1.242,1.242,0,0,1-1.242-1.242,1.279,1.279,0,0,1,1.28-1.244Z" transform="translate(-401.388 -234.412)" fill="#ffd0bd"/>
          <path id="Trazado_1050448" data-name="Trazado 1050448" d="M444.834,110.012a1.244,1.244,0,0,1,.878-2.123h3.6a3.715,3.715,0,0,1-3.506,2.487h-.1A1.238,1.238,0,0,1,444.834,110.012Z" transform="translate(-401.388 -97.992)" fill="#ffd0bd"/>
          <path id="Trazado_1050449" data-name="Trazado 1050449" d="M450.189,183.559a3.734,3.734,0,0,1-3.009,2.487h-1.468a1.243,1.243,0,0,1,0-2.486Z" transform="translate(-401.388 -166.201)" fill="#ffd0bd"/>
          <path id="Trazado_1050450" data-name="Trazado 1050450" d="M94.805,145.526V134.851a2.55,2.55,0,0,1,2.55-2.55H108.03a2.55,2.55,0,0,1,2.55,2.55v10.675a2.55,2.55,0,0,1-2.55,2.55H97.355A2.55,2.55,0,0,1,94.805,145.526Z" transform="translate(-86.197 -119.997)" fill="#f1f3f2"/>
          <path id="Trazado_1050451" data-name="Trazado 1050451" d="M99.627,148.075H97.36a2.549,2.549,0,0,1-2.55-2.55V134.85a2.549,2.549,0,0,1,2.55-2.55h2.268a2.549,2.549,0,0,0-2.55,2.55v10.675A2.549,2.549,0,0,0,99.627,148.075Z" transform="translate(-86.202 -119.996)" fill="#e2e8e8"/>
          <g id="Grupo_1210382" data-name="Grupo 1210382" transform="translate(13.405 17.48)">
            <path id="Trazado_1050452" data-name="Trazado 1050452" d="M146.417,190.084l-2.45-2.45a1.671,1.671,0,0,1-.087-2.3,1.641,1.641,0,0,1,2.375-.057l.163.163a.2.2,0,0,0,.279,0l.126-.126a1.671,1.671,0,0,1,2.3-.088,1.641,1.641,0,0,1,.057,2.375l-2.479,2.479A.2.2,0,0,1,146.417,190.084Z" transform="translate(-143.465 -184.801)" fill="#ff8fb4"/>
          </g>
        </g>
        <path id="Trazado_1050453" data-name="Trazado 1050453" d="M29.989,329.012,26.717,323.9a.592.592,0,0,0-1,0l-3.272,5.116a1.972,1.972,0,0,1-1.661.909H13.817l-1.834.283a1.972,1.972,0,0,0-1.972,1.972L10,339.154a1.972,1.972,0,0,0,1.972,1.972l1.846.33H50.866a1.972,1.972,0,0,0,1.972-1.972v-7.592a1.972,1.972,0,0,0-1.972-1.972H31.65A1.972,1.972,0,0,1,29.989,329.012Z" transform="translate(-9.754 -292.456)" fill="#82acfc"/>
        <path id="Trazado_1050454" data-name="Trazado 1050454" d="M11.564,387.5v11.535H9.472A1.971,1.971,0,0,1,7.5,397.063v-7.592A1.971,1.971,0,0,1,9.472,387.5Z" transform="translate(-7.5 -350.035)" fill="#6a97fc"/>
      </g>
      <g id="Grupo_1210390" data-name="Grupo 1210390" transform="translate(7.5 7.5)">
        <g id="Grupo_1210389" data-name="Grupo 1210389" transform="translate(0)">
          <g id="Grupo_1210385" data-name="Grupo 1210385" transform="translate(5.535)">
            <line id="Línea_846" data-name="Línea 846" x1="6.182" transform="translate(0 9.614)" fill="none" stroke="#000" stroke-linecap="round" stroke-linejoin="round" stroke-miterlimit="10" stroke-width="1.5"/>
            <path id="Trazado_1050455" data-name="Trazado 1050455" d="M221.46,82.7a9.955,9.955,0,0,0,3.5-1.938" transform="translate(-205.9 -73.537)" fill="none" stroke="#000" stroke-linecap="round" stroke-linejoin="round" stroke-miterlimit="10" stroke-width="1.5"/>
            <path id="Trazado_1050456" data-name="Trazado 1050456" d="M279.65,12.075l.943-1.37a7.389,7.389,0,0,1,6.075-3.2l3.583,0a4.411,4.411,0,0,1,4.1,2.775l.812,2.033" transform="translate(-258.353 -7.5)" fill="none" stroke="#000" stroke-linecap="round" stroke-linejoin="round" stroke-miterlimit="10" stroke-width="1.5"/>
          </g>
          <path id="Trazado_1050457" data-name="Trazado 1050457" d="M354.18,57.8h10.243a3.712,3.712,0,1,1,0,7.425h1.364A3.8,3.8,0,0,1,369,68.992a3.73,3.73,0,0,1-3.214,3.694A3.805,3.805,0,0,1,369,76.455a3.728,3.728,0,0,1-3.214,3.692h-1.647a3.749,3.749,0,1,1,0,7.5H361.8" transform="translate(-320 -52.841)" fill="none" stroke="#000" stroke-linecap="round" stroke-linejoin="round" stroke-miterlimit="10" stroke-width="1.5"/>
          <path id="Trazado_1050458" data-name="Trazado 1050458" d="M223.48,320.58a9.5,9.5,0,0,1,2.412,1.044,19.814,19.814,0,0,0,10.3,2.892h4.347" transform="translate(-202.186 -289.713)" fill="none" stroke="#000" stroke-linecap="round" stroke-linejoin="round" stroke-miterlimit="10" stroke-width="1.5"/>
          <line id="Línea_847" data-name="Línea 847" x2="6.182" transform="translate(5.535 30.522)" fill="none" stroke="#000" stroke-linecap="round" stroke-linejoin="round" stroke-miterlimit="10" stroke-width="1.5"/>
          <g id="Grupo_1210388" data-name="Grupo 1210388" transform="translate(8.608 7.197)">
            <path id="Trazado_1050459" data-name="Trazado 1050459" d="M194.113,299.152h1.373a1.323,1.323,0,0,0,1.323-1.323v-3.593" transform="translate(-184.323 -273.162)" fill="none" stroke="#000" stroke-linecap="round" stroke-linejoin="round" stroke-miterlimit="10" stroke-width="1.5"/>
            <path id="Trazado_1050460" data-name="Trazado 1050460" d="M128.15,294.234v3.593a1.323,1.323,0,0,0,1.323,1.323h1.394" transform="translate(-124.863 -273.162)" fill="none" stroke="#000" stroke-linecap="round" stroke-linejoin="round" stroke-miterlimit="10" stroke-width="1.5"/>
            <path id="Trazado_1050461" data-name="Trazado 1050461" d="M137.351,85.426v-3.6a1.323,1.323,0,0,0-1.323-1.323h-6.553a1.323,1.323,0,0,0-1.323,1.323v3.6" transform="translate(-124.864 -80.499)" fill="none" stroke="#000" stroke-linecap="round" stroke-linejoin="round" stroke-miterlimit="10" stroke-width="1.5"/>
            <g id="Grupo_1210387" data-name="Grupo 1210387" transform="translate(0 5.107)">
              <path id="Trazado_1050462" data-name="Trazado 1050462" d="M94.81,137.939v-3.09a2.549,2.549,0,0,1,2.55-2.55h10.675a2.55,2.55,0,0,1,2.551,2.55v10.675a2.55,2.55,0,0,1-2.551,2.55H97.36a2.549,2.549,0,0,1-2.55-2.55V141.39" transform="translate(-94.81 -132.3)" fill="none" stroke="#000" stroke-linecap="round" stroke-linejoin="round" stroke-miterlimit="10" stroke-width="1.5"/>
              <line id="Línea_848" data-name="Línea 848" x1="3.048" transform="translate(6.363 13.121)" fill="none" stroke="#000" stroke-linecap="round" stroke-linejoin="round" stroke-miterlimit="10" stroke-width="1.5"/>
              <line id="Línea_849" data-name="Línea 849" x2="2" transform="translate(10.392 2.696)" fill="none" stroke="#000" stroke-linecap="round" stroke-linejoin="round" stroke-miterlimit="10" stroke-width="1.5"/>
              <line id="Línea_850" data-name="Línea 850" x2="1.775" transform="translate(3.568 2.682)" fill="none" stroke="#000" stroke-linecap="round" stroke-linejoin="round" stroke-miterlimit="10" stroke-width="1.5"/>
              <g id="Grupo_1210386" data-name="Grupo 1210386" transform="translate(4.786 5.176)">
                <path id="Trazado_1050463" data-name="Trazado 1050463" d="M146.459,190.224l-2.622-2.622a1.64,1.64,0,0,1,2.32-2.32l.3.3.3-.3a1.64,1.64,0,0,1,2.32,2.32Z" transform="translate(-143.356 -184.801)" fill="none" stroke="#000" stroke-linecap="round" stroke-linejoin="round" stroke-miterlimit="10" stroke-width="1.5"/>
              </g>
            </g>
          </g>
          <path id="Trazado_1050464" data-name="Trazado 1050464" d="M7.5,62.8h3.352a1.972,1.972,0,0,1,1.972,1.972V90.308a1.972,1.972,0,0,1-1.972,1.972H7.5" transform="translate(-7.5 -57.349)" fill="none" stroke="#000" stroke-linecap="round" stroke-linejoin="round" stroke-miterlimit="10" stroke-width="1.5"/>
        </g>
        <path id="Trazado_1050465" data-name="Trazado 1050465" d="M33.331,329.921H29.4a1.972,1.972,0,0,1-1.661-.909L24.463,323.9a.592.592,0,0,0-1,0l-3.272,5.116a1.972,1.972,0,0,1-1.661.909H9.472A1.972,1.972,0,0,0,7.5,331.893v7.592a1.972,1.972,0,0,0,1.972,1.972H48.613a1.972,1.972,0,0,0,1.972-1.972v-7.592a1.972,1.972,0,0,0-1.972-1.972H36.782" transform="translate(-7.5 -292.456)" fill="none" stroke="#000" stroke-linecap="round" stroke-linejoin="round" stroke-miterlimit="10" stroke-width="1.5"/>
        <path id="Trazado_1050466" data-name="Trazado 1050466" d="M74.62,414.181H73.145l-1.49-1.968-1.426,1.9H68.522l-1.5,2.191-3.409-4.83-3.015,4.14-1.476-1.436H57.942l-1.786-2.954-1.722,2.89H53.023l-1.5,1.5-3.212-6.111-3.212,6.8-1.5-2.191H41.891l-1.426-1.9-1.49,1.968H37.5" transform="translate(-34.542 -369.872)" fill="none" stroke="#000" stroke-linecap="round" stroke-linejoin="round" stroke-miterlimit="10" stroke-width="1.5"/>
      </g>
    </g>
  </g>
</svg>
