<svg xmlns="http://www.w3.org/2000/svg" xmlns:xlink="http://www.w3.org/1999/xlink" width="98" height="98" viewBox="0 0 98 98">
  <defs>
    <filter id="Trazado_904820" x="0" y="0" width="98" height="98" filterUnits="userSpaceOnUse">
      <feOffset dy="3" input="SourceAlpha"/>
      <feGaussianBlur stdDeviation="3" result="blur"/>
      <feFlood flood-opacity="0.161"/>
      <feComposite operator="in" in2="blur"/>
      <feComposite in="SourceGraphic"/>
    </filter>
  </defs>
  <g id="Grupo_1210393" data-name="Grupo 1210393" transform="translate(-611 -12477.241)">
    <g id="Grupo_1210130" data-name="Grupo 1210130" transform="translate(411 11715.241)">
      <g id="Grupo_1202705" data-name="Grupo 1202705" transform="translate(209 768)">
        <g id="Grupo_1173585" data-name="Grupo 1173585" transform="translate(0 0)">
          <g id="Grupo_1173428" data-name="Grupo 1173428">
            <g id="Grupo_1171958" data-name="Grupo 1171958">
              <g id="Grupo_1167341" data-name="Grupo 1167341">
                <g id="Grupo_1166792" data-name="Grupo 1166792">
                  <g transform="matrix(1, 0, 0, 1, -9, -6)" filter="url(#Trazado_904820)">
                    <g id="Trazado_904820-2" data-name="Trazado 904820" transform="translate(9 6)" fill="#fef9e7">
                      <path d="M 39.99999618530273 78.50002288818359 C 34.80187225341797 78.50002288818359 29.76002883911133 77.4822998046875 25.01451873779297 75.47511291503906 C 20.43014144897461 73.53608703613281 16.31264114379883 70.7598876953125 12.77638530731201 67.22362518310547 C 9.240129470825195 63.6873664855957 6.463929653167725 59.56986618041992 4.524896144866943 54.98548889160156 C 2.517718315124512 50.2399787902832 1.499996185302734 45.19814300537109 1.499996185302734 40.0000114440918 C 1.499996185302734 34.8018798828125 2.517718315124512 29.76003456115723 4.524896144866943 25.01453399658203 C 6.463929653167725 20.43015670776367 9.240129470825195 16.31264495849609 12.77638530731201 12.77638912200928 C 16.31264114379883 9.240133285522461 20.43014144897461 6.46393346786499 25.01451873779297 4.524900436401367 C 29.76002883911133 2.517722606658936 34.80186462402344 1.500000357627869 39.99999618530273 1.500000357627869 C 45.19812774658203 1.500000357627869 50.23996353149414 2.517722606658936 54.9854736328125 4.524900436401367 C 59.56985092163086 6.46393346786499 63.68735122680664 9.240133285522461 67.22360992431641 12.77638912200928 C 70.75986480712891 16.31264495849609 73.53606414794922 20.43015670776367 75.47509765625 25.01453399658203 C 77.48227691650391 29.76003456115723 78.5 34.8018798828125 78.5 40.0000114440918 C 78.5 45.19814300537109 77.48227691650391 50.2399787902832 75.47509765625 54.98548889160156 C 73.53606414794922 59.56986618041992 70.75986480712891 63.6873664855957 67.22360992431641 67.22362518310547 C 63.68735122680664 70.7598876953125 59.56985092163086 73.53608703613281 54.9854736328125 75.47511291503906 C 50.23996353149414 77.4822998046875 45.1981201171875 78.50002288818359 39.99999618530273 78.50002288818359 Z" stroke="none"/>
                      <path d="M 39.99999618530273 3 C 35.00370407104492 3 30.15846252441406 3.977851867675781 25.59885025024414 5.906410217285156 C 21.19327545166016 7.769813537597656 17.23603439331055 10.43806457519531 13.83705139160156 13.83705139160156 C 10.43806457519531 17.23603820800781 7.769805908203125 21.19327926635742 5.906410217285156 25.59885025024414 C 3.977851867675781 30.15846633911133 2.999992370605469 35.00371932983398 2.999992370605469 40.0000114440918 C 2.999992370605469 44.99630355834961 3.977851867675781 49.84154510498047 5.906410217285156 54.40115737915039 C 7.769805908203125 58.80674743652344 10.43806457519531 62.76398468017578 13.83705139160156 66.16297149658203 C 17.23603439331055 69.56195831298828 21.19327545166016 72.23020935058594 25.59885025024414 74.09361267089844 C 30.15846252441406 76.02217102050781 35.00370407104492 77.00002288818359 39.99999618530273 77.00002288818359 C 44.99628829956055 77.00002288818359 49.84152984619141 76.02217102050781 54.40114212036133 74.09361267089844 C 58.80671691894531 72.23020935058594 62.76395416259766 69.56195831298828 66.16294097900391 66.16297149658203 C 69.56192779541016 62.76398468017578 72.23017883300781 58.80674743652344 74.09358215332031 54.40115737915039 C 76.02214050292969 49.84154510498047 77 44.99630355834961 77 40.0000114440918 C 77 35.00371932983398 76.02214050292969 30.15846633911133 74.09358215332031 25.59885025024414 C 72.23017883300781 21.19327926635742 69.56192779541016 17.23603820800781 66.16294097900391 13.83705139160156 C 62.76395416259766 10.43806457519531 58.80671691894531 7.769813537597656 54.40114212036133 5.906410217285156 C 49.84152984619141 3.977851867675781 44.99628829956055 3 39.99999618530273 3 M 39.99999618530273 0 C 62.09138488769531 0 80 17.90861129760742 80 40.0000114440918 C 80 62.09140014648438 62.09138488769531 80.00002288818359 39.99999618530273 80.00002288818359 C 17.90861129760742 80.00002288818359 -7.62939453125e-06 62.09140014648438 -7.62939453125e-06 40.0000114440918 C -7.62939453125e-06 17.90861129760742 17.90861129760742 0 39.99999618530273 0 Z" stroke="none" fill="#887013"/>
                    </g>
                  </g>
                </g>
              </g>
            </g>
          </g>
        </g>
      </g>
    </g>
    <g id="overtime_7057264" transform="translate(637 12487.783)">
      <path id="Trazado_1050467" data-name="Trazado 1050467" d="M39.088,51.339,28,47.874V44.916a12.073,12.073,0,0,1-10,0v2.958L6.912,51.339A7,7,0,0,0,2,58.02V62H44V58.02a7,7,0,0,0-4.912-6.681Z" fill="#fbe3bc"/>
      <path id="Trazado_1050468" data-name="Trazado 1050468" d="M2,58.02V62H44V58.02a7,7,0,0,0-4.912-6.681L28,47.874l-5,5-5-5L6.912,51.339A7,7,0,0,0,2,58.02Z" fill="#a1cdf9"/>
      <path id="Trazado_1050469" data-name="Trazado 1050469" d="M39.088,51.339,28,47.874l-5,5-4.286-4.286-8.8,2.751A7,7,0,0,0,5,58.02V62H44V58.02a7,7,0,0,0-4.912-6.681Z" fill="#c7e2fb"/>
      <path id="Trazado_1050470" data-name="Trazado 1050470" d="M25,57.874H21L20,62h6Z" fill="#698ec0"/>
      <path id="Trazado_1050471" data-name="Trazado 1050471" d="M19,55.874l4-3-5-5-3.854,1.2Z" fill="#698ec0"/>
      <path id="Trazado_1050472" data-name="Trazado 1050472" d="M31.854,49.078,28,47.874l-5,5,4,3Z" fill="#698ec0"/>
      <path id="Trazado_1050473" data-name="Trazado 1050473" d="M23,52.874h0l-2.932,2.2.933,2.8h4l.933-2.8Z" fill="#4472b0"/>
      <g id="Grupo_1210392" data-name="Grupo 1210392">
        <path id="Trazado_1050474" data-name="Trazado 1050474" d="M34.038,24l.883,8.8A11.791,11.791,0,0,1,23,46,11.791,11.791,0,0,1,11.079,32.8l.883-8.8,6.021,4,1-4L25,28l2.007-4,5.017,4Z" fill="#fbe3bc"/>
        <path id="Trazado_1050475" data-name="Trazado 1050475" d="M11.079,32.8,11.36,30H10a3,3,0,0,0,0,6h1.138a12.483,12.483,0,0,1-.059-3.2Z" fill="#fbe3bc"/>
        <path id="Trazado_1050476" data-name="Trazado 1050476" d="M36,30H34.64l.281,2.8a12.483,12.483,0,0,1-.059,3.2H36a3,3,0,0,0,0-6Z" fill="#fbe3bc"/>
      </g>
      <path id="Trazado_1050477" data-name="Trazado 1050477" d="M37.245,30.278l.693-6.73a12.112,12.112,0,0,0-1.265-6.737A12.6,12.6,0,0,0,25.432,10H20.568A12.6,12.6,0,0,0,9.327,16.811a12.112,12.112,0,0,0-1.265,6.737l.62,6.769A2.982,2.982,0,0,1,10,30h1.36l.6-6,6.021,4,1-4L25,28l2.007-4,5.017,4,2.007-4,.6,6H36a2.963,2.963,0,0,1,1.245.278Z" fill="#88929f"/>
      <circle id="Elipse_11573" data-name="Elipse 11573" cx="2" cy="2" r="2" transform="translate(21 38)" fill="#f5cd90"/>
      <path id="Trazado_1050480" data-name="Trazado 1050480" d="M21,32H19a1,1,0,0,1-2,0H15a3,3,0,0,0,6,0Z"/>
      <path id="Trazado_1050481" data-name="Trazado 1050481" d="M28,35a3,3,0,0,0,3-3H29a1,1,0,0,1-2,0H25a3,3,0,0,0,3,3Z"/>
      <path id="Trazado_1050482" data-name="Trazado 1050482" d="M26,40a3,3,0,1,0-3,3A3,3,0,0,0,26,40Zm-4,0a1,1,0,1,1,1,1A1,1,0,0,1,22,40Z"/>
      <path id="Trazado_1050483" data-name="Trazado 1050483" d="M39.386,50.511,29,47.265V45.52A13.012,13.012,0,0,0,35.68,37H36a3.992,3.992,0,0,0,2.31-7.254l.622-6.1a13.1,13.1,0,0,0-1.368-7.292,13.4,13.4,0,0,0-3.5-4.327A2.208,2.208,0,0,0,35,10.236.236.236,0,0,1,35.236,10H37V8H35.236A2.238,2.238,0,0,0,33,10.236a.235.235,0,0,1-.13.211l-.659.329A13.739,13.739,0,0,0,25.433,9H21V8.414a3.414,3.414,0,0,0,0-4.828l-.293-.293L19.293,4.707,19.585,5a1.414,1.414,0,0,1,0,2A2.011,2.011,0,0,0,19,8.414V9.1a13.5,13.5,0,0,0-9.508,5.533l-.361-.18A.236.236,0,0,1,9,14.236,2.238,2.238,0,0,0,6.764,12H5v2H6.764A.236.236,0,0,1,7,14.236a2.224,2.224,0,0,0,1.236,2l.209.1-.009.016a13.1,13.1,0,0,0-1.368,7.292l.622,6.1A3.992,3.992,0,0,0,10,37h.32A13.012,13.012,0,0,0,17,45.52v1.745L6.614,50.511A7.964,7.964,0,0,0,1,58.146V62a1,1,0,0,0,1,1H44a1,1,0,0,0,1-1V58.146a7.964,7.964,0,0,0-5.614-7.635Zm-9.148-.764-3.457,4.839-2.259-1.694,3.757-3.757ZM21.781,59h2.438l.5,2H21.28Zm2.5-2h-2.56l-.478-1.433L23,54.25l1.757,1.317ZM36,35h-.026a14.722,14.722,0,0,0-.057-2.3L35.746,31H36a2,2,0,0,1,0,4ZM8,33a2,2,0,0,1,2-2h.254l-.171,1.7a14.722,14.722,0,0,0-.057,2.3H10A2,2,0,0,1,8,33Zm2.967-9.1L10.455,29H10c-.128,0-.248.026-.372.038l-.571-5.592a11.1,11.1,0,0,1,1.16-6.18A11.532,11.532,0,0,1,20.567,11h4.866a11.529,11.529,0,0,1,10.349,6.266,11.093,11.093,0,0,1,1.161,6.18l-.571,5.592C36.248,29.026,36.128,29,36,29h-.455l-.512-5.1a1,1,0,0,0-1.889-.348l-1.454,2.9-4.053-3.231a1,1,0,0,0-1.517.334l-1.5,2.99L19.54,23.17a1,1,0,0,0-1.523.59l-.66,2.627L12.515,23.17a1,1,0,0,0-1.548.733Zm1.216,12.317a10.924,10.924,0,0,1-.109-3.314l.717-7.151,4.639,3.081a1,1,0,0,0,1.523-.59l.659-2.627,4.842,3.217a1,1,0,0,0,1.447-.385l1.453-2.9,4.054,3.231a1,1,0,0,0,1.517-.334l.462-.921.539,5.376a10.924,10.924,0,0,1-.109,3.314,11.053,11.053,0,0,1-21.634,0ZM23,47a12.962,12.962,0,0,0,4-.643v1.229l-4,4-4-4V46.357A12.962,12.962,0,0,0,23,47Zm-5.279,2.135,3.757,3.757-2.259,1.694-3.457-4.839ZM3,58.146a5.975,5.975,0,0,1,4.21-5.727l6.543-2.044,4.433,6.206a1,1,0,0,0,.661.407A.986.986,0,0,0,19,57a1,1,0,0,0,.554-.176l.405,1.216L19.219,61H10V57H8v4H3ZM43,61H38V57H36v4H26.78l-.739-2.96.405-1.216A1,1,0,0,0,27,57a.986.986,0,0,0,.153-.012,1,1,0,0,0,.661-.407l4.433-6.206,6.543,2.044A5.975,5.975,0,0,1,43,58.146Z"/>
    </g>
  </g>
</svg>
