<svg xmlns="http://www.w3.org/2000/svg" xmlns:xlink="http://www.w3.org/1999/xlink" width="98" height="98" viewBox="0 0 98 98">
  <defs>
    <filter id="Trazado_904820" x="0" y="0" width="98" height="98" filterUnits="userSpaceOnUse">
      <feOffset dy="3" input="SourceAlpha"/>
      <feGaussianBlur stdDeviation="3" result="blur"/>
      <feFlood flood-opacity="0.161"/>
      <feComposite operator="in" in2="blur"/>
      <feComposite in="SourceGraphic"/>
    </filter>
    <clipPath id="clip-path">
      <path id="path537" d="M0-682.665H53.263V-629.4H0Z" transform="translate(0 682.665)"/>
    </clipPath>
  </defs>
  <g id="Grupo_1210394" data-name="Grupo 1210394" transform="translate(-1031 -12478.241)">
    <g id="Grupo_1210131" data-name="Grupo 1210131" transform="translate(0 4736.458)">
      <g id="Grupo_1209196" data-name="Grupo 1209196" transform="translate(1040 7747.783)">
        <g id="Grupo_1202705" data-name="Grupo 1202705" transform="translate(0 0)">
          <g id="Grupo_1173585" data-name="Grupo 1173585" transform="translate(0 0)">
            <g id="Grupo_1173428" data-name="Grupo 1173428">
              <g id="Grupo_1171958" data-name="Grupo 1171958">
                <g id="Grupo_1167341" data-name="Grupo 1167341">
                  <g id="Grupo_1166792" data-name="Grupo 1166792">
                    <g transform="matrix(1, 0, 0, 1, -9, -6)" filter="url(#Trazado_904820)">
                      <g id="Trazado_904820-2" data-name="Trazado 904820" transform="translate(9 6)" fill="#fef9e7">
                        <path d="M 39.99999618530273 78.50002288818359 C 34.80187225341797 78.50002288818359 29.76002883911133 77.4822998046875 25.01451873779297 75.47511291503906 C 20.43014144897461 73.53608703613281 16.31264114379883 70.7598876953125 12.77638530731201 67.22362518310547 C 9.240129470825195 63.6873664855957 6.463929653167725 59.56986618041992 4.524896144866943 54.98548889160156 C 2.517718315124512 50.2399787902832 1.499996185302734 45.19814300537109 1.499996185302734 40.0000114440918 C 1.499996185302734 34.8018798828125 2.517718315124512 29.76003456115723 4.524896144866943 25.01453399658203 C 6.463929653167725 20.43015670776367 9.240129470825195 16.31264495849609 12.77638530731201 12.77638912200928 C 16.31264114379883 9.240133285522461 20.43014144897461 6.46393346786499 25.01451873779297 4.524900436401367 C 29.76002883911133 2.517722606658936 34.80186462402344 1.500000357627869 39.99999618530273 1.500000357627869 C 45.19812774658203 1.500000357627869 50.23996353149414 2.517722606658936 54.9854736328125 4.524900436401367 C 59.56985092163086 6.46393346786499 63.68735122680664 9.240133285522461 67.22360992431641 12.77638912200928 C 70.75986480712891 16.31264495849609 73.53606414794922 20.43015670776367 75.47509765625 25.01453399658203 C 77.48227691650391 29.76003456115723 78.5 34.8018798828125 78.5 40.0000114440918 C 78.5 45.19814300537109 77.48227691650391 50.2399787902832 75.47509765625 54.98548889160156 C 73.53606414794922 59.56986618041992 70.75986480712891 63.6873664855957 67.22360992431641 67.22362518310547 C 63.68735122680664 70.7598876953125 59.56985092163086 73.53608703613281 54.9854736328125 75.47511291503906 C 50.23996353149414 77.4822998046875 45.1981201171875 78.50002288818359 39.99999618530273 78.50002288818359 Z" stroke="none"/>
                        <path d="M 39.99999618530273 3 C 35.00370407104492 3 30.15846252441406 3.977851867675781 25.59885025024414 5.906410217285156 C 21.19327545166016 7.769813537597656 17.23603439331055 10.43806457519531 13.83705139160156 13.83705139160156 C 10.43806457519531 17.23603820800781 7.769805908203125 21.19327926635742 5.906410217285156 25.59885025024414 C 3.977851867675781 30.15846633911133 2.999992370605469 35.00371932983398 2.999992370605469 40.0000114440918 C 2.999992370605469 44.99630355834961 3.977851867675781 49.84154510498047 5.906410217285156 54.40115737915039 C 7.769805908203125 58.80674743652344 10.43806457519531 62.76398468017578 13.83705139160156 66.16297149658203 C 17.23603439331055 69.56195831298828 21.19327545166016 72.23020935058594 25.59885025024414 74.09361267089844 C 30.15846252441406 76.02217102050781 35.00370407104492 77.00002288818359 39.99999618530273 77.00002288818359 C 44.99628829956055 77.00002288818359 49.84152984619141 76.02217102050781 54.40114212036133 74.09361267089844 C 58.80671691894531 72.23020935058594 62.76395416259766 69.56195831298828 66.16294097900391 66.16297149658203 C 69.56192779541016 62.76398468017578 72.23017883300781 58.80674743652344 74.09358215332031 54.40115737915039 C 76.02214050292969 49.84154510498047 77 44.99630355834961 77 40.0000114440918 C 77 35.00371932983398 76.02214050292969 30.15846633911133 74.09358215332031 25.59885025024414 C 72.23017883300781 21.19327926635742 69.56192779541016 17.23603820800781 66.16294097900391 13.83705139160156 C 62.76395416259766 10.43806457519531 58.80671691894531 7.769813537597656 54.40114212036133 5.906410217285156 C 49.84152984619141 3.977851867675781 44.99628829956055 3 39.99999618530273 3 M 39.99999618530273 0 C 62.09138488769531 0 80 17.90861129760742 80 40.0000114440918 C 80 62.09140014648438 62.09138488769531 80.00002288818359 39.99999618530273 80.00002288818359 C 17.90861129760742 80.00002288818359 -7.62939453125e-06 62.09140014648438 -7.62939453125e-06 40.0000114440918 C -7.62939453125e-06 17.90861129760742 17.90861129760742 0 39.99999618530273 0 Z" stroke="none" fill="#887013"/>
                      </g>
                    </g>
                  </g>
                </g>
              </g>
            </g>
          </g>
        </g>
      </g>
    </g>
    <g id="g531" transform="translate(1053.369 13179.274)">
      <g id="g533" transform="translate(0 -682.665)">
        <g id="g535" clip-path="url(#clip-path)">
          <g id="g541" transform="translate(7.296 36.999)">
            <path id="path543" d="M-456.98-182.97v-5.672a9.812,9.812,0,0,0-9.812-9.812H-485.84a9.812,9.812,0,0,0-9.812,9.812v5.672Z" transform="translate(495.652 198.454)" fill="#f5fcff"/>
          </g>
          <g id="g545" transform="translate(24.323 40.462)">
            <path id="path547" d="M-42.147-66.5l1.051-3.244L-43.4-72.129l-2.309,2.383,1.051,3.244Z" transform="translate(45.713 72.129)" fill="#dc4955"/>
          </g>
          <g id="g549" transform="translate(23.986 46.09)">
            <path id="path551" d="M-62.516-75.545-63.9-81.938h-2.516l-1.387,6.393Z" transform="translate(67.806 81.938)" fill="#df646e"/>
          </g>
          <g id="g553" transform="translate(36.381 37.005)">
            <path id="path555" d="M0,0A9.805,9.805,0,0,1,4.68,8.364v7.115H9.586V9.806A9.81,9.81,0,0,0,0,0" fill="#e6f7fe"/>
          </g>
          <g id="g557" transform="translate(18.159 36.999)">
            <path id="path559" d="M-200.245,0l-4,8.081-4.473-4.618-4.473,4.618-4-8.081Z" transform="translate(217.19)" fill="#b2e5fb"/>
          </g>
          <g id="g561" transform="translate(23.168 32.67)">
            <path id="path563" d="M-40.923-92.077h0a3.463,3.463,0,0,1-3.463-3.463v-4.329h6.926v4.329a3.463,3.463,0,0,1-3.463,3.463" transform="translate(44.387 99.869)" fill="#ea9b58"/>
          </g>
          <g id="g565" transform="translate(17.396 6.803)">
            <path id="path567" d="M-109.13-314.192h0a9.235,9.235,0,0,1-9.235-9.235v-8.118a9.235,9.235,0,0,1,9.235-9.235,9.235,9.235,0,0,1,9.235,9.235v8.118a9.235,9.235,0,0,1-9.235,9.235" transform="translate(118.365 340.781)" fill="#fed2a4"/>
          </g>
          <g id="g569" transform="translate(24.898 8.829)">
            <path id="path571" d="M-88.689,0V15.327a9.236,9.236,0,0,1-7.5,9.07h0a9.293,9.293,0,0,0,1.733.163,9.235,9.235,0,0,0,9.235-9.235V7.209A9.217,9.217,0,0,0-88.689,0" transform="translate(96.194)" fill="#ffbd86"/>
          </g>
          <g id="g573" transform="translate(35.866 17.23)">
            <path id="path575" d="M-17.386-74.508h-1.471v-6.305h1.471a2.1,2.1,0,0,1,2.1,2.1v2.1a2.1,2.1,0,0,1-2.1,2.1" transform="translate(18.857 80.813)" fill="#ea9b58"/>
          </g>
          <g id="g577" transform="translate(13.823 17.23)">
            <path id="path579" d="M-24.836-74.508h1.471v-6.305h-1.471a2.1,2.1,0,0,0-2.1,2.1v2.1a2.1,2.1,0,0,0,2.1,2.1" transform="translate(26.937 80.813)" fill="#ea9b58"/>
          </g>
          <g id="g581" transform="translate(17.384 0.78)">
            <path id="path583" d="M-190.88-50.555a2.538,2.538,0,0,0,.03-.39,2.522,2.522,0,0,0-2.522-2.522,2.525,2.525,0,0,0-.6.072,5.756,5.756,0,0,0-3.813-1.439,5.781,5.781,0,0,0-5.5,3.994,3.783,3.783,0,0,0-3.75,3.782,3.783,3.783,0,0,0,3.783,3.783h10.929a3.783,3.783,0,0,0,3.783-3.783,3.784,3.784,0,0,0-2.342-3.5" transform="translate(207.033 54.833)" fill="#9d9d9d"/>
          </g>
          <g id="g585" transform="translate(23.843 2.146)">
            <path id="path587" d="M-114.55-34.411a2.537,2.537,0,0,0,.03-.39,2.522,2.522,0,0,0-2.522-2.522,2.517,2.517,0,0,0-.352.026,9.421,9.421,0,0,1-3.007,7.65,10.92,10.92,0,0,1-3.843,2.518h8.253a3.783,3.783,0,0,0,3.783-3.783,3.784,3.784,0,0,0-2.342-3.5" transform="translate(124.244 37.323)" fill="#838383"/>
          </g>
          <g id="g589" transform="translate(23.689 6.56)">
            <path id="path591" d="M-74.508-39.737h-1.681l1.156-3.363h-5.78l.42,6.725h1.471l1.051,3.363Z" transform="translate(80.813 43.1)" fill="#ffc250"/>
          </g>
          <g id="g593" transform="translate(27.889 46.089)">
            <path id="path595" d="M-16.392-75.55l-1.387-6.393" transform="translate(17.779 81.944)" fill="none" stroke="#000" stroke-linecap="round" stroke-linejoin="round" stroke-miterlimit="10" stroke-width="1.5"/>
          </g>
          <g id="g597" transform="translate(23.986 46.089)">
            <path id="path599" d="M-16.392,0l-1.387,6.393" transform="translate(17.779)" fill="none" stroke="#000" stroke-linecap="round" stroke-linejoin="round" stroke-miterlimit="10" stroke-width="1.5"/>
          </g>
          <g id="g601" transform="translate(18.159 36.999)">
            <path id="path603" d="M-200.245,0l-4,8.081-4.473-4.618-4.473,4.618-4-8.081" transform="translate(217.19)" fill="none" stroke="#000" stroke-linecap="round" stroke-linejoin="round" stroke-miterlimit="10" stroke-width="1.5"/>
          </g>
          <g id="g605" transform="translate(7.296 36.999)">
            <path id="path607" d="M0-121.713v-.488a9.812,9.812,0,0,1,9.812-9.812h6.061" transform="translate(0 132.013)" fill="none" stroke="#000" stroke-linecap="round" stroke-linejoin="round" stroke-miterlimit="10" stroke-width="1.5"/>
          </g>
          <g id="g609" transform="translate(7.296 41.428)">
            <path id="path611" d="M-437.975,0a9.757,9.757,0,0,1,1.608,5.382v5.672h-38.672V9.511" transform="translate(475.039)" fill="none" stroke="#000" stroke-linecap="round" stroke-linejoin="round" stroke-miterlimit="10" stroke-width="1.5"/>
          </g>
          <g id="g613" transform="translate(30.094 36.999)">
            <path id="path615" d="M0,0H6.061a9.764,9.764,0,0,1,5.69,1.817" fill="none" stroke="#000" stroke-linecap="round" stroke-linejoin="round" stroke-miterlimit="10" stroke-width="1.5"/>
          </g>
          <g id="g617" transform="translate(23.168 32.824)">
            <path id="path619" d="M-81.847,0V4.175A3.464,3.464,0,0,1-85.31,7.638a3.464,3.464,0,0,1-3.463-3.463V0" transform="translate(88.773)" fill="none" stroke="#000" stroke-linecap="round" stroke-linejoin="round" stroke-miterlimit="10" stroke-width="1.5"/>
          </g>
          <g id="g621" transform="translate(35.866 17.23)">
            <path id="path623" d="M0,0H1.471a2.1,2.1,0,0,1,2.1,2.1V4.2a2.1,2.1,0,0,1-2.1,2.1H0" fill="none" stroke="#000" stroke-linecap="round" stroke-linejoin="round" stroke-miterlimit="10" stroke-width="1.5"/>
          </g>
          <g id="g625" transform="translate(39.041 47.677)">
            <path id="path627" d="M0-56.789v-3.94l.866-.866" transform="translate(0 61.595)" fill="none" stroke="#000" stroke-linecap="round" stroke-linejoin="round" stroke-miterlimit="10" stroke-width="1.5"/>
          </g>
          <g id="g629" transform="translate(13.356 47.677)">
            <path id="path631" d="M-10.231-56.789v-3.94l-.866-.866" transform="translate(11.097 61.595)" fill="none" stroke="#000" stroke-linecap="round" stroke-linejoin="round" stroke-miterlimit="10" stroke-width="1.5"/>
          </g>
          <g id="g633" transform="translate(24.323 42.845)">
            <path id="path635" d="M0,0,1.051,3.244H3.567L4.618,0" fill="none" stroke="#000" stroke-linecap="round" stroke-linejoin="round" stroke-miterlimit="10" stroke-width="1.5"/>
          </g>
          <g id="g637" transform="translate(17.397 11.384)">
            <path id="path639" d="M-7.081-189.681a9.215,9.215,0,0,1-.6-3.279v-8.118a9.185,9.185,0,0,1,1.258-4.654" transform="translate(7.68 205.733)" fill="none" stroke="#000" stroke-linecap="round" stroke-linejoin="round" stroke-miterlimit="10" stroke-width="1.5"/>
          </g>
          <g id="g641" transform="translate(19.923 11.384)">
            <path id="path643" d="M-173.54,0a9.185,9.185,0,0,1,1.258,4.654v8.118a9.234,9.234,0,0,1-9.235,9.235,9.21,9.21,0,0,1-6.709-2.888" transform="translate(188.226)" fill="none" stroke="#000" stroke-linecap="round" stroke-linejoin="round" stroke-miterlimit="10" stroke-width="1.5"/>
          </g>
          <g id="g645" transform="translate(13.823 17.23)">
            <path id="path647" d="M-42.222,0h-1.471a2.1,2.1,0,0,0-2.1,2.1V4.2a2.1,2.1,0,0,0,2.1,2.1h1.471" transform="translate(45.795)" fill="none" stroke="#000" stroke-linecap="round" stroke-linejoin="round" stroke-miterlimit="10" stroke-width="1.5"/>
          </g>
          <g id="g649" transform="translate(17.384 0.78)">
            <path id="path651" d="M-134.731-136.6h3.31a3.783,3.783,0,0,0,3.783-3.784,3.784,3.784,0,0,0-2.342-3.5,2.529,2.529,0,0,0,.03-.389,2.522,2.522,0,0,0-2.522-2.523,2.536,2.536,0,0,0-.6.073,5.759,5.759,0,0,0-3.814-1.439,5.78,5.78,0,0,0-5.5,3.994,3.783,3.783,0,0,0-3.75,3.782,3.783,3.783,0,0,0,3.782,3.784h2.884" transform="translate(146.133 148.16)" fill="none" stroke="#000" stroke-linecap="round" stroke-linejoin="round" stroke-miterlimit="10" stroke-width="1.5"/>
          </g>
          <g id="g653" transform="translate(23.689 6.56)">
            <path id="path655" d="M-74.508-39.737h-1.681l1.156-3.363h-5.78l.42,6.725h1.471l1.051,3.363Z" transform="translate(80.813 43.1)" fill="none" stroke="#000" stroke-linecap="round" stroke-linejoin="round" stroke-miterlimit="10" stroke-width="1.5"/>
          </g>
          <g id="g657" transform="translate(39.242 8.136)">
            <path id="path659" d="M0,0C.63,0,.63.841,1.261.841S1.891,0,2.522,0s.63.841,1.261.841S4.413,0,5.044,0s.631.841,1.261.841" fill="none" stroke="#000" stroke-linecap="round" stroke-linejoin="round" stroke-miterlimit="10" stroke-width="1.5"/>
          </g>
          <g id="g661" transform="translate(37.88 2.122)">
            <path id="path663" d="M0-30.759c.546-.315.966.413,1.512.1s.126-1.043.672-1.359.966.413,1.512.1.126-1.043.672-1.359.967.413,1.513.1" transform="translate(0 33.362)" fill="none" stroke="#000" stroke-linecap="round" stroke-linejoin="round" stroke-miterlimit="10" stroke-width="1.5"/>
          </g>
          <g id="g665" transform="translate(38.3 11.66)">
            <path id="path667" d="M0,0C.546.315.125,1.043.671,1.358s.966-.413,1.512-.1.125,1.043.671,1.358.967-.413,1.513-.1.126,1.043.672,1.359" fill="none" stroke="#000" stroke-linecap="round" stroke-linejoin="round" stroke-miterlimit="10" stroke-width="1.5"/>
          </g>
          <g id="g669" transform="translate(7.716 8.136)">
            <path id="path671" d="M-74.507-9.934c-.63,0-.63-.841-1.261-.841s-.631.841-1.261.841-.63-.841-1.261-.841-.631.841-1.261.841-.631-.841-1.261-.841" transform="translate(80.812 10.775)" fill="none" stroke="#000" stroke-linecap="round" stroke-linejoin="round" stroke-miterlimit="10" stroke-width="1.5"/>
          </g>
          <g id="g673" transform="translate(9.923 1.572)">
            <path id="path675" d="M-59.558-45.858c-.546-.315-.126-1.043-.671-1.358s-.966.413-1.512.1-.125-1.043-.671-1.358-.967.413-1.513.1-.126-1.043-.672-1.359" transform="translate(64.599 49.739)" fill="none" stroke="#000" stroke-linecap="round" stroke-linejoin="round" stroke-miterlimit="10" stroke-width="1.5"/>
          </g>
          <g id="g677" transform="translate(9.502 12.21)">
            <path id="path679" d="M-69.492-2.113c-.546.315-.966-.413-1.512-.1s-.126,1.043-.672,1.359-.966-.413-1.512-.1S-73.314.094-73.86.409s-.967-.413-1.513-.1" transform="translate(75.373 2.291)" fill="none" stroke="#000" stroke-linecap="round" stroke-linejoin="round" stroke-miterlimit="10" stroke-width="1.5"/>
          </g>
        </g>
      </g>
    </g>
  </g>
</svg>
