<svg xmlns="http://www.w3.org/2000/svg" xmlns:xlink="http://www.w3.org/1999/xlink" width="98" height="98" viewBox="0 0 98 98">
  <defs>
    <filter id="Trazado_904820" x="0" y="0" width="98" height="98" filterUnits="userSpaceOnUse">
      <feOffset dy="3" input="SourceAlpha"/>
      <feGaussianBlur stdDeviation="3" result="blur"/>
      <feFlood flood-opacity="0.161"/>
      <feComposite operator="in" in2="blur"/>
      <feComposite in="SourceGraphic"/>
    </filter>
  </defs>
  <g id="Grupo_1210396" data-name="Grupo 1210396" transform="translate(-191 -12627.15)">
    <g id="Grupo_1210133" data-name="Grupo 1210133" transform="translate(0 4885.367)">
      <g id="Grupo_1209198" data-name="Grupo 1209198" transform="translate(200 7747.783)">
        <g id="Grupo_1202705" data-name="Grupo 1202705" transform="translate(0 0)">
          <g id="Grupo_1173585" data-name="Grupo 1173585" transform="translate(0 0)">
            <g id="Grupo_1173428" data-name="Grupo 1173428">
              <g id="Grupo_1171958" data-name="Grupo 1171958">
                <g id="Grupo_1167341" data-name="Grupo 1167341">
                  <g id="Grupo_1166792" data-name="Grupo 1166792">
                    <g transform="matrix(1, 0, 0, 1, -9, -6)" filter="url(#Trazado_904820)">
                      <g id="Trazado_904820-2" data-name="Trazado 904820" transform="translate(9 6)" fill="#fef9e7">
                        <path d="M 39.99999618530273 78.50002288818359 C 34.80187225341797 78.50002288818359 29.76002883911133 77.4822998046875 25.01451873779297 75.47511291503906 C 20.43014144897461 73.53608703613281 16.31264114379883 70.7598876953125 12.77638530731201 67.22362518310547 C 9.240129470825195 63.6873664855957 6.463929653167725 59.56986618041992 4.524896144866943 54.98548889160156 C 2.517718315124512 50.2399787902832 1.499996185302734 45.19814300537109 1.499996185302734 40.0000114440918 C 1.499996185302734 34.8018798828125 2.517718315124512 29.76003456115723 4.524896144866943 25.01453399658203 C 6.463929653167725 20.43015670776367 9.240129470825195 16.31264495849609 12.77638530731201 12.77638912200928 C 16.31264114379883 9.240133285522461 20.43014144897461 6.46393346786499 25.01451873779297 4.524900436401367 C 29.76002883911133 2.517722606658936 34.80186462402344 1.500000357627869 39.99999618530273 1.500000357627869 C 45.19812774658203 1.500000357627869 50.23996353149414 2.517722606658936 54.9854736328125 4.524900436401367 C 59.56985092163086 6.46393346786499 63.68735122680664 9.240133285522461 67.22360992431641 12.77638912200928 C 70.75986480712891 16.31264495849609 73.53606414794922 20.43015670776367 75.47509765625 25.01453399658203 C 77.48227691650391 29.76003456115723 78.5 34.8018798828125 78.5 40.0000114440918 C 78.5 45.19814300537109 77.48227691650391 50.2399787902832 75.47509765625 54.98548889160156 C 73.53606414794922 59.56986618041992 70.75986480712891 63.6873664855957 67.22360992431641 67.22362518310547 C 63.68735122680664 70.7598876953125 59.56985092163086 73.53608703613281 54.9854736328125 75.47511291503906 C 50.23996353149414 77.4822998046875 45.1981201171875 78.50002288818359 39.99999618530273 78.50002288818359 Z" stroke="none"/>
                        <path d="M 39.99999618530273 3 C 35.00370407104492 3 30.15846252441406 3.977851867675781 25.59885025024414 5.906410217285156 C 21.19327545166016 7.769813537597656 17.23603439331055 10.43806457519531 13.83705139160156 13.83705139160156 C 10.43806457519531 17.23603820800781 7.769805908203125 21.19327926635742 5.906410217285156 25.59885025024414 C 3.977851867675781 30.15846633911133 2.999992370605469 35.00371932983398 2.999992370605469 40.0000114440918 C 2.999992370605469 44.99630355834961 3.977851867675781 49.84154510498047 5.906410217285156 54.40115737915039 C 7.769805908203125 58.80674743652344 10.43806457519531 62.76398468017578 13.83705139160156 66.16297149658203 C 17.23603439331055 69.56195831298828 21.19327545166016 72.23020935058594 25.59885025024414 74.09361267089844 C 30.15846252441406 76.02217102050781 35.00370407104492 77.00002288818359 39.99999618530273 77.00002288818359 C 44.99628829956055 77.00002288818359 49.84152984619141 76.02217102050781 54.40114212036133 74.09361267089844 C 58.80671691894531 72.23020935058594 62.76395416259766 69.56195831298828 66.16294097900391 66.16297149658203 C 69.56192779541016 62.76398468017578 72.23017883300781 58.80674743652344 74.09358215332031 54.40115737915039 C 76.02214050292969 49.84154510498047 77 44.99630355834961 77 40.0000114440918 C 77 35.00371932983398 76.02214050292969 30.15846633911133 74.09358215332031 25.59885025024414 C 72.23017883300781 21.19327926635742 69.56192779541016 17.23603820800781 66.16294097900391 13.83705139160156 C 62.76395416259766 10.43806457519531 58.80671691894531 7.769813537597656 54.40114212036133 5.906410217285156 C 49.84152984619141 3.977851867675781 44.99628829956055 3 39.99999618530273 3 M 39.99999618530273 0 C 62.09138488769531 0 80 17.90861129760742 80 40.0000114440918 C 80 62.09140014648438 62.09138488769531 80.00002288818359 39.99999618530273 80.00002288818359 C 17.90861129760742 80.00002288818359 -7.62939453125e-06 62.09140014648438 -7.62939453125e-06 40.0000114440918 C -7.62939453125e-06 17.90861129760742 17.90861129760742 0 39.99999618530273 0 Z" stroke="none" fill="#887013"/>
                      </g>
                    </g>
                  </g>
                </g>
              </g>
            </g>
          </g>
        </g>
      </g>
    </g>
    <g id="depression_2598829" transform="translate(165.333 12644.229)">
      <path id="Trazado_1050484" data-name="Trazado 1050484" d="M391,233.669h-.484l.732-9.939h2.63a3.348,3.348,0,0,1,3.348,3.348v.366A6.225,6.225,0,0,1,391,233.669Z" transform="translate(-301.175 -199.329)" fill="#f9a58e"/>
      <path id="Trazado_1050485" data-name="Trazado 1050485" d="M66.194,233.669h.484l-.732-9.939h-2.63a3.348,3.348,0,0,0-3.348,3.348v.366A6.225,6.225,0,0,0,66.194,233.669Z" transform="translate(-6.682 -199.329)" fill="#eaac9d"/>
      <path id="Trazado_1050486" data-name="Trazado 1050486" d="M150.152,424.494v-2.849a15.782,15.782,0,0,1-7.969,3.005,15.781,15.781,0,0,1-7.969-3.005v2.849a4.128,4.128,0,0,1-2.342,3.722l-3.368,1.616a.447.447,0,0,0,.193.849h26.971a.447.447,0,0,0,.193-.849l-3.368-1.616A4.128,4.128,0,0,1,150.152,424.494Z" transform="translate(-67.516 -375.659)" fill="#ffcbbe"/>
      <path id="Trazado_1050487" data-name="Trazado 1050487" d="M143.777,61.3a15.647,15.647,0,1,0-31.21,0l1.064,14.447c.561,7.616,9.951,12.895,14.541,12.895s13.98-5.278,14.541-12.895Z" transform="translate(-53.505 -39.652)" fill="#ffcbbe"/>
      <path id="Trazado_1050488" data-name="Trazado 1050488" d="M197.666,51.146a15.629,15.629,0,0,1,6.519,13.891l-1.064,14.447c-.561,7.616-9.951,12.895-14.541,12.895a10.694,10.694,0,0,1-3.356-.656,15.563,15.563,0,0,0,7.719,2.837c4.59,0,13.98-5.278,14.541-12.895l1.064-14.447A15.655,15.655,0,0,0,197.666,51.146Z" transform="translate(-118.276 -45.568)" fill="#eaac9d"/>
      <path id="Trazado_1050489" data-name="Trazado 1050489" d="M277.867,144.911a12.178,12.178,0,0,0-1.092-4.3,3.987,3.987,0,0,1-2.2.663h-4.442l-3.445,5.412h9.525A1.663,1.663,0,0,0,277.867,144.911Z" transform="translate(-190.851 -125.273)" fill="#756e78"/>
      <path id="Trazado_1050490" data-name="Trazado 1050490" d="M222.779,112.227a.283.283,0,0,0-.239-.435h-3.335a.075.075,0,0,1-.071-.1l1.038-2.905h-5.005l-2.108,5.9a.283.283,0,0,0,.267.378h3.154a.283.283,0,0,1,.267.378l-1.031,2.887h3.177Z" transform="translate(-143.061 -96.921)" fill="#f6e781"/>
      <path id="Trazado_1050491" data-name="Trazado 1050491" d="M244.376,136.346h-3.054l-2.081,3.268a2.352,2.352,0,0,1-.8.767l-.894,2.5h3.177l3.886-6.1A.283.283,0,0,0,244.376,136.346Z" transform="translate(-164.896 -121.476)" fill="#f4dd45"/>
      <path id="Trazado_1050492" data-name="Trazado 1050492" d="M159.981,15.06a.5.5,0,0,1-.337-.6,4.069,4.069,0,0,0-6.252-4.341.5.5,0,0,1-.7-.124,5.81,5.81,0,0,0-10.528,2.544.508.508,0,0,1-.519.443l-.121,0a4.851,4.851,0,1,0,.061,9.7h4.066l1.476-4.134h5.005l-1.038,2.905a.075.075,0,0,0,.071.1H154.5a.283.283,0,0,1,.239.435l-.441.693h4.442a3.9,3.9,0,0,0,1.246-7.62Z" transform="translate(-75.017 -6.682)" fill="#c6c1c8"/>
      <path id="Trazado_1050493" data-name="Trazado 1050493" d="M144.123,126.689a4.937,4.937,0,0,0,4.1,2.181h4.066l.779-2.181Z" transform="translate(-81.658 -112.872)" fill="#afaab4"/>
      <path id="Trazado_1050494" data-name="Trazado 1050494" d="M277.754,30.582a.5.5,0,0,1-.337-.6,4.069,4.069,0,0,0-3.731-5.052,4.112,4.112,0,0,0-.942.059,4.023,4.023,0,0,1,.422,1.531,4.074,4.074,0,0,1-.112,1.281.5.5,0,0,0,.337.6,3.9,3.9,0,0,1-1.246,7.62H269.2l-.34.953a.075.075,0,0,0,.071.1h3.335a.283.283,0,0,1,.239.435l-.441.693h4.442a3.9,3.9,0,0,0,1.246-7.62Z" transform="translate(-192.789 -22.204)" fill="#afaab4"/>
      <path id="Trazado_1050495" data-name="Trazado 1050495" d="M153.843,140.616h-3.154a.283.283,0,0,1-.267-.378l.631-1.768h-4.066a4.932,4.932,0,0,1-2.99-1.006,12.169,12.169,0,0,0-1.257,4.645,1.663,1.663,0,0,0,1.659,1.772h8.678l1.031-2.887A.283.283,0,0,0,153.843,140.616Z" transform="translate(-80.424 -122.472)" fill="#756e78"/>
      <path id="Trazado_1050496" data-name="Trazado 1050496" d="M142.777,176.308q-.02.2-.034.409a1.663,1.663,0,0,0,1.659,1.772h8.678l.779-2.181Z" transform="translate(-80.425 -157.079)" fill="#665e66"/>
      <path id="Trazado_1050497" data-name="Trazado 1050497" d="M277.866,144.911a12.178,12.178,0,0,0-1.092-4.3,3.987,3.987,0,0,1-2.2.663h-1.25a12.307,12.307,0,0,1,.185,1.458,1.663,1.663,0,0,1-1.659,1.772h-3.774l-1.389,2.181h9.525A1.663,1.663,0,0,0,277.866,144.911Z" transform="translate(-190.85 -125.273)" fill="#665e66"/>
      <g id="Grupo_1210395" data-name="Grupo 1210395" transform="translate(52.469 0)">
        <path id="Trazado_1050498" data-name="Trazado 1050498" d="M92.7,23.583H90.95l.138-1.872a16.29,16.29,0,0,0-2.623-10.2,4.685,4.685,0,0,0-2.982-3.82,4.887,4.887,0,0,0-7.319-5.1A6.628,6.628,0,0,0,66.374,5.48a5.668,5.668,0,0,0-5.526,6.066,16.284,16.284,0,0,0-2.6,10.165l.138,1.872H56.635a4.171,4.171,0,0,0-4.166,4.166v.366a7.052,7.052,0,0,0,6.767,7.038l.074,1c.313,4.248,3.187,7.825,6.57,10.251v2.427A3.327,3.327,0,0,1,64,51.82l-3.368,1.616a1.265,1.265,0,0,0,.547,2.4H88.153a1.265,1.265,0,0,0,.547-2.4L85.332,51.82a3.327,3.327,0,0,1-1.878-2.984V46.41c.49-.349.964-.718,1.415-1.1A.818.818,0,1,0,83.8,44.063c-3.151,2.7-6.982,4.111-9.138,4.111-4.619,0-13.223-5.314-13.725-12.137L59.878,21.59a14.665,14.665,0,0,1,1.589-7.859,5.721,5.721,0,0,0,1.1,1.474,12.958,12.958,0,0,0-1.07,4.378,2.483,2.483,0,0,0,2.475,2.644h2.962a.818.818,0,0,0,0-1.636H63.977a.844.844,0,0,1-.843-.9,11.346,11.346,0,0,1,.8-3.511,5.732,5.732,0,0,0,2.629.636h2.9l-.241.675a1.1,1.1,0,0,0,1.037,1.471h2.4l-.582,1.629H70.756a.818.818,0,0,0,0,1.636h14.6a2.482,2.482,0,0,0,2.475-2.644,12.989,12.989,0,0,0-.908-3.995,4.774,4.774,0,0,0,1.123-1.5,14.677,14.677,0,0,1,1.409,7.5L88.392,36.037a10.362,10.362,0,0,1-2.108,5.38.818.818,0,1,0,1.32.967,11.969,11.969,0,0,0,2.42-6.227l.074-1a7.052,7.052,0,0,0,6.767-7.038v-.366A4.17,4.17,0,0,0,92.7,23.583ZM81.818,47.467v1.369a4.972,4.972,0,0,0,2.806,4.459l1.9.91H62.813l1.9-.91a4.972,4.972,0,0,0,2.806-4.459V47.471a15.344,15.344,0,0,0,7.151,2.339A15.416,15.416,0,0,0,81.818,47.467ZM54.105,28.115v-.366a2.533,2.533,0,0,1,2.53-2.53H58.5l.61,8.289A5.414,5.414,0,0,1,54.105,28.115ZM66.564,15.181a4.075,4.075,0,0,1-4.094-4A4.031,4.031,0,0,1,66.6,7.116a1.322,1.322,0,0,0,1.352-1.153A4.992,4.992,0,0,1,77,3.778a1.327,1.327,0,0,0,1.838.33,3.251,3.251,0,0,1,4.995,3.469,1.324,1.324,0,0,0,.882,1.581,3.064,3.064,0,0,1,2.137,2.687c0,.01,0,.019,0,.029a3.12,3.12,0,0,1-3.137,3.307H80.58a1.1,1.1,0,0,0-1.1-1.128H77.2l.489-1.37h.487a.818.818,0,0,0,0-1.636H70.942a.818.818,0,1,0,0,1.636l-.892,2.5H66.564ZM86.2,19.692a.844.844,0,0,1-.843.9H77.323l.154-.242a.818.818,0,1,0-1.38-.878l-.713,1.12H73.816l.641-1.794a1.1,1.1,0,0,0-1.037-1.472H71.024l1.659-4.644h3.268L75.3,14.494a.894.894,0,0,0,.841,1.195h2.36l-.311.488a.818.818,0,1,0,1.38.878l.152-.239h3.993a4.782,4.782,0,0,0,1.791-.347A11.365,11.365,0,0,1,86.2,19.692Zm9.029,8.423a5.414,5.414,0,0,1-5.01,5.393l.61-8.289H92.7a2.533,2.533,0,0,1,2.53,2.53v.366Z" transform="translate(-52.469 0)" fill="#222221"/>
      </g>
    </g>
  </g>
</svg>
