<svg xmlns="http://www.w3.org/2000/svg" xmlns:xlink="http://www.w3.org/1999/xlink" width="103" height="103" viewBox="0 0 103 103">
  <defs>
    <filter id="Trazado_904820" x="0" y="0" width="103" height="103" filterUnits="userSpaceOnUse">
      <feOffset dy="3" input="SourceAlpha"/>
      <feGaussianBlur stdDeviation="3" result="blur"/>
      <feFlood flood-opacity="0.161"/>
      <feComposite operator="in" in2="blur"/>
      <feComposite in="SourceGraphic"/>
    </filter>
  </defs>
  <g id="Grupo_1210200" data-name="Grupo 1210200" transform="translate(9 6)">
    <g id="Grupo_1210088" data-name="Grupo 1210088" transform="translate(0 0)">
      <g id="Grupo_1209251" data-name="Grupo 1209251">
        <g id="Grupo_1202705" data-name="Grupo 1202705" transform="translate(0)">
          <g id="Grupo_1173585" data-name="Grupo 1173585">
            <g id="Grupo_1173428" data-name="Grupo 1173428">
              <g id="Grupo_1171958" data-name="Grupo 1171958">
                <g id="Grupo_1167341" data-name="Grupo 1167341">
                  <g id="Grupo_1166792" data-name="Grupo 1166792">
                    <g transform="matrix(1, 0, 0, 1, -9, -6)" filter="url(#Trazado_904820)">
                      <g id="Trazado_904820-2" data-name="Trazado 904820" transform="translate(9 6)" fill="#fef9e7">
                        <path d="M 42.5 83.5 C 36.96437835693359 83.5 31.59512901306152 82.41617584228516 26.54141235351562 80.27863311767578 C 21.65934181213379 78.21368408203125 17.27448272705078 75.25722503662109 13.50862312316895 71.49137878417969 C 9.742776870727539 67.72551727294922 6.786305904388428 63.34066009521484 4.721364498138428 58.45857620239258 C 2.583823442459106 53.40485763549805 1.5 48.03562164306641 1.5 42.5 C 1.5 36.96437835693359 2.583823442459106 31.59512901306152 4.721364498138428 26.54141235351562 C 6.786305904388428 21.65934181213379 9.742776870727539 17.27447128295898 13.50862312316895 13.50862312316895 C 17.27448272705078 9.742764472961426 21.65934181213379 6.786305904388428 26.54141235351562 4.721364498138428 C 31.59512901306152 2.583823442459106 36.96437835693359 1.5 42.5 1.5 C 48.03562164306641 1.5 53.40486907958984 2.583823442459106 58.45858764648438 4.721364498138428 C 63.34066009521484 6.786305904388428 67.72553253173828 9.742764472961426 71.49137878417969 13.50862312316895 C 75.25723266601562 17.27447128295898 78.21369171142578 21.65934181213379 80.27863311767578 26.54141235351562 C 82.41617584228516 31.59512901306152 83.5 36.96437835693359 83.5 42.5 C 83.5 48.03562164306641 82.41617584228516 53.40485763549805 80.27863311767578 58.45857620239258 C 78.21369171142578 63.34066009521484 75.25723266601562 67.72551727294922 71.49137878417969 71.49137878417969 C 67.72553253173828 75.25722503662109 63.34066009521484 78.21368408203125 58.45858764648438 80.27863311767578 C 53.40486907958984 82.41617584228516 48.03562164306641 83.5 42.5 83.5 Z" stroke="none"/>
                        <path d="M 42.5 3 C 37.16621398925781 3 31.99356079101562 4.043960571289062 27.125732421875 6.102882385253906 C 22.42246627807617 8.092185974121094 18.19785308837891 10.94070434570312 14.56928253173828 14.56928253173828 C 10.94070434570312 18.19785308837891 8.092185974121094 22.42246627807617 6.102882385253906 27.125732421875 C 4.043960571289062 31.99356079101562 3 37.16621398925781 3 42.5 C 3 47.83378601074219 4.043960571289062 53.00642395019531 6.102882385253906 57.87425231933594 C 8.092185974121094 62.57753372192383 10.94070434570312 66.80213165283203 14.56928253173828 70.43070983886719 C 18.19786834716797 74.05929565429688 22.42246627807617 76.90779876708984 27.125732421875 78.89711761474609 C 31.99356079101562 80.95603942871094 37.16621398925781 82 42.5 82 C 47.83378601074219 82 53.00642395019531 80.95603942871094 57.87425231933594 78.89711761474609 C 62.57753372192383 76.90779876708984 66.80213165283203 74.05929565429688 70.43071746826172 70.43070983886719 C 74.05929565429688 66.80213165283203 76.90781402587891 62.57752227783203 78.89711761474609 57.87425231933594 C 80.95603942871094 53.00642395019531 82 47.83378601074219 82 42.5 C 82 37.16621398925781 80.95603942871094 31.99356079101562 78.89711761474609 27.125732421875 C 76.90781402587891 22.42246627807617 74.05929565429688 18.19786834716797 70.43071746826172 14.56928253173828 C 66.80213165283203 10.94070434570312 62.57753372192383 8.092185974121094 57.87425231933594 6.102882385253906 C 53.00643920898438 4.043960571289062 47.83378601074219 3 42.5 3 M 42.5 0 C 65.97209167480469 0 85 19.02789306640625 85 42.5 C 85 65.97207641601562 65.97209167480469 85 42.5 85 C 19.02789306640625 85 0 65.97207641601562 0 42.5 C 0 19.02789306640625 19.02789306640625 0 42.5 0 Z" stroke="none" fill="#887013"/>
                      </g>
                    </g>
                  </g>
                </g>
              </g>
            </g>
          </g>
        </g>
      </g>
    </g>
    <g id="Page-1" transform="translate(16.499 19.999)">
      <g id="_079---Increase-Audio" data-name="079---Increase-Audio">
        <path id="Shape" d="M9.147,23.535H3.6a2.6,2.6,0,0,1-2.6-2.6V3.6A2.6,2.6,0,0,1,3.6,1H48.669a2.6,2.6,0,0,1,2.6,2.6V20.934a2.6,2.6,0,0,1-2.6,2.6H43.122" transform="translate(-0.133 -0.133)" fill="#fd4040"/>
        <path id="Shape-2" data-name="Shape" d="M55.6,1H53a2.6,2.6,0,0,1,2.6,2.6V20.934a2.6,2.6,0,0,1-2.6,2.6h2.6a2.6,2.6,0,0,0,2.6-2.6V3.6A2.6,2.6,0,0,0,55.6,1Z" transform="translate(-7.064 -0.133)" fill="#ee0b0b"/>
        <ellipse id="Oval" cx="19.068" cy="19.068" rx="19.068" ry="19.068" transform="translate(6.934 13.001)" fill="#60a917"/>
        <path id="Shape-3" data-name="Shape" d="M29.8,15c-.433,0-.867.02-1.3.049a19.063,19.063,0,0,1,0,38.037c.433.029.867.049,1.3.049A19.068,19.068,0,1,0,29.8,15Z" transform="translate(-3.799 -1.999)" fill="#549414"/>
        <path id="Shape-4" data-name="Shape" d="M14.733,32h5.2v8.667h-5.2A1.733,1.733,0,0,1,13,38.934v-5.2A1.733,1.733,0,0,1,14.733,32Z" transform="translate(-1.733 -4.265)" fill="#ffdc00"/>
        <path id="Shape-5" data-name="Shape" d="M27.934,45.068,21,39.867V31.2L27.934,26Z" transform="translate(-2.799 -3.465)" fill="#ff9801"/>
        <path id="Shape-6" data-name="Shape" d="M26,27.95V43.118l2.6,1.95V26Z" transform="translate(-3.465 -3.465)" fill="#f57c00"/>
        <rect id="Rectangle-path" width="3.467" height="22.535" rx="1.733" transform="translate(25.135 20.801)" fill="#ffdc00"/>
        <path id="Shape-7" data-name="Shape" d="M33,39.934A3.467,3.467,0,0,0,33,33Z" transform="translate(-4.398 -4.398)" fill="#ff9801"/>
        <g id="Grupo_1210199" data-name="Grupo 1210199">
          <path id="Shape-8" data-name="Shape" d="M5.867,12A.867.867,0,0,0,5,12.867V14.6a.867.867,0,0,0,1.733,0V12.867A.867.867,0,0,0,5.867,12Z" transform="translate(-0.666 -1.599)"/>
          <path id="Shape-9" data-name="Shape" d="M9.867,10A.867.867,0,0,0,9,10.867v5.2a.867.867,0,1,0,1.733,0v-5.2A.867.867,0,0,0,9.867,10Z" transform="translate(-1.2 -1.333)"/>
          <path id="Shape-10" data-name="Shape" d="M17.867,12a.867.867,0,0,0-.867.867V14.6a.867.867,0,1,0,1.733,0V12.867A.867.867,0,0,0,17.867,12Z" transform="translate(-2.266 -1.599)"/>
          <path id="Shape-11" data-name="Shape" d="M13.867,12a.867.867,0,0,0-.867.867V14.6a.867.867,0,0,0,1.733,0V12.867A.867.867,0,0,0,13.867,12Z" transform="translate(-1.733 -1.599)"/>
          <path id="Shape-12" data-name="Shape" d="M53.867,12a.867.867,0,0,0-.867.867V14.6a.867.867,0,1,0,1.733,0V12.867A.867.867,0,0,0,53.867,12Z" transform="translate(-7.064 -1.599)"/>
          <path id="Shape-13" data-name="Shape" d="M49.867,10a.867.867,0,0,0-.867.867v5.2a.867.867,0,1,0,1.733,0v-5.2A.867.867,0,0,0,49.867,10Z" transform="translate(-6.531 -1.333)"/>
          <path id="Shape-14" data-name="Shape" d="M41.867,12a.867.867,0,0,0-.867.867V14.6a.867.867,0,1,0,1.733,0V12.867A.867.867,0,0,0,41.867,12Z" transform="translate(-5.465 -1.599)"/>
          <path id="Shape-15" data-name="Shape" d="M45.867,12a.867.867,0,0,0-.867.867V14.6a.867.867,0,1,0,1.733,0V12.867A.867.867,0,0,0,45.867,12Z" transform="translate(-5.998 -1.599)"/>
          <path id="Shape-16" data-name="Shape" d="M48.536,0H3.467A3.467,3.467,0,0,0,0,3.467V20.8a3.467,3.467,0,0,0,3.467,3.467H7.657a19.934,19.934,0,1,0,36.688,0h4.191A3.467,3.467,0,0,0,52,20.8V3.467A3.467,3.467,0,0,0,48.536,0ZM26,50.269a18.2,18.2,0,1,1,18.2-18.2A18.2,18.2,0,0,1,26,50.269ZM50.269,20.8a1.733,1.733,0,0,1-1.733,1.733H43.5a20.062,20.062,0,0,0-9.7-8.81V9.534a.867.867,0,1,0-1.733,0v3.547c-.567-.182-1.146-.336-1.733-.467V8.667a.867.867,0,0,0-1.733,0v3.64c-.571-.075-1.148-.128-1.733-.153V6.934a.867.867,0,0,0-1.733,0v5.222c-.585.025-1.162.079-1.733.153V8.667a.867.867,0,0,0-1.733,0v3.947c-.588.131-1.167.285-1.733.467V9.534a.867.867,0,1,0-1.733,0v4.191a20.062,20.062,0,0,0-9.7,8.81H3.467A1.733,1.733,0,0,1,1.733,20.8V3.467A1.733,1.733,0,0,1,3.467,1.733H48.536a1.733,1.733,0,0,1,1.733,1.733Z"/>
          <path id="Shape-17" data-name="Shape" d="M31.068,30.891V25.6a2.6,2.6,0,0,0-5.153-.469l-6.4,4.8H14.6a2.6,2.6,0,0,0-2.6,2.6v5.2a2.6,2.6,0,0,0,2.6,2.6h4.912l6.4,4.8a2.6,2.6,0,0,0,5.153-.469V39.385a4.334,4.334,0,0,0,0-8.494Zm-10.4.347,5.2-3.9v15.6l-5.2-3.9ZM18.934,38.6H14.6a.867.867,0,0,1-.867-.867v-5.2a.867.867,0,0,1,.867-.867h4.334Zm10.4,6.067a.867.867,0,0,1-1.733,0V25.6a.867.867,0,1,1,1.733,0Zm1.733-7.093V32.7a2.585,2.585,0,0,1,0,4.881Z" transform="translate(-1.599 -3.07)"/>
          <path id="Shape-18" data-name="Shape" d="M43.467,33a.867.867,0,0,0-.867.867V35.6H40.867a.867.867,0,1,0,0,1.733H42.6v1.733a.867.867,0,1,0,1.733,0V37.334h1.733a.867.867,0,1,0,0-1.733H44.334V33.867A.867.867,0,0,0,43.467,33Z" transform="translate(-5.331 -4.398)"/>
        </g>
      </g>
    </g>
  </g>
</svg>
