<svg xmlns="http://www.w3.org/2000/svg" xmlns:xlink="http://www.w3.org/1999/xlink" width="113" height="113" viewBox="0 0 113 113">
  <defs>
    <filter id="Trazado_982547" x="0" y="0.001" width="113" height="113" filterUnits="userSpaceOnUse">
      <feOffset dy="3" input="SourceAlpha"/>
      <feGaussianBlur stdDeviation="3" result="blur"/>
      <feFlood flood-opacity="0.161"/>
      <feComposite operator="in" in2="blur"/>
      <feComposite in="SourceGraphic"/>
    </filter>
  </defs>
  <g id="Grupo_1210402" data-name="Grupo 1210402" transform="translate(-797 -12884.151)">
    <g id="Grupo_1210134" data-name="Grupo 1210134" transform="translate(3.51 10562.153)">
      <g id="Grupo_1209048" data-name="Grupo 1209048" transform="translate(0 1091.783)">
        <g id="Grupo_1208492" data-name="Grupo 1208492" transform="translate(0 -4397.209)">
          <g id="Grupo_1177675" data-name="Grupo 1177675" transform="translate(-4493 3707.152)">
            <g id="Grupo_1176928" data-name="Grupo 1176928" transform="translate(5295.49 1926.273)">
              <g id="Grupo_1172322" data-name="Grupo 1172322" transform="translate(0 0)">
                <g id="Grupo_1164700" data-name="Grupo 1164700">
                  <g id="Grupo_1160931" data-name="Grupo 1160931">
                    <g id="Grupo_1160749" data-name="Grupo 1160749">
                      <g id="Grupo_1158891" data-name="Grupo 1158891">
                        <g id="Grupo_1157406" data-name="Grupo 1157406">
                          <g id="Grupo_1155793" data-name="Grupo 1155793">
                            <g id="Grupo_1154704" data-name="Grupo 1154704">
                              <g id="Grupo_1150790" data-name="Grupo 1150790">
                                <g id="Grupo_1154214" data-name="Grupo 1154214">
                                  <g id="Grupo_1152583" data-name="Grupo 1152583">
                                    <g id="Grupo_1146973" data-name="Grupo 1146973">
                                      <g id="Grupo_1146954" data-name="Grupo 1146954">
                                        <g transform="matrix(1, 0, 0, 1, -9, -6)" filter="url(#Trazado_982547)">
                                          <g id="Trazado_982547-2" data-name="Trazado 982547" transform="translate(9 6)" fill="#fef9e7">
                                            <path d="M 47.5000114440918 93.49987030029297 C 41.28938293457031 93.49987030029297 35.26534652709961 92.28384399414062 29.5951976776123 89.88558959960938 C 24.11773109436035 87.56881713867188 19.19814491271973 84.25183868408203 14.97310447692871 80.02680206298828 C 10.74805164337158 75.80176544189453 7.43107795715332 70.88218688964844 5.114304542541504 65.40472412109375 C 2.716038227081299 59.73458862304688 1.500011444091797 53.71054840087891 1.500011444091797 47.49993515014648 C 1.500011444091797 41.28932189941406 2.716038227081299 35.26528167724609 5.114304542541504 29.59514808654785 C 7.43107795715332 24.1176815032959 10.74805164337158 19.1981086730957 14.97310447692871 14.97306823730469 C 19.19814491271973 10.74802875518799 24.11773109436035 7.431055068969727 29.5951976776123 5.11428165435791 C 35.26534652709961 2.716028451919556 41.28938293457031 1.500001788139343 47.5000114440918 1.500001788139343 C 53.71063995361328 1.500001788139343 59.73467636108398 2.716028451919556 65.40482330322266 5.11428165435791 C 70.88229370117188 7.431055068969727 75.8018798828125 10.74802875518799 80.02691650390625 14.97306823730469 C 84.25196838378906 19.1981086730957 87.56894683837891 24.1176815032959 89.88571929931641 29.59514808654785 C 92.28398132324219 35.26528167724609 93.50001525878906 41.28932189941406 93.50001525878906 47.49993515014648 C 93.50001525878906 53.71054840087891 92.28398132324219 59.73458862304688 89.88571929931641 65.40472412109375 C 87.56894683837891 70.88218688964844 84.25196838378906 75.80176544189453 80.02691650390625 80.02680206298828 C 75.8018798828125 84.25183868408203 70.88229370117188 87.56881713867188 65.40482330322266 89.88558959960938 C 59.73467636108398 92.28384399414062 53.71063995361328 93.49987030029297 47.5000114440918 93.49987030029297 Z" stroke="none"/>
                                            <path d="M 47.5000114440918 3 C 41.49122619628906 3 35.66378021240234 4.1761474609375 30.17951965332031 6.495796203613281 C 24.880859375 8.7369384765625 20.12153625488281 11.94596862792969 16.03376770019531 16.03373718261719 C 11.94598388671875 20.12149047851562 8.736968994140625 24.88081359863281 6.495811462402344 30.17947387695312 C 4.176162719726562 35.66371917724609 3.000007629394531 41.49116516113281 3.000007629394531 47.49993515014648 C 3.000007629394531 53.50870513916016 4.176162719726562 59.33615112304688 6.495811462402344 64.82039642333984 C 8.736968994140625 70.11905670166016 11.94598388671875 74.87837982177734 16.03376770019531 78.96613311767578 C 20.12153625488281 83.05390167236328 24.880859375 86.26293182373047 30.17951965332031 88.50407409667969 C 35.66378021240234 90.82372283935547 41.49122619628906 91.99987030029297 47.5000114440918 91.99987030029297 C 53.50879669189453 91.99987030029297 59.33624267578125 90.82372283935547 64.82050323486328 88.50407409667969 C 70.11916351318359 86.26293182373047 74.87848663330078 83.05390167236328 78.96625518798828 78.96613311767578 C 83.05403900146484 74.87837982177734 86.2630615234375 70.11905670166016 88.50421142578125 64.82039642333984 C 90.82386016845703 59.33615112304688 92.00001525878906 53.50870513916016 92.00001525878906 47.49993515014648 C 92.00001525878906 41.49116516113281 90.82386016845703 35.66371917724609 88.50421142578125 30.17947387695312 C 86.2630615234375 24.88081359863281 83.05403900146484 20.12149047851562 78.96625518798828 16.03373718261719 C 74.87848663330078 11.94596862792969 70.11916351318359 8.7369384765625 64.82050323486328 6.495796203613281 C 59.33624267578125 4.1761474609375 53.50879669189453 3 47.5000114440918 3 M 47.5000114440918 0 C 73.73353576660156 0 95.00001525878906 21.26644134521484 95.00001525878906 47.49993515014648 C 95.00001525878906 73.73342895507812 73.73353576660156 94.99987030029297 47.5000114440918 94.99987030029297 C 21.26648712158203 94.99987030029297 7.62939453125e-06 73.73342895507812 7.62939453125e-06 47.49993515014648 C 7.62939453125e-06 21.26644134521484 21.26648712158203 0 47.5000114440918 0 Z" stroke="none" fill="#f8ce24"/>
                                          </g>
                                        </g>
                                      </g>
                                    </g>
                                  </g>
                                </g>
                              </g>
                            </g>
                          </g>
                        </g>
                      </g>
                    </g>
                  </g>
                </g>
              </g>
            </g>
          </g>
        </g>
      </g>
    </g>
    <g id="_x31_1_-_Safety_Ear_Muffs" transform="translate(802.966 12882.157)">
      <g id="Grupo_1210401" data-name="Grupo 1210401" transform="translate(19.034 22.97)">
        <g id="Grupo_1210400" data-name="Grupo 1210400" transform="translate(0 0)">
          <g id="XMLID_40_">
            <g id="Grupo_1210399" data-name="Grupo 1210399">
              <g id="Grupo_1210398" data-name="Grupo 1210398" transform="translate(12.13 5.958)">
                <path id="Trazado_1050513" data-name="Trazado 1050513" d="M152.28,80.623l.352.511a2.605,2.605,0,0,0-3.436.361A2.431,2.431,0,0,1,145.135,79a2.616,2.616,0,0,0-1.467-3.357,30.306,30.306,0,0,0-9.634-2.15.774.774,0,0,0-.108,0,30.439,30.439,0,0,0-9.746,2.194,2.62,2.62,0,0,0-1.454,3.334,2.4,2.4,0,0,1,.134,1,2.429,2.429,0,0,1-4.177,1.5,2.622,2.622,0,0,0-3.1-.521,13.606,13.606,0,0,1,1.839-2.656,23.87,23.87,0,0,1,16.538-7.952A23.809,23.809,0,0,1,152.28,80.623Z" transform="translate(-115.58 -70.39)" fill="#1e2123"/>
                <path id="Trazado_1050514" data-name="Trazado 1050514" d="M144.188,289.9l1.224,27.658-4.027.178-.062-1.377c0-.015,0-.029,0-.044v0l-1.1-24.815-.063-1.42Z" transform="translate(-137.072 -262.321)" fill="#1e2123"/>
                <path id="Trazado_1050515" data-name="Trazado 1050515" d="M345.1,290.068l-.063,1.421-1.1,24.815v0c0,.014,0,.028,0,.041l-.062,1.38-4.028-.178,1.226-27.659Z" transform="translate(-311.673 -262.313)" fill="#1e2123"/>
              </g>
              <path id="Trazado_1050516" data-name="Trazado 1050516" d="M94.391,64.929a9.579,9.579,0,0,1-.284,7.261l-3.131,7a13.2,13.2,0,0,0-1.284-2.459l1.49-3.241a11.639,11.639,0,0,0-.46-10.67l-.033-.057a.665.665,0,0,0-.04-.063l-6.257-9.1-1.354-1.97A25.777,25.777,0,0,0,63.206,40.55c-.033,0-.064,0-.1,0-.018,0-.053,0-.1,0a25.836,25.836,0,0,0-17.9,8.6,15.927,15.927,0,0,0-2.736,4.361c-.048.112-.1.226-.147.346l-.09.215a0,0,0,0,1,0,0c-1.086,2.569-2.676,6.508-4.093,10.683q-.128.377-.25.743a11.628,11.628,0,0,0-.018,7.327l.5,1.538c-.241.229-.476.466-.7.714a13.368,13.368,0,0,0-1.168,1.469L35,72.107a9.737,9.737,0,0,1,.01-5.9c.231-.73.48-1.488.74-2.251,2.287-6.737,5.132-13.084,5.455-13.756a28.226,28.226,0,0,1,9.413-8.552,34.975,34.975,0,0,1,8.494-2.733,17.775,17.775,0,0,1,3.846-.42h.29a17.775,17.775,0,0,1,3.846.42,34.9,34.9,0,0,1,8.494,2.733,28.205,28.205,0,0,1,9.449,8.6L92.7,61.381l.049.077a21.548,21.548,0,0,1,1.645,3.471Z" transform="translate(-32.602 -36.54)" fill="#7895a4"/>
              <path id="Trazado_1050517" data-name="Trazado 1050517" d="M399.086,320.866a11.462,11.462,0,0,1,.141,2.378c-.01.212-.024.416-.044.608a11.431,11.431,0,0,1-10.923,10.324l1.01-22.786A11.451,11.451,0,0,1,397,315.944a1,1,0,0,0,.106.143,11.4,11.4,0,0,1,1.647,3.358c0,.016.009.033.014.049l0,.014a11.319,11.319,0,0,1,.3,1.271.621.621,0,0,0,.011.07A.068.068,0,0,0,399.086,320.866Z" transform="translate(-341.871 -275.154)" fill="#f9a01b"/>
              <path id="Trazado_1050518" data-name="Trazado 1050518" d="M56.146,311.39l1.01,22.787a11.46,11.46,0,0,1-10.272-15.412.818.818,0,0,0,.054-.143q.109-.285.236-.564a.834.834,0,0,0,.058-.128,11.607,11.607,0,0,1,2.947-3.885.374.374,0,0,0,.043-.035A11.3,11.3,0,0,1,56.146,311.39Z" transform="translate(-42.767 -275.154)" fill="#f9a01b"/>
              <path id="Trazado_1050519" data-name="Trazado 1050519" d="M82.651,50.686a11.511,11.511,0,0,1-.333,8.729L78.208,68.6a13.219,13.219,0,0,0-.393-1.8c0-.015-.008-.031-.013-.046s-.011-.039-.019-.059q-.164-.552-.376-1.079l3.131-7a9.579,9.579,0,0,0,.284-7.261,21.548,21.548,0,0,0-1.645-3.471l-.049-.077L71.474,36.677a28.205,28.205,0,0,0-9.449-8.6,34.9,34.9,0,0,0-8.494-2.733,17.775,17.775,0,0,0-3.846-.42h-.29a17.775,17.775,0,0,0-3.846.42,34.975,34.975,0,0,0-8.494,2.733,28.226,28.226,0,0,0-9.413,8.552c-.323.672-3.169,7.019-5.455,13.756-.26.764-.509,1.521-.74,2.251a9.737,9.737,0,0,0-.01,5.9l1.4,4.445a13.157,13.157,0,0,0-1.3,2.363l-1.966-6.22a11.678,11.678,0,0,1,.01-7.082c.235-.743.489-1.513.753-2.289A147.679,147.679,0,0,1,26,35.578,30.156,30.156,0,0,1,36.1,26.371a38.4,38.4,0,0,1,9.022-2.934,19.681,19.681,0,0,1,4.268-.467h.29a19.681,19.681,0,0,1,4.268.467,38.42,38.42,0,0,1,9.022,2.934,30.169,30.169,0,0,1,10.105,9.2l7.7,11.2c.013.019.025.038.036.057l.039.068A23.473,23.473,0,0,1,82.651,50.686Z" transform="translate(-19.034 -22.97)"/>
              <path id="Trazado_1050520" data-name="Trazado 1050520" d="M400.443,386.18a13.433,13.433,0,0,1,.128,2.545c-.013.25-.029.489-.052.711a13.384,13.384,0,0,1-12.949,12.088l.087-1.955a11.431,11.431,0,0,0,10.923-10.324c.02-.192.034-.4.044-.608a11.457,11.457,0,0,0-.141-2.378.975.975,0,0,0,1.851.163Z" transform="translate(-341.268 -340.547)"/>
              <path id="Trazado_1050521" data-name="Trazado 1050521" d="M476.224,373.65l-.109.242a.975.975,0,0,1-1.851-.163.068.068,0,0,1,0-.015c0-.024-.008-.048-.011-.07a.836.836,0,0,1-.009-.126.976.976,0,0,1,.085-.4l.083-.186a.975.975,0,0,0,1.45-.853.992.992,0,0,0-.028-.23A13.214,13.214,0,0,1,476.224,373.65Z" transform="translate(-417.049 -328.018)"/>
              <path id="Trazado_1050522" data-name="Trazado 1050522" d="M477,367.05a.992.992,0,0,1,.028.23.975.975,0,0,1-1.45.853l.794-1.773a.975.975,0,0,1,.6.584c.008.02.014.04.019.059s.006.025.01.036A.029.029,0,0,1,477,367.05Z" transform="translate(-418.221 -323.217)"/>
              <path id="Trazado_1050523" data-name="Trazado 1050523" d="M486.813,371.526a.03.03,0,0,0,0-.01c0-.011-.006-.024-.01-.036C486.805,371.5,486.809,371.511,486.813,371.526Z" transform="translate(-428.031 -327.694)"/>
              <path id="Trazado_1050524" data-name="Trazado 1050524" d="M482.5,363.5a.975.975,0,0,0-.6-.584l.221-.5Q482.332,362.948,482.5,363.5Z" transform="translate(-423.747 -319.772)"/>
              <path id="Trazado_1050525" data-name="Trazado 1050525" d="M472.894,365.984l-.794,1.773a.978.978,0,0,1-.456-.56l0-.014c0-.013-.006-.023-.009-.034a.069.069,0,0,0-.005-.015.971.971,0,0,1-.026-.227v0a.975.975,0,0,1,.975-.974A.961.961,0,0,1,472.894,365.984Z" transform="translate(-414.741 -322.841)"/>
              <path id="Trazado_1050526" data-name="Trazado 1050526" d="M472.247,377.281a11.32,11.32,0,0,0-.3-1.271.978.978,0,0,0,.456.56l-.083.186a.977.977,0,0,0-.085.4A.833.833,0,0,0,472.247,377.281Z" transform="translate(-415.047 -331.655)"/>
              <path id="Trazado_1050527" data-name="Trazado 1050527" d="M474.31,386.13c0,.023.009.047.011.07A.634.634,0,0,1,474.31,386.13Z" transform="translate(-417.11 -340.504)"/>
              <path id="Trazado_1050528" data-name="Trazado 1050528" d="M458.873,330.889l-.224.487a.974.974,0,0,1-1.628.258q-.051-.073-.106-.143a.98.98,0,0,1-.047-.906l.65-1.415A13.32,13.32,0,0,1,458.873,330.889Z" transform="translate(-401.783 -290.7)"/>
              <path id="Trazado_1050529" data-name="Trazado 1050529" d="M471.815,375.525c0,.011.006.021.009.034-.005-.016-.01-.033-.014-.049a.069.069,0,0,1,.005.015Z" transform="translate(-414.924 -331.218)"/>
              <path id="Trazado_1050530" data-name="Trazado 1050530" d="M460.321,346.723v0a.97.97,0,0,0,.026.227,11.4,11.4,0,0,0-1.647-3.358.974.974,0,0,0,1.628-.258l.224-.487a13.2,13.2,0,0,1,1.284,2.459l-.221.5a.96.96,0,0,0-.319-.054A.975.975,0,0,0,460.321,346.723Z" transform="translate(-403.462 -302.661)"/>
              <path id="Trazado_1050531" data-name="Trazado 1050531" d="M404.637,300.036l-.65,1.415a.98.98,0,0,0,.047.906A11.451,11.451,0,0,0,396.3,297.8l.045-1.015.041-.937a13.392,13.392,0,0,1,8.251,4.186Z" transform="translate(-348.901 -261.566)"/>
              <path id="Trazado_1050532" data-name="Trazado 1050532" d="M457.86,347.64q.055.07.106.143A1,1,0,0,1,457.86,347.64Z" transform="translate(-402.727 -306.849)"/>
              <path id="Trazado_1050533" data-name="Trazado 1050533" d="M423.644,160.034a.974.974,0,0,0,.113-1.3h0l6.257,9.1a.665.665,0,0,1,.04.063l.033.057a11.639,11.639,0,0,1,.46,10.67l-1.49,3.241a13.321,13.321,0,0,0-1.354-1.719l1.074-2.337a9.688,9.688,0,0,0-.376-8.88l-.014-.023-5.708-8.3a2.621,2.621,0,0,0,.964-.569Z" transform="translate(-371.967 -141.674)"/>
              <path id="Trazado_1050534" data-name="Trazado 1050534" d="M109.522,104.461a.669.669,0,0,0-.923-.055l-.009.008-.018.016a2.6,2.6,0,0,1-1.862.648c.111-.264.216-.518.318-.758l.092-.216.143-.339q.258-.607.562-1.175a2.622,2.622,0,0,1,3.1.521,2.43,2.43,0,0,0,4.043-2.5,2.62,2.62,0,0,1,1.454-3.334,30.439,30.439,0,0,1,9.746-2.194.774.774,0,0,1,.108,0,30.306,30.306,0,0,1,9.634,2.15,2.616,2.616,0,0,1,1.467,3.357,2.431,2.431,0,0,0,4.061,2.494,2.605,2.605,0,0,1,3.436-.361l1.532,2.228a2.586,2.586,0,0,1-2.523-.52c-.034-.029-.067-.058-.1-.088a.665.665,0,0,0-.92.069,4.368,4.368,0,0,1-3.209,1.395c-.114,0-.229,0-.343-.013a4.382,4.382,0,0,1-3.764-5.875.67.67,0,0,0-.363-.877,28.349,28.349,0,0,0-8.963-2.01,28.5,28.5,0,0,0-9.068,2.052.676.676,0,0,0-.349.871,4.333,4.333,0,0,1,.242,1.793,4.378,4.378,0,0,1-7.527,2.71Z" transform="translate(-95.695 -86.025)"/>
              <path id="Trazado_1050535" data-name="Trazado 1050535" d="M410.785,155.941a.657.657,0,0,0,.874-.014.974.974,0,0,1,1.377.052c.021.024.043.048.062.073a.974.974,0,0,1-.113,1.3,2.621,2.621,0,0,1-.964.569L410.49,155.7a2.5,2.5,0,0,1,.2.162l.028.025.05.044.014.013Z" transform="translate(-361.309 -138.995)"/>
              <path id="Trazado_1050536" data-name="Trazado 1050536" d="M383.142,295.294l-.041.937-.045,1.015q-.481-.062-.971-.084a.975.975,0,1,1,.085-1.947Q382.66,295.236,383.142,295.294Z" transform="translate(-335.657 -261.01)"/>
              <path id="Trazado_1050537" data-name="Trazado 1050537" d="M375.411,303.722l-1.01,22.786c-.322.014-.647.014-.974,0a.977.977,0,0,0-1.018.928l1.1-24.815a.976.976,0,0,0,.931,1.018Q374.93,303.66,375.411,303.722Z" transform="translate(-328.013 -267.486)"/>
              <path id="Trazado_1050538" data-name="Trazado 1050538" d="M374.393,492.735l-.087,1.955c-.123,0-.247.005-.372.005-.2,0-.4-.005-.6-.014a.976.976,0,0,1-.932-.975c0-.014,0-.028,0-.041v0a.977.977,0,0,1,1.018-.928C373.746,492.749,374.071,492.749,374.393,492.735Z" transform="translate(-328.004 -433.713)"/>
              <path id="Trazado_1050539" data-name="Trazado 1050539" d="M331.881,303.745c.124,0,.249,0,.372-.005l-.026.6a1.835,1.835,0,0,1-1.831,1.754l-.08,0-4.259-.188a1.835,1.835,0,0,1-1.75-1.915l1.235-27.886a1.831,1.831,0,0,1,1.911-1.751l4.259.188a1.839,1.839,0,0,1,1.751,1.911h0l-.026.6q-.482-.058-.972-.079a.975.975,0,0,0-1.016.93l.063-1.421-4.027-.178-1.226,27.659,4.028.178.062-1.379a.976.976,0,0,0,.932.975c.2.009.4.014.6.014Z" transform="translate(-285.951 -242.764)"/>
              <path id="Trazado_1050540" data-name="Trazado 1050540" d="M134.251,67.053A23.809,23.809,0,0,0,115.928,56.82,23.87,23.87,0,0,0,99.39,64.771a13.606,13.606,0,0,0-1.839,2.656,2.588,2.588,0,0,0-.506.347c-.015.013-.03.025-.045.04a.655.655,0,0,1-.714.087.974.974,0,0,0-1.3.447l-.023.049.09-.215c.05-.119.1-.234.147-.346a15.927,15.927,0,0,1,2.736-4.361,25.836,25.836,0,0,1,17.9-8.6c.045,0,.08,0,.1,0,.034,0,.065,0,.1,0a25.777,25.777,0,0,1,19.832,11.076l1.354,1.97h0c-.019-.025-.04-.049-.062-.073a.974.974,0,0,0-1.377-.052.657.657,0,0,1-.874.014l-.014-.013-.05-.044-.028-.025a2.5,2.5,0,0,0-.2-.162Z" transform="translate(-85.421 -50.862)"/>
              <path id="Trazado_1050541" data-name="Trazado 1050541" d="M133.756,304.009a1.793,1.793,0,0,1-1.714,1.872l-4.334.192-.08,0a1.794,1.794,0,0,1-1.792-1.716l-.028-.636c.122,0,.244.005.367.005.2,0,.4-.005.607-.014a.974.974,0,0,0,.932-.972l.062,1.377,4.027-.178-1.224-27.658-4.028.178.063,1.42a.974.974,0,0,0-1.016-.93c-.327.015-.651.04-.972.078l-.028-.636a1.795,1.795,0,0,1,1.714-1.873l4.334-.192a1.8,1.8,0,0,1,1.873,1.715Z" transform="translate(-111.333 -242.747)"/>
              <path id="Trazado_1050542" data-name="Trazado 1050542" d="M135.551,493.675c0,.015,0,.029,0,.044a.974.974,0,0,1-.932.972c-.2.009-.4.014-.607.014-.123,0-.245,0-.367-.005l-.087-1.954q.484.021.975,0a.975.975,0,0,1,1.016.927Z" transform="translate(-119.171 -433.723)"/>
              <path id="Trazado_1050543" data-name="Trazado 1050543" d="M127.422,302.62l1.1,24.815a.975.975,0,0,0-1.016-.927q-.49.023-.975,0l-1.01-22.787q.481-.062.971-.084A.976.976,0,0,0,127.422,302.62Z" transform="translate(-112.141 -267.486)"/>
              <path id="Trazado_1050544" data-name="Trazado 1050544" d="M126.819,296.144a.976.976,0,0,1-.931,1.018q-.49.023-.971.084l-.087-1.954c.322-.038.646-.063.972-.078a.974.974,0,0,1,1.016.93Z" transform="translate(-111.538 -261.01)"/>
              <path id="Trazado_1050545" data-name="Trazado 1050545" d="M83.14,295.84l.087,1.954a11.3,11.3,0,0,0-5.924,2.62.974.974,0,0,0,.274-1.026l-.427-1.309A13.257,13.257,0,0,1,83.14,295.84Z" transform="translate(-69.848 -261.557)"/>
              <path id="Trazado_1050546" data-name="Trazado 1050546" d="M96.467,155.207c.015-.015.03-.028.045-.04a2.588,2.588,0,0,1,.506-.347q-.3.567-.562,1.175l-.143.339-.092.216c-.1.24-.207.494-.318.758a2.62,2.62,0,0,1-1.006-.264.974.974,0,0,1-.471-1.25,0,0,0,0,0,0,0l.023-.049a.974.974,0,0,1,1.3-.447A.655.655,0,0,0,96.467,155.207Z" transform="translate(-84.889 -138.255)"/>
              <path id="Trazado_1050547" data-name="Trazado 1050547" d="M61.011,163.82a2.62,2.62,0,0,0,1.006.264c-1.05,2.52-2.459,6.065-3.725,9.8q-.126.369-.246.73a9.689,9.689,0,0,0-.015,6.107l.273.834a13.409,13.409,0,0,0-1.623,1.309l-.5-1.538A11.628,11.628,0,0,1,56.2,174q.122-.366.25-.743c1.417-4.175,3.008-8.114,4.093-10.683A.974.974,0,0,0,61.011,163.82Z" transform="translate(-51.002 -145.031)"/>
              <path id="Trazado_1050548" data-name="Trazado 1050548" d="M66.28,314.959a.974.974,0,0,1-.274,1.026.377.377,0,0,1-.043.035.955.955,0,0,1-.307.167.974.974,0,0,1-1.229-.623l-.2-.606a13.409,13.409,0,0,1,1.623-1.309Z" transform="translate(-58.552 -277.13)"/>
              <path id="Trazado_1050549" data-name="Trazado 1050549" d="M51.409,324.676a.974.974,0,0,0,1.229.623.955.955,0,0,0,.307-.167A11.607,11.607,0,0,0,50,329.016a.962.962,0,0,0,.016-.632l-.673-2.132a13.37,13.37,0,0,1,1.168-1.469c.226-.247.461-.485.7-.714Z" transform="translate(-45.532 -286.241)"/>
              <path id="Trazado_1050550" data-name="Trazado 1050550" d="M40.99,343.572a.962.962,0,0,1-.016.632c-.02.043-.039.085-.058.128a.954.954,0,0,1-.2.254.975.975,0,0,0-1.656-.653l-.04-.129a13.156,13.156,0,0,1,1.3-2.363Z" transform="translate(-36.509 -301.428)"/>
              <path id="Trazado_1050551" data-name="Trazado 1050551" d="M54.11,363.568c.019-.043.038-.085.058-.128A.835.835,0,0,1,54.11,363.568Z" transform="translate(-49.703 -320.664)"/>
              <path id="Trazado_1050552" data-name="Trazado 1050552" d="M52.268,364.755c0-.014,0-.028,0-.041a.955.955,0,0,0,.2-.254q-.126.279-.236.564a.943.943,0,0,0,.038-.268Z" transform="translate(-48.059 -321.556)"/>
              <path id="Trazado_1050553" data-name="Trazado 1050553" d="M41,360a.951.951,0,0,1-.362.209.974.974,0,0,1-1.222-.636l-.072-.226A.975.975,0,0,1,41,360Z" transform="translate(-36.789 -316.843)"/>
              <path id="Trazado_1050554" data-name="Trazado 1050554" d="M38.96,361.976a.944.944,0,0,1-.038.268c-.019.048-.036.1-.054.143A.974.974,0,1,1,37.3,361.28l.072.226a.974.974,0,0,0,1.222.636.95.95,0,0,0,.362-.209c0,.014,0,.028,0,.041Z" transform="translate(-34.752 -318.776)"/>
              <path id="Trazado_1050555" data-name="Trazado 1050555" d="M51.8,369.093c.018-.048.035-.1.054-.143A.82.82,0,0,1,51.8,369.093Z" transform="translate(-47.683 -325.482)"/>
              <path id="Trazado_1050556" data-name="Trazado 1050556" d="M31.754,360.379a.974.974,0,1,0,1.565,1.107A11.453,11.453,0,0,0,43.591,376.9l.087,1.954a13.406,13.406,0,0,1-11.964-18.6Z" transform="translate(-29.202 -317.875)"/>
            </g>
          </g>
        </g>
      </g>
    </g>
  </g>
</svg>
