<svg xmlns="http://www.w3.org/2000/svg" xmlns:xlink="http://www.w3.org/1999/xlink" width="113" height="113" viewBox="0 0 113 113">
  <defs>
    <filter id="Trazado_982547" x="0" y="0.001" width="113" height="113" filterUnits="userSpaceOnUse">
      <feOffset dy="3" input="SourceAlpha"/>
      <feGaussianBlur stdDeviation="3" result="blur"/>
      <feFlood flood-opacity="0.161"/>
      <feComposite operator="in" in2="blur"/>
      <feComposite in="SourceGraphic"/>
    </filter>
  </defs>
  <g id="Grupo_1210404" data-name="Grupo 1210404" transform="translate(-1112 -12884.151)">
    <g id="Grupo_1210135" data-name="Grupo 1210135" transform="translate(0 10562.153)">
      <g id="Grupo_1209055" data-name="Grupo 1209055" transform="translate(0 1091.783)">
        <g id="Grupo_1209049" data-name="Grupo 1209049">
          <g id="Grupo_1208493" data-name="Grupo 1208493" transform="translate(0 -4397.209)">
            <g id="Grupo_1202104" data-name="Grupo 1202104" transform="translate(0 -1149.226)">
              <g id="Grupo_1201923" data-name="Grupo 1201923" transform="translate(-4174.49 4856.378)">
                <g id="Grupo_1176928" data-name="Grupo 1176928" transform="translate(5295.49 1926.273)">
                  <g id="Grupo_1172322" data-name="Grupo 1172322" transform="translate(0 0)">
                    <g id="Grupo_1164700" data-name="Grupo 1164700">
                      <g id="Grupo_1160931" data-name="Grupo 1160931">
                        <g id="Grupo_1160749" data-name="Grupo 1160749">
                          <g id="Grupo_1158891" data-name="Grupo 1158891">
                            <g id="Grupo_1157406" data-name="Grupo 1157406">
                              <g id="Grupo_1155793" data-name="Grupo 1155793">
                                <g id="Grupo_1154704" data-name="Grupo 1154704">
                                  <g id="Grupo_1150790" data-name="Grupo 1150790">
                                    <g id="Grupo_1154214" data-name="Grupo 1154214">
                                      <g id="Grupo_1152583" data-name="Grupo 1152583">
                                        <g id="Grupo_1146973" data-name="Grupo 1146973">
                                          <g id="Grupo_1146954" data-name="Grupo 1146954">
                                            <g transform="matrix(1, 0, 0, 1, -9, -6)" filter="url(#Trazado_982547)">
                                              <g id="Trazado_982547-2" data-name="Trazado 982547" transform="translate(9 6)" fill="#fef9e7">
                                                <path d="M 47.5000114440918 93.49987030029297 C 41.28938293457031 93.49987030029297 35.26534652709961 92.28384399414062 29.5951976776123 89.88558959960938 C 24.11773109436035 87.56881713867188 19.19814491271973 84.25183868408203 14.97310447692871 80.02680206298828 C 10.74805164337158 75.80176544189453 7.43107795715332 70.88218688964844 5.114304542541504 65.40472412109375 C 2.716038227081299 59.73458862304688 1.500011444091797 53.71054840087891 1.500011444091797 47.49993515014648 C 1.500011444091797 41.28932189941406 2.716038227081299 35.26528167724609 5.114304542541504 29.59514808654785 C 7.43107795715332 24.1176815032959 10.74805164337158 19.1981086730957 14.97310447692871 14.97306823730469 C 19.19814491271973 10.74802875518799 24.11773109436035 7.431055068969727 29.5951976776123 5.11428165435791 C 35.26534652709961 2.716028451919556 41.28938293457031 1.500001788139343 47.5000114440918 1.500001788139343 C 53.71063995361328 1.500001788139343 59.73467636108398 2.716028451919556 65.40482330322266 5.11428165435791 C 70.88229370117188 7.431055068969727 75.8018798828125 10.74802875518799 80.02691650390625 14.97306823730469 C 84.25196838378906 19.1981086730957 87.56894683837891 24.1176815032959 89.88571929931641 29.59514808654785 C 92.28398132324219 35.26528167724609 93.50001525878906 41.28932189941406 93.50001525878906 47.49993515014648 C 93.50001525878906 53.71054840087891 92.28398132324219 59.73458862304688 89.88571929931641 65.40472412109375 C 87.56894683837891 70.88218688964844 84.25196838378906 75.80176544189453 80.02691650390625 80.02680206298828 C 75.8018798828125 84.25183868408203 70.88229370117188 87.56881713867188 65.40482330322266 89.88558959960938 C 59.73467636108398 92.28384399414062 53.71063995361328 93.49987030029297 47.5000114440918 93.49987030029297 Z" stroke="none"/>
                                                <path d="M 47.5000114440918 3 C 41.49122619628906 3 35.66378021240234 4.1761474609375 30.17951965332031 6.495796203613281 C 24.880859375 8.7369384765625 20.12153625488281 11.94596862792969 16.03376770019531 16.03373718261719 C 11.94598388671875 20.12149047851562 8.736968994140625 24.88081359863281 6.495811462402344 30.17947387695312 C 4.176162719726562 35.66371917724609 3.000007629394531 41.49116516113281 3.000007629394531 47.49993515014648 C 3.000007629394531 53.50870513916016 4.176162719726562 59.33615112304688 6.495811462402344 64.82039642333984 C 8.736968994140625 70.11905670166016 11.94598388671875 74.87837982177734 16.03376770019531 78.96613311767578 C 20.12153625488281 83.05390167236328 24.880859375 86.26293182373047 30.17951965332031 88.50407409667969 C 35.66378021240234 90.82372283935547 41.49122619628906 91.99987030029297 47.5000114440918 91.99987030029297 C 53.50879669189453 91.99987030029297 59.33624267578125 90.82372283935547 64.82050323486328 88.50407409667969 C 70.11916351318359 86.26293182373047 74.87848663330078 83.05390167236328 78.96625518798828 78.96613311767578 C 83.05403900146484 74.87837982177734 86.2630615234375 70.11905670166016 88.50421142578125 64.82039642333984 C 90.82386016845703 59.33615112304688 92.00001525878906 53.50870513916016 92.00001525878906 47.49993515014648 C 92.00001525878906 41.49116516113281 90.82386016845703 35.66371917724609 88.50421142578125 30.17947387695312 C 86.2630615234375 24.88081359863281 83.05403900146484 20.12149047851562 78.96625518798828 16.03373718261719 C 74.87848663330078 11.94596862792969 70.11916351318359 8.7369384765625 64.82050323486328 6.495796203613281 C 59.33624267578125 4.1761474609375 53.50879669189453 3 47.5000114440918 3 M 47.5000114440918 0 C 73.73353576660156 0 95.00001525878906 21.26644134521484 95.00001525878906 47.49993515014648 C 95.00001525878906 73.73342895507812 73.73353576660156 94.99987030029297 47.5000114440918 94.99987030029297 C 21.26648712158203 94.99987030029297 7.62939453125e-06 73.73342895507812 7.62939453125e-06 47.49993515014648 C 7.62939453125e-06 21.26644134521484 21.26648712158203 0 47.5000114440918 0 Z" stroke="none" fill="#f8ce24"/>
                                              </g>
                                            </g>
                                          </g>
                                        </g>
                                      </g>
                                    </g>
                                  </g>
                                </g>
                              </g>
                            </g>
                          </g>
                        </g>
                      </g>
                    </g>
                  </g>
                </g>
              </g>
            </g>
          </g>
        </g>
      </g>
    </g>
    <g id="acoustic-panel_17991586" transform="translate(1109.15 12884.154)">
      <g id="Grupo_1210403" data-name="Grupo 1210403" transform="translate(26.811 24.107)">
        <path id="Trazado_1050557" data-name="Trazado 1050557" d="M432.14,39.97h6.99V98.746h-6.99Z" transform="translate(-377.062 -39.97)" fill="#666766" fill-rule="evenodd"/>
        <path id="Trazado_1050558" data-name="Trazado 1050558" d="M34.071,164.014h6.3l8.759-5.232a1.233,1.233,0,0,1,1.862,1.061v23.572a1.229,1.229,0,0,1-1.862,1.059l-8.759-5.228h-6.3A1.254,1.254,0,0,1,32.82,178V165.261a1.251,1.251,0,0,1,1.251-1.247Z" transform="translate(-32.82 -142.24)" fill="#b0be92" fill-rule="evenodd"/>
        <path id="Trazado_1050559" data-name="Trazado 1050559" d="M50.994,197.942V216.26a1.229,1.229,0,0,1-1.862,1.059l-8.759-5.228h-6.3a1.254,1.254,0,0,1-1.251-1.251v-7.48a1.251,1.251,0,0,1,1.251-1.247h6.3l8.759-5.232a1.233,1.233,0,0,1,1.862,1.059Z" transform="translate(-32.82 -175.085)" fill="#c3d3a2" fill-rule="evenodd"/>
        <path id="Trazado_1050560" data-name="Trazado 1050560" d="M355.015,98.746a5.481,5.481,0,0,0-2.943-4.563l-1.247-.673a5.1,5.1,0,0,1,0-9.121l1.247-.676a5.1,5.1,0,0,0,0-9.121l-1.247-.673a5.1,5.1,0,0,1,0-9.121l1.247-.673a5.1,5.1,0,0,0,0-9.121l-1.247-.676a5.1,5.1,0,0,1,0-9.121l1.247-.673a5.472,5.472,0,0,0,2.943-4.563h4.6V98.746Z" transform="translate(-304.536 -39.97)" fill="#8f8f8f" fill-rule="evenodd"/>
      </g>
      <path id="Trazado_1050561" data-name="Trazado 1050561" d="M81.894,23.142h6.99a.967.967,0,0,1,.966.966V82.884a.968.968,0,0,1-.966.966H77.291a.966.966,0,0,1-.966-.957,4.574,4.574,0,0,0-.708-2.154c-1.388-2.15-3.738-1.786-5.415-4.5a6.062,6.062,0,0,1,0-6.3c1.681-2.726,4.09-2.374,5.407-4.508a4.173,4.173,0,0,0,0-4.277c-1.317-2.135-3.726-1.786-5.407-4.508a6.062,6.062,0,0,1,0-6.3c1.681-2.721,4.09-2.374,5.407-4.508a4.173,4.173,0,0,0,0-4.277c-1.317-2.135-3.726-1.783-5.407-4.508a6.062,6.062,0,0,1,0-6.3c1.677-2.709,4.028-2.35,5.415-4.5a4.643,4.643,0,0,0,.712-2.206.964.964,0,0,1,.961-.9v0h4.6Zm-.966,58.776V25.073h-2.8a6.405,6.405,0,0,1-3.327,4.446,6.744,6.744,0,0,0-2.964,2.248,4.166,4.166,0,0,0,0,4.273c1.317,2.135,3.726,1.786,5.407,4.512a6.055,6.055,0,0,1,0,6.3c-1.681,2.726-4.09,2.377-5.407,4.512a4.166,4.166,0,0,0,0,4.273c1.317,2.135,3.726,1.786,5.407,4.512a6.055,6.055,0,0,1,0,6.3c-1.681,2.726-4.09,2.377-5.407,4.512a4.166,4.166,0,0,0,0,4.273c1.313,2.127,3.652,1.763,5.4,4.473a6.287,6.287,0,0,1,.891,2.221h2.8ZM54.9,78.532a.962.962,0,0,1,1.923.055l-.09,3.1,8.183-9.916-2.788-2.589a.964.964,0,0,1,1.313-1.411L66.9,70.973a.962.962,0,0,1,.051,1.357L58.375,82.72l3.2-.887a.964.964,0,1,1,.512,1.858l-6.142,1.7a.966.966,0,0,1-1.219-.954Zm8.469-39.239a.964.964,0,0,1-1.313-1.411l2.862-2.659-8.183-9.916.09,3.1a.962.962,0,0,1-1.923.055l-.177-5.9a.963.963,0,0,1,1.219-.954l6.142,1.7a.962.962,0,1,1-.512,1.854l-3.2-.884L66.949,34.66a.962.962,0,0,1-.051,1.357ZM48.609,49.619a.963.963,0,1,1,1.119-1.567,6.7,6.7,0,0,1,0,10.888.963.963,0,1,1-1.119-1.567,4.775,4.775,0,0,0,0-7.754Zm7-6.749A.962.962,0,1,1,57,41.546a17.322,17.322,0,0,1,0,23.9.962.962,0,1,1-1.4-1.326A15.412,15.412,0,0,0,55.607,42.87Zm-3.417,2.952a.962.962,0,0,1,1.455-1.259,13.632,13.632,0,0,1,0,17.865.962.962,0,0,1-1.455-1.259A11.735,11.735,0,0,0,52.191,45.822Zm-24.128-.906H34.1l8.527-5.091a2.2,2.2,0,0,1,3.323,1.884V65.285a2.2,2.2,0,0,1-3.323,1.88L34.1,62.078H28.062a2.217,2.217,0,0,1-2.212-2.217V47.128a2.216,2.216,0,0,1,2.212-2.212Zm6.3,1.927h-6.3a.284.284,0,0,0-.281.286V59.862a.284.284,0,0,0,.281.286h6.3a.975.975,0,0,1,.492.137l8.761,5.232a.263.263,0,0,0,.4-.23V41.709a.264.264,0,0,0-.4-.234l-8.7,5.192A.934.934,0,0,1,34.366,46.842Zm53.553-21.77H82.86V81.918h5.059Z" transform="translate(0)"/>
    </g>
  </g>
</svg>
