<svg xmlns="http://www.w3.org/2000/svg" xmlns:xlink="http://www.w3.org/1999/xlink" width="118" height="118" viewBox="0 0 118 118">
  <defs>
    <filter id="Trazado_982547" x="0" y="0" width="118" height="118" filterUnits="userSpaceOnUse">
      <feOffset dy="3" input="SourceAlpha"/>
      <feGaussianBlur stdDeviation="3" result="blur"/>
      <feFlood flood-opacity="0.161"/>
      <feComposite operator="in" in2="blur"/>
      <feComposite in="SourceGraphic"/>
    </filter>
  </defs>
  <g id="Grupo_1210449" data-name="Grupo 1210449" transform="translate(-265 -13883.072)">
    <g id="Grupo_1210141" data-name="Grupo 1210141" transform="translate(0 8472.707)">
      <g id="Grupo_1209179" data-name="Grupo 1209179" transform="translate(-528.49 4180.149)">
        <g id="Grupo_1208492" data-name="Grupo 1208492" transform="translate(802.49 1236.215)">
          <g id="Grupo_1177675" data-name="Grupo 1177675" transform="translate(0 0)">
            <g id="Grupo_1176928" data-name="Grupo 1176928" transform="translate(0)">
              <g id="Grupo_1172322" data-name="Grupo 1172322" transform="translate(0 0)">
                <g id="Grupo_1164700" data-name="Grupo 1164700">
                  <g id="Grupo_1160931" data-name="Grupo 1160931">
                    <g id="Grupo_1160749" data-name="Grupo 1160749">
                      <g id="Grupo_1158891" data-name="Grupo 1158891">
                        <g id="Grupo_1157406" data-name="Grupo 1157406">
                          <g id="Grupo_1155793" data-name="Grupo 1155793">
                            <g id="Grupo_1154704" data-name="Grupo 1154704">
                              <g id="Grupo_1150790" data-name="Grupo 1150790">
                                <g id="Grupo_1154214" data-name="Grupo 1154214">
                                  <g id="Grupo_1152583" data-name="Grupo 1152583">
                                    <g id="Grupo_1146973" data-name="Grupo 1146973">
                                      <g id="Grupo_1146954" data-name="Grupo 1146954">
                                        <g transform="matrix(1, 0, 0, 1, -9, -6)" filter="url(#Trazado_982547)">
                                          <g id="Trazado_982547-2" data-name="Trazado 982547" transform="translate(9 6)" fill="#fbedfe">
                                            <path d="M 49.99995803833008 98.49976348876953 C 43.45184326171875 98.49976348876953 37.10039901733398 97.2176513671875 31.1220588684082 94.68901824951172 C 25.34690093994141 92.246337890625 20.15995788574219 88.74910736083984 15.70531558990479 84.29447937011719 C 11.25068664550781 79.83985137939453 7.753458023071289 74.65290832519531 5.31077241897583 68.87776184082031 C 2.782143831253052 62.89942169189453 1.500015139579773 56.54797744750977 1.500015139579773 49.9998779296875 C 1.500015139579773 43.45177841186523 2.782143831253052 37.10033416748047 5.31077241897583 31.12199211120605 C 7.753458023071289 25.34684944152832 11.25068664550781 20.15992164611816 15.70531558990479 15.70529174804688 C 20.15995788574219 11.25066375732422 25.34688568115234 7.753435134887695 31.1220588684082 5.310749530792236 C 37.10039901733398 2.782120704650879 43.45184326171875 1.500006556510925 49.99995803833008 1.500006556510925 C 56.54807281494141 1.500006556510925 62.89951705932617 2.782120704650879 68.87786865234375 5.310749530792236 C 74.65303039550781 7.753435134887695 79.83997344970703 11.25066375732422 84.29460144042969 15.70529174804688 C 88.74924468994141 20.15992164611816 92.24647521972656 25.34684944152832 94.68915557861328 31.12199211120605 C 97.21778869628906 37.10033416748047 98.49991607666016 43.45177841186523 98.49991607666016 49.9998779296875 C 98.49991607666016 56.54797744750977 97.21778869628906 62.89942169189453 94.68915557861328 68.87776184082031 C 92.24647521972656 74.65290832519531 88.74924468994141 79.83985137939453 84.29460144042969 84.29447937011719 C 79.83997344970703 88.74910736083984 74.65303039550781 92.246337890625 68.87786865234375 94.68901824951172 C 62.89951705932617 97.2176513671875 56.54807281494141 98.49976348876953 49.99995803833008 98.49976348876953 Z" stroke="none"/>
                                            <path d="M 49.99995803833008 3 C 43.65368270874023 3 37.49883651733398 4.24224853515625 31.70637512207031 6.692245483398438 C 26.11001586914062 9.059310913085938 21.08334350585938 12.44858551025391 16.76597595214844 16.76595306396484 C 12.44860076904297 21.08330535888672 9.059326171875 26.10997009277344 6.692268371582031 31.70632171630859 C 4.242263793945312 37.49877166748047 3.000007629394531 43.65361785888672 3.000007629394531 49.9998779296875 C 3.000007629394531 56.34613800048828 4.242263793945312 62.50098419189453 6.692268371582031 68.29343414306641 C 9.059326171875 73.88978576660156 12.44860076904297 78.91644287109375 16.76597595214844 83.23380279541016 C 21.08334350585938 87.55117034912109 26.11001586914062 90.94044494628906 31.70637512207031 93.30751037597656 C 37.49883651733398 95.75750732421875 43.65368270874023 96.999755859375 49.99995803833008 96.999755859375 C 56.34623336791992 96.999755859375 62.50107955932617 95.75750732421875 68.29354095458984 93.30751037597656 C 73.889892578125 90.94044494628906 78.91657257080078 87.55117034912109 83.23394012451172 83.23380279541016 C 87.55131530761719 78.91644287109375 90.94058990478516 73.88978576660156 93.30764770507812 68.29343414306641 C 95.75765228271484 62.50098419189453 96.99990844726562 56.34613800048828 96.99990844726562 49.9998779296875 C 96.99990844726562 43.65361785888672 95.75765228271484 37.49877166748047 93.30764770507812 31.70632171630859 C 90.94058990478516 26.10997009277344 87.55131530761719 21.08330535888672 83.23394012451172 16.76595306396484 C 78.91657257080078 12.44858551025391 73.889892578125 9.059310913085938 68.29354095458984 6.692245483398438 C 62.50107955932617 4.24224853515625 56.34623336791992 3 49.99995803833008 3 M 49.99995803833008 0 C 77.61415863037109 0 99.99990844726562 22.38571166992188 99.99990844726562 49.9998779296875 C 99.99990844726562 77.61404418945312 77.61415863037109 99.999755859375 49.99995803833008 99.999755859375 C 22.38575744628906 99.999755859375 7.62939453125e-06 77.61404418945312 7.62939453125e-06 49.9998779296875 C 7.62939453125e-06 22.38571166992188 22.38575744628906 0 49.99995803833008 0 Z" stroke="none" fill="#7b3289"/>
                                          </g>
                                        </g>
                                      </g>
                                    </g>
                                  </g>
                                </g>
                              </g>
                            </g>
                          </g>
                        </g>
                      </g>
                    </g>
                  </g>
                </g>
              </g>
            </g>
          </g>
        </g>
      </g>
    </g>
    <g id="Page-1" transform="translate(295.33 13902.947)">
      <g id="_037---Potion-Bottle" data-name="037---Potion-Bottle" transform="translate(0 -0.001)">
        <path id="Shape" d="M36.5,6.778a4.778,4.778,0,0,1-4.778,4.778,4.7,4.7,0,0,1-1.792-.346,12.9,12.9,0,0,0-.6,3.93H22.167a12.9,12.9,0,0,0-.6-3.93,4.7,4.7,0,0,1-1.792.346,4.778,4.778,0,1,1,0-9.557,4.7,4.7,0,0,1,3.237,1.29,3.545,3.545,0,0,1,5.471,0A4.7,4.7,0,0,1,31.724,2,4.778,4.778,0,0,1,36.5,6.778Z" transform="translate(2.919 -0.805)" fill="#f5f5f5"/>
        <path id="Shape-2" data-name="Shape" d="M29.973,2a4.67,4.67,0,0,0-1.792.358,4.778,4.778,0,0,1-1.792,9.2A4.7,4.7,0,0,1,24.6,11.21a12.9,12.9,0,0,0-.6,3.93h3.584a12.9,12.9,0,0,1,.6-3.93,4.7,4.7,0,0,0,1.792.346,4.778,4.778,0,0,0,0-9.557Z" transform="translate(4.67 -0.805)" fill="#cfd8dc"/>
        <path id="Shape-3" data-name="Shape" d="M43.167,17.543a4.778,4.778,0,0,0,4.778-4.778c0-3.584-5.973-7.167-11.946-2.389,0,0,1.195,0,2.389,3.584A5.224,5.224,0,0,0,43.167,17.543Z" transform="translate(7.005 0.377)" fill="#9e9e9e"/>
        <path id="Shape-4" data-name="Shape" d="M39.448,8.3c2.516.632,4.243,2.542,4.243,4.464a4.778,4.778,0,0,1-2.935,4.408,5.488,5.488,0,0,0,1.74.37,4.778,4.778,0,0,0,4.778-4.778c0-2.748-3.5-5.474-7.827-4.464Z" transform="translate(7.675 0.379)" fill="#707070"/>
        <path id="Shape-5" data-name="Shape" d="M6.778,17.543A4.778,4.778,0,0,1,2,12.764C2,9.181,7.973,5.6,13.946,10.375c0,0-1.195,0-2.389,3.584A5.224,5.224,0,0,1,6.778,17.543Z" transform="translate(0.389 0.377)" fill="#9e9e9e"/>
        <path id="Shape-6" data-name="Shape" d="M53.561,30.919H36.837a1.2,1.2,0,0,1-1.195-1.195V17.778h1.195a2.4,2.4,0,0,0,2.354-2.8A2.493,2.493,0,0,0,36.691,13H20.113a2.389,2.389,0,0,0-2.355,2.8,2.493,2.493,0,0,0,2.5,1.982h1.049V29.724a1.2,1.2,0,0,1-1.195,1.195H3.389A2.389,2.389,0,0,0,1,33.308V66.756a2.389,2.389,0,0,0,2.389,2.389H53.561a2.389,2.389,0,0,0,2.389-2.389V33.308a2.389,2.389,0,0,0-2.389-2.389Z" transform="translate(0.195 1.335)" fill="#02a9f4"/>
        <path id="Shape-7" data-name="Shape" d="M30.549,14.981a2.4,2.4,0,0,1-2.354,2.8H27V29.724a1.2,1.2,0,0,0,1.195,1.195h3.584a1.2,1.2,0,0,1-1.195-1.195V17.778h1.195a2.4,2.4,0,0,0,2.354-2.8A2.493,2.493,0,0,0,31.633,13H28.049A2.493,2.493,0,0,1,30.549,14.981Z" transform="translate(5.253 1.335)" fill="#0377bc"/>
        <path id="Shape-8" data-name="Shape" d="M45.584,28H42a2.389,2.389,0,0,1,2.389,2.389V63.837A2.389,2.389,0,0,1,42,66.226h3.584a2.389,2.389,0,0,0,2.389-2.389V30.389A2.389,2.389,0,0,0,45.584,28Z" transform="translate(8.172 4.254)" fill="#0377bc"/>
        <path id="Shape-9" data-name="Shape" d="M50.394,35.722V60.062H5V35.722s7.167-2.389,22.7,2.389S50.394,35.722,50.394,35.722Z" transform="translate(0.973 5.64)" fill="#ffdc00"/>
        <path id="Shape-10" data-name="Shape" d="M40,37.871V59.964h3.584V35.625A12.782,12.782,0,0,1,40,37.871Z" transform="translate(7.783 5.738)" fill="#fec108"/>
        <circle id="Oval" cx="2.5" cy="2.5" r="2.5" transform="translate(11.67 46.836)" fill="#ff9801"/>
        <circle id="Oval-2" data-name="Oval" cx="2.5" cy="2.5" r="2.5" transform="translate(17.67 55.836)" fill="#ff9801"/>
        <circle id="Oval-3" data-name="Oval" cx="2.5" cy="2.5" r="2.5" transform="translate(41.67 55.836)" fill="#ff9801"/>
        <circle id="Oval-4" data-name="Oval" cx="2.5" cy="2.5" r="2.5" transform="translate(27.67 49.836)" fill="#ff9801"/>
        <g id="Grupo_1210448" data-name="Grupo 1210448">
          <path id="Shape-11" data-name="Shape" d="M35.956,11.74c.14.1.778.638,1.5,2.792a6.4,6.4,0,0,0,5.91,4.4,5.98,5.98,0,0,0,5.973-5.973A5.948,5.948,0,0,0,45.7,7.868c-3.146-1.512-6.981-.851-10.257,1.769a1.195,1.195,0,0,0,.506,2.1Zm8.72-1.719a3.636,3.636,0,0,1,2.27,2.939,3.584,3.584,0,0,1-3.578,3.584,4.023,4.023,0,0,1-3.652-2.767,10.7,10.7,0,0,0-1.531-3.136,6.831,6.831,0,0,1,6.484-.62Z" transform="translate(6.81 0.182)"/>
          <path id="Shape-12" data-name="Shape" d="M12.884,14.531c.717-2.15,1.357-2.694,1.5-2.792a1.195,1.195,0,0,0,.506-2.1C11.611,7.018,7.778,6.355,4.63,7.868A5.948,5.948,0,0,0,1,12.959a5.98,5.98,0,0,0,5.973,5.973A6.4,6.4,0,0,0,12.884,14.531ZM3.389,12.959a3.636,3.636,0,0,1,2.277-2.939,5.758,5.758,0,0,1,2.5-.558,7.875,7.875,0,0,1,3.978,1.178,10.7,10.7,0,0,0-1.531,3.136,4.023,4.023,0,0,1-3.641,2.767A3.584,3.584,0,0,1,3.389,12.959Z" transform="translate(0.195 0.182)"/>
          <path id="Shape-13" data-name="Shape" d="M0,35.643V69.091a3.584,3.584,0,0,0,3.584,3.584H53.756a3.584,3.584,0,0,0,3.584-3.584V35.643a3.584,3.584,0,0,0-3.584-3.584H37.032V21.308a3.592,3.592,0,0,0,3.534-4.191,3.7,3.7,0,0,0-3.679-2.977h-3.37a11.627,11.627,0,0,1,.194-1.283A5.966,5.966,0,1,0,34.643,1a5.883,5.883,0,0,0-3.166.921,4.865,4.865,0,0,0-5.614,0A5.883,5.883,0,0,0,22.7,1a5.973,5.973,0,1,0,.932,11.857,11.31,11.31,0,0,1,.194,1.283H20.308a3.59,3.59,0,0,0-3.534,4.191,3.7,3.7,0,0,0,3.534,2.977V32.059H3.584A3.584,3.584,0,0,0,0,35.643ZM25.627,11.126a1.142,1.142,0,0,0-.035-.178c-.01-.023-.029-.036-.039-.057a10.048,10.048,0,0,0-2.012-3.568A1.195,1.195,0,0,0,21.845,9a6.558,6.558,0,0,1,1,1.536c-.051,0-.1.017-.152.017a3.584,3.584,0,0,1,0-7.167,3.507,3.507,0,0,1,2.417.965,1.175,1.175,0,0,0,.892.323,1.2,1.2,0,0,0,.847-.428,2.421,2.421,0,0,1,3.634,0,1.2,1.2,0,0,0,.847.428,1.172,1.172,0,0,0,.892-.323,3.507,3.507,0,0,1,2.417-.965,3.584,3.584,0,0,1,0,7.167c-.051,0-.1-.012-.151-.014a6.649,6.649,0,0,1,1-1.539A1.195,1.195,0,0,0,33.8,7.319a10.047,10.047,0,0,0-2.012,3.572c-.011.022-.03.035-.039.057a1.142,1.142,0,0,0-.035.178,13.316,13.316,0,0,0-.579,3.014H26.206A13.316,13.316,0,0,0,25.627,11.126ZM2.389,35.643a1.2,1.2,0,0,1,1.195-1.195H20.308A2.389,2.389,0,0,0,22.7,32.059V21.308h2.389a1.195,1.195,0,1,0,0-2.389H20.453a1.314,1.314,0,0,1-1.322-.986,1.179,1.179,0,0,1,.264-.976,1.2,1.2,0,0,1,.913-.428H36.886a1.314,1.314,0,0,1,1.322.984,1.18,1.18,0,0,1-.264.977,1.2,1.2,0,0,1-.913.428H32.253a1.195,1.195,0,0,0,0,2.389h2.389V32.059a2.389,2.389,0,0,0,2.389,2.389H53.756a1.2,1.2,0,0,1,1.195,1.195V69.091a1.2,1.2,0,0,1-1.195,1.195H3.584a1.2,1.2,0,0,1-1.195-1.195Z" transform="translate(0 -0.999)"/>
          <path id="Shape-14" data-name="Shape" d="M5.193,61.451H50.587a1.2,1.2,0,0,0,1.195-1.195V35.917a1.195,1.195,0,0,0-2.031-.848c-.278.27-6.929,6.578-21.5,2.1C12.538,32.331,5.131,34.683,4.823,34.783a1.2,1.2,0,0,0-.817,1.134V60.256a1.2,1.2,0,0,0,1.187,1.195ZM6.388,36.864c2.249-.416,9.15-1.109,21.151,2.584,11.489,3.536,18.619.785,21.853-1.172V59.062h-43Z" transform="translate(0.779 5.446)"/>
          <path id="Shape-15" data-name="Shape" d="M16.167,42.584a3.584,3.584,0,1,0-3.584,3.584A3.584,3.584,0,0,0,16.167,42.584Zm-3.584,1.195a1.195,1.195,0,1,1,1.195-1.195A1.195,1.195,0,0,1,12.584,43.778Z" transform="translate(1.751 6.394)"/>
          <path id="Shape-16" data-name="Shape" d="M17.584,47a3.584,3.584,0,1,0,3.584,3.584A3.584,3.584,0,0,0,17.584,47Zm0,4.778a1.195,1.195,0,1,1,1.195-1.195A1.195,1.195,0,0,1,17.584,51.778Z" transform="translate(2.724 7.951)"/>
          <path id="Shape-17" data-name="Shape" d="M37.584,47a3.584,3.584,0,1,0,3.584,3.584A3.584,3.584,0,0,0,37.584,47Zm0,4.778a1.195,1.195,0,1,1,1.195-1.195A1.195,1.195,0,0,1,37.584,51.778Z" transform="translate(6.615 7.951)"/>
          <path id="Shape-18" data-name="Shape" d="M25.584,42a3.584,3.584,0,1,0,3.584,3.584A3.584,3.584,0,0,0,25.584,42Zm0,4.778a1.195,1.195,0,1,1,1.195-1.195A1.195,1.195,0,0,1,25.584,46.778Z" transform="translate(4.281 6.978)"/>
          <ellipse id="Oval-5" data-name="Oval" cx="1" cy="1.5" rx="1" ry="1.5" transform="translate(38.67 49.836)"/>
          <circle id="Oval-6" data-name="Oval" cx="1" cy="1" r="1" transform="translate(33.67 58.836)"/>
          <circle id="Oval-7" data-name="Oval" cx="1" cy="1" r="1" transform="translate(21.67 47.836)"/>
          <circle id="Oval-8" data-name="Oval" cx="1" cy="1" r="1" transform="translate(10.67 57.836)"/>
        </g>
      </g>
    </g>
  </g>
</svg>
