<svg xmlns="http://www.w3.org/2000/svg" xmlns:xlink="http://www.w3.org/1999/xlink" width="118" height="118" viewBox="0 0 118 118">
  <defs>
    <filter id="Trazado_982547" x="0" y="0" width="118" height="118" filterUnits="userSpaceOnUse">
      <feOffset dy="3" input="SourceAlpha"/>
      <feGaussianBlur stdDeviation="3" result="blur"/>
      <feFlood flood-opacity="0.161"/>
      <feComposite operator="in" in2="blur"/>
      <feComposite in="SourceGraphic"/>
    </filter>
  </defs>
  <g id="Grupo_1210465" data-name="Grupo 1210465" transform="translate(-583.5 -13883.072)">
    <g id="Grupo_1210142" data-name="Grupo 1210142" transform="translate(0 8472.707)">
      <g id="Grupo_1209180" data-name="Grupo 1209180" transform="translate(-209.99 4180.149)">
        <g id="Grupo_1208492" data-name="Grupo 1208492" transform="translate(802.49 1236.215)">
          <g id="Grupo_1177675" data-name="Grupo 1177675" transform="translate(0 0)">
            <g id="Grupo_1176928" data-name="Grupo 1176928" transform="translate(0)">
              <g id="Grupo_1172322" data-name="Grupo 1172322" transform="translate(0 0)">
                <g id="Grupo_1164700" data-name="Grupo 1164700">
                  <g id="Grupo_1160931" data-name="Grupo 1160931">
                    <g id="Grupo_1160749" data-name="Grupo 1160749">
                      <g id="Grupo_1158891" data-name="Grupo 1158891">
                        <g id="Grupo_1157406" data-name="Grupo 1157406">
                          <g id="Grupo_1155793" data-name="Grupo 1155793">
                            <g id="Grupo_1154704" data-name="Grupo 1154704">
                              <g id="Grupo_1150790" data-name="Grupo 1150790">
                                <g id="Grupo_1154214" data-name="Grupo 1154214">
                                  <g id="Grupo_1152583" data-name="Grupo 1152583">
                                    <g id="Grupo_1146973" data-name="Grupo 1146973">
                                      <g id="Grupo_1146954" data-name="Grupo 1146954">
                                        <g transform="matrix(1, 0, 0, 1, -9, -6)" filter="url(#Trazado_982547)">
                                          <g id="Trazado_982547-2" data-name="Trazado 982547" transform="translate(9 6)" fill="#fbedfe">
                                            <path d="M 49.99995803833008 98.49976348876953 C 43.45184326171875 98.49976348876953 37.10039901733398 97.2176513671875 31.1220588684082 94.68901824951172 C 25.34690093994141 92.246337890625 20.15995788574219 88.74910736083984 15.70531558990479 84.29447937011719 C 11.25068664550781 79.83985137939453 7.753458023071289 74.65290832519531 5.31077241897583 68.87776184082031 C 2.782143831253052 62.89942169189453 1.500015139579773 56.54797744750977 1.500015139579773 49.9998779296875 C 1.500015139579773 43.45177841186523 2.782143831253052 37.10033416748047 5.31077241897583 31.12199211120605 C 7.753458023071289 25.34684944152832 11.25068664550781 20.15992164611816 15.70531558990479 15.70529174804688 C 20.15995788574219 11.25066375732422 25.34688568115234 7.753435134887695 31.1220588684082 5.310749530792236 C 37.10039901733398 2.782120704650879 43.45184326171875 1.500006556510925 49.99995803833008 1.500006556510925 C 56.54807281494141 1.500006556510925 62.89951705932617 2.782120704650879 68.87786865234375 5.310749530792236 C 74.65303039550781 7.753435134887695 79.83997344970703 11.25066375732422 84.29460144042969 15.70529174804688 C 88.74924468994141 20.15992164611816 92.24647521972656 25.34684944152832 94.68915557861328 31.12199211120605 C 97.21778869628906 37.10033416748047 98.49991607666016 43.45177841186523 98.49991607666016 49.9998779296875 C 98.49991607666016 56.54797744750977 97.21778869628906 62.89942169189453 94.68915557861328 68.87776184082031 C 92.24647521972656 74.65290832519531 88.74924468994141 79.83985137939453 84.29460144042969 84.29447937011719 C 79.83997344970703 88.74910736083984 74.65303039550781 92.246337890625 68.87786865234375 94.68901824951172 C 62.89951705932617 97.2176513671875 56.54807281494141 98.49976348876953 49.99995803833008 98.49976348876953 Z" stroke="none"/>
                                            <path d="M 49.99995803833008 3 C 43.65368270874023 3 37.49883651733398 4.24224853515625 31.70637512207031 6.692245483398438 C 26.11001586914062 9.059310913085938 21.08334350585938 12.44858551025391 16.76597595214844 16.76595306396484 C 12.44860076904297 21.08330535888672 9.059326171875 26.10997009277344 6.692268371582031 31.70632171630859 C 4.242263793945312 37.49877166748047 3.000007629394531 43.65361785888672 3.000007629394531 49.9998779296875 C 3.000007629394531 56.34613800048828 4.242263793945312 62.50098419189453 6.692268371582031 68.29343414306641 C 9.059326171875 73.88978576660156 12.44860076904297 78.91644287109375 16.76597595214844 83.23380279541016 C 21.08334350585938 87.55117034912109 26.11001586914062 90.94044494628906 31.70637512207031 93.30751037597656 C 37.49883651733398 95.75750732421875 43.65368270874023 96.999755859375 49.99995803833008 96.999755859375 C 56.34623336791992 96.999755859375 62.50107955932617 95.75750732421875 68.29354095458984 93.30751037597656 C 73.889892578125 90.94044494628906 78.91657257080078 87.55117034912109 83.23394012451172 83.23380279541016 C 87.55131530761719 78.91644287109375 90.94058990478516 73.88978576660156 93.30764770507812 68.29343414306641 C 95.75765228271484 62.50098419189453 96.99990844726562 56.34613800048828 96.99990844726562 49.9998779296875 C 96.99990844726562 43.65361785888672 95.75765228271484 37.49877166748047 93.30764770507812 31.70632171630859 C 90.94058990478516 26.10997009277344 87.55131530761719 21.08330535888672 83.23394012451172 16.76595306396484 C 78.91657257080078 12.44858551025391 73.889892578125 9.059310913085938 68.29354095458984 6.692245483398438 C 62.50107955932617 4.24224853515625 56.34623336791992 3 49.99995803833008 3 M 49.99995803833008 0 C 77.61415863037109 0 99.99990844726562 22.38571166992188 99.99990844726562 49.9998779296875 C 99.99990844726562 77.61404418945312 77.61415863037109 99.999755859375 49.99995803833008 99.999755859375 C 22.38575744628906 99.999755859375 7.62939453125e-06 77.61404418945312 7.62939453125e-06 49.9998779296875 C 7.62939453125e-06 22.38571166992188 22.38575744628906 0 49.99995803833008 0 Z" stroke="none" fill="#7b3289"/>
                                          </g>
                                        </g>
                                      </g>
                                    </g>
                                  </g>
                                </g>
                              </g>
                            </g>
                          </g>
                        </g>
                      </g>
                    </g>
                  </g>
                </g>
              </g>
            </g>
          </g>
        </g>
      </g>
    </g>
    <g id="handwash_2797196" transform="translate(608.675 13901.458)">
      <g id="Grupo_1210450" data-name="Grupo 1210450" transform="translate(20.701 0.977)">
        <circle id="Elipse_11584" data-name="Elipse 11584" cx="11.835" cy="11.835" r="11.835" fill="#ecf4ff"/>
      </g>
      <g id="Grupo_1210451" data-name="Grupo 1210451" transform="translate(33.062 10.984)">
        <path id="Trazado_1050639" data-name="Trazado 1050639" d="M253.981,98.03a11.843,11.843,0,0,0,11.168-13.649A13.962,13.962,0,0,0,253.981,98.03Z" transform="translate(-253.981 -84.381)" fill="#cbe2ff"/>
      </g>
      <g id="Grupo_1210452" data-name="Grupo 1210452" transform="translate(0.976 48.092)">
        <path id="Trazado_1050640" data-name="Trazado 1050640" d="M39.848,369.446a8.782,8.782,0,0,0-7.43,4.1,5.278,5.278,0,0,0-6.283,2.746,3.516,3.516,0,0,0-4.315,2.042,5.273,5.273,0,0,0-5.858,1.811A7.037,7.037,0,0,0,7.5,387.027H72.2a7.037,7.037,0,0,0-8.462-6.887,5.272,5.272,0,0,0-5.858-1.811,3.516,3.516,0,0,0-4.315-2.042,5.278,5.278,0,0,0-6.283-2.746A8.782,8.782,0,0,0,39.848,369.446Z" transform="translate(-7.5 -369.446)" fill="#bed8fb"/>
      </g>
      <g id="Grupo_1210453" data-name="Grupo 1210453" transform="translate(41.034 53.025)">
        <path id="Trazado_1050641" data-name="Trazado 1050641" d="M320.005,410.142a13.4,13.4,0,0,1-4.783,9.844h24.639A7.037,7.037,0,0,0,331.4,413.1a5.273,5.273,0,0,0-5.858-1.811,3.516,3.516,0,0,0-4.315-2.042,5.3,5.3,0,0,0-1.572-1.909A11.467,11.467,0,0,1,320.005,410.142Z" transform="translate(-315.222 -407.338)" fill="#9dc6fb"/>
      </g>
      <g id="Grupo_1210454" data-name="Grupo 1210454" transform="translate(36.481 14.126)">
        <circle id="Elipse_11585" data-name="Elipse 11585" cx="10.52" cy="10.52" r="10.52" fill="#ecf4ff"/>
      </g>
      <g id="Grupo_1210455" data-name="Grupo 1210455" transform="translate(38.18 15.826)">
        <path id="Trazado_1050642" data-name="Trazado 1050642" d="M307.849,121.572A10.518,10.518,0,0,1,293.3,136.123a10.519,10.519,0,1,0,14.551-14.551Z" transform="translate(-293.299 -121.572)" fill="#cbe2ff"/>
      </g>
      <g id="Grupo_1210456" data-name="Grupo 1210456" transform="translate(9.129 28.722)">
        <circle id="Elipse_11586" data-name="Elipse 11586" cx="7.89" cy="7.89" r="7.89" fill="#ecf4ff"/>
      </g>
      <g id="Grupo_1210457" data-name="Grupo 1210457" transform="translate(9.977 29.57)">
        <path id="Trazado_1050643" data-name="Trazado 1050643" d="M87.243,227.159a7.889,7.889,0,0,1-10.6,10.6,7.889,7.889,0,1,0,10.6-10.6Z" transform="translate(-76.644 -227.159)" fill="#cbe2ff"/>
      </g>
      <g id="Grupo_1210458" data-name="Grupo 1210458" transform="translate(44.239 39.637)">
        <circle id="Elipse_11587" data-name="Elipse 11587" cx="3.945" cy="3.945" r="3.945" fill="#ecf4ff"/>
      </g>
      <g id="Grupo_1210459" data-name="Grupo 1210459" transform="translate(44.663 40.061)">
        <path id="Trazado_1050644" data-name="Trazado 1050644" d="M348.4,307.745a3.944,3.944,0,0,1-5.3,5.3,3.945,3.945,0,1,0,5.3-5.3Z" transform="translate(-343.1 -307.745)" fill="#cbe2ff"/>
      </g>
      <g id="Grupo_1210460" data-name="Grupo 1210460" transform="translate(32.01 35.955)">
        <circle id="Elipse_11588" data-name="Elipse 11588" cx="2.63" cy="2.63" r="2.63" fill="#b3e59f"/>
      </g>
      <g id="Grupo_1210461" data-name="Grupo 1210461" transform="translate(50.419 27.013)">
        <path id="Trazado_1050645" data-name="Trazado 1050645" d="M389.056,211.412l-1.735.867,1.735.867a1.906,1.906,0,0,1,.918,1l1.161,2.9,1.161-2.9a1.906,1.906,0,0,1,.918-1l1.735-.867-1.735-.867a1.906,1.906,0,0,1-.918-1l-1.161-2.9-1.161,2.9A1.906,1.906,0,0,1,389.056,211.412Z" transform="translate(-387.321 -207.513)" fill="#ffe07d"/>
      </g>
      <g id="Grupo_1210462" data-name="Grupo 1210462" transform="translate(17.019 11.102)">
        <path id="Trazado_1050646" data-name="Trazado 1050646" d="M132.475,89.183l-1.735.867,1.735.867a1.906,1.906,0,0,1,.918,1l1.161,2.9,1.161-2.9a1.907,1.907,0,0,1,.918-1l1.735-.867-1.735-.867a1.906,1.906,0,0,1-.918-1l-1.161-2.9-1.161,2.9A1.907,1.907,0,0,1,132.475,89.183Z" transform="translate(-130.74 -85.284)" fill="#ffe07d"/>
      </g>
      <g id="Grupo_1210463" data-name="Grupo 1210463" transform="translate(20.044 29.709)">
        <path id="Trazado_1050647" data-name="Trazado 1050647" d="M155.709,232.12l-1.735.867,1.735.867a1.906,1.906,0,0,1,.918,1l1.161,2.9,1.161-2.9a1.907,1.907,0,0,1,.918-1l1.735-.867-1.735-.867a1.906,1.906,0,0,1-.918-1l-1.161-2.9-1.161,2.9A1.906,1.906,0,0,1,155.709,232.12Z" transform="translate(-153.974 -228.221)" fill="#ffe07d"/>
      </g>
      <g id="Grupo_1210464" data-name="Grupo 1210464" transform="translate(0 0)">
        <path id="Trazado_1050648" data-name="Trazado 1050648" d="M198.921,41.022a.976.976,0,0,0,1.365-.206,6.155,6.155,0,0,1,4.931-2.5.976.976,0,1,0,0-1.953,8.116,8.116,0,0,0-6.5,3.29.976.976,0,0,0,.206,1.365Z" transform="translate(-172.681 -31.633)"/>
        <path id="Trazado_1050649" data-name="Trazado 1050649" d="M142.887,497H102.119a.976.976,0,1,0,0,1.953h40.768a.976.976,0,1,0,0-1.953Z" transform="translate(-87.977 -432.303)"/>
        <path id="Trazado_1050650" data-name="Trazado 1050650" d="M58.641,372.494a8.057,8.057,0,0,0-1.042.068,6.251,6.251,0,0,0-5.742-1.893,4.494,4.494,0,0,0-4.324-2.007,6.253,6.253,0,0,0-6.352-2.749,9.763,9.763,0,0,0-15.713,0,6.253,6.253,0,0,0-6.352,2.749,4.494,4.494,0,0,0-4.324,2.007,6.251,6.251,0,0,0-5.741,1.893A8.011,8.011,0,0,0,0,380.5a.976.976,0,0,0,.976.976H9.585a.976.976,0,1,0,0-1.953H2.031a6.062,6.062,0,0,1,7.21-4.954.975.975,0,0,0,.974-.364,4.3,4.3,0,0,1,4.775-1.476.977.977,0,0,0,1.213-.561,2.539,2.539,0,0,1,3.117-1.475.976.976,0,0,0,1.171-.505,4.3,4.3,0,0,1,5.121-2.238.977.977,0,0,0,1.109-.412,7.811,7.811,0,0,1,13.211,0,.977.977,0,0,0,1.109.412,4.3,4.3,0,0,1,5.121,2.238.977.977,0,0,0,1.171.505,2.539,2.539,0,0,1,3.117,1.475.976.976,0,0,0,1.213.561,4.3,4.3,0,0,1,4.775,1.476.976.976,0,0,0,.974.364,6.062,6.062,0,0,1,7.21,4.954H59.492a.976.976,0,1,0,0,1.953h6.181a.976.976,0,0,0,.976-.976A8.018,8.018,0,0,0,58.641,372.494Z" transform="translate(0 -314.83)"/>
        <path id="Trazado_1050651" data-name="Trazado 1050651" d="M319.649,141.216a.976.976,0,0,0,1.374-.13,4.8,4.8,0,0,1,3.708-1.75.976.976,0,1,0,0-1.953,6.745,6.745,0,0,0-5.212,2.458A.976.976,0,0,0,319.649,141.216Z" transform="translate(-277.731 -119.5)"/>
        <path id="Trazado_1050652" data-name="Trazado 1050652" d="M71.5,230.873a8.876,8.876,0,0,0,8.861-8.665l.044-.11a.93.93,0,0,1,.448-.487l1.735-.867a.976.976,0,0,0,0-1.746l-1.735-.867a.929.929,0,0,1-.448-.487l-1.161-2.9a.976.976,0,0,0-1.813,0l-.2.5a8.866,8.866,0,1,0-5.731,15.63Zm8.468-11a2.88,2.88,0,0,0-1.376,1.5l-.254.636-.254-.636a2.88,2.88,0,0,0-1.376-1.5,2.88,2.88,0,0,0,1.376-1.5l.254-.636.254.636A2.882,2.882,0,0,0,79.965,219.871ZM71.5,215.093a6.893,6.893,0,0,1,4.953,2.094l-.183.456a.929.929,0,0,1-.448.487L74.085,219a.976.976,0,0,0,0,1.746l1.735.867a.93.93,0,0,1,.448.487l1.161,2.9a.976.976,0,0,0,.162.268A6.913,6.913,0,1,1,71.5,215.093Z" transform="translate(-54.478 -185.395)"/>
        <path id="Trazado_1050653" data-name="Trazado 1050653" d="M332.344,301.908a4.921,4.921,0,1,0,4.921-4.921A4.927,4.927,0,0,0,332.344,301.908Zm7.89,0a2.969,2.969,0,1,1-2.969-2.969A2.972,2.972,0,0,1,340.234,301.908Z" transform="translate(-289.081 -258.327)"/>
        <path id="Trazado_1050654" data-name="Trazado 1050654" d="M238.4,272.31A3.606,3.606,0,1,0,242,268.7,3.61,3.61,0,0,0,238.4,272.31Zm5.26,0A1.654,1.654,0,1,1,242,270.657,1.655,1.655,0,0,1,243.658,272.31Z" transform="translate(-207.365 -233.726)"/>
        <path id="Trazado_1050655" data-name="Trazado 1050655" d="M176.921,423.173a.976.976,0,0,0,.846-.488,2.957,2.957,0,0,1,2.457-1.481.976.976,0,1,0-.076-1.951,4.9,4.9,0,0,0-4.071,2.455.976.976,0,0,0,.844,1.465Z" transform="translate(-153.042 -364.677)"/>
        <path id="Trazado_1050656" data-name="Trazado 1050656" d="M118.332,455.043a.976.976,0,0,0,.846-.488,2.966,2.966,0,0,1,1.07-1.077.976.976,0,1,0-.984-1.686,4.923,4.923,0,0,0-1.776,1.786.976.976,0,0,0,.844,1.465Z" transform="translate(-102.08 -392.864)"/>
        <path id="Trazado_1050657" data-name="Trazado 1050657" d="M282.81,443.5h.017a2.957,2.957,0,0,1,2.505,1.375.976.976,0,0,0,1.646-1.05,4.9,4.9,0,0,0-4.151-2.278h-.021a.976.976,0,0,0,0,1.953Z" transform="translate(-245.146 -384.071)"/>
        <path id="Trazado_1050658" data-name="Trazado 1050658" d="M252.753,399.24a4.913,4.913,0,0,0-3.26-1.235h-.021a.976.976,0,0,0,0,1.953h.017a2.962,2.962,0,0,1,1.966.744.976.976,0,1,0,1.294-1.463Z" transform="translate(-216.152 -346.195)"/>
        <path id="Trazado_1050659" data-name="Trazado 1050659" d="M123.78,16.742l1.735.867a.929.929,0,0,1,.448.487l1.161,2.9a.976.976,0,0,0,1.813,0l.324-.809a12.81,12.81,0,0,0,13.458,5.081,11.5,11.5,0,0,0,16.946,9.49l.86,2.149a.976.976,0,0,0,1.813,0l1.161-2.9a.93.93,0,0,1,.448-.487l1.735-.867a.976.976,0,0,0,0-1.746l-1.416-.708a11.5,11.5,0,0,0-11.729-16.928q.008-.229.008-.459A12.826,12.826,0,0,0,139.733,0,12.681,12.681,0,0,0,134,1.352a.976.976,0,0,0,.875,1.746,10.745,10.745,0,0,1,4.859-1.145,10.871,10.871,0,0,1,10.858,10.859c0,.312-.015.624-.042.932a11.528,11.528,0,0,0-7.761,9.488,10.865,10.865,0,0,1-12.619-5.277.928.928,0,0,1,.376-.346l1.735-.867a.976.976,0,0,0,0-1.746l-1.735-.867a.93.93,0,0,1-.448-.487l-1.066-2.665a10.8,10.8,0,0,1,2.515-5.3A.976.976,0,1,0,130.074,4.4a12.745,12.745,0,0,0-3,6.476l-1.108,2.77a.93.93,0,0,1-.448.487L123.78,15a.976.976,0,0,0,0,1.746Zm37.9,16.54-.254.636-.254-.636a2.881,2.881,0,0,0-1.376-1.5,2.881,2.881,0,0,0,1.376-1.5l.254-.636.254.636a2.881,2.881,0,0,0,1.376,1.5,2.882,2.882,0,0,0-1.376,1.5ZM154.2,15.1a9.547,9.547,0,0,1,8.808,13.221l-.669-1.673a.976.976,0,0,0-1.813,0l-1.161,2.9a.929.929,0,0,1-.448.487l-1.735.867a.976.976,0,0,0,0,1.746l1.173.587A9.544,9.544,0,1,1,154.2,15.1Zm-26.423-.737.254-.636.254.636a2.88,2.88,0,0,0,1.376,1.5,2.88,2.88,0,0,0-1.376,1.5l-.254.636-.254-.636a2.88,2.88,0,0,0-1.376-1.5A2.88,2.88,0,0,0,127.775,14.366Z" transform="translate(-107.197 0)"/>
      </g>
    </g>
  </g>
</svg>
