<svg xmlns="http://www.w3.org/2000/svg" xmlns:xlink="http://www.w3.org/1999/xlink" width="118" height="118" viewBox="0 0 118 118">
  <defs>
    <filter id="Trazado_982547" x="0" y="0" width="118" height="118" filterUnits="userSpaceOnUse">
      <feOffset dy="3" input="SourceAlpha"/>
      <feGaussianBlur stdDeviation="3" result="blur"/>
      <feFlood flood-opacity="0.161"/>
      <feComposite operator="in" in2="blur"/>
      <feComposite in="SourceGraphic"/>
    </filter>
  </defs>
  <g id="Grupo_1210475" data-name="Grupo 1210475" transform="translate(-1213 -13883.072)">
    <g id="Grupo_1210144" data-name="Grupo 1210144" transform="translate(0 8472.707)">
      <g id="Grupo_1209182" data-name="Grupo 1209182" transform="translate(419.51 4180.149)">
        <g id="Grupo_1208492" data-name="Grupo 1208492" transform="translate(802.49 1236.215)">
          <g id="Grupo_1177675" data-name="Grupo 1177675" transform="translate(0 0)">
            <g id="Grupo_1176928" data-name="Grupo 1176928" transform="translate(0)">
              <g id="Grupo_1172322" data-name="Grupo 1172322" transform="translate(0 0)">
                <g id="Grupo_1164700" data-name="Grupo 1164700">
                  <g id="Grupo_1160931" data-name="Grupo 1160931">
                    <g id="Grupo_1160749" data-name="Grupo 1160749">
                      <g id="Grupo_1158891" data-name="Grupo 1158891">
                        <g id="Grupo_1157406" data-name="Grupo 1157406">
                          <g id="Grupo_1155793" data-name="Grupo 1155793">
                            <g id="Grupo_1154704" data-name="Grupo 1154704">
                              <g id="Grupo_1150790" data-name="Grupo 1150790">
                                <g id="Grupo_1154214" data-name="Grupo 1154214">
                                  <g id="Grupo_1152583" data-name="Grupo 1152583">
                                    <g id="Grupo_1146973" data-name="Grupo 1146973">
                                      <g id="Grupo_1146954" data-name="Grupo 1146954">
                                        <g transform="matrix(1, 0, 0, 1, -9, -6)" filter="url(#Trazado_982547)">
                                          <g id="Trazado_982547-2" data-name="Trazado 982547" transform="translate(9 6)" fill="#fbedfe">
                                            <path d="M 49.99995803833008 98.49976348876953 C 43.45184326171875 98.49976348876953 37.10039901733398 97.2176513671875 31.1220588684082 94.68901824951172 C 25.34690093994141 92.246337890625 20.15995788574219 88.74910736083984 15.70531558990479 84.29447937011719 C 11.25068664550781 79.83985137939453 7.753458023071289 74.65290832519531 5.31077241897583 68.87776184082031 C 2.782143831253052 62.89942169189453 1.500015139579773 56.54797744750977 1.500015139579773 49.9998779296875 C 1.500015139579773 43.45177841186523 2.782143831253052 37.10033416748047 5.31077241897583 31.12199211120605 C 7.753458023071289 25.34684944152832 11.25068664550781 20.15992164611816 15.70531558990479 15.70529174804688 C 20.15995788574219 11.25066375732422 25.34688568115234 7.753435134887695 31.1220588684082 5.310749530792236 C 37.10039901733398 2.782120704650879 43.45184326171875 1.500006556510925 49.99995803833008 1.500006556510925 C 56.54807281494141 1.500006556510925 62.89951705932617 2.782120704650879 68.87786865234375 5.310749530792236 C 74.65303039550781 7.753435134887695 79.83997344970703 11.25066375732422 84.29460144042969 15.70529174804688 C 88.74924468994141 20.15992164611816 92.24647521972656 25.34684944152832 94.68915557861328 31.12199211120605 C 97.21778869628906 37.10033416748047 98.49991607666016 43.45177841186523 98.49991607666016 49.9998779296875 C 98.49991607666016 56.54797744750977 97.21778869628906 62.89942169189453 94.68915557861328 68.87776184082031 C 92.24647521972656 74.65290832519531 88.74924468994141 79.83985137939453 84.29460144042969 84.29447937011719 C 79.83997344970703 88.74910736083984 74.65303039550781 92.246337890625 68.87786865234375 94.68901824951172 C 62.89951705932617 97.2176513671875 56.54807281494141 98.49976348876953 49.99995803833008 98.49976348876953 Z" stroke="none"/>
                                            <path d="M 49.99995803833008 3 C 43.65368270874023 3 37.49883651733398 4.24224853515625 31.70637512207031 6.692245483398438 C 26.11001586914062 9.059310913085938 21.08334350585938 12.44858551025391 16.76597595214844 16.76595306396484 C 12.44860076904297 21.08330535888672 9.059326171875 26.10997009277344 6.692268371582031 31.70632171630859 C 4.242263793945312 37.49877166748047 3.000007629394531 43.65361785888672 3.000007629394531 49.9998779296875 C 3.000007629394531 56.34613800048828 4.242263793945312 62.50098419189453 6.692268371582031 68.29343414306641 C 9.059326171875 73.88978576660156 12.44860076904297 78.91644287109375 16.76597595214844 83.23380279541016 C 21.08334350585938 87.55117034912109 26.11001586914062 90.94044494628906 31.70637512207031 93.30751037597656 C 37.49883651733398 95.75750732421875 43.65368270874023 96.999755859375 49.99995803833008 96.999755859375 C 56.34623336791992 96.999755859375 62.50107955932617 95.75750732421875 68.29354095458984 93.30751037597656 C 73.889892578125 90.94044494628906 78.91657257080078 87.55117034912109 83.23394012451172 83.23380279541016 C 87.55131530761719 78.91644287109375 90.94058990478516 73.88978576660156 93.30764770507812 68.29343414306641 C 95.75765228271484 62.50098419189453 96.99990844726562 56.34613800048828 96.99990844726562 49.9998779296875 C 96.99990844726562 43.65361785888672 95.75765228271484 37.49877166748047 93.30764770507812 31.70632171630859 C 90.94058990478516 26.10997009277344 87.55131530761719 21.08330535888672 83.23394012451172 16.76595306396484 C 78.91657257080078 12.44858551025391 73.889892578125 9.059310913085938 68.29354095458984 6.692245483398438 C 62.50107955932617 4.24224853515625 56.34623336791992 3 49.99995803833008 3 M 49.99995803833008 0 C 77.61415863037109 0 99.99990844726562 22.38571166992188 99.99990844726562 49.9998779296875 C 99.99990844726562 77.61404418945312 77.61415863037109 99.999755859375 49.99995803833008 99.999755859375 C 22.38575744628906 99.999755859375 7.62939453125e-06 77.61404418945312 7.62939453125e-06 49.9998779296875 C 7.62939453125e-06 22.38571166992188 22.38575744628906 0 49.99995803833008 0 Z" stroke="none" fill="#7b3289"/>
                                          </g>
                                        </g>
                                      </g>
                                    </g>
                                  </g>
                                </g>
                              </g>
                            </g>
                          </g>
                        </g>
                      </g>
                    </g>
                  </g>
                </g>
              </g>
            </g>
          </g>
        </g>
      </g>
    </g>
    <g id="nuclear-weapon_11299052_1_" data-name="nuclear-weapon_11299052 (1)" transform="translate(1233.042 13895.826)">
      <g id="Grupo_1210470" data-name="Grupo 1210470" transform="translate(7.5 7.5)">
        <rect id="Rectángulo_419602" data-name="Rectángulo 419602" width="8.359" height="48.475" transform="translate(27.778 9.876)" fill="#fff"/>
        <rect id="Rectángulo_419603" data-name="Rectángulo 419603" width="3.215" height="48.475" transform="translate(27.778 9.876)" fill="#e3e9ee"/>
        <path id="Trazado_1050702" data-name="Trazado 1050702" d="M174.62,219.423a3.372,3.372,0,0,0-2.051.692,3.385,3.385,0,0,0-4.1,0,3.385,3.385,0,0,0-3.962-.1,3.385,3.385,0,0,0-3.962.1,3.385,3.385,0,0,0-4.1,0,3.388,3.388,0,1,0,0,5.391,3.385,3.385,0,0,0,4.1,0,3.385,3.385,0,0,0,3.962.1,3.385,3.385,0,0,0,3.962-.1,3.385,3.385,0,0,0,4.1,0,3.387,3.387,0,1,0,2.051-6.083Z" transform="translate(-132.547 -192.169)" fill="#ff6a47"/>
        <path id="Trazado_1050703" data-name="Trazado 1050703" d="M121.106,13.8a5.5,5.5,0,0,0-1.375.173,6.947,6.947,0,0,0-9.631-3.184,6.944,6.944,0,0,0-11.811,0,6.947,6.947,0,0,0-9.631,3.184,5.493,5.493,0,1,0,2.787,8.9,6.9,6.9,0,0,0,3.252.95,5.491,5.491,0,0,0,9.5,2.708,5.491,5.491,0,0,0,9.5-2.708,6.9,6.9,0,0,0,3.252-.95,5.492,5.492,0,1,0,4.162-9.074Z" transform="translate(-72.237 -7.5)" fill="#ff6a47"/>
        <g id="Grupo_1210468" data-name="Grupo 1210468" transform="translate(0 44.496)">
          <path id="Trazado_1050704" data-name="Trazado 1050704" d="M35.535,363.788c-6.327,0-7.652-10.288-12.474-10.288a6.431,6.431,0,0,0-6.341,5.368,5.146,5.146,0,0,0-6.406,6.479,3.858,3.858,0,0,0,1.045,7.572h56.2a3.858,3.858,0,0,0,1.045-7.572,5.147,5.147,0,0,0-6.406-6.479,6.431,6.431,0,0,0-6.341-5.368c-4.823,0-7.372,10.288-12.474,10.288Z" transform="translate(-7.5 -353.5)" fill="#fff"/>
          <path id="Trazado_1050705" data-name="Trazado 1050705" d="M12.262,370.071a3.837,3.837,0,0,1,2.887-3.668,4.9,4.9,0,0,1-.247-1.54,5.183,5.183,0,0,1,5.278-5.081,5.468,5.468,0,0,1,1.543.221,6.433,6.433,0,0,1,4.37-4.961,4.193,4.193,0,0,0-3.032-1.543,6.431,6.431,0,0,0-6.341,5.368,5.146,5.146,0,0,0-6.406,6.479,3.858,3.858,0,0,0,1.045,7.572H13.59A3.741,3.741,0,0,1,12.262,370.071Z" transform="translate(-7.5 -353.499)" fill="#e3e9ee"/>
        </g>
        <g id="Grupo_1210469" data-name="Grupo 1210469" transform="translate(19.097 38.195)">
          <circle id="Elipse_11589" data-name="Elipse 11589" cx="12.86" cy="12.86" r="12.86" transform="translate(0 0)" fill="#fde31d"/>
          <path id="Trazado_1050706" data-name="Trazado 1050706" d="M159.572,317.36a12.862,12.862,0,0,1,11.074-12.736,12.86,12.86,0,1,0,0,25.472A12.862,12.862,0,0,1,159.572,317.36Z" transform="translate(-156 -304.5)" fill="#e7c900"/>
        </g>
        <path id="Trazado_1050707" data-name="Trazado 1050707" d="M154.857,222.811a3.383,3.383,0,0,1,1.456-2.783,3.388,3.388,0,1,0,0,5.565A3.383,3.383,0,0,1,154.857,222.811Z" transform="translate(-132.545 -192.169)" fill="#fd3501"/>
        <path id="Trazado_1050708" data-name="Trazado 1050708" d="M91.766,35.252a19.925,19.925,0,0,1,.577-4.768A6.971,6.971,0,0,0,88.658,34a5.493,5.493,0,1,0,2.787,8.9,6.9,6.9,0,0,0,2.217.831A19.8,19.8,0,0,1,91.766,35.252Z" transform="translate(-72.237 -27.528)" fill="#fd3501"/>
        <path id="Trazado_1050709" data-name="Trazado 1050709" d="M204.668,351.928l5.382.614A7.787,7.787,0,0,0,205.4,344.5l-2.156,4.967a2.639,2.639,0,0,0-2.23-.1l-2.113-4.867a7.787,7.787,0,0,0-4.646,8.041l5.127-.585a2.641,2.641,0,0,0,1.219,2.088l-3.223,4.352a7.788,7.788,0,0,0,9.287,0l-3.223-4.352A2.641,2.641,0,0,0,204.668,351.928Z" transform="translate(-170.197 -301.161)" fill="#767676"/>
      </g>
      <g id="Grupo_1210473" data-name="Grupo 1210473" transform="translate(7.5 7.5)">
        <line id="Línea_868" data-name="Línea 868" y1="6.987" transform="translate(27.778 20.806)" fill="none" stroke="#000" stroke-miterlimit="10" stroke-width="1"/>
        <line id="Línea_869" data-name="Línea 869" y1="5.284" transform="translate(27.778 33.489)" fill="none" stroke="#000" stroke-miterlimit="10" stroke-width="1"/>
        <line id="Línea_870" data-name="Línea 870" y1="5.284" transform="translate(36.137 33.489)" fill="none" stroke="#000" stroke-miterlimit="10" stroke-width="1"/>
        <line id="Línea_871" data-name="Línea 871" y1="6.987" transform="translate(36.137 20.806)" fill="none" stroke="#000" stroke-miterlimit="10" stroke-width="1"/>
        <path id="Trazado_1050710" data-name="Trazado 1050710" d="M174.619,219.416a3.372,3.372,0,0,0-2.051.692,3.408,3.408,0,0,0-4.1,0,3.41,3.41,0,0,0-3.962-.1,3.41,3.41,0,0,0-3.962.1,3.408,3.408,0,0,0-4.1,0,3.387,3.387,0,1,0,0,5.391,3.408,3.408,0,0,0,4.1,0,3.41,3.41,0,0,0,3.962.1,3.41,3.41,0,0,0,3.962-.1,3.408,3.408,0,0,0,4.1,0,3.387,3.387,0,1,0,2.051-6.083Z" transform="translate(-132.546 -192.163)" fill="none" stroke="#000" stroke-miterlimit="10" stroke-width="1"/>
        <path id="Trazado_1050711" data-name="Trazado 1050711" d="M121.106,13.8a5.5,5.5,0,0,0-1.375.173,6.947,6.947,0,0,0-9.631-3.184,6.944,6.944,0,0,0-11.811,0,6.947,6.947,0,0,0-9.631,3.184,5.493,5.493,0,1,0,2.787,8.9,6.9,6.9,0,0,0,3.252.95,5.491,5.491,0,0,0,9.5,2.708,5.491,5.491,0,0,0,9.5-2.708,6.9,6.9,0,0,0,3.252-.95,5.492,5.492,0,1,0,4.162-9.074Z" transform="translate(-72.237 -7.5)" fill="none" stroke="#000" stroke-miterlimit="10" stroke-width="1"/>
        <path id="Trazado_1050712" data-name="Trazado 1050712" d="M129.97,504.5h32.415" transform="translate(-114.22 -440.585)" fill="none" stroke="#000" stroke-miterlimit="10" stroke-width="1"/>
        <path id="Trazado_1050713" data-name="Trazado 1050713" d="M21.321,372.919H11.358a3.858,3.858,0,0,1-1.044-7.572,5.146,5.146,0,0,1,6.406-6.479,6.431,6.431,0,0,1,6.341-5.368c1.663,0,2.909,1.223,4.088,2.825" transform="translate(-7.5 -309.004)" fill="none" stroke="#000" stroke-miterlimit="10" stroke-width="1"/>
        <path id="Trazado_1050714" data-name="Trazado 1050714" d="M351.11,356.073c1.259-1.476,2.591-2.573,4.165-2.573a6.431,6.431,0,0,1,6.341,5.368,5.145,5.145,0,0,1,6.406,6.479,3.858,3.858,0,0,1-1.044,7.572h-9.963" transform="translate(-306.921 -309.004)" fill="none" stroke="#000" stroke-miterlimit="10" stroke-width="1"/>
        <path id="Trazado_1050715" data-name="Trazado 1050715" d="M41.358,474.5a3.858,3.858,0,0,1-3.858,3.858" transform="translate(-33.642 -414.443)" fill="none" stroke="#000" stroke-miterlimit="10" stroke-width="1"/>
        <path id="Trazado_1050716" data-name="Trazado 1050716" d="M414.788,431.5a5.144,5.144,0,1,1-10.288,0" transform="translate(-353.445 -376.973)" fill="none" stroke="#000" stroke-miterlimit="10" stroke-width="1"/>
        <path id="Trazado_1050717" data-name="Trazado 1050717" d="M67.5,393.5a5.144,5.144,0,0,1,5.144,5.144" transform="translate(-59.784 -343.86)" fill="none" stroke="#000" stroke-miterlimit="10" stroke-width="1"/>
        <g id="Grupo_1210471" data-name="Grupo 1210471" transform="translate(15.046 0)">
          <path id="Trazado_1050718" data-name="Trazado 1050718" d="M256,7.5a6.945,6.945,0,0,1,6.944,6.944" transform="translate(-239.089 -7.5)" fill="none" stroke="#000" stroke-miterlimit="10" stroke-width="1"/>
          <path id="Trazado_1050719" data-name="Trazado 1050719" d="M184.209,26.5a6.945,6.945,0,0,1,6.945,6.944" transform="translate(-176.53 -24.057)" fill="none" stroke="#000" stroke-miterlimit="10" stroke-width="1"/>
          <path id="Trazado_1050720" data-name="Trazado 1050720" d="M129.992,99.209A5.492,5.492,0,0,1,124.5,104.7" transform="translate(-124.5 -87.415)" fill="none" stroke="#000" stroke-miterlimit="10" stroke-width="1"/>
          <path id="Trazado_1050721" data-name="Trazado 1050721" d="M229.7,127A5.492,5.492,0,0,1,224.2,132.5" transform="translate(-211.381 -111.635)" fill="none" stroke="#000" stroke-miterlimit="10" stroke-width="1"/>
          <path id="Trazado_1050722" data-name="Trazado 1050722" d="M350.283,56.5a5.492,5.492,0,0,0-5.492,5.492" transform="translate(-316.461 -50.199)" fill="none" stroke="#000" stroke-miterlimit="10" stroke-width="1"/>
        </g>
        <circle id="Elipse_11590" data-name="Elipse 11590" cx="12.86" cy="12.86" r="12.86" transform="translate(19.097 38.195)" fill="none" stroke="#000" stroke-miterlimit="10" stroke-width="1"/>
        <g id="Grupo_1210472" data-name="Grupo 1210472" transform="translate(24.011 43.339)">
          <circle id="Elipse_11591" data-name="Elipse 11591" cx="2.647" cy="2.647" r="2.647" transform="translate(5.172 4.667)" fill="none" stroke="#000" stroke-miterlimit="10" stroke-width="1"/>
          <path id="Trazado_1050723" data-name="Trazado 1050723" d="M224.994,419.046l3.191,4.31a7.788,7.788,0,0,1-9.287,0l3.192-4.31" transform="translate(-215.724 -409.459)" fill="none" stroke="#000" stroke-miterlimit="10" stroke-width="1"/>
          <path id="Trazado_1050724" data-name="Trazado 1050724" d="M264.663,349.419,266.8,344.5a7.787,7.787,0,0,1,4.646,8.041l-5.328-.608" transform="translate(-255.602 -344.5)" fill="none" stroke="#000" stroke-miterlimit="10" stroke-width="1"/>
          <path id="Trazado_1050725" data-name="Trazado 1050725" d="M199.589,351.933l-5.328.608a7.787,7.787,0,0,1,4.646-8.041l2.135,4.919" transform="translate(-194.209 -344.499)" fill="none" stroke="#000" stroke-miterlimit="10" stroke-width="1"/>
        </g>
      </g>
      <g id="Grupo_1210474" data-name="Grupo 1210474" transform="translate(34.404 18.859)">
        <line id="Línea_872" data-name="Línea 872" x2="1.929" transform="translate(0 1.795)" fill="none" stroke="#fff" stroke-miterlimit="10" stroke-width="1"/>
        <line id="Línea_873" data-name="Línea 873" x2="1.929" transform="translate(8.923 0)" fill="none" stroke="#fff" stroke-miterlimit="10" stroke-width="1"/>
      </g>
    </g>
  </g>
</svg>
