<svg xmlns="http://www.w3.org/2000/svg" xmlns:xlink="http://www.w3.org/1999/xlink" width="98" height="98" viewBox="0 0 98 98">
  <defs>
    <filter id="Trazado_904820" x="0" y="0" width="98" height="98" filterUnits="userSpaceOnUse">
      <feOffset dy="3" input="SourceAlpha"/>
      <feGaussianBlur stdDeviation="3" result="blur"/>
      <feFlood flood-opacity="0.161"/>
      <feComposite operator="in" in2="blur"/>
      <feComposite in="SourceGraphic"/>
    </filter>
  </defs>
  <g id="Grupo_1210481" data-name="Grupo 1210481" transform="translate(-191 -15318.875)">
    <g id="Grupo_1210156" data-name="Grupo 1210156" transform="translate(0 7577.092)">
      <g id="Grupo_1209198" data-name="Grupo 1209198" transform="translate(200 7747.783)">
        <g id="Grupo_1202705" data-name="Grupo 1202705" transform="translate(0 0)">
          <g id="Grupo_1173585" data-name="Grupo 1173585" transform="translate(0 0)">
            <g id="Grupo_1173428" data-name="Grupo 1173428">
              <g id="Grupo_1171958" data-name="Grupo 1171958">
                <g id="Grupo_1167341" data-name="Grupo 1167341">
                  <g id="Grupo_1166792" data-name="Grupo 1166792">
                    <g transform="matrix(1, 0, 0, 1, -9, -6)" filter="url(#Trazado_904820)">
                      <g id="Trazado_904820-2" data-name="Trazado 904820" transform="translate(9 6)" fill="#fef9e7">
                        <path d="M 39.99999618530273 78.50002288818359 C 34.80187225341797 78.50002288818359 29.76002883911133 77.4822998046875 25.01451873779297 75.47511291503906 C 20.43014144897461 73.53608703613281 16.31264114379883 70.7598876953125 12.77638530731201 67.22362518310547 C 9.240129470825195 63.6873664855957 6.463929653167725 59.56986618041992 4.524896144866943 54.98548889160156 C 2.517718315124512 50.2399787902832 1.499996185302734 45.19814300537109 1.499996185302734 40.0000114440918 C 1.499996185302734 34.8018798828125 2.517718315124512 29.76003456115723 4.524896144866943 25.01453399658203 C 6.463929653167725 20.43015670776367 9.240129470825195 16.31264495849609 12.77638530731201 12.77638912200928 C 16.31264114379883 9.240133285522461 20.43014144897461 6.46393346786499 25.01451873779297 4.524900436401367 C 29.76002883911133 2.517722606658936 34.80186462402344 1.500000357627869 39.99999618530273 1.500000357627869 C 45.19812774658203 1.500000357627869 50.23996353149414 2.517722606658936 54.9854736328125 4.524900436401367 C 59.56985092163086 6.46393346786499 63.68735122680664 9.240133285522461 67.22360992431641 12.77638912200928 C 70.75986480712891 16.31264495849609 73.53606414794922 20.43015670776367 75.47509765625 25.01453399658203 C 77.48227691650391 29.76003456115723 78.5 34.8018798828125 78.5 40.0000114440918 C 78.5 45.19814300537109 77.48227691650391 50.2399787902832 75.47509765625 54.98548889160156 C 73.53606414794922 59.56986618041992 70.75986480712891 63.6873664855957 67.22360992431641 67.22362518310547 C 63.68735122680664 70.7598876953125 59.56985092163086 73.53608703613281 54.9854736328125 75.47511291503906 C 50.23996353149414 77.4822998046875 45.1981201171875 78.50002288818359 39.99999618530273 78.50002288818359 Z" stroke="none"/>
                        <path d="M 39.99999618530273 3 C 35.00370407104492 3 30.15846252441406 3.977851867675781 25.59885025024414 5.906410217285156 C 21.19327545166016 7.769813537597656 17.23603439331055 10.43806457519531 13.83705139160156 13.83705139160156 C 10.43806457519531 17.23603820800781 7.769805908203125 21.19327926635742 5.906410217285156 25.59885025024414 C 3.977851867675781 30.15846633911133 2.999992370605469 35.00371932983398 2.999992370605469 40.0000114440918 C 2.999992370605469 44.99630355834961 3.977851867675781 49.84154510498047 5.906410217285156 54.40115737915039 C 7.769805908203125 58.80674743652344 10.43806457519531 62.76398468017578 13.83705139160156 66.16297149658203 C 17.23603439331055 69.56195831298828 21.19327545166016 72.23020935058594 25.59885025024414 74.09361267089844 C 30.15846252441406 76.02217102050781 35.00370407104492 77.00002288818359 39.99999618530273 77.00002288818359 C 44.99628829956055 77.00002288818359 49.84152984619141 76.02217102050781 54.40114212036133 74.09361267089844 C 58.80671691894531 72.23020935058594 62.76395416259766 69.56195831298828 66.16294097900391 66.16297149658203 C 69.56192779541016 62.76398468017578 72.23017883300781 58.80674743652344 74.09358215332031 54.40115737915039 C 76.02214050292969 49.84154510498047 77 44.99630355834961 77 40.0000114440918 C 77 35.00371932983398 76.02214050292969 30.15846633911133 74.09358215332031 25.59885025024414 C 72.23017883300781 21.19327926635742 69.56192779541016 17.23603820800781 66.16294097900391 13.83705139160156 C 62.76395416259766 10.43806457519531 58.80671691894531 7.769813537597656 54.40114212036133 5.906410217285156 C 49.84152984619141 3.977851867675781 44.99628829956055 3 39.99999618530273 3 M 39.99999618530273 0 C 62.09138488769531 0 80 17.90861129760742 80 40.0000114440918 C 80 62.09140014648438 62.09138488769531 80.00002288818359 39.99999618530273 80.00002288818359 C 17.90861129760742 80.00002288818359 -7.62939453125e-06 62.09140014648438 -7.62939453125e-06 40.0000114440918 C -7.62939453125e-06 17.90861129760742 17.90861129760742 0 39.99999618530273 0 Z" stroke="none" fill="#887013"/>
                      </g>
                    </g>
                  </g>
                </g>
              </g>
            </g>
          </g>
        </g>
      </g>
    </g>
    <g id="travel_14078786" transform="translate(214.513 15336.488)">
      <g id="Grupo_1210477" data-name="Grupo 1210477" transform="translate(6.478 1.064)">
        <path id="Trazado_1050726" data-name="Trazado 1050726" d="M20.516,2.408H32.379V8.492H20.516Z" transform="translate(-17.927 -2.408)" fill="#ffc200"/>
        <path id="Trazado_1050727" data-name="Trazado 1050727" d="M20.516,9.291H32.379v3.043H20.516Z" transform="translate(-17.927 -6.249)" fill="#ff8500"/>
        <path id="Trazado_1050728" data-name="Trazado 1050728" d="M32.516,120.243a2.085,2.085,0,0,1-2.085,2.085H23.784a2.085,2.085,0,1,1,0-4.169h6.648A2.085,2.085,0,0,1,32.516,120.243Z" transform="translate(-18.587 -67.005)" fill="#7daeba"/>
        <path id="Trazado_1050729" data-name="Trazado 1050729" d="M32.516,120.243a2.085,2.085,0,0,1-2.085,2.085H23.784a2.085,2.085,0,1,1,0-4.169h6.648A2.085,2.085,0,0,1,32.516,120.243Z" transform="translate(-18.587 -67.005)" fill="none" stroke="#33363a" stroke-linecap="round" stroke-linejoin="round" stroke-miterlimit="10" stroke-width="1"/>
        <path id="Trazado_1050730" data-name="Trazado 1050730" d="M31.7,61.009a4.507,4.507,0,0,1-4.507,4.506H19.165a4.507,4.507,0,0,1-4.507-4.506V25.317a4.507,4.507,0,0,1,4.507-4.506h8.026A4.507,4.507,0,0,1,31.7,25.317V61.009Z" transform="translate(-14.658 -12.678)" fill="#4f7884"/>
        <path id="Trazado_1050731" data-name="Trazado 1050731" d="M31.7,31.008V66.7a4.507,4.507,0,0,1-4.507,4.506H19.165A4.507,4.507,0,0,1,14.658,66.7V31.008" transform="translate(-14.658 -18.369)" fill="#41616d"/>
        <path id="Trazado_1050732" data-name="Trazado 1050732" d="M31.7,61.009a4.507,4.507,0,0,1-4.507,4.506H19.165a4.507,4.507,0,0,1-4.507-4.506V25.317a4.507,4.507,0,0,1,4.507-4.506h8.026A4.507,4.507,0,0,1,31.7,25.317V61.009Z" transform="translate(-14.658 -12.678)" fill="none" stroke="#33363a" stroke-linecap="round" stroke-linejoin="round" stroke-miterlimit="10" stroke-width="1"/>
        <path id="Trazado_1050733" data-name="Trazado 1050733" d="M20.516,2.408H32.379V8.492H20.516Z" transform="translate(-17.927 -2.408)" fill="none" stroke="#33363a" stroke-linecap="round" stroke-linejoin="round" stroke-miterlimit="10" stroke-width="1"/>
        <path id="Trazado_1050734" data-name="Trazado 1050734" d="M32.68,17.257A1.081,1.081,0,0,1,31.6,18.338H24.2a1.081,1.081,0,1,1,0-2.162h7.4A1.081,1.081,0,0,1,32.68,17.257Z" transform="translate(-19.379 -10.092)" fill="#33363a"/>
        <g id="Grupo_1210476" data-name="Grupo 1210476" transform="translate(5.698 2.141)">
          <path id="Trazado_1050735" data-name="Trazado 1050735" d="M27.551,7.252v1.8" transform="translate(-27.551 -7.252)" fill="none" stroke="#33363a" stroke-linecap="round" stroke-linejoin="round" stroke-miterlimit="10" stroke-width="1"/>
          <path id="Trazado_1050736" data-name="Trazado 1050736" d="M33.938,7.252v1.8" transform="translate(-31.115 -7.252)" fill="none" stroke="#33363a" stroke-linecap="round" stroke-linejoin="round" stroke-miterlimit="10" stroke-width="1"/>
          <path id="Trazado_1050737" data-name="Trazado 1050737" d="M40.323,7.252v1.8" transform="translate(-34.679 -7.252)" fill="none" stroke="#33363a" stroke-linecap="round" stroke-linejoin="round" stroke-miterlimit="10" stroke-width="1"/>
        </g>
      </g>
      <g id="Grupo_1210479" data-name="Grupo 1210479" transform="translate(23.518 1.064)">
        <path id="Trazado_1050738" data-name="Trazado 1050738" d="M59.074,2.408H70.937V8.492H59.074Z" transform="translate(-56.486 -2.408)" fill="#ffc200"/>
        <path id="Trazado_1050739" data-name="Trazado 1050739" d="M59.074,9.291H70.937v3.043H59.074Z" transform="translate(-56.486 -6.249)" fill="#ff8500"/>
        <path id="Trazado_1050740" data-name="Trazado 1050740" d="M71.075,120.243a2.085,2.085,0,0,1-2.085,2.085H62.343a2.085,2.085,0,0,1,0-4.169h6.648A2.085,2.085,0,0,1,71.075,120.243Z" transform="translate(-57.146 -67.005)" fill="#7daeba"/>
        <path id="Trazado_1050741" data-name="Trazado 1050741" d="M71.075,120.243a2.085,2.085,0,0,1-2.085,2.085H62.343a2.085,2.085,0,0,1,0-4.169h6.648A2.085,2.085,0,0,1,71.075,120.243Z" transform="translate(-57.146 -67.005)" fill="none" stroke="#33363a" stroke-linecap="round" stroke-linejoin="round" stroke-miterlimit="10" stroke-width="1"/>
        <path id="Trazado_1050742" data-name="Trazado 1050742" d="M70.257,61.009a4.507,4.507,0,0,1-4.507,4.506H57.724a4.507,4.507,0,0,1-4.507-4.506V25.317a4.507,4.507,0,0,1,4.507-4.506H65.75a4.507,4.507,0,0,1,4.507,4.506Z" transform="translate(-53.217 -12.678)" fill="#41616d"/>
        <path id="Trazado_1050743" data-name="Trazado 1050743" d="M70.257,31.008V66.7a4.507,4.507,0,0,1-4.507,4.506H57.724A4.507,4.507,0,0,1,53.217,66.7V31.008" transform="translate(-53.217 -18.369)" fill="#315059"/>
        <path id="Trazado_1050744" data-name="Trazado 1050744" d="M70.257,61.009a4.507,4.507,0,0,1-4.507,4.506H57.724a4.507,4.507,0,0,1-4.507-4.506V25.317a4.507,4.507,0,0,1,4.507-4.506H65.75a4.507,4.507,0,0,1,4.507,4.506Z" transform="translate(-53.217 -12.678)" fill="none" stroke="#33363a" stroke-linecap="round" stroke-linejoin="round" stroke-miterlimit="10" stroke-width="1"/>
        <path id="Trazado_1050745" data-name="Trazado 1050745" d="M59.074,2.408H70.937V8.492H59.074Z" transform="translate(-56.486 -2.408)" fill="none" stroke="#33363a" stroke-linecap="round" stroke-linejoin="round" stroke-miterlimit="10" stroke-width="1"/>
        <path id="Trazado_1050746" data-name="Trazado 1050746" d="M71.24,17.257a1.081,1.081,0,0,1-1.081,1.081h-7.4a1.081,1.081,0,1,1,0-2.162h7.4A1.081,1.081,0,0,1,71.24,17.257Z" transform="translate(-57.939 -10.092)" fill="#33363a"/>
        <g id="Grupo_1210478" data-name="Grupo 1210478" transform="translate(5.698 2.141)">
          <path id="Trazado_1050747" data-name="Trazado 1050747" d="M66.11,7.252v1.8" transform="translate(-66.11 -7.252)" fill="none" stroke="#33363a" stroke-linecap="round" stroke-linejoin="round" stroke-miterlimit="10" stroke-width="1"/>
          <path id="Trazado_1050748" data-name="Trazado 1050748" d="M72.5,7.252v1.8" transform="translate(-69.674 -7.252)" fill="none" stroke="#33363a" stroke-linecap="round" stroke-linejoin="round" stroke-miterlimit="10" stroke-width="1"/>
          <path id="Trazado_1050749" data-name="Trazado 1050749" d="M78.883,7.252v1.8" transform="translate(-73.238 -7.252)" fill="none" stroke="#33363a" stroke-linecap="round" stroke-linejoin="round" stroke-miterlimit="10" stroke-width="1"/>
        </g>
      </g>
      <path id="Trazado_1050750" data-name="Trazado 1050750" d="M52.105,66.557a4.226,4.226,0,0,1-8.451,0V50.984a4.226,4.226,0,0,1,8.451,0Z" transform="translate(-24.362 -26.095)" fill="#ff8500"/>
      <path id="Trazado_1050751" data-name="Trazado 1050751" d="M52.105,66.557a4.226,4.226,0,0,1-8.451,0V50.984a4.226,4.226,0,0,1,8.451,0Z" transform="translate(-24.362 -26.095)" fill="none" stroke="#33363a" stroke-linecap="round" stroke-linejoin="round" stroke-miterlimit="10" stroke-width="1"/>
      <path id="Trazado_1050752" data-name="Trazado 1050752" d="M14.658,69.434h34.08v3.982H14.658Z" transform="translate(-8.18 -38.749)" fill="#33363a"/>
      <circle id="Elipse_11592" data-name="Elipse 11592" cx="7.512" cy="7.512" r="7.512" transform="translate(16.006 25.163)" fill="#ff8500"/>
      <path id="Trazado_1050753" data-name="Trazado 1050753" d="M51.243,73.939a7.512,7.512,0,0,1-15.025,0" transform="translate(-20.212 -41.263)" fill="#ff6700"/>
      <circle id="Elipse_11593" data-name="Elipse 11593" cx="3.644" cy="3.644" r="3.644" transform="translate(19.874 29.032)" fill="#41616d"/>
      <path id="Trazado_1050754" data-name="Trazado 1050754" d="M52.259,73.939a3.644,3.644,0,0,1-7.288,0" transform="translate(-25.097 -41.263)" fill="#32545e"/>
      <g id="Grupo_1210480" data-name="Grupo 1210480">
        <circle id="Elipse_11594" data-name="Elipse 11594" cx="3.644" cy="3.644" r="3.644" transform="translate(19.874 29.032)" fill="none" stroke="#33363a" stroke-linecap="round" stroke-linejoin="round" stroke-miterlimit="10" stroke-width="1"/>
        <circle id="Elipse_11595" data-name="Elipse 11595" cx="7.512" cy="7.512" r="7.512" transform="translate(16.006 25.163)" fill="none" stroke="#33363a" stroke-linecap="round" stroke-linejoin="round" stroke-miterlimit="10" stroke-width="1"/>
        <path id="Trazado_1050755" data-name="Trazado 1050755" fill="none" stroke="#33363a" stroke-linecap="round" stroke-linejoin="round" stroke-miterlimit="10" stroke-width="1"/>
        <path id="Trazado_1050756" data-name="Trazado 1050756" d="M94.1,14.8a3.38,3.38,0,0,1,3.38,3.38V46.2" transform="translate(-52.512 -8.26)" fill="none" stroke="#33363a" stroke-linecap="round" stroke-linejoin="round" stroke-miterlimit="10" stroke-width="1"/>
        <path id="Trazado_1050757" data-name="Trazado 1050757" d="M105.125,67.263a3.38,3.38,0,0,1-3.38-3.38V35.865" transform="translate(-56.781 -20.015)" fill="none" stroke="#33363a" stroke-linecap="round" stroke-linejoin="round" stroke-miterlimit="10" stroke-width="1"/>
        <path id="Trazado_1050758" data-name="Trazado 1050758" d="M112.021,105.519a1.315,1.315,0,1,1-2.629,0V104.43a1.315,1.315,0,1,1,2.629,0Z" transform="translate(-61.048 -57.545)" fill="none" stroke="#33363a" stroke-linecap="round" stroke-linejoin="round" stroke-miterlimit="10" stroke-width="1"/>
      </g>
    </g>
  </g>
</svg>
