<svg xmlns="http://www.w3.org/2000/svg" xmlns:xlink="http://www.w3.org/1999/xlink" width="98" height="98" viewBox="0 0 98 98">
  <defs>
    <filter id="Trazado_904820" x="0" y="0" width="98" height="98" filterUnits="userSpaceOnUse">
      <feOffset dy="3" input="SourceAlpha"/>
      <feGaussianBlur stdDeviation="3" result="blur"/>
      <feFlood flood-opacity="0.161"/>
      <feComposite operator="in" in2="blur"/>
      <feComposite in="SourceGraphic"/>
    </filter>
  </defs>
  <g id="Grupo_1210484" data-name="Grupo 1210484" transform="translate(-1031 -15319.875)">
    <g id="Grupo_1210154" data-name="Grupo 1210154" transform="translate(0 7578.092)">
      <g id="Grupo_1209196" data-name="Grupo 1209196" transform="translate(1040 7747.783)">
        <g id="Grupo_1202705" data-name="Grupo 1202705" transform="translate(0 0)">
          <g id="Grupo_1173585" data-name="Grupo 1173585" transform="translate(0 0)">
            <g id="Grupo_1173428" data-name="Grupo 1173428">
              <g id="Grupo_1171958" data-name="Grupo 1171958">
                <g id="Grupo_1167341" data-name="Grupo 1167341">
                  <g id="Grupo_1166792" data-name="Grupo 1166792">
                    <g transform="matrix(1, 0, 0, 1, -9, -6)" filter="url(#Trazado_904820)">
                      <g id="Trazado_904820-2" data-name="Trazado 904820" transform="translate(9 6)" fill="#fef9e7">
                        <path d="M 39.99999618530273 78.50002288818359 C 34.80187225341797 78.50002288818359 29.76002883911133 77.4822998046875 25.01451873779297 75.47511291503906 C 20.43014144897461 73.53608703613281 16.31264114379883 70.7598876953125 12.77638530731201 67.22362518310547 C 9.240129470825195 63.6873664855957 6.463929653167725 59.56986618041992 4.524896144866943 54.98548889160156 C 2.517718315124512 50.2399787902832 1.499996185302734 45.19814300537109 1.499996185302734 40.0000114440918 C 1.499996185302734 34.8018798828125 2.517718315124512 29.76003456115723 4.524896144866943 25.01453399658203 C 6.463929653167725 20.43015670776367 9.240129470825195 16.31264495849609 12.77638530731201 12.77638912200928 C 16.31264114379883 9.240133285522461 20.43014144897461 6.46393346786499 25.01451873779297 4.524900436401367 C 29.76002883911133 2.517722606658936 34.80186462402344 1.500000357627869 39.99999618530273 1.500000357627869 C 45.19812774658203 1.500000357627869 50.23996353149414 2.517722606658936 54.9854736328125 4.524900436401367 C 59.56985092163086 6.46393346786499 63.68735122680664 9.240133285522461 67.22360992431641 12.77638912200928 C 70.75986480712891 16.31264495849609 73.53606414794922 20.43015670776367 75.47509765625 25.01453399658203 C 77.48227691650391 29.76003456115723 78.5 34.8018798828125 78.5 40.0000114440918 C 78.5 45.19814300537109 77.48227691650391 50.2399787902832 75.47509765625 54.98548889160156 C 73.53606414794922 59.56986618041992 70.75986480712891 63.6873664855957 67.22360992431641 67.22362518310547 C 63.68735122680664 70.7598876953125 59.56985092163086 73.53608703613281 54.9854736328125 75.47511291503906 C 50.23996353149414 77.4822998046875 45.1981201171875 78.50002288818359 39.99999618530273 78.50002288818359 Z" stroke="none"/>
                        <path d="M 39.99999618530273 3 C 35.00370407104492 3 30.15846252441406 3.977851867675781 25.59885025024414 5.906410217285156 C 21.19327545166016 7.769813537597656 17.23603439331055 10.43806457519531 13.83705139160156 13.83705139160156 C 10.43806457519531 17.23603820800781 7.769805908203125 21.19327926635742 5.906410217285156 25.59885025024414 C 3.977851867675781 30.15846633911133 2.999992370605469 35.00371932983398 2.999992370605469 40.0000114440918 C 2.999992370605469 44.99630355834961 3.977851867675781 49.84154510498047 5.906410217285156 54.40115737915039 C 7.769805908203125 58.80674743652344 10.43806457519531 62.76398468017578 13.83705139160156 66.16297149658203 C 17.23603439331055 69.56195831298828 21.19327545166016 72.23020935058594 25.59885025024414 74.09361267089844 C 30.15846252441406 76.02217102050781 35.00370407104492 77.00002288818359 39.99999618530273 77.00002288818359 C 44.99628829956055 77.00002288818359 49.84152984619141 76.02217102050781 54.40114212036133 74.09361267089844 C 58.80671691894531 72.23020935058594 62.76395416259766 69.56195831298828 66.16294097900391 66.16297149658203 C 69.56192779541016 62.76398468017578 72.23017883300781 58.80674743652344 74.09358215332031 54.40115737915039 C 76.02214050292969 49.84154510498047 77 44.99630355834961 77 40.0000114440918 C 77 35.00371932983398 76.02214050292969 30.15846633911133 74.09358215332031 25.59885025024414 C 72.23017883300781 21.19327926635742 69.56192779541016 17.23603820800781 66.16294097900391 13.83705139160156 C 62.76395416259766 10.43806457519531 58.80671691894531 7.769813537597656 54.40114212036133 5.906410217285156 C 49.84152984619141 3.977851867675781 44.99628829956055 3 39.99999618530273 3 M 39.99999618530273 0 C 62.09138488769531 0 80 17.90861129760742 80 40.0000114440918 C 80 62.09140014648438 62.09138488769531 80.00002288818359 39.99999618530273 80.00002288818359 C 17.90861129760742 80.00002288818359 -7.62939453125e-06 62.09140014648438 -7.62939453125e-06 40.0000114440918 C -7.62939453125e-06 17.90861129760742 17.90861129760742 0 39.99999618530273 0 Z" stroke="none" fill="#887013"/>
                      </g>
                    </g>
                  </g>
                </g>
              </g>
            </g>
          </g>
        </g>
      </g>
    </g>
    <g id="Page-1" transform="translate(1053.523 15337.682)">
      <g id="_019---Measuring-Guage" data-name="019---Measuring-Guage" transform="translate(0.081)">
        <path id="Shape" d="M37.721.94V39.471H26.444V.94a.94.94,0,0,1,.94-.94h9.4A.94.94,0,0,1,37.721.94Z" transform="translate(-1.669)" fill="#02a9f4"/>
        <path id="Shape-2" data-name="Shape" d="M36.819,1H34a.94.94,0,0,1,.94.94V40.471h2.819V1.94A.94.94,0,0,0,36.819,1Z" transform="translate(-2.124 -0.06)" fill="#0377bc"/>
        <rect id="Rectangle-path" width="15.036" height="7.518" rx="2" transform="translate(22.479 40.41)" fill="#cfd8dc"/>
        <path id="Shape-3" data-name="Shape" d="M37.819,43H35a1.885,1.885,0,0,1,1.88,1.88v3.759A1.885,1.885,0,0,1,35,50.518h2.819a1.885,1.885,0,0,0,1.88-1.88V44.88A1.885,1.885,0,0,0,37.819,43Z" transform="translate(-2.184 -2.59)" fill="#9e9e9e"/>
        <path id="Shape-4" data-name="Shape" d="M24.5,3v7.518H2.02A.94.94,0,0,1,1.287,9l2.34-2.932a.94.94,0,0,1,.507-.32L14.989,3.028A.927.927,0,0,1,15.215,3Z" transform="translate(-0.141 -0.181)" fill="#9e9e9e"/>
        <path id="Rectangle-path-2" data-name="Rectangle-path" d="M23,3h2.819v7.518H23Z" transform="translate(-1.461 -0.181)" fill="#707070"/>
        <path id="Shape-5" data-name="Shape" d="M19.8,20v7.518H15.215a.927.927,0,0,1-.226-.028L4.135,24.774a.94.94,0,0,1-.507-.32l-2.34-2.932A.94.94,0,0,1,2.02,20Z" transform="translate(-0.141 -1.204)" fill="#9e9e9e"/>
        <path id="Rectangle-path-3" data-name="Rectangle-path" d="M18,20h2.819v7.518H18Z" transform="translate(-1.16 -1.204)" fill="#707070"/>
        <path id="Shape-6" data-name="Shape" d="M25.7,20V37.856H22.88A1.885,1.885,0,0,1,21,35.976V20Z" transform="translate(-1.341 -1.204)" fill="#545c60"/>
        <path id="Shape-7" data-name="Shape" d="M42.7,15.88V35.615a1.885,1.885,0,0,1-1.88,1.88H38V14h2.819A1.885,1.885,0,0,1,42.7,15.88Z" transform="translate(-2.365 -0.843)" fill="#545c60"/>
        <path id="Shape-8" data-name="Shape" d="M37.277,51v6.578a.94.94,0,0,1-.94.94h-9.4a.94.94,0,0,1-.94-.94V51Z" transform="translate(-1.642 -3.071)" fill="#02a9f4"/>
        <path id="Shape-9" data-name="Shape" d="M34.94,51v6.578a.94.94,0,0,1-.94.94h2.819a.94.94,0,0,0,.94-.94V51Z" transform="translate(-2.124 -3.071)" fill="#0377bc"/>
        <rect id="Rectangle-path-4" data-name="Rectangle-path" width="3.759" height="9.398" rx="1.88" transform="translate(44.093 23.494)" fill="#cfd8dc"/>
        <path id="Shape-10" data-name="Shape" d="M48.873,25.374a2.819,2.819,0,0,0-5.639,0v1.88h-1.88V15.036a2.819,2.819,0,0,0-2.819-2.819h-1.88V1.88A1.88,1.88,0,0,0,34.777,0h-9.4A1.88,1.88,0,0,0,23.5,1.88H15.157a1.88,1.88,0,0,0-.455.056L3.843,4.65A1.892,1.892,0,0,0,2.832,5.3L.493,8.224a1.88,1.88,0,0,0,1.468,3.053H23.5v6.578H1.961A1.88,1.88,0,0,0,.493,20.909l2.339,2.925a1.891,1.891,0,0,0,1.012.649L14.7,27.2a1.89,1.89,0,0,0,.452.055H18.8v7.518a2.819,2.819,0,0,0,2.819,2.819H23.5v2.052a2.819,2.819,0,0,0-1.88,2.646v3.759A2.819,2.819,0,0,0,23.5,48.7v5.812a1.88,1.88,0,0,0,1.88,1.88h9.4a1.88,1.88,0,0,0,1.88-1.88V48.7a2.819,2.819,0,0,0,1.88-2.646V42.29a2.819,2.819,0,0,0-1.88-2.646V37.591h1.88a2.819,2.819,0,0,0,2.819-2.819V29.133h1.88v1.88a2.819,2.819,0,0,0,5.639,0ZM25.379,1.88h9.4V39.471h-9.4v-1.88h1.88a.94.94,0,1,0,0-1.88h-1.88v-1.88h3.759a.94.94,0,1,0,0-1.88H25.379v-1.88h1.88a.94.94,0,1,0,0-1.88h-1.88v-1.88h3.759a.94.94,0,1,0,0-1.88H25.379v-1.88h1.88a.94.94,0,0,0,0-1.88h-1.88V18.8h3.759a.94.94,0,1,0,0-1.88H25.379v-1.88h1.88a.94.94,0,1,0,0-1.88h-1.88v-1.88h3.759a.94.94,0,1,0,0-1.88H25.379ZM4.3,6.473,15.157,3.759H23.5V9.4H1.961Zm10.858,18.9L4.3,22.66,1.961,19.735H18.8v5.639Zm5.523,9.4V19.735H23.5V35.712H21.62A.94.94,0,0,1,20.68,34.772Zm14.1,19.735h-9.4V48.868h9.4Zm1.88-8.458a.94.94,0,0,1-.94.94H24.439a.94.94,0,0,1-.94-.94V42.29a.94.94,0,0,1,.94-.94H35.716a.94.94,0,0,1,.94.94Zm2.819-11.277a.94.94,0,0,1-.94.94h-1.88V14.1h1.88a.94.94,0,0,1,.94.94Zm7.518-3.759a.94.94,0,1,1-1.88,0V25.374a.94.94,0,1,1,1.88,0Z" transform="translate(-0.081)"/>
      </g>
    </g>
  </g>
</svg>
