<svg xmlns="http://www.w3.org/2000/svg" xmlns:xlink="http://www.w3.org/1999/xlink" width="113" height="113" viewBox="0 0 113 113">
  <defs>
    <filter id="Trazado_982547" x="0" y="0.001" width="113" height="113" filterUnits="userSpaceOnUse">
      <feOffset dy="3" input="SourceAlpha"/>
      <feGaussianBlur stdDeviation="3" result="blur"/>
      <feFlood flood-opacity="0.161"/>
      <feComposite operator="in" in2="blur"/>
      <feComposite in="SourceGraphic"/>
    </filter>
  </defs>
  <g id="Grupo_1210492" data-name="Grupo 1210492" transform="translate(-4457 -15712.207)">
    <g id="Grupo_1210152" data-name="Grupo 1210152" transform="translate(3345 13390.209)">
      <g id="Grupo_1209055" data-name="Grupo 1209055" transform="translate(0 1091.783)">
        <g id="Grupo_1209049" data-name="Grupo 1209049">
          <g id="Grupo_1208493" data-name="Grupo 1208493" transform="translate(0 -4397.209)">
            <g id="Grupo_1202104" data-name="Grupo 1202104" transform="translate(0 -1149.226)">
              <g id="Grupo_1201923" data-name="Grupo 1201923" transform="translate(-4174.49 4856.378)">
                <g id="Grupo_1176928" data-name="Grupo 1176928" transform="translate(5295.49 1926.273)">
                  <g id="Grupo_1172322" data-name="Grupo 1172322" transform="translate(0 0)">
                    <g id="Grupo_1164700" data-name="Grupo 1164700">
                      <g id="Grupo_1160931" data-name="Grupo 1160931">
                        <g id="Grupo_1160749" data-name="Grupo 1160749">
                          <g id="Grupo_1158891" data-name="Grupo 1158891">
                            <g id="Grupo_1157406" data-name="Grupo 1157406">
                              <g id="Grupo_1155793" data-name="Grupo 1155793">
                                <g id="Grupo_1154704" data-name="Grupo 1154704">
                                  <g id="Grupo_1150790" data-name="Grupo 1150790">
                                    <g id="Grupo_1154214" data-name="Grupo 1154214">
                                      <g id="Grupo_1152583" data-name="Grupo 1152583">
                                        <g id="Grupo_1146973" data-name="Grupo 1146973">
                                          <g id="Grupo_1146954" data-name="Grupo 1146954">
                                            <g transform="matrix(1, 0, 0, 1, -9, -6)" filter="url(#Trazado_982547)">
                                              <g id="Trazado_982547-2" data-name="Trazado 982547" transform="translate(9 6)" fill="#fef9e7">
                                                <path d="M 47.5000114440918 93.49987030029297 C 41.28938293457031 93.49987030029297 35.26534652709961 92.28384399414062 29.5951976776123 89.88558959960938 C 24.11773109436035 87.56881713867188 19.19814491271973 84.25183868408203 14.97310447692871 80.02680206298828 C 10.74805164337158 75.80176544189453 7.43107795715332 70.88218688964844 5.114304542541504 65.40472412109375 C 2.716038227081299 59.73458862304688 1.500011444091797 53.71054840087891 1.500011444091797 47.49993515014648 C 1.500011444091797 41.28932189941406 2.716038227081299 35.26528167724609 5.114304542541504 29.59514808654785 C 7.43107795715332 24.1176815032959 10.74805164337158 19.1981086730957 14.97310447692871 14.97306823730469 C 19.19814491271973 10.74802875518799 24.11773109436035 7.431055068969727 29.5951976776123 5.11428165435791 C 35.26534652709961 2.716028451919556 41.28938293457031 1.500001788139343 47.5000114440918 1.500001788139343 C 53.71063995361328 1.500001788139343 59.73467636108398 2.716028451919556 65.40482330322266 5.11428165435791 C 70.88229370117188 7.431055068969727 75.8018798828125 10.74802875518799 80.02691650390625 14.97306823730469 C 84.25196838378906 19.1981086730957 87.56894683837891 24.1176815032959 89.88571929931641 29.59514808654785 C 92.28398132324219 35.26528167724609 93.50001525878906 41.28932189941406 93.50001525878906 47.49993515014648 C 93.50001525878906 53.71054840087891 92.28398132324219 59.73458862304688 89.88571929931641 65.40472412109375 C 87.56894683837891 70.88218688964844 84.25196838378906 75.80176544189453 80.02691650390625 80.02680206298828 C 75.8018798828125 84.25183868408203 70.88229370117188 87.56881713867188 65.40482330322266 89.88558959960938 C 59.73467636108398 92.28384399414062 53.71063995361328 93.49987030029297 47.5000114440918 93.49987030029297 Z" stroke="none"/>
                                                <path d="M 47.5000114440918 3 C 41.49122619628906 3 35.66378021240234 4.1761474609375 30.17951965332031 6.495796203613281 C 24.880859375 8.7369384765625 20.12153625488281 11.94596862792969 16.03376770019531 16.03373718261719 C 11.94598388671875 20.12149047851562 8.736968994140625 24.88081359863281 6.495811462402344 30.17947387695312 C 4.176162719726562 35.66371917724609 3.000007629394531 41.49116516113281 3.000007629394531 47.49993515014648 C 3.000007629394531 53.50870513916016 4.176162719726562 59.33615112304688 6.495811462402344 64.82039642333984 C 8.736968994140625 70.11905670166016 11.94598388671875 74.87837982177734 16.03376770019531 78.96613311767578 C 20.12153625488281 83.05390167236328 24.880859375 86.26293182373047 30.17951965332031 88.50407409667969 C 35.66378021240234 90.82372283935547 41.49122619628906 91.99987030029297 47.5000114440918 91.99987030029297 C 53.50879669189453 91.99987030029297 59.33624267578125 90.82372283935547 64.82050323486328 88.50407409667969 C 70.11916351318359 86.26293182373047 74.87848663330078 83.05390167236328 78.96625518798828 78.96613311767578 C 83.05403900146484 74.87837982177734 86.2630615234375 70.11905670166016 88.50421142578125 64.82039642333984 C 90.82386016845703 59.33615112304688 92.00001525878906 53.50870513916016 92.00001525878906 47.49993515014648 C 92.00001525878906 41.49116516113281 90.82386016845703 35.66371917724609 88.50421142578125 30.17947387695312 C 86.2630615234375 24.88081359863281 83.05403900146484 20.12149047851562 78.96625518798828 16.03373718261719 C 74.87848663330078 11.94596862792969 70.11916351318359 8.7369384765625 64.82050323486328 6.495796203613281 C 59.33624267578125 4.1761474609375 53.50879669189453 3 47.5000114440918 3 M 47.5000114440918 0 C 73.73353576660156 0 95.00001525878906 21.26644134521484 95.00001525878906 47.49993515014648 C 95.00001525878906 73.73342895507812 73.73353576660156 94.99987030029297 47.5000114440918 94.99987030029297 C 21.26648712158203 94.99987030029297 7.62939453125e-06 73.73342895507812 7.62939453125e-06 47.49993515014648 C 7.62939453125e-06 21.26644134521484 21.26648712158203 0 47.5000114440918 0 Z" stroke="none" fill="#f8ce24"/>
                                              </g>
                                            </g>
                                          </g>
                                        </g>
                                      </g>
                                    </g>
                                  </g>
                                </g>
                              </g>
                            </g>
                          </g>
                        </g>
                      </g>
                    </g>
                  </g>
                </g>
              </g>
            </g>
          </g>
        </g>
      </g>
    </g>
    <g id="Page-1" transform="translate(4482.5 15735.826)">
      <g id="_045---Painting-Skirting-Board" data-name="045---Painting-Skirting-Board">
        <g id="Icons_copy" transform="translate(1 1)">
          <path id="Shape" d="M28,54a3,3,0,0,1-3,3H1a1,1,0,0,1-1-1V30a1,1,0,0,1,1-1H21.27l-3.98,3.98a1,1,0,0,0,0,1.41l6.49,6.49A3,3,0,0,1,21,45a3,3,0,0,0,0,6h4a3,3,0,0,1,3,3Z" fill="#f5f5f5"/>
          <path id="Shape-2" data-name="Shape" d="M14.29,34.39l6.49,6.49A3,3,0,0,1,18,45a3,3,0,1,0,0,6h3a3,3,0,1,1,0-6,2.994,2.994,0,0,0,2.78-4.12l-6.49-6.49a1,1,0,0,1,0-1.41L21.27,29h-3l-3.98,3.98a1,1,0,0,0,0,1.41Z" fill="#cfd8dc"/>
          <path id="Shape-3" data-name="Shape" d="M27.12,51.88A2.993,2.993,0,0,0,25,51H22a3,3,0,0,1,0,6h3a3,3,0,0,0,2.12-5.12Z" fill="#cfd8dc"/>
          <path id="Shape-4" data-name="Shape" d="M58,30V56a1,1,0,0,1-1,1H25a3,3,0,0,0,0-6H21a3,3,0,0,1,0-6,2.994,2.994,0,0,0,2.78-4.12l4.83,4.83a1,1,0,0,0,1.41,0l4.25-4.24.03-.04,9.16-9.16,2.82-2.83.44-.44H57a1,1,0,0,1,1,1Z" fill="#ffeb3a"/>
          <path id="Shape-5" data-name="Shape" d="M57,29H54a1,1,0,0,1,1,1V56a1,1,0,0,1-1,1h3a1,1,0,0,0,1-1V30A1,1,0,0,0,57,29Z" fill="#fdd834"/>
          <path id="Shape-6" data-name="Shape" d="M32,51H58" fill="none" stroke="#000" stroke-linecap="round" stroke-linejoin="round" stroke-width="2" fill-rule="evenodd"/>
          <path id="Shape-7" data-name="Shape" d="M0,51H15" fill="none" stroke="#000" stroke-linecap="round" stroke-linejoin="round" stroke-width="2" fill-rule="evenodd"/>
          <g id="Grupo_1210490" data-name="Grupo 1210490">
            <path id="Shape-8" data-name="Shape" d="M34.29,41.42l.01.01-.03.04-4.25,4.24a1,1,0,0,1-1.41,0l-4.83-4.83-6.49-6.49a1,1,0,0,1,0-1.41L21.27,29l2.39-2.38,1.83,2.56c1.11,2.63-.65,4.28,1,5.92,1.13,1.13,2.27.65,3.51.39a3.449,3.449,0,0,1,3.56,1.02C36.17,39.13,34.55,41.14,34.29,41.42Z" fill="#f5f5f5"/>
            <path id="Shape-9" data-name="Shape" d="M22.49,29.18c1.11,2.63-.65,4.28,1,5.92,1.127,1.127,2.265.652,3.5.392a2.68,2.68,0,0,1-.5-.392c-1.65-1.64.11-3.29-1-5.92l-1.83-2.56-1.752,1.745Z" fill="#cfd8dc"/>
            <path id="Shape-10" data-name="Shape" d="M33.56,36.51A3.449,3.449,0,0,0,30,35.49c-.226.047-.448.1-.667.152a4.141,4.141,0,0,1,1.227.868c2.61,2.62.99,4.63.73,4.91l.01.01-.03.04-3.454,3.446.794.794a1,1,0,0,0,1.41,0l4.25-4.24.03-.04-.01-.01c.26-.28,1.88-2.29-.73-4.91Z" fill="#cfd8dc"/>
            <path id="Shape-11" data-name="Shape" d="M25.49,29.18l-1.83-2.56A8.162,8.162,0,0,1,25.49,29.18Z" fill="#37474f"/>
            <path id="Shape-12" data-name="Shape" d="M46.28,29.44l-2.82,2.83L30.73,19.54l2.83-2.82Z" fill="#9e9e9e"/>
            <path id="Shape-13" data-name="Shape" d="M58,.76V9.24l-6.7,6.7a5,5,0,0,0-1.21,5.12l.17.5a5,5,0,0,1-1.21,5.12L46.72,29l-.44.44L33.56,16.72l2.76-2.77a5,5,0,0,1,5.12-1.21l.5.17a5,5,0,0,0,5.12-1.21Z" fill="#02a9f4"/>
            <path id="Shape-14" data-name="Shape" d="M55,3.76V9.24l-6.7,6.7a5,5,0,0,0-1.21,5.12l.17.5a5,5,0,0,1-1.21,5.12l-1.268,1.262,1.5,1.5.44-.44,2.33-2.32a5,5,0,0,0,1.21-5.12l-.17-.5a5,5,0,0,1,1.21-5.12l6.7-6.7V.76Z" fill="#0377bc"/>
            <path id="Shape-15" data-name="Shape" d="M25.49,29.18l-1.83-2.56A8.162,8.162,0,0,1,25.49,29.18Z" fill="#37474f"/>
            <path id="Shape-16" data-name="Shape" d="M43.46,32.27,34.3,41.43l-.01-.01c.26-.28,1.88-2.29-.73-4.91A3.449,3.449,0,0,0,30,35.49c-1.24.26-2.38.74-3.51-.39-1.65-1.64.11-3.29-1-5.92a8.162,8.162,0,0,0-1.83-2.56l7.07-7.08Z" fill="#37474f"/>
          </g>
        </g>
        <g id="Icons">
          <g id="Grupo_1210491" data-name="Grupo 1210491">
            <path id="Shape-17" data-name="Shape" d="M5,37H4a1,1,0,0,1,0-2H5a1,1,0,0,1,0,2Z" fill="#02a9f4"/>
            <path id="Shape-18" data-name="Shape" d="M7,35a1,1,0,0,1-1-1V33a1,1,0,0,1,2,0v1A1,1,0,0,1,7,35Z" fill="#02a9f4"/>
            <path id="Shape-19" data-name="Shape" d="M10,37H9a1,1,0,0,1,0-2h1a1,1,0,0,1,0,2Z" fill="#02a9f4"/>
            <path id="Shape-20" data-name="Shape" d="M7,40a1,1,0,0,1-1-1V38a1,1,0,0,1,2,0v1A1,1,0,0,1,7,40Z" fill="#02a9f4"/>
          </g>
          <path id="Shape-21" data-name="Shape" d="M2,59H58a2,2,0,0,0,2-2V31a2,2,0,0,0-2-2H50.142l.615-.613a5.972,5.972,0,0,0,1.45-6.149l-.168-.5a3.983,3.983,0,0,1,.968-4.1l6.7-6.7a1,1,0,0,0,.293-.7V1.762a1,1,0,0,0-1.707-.707L47.353,11.993a3.977,3.977,0,0,1-4.091.97l-.506-.171a5.968,5.968,0,0,0-6.145,1.452l-2.74,2.75c-.007.007-.015.008-.022.015l-2.828,2.828L21.858,29H2a2,2,0,0,0-2,2V57a2,2,0,0,0,2,2ZM58,31V51H33a1,1,0,0,0,0,2H58v4H29.444A3.987,3.987,0,0,0,26,51H22a2,2,0,1,1,0-4,3.955,3.955,0,0,0,3.771-2.714L28.9,47.414a2,2,0,0,0,2.829,0l4.243-4.242,9.189-9.189,2.828-2.829c.006-.006.008-.014.014-.02l.13-.13ZM31.728,21.958l5.657,5.657,5.657,5.657-6.154,6.154a5.921,5.921,0,0,0-1.625-2.618,4.617,4.617,0,0,0-4.985-1.18c-1.063.253-1.518.333-2.086-.234-.521-.521-.5-.956-.391-1.976a6.679,6.679,0,0,0-1.76-5.773ZM25.812,33.21a3.881,3.881,0,0,0,.966,3.6,3.748,3.748,0,0,0,3.963.765c1.155-.274,1.987-.471,3.108.649,1.967,1.967.942,3.283.7,3.54L30.313,46,19,34.687l5.624-5.624a4.749,4.749,0,0,1,1.188,4.147ZM38.027,15.657a3.973,3.973,0,0,1,4.091-.969l.506.171a5.98,5.98,0,0,0,6.143-1.452L58,4.176v5.65l-6.407,6.407a5.974,5.974,0,0,0-1.45,6.148l.169.5a3.982,3.982,0,0,1-.968,4.1l-2.062,2.055L35.973,17.719ZM34.556,19.13,45.87,30.444l-1.414,1.414L38.8,26.2l-5.657-5.657ZM19.858,31l-2.272,2.272a2,2,0,0,0,0,2.829L23.9,42.415A1.942,1.942,0,0,1,24,43a2,2,0,0,1-2,2,4,4,0,0,0,0,8h4a2,2,0,1,1,0,4H2V53H16a1,1,0,1,0,0-2H2V31Z"/>
        </g>
      </g>
    </g>
  </g>
</svg>
