<svg xmlns="http://www.w3.org/2000/svg" xmlns:xlink="http://www.w3.org/1999/xlink" width="118" height="118" viewBox="0 0 118 118">
  <defs>
    <filter id="Trazado_982547" x="0" y="0" width="118" height="118" filterUnits="userSpaceOnUse">
      <feOffset dy="3" input="SourceAlpha"/>
      <feGaussianBlur stdDeviation="3" result="blur"/>
      <feFlood flood-opacity="0.161"/>
      <feComposite operator="in" in2="blur"/>
      <feComposite in="SourceGraphic"/>
    </filter>
  </defs>
  <g id="Grupo_1210059" data-name="Grupo 1210059" transform="translate(-898.5 -1632.415)">
    <g id="Grupo_1209246" data-name="Grupo 1209246" transform="translate(105.01 402.199)">
      <g id="Grupo_1208492" data-name="Grupo 1208492" transform="translate(802.49 1236.215)">
        <g id="Grupo_1177675" data-name="Grupo 1177675" transform="translate(0 0)">
          <g id="Grupo_1176928" data-name="Grupo 1176928" transform="translate(0)">
            <g id="Grupo_1172322" data-name="Grupo 1172322" transform="translate(0 0)">
              <g id="Grupo_1164700" data-name="Grupo 1164700">
                <g id="Grupo_1160931" data-name="Grupo 1160931">
                  <g id="Grupo_1160749" data-name="Grupo 1160749">
                    <g id="Grupo_1158891" data-name="Grupo 1158891">
                      <g id="Grupo_1157406" data-name="Grupo 1157406">
                        <g id="Grupo_1155793" data-name="Grupo 1155793">
                          <g id="Grupo_1154704" data-name="Grupo 1154704">
                            <g id="Grupo_1150790" data-name="Grupo 1150790">
                              <g id="Grupo_1154214" data-name="Grupo 1154214">
                                <g id="Grupo_1152583" data-name="Grupo 1152583">
                                  <g id="Grupo_1146973" data-name="Grupo 1146973">
                                    <g id="Grupo_1146954" data-name="Grupo 1146954">
                                      <g transform="matrix(1, 0, 0, 1, -9, -6)" filter="url(#Trazado_982547)">
                                        <g id="Trazado_982547-2" data-name="Trazado 982547" transform="translate(9 6)" fill="#fef9e7">
                                          <path d="M 49.99995803833008 98.49976348876953 C 43.45184326171875 98.49976348876953 37.10039901733398 97.2176513671875 31.1220588684082 94.68901824951172 C 25.34690093994141 92.246337890625 20.15995788574219 88.74910736083984 15.70531558990479 84.29447937011719 C 11.25068664550781 79.83985137939453 7.753458023071289 74.65290832519531 5.31077241897583 68.87776184082031 C 2.782143831253052 62.89942169189453 1.500015139579773 56.54797744750977 1.500015139579773 49.9998779296875 C 1.500015139579773 43.45177841186523 2.782143831253052 37.10033416748047 5.31077241897583 31.12199211120605 C 7.753458023071289 25.34684944152832 11.25068664550781 20.15992164611816 15.70531558990479 15.70529174804688 C 20.15995788574219 11.25066375732422 25.34688568115234 7.753435134887695 31.1220588684082 5.310749530792236 C 37.10039901733398 2.782120704650879 43.45184326171875 1.500006556510925 49.99995803833008 1.500006556510925 C 56.54807281494141 1.500006556510925 62.89951705932617 2.782120704650879 68.87786865234375 5.310749530792236 C 74.65303039550781 7.753435134887695 79.83997344970703 11.25066375732422 84.29460144042969 15.70529174804688 C 88.74924468994141 20.15992164611816 92.24647521972656 25.34684944152832 94.68915557861328 31.12199211120605 C 97.21778869628906 37.10033416748047 98.49991607666016 43.45177841186523 98.49991607666016 49.9998779296875 C 98.49991607666016 56.54797744750977 97.21778869628906 62.89942169189453 94.68915557861328 68.87776184082031 C 92.24647521972656 74.65290832519531 88.74924468994141 79.83985137939453 84.29460144042969 84.29447937011719 C 79.83997344970703 88.74910736083984 74.65303039550781 92.246337890625 68.87786865234375 94.68901824951172 C 62.89951705932617 97.2176513671875 56.54807281494141 98.49976348876953 49.99995803833008 98.49976348876953 Z" stroke="none"/>
                                          <path d="M 49.99995803833008 3 C 43.65368270874023 3 37.49883651733398 4.24224853515625 31.70637512207031 6.692245483398438 C 26.11001586914062 9.059310913085938 21.08334350585938 12.44858551025391 16.76597595214844 16.76595306396484 C 12.44860076904297 21.08330535888672 9.059326171875 26.10997009277344 6.692268371582031 31.70632171630859 C 4.242263793945312 37.49877166748047 3.000007629394531 43.65361785888672 3.000007629394531 49.9998779296875 C 3.000007629394531 56.34613800048828 4.242263793945312 62.50098419189453 6.692268371582031 68.29343414306641 C 9.059326171875 73.88978576660156 12.44860076904297 78.91644287109375 16.76597595214844 83.23380279541016 C 21.08334350585938 87.55117034912109 26.11001586914062 90.94044494628906 31.70637512207031 93.30751037597656 C 37.49883651733398 95.75750732421875 43.65368270874023 96.999755859375 49.99995803833008 96.999755859375 C 56.34623336791992 96.999755859375 62.50107955932617 95.75750732421875 68.29354095458984 93.30751037597656 C 73.889892578125 90.94044494628906 78.91657257080078 87.55117034912109 83.23394012451172 83.23380279541016 C 87.55131530761719 78.91644287109375 90.94058990478516 73.88978576660156 93.30764770507812 68.29343414306641 C 95.75765228271484 62.50098419189453 96.99990844726562 56.34613800048828 96.99990844726562 49.9998779296875 C 96.99990844726562 43.65361785888672 95.75765228271484 37.49877166748047 93.30764770507812 31.70632171630859 C 90.94058990478516 26.10997009277344 87.55131530761719 21.08330535888672 83.23394012451172 16.76595306396484 C 78.91657257080078 12.44858551025391 73.889892578125 9.059310913085938 68.29354095458984 6.692245483398438 C 62.50107955932617 4.24224853515625 56.34623336791992 3 49.99995803833008 3 M 49.99995803833008 0 C 77.61415863037109 0 99.99990844726562 22.38571166992188 99.99990844726562 49.9998779296875 C 99.99990844726562 77.61404418945312 77.61415863037109 99.999755859375 49.99995803833008 99.999755859375 C 22.38575744628906 99.999755859375 7.62939453125e-06 77.61404418945312 7.62939453125e-06 49.9998779296875 C 7.62939453125e-06 22.38571166992188 22.38575744628906 0 49.99995803833008 0 Z" stroke="none" fill="#f8ce24"/>
                                        </g>
                                      </g>
                                    </g>
                                  </g>
                                </g>
                              </g>
                            </g>
                          </g>
                        </g>
                      </g>
                    </g>
                  </g>
                </g>
              </g>
            </g>
          </g>
        </g>
      </g>
    </g>
    <g id="disruption_9151109" transform="translate(914.876 1645.786)">
      <g id="Grupo_1210058" data-name="Grupo 1210058" transform="translate(8.972 8.971)">
        <g id="Grupo_1210048" data-name="Grupo 1210048" transform="translate(13.97 0.022)">
          <ellipse id="Elipse_12713" data-name="Elipse 12713" cx="6.283" cy="6.283" rx="6.283" ry="6.283" transform="matrix(1, -0.022, 0.022, 1, 0, 0.276)" fill="#fe646f"/>
          <path id="Trazado_1049281" data-name="Trazado 1049281" d="M156.7,16a6.283,6.283,0,1,1,0,12.565,6.367,6.367,0,0,1-.7-.039,6.283,6.283,0,0,0,0-12.488A6.367,6.367,0,0,1,156.7,16Z" transform="translate(-150.282 -15.871)" fill="#fd4755" fill-rule="evenodd"/>
        </g>
        <g id="Grupo_1210049" data-name="Grupo 1210049" transform="translate(0 10.471)">
          <ellipse id="Elipse_12714" data-name="Elipse 12714" cx="6.283" cy="6.283" rx="6.283" ry="6.283" transform="translate(0 12.565) rotate(-88.625)" fill="#fe646f"/>
          <path id="Trazado_1049282" data-name="Trazado 1049282" d="M56.7,91a6.283,6.283,0,0,1,0,12.565,6.367,6.367,0,0,1-.7-.039,6.283,6.283,0,0,0,0-12.488A6.33,6.33,0,0,1,56.7,91Z" transform="translate(-50.271 -90.848)" fill="#fd4755" fill-rule="evenodd"/>
        </g>
        <g id="Grupo_1210050" data-name="Grupo 1210050" transform="translate(0.009 43.986)">
          <ellipse id="Elipse_12715" data-name="Elipse 12715" cx="6.283" cy="6.283" rx="6.283" ry="6.283" transform="translate(0 12.565) rotate(-88.625)" fill="#fe646f"/>
          <path id="Trazado_1049283" data-name="Trazado 1049283" d="M56.7,343.564A6.283,6.283,0,0,0,56.7,331a6.367,6.367,0,0,0-.7.039,6.283,6.283,0,0,1,0,12.488,6.365,6.365,0,0,0,.7.039Z" transform="translate(-50.28 -330.857)" fill="#fd4755" fill-rule="evenodd"/>
        </g>
        <g id="Grupo_1210051" data-name="Grupo 1210051" transform="translate(13.949 54.486)">
          <ellipse id="Elipse_12716" data-name="Elipse 12716" cx="6.283" cy="6.283" rx="6.283" ry="6.283" transform="matrix(1, -0.022, 0.022, 1, 0, 0.276)" fill="#fe646f"/>
          <path id="Trazado_1049284" data-name="Trazado 1049284" d="M156.7,406a6.283,6.283,0,1,1,0,12.565,6.36,6.36,0,0,1-.7-.039,6.283,6.283,0,0,0,0-12.488A6.36,6.36,0,0,1,156.7,406Z" transform="translate(-150.26 -405.884)" fill="#fd4755" fill-rule="evenodd"/>
        </g>
        <g id="Grupo_1210052" data-name="Grupo 1210052" transform="translate(11.233 13.589)">
          <path id="Trazado_1049285" data-name="Trazado 1049285" d="M115.493,112.258h-2.716l-1.28,3.326a17.127,17.127,0,0,0-5.015,2.079l-3.259-1.447-3.841,3.841,1.447,3.258a17.13,17.13,0,0,0-2.079,5.017l-3.325,1.28v5.432l3.326,1.28a17.128,17.128,0,0,0,2.079,5.015L99.382,144.6l3.841,3.841,3.258-1.447a17.128,17.128,0,0,0,5.017,2.079l1.28,3.325h2.716v-9.767a10.3,10.3,0,0,1,0-20.6Z" transform="translate(-95.425 -112.258)" fill="#ffe177" fill-rule="evenodd"/>
          <path id="Trazado_1049286" data-name="Trazado 1049286" d="M115.494,112.258h-2.716l-1.28,3.326a17.127,17.127,0,0,0-5.015,2.079l-3.259-1.447-3.841,3.841.455,1.024,3.386-3.386,3.259,1.447a17.127,17.127,0,0,1,5.015-2.079l1.28-3.326h2.716Zm-14.664,29.08L99.383,144.6l.455.455,1.366-3.076Q101.011,141.66,100.831,141.338Zm0-18.023a17.13,17.13,0,0,0-2.079,5.017l-3.325,1.28v1.479l3.325-1.28a22.038,22.038,0,0,1,2.453-5.654Z" transform="translate(-95.426 -112.258)" fill="#ffd064" fill-rule="evenodd"/>
        </g>
        <g id="Grupo_1210053" data-name="Grupo 1210053" transform="translate(40.508 0)">
          <ellipse id="Elipse_12717" data-name="Elipse 12717" cx="6.283" cy="6.283" rx="6.283" ry="6.283" transform="matrix(1, -0.022, 0.022, 1, 0, 0.276)" fill="#8ac9fe"/>
          <path id="Trazado_1049287" data-name="Trazado 1049287" d="M346.7,16a6.283,6.283,0,0,1,0,12.565,6.366,6.366,0,0,1-.7-.039,6.283,6.283,0,0,0,0-12.488A6.33,6.33,0,0,1,346.7,16Z" transform="translate(-340.289 -15.853)" fill="#60b7ff" fill-rule="evenodd"/>
        </g>
        <g id="Grupo_1210054" data-name="Grupo 1210054" transform="translate(54.462 10.456)">
          <ellipse id="Elipse_12718" data-name="Elipse 12718" cx="6.283" cy="6.283" rx="6.283" ry="6.283" transform="translate(0 12.565) rotate(-88.625)" fill="#8ac9fe"/>
          <path id="Trazado_1049288" data-name="Trazado 1049288" d="M446.7,91a6.283,6.283,0,0,1,0,12.565,6.367,6.367,0,0,1-.7-.039,6.283,6.283,0,0,0,0-12.488,6.367,6.367,0,0,1,.7-.039Z" transform="translate(-440.284 -90.837)" fill="#60b7ff" fill-rule="evenodd"/>
        </g>
        <g id="Grupo_1210055" data-name="Grupo 1210055" transform="translate(54.471 43.971)">
          <ellipse id="Elipse_12719" data-name="Elipse 12719" cx="6.283" cy="6.283" rx="6.283" ry="6.283" transform="translate(0 12.565) rotate(-88.625)" fill="#8ac9fe"/>
          <path id="Trazado_1049289" data-name="Trazado 1049289" d="M446.7,331a6.283,6.283,0,0,1,0,12.565,6.367,6.367,0,0,1-.7-.039,6.283,6.283,0,0,0,0-12.488A6.367,6.367,0,0,1,446.7,331Z" transform="translate(-440.294 -330.846)" fill="#60b7ff" fill-rule="evenodd"/>
        </g>
        <g id="Grupo_1210056" data-name="Grupo 1210056" transform="translate(40.522 54.463)">
          <ellipse id="Elipse_12720" data-name="Elipse 12720" cx="6.283" cy="6.283" rx="6.283" ry="6.283" transform="matrix(1, -0.022, 0.022, 1, 0, 0.276)" fill="#8ac9fe"/>
          <path id="Trazado_1049290" data-name="Trazado 1049290" d="M346.7,406a6.283,6.283,0,0,1,0,12.565,6.367,6.367,0,0,1-.7-.039,6.283,6.283,0,0,0,0-12.488A6.365,6.365,0,0,1,346.7,406Z" transform="translate(-340.304 -405.865)" fill="#60b7ff" fill-rule="evenodd"/>
        </g>
        <g id="Grupo_1210057" data-name="Grupo 1210057" transform="translate(36.002 13.589)">
          <path id="Trazado_1049291" data-name="Trazado 1049291" d="M272.835,112.263h2.716l1.28,3.326a17.127,17.127,0,0,1,5.015,2.079l3.259-1.447,3.841,3.841-1.447,3.258a17.126,17.126,0,0,1,2.079,5.017l3.325,1.28v5.432l-3.326,1.28a17.128,17.128,0,0,1-2.079,5.015l1.447,3.259-3.841,3.841L281.847,147a17.128,17.128,0,0,1-5.017,2.079l-1.28,3.325h-2.716v-9.767a10.3,10.3,0,0,0,0-20.6Z" transform="translate(-272.835 -112.263)" fill="#ffe177" fill-rule="evenodd"/>
          <path id="Trazado_1049292" data-name="Trazado 1049292" d="M272.835,112.263h2.716l1.28,3.326a17.127,17.127,0,0,1,5.015,2.079l3.259-1.447,3.841,3.841-.455,1.024-3.386-3.386-3.259,1.447a17.127,17.127,0,0,0-5.015-2.079l-1.28-3.326h-2.716Zm14.663,29.08,1.447,3.259-.455.455-1.366-3.076Q287.319,141.665,287.5,141.343Zm0-18.023a17.126,17.126,0,0,1,2.079,5.017l3.325,1.28v1.479l-3.325-1.28a22.039,22.039,0,0,0-2.453-5.654Z" transform="translate(-272.835 -112.263)" fill="#ffd064" fill-rule="evenodd"/>
        </g>
      </g>
      <path id="Trazado_1049293" data-name="Trazado 1049293" d="M52.366,15.928a1.117,1.117,0,1,1,1.58-1.58l1.373,1.373,2.431-3.005a1.117,1.117,0,0,1,1.737,1.4l-3.211,3.971a1.12,1.12,0,0,1-.809.413h-.059a1.116,1.116,0,0,1-.79-.327Zm-19.9,52.4-1.529,1.529,1.529,1.529a1.117,1.117,0,0,1-1.579,1.58l-1.529-1.529-1.529,1.529a1.117,1.117,0,0,1-1.579-1.58l1.529-1.529-1.529-1.529a1.117,1.117,0,0,1,1.579-1.579l1.529,1.529,1.529-1.529a1.117,1.117,0,1,1,1.579,1.579ZM18.507,57.853l-1.529,1.529,1.529,1.529a1.117,1.117,0,0,1-1.579,1.58L15.4,60.962,13.87,62.491a1.117,1.117,0,0,1-1.579-1.58l1.529-1.529-1.529-1.529a1.117,1.117,0,1,1,1.579-1.579L15.4,57.8l1.529-1.529a1.117,1.117,0,0,1,1.58,1.579Zm54.941.247L70.237,62.07a1.113,1.113,0,0,1-.81.413h-.059a1.118,1.118,0,0,1-.79-.327l-2.25-2.251a1.117,1.117,0,1,1,1.579-1.58L69.281,59.7l2.431-3a1.117,1.117,0,1,1,1.736,1.4ZM18.507,24.346l-1.529,1.529L18.507,27.4a1.117,1.117,0,0,1-1.579,1.58L15.4,27.454,13.87,28.983a1.117,1.117,0,0,1-1.579-1.58l1.529-1.529-1.529-1.529a1.117,1.117,0,0,1,1.579-1.579L15.4,24.295l1.529-1.529a1.117,1.117,0,0,1,1.58,1.579Zm51.342,40.2a5.166,5.166,0,1,0-5.166-5.166A5.171,5.171,0,0,0,69.849,64.548ZM57,57.406l-2.558-1.135a1.111,1.111,0,0,0-1.039.07,16.014,16.014,0,0,1-4.688,1.943,1.116,1.116,0,0,0-.784.686l-1,2.609h-.832V53.992a11.418,11.418,0,0,0,0-22.726V23.678h.832l1,2.609a1.117,1.117,0,0,0,.784.685A15.978,15.978,0,0,1,53.4,28.916a1.116,1.116,0,0,0,1.039.07L57,27.85l2.756,2.756-1.136,2.558a1.118,1.118,0,0,0,.07,1.039,15.977,15.977,0,0,1,1.944,4.687,1.115,1.115,0,0,0,.685.784l2.61,1v3.9l-2.609,1a1.116,1.116,0,0,0-.685.783,16,16,0,0,1-1.944,4.69,1.115,1.115,0,0,0-.07,1.038l1.136,2.556Zm12.853-36.7a5.166,5.166,0,1,1-5.166,5.166,5.172,5.172,0,0,1,5.166-5.166Zm-8.8,49.145a5.166,5.166,0,1,1-5.166-5.166,5.17,5.17,0,0,1,5.166,5.166ZM55.887,10.238A5.166,5.166,0,1,0,61.053,15.4,5.172,5.172,0,0,0,55.887,10.238ZM69.849,51.982a7.357,7.357,0,0,0-4.38,1.441L61.843,49.8a18.226,18.226,0,0,0,.813-2.338l2.786-1.073a1.116,1.116,0,0,0,.716-1.042V39.913a1.117,1.117,0,0,0-.716-1.042L62.656,37.8a18.138,18.138,0,0,0-.814-2.337l3.627-3.627a7.406,7.406,0,1,0-1.58-1.579l-2.763,2.763.98-2.205a1.117,1.117,0,0,0-.231-1.243l-3.841-3.841a1.118,1.118,0,0,0-1.243-.231L54.06,26.71a18.19,18.19,0,0,0-2.685-1.257L53.2,22.3a7.421,7.421,0,1,0-1.933-1.12L49.518,24.2l-.785-2.04a1.117,1.117,0,0,0-1.043-.716H44.975a1.117,1.117,0,0,0-1.117,1.117v9.767a1.117,1.117,0,0,0,1.117,1.117,9.184,9.184,0,1,1,0,18.367,1.117,1.117,0,0,0-1.117,1.117V62.7a1.117,1.117,0,0,0,1.117,1.117H47.69a1.117,1.117,0,0,0,1.042-.716l.786-2.041,1.746,3.026a7.383,7.383,0,1,0,1.933-1.12L51.375,59.8a18.2,18.2,0,0,0,2.685-1.256l2.732,1.213a1.117,1.117,0,0,0,1.243-.232l3.841-3.84a1.116,1.116,0,0,0,.231-1.243l-.98-2.206L63.889,55a7.4,7.4,0,1,0,5.96-3.021ZM66.329,26.4l2.25,2.251a1.118,1.118,0,0,0,.79.327h.059a1.118,1.118,0,0,0,.81-.413l3.211-3.97a1.117,1.117,0,0,0-1.737-1.405l-2.431,3.005-1.373-1.373A1.117,1.117,0,1,0,66.329,26.4ZM32.469,13.875,30.941,15.4l1.529,1.529a1.117,1.117,0,1,1-1.579,1.58l-1.529-1.529-1.529,1.529a1.117,1.117,0,0,1-1.579-1.58L27.781,15.4l-1.529-1.529a1.117,1.117,0,0,1,1.579-1.58l1.529,1.529L30.89,12.3a1.117,1.117,0,1,1,1.579,1.58ZM52.366,68.8a1.119,1.119,0,0,0,0,1.581l2.25,2.25a1.119,1.119,0,0,0,.79.327h.059a1.118,1.118,0,0,0,.809-.413l3.211-3.969a1.117,1.117,0,0,0-1.737-1.406l-2.431,3.006L53.946,68.8a1.119,1.119,0,0,0-1.58,0ZM39.157,31.265a11.418,11.418,0,0,0,0,22.726v7.588h-.832l-1-2.609a1.116,1.116,0,0,0-.784-.686,16.018,16.018,0,0,1-4.688-1.943,1.115,1.115,0,0,0-1.039-.07l-2.558,1.135L25.495,54.65l1.136-2.556a1.115,1.115,0,0,0-.07-1.038,16,16,0,0,1-1.944-4.69,1.117,1.117,0,0,0-.685-.783l-2.609-1v-3.9l2.61-1a1.116,1.116,0,0,0,.685-.784A15.985,15.985,0,0,1,26.562,34.2a1.118,1.118,0,0,0,.07-1.039l-1.136-2.558,2.757-2.756,2.557,1.135a1.117,1.117,0,0,0,1.039-.07,15.974,15.974,0,0,1,4.689-1.944,1.118,1.118,0,0,0,.784-.685l1-2.609h.832v7.588ZM15.4,64.548a5.166,5.166,0,1,0-5.166-5.166A5.171,5.171,0,0,0,15.4,64.548Zm0-33.507a5.166,5.166,0,1,0-5.166-5.166A5.172,5.172,0,0,0,15.4,31.041ZM29.361,75.019A5.166,5.166,0,1,0,24.2,69.854,5.171,5.171,0,0,0,29.361,75.019ZM24.2,15.4a5.166,5.166,0,1,0,5.166-5.166A5.172,5.172,0,0,0,24.2,15.4Zm16.078,6.04H37.558a1.116,1.116,0,0,0-1.042.716L35.73,24.2l-1.746-3.025A7.381,7.381,0,1,0,32.05,22.3l1.823,3.158a18.2,18.2,0,0,0-2.685,1.257L28.457,25.5a1.118,1.118,0,0,0-1.243.231l-3.841,3.841a1.117,1.117,0,0,0-.231,1.243l.98,2.205-2.763-2.763a7.411,7.411,0,1,0-1.579,1.579l3.626,3.627a18.207,18.207,0,0,0-.813,2.337L19.8,38.87a1.117,1.117,0,0,0-.716,1.042v5.431a1.116,1.116,0,0,0,.716,1.042l2.787,1.073A18.228,18.228,0,0,0,23.4,49.8l-3.626,3.626A7.406,7.406,0,1,0,21.358,55l2.763-2.763-.98,2.206a1.116,1.116,0,0,0,.231,1.243l3.841,3.84a1.117,1.117,0,0,0,1.243.232l2.732-1.213A18.207,18.207,0,0,0,33.874,59.8L32.05,62.962a7.422,7.422,0,1,0,1.933,1.12l1.747-3.026.785,2.041a1.118,1.118,0,0,0,1.043.716h2.716A1.117,1.117,0,0,0,41.391,62.7V52.929a1.117,1.117,0,0,0-1.117-1.117,9.184,9.184,0,1,1,0-18.367,1.117,1.117,0,0,0,1.117-1.117V22.561a1.117,1.117,0,0,0-1.117-1.117Z" fill-rule="evenodd"/>
    </g>
  </g>
</svg>
