<svg xmlns="http://www.w3.org/2000/svg" xmlns:xlink="http://www.w3.org/1999/xlink" width="118" height="118" viewBox="0 0 118 118">
  <defs>
    <filter id="Trazado_982547" x="0" y="0" width="118" height="118" filterUnits="userSpaceOnUse">
      <feOffset dy="3" input="SourceAlpha"/>
      <feGaussianBlur stdDeviation="3" result="blur"/>
      <feFlood flood-opacity="0.161"/>
      <feComposite operator="in" in2="blur"/>
      <feComposite in="SourceGraphic"/>
    </filter>
  </defs>
  <g id="Grupo_1210060" data-name="Grupo 1210060" transform="translate(-1213 -1632)">
    <g id="Grupo_1209247" data-name="Grupo 1209247" transform="translate(419.51 401.784)">
      <g id="Grupo_1208492" data-name="Grupo 1208492" transform="translate(802.49 1236.215)">
        <g id="Grupo_1177675" data-name="Grupo 1177675" transform="translate(0 0)">
          <g id="Grupo_1176928" data-name="Grupo 1176928" transform="translate(0)">
            <g id="Grupo_1172322" data-name="Grupo 1172322" transform="translate(0 0)">
              <g id="Grupo_1164700" data-name="Grupo 1164700">
                <g id="Grupo_1160931" data-name="Grupo 1160931">
                  <g id="Grupo_1160749" data-name="Grupo 1160749">
                    <g id="Grupo_1158891" data-name="Grupo 1158891">
                      <g id="Grupo_1157406" data-name="Grupo 1157406">
                        <g id="Grupo_1155793" data-name="Grupo 1155793">
                          <g id="Grupo_1154704" data-name="Grupo 1154704">
                            <g id="Grupo_1150790" data-name="Grupo 1150790">
                              <g id="Grupo_1154214" data-name="Grupo 1154214">
                                <g id="Grupo_1152583" data-name="Grupo 1152583">
                                  <g id="Grupo_1146973" data-name="Grupo 1146973">
                                    <g id="Grupo_1146954" data-name="Grupo 1146954">
                                      <g transform="matrix(1, 0, 0, 1, -9, -6)" filter="url(#Trazado_982547)">
                                        <g id="Trazado_982547-2" data-name="Trazado 982547" transform="translate(9 6)" fill="#fef9e7">
                                          <path d="M 49.99995803833008 98.49976348876953 C 43.45184326171875 98.49976348876953 37.10039901733398 97.2176513671875 31.1220588684082 94.68901824951172 C 25.34690093994141 92.246337890625 20.15995788574219 88.74910736083984 15.70531558990479 84.29447937011719 C 11.25068664550781 79.83985137939453 7.753458023071289 74.65290832519531 5.31077241897583 68.87776184082031 C 2.782143831253052 62.89942169189453 1.500015139579773 56.54797744750977 1.500015139579773 49.9998779296875 C 1.500015139579773 43.45177841186523 2.782143831253052 37.10033416748047 5.31077241897583 31.12199211120605 C 7.753458023071289 25.34684944152832 11.25068664550781 20.15992164611816 15.70531558990479 15.70529174804688 C 20.15995788574219 11.25066375732422 25.34688568115234 7.753435134887695 31.1220588684082 5.310749530792236 C 37.10039901733398 2.782120704650879 43.45184326171875 1.500006556510925 49.99995803833008 1.500006556510925 C 56.54807281494141 1.500006556510925 62.89951705932617 2.782120704650879 68.87786865234375 5.310749530792236 C 74.65303039550781 7.753435134887695 79.83997344970703 11.25066375732422 84.29460144042969 15.70529174804688 C 88.74924468994141 20.15992164611816 92.24647521972656 25.34684944152832 94.68915557861328 31.12199211120605 C 97.21778869628906 37.10033416748047 98.49991607666016 43.45177841186523 98.49991607666016 49.9998779296875 C 98.49991607666016 56.54797744750977 97.21778869628906 62.89942169189453 94.68915557861328 68.87776184082031 C 92.24647521972656 74.65290832519531 88.74924468994141 79.83985137939453 84.29460144042969 84.29447937011719 C 79.83997344970703 88.74910736083984 74.65303039550781 92.246337890625 68.87786865234375 94.68901824951172 C 62.89951705932617 97.2176513671875 56.54807281494141 98.49976348876953 49.99995803833008 98.49976348876953 Z" stroke="none"/>
                                          <path d="M 49.99995803833008 3 C 43.65368270874023 3 37.49883651733398 4.24224853515625 31.70637512207031 6.692245483398438 C 26.11001586914062 9.059310913085938 21.08334350585938 12.44858551025391 16.76597595214844 16.76595306396484 C 12.44860076904297 21.08330535888672 9.059326171875 26.10997009277344 6.692268371582031 31.70632171630859 C 4.242263793945312 37.49877166748047 3.000007629394531 43.65361785888672 3.000007629394531 49.9998779296875 C 3.000007629394531 56.34613800048828 4.242263793945312 62.50098419189453 6.692268371582031 68.29343414306641 C 9.059326171875 73.88978576660156 12.44860076904297 78.91644287109375 16.76597595214844 83.23380279541016 C 21.08334350585938 87.55117034912109 26.11001586914062 90.94044494628906 31.70637512207031 93.30751037597656 C 37.49883651733398 95.75750732421875 43.65368270874023 96.999755859375 49.99995803833008 96.999755859375 C 56.34623336791992 96.999755859375 62.50107955932617 95.75750732421875 68.29354095458984 93.30751037597656 C 73.889892578125 90.94044494628906 78.91657257080078 87.55117034912109 83.23394012451172 83.23380279541016 C 87.55131530761719 78.91644287109375 90.94058990478516 73.88978576660156 93.30764770507812 68.29343414306641 C 95.75765228271484 62.50098419189453 96.99990844726562 56.34613800048828 96.99990844726562 49.9998779296875 C 96.99990844726562 43.65361785888672 95.75765228271484 37.49877166748047 93.30764770507812 31.70632171630859 C 90.94058990478516 26.10997009277344 87.55131530761719 21.08330535888672 83.23394012451172 16.76595306396484 C 78.91657257080078 12.44858551025391 73.889892578125 9.059310913085938 68.29354095458984 6.692245483398438 C 62.50107955932617 4.24224853515625 56.34623336791992 3 49.99995803833008 3 M 49.99995803833008 0 C 77.61415863037109 0 99.99990844726562 22.38571166992188 99.99990844726562 49.9998779296875 C 99.99990844726562 77.61404418945312 77.61415863037109 99.999755859375 49.99995803833008 99.999755859375 C 22.38575744628906 99.999755859375 7.62939453125e-06 77.61404418945312 7.62939453125e-06 49.9998779296875 C 7.62939453125e-06 22.38571166992188 22.38575744628906 0 49.99995803833008 0 Z" stroke="none" fill="#f8ce24"/>
                                        </g>
                                      </g>
                                    </g>
                                  </g>
                                </g>
                              </g>
                            </g>
                          </g>
                        </g>
                      </g>
                    </g>
                  </g>
                </g>
              </g>
            </g>
          </g>
        </g>
      </g>
    </g>
    <g id="incident_14105657_1_" data-name="incident_14105657 (1)" transform="translate(1209.111 1640)">
      <path id="Trazado_1049294" data-name="Trazado 1049294" d="M81.366,25.624a.847.847,0,0,1,.256.622V46.109A11.527,11.527,0,0,1,85.49,64.943l1.971,3.212a2.514,2.514,0,0,1,1.483,1.1L92.9,75.65a2.613,2.613,0,0,1,.226,2.219c-.79,2.382-4.32,3.311-5.664,1.137l-3.95-6.39a2.56,2.56,0,0,1-.332-1.8l-1.552-2.524v6.93A3.232,3.232,0,0,1,78.4,78.451H37.026A3.23,3.23,0,0,1,33.8,75.224v-56A3.232,3.232,0,0,1,37.026,16H71.388a.848.848,0,0,1,.61.257l9.367,9.367Zm.257,26.7v8.943a6.209,6.209,0,0,0,0-8.943Z" fill-rule="evenodd"/>
      <path id="Trazado_1049295" data-name="Trazado 1049295" d="M194.238,291.5h-1.307a.855.855,0,0,1-.855-.855V285.81H189.73v4.843a.851.851,0,0,1-.851.851H187.57l3.335,3.538Q192.571,293.269,194.238,291.5Z" transform="translate(-133.193 -233.705)" fill="#ef6262" fill-rule="evenodd"/>
      <path id="Trazado_1049296" data-name="Trazado 1049296" d="M234.048,294.42H239.9a11.535,11.535,0,0,1,.314-8.61H234v3.981h2.431a.852.852,0,0,1,.621,1.436Z" transform="translate(-173.41 -233.705)" fill="#f2f2f2" fill-rule="evenodd"/>
      <path id="Trazado_1049297" data-name="Trazado 1049297" d="M286.689,261.679c.116.193.254.521.427.777,1.629,2.207,2.77,3.4,5.446,4.263a9.829,9.829,0,0,0,6.05-.049l.753-.288a.854.854,0,0,1,1.119.313l1.808,2.944a3.769,3.769,0,0,1,1.4-.851l-1.839-2.993a.854.854,0,0,1,.213-1.129A9.823,9.823,0,0,0,291.6,248.34a10.335,10.335,0,0,0-1.2.624.837.837,0,0,1-.119.074,9.827,9.827,0,0,0-3.592,12.644ZM299.3,250.42a8.1,8.1,0,0,1,2.965,2.845,7.9,7.9,0,1,1-2.965-2.845Z" transform="translate(-218.177 -200.551)" fill="#0c9198" fill-rule="evenodd"/>
      <path id="Trazado_1049298" data-name="Trazado 1049298" d="M78.33,73.493H70.088l-.732.775a.852.852,0,0,1-1.2-.037l-5.27-5.592a.855.855,0,0,1,.579-1.483H65.9V63.175H53.987a2.587,2.587,0,0,1-2.215-3.929L57.7,48.985l-3.442-1.993-1.188,2.05a.854.854,0,0,1-1.588-.126l-2.221-7.4a.854.854,0,0,1,.621-1.091l7.537-1.778a.852.852,0,0,1,.937,1.253l-1.218,2.11L60.585,44l5.952-10.3a2.588,2.588,0,0,1,4.483,0L76.972,44l3.45-1.991-1.184-2.051a.854.854,0,0,1,.9-1.314l7.538,1.781A.854.854,0,0,1,88.3,41.5l-2.233,7.421a.852.852,0,0,1-1.554.181l-1.216-2.1-3.45,1.991,4.642,8.04a11.5,11.5,0,0,1,6.489-.38V38.159H84.437a2.848,2.848,0,0,1-2.842-2.842V28.78H48.087A1.523,1.523,0,0,0,46.57,30.3v56a1.523,1.523,0,0,0,1.517,1.517H89.457a1.523,1.523,0,0,0,1.517-1.517V79.1a11.524,11.524,0,0,1-6.036-.237H63.795a.855.855,0,1,1,0-1.709H81.554a11.531,11.531,0,0,1-3.229-3.664ZM51.142,84.239a.855.855,0,1,1,0-1.709H87.005a.855.855,0,1,1,0,1.709Zm5.536-17.582a5.8,5.8,0,0,1,4.878,4.878h.236a.855.855,0,0,1,.855.854,6.825,6.825,0,1,1-6.825-6.825.855.855,0,0,1,.854.855Z" transform="translate(-11.061 -11.07)" fill="#f2f2f2" fill-rule="evenodd"/>
      <path id="Trazado_1049299" data-name="Trazado 1049299" d="M109.044,95.907H121.1a11.518,11.518,0,0,1,4.122-3.747L111.84,68.98a.883.883,0,0,0-1.534,0l-8.4,14.554L95.526,94.58a.881.881,0,0,0,.765,1.326Zm2.029-6.952a2.718,2.718,0,1,1-1.927.8A2.723,2.723,0,0,1,111.073,88.955Zm2.177-3.2c.062,2.071-2.335,3.479-3.779,1.7a2.619,2.619,0,0,1-.577-1.7l-.329-9.667a2.514,2.514,0,0,1,4.29-1.8,2.409,2.409,0,0,1,.724,1.8Z" transform="translate(-53.361 -45.505)" fill="#f7ba2d" fill-rule="evenodd"/>
      <path id="Trazado_1049300" data-name="Trazado 1049300" d="M89.369,123.014,85.182,120.6a.851.851,0,0,1-.314-1.162l.657-1.136-4.734,1.119,1.4,4.659.654-1.135a.852.852,0,0,1,1.166-.312L88.2,125.04Z" transform="translate(-40.702 -88.611)" fill="#07718b" fill-rule="evenodd"/>
      <path id="Trazado_1049301" data-name="Trazado 1049301" d="M281.255,125.048l4.186-2.418a.852.852,0,0,1,1.191.359l.629,1.089,1.4-4.659-4.734-1.119.657,1.136a.851.851,0,0,1-.314,1.162l-4.186,2.417Z" transform="translate(-213.324 -88.611)" fill="#0c9198" fill-rule="evenodd"/>
      <path id="Trazado_1049302" data-name="Trazado 1049302" d="M206.66,234.208a1.016,1.016,0,1,0,.3.719A1.016,1.016,0,0,0,206.66,234.208Z" transform="translate(-148.229 -188.753)" fill="#ef6262" fill-rule="evenodd"/>
      <path id="Trazado_1049303" data-name="Trazado 1049303" d="M207.728,129.251l.331-9.69a.81.81,0,0,0-1.386-.535.752.752,0,0,0-.222.535l.333,9.69C206.821,130.427,207.736,130.285,207.728,129.251Z" transform="translate(-149.547 -89.03)" fill="#ef6262" fill-rule="evenodd"/>
      <path id="Trazado_1049304" data-name="Trazado 1049304" d="M321.08,37.81v5.329a1.14,1.14,0,0,0,1.133,1.133h5.329Z" transform="translate(-248.837 -18.891)" fill="#919091" fill-rule="evenodd"/>
      <path id="Trazado_1049305" data-name="Trazado 1049305" d="M321.576,286.418V275.151a6.2,6.2,0,1,0,0,11.267Z" transform="translate(-241.663 -223.984)" fill="#f2f2f2" fill-rule="evenodd"/>
      <path id="Trazado_1049306" data-name="Trazado 1049306" d="M124,361.05l1.017,3.795a5.117,5.117,0,0,0,2.912-3.795Z" transform="translate(-78.13 -298.877)" fill="#ffab3c" fill-rule="evenodd"/>
      <path id="Trazado_1049307" data-name="Trazado 1049307" d="M83.108,327.13l-1.291-4.824a.828.828,0,0,1-.043-.268V317a5.112,5.112,0,0,0,1.334,10.13Z" transform="translate(-37.865 -260.721)" fill="#07718b" fill-rule="evenodd"/>
      <path id="Trazado_1049308" data-name="Trazado 1049308" d="M417.187,417.61a1.892,1.892,0,0,0-1.92,1.2.907.907,0,0,0,.1.836l3.909,6.324c.514.83,2.227.326,2.592-.777a.915.915,0,0,0-.094-.858l-3.91-6.323A.894.894,0,0,0,417.187,417.61Z" transform="translate(-330.369 -347.859)" fill="#07718b" fill-rule="evenodd"/>
      <path id="Trazado_1049309" data-name="Trazado 1049309" d="M125.251,327.951a4.088,4.088,0,0,0-3.141-3.141v3.141Z" transform="translate(-76.493 -267.486)" fill="#ef6262" fill-rule="evenodd"/>
    </g>
  </g>
</svg>
