<svg xmlns="http://www.w3.org/2000/svg" xmlns:xlink="http://www.w3.org/1999/xlink" width="103" height="103" viewBox="0 0 103 103">
  <defs>
    <filter id="Trazado_904820" x="0" y="0" width="103" height="103" filterUnits="userSpaceOnUse">
      <feOffset dy="3" input="SourceAlpha"/>
      <feGaussianBlur stdDeviation="3" result="blur"/>
      <feFlood flood-opacity="0.161"/>
      <feComposite operator="in" in2="blur"/>
      <feComposite in="SourceGraphic"/>
    </filter>
  </defs>
  <g id="Grupo_1210062" data-name="Grupo 1210062" transform="translate(-185 -2351)">
    <g id="Grupo_1209249" data-name="Grupo 1209249" transform="translate(-15 1589)">
      <g id="Grupo_1202705" data-name="Grupo 1202705" transform="translate(209 768)">
        <g id="Grupo_1173585" data-name="Grupo 1173585" transform="translate(0 0)">
          <g id="Grupo_1173428" data-name="Grupo 1173428">
            <g id="Grupo_1171958" data-name="Grupo 1171958">
              <g id="Grupo_1167341" data-name="Grupo 1167341">
                <g id="Grupo_1166792" data-name="Grupo 1166792">
                  <g transform="matrix(1, 0, 0, 1, -9, -6)" filter="url(#Trazado_904820)">
                    <g id="Trazado_904820-2" data-name="Trazado 904820" transform="translate(9 6)" fill="#fef9e7">
                      <path d="M 42.49999618530273 83.50002288818359 C 36.96437454223633 83.50002288818359 31.59512519836426 82.41619873046875 26.54140853881836 80.27865600585938 C 21.65933799743652 78.21370697021484 17.27447891235352 75.25724792480469 13.50861930847168 71.49138641357422 C 9.742773056030273 67.72554016113281 6.786302089691162 63.34067153930664 4.721360683441162 58.45859909057617 C 2.583819627761841 53.40488052368164 1.499996185302734 48.0356330871582 1.499996185302734 42.5000114440918 C 1.499996185302734 36.96438980102539 2.583819627761841 31.59514045715332 4.721360683441162 26.54142379760742 C 6.786302089691162 21.65933990478516 9.742773056030273 17.27448272705078 13.50861930847168 13.50862312316895 C 17.27447891235352 9.742775917053223 21.65933799743652 6.78630542755127 26.54140853881836 4.721364498138428 C 31.59512519836426 2.583823204040527 36.96437454223633 1.499999642372131 42.49999618530273 1.499999642372131 C 48.03561782836914 1.499999642372131 53.40486526489258 2.583823204040527 58.45858383178711 4.721364498138428 C 63.34065628051758 6.78630542755127 67.72551727294922 9.742775917053223 71.49137115478516 13.50862312316895 C 75.25721740722656 17.27448272705078 78.21369171142578 21.65933990478516 80.27863311767578 26.54142379760742 C 82.41617584228516 31.59514045715332 83.5 36.96438980102539 83.5 42.5000114440918 C 83.5 48.0356330871582 82.41617584228516 53.40488052368164 80.27863311767578 58.45859909057617 C 78.21369171142578 63.34067153930664 75.25721740722656 67.72554016113281 71.49137115478516 71.49138641357422 C 67.72551727294922 75.25724792480469 63.34065628051758 78.21370697021484 58.45858383178711 80.27865600585938 C 53.40486526489258 82.41619873046875 48.03561782836914 83.50002288818359 42.49999618530273 83.50002288818359 Z" stroke="none"/>
                      <path d="M 42.49999618530273 3 C 37.16621017456055 3 31.99356842041016 4.043960571289062 27.1257438659668 6.102874755859375 C 22.42246246337891 8.092201232910156 18.19786071777344 10.94070434570312 14.56927490234375 14.56929016113281 C 10.94070434570312 18.19786834716797 8.092185974121094 22.42246627807617 6.102874755859375 27.1257438659668 C 4.043952941894531 31.99357223510742 2.999992370605469 37.16622543334961 2.999992370605469 42.5000114440918 C 2.999992370605469 47.83379745483398 4.043952941894531 53.00645065307617 6.102874755859375 57.8742790222168 C 8.092185974121094 62.57754516601562 10.94070434570312 66.80214691162109 14.56927490234375 70.43073272705078 C 18.19786071777344 74.05931854248047 22.42246246337891 76.90782165527344 27.1257438659668 78.89714813232422 C 31.99356842041016 80.95606231689453 37.16621017456055 82.00002288818359 42.49999618530273 82.00002288818359 C 47.83378219604492 82.00002288818359 53.00642395019531 80.95606231689453 57.87425231933594 78.89714813232422 C 62.57752990722656 76.90782165527344 66.80213165283203 74.05931854248047 70.43071746826172 70.43073272705078 C 74.05928802490234 66.80214691162109 76.90780639648438 62.57754516601562 78.89711761474609 57.8742790222168 C 80.95603942871094 53.00645065307617 82 47.83379745483398 82 42.5000114440918 C 82 37.16622543334961 80.95603942871094 31.99357223510742 78.89711761474609 27.1257438659668 C 76.90780639648438 22.42246627807617 74.05928802490234 18.19786834716797 70.43071746826172 14.56929016113281 C 66.80213165283203 10.94070434570312 62.57752990722656 8.092201232910156 57.87425231933594 6.102874755859375 C 53.00642395019531 4.043960571289062 47.83378219604492 3 42.49999618530273 3 M 42.49999618530273 0 C 65.97209167480469 0 85 19.02790832519531 85 42.5000114440918 C 85 65.97210693359375 65.97209167480469 85.00002288818359 42.49999618530273 85.00002288818359 C 19.02790069580078 85.00002288818359 -7.62939453125e-06 65.97210693359375 -7.62939453125e-06 42.5000114440918 C -7.62939453125e-06 19.02790832519531 19.02790069580078 0 42.49999618530273 0 Z" stroke="none" fill="#887013"/>
                    </g>
                  </g>
                </g>
              </g>
            </g>
          </g>
        </g>
      </g>
    </g>
    <g id="automation_17352583" transform="translate(203.305 2366.309)">
      <g id="Grupo_1210061" data-name="Grupo 1210061" transform="translate(5.359 11.159)">
        <path id="Trazado_1049310" data-name="Trazado 1049310" d="M68.062,165.1a12,12,0,0,0-1.51-3.638l.7-1.165.849-1.422a14.826,14.826,0,0,0-2.888-2.888l-1.422.849-1.165.694a12.126,12.126,0,0,0-3.638-1.507l-.331-1.316-.408-1.606a14.889,14.889,0,0,0-4.083,0l-.4,1.606-.334,1.316a12.1,12.1,0,0,0-3.634,1.507l-1.169-.694L47.2,155.99a14.933,14.933,0,0,0-2.888,2.888l.849,1.422.7,1.165a12.094,12.094,0,0,0-1.51,3.638l-1.316.331-1.606.4a15.019,15.019,0,0,0,0,4.086l1.606.4,1.319.331a12.086,12.086,0,0,0,1.507,3.638l-.7,1.169-.849,1.422a15.147,15.147,0,0,0,2.888,2.888l1.422-.852,1.169-.695a12.1,12.1,0,0,0,3.634,1.507l.334,1.316.4,1.61a14.993,14.993,0,0,0,4.083,0l.408-1.61.331-1.316a12.127,12.127,0,0,0,3.638-1.507l1.165.695,1.422.852a15.036,15.036,0,0,0,2.888-2.888l-.849-1.422-.7-1.169a12,12,0,0,0,1.51-3.638l1.316-.331,1.606-.4a15.02,15.02,0,0,0,0-4.086l-1.606-.4Z" transform="translate(-41.288 -144.29)" fill="#69a7ff" fill-rule="evenodd"/>
        <path id="Trazado_1049311" data-name="Trazado 1049311" d="M108.134,211.379a8.439,8.439,0,1,0-8.439,8.441,8.439,8.439,0,0,0,8.439-8.441Z" transform="translate(-84.777 -187.788)" fill="#d5e3f2" fill-rule="evenodd"/>
        <path id="Trazado_1049312" data-name="Trazado 1049312" d="M292.625,242.291a9.485,9.485,0,0,0-1.18-2.844l.544-.911.665-1.113a11.755,11.755,0,0,0-2.259-2.26l-1.113.665-.911.544a9.381,9.381,0,0,0-2.844-1.176l-.257-1.029-.32-1.257a11.626,11.626,0,0,0-3.193,0l-.316,1.257-.261,1.029a9.456,9.456,0,0,0-2.844,1.176l-.911-.544-1.11-.665a11.755,11.755,0,0,0-2.26,2.26l.665,1.113.544.911a9.479,9.479,0,0,0-1.18,2.844l-1.029.261-1.257.316a11.624,11.624,0,0,0,0,3.193l1.257.316,1.029.261a9.52,9.52,0,0,0,1.18,2.844l-.544.911-.665,1.113a11.844,11.844,0,0,0,2.26,2.256l1.11-.665.911-.544a9.427,9.427,0,0,0,2.844,1.18l.261,1.029.316,1.257a11.61,11.61,0,0,0,3.193,0l.32-1.257.257-1.029a9.392,9.392,0,0,0,2.844-1.18l.911.544,1.113.666a11.844,11.844,0,0,0,2.26-2.256l-.665-1.113-.544-.911a9.526,9.526,0,0,0,1.18-2.844l1.029-.261,1.253-.316a11.624,11.624,0,0,0,0-3.193l-1.253-.316Z" transform="translate(-241.818 -213.775)" fill="#fea832" fill-rule="evenodd"/>
        <path id="Trazado_1049313" data-name="Trazado 1049313" d="M324.621,279.245a6.484,6.484,0,1,0-6.482,6.486,6.484,6.484,0,0,0,6.482-6.486Z" transform="translate(-276.602 -248.557)" fill="#d5e3f2" fill-rule="evenodd"/>
        <path id="Trazado_1049314" data-name="Trazado 1049314" d="M264.956,92.851a7.282,7.282,0,0,0-1.088-2.128l.367-.739.445-.9a9.188,9.188,0,0,0-1.889-1.609l-.819.584-.669.478a7.339,7.339,0,0,0-2.275-.735l-.264-.783-.324-.952a9.293,9.293,0,0,0-2.469.2l-.165.992-.14.812a7.262,7.262,0,0,0-2.123,1.088l-.742-.364-.9-.445a9.164,9.164,0,0,0-1.606,1.884l.581.819.478.673A7.384,7.384,0,0,0,250.617,94l-.779.265-.952.324a9.367,9.367,0,0,0,.015,1.242,8.983,8.983,0,0,0,.184,1.227l.989.165.812.14a7.443,7.443,0,0,0,1.088,2.124l-.364.742-.445.9a9.057,9.057,0,0,0,1.886,1.605l.819-.581.673-.478a7.412,7.412,0,0,0,2.271.735l.264.779.324.952a8.26,8.26,0,0,0,1.242-.015,9.488,9.488,0,0,0,1.227-.18l.169-.992.136-.812a7.463,7.463,0,0,0,2.128-1.088l.739.364.9.445a9.074,9.074,0,0,0,1.609-1.885l-.584-.819-.478-.673a7.292,7.292,0,0,0,.739-2.271l.779-.265.952-.323a9.373,9.373,0,0,0-.015-1.242,8.908,8.908,0,0,0-.184-1.227l-.992-.169Z" transform="translate(-221.961 -86.054)" fill="#fb4455" fill-rule="evenodd"/>
        <path id="Trazado_1049315" data-name="Trazado 1049315" d="M292.882,125.232a4.511,4.511,0,1,0-4.134,4.858A4.511,4.511,0,0,0,292.882,125.232Z" transform="translate(-252.427 -116.542)" fill="#d5e3f2" fill-rule="evenodd"/>
        <path id="Trazado_1049316" data-name="Trazado 1049316" d="M340.956,298.44a3.625,3.625,0,1,0-3.623,3.627,3.625,3.625,0,0,0,3.623-3.627Z" transform="translate(-295.797 -267.753)" fill="#fea832" fill-rule="evenodd"/>
        <path id="Trazado_1049317" data-name="Trazado 1049317" d="M118.657,156.023l.331-1.316.4-1.606c.375-.052.753-.092,1.128-.114a14.981,14.981,0,0,0-2.954.114l-.4,1.606-.334,1.316a12.087,12.087,0,0,0-2.694.977l.886.529a12.086,12.086,0,0,1,3.638-1.507Z" transform="translate(-104.689 -144.286)" fill="#4c8fed" fill-rule="evenodd"/>
        <path id="Trazado_1049318" data-name="Trazado 1049318" d="M46.138,179.188a14.86,14.86,0,0,1,2.117-2.26L47.2,176.3a14.933,14.933,0,0,0-2.888,2.888l.849,1.422.7,1.165a12.094,12.094,0,0,0-1.51,3.638l-1.316.331-1.606.4a15.019,15.019,0,0,0,0,4.086l1.606.4,1.319.331a12.086,12.086,0,0,0,1.507,3.638l-.7,1.169-.849,1.422a15.147,15.147,0,0,0,2.888,2.888l1.055-.632a14.829,14.829,0,0,1-2.117-2.256l.849-1.422.7-1.169a12.089,12.089,0,0,1-1.507-3.639l-1.316-.331-1.61-.4a15.019,15.019,0,0,1,0-4.086l1.61-.4,1.316-.331a12.087,12.087,0,0,1,1.507-3.638l-.7-1.165Z" transform="translate(-41.288 -164.601)" fill="#4c8fed" fill-rule="evenodd"/>
        <path id="Trazado_1049319" data-name="Trazado 1049319" d="M118.659,349.36a12.086,12.086,0,0,1-3.638-1.507l-.886.529a12.08,12.08,0,0,0,2.694.977l.334,1.316.4,1.61a15.6,15.6,0,0,0,2.043.14c.305,0,.61-.011.911-.029-.378-.022-.757-.062-1.128-.11l-.4-1.61Z" transform="translate(-104.691 -313.914)" fill="#4c8fed" fill-rule="evenodd"/>
        <path id="Trazado_1049320" data-name="Trazado 1049320" d="M92.332,211.359a8.44,8.44,0,0,1,7.9-8.423c-.18-.011-.357-.018-.537-.018a8.441,8.441,0,1,0,0,16.882c.18,0,.357-.007.537-.018A8.437,8.437,0,0,1,92.332,211.359Z" transform="translate(-84.781 -187.768)" fill="#b7cfe8" fill-rule="evenodd"/>
        <path id="Trazado_1049321" data-name="Trazado 1049321" d="M291.493,88.072l.136-.812.169-.992a9.184,9.184,0,0,1,1.3-.187l0-.011a9.293,9.293,0,0,0-2.47.2l-.165.992-.14.812a7.318,7.318,0,0,0-1.632.753l.677.335a7.281,7.281,0,0,1,2.128-1.088Z" transform="translate(-256.616 -86.056)" fill="#e32639" fill-rule="evenodd"/>
        <path id="Trazado_1049322" data-name="Trazado 1049322" d="M252.046,106.467l-.581-.819a8.952,8.952,0,0,1,1.206-1.507l-.772-.379a9.164,9.164,0,0,0-1.606,1.885l.581.819.478.673a7.385,7.385,0,0,0-.735,2.271l-.779.265-.952.324a9.367,9.367,0,0,0,.015,1.242,8.983,8.983,0,0,0,.184,1.227l.988.169.812.136a7.443,7.443,0,0,0,1.088,2.124l-.364.742-.445.9a9.057,9.057,0,0,0,1.886,1.606l.581-.412a9.466,9.466,0,0,1-1.294-1.194l.445-.9.364-.742a7.352,7.352,0,0,1-1.088-2.124l-.812-.136-.992-.169a10.268,10.268,0,0,1-.184-1.227,8.76,8.76,0,0,1-.011-1.242l.952-.324.779-.265a7.381,7.381,0,0,1,.735-2.271Z" transform="translate(-221.961 -101.466)" fill="#e32639" fill-rule="evenodd"/>
        <path id="Trazado_1049323" data-name="Trazado 1049323" d="M300.859,207.281a7.381,7.381,0,0,1-2.271-.735l-.456.324a7.391,7.391,0,0,0,1.555.411l.264.779.324.952a8.862,8.862,0,0,0,1.169-.007l-.32-.944Z" transform="translate(-264.835 -190.926)" fill="#e32639" fill-rule="evenodd"/>
        <path id="Trazado_1049324" data-name="Trazado 1049324" d="M284.834,125.952a4.51,4.51,0,0,1,4.035-4.847,4.81,4.81,0,0,0-.831-.007,4.511,4.511,0,0,0,.72,8.992l.1-.011A4.508,4.508,0,0,1,284.834,125.952Z" transform="translate(-252.438 -116.542)" fill="#b7cfe8" fill-rule="evenodd"/>
        <path id="Trazado_1049325" data-name="Trazado 1049325" d="M330.106,236.367a9.378,9.378,0,0,1,2.844-1.176l.257-1.029.32-1.257c.265-.037.533-.066.8-.084a11.843,11.843,0,0,0-2.392.084l-.316,1.257-.261,1.029a9.476,9.476,0,0,0-2.018.72Z" transform="translate(-291.998 -213.772)" fill="#e89025" fill-rule="evenodd"/>
        <path id="Trazado_1049326" data-name="Trazado 1049326" d="M276.3,254.4l-.665-1.113a11.664,11.664,0,0,1,1.591-1.709l-.919-.551a11.755,11.755,0,0,0-2.26,2.26l.665,1.113.544.911a9.479,9.479,0,0,0-1.18,2.844l-1.029.261-1.257.316a11.624,11.624,0,0,0,0,3.193l1.257.316,1.029.261a9.52,9.52,0,0,0,1.18,2.844l-.544.911-.665,1.113a11.843,11.843,0,0,0,2.26,2.256l.919-.548a11.678,11.678,0,0,1-1.591-1.709l.665-1.113.544-.911a9.523,9.523,0,0,1-1.18-2.844l-1.029-.261-1.257-.316a12.018,12.018,0,0,1,0-3.193l1.257-.316,1.029-.261a9.483,9.483,0,0,1,1.18-2.844Z" transform="translate(-241.816 -229.636)" fill="#e89025" fill-rule="evenodd"/>
        <path id="Trazado_1049327" data-name="Trazado 1049327" d="M332.947,386.365a9.388,9.388,0,0,1-2.844-1.18l-.765.459a9.483,9.483,0,0,0,2.018.72l.261,1.029.316,1.257a11.447,11.447,0,0,0,1.6.11c.265,0,.533-.011.794-.029-.272-.018-.537-.044-.8-.081l-.32-1.257Z" transform="translate(-291.996 -346.406)" fill="#e89025" fill-rule="evenodd"/>
        <path id="Trazado_1049328" data-name="Trazado 1049328" d="M312.805,279.245a6.483,6.483,0,0,1,5.915-6.457c-.186-.019-.377-.026-.568-.026a6.484,6.484,0,1,0,0,12.968c.191,0,.382-.007.569-.026a6.484,6.484,0,0,1-5.916-6.46Z" transform="translate(-276.616 -248.557)" fill="#b7cfe8" fill-rule="evenodd"/>
        <path id="Trazado_1049329" data-name="Trazado 1049329" d="M334.675,298.44a3.629,3.629,0,0,1,3.149-3.594,4.105,4.105,0,0,0-.478-.029,3.625,3.625,0,1,0,0,7.25,3.422,3.422,0,0,0,.478-.033A3.623,3.623,0,0,1,334.675,298.44Z" transform="translate(-295.81 -267.753)" fill="#e89025" fill-rule="evenodd"/>
      </g>
      <path id="Trazado_1049330" data-name="Trazado 1049330" d="M66.333,34.973A33.188,33.188,0,0,1,35.407,66.305q-1.105.073-2.209.073A33.149,33.149,0,0,1,14.569,60.66l.708,3.027a.908.908,0,1,1-1.767.414l-1.268-5.416a.907.907,0,0,1,.677-1.091l5.417-1.268a.908.908,0,1,1,.414,1.767l-3.512.822A31.372,31.372,0,0,0,57.769,13.689a.908.908,0,1,1,1.42-1.131,33.118,33.118,0,0,1,7.144,22.415ZM11.011,11.006a31.58,31.58,0,0,1,40.145-3.54l-3.519.823a.908.908,0,1,0,.413,1.768L53.467,8.79A.907.907,0,0,0,54.144,7.7L52.876,2.282a.908.908,0,1,0-1.768.414l.707,3.022A33.191,33.191,0,0,0,7.2,53.824a.908.908,0,1,0,1.421-1.13,31.341,31.341,0,0,1,2.394-41.688ZM51.335,41.9A4.533,4.533,0,1,1,46.8,37.373,4.533,4.533,0,0,1,51.335,41.9Zm-1.815,0A2.717,2.717,0,1,0,46.8,44.623,2.717,2.717,0,0,0,49.52,41.9Zm4.674,0a7.392,7.392,0,1,1-7.39-7.389,7.392,7.392,0,0,1,7.39,7.389Zm-1.815,0a5.576,5.576,0,1,0-5.574,5.578A5.576,5.576,0,0,0,52.38,41.9ZM54.394,31.88a12.655,12.655,0,0,1,2.434,2.434.907.907,0,0,1,.055,1.015l-.934,1.562a10.253,10.253,0,0,1,.865,2.09l1.764.443a.907.907,0,0,1,.678.755,12.561,12.561,0,0,1,0,3.448.907.907,0,0,1-.678.755l-1.763.443a10.354,10.354,0,0,1-.867,2.09l.934,1.562a.907.907,0,0,1-.055,1.015,12.658,12.658,0,0,1-2.434,2.434.907.907,0,0,1-1.014.056l-1.564-.934a10.349,10.349,0,0,1-2.089.867l-.448,1.768a.907.907,0,0,1-.759.676,12.923,12.923,0,0,1-3.434,0,.907.907,0,0,1-.76-.678l-.445-1.766a10.412,10.412,0,0,1-2.09-.867l-1.56.933a.907.907,0,0,1-1.015-.055,12.657,12.657,0,0,1-2.434-2.434.907.907,0,0,1-.055-1.015l.933-1.562a10.372,10.372,0,0,1-.867-2.09l-1.766-.443a.907.907,0,0,1-.678-.761,12.54,12.54,0,0,1,0-3.435.907.907,0,0,1,.678-.761l1.766-.443a10.275,10.275,0,0,1,.867-2.091l-.933-1.561a.907.907,0,0,1,.055-1.015,12.655,12.655,0,0,1,2.434-2.434.908.908,0,0,1,1.015-.055l1.56.933a10.415,10.415,0,0,1,2.09-.867l.445-1.766a.907.907,0,0,1,.758-.678,12.809,12.809,0,0,1,3.437,0,.907.907,0,0,1,.758.676l.448,1.768a10.351,10.351,0,0,1,2.089.867l1.564-.933a.907.907,0,0,1,1.015.056Zm-.625,1.826-1.483.886a.907.907,0,0,1-.944-.009,8.554,8.554,0,0,0-2.572-1.067.907.907,0,0,1-.674-.664l-.421-1.671a10.989,10.989,0,0,0-1.743,0l-.423,1.674a.907.907,0,0,1-.673.661,8.611,8.611,0,0,0-2.573,1.068.907.907,0,0,1-.943.008l-1.481-.885a10.85,10.85,0,0,0-1.232,1.232l.886,1.486a.907.907,0,0,1-.011.945,8.47,8.47,0,0,0-1.065,2.57.907.907,0,0,1-.664.674l-1.672.419c-.025.3-.037.586-.037.872s.012.575.037.872l1.672.419a.907.907,0,0,1,.664.674,8.558,8.558,0,0,0,1.067,2.572.907.907,0,0,1,.009.943l-.886,1.486A10.828,10.828,0,0,0,39.84,50.1l1.481-.885a.907.907,0,0,1,.943.008,8.615,8.615,0,0,0,2.573,1.068.907.907,0,0,1,.673.661l.423,1.673a11.088,11.088,0,0,0,1.744,0l.42-1.67a.907.907,0,0,1,.674-.664,8.555,8.555,0,0,0,2.572-1.067.909.909,0,0,1,.944-.008l1.483.886A10.84,10.84,0,0,0,55,48.87l-.886-1.486a.907.907,0,0,1,.009-.943,8.558,8.558,0,0,0,1.067-2.572.907.907,0,0,1,.663-.674l1.67-.42c.023-.289.035-.58.035-.872s-.012-.583-.035-.872l-1.673-.419a.907.907,0,0,1-.664-.677,8.453,8.453,0,0,0-1.062-2.569.907.907,0,0,1-.009-.943L55,34.939a10.85,10.85,0,0,0-1.234-1.233ZM20.188,44.157a9.349,9.349,0,1,1,9.345-9.347,9.349,9.349,0,0,1-9.345,9.347Zm0-1.815a7.533,7.533,0,1,0-7.533-7.533,7.533,7.533,0,0,0,7.533,7.533Zm-6.415,3.87-2.126,1.267a.907.907,0,0,1-1.015-.057A15.942,15.942,0,0,1,7.57,44.359a.907.907,0,0,1-.056-1.013l1.27-2.125a13,13,0,0,1-1.2-2.886l-2.4-.6a.907.907,0,0,1-.678-.757,15.928,15.928,0,0,1,0-4.333.907.907,0,0,1,.678-.757l2.4-.606a12.985,12.985,0,0,1,1.2-2.885l-1.27-2.128a.907.907,0,0,1,.057-1.015,16.039,16.039,0,0,1,3.062-3.062.908.908,0,0,1,1.015-.057l2.128,1.27a12.981,12.981,0,0,1,2.885-1.2l.605-2.4a.907.907,0,0,1,.758-.678,16.065,16.065,0,0,1,4.327,0,.907.907,0,0,1,.758.676l.607,2.4A12.993,12.993,0,0,1,26.6,23.4l2.125-1.27a.907.907,0,0,1,1.013.056A15.938,15.938,0,0,1,32.8,25.252a.907.907,0,0,1,.057,1.015l-1.27,2.128a12.985,12.985,0,0,1,1.2,2.885l2.4.606a.907.907,0,0,1,.678.757,15.928,15.928,0,0,1,0,4.333.907.907,0,0,1-.678.757l-2.4.6a12.9,12.9,0,0,1-1.2,2.887l1.269,2.124a.907.907,0,0,1-.056,1.013,15.858,15.858,0,0,1-3.064,3.064.907.907,0,0,1-1.013.056L26.6,46.212a13.053,13.053,0,0,1-2.887,1.2l-.608,2.4a.907.907,0,0,1-.756.676,15.885,15.885,0,0,1-4.33,0,.907.907,0,0,1-.757-.678l-.606-2.4a12.991,12.991,0,0,1-2.886-1.2Zm-.465-1.835a.907.907,0,0,1,.943.009,11.189,11.189,0,0,0,3.362,1.393.907.907,0,0,1,.673.66l.586,2.315a14.119,14.119,0,0,0,2.63,0l.584-2.313a.907.907,0,0,1,.674-.662,11.253,11.253,0,0,0,3.367-1.395.907.907,0,0,1,.942-.008L29.12,45.6a14.047,14.047,0,0,0,1.86-1.86L29.755,41.69a.907.907,0,0,1,.009-.947,11.112,11.112,0,0,0,1.4-3.363.907.907,0,0,1,.662-.674l2.313-.582c.041-.437.062-.878.062-1.316s-.021-.879-.062-1.316l-2.314-.586a.907.907,0,0,1-.66-.673,11.186,11.186,0,0,0-1.4-3.362.907.907,0,0,1-.008-.945l1.226-2.052a14.135,14.135,0,0,0-1.86-1.861l-2.048,1.225a.907.907,0,0,1-.946-.008,11.2,11.2,0,0,0-3.365-1.394.907.907,0,0,1-.674-.662L21.5,20.859a14.251,14.251,0,0,0-2.629,0l-.586,2.318a.907.907,0,0,1-.673.66,11.189,11.189,0,0,0-3.362,1.393.907.907,0,0,1-.945.008l-2.052-1.225a14.2,14.2,0,0,0-1.861,1.861l1.225,2.053a.907.907,0,0,1-.008.945,11.182,11.182,0,0,0-1.4,3.362.907.907,0,0,1-.66.673l-2.315.586c-.041.437-.061.878-.061,1.316s.021.879.061,1.316l2.316.582a.907.907,0,0,1,.663.674,11.192,11.192,0,0,0,1.394,3.364.907.907,0,0,1,.008.946L9.393,43.739a14.135,14.135,0,0,0,1.861,1.86ZM35.827,20.7a5.418,5.418,0,1,1,5.836,4.97q-.221.018-.441.018A5.42,5.42,0,0,1,35.827,20.7Zm1.809-.145a3.6,3.6,0,1,0,3.6-3.893q-.144,0-.289.012a3.613,3.613,0,0,0-3.306,3.881ZM24.913,31.271a.907.907,0,0,0-1.283,0L18.48,36.42l-1.732-1.732a.908.908,0,1,0-1.283,1.283l2.374,2.374a.907.907,0,0,0,1.283,0l5.791-5.791a.907.907,0,0,0,0-1.283Zm8.745-5.381.574-1.168a8.349,8.349,0,0,1-.713-1.394l-1.277-.214a.907.907,0,0,1-.737-.7,9.986,9.986,0,0,1-.2-1.355,10.2,10.2,0,0,1-.016-1.362.907.907,0,0,1,.617-.812l1.225-.413a8.289,8.289,0,0,1,.483-1.493l-.751-1.055a.907.907,0,0,1-.026-1.015A10.109,10.109,0,0,1,34.6,12.835a.909.909,0,0,1,1.009-.139l1.165.576a8.173,8.173,0,0,1,1.394-.714l.214-1.277a.907.907,0,0,1,.7-.737,9.906,9.906,0,0,1,2.719-.219.907.907,0,0,1,.807.614l.417,1.228a8.245,8.245,0,0,1,1.492.485l1.055-.753a.907.907,0,0,1,1.017-.025,10.2,10.2,0,0,1,2.073,1.763.907.907,0,0,1,.138,1.01l-.576,1.164a8.152,8.152,0,0,1,.714,1.4l1.278.213a.907.907,0,0,1,.737.7,9.924,9.924,0,0,1,.2,1.355,10.136,10.136,0,0,1,.016,1.362.907.907,0,0,1-.617.812l-1.229.413a8.2,8.2,0,0,1-.482,1.493l.752,1.052a.907.907,0,0,1,.027,1.017,10.014,10.014,0,0,1-1.77,2.077.907.907,0,0,1-1.007.137l-1.163-.575a8.167,8.167,0,0,1-1.394.713l-.217,1.281a.907.907,0,0,1-.7.734,9.815,9.815,0,0,1-1.353.2q-.4.031-.8.031c-.187,0-.375-.005-.562-.015a.907.907,0,0,1-.81-.614l-.417-1.228a8.189,8.189,0,0,1-1.491-.485l-1.057.753a.907.907,0,0,1-1.017.025A10.066,10.066,0,0,1,33.794,26.9a.907.907,0,0,1-.137-1.006Zm.685-4.265a.907.907,0,0,1,.714.617,6.55,6.55,0,0,0,.955,1.869.907.907,0,0,1,.083.938l-.528,1.072a8.237,8.237,0,0,0,.782.666l.974-.693a.907.907,0,0,1,.943-.066,6.389,6.389,0,0,0,1.989.647.907.907,0,0,1,.724.606l.383,1.128c.173,0,.345-.011.516-.025s.341-.033.511-.057l.2-1.176a.907.907,0,0,1,.62-.715,6.366,6.366,0,0,0,1.863-.952.907.907,0,0,1,.944-.083l1.066.529a8.22,8.22,0,0,0,.669-.784l-.692-.972a.907.907,0,0,1-.066-.943,6.38,6.38,0,0,0,.643-1.992.908.908,0,0,1,.607-.725l1.13-.381c0-.172-.011-.342-.025-.514s-.033-.341-.057-.512l-1.176-.2a.907.907,0,0,1-.715-.62,6.361,6.361,0,0,0-.952-1.862.907.907,0,0,1-.085-.941l.529-1.072a8.391,8.391,0,0,0-.784-.666l-.968.691a.907.907,0,0,1-.944.068,6.435,6.435,0,0,0-1.994-.648.907.907,0,0,1-.724-.606l-.383-1.129a8.081,8.081,0,0,0-1.024.082l-.2,1.181a.907.907,0,0,1-.62.711,6.359,6.359,0,0,0-1.859.952.909.909,0,0,1-.942.084l-1.07-.529a8.269,8.269,0,0,0-.668.785l.69.97a.907.907,0,0,1,.068.94,6.476,6.476,0,0,0-.645,2,.907.907,0,0,1-.606.724l-1.128.382c0,.172.011.342.024.514s.033.341.057.512Z" transform="translate(0 0)"/>
    </g>
  </g>
</svg>
