<svg xmlns="http://www.w3.org/2000/svg" xmlns:xlink="http://www.w3.org/1999/xlink" width="103" height="103" viewBox="0 0 103 103">
  <defs>
    <filter id="Trazado_904820" x="0" y="0" width="103" height="103" filterUnits="userSpaceOnUse">
      <feOffset dy="3" input="SourceAlpha"/>
      <feGaussianBlur stdDeviation="3" result="blur"/>
      <feFlood flood-opacity="0.161"/>
      <feComposite operator="in" in2="blur"/>
      <feComposite in="SourceGraphic"/>
    </filter>
  </defs>
  <g id="Grupo_1210064" data-name="Grupo 1210064" transform="translate(-500 -2351)">
    <g id="Grupo_1209250" data-name="Grupo 1209250" transform="translate(300 1589)">
      <g id="Grupo_1202705" data-name="Grupo 1202705" transform="translate(209 768)">
        <g id="Grupo_1173585" data-name="Grupo 1173585" transform="translate(0 0)">
          <g id="Grupo_1173428" data-name="Grupo 1173428">
            <g id="Grupo_1171958" data-name="Grupo 1171958">
              <g id="Grupo_1167341" data-name="Grupo 1167341">
                <g id="Grupo_1166792" data-name="Grupo 1166792">
                  <g transform="matrix(1, 0, 0, 1, -9, -6)" filter="url(#Trazado_904820)">
                    <g id="Trazado_904820-2" data-name="Trazado 904820" transform="translate(9 6)" fill="#fef9e7">
                      <path d="M 42.49999618530273 83.50002288818359 C 36.96437454223633 83.50002288818359 31.59512519836426 82.41619873046875 26.54140853881836 80.27865600585938 C 21.65933799743652 78.21370697021484 17.27447891235352 75.25724792480469 13.50861930847168 71.49138641357422 C 9.742773056030273 67.72554016113281 6.786302089691162 63.34067153930664 4.721360683441162 58.45859909057617 C 2.583819627761841 53.40488052368164 1.499996185302734 48.0356330871582 1.499996185302734 42.5000114440918 C 1.499996185302734 36.96438980102539 2.583819627761841 31.59514045715332 4.721360683441162 26.54142379760742 C 6.786302089691162 21.65933990478516 9.742773056030273 17.27448272705078 13.50861930847168 13.50862312316895 C 17.27447891235352 9.742775917053223 21.65933799743652 6.78630542755127 26.54140853881836 4.721364498138428 C 31.59512519836426 2.583823204040527 36.96437454223633 1.499999642372131 42.49999618530273 1.499999642372131 C 48.03561782836914 1.499999642372131 53.40486526489258 2.583823204040527 58.45858383178711 4.721364498138428 C 63.34065628051758 6.78630542755127 67.72551727294922 9.742775917053223 71.49137115478516 13.50862312316895 C 75.25721740722656 17.27448272705078 78.21369171142578 21.65933990478516 80.27863311767578 26.54142379760742 C 82.41617584228516 31.59514045715332 83.5 36.96438980102539 83.5 42.5000114440918 C 83.5 48.0356330871582 82.41617584228516 53.40488052368164 80.27863311767578 58.45859909057617 C 78.21369171142578 63.34067153930664 75.25721740722656 67.72554016113281 71.49137115478516 71.49138641357422 C 67.72551727294922 75.25724792480469 63.34065628051758 78.21370697021484 58.45858383178711 80.27865600585938 C 53.40486526489258 82.41619873046875 48.03561782836914 83.50002288818359 42.49999618530273 83.50002288818359 Z" stroke="none"/>
                      <path d="M 42.49999618530273 3 C 37.16621017456055 3 31.99356842041016 4.043960571289062 27.1257438659668 6.102874755859375 C 22.42246246337891 8.092201232910156 18.19786071777344 10.94070434570312 14.56927490234375 14.56929016113281 C 10.94070434570312 18.19786834716797 8.092185974121094 22.42246627807617 6.102874755859375 27.1257438659668 C 4.043952941894531 31.99357223510742 2.999992370605469 37.16622543334961 2.999992370605469 42.5000114440918 C 2.999992370605469 47.83379745483398 4.043952941894531 53.00645065307617 6.102874755859375 57.8742790222168 C 8.092185974121094 62.57754516601562 10.94070434570312 66.80214691162109 14.56927490234375 70.43073272705078 C 18.19786071777344 74.05931854248047 22.42246246337891 76.90782165527344 27.1257438659668 78.89714813232422 C 31.99356842041016 80.95606231689453 37.16621017456055 82.00002288818359 42.49999618530273 82.00002288818359 C 47.83378219604492 82.00002288818359 53.00642395019531 80.95606231689453 57.87425231933594 78.89714813232422 C 62.57752990722656 76.90782165527344 66.80213165283203 74.05931854248047 70.43071746826172 70.43073272705078 C 74.05928802490234 66.80214691162109 76.90780639648438 62.57754516601562 78.89711761474609 57.8742790222168 C 80.95603942871094 53.00645065307617 82 47.83379745483398 82 42.5000114440918 C 82 37.16622543334961 80.95603942871094 31.99357223510742 78.89711761474609 27.1257438659668 C 76.90780639648438 22.42246627807617 74.05928802490234 18.19786834716797 70.43071746826172 14.56929016113281 C 66.80213165283203 10.94070434570312 62.57752990722656 8.092201232910156 57.87425231933594 6.102874755859375 C 53.00642395019531 4.043960571289062 47.83378219604492 3 42.49999618530273 3 M 42.49999618530273 0 C 65.97209167480469 0 85 19.02790832519531 85 42.5000114440918 C 85 65.97210693359375 65.97209167480469 85.00002288818359 42.49999618530273 85.00002288818359 C 19.02790069580078 85.00002288818359 -7.62939453125e-06 65.97210693359375 -7.62939453125e-06 42.5000114440918 C -7.62939453125e-06 19.02790832519531 19.02790069580078 0 42.49999618530273 0 Z" stroke="none" fill="#887013"/>
                    </g>
                  </g>
                </g>
              </g>
            </g>
          </g>
        </g>
      </g>
    </g>
    <g id="intellectual-property_17226235_1_" data-name="intellectual-property_17226235 (1)" transform="translate(520.502 2364.652)">
      <path id="Trazado_1049331" data-name="Trazado 1049331" d="M26.956,199.669H72.037a2.241,2.241,0,0,0,2.235-2.235v-25.1a2.241,2.241,0,0,0-2.235-2.235H26.956a2.241,2.241,0,0,0-2.235,2.235v25.1a2.241,2.241,0,0,0,2.235,2.235Z" transform="translate(-18.499 -146.722)" fill="#4b4359" fill-rule="evenodd"/>
      <path id="Trazado_1049332" data-name="Trazado 1049332" d="M26.956,199.669H69.708a2.241,2.241,0,0,0,2.235-2.235v-25.1a2.241,2.241,0,0,0-2.235-2.235H26.956a2.241,2.241,0,0,0-2.235,2.235v25.1a2.241,2.241,0,0,0,2.235,2.235Z" transform="translate(-18.499 -146.722)" fill="#574e66" fill-rule="evenodd"/>
      <path id="Trazado_1049333" data-name="Trazado 1049333" d="M55.477,200.852H98.439v22.984H55.477Z" transform="translate(-45.961 -174.183)" fill="#96d3ff"/>
      <path id="Trazado_1049334" data-name="Trazado 1049334" d="M13.064,452.271H59.658a3.061,3.061,0,0,0,3.055-3.055v-3.055h-52.7v3.055A3.063,3.063,0,0,0,13.064,452.271Z" transform="translate(-5.363 -393.213)" fill="#e1dae7" fill-rule="evenodd"/>
      <path id="Trazado_1049335" data-name="Trazado 1049335" d="M13.064,452.271H57.328a3.063,3.063,0,0,0,3.055-3.055v-3.055H10.009v3.055A3.063,3.063,0,0,0,13.064,452.271Z" transform="translate(-5.363 -393.213)" fill="#ebe6ef" fill-rule="evenodd"/>
      <path id="Trazado_1049336" data-name="Trazado 1049336" d="M193.722,449.218h10.613a1.532,1.532,0,0,0,1.527-1.527v-1.527H192.192v1.527A1.533,1.533,0,0,0,193.722,449.218Z" transform="translate(-168.03 -393.215)" fill="#40374f" fill-rule="evenodd"/>
      <path id="Trazado_1049337" data-name="Trazado 1049337" d="M193.723,449.218h8.041a1.53,1.53,0,0,0,1.527-1.527v-1.527h-11.1v1.527A1.533,1.533,0,0,0,193.723,449.218Z" transform="translate(-168.03 -393.215)" fill="#4b4359" fill-rule="evenodd"/>
      <path id="Trazado_1049338" data-name="Trazado 1049338" d="M432.967,200.852h2.523v22.984h-2.523Z" transform="translate(-383.012 -174.183)" fill="#74c3fc"/>
      <g id="Grupo_1210063" data-name="Grupo 1210063" transform="translate(14.184 10.751)">
        <path id="Trazado_1049339" data-name="Trazado 1049339" d="M266.173,376.09h-8.988A1.185,1.185,0,0,0,256,377.271v1.849a1.185,1.185,0,0,0,1.184,1.181h8.988a1.186,1.186,0,0,0,1.184-1.184v-1.846A1.185,1.185,0,0,0,266.173,376.09Z" transform="translate(-239.187 -341.4)" fill="#3198fc" fill-rule="evenodd"/>
        <path id="Trazado_1049340" data-name="Trazado 1049340" d="M264.241,376.09h-7.057A1.185,1.185,0,0,0,256,377.271v1.849a1.185,1.185,0,0,0,1.184,1.181h7.051c0-1.376,0-3.149.006-4.212Z" transform="translate(-239.187 -341.4)" fill="#4bb3fd" fill-rule="evenodd"/>
        <path id="Trazado_1049341" data-name="Trazado 1049341" d="M279.381,154.315c-.073-2.141,1.351-3,2.715-4.312,2.186-2.1,4.081-4.136,4.37-6.025.173-1.145.052-11.445-.7-13.923-.465-1.536-1.2-2.6-2.338-2.3-.753.164-1.421,1.066-1.409,2.736.018,2.833.121,7.455-.583,10.173-1.53-2.66-7.777,3.213-8.891,4.728-1.306,1.779-1.23,5.351-1.127,8.919h7.962Z" transform="translate(-252.908 -119.625)" fill="#f6b4a8" fill-rule="evenodd"/>
        <path id="Trazado_1049342" data-name="Trazado 1049342" d="M283.4,128.256c-.744.179-1.4,1.078-1.385,2.73.018,2.833.121,7.455-.583,10.173-1.53-2.66-7.777,3.213-8.891,4.728-1.306,1.779-1.23,5.351-1.127,8.919h6.544c0-.534.006-.89.009-.923.146-1.786,1.448-2.611,2.7-3.817,2.186-2.1,4.081-4.133,4.37-6.022.176-1.145.052-11.445-.7-13.923a4.721,4.721,0,0,0-.941-1.865Z" transform="translate(-252.908 -120.115)" fill="#f9c9c0" fill-rule="evenodd"/>
        <path id="Trazado_1049343" data-name="Trazado 1049343" d="M151.168,376.09h8.991a1.184,1.184,0,0,1,1.181,1.181v1.849a1.185,1.185,0,0,1-1.184,1.181h-8.988a1.186,1.186,0,0,1-1.184-1.184v-1.846A1.185,1.185,0,0,1,151.168,376.09Z" transform="translate(-144.528 -341.4)" fill="#3198fc" fill-rule="evenodd"/>
        <path id="Trazado_1049344" data-name="Trazado 1049344" d="M179.068,376.09h7.06a1.184,1.184,0,0,1,1.181,1.181v1.849a1.185,1.185,0,0,1-1.181,1.181h-7.054c0-1.376,0-3.149-.006-4.212Z" transform="translate(-170.496 -341.4)" fill="#4bb3fd" fill-rule="evenodd"/>
        <path id="Trazado_1049345" data-name="Trazado 1049345" d="M106.206,154.315c.073-2.141-1.351-3-2.715-4.312-2.186-2.1-4.078-4.136-4.37-6.025-.173-1.145-.049-11.445.7-13.923.465-1.536,1.2-2.6,2.338-2.3.753.164,1.421,1.066,1.409,2.736-.015,2.833-.121,7.455.583,10.173,1.53-2.66,7.78,3.213,8.891,4.728,1.306,1.779,1.23,5.351,1.127,8.919h-7.962Z" transform="translate(-99.053 -119.625)" fill="#f6b4a8" fill-rule="evenodd"/>
        <path id="Trazado_1049346" data-name="Trazado 1049346" d="M114.014,128.256c.744.179,1.4,1.078,1.385,2.73-.015,2.833-.121,7.455.583,10.173,1.53-2.66,7.78,3.213,8.891,4.728,1.306,1.779,1.23,5.351,1.127,8.919h-6.544c0-.534-.006-.89-.006-.923-.149-1.786-1.452-2.611-2.706-3.817-2.186-2.1-4.081-4.133-4.37-6.022-.176-1.145-.052-11.445.7-13.923a4.762,4.762,0,0,1,.941-1.865Z" transform="translate(-110.884 -120.115)" fill="#f9c9c0" fill-rule="evenodd"/>
        <path id="Trazado_1049347" data-name="Trazado 1049347" d="M197.635,52.26a7.006,7.006,0,0,1,7.005,7.005c0,3.963-3.1,4.8-3.456,8.912h-7.1c-.355-4.115-3.453-4.95-3.453-8.912A7,7,0,0,1,197.635,52.26Z" transform="translate(-180.823 -52.26)" fill="#ffb122" fill-rule="evenodd"/>
        <path id="Trazado_1049348" data-name="Trazado 1049348" d="M199.533,68.608h-5.448c-.355-4.115-3.453-4.95-3.453-8.912a6.221,6.221,0,1,1,12.356,0C202.989,63.659,199.889,64.494,199.533,68.608Z" transform="translate(-180.823 -52.69)" fill="#ffc738" fill-rule="evenodd"/>
        <path id="Trazado_1049349" data-name="Trazado 1049349" d="M223.812,203.774h5.2a.954.954,0,0,0,.95-.95v-1.968s0,0-.006,0h-7.087s-.006,0-.006,0v1.968a.954.954,0,0,0,.95.95Z" transform="translate(-209.598 -184.935)" fill="#4b4359" fill-rule="evenodd"/>
        <path id="Trazado_1049350" data-name="Trazado 1049350" d="M223.813,203.774h3.547a.954.954,0,0,0,.95-.95v-1.968s0,0-.006,0h-5.436s-.006,0-.006,0v1.968a.954.954,0,0,0,.95.95Z" transform="translate(-209.599 -184.935)" fill="#574e66" fill-rule="evenodd"/>
        <path id="Trazado_1049351" data-name="Trazado 1049351" d="M233.952,230.7h2.587a1.2,1.2,0,0,0,1.2-1.2v-1.382h-4.98V229.5a1.2,1.2,0,0,0,1.2,1.2Z" transform="translate(-218.433 -209.282)" fill="#40374f" fill-rule="evenodd"/>
        <path id="Trazado_1049352" data-name="Trazado 1049352" d="M233.952,230.7h.935a1.2,1.2,0,0,0,1.2-1.2v-1.382h-3.328V229.5a1.2,1.2,0,0,0,1.2,1.2Z" transform="translate(-218.433 -209.282)" fill="#4b4359" fill-rule="evenodd"/>
      </g>
      <path id="Trazado_1049353" data-name="Trazado 1049353" d="M40.3,16.794H42.02a.644.644,0,0,1,0,1.288H40.3a.644.644,0,0,1,0-1.288Zm-1.8-3.686a.644.644,0,0,1,.234-.881l1.488-.859a.643.643,0,1,1,.644,1.114l-1.488.859a.65.65,0,0,1-.322.088A.639.639,0,0,1,38.5,13.107Zm-3.4-4.051.859-1.488a.643.643,0,1,1,1.114.644L36.208,9.7a.642.642,0,0,1-.881.234.641.641,0,0,1-.234-.878Zm-15.76,8.381a.644.644,0,0,1,.644-.644h1.716a.644.644,0,0,1,0,1.288H19.977A.644.644,0,0,1,19.334,17.438ZM20.9,11.6a.639.639,0,0,1,.878-.237l1.488.859a.644.644,0,0,1-.322,1.2.659.659,0,0,1-.322-.088l-1.488-.859A.641.641,0,0,1,20.9,11.6ZM24.93,8.212a.643.643,0,1,1,1.114-.644L26.9,9.057a.642.642,0,0,1-.237.878.649.649,0,0,1-.322.088.639.639,0,0,1-.556-.322Zm5.423-.079V6.415a.644.644,0,1,1,1.287,0V8.134a.644.644,0,1,1-1.287,0ZM56.705,55.681a2.416,2.416,0,0,1-2.411,2.414H7.7a2.416,2.416,0,0,1-2.411-2.414V53.27H23.518v.887a2.173,2.173,0,0,0,2.174,2.168H36.305a2.172,2.172,0,0,0,2.171-2.168V53.27H56.705Zm-31.9-2.411H37.189v.887a.894.894,0,0,1-.884.881H25.692a.884.884,0,0,1-.887-.881ZM6.865,50.391V25.29A1.593,1.593,0,0,1,8.457,23.7h5.426c-.058.626-.1,1.3-.146,2H9.516a.644.644,0,0,0-.644.644V49.334a.644.644,0,0,0,.644.644H52.478a.644.644,0,0,0,.644-.644V26.347a.644.644,0,0,0-.644-.644H48.266c-.039-.7-.088-1.379-.146-2h5.417a1.593,1.593,0,0,1,1.591,1.591v25.1a1.593,1.593,0,0,1-1.591,1.591H8.457a1.593,1.593,0,0,1-1.591-1.591Zm8.7-29.346c.291-.963.8-2.065,1.555-1.861l.027.009c.458.1.914.79.9,2.1,0,.252,0,.516-.006.793a45.517,45.517,0,0,0,.55,9.31c-.689,1.631,1.333,3.829,2.958,5.372a.643.643,0,1,0,.887-.932c-2.994-2.845-2.76-3.793-2.618-4.014l.009-.018s0-.006.006-.009a.67.67,0,0,1,.6-.358c1.965-.112,6.237,3.817,7.212,5.144,1.127,1.53,1.105,4.831,1.02,7.9H21.963a5.448,5.448,0,0,0-2.25-3.538c-.213-.194-.431-.392-.644-.6-1.877-1.8-3.905-3.875-4.175-5.657-.1-.665-.1-4.676.085-8.254,0-.03.006-.058.006-.085v-.018c.058-1.133.134-2.214.231-3.131a.734.734,0,0,0,.015-.143v-.009a12.616,12.616,0,0,1,.337-2ZM26,23.7a6.691,6.691,0,0,1,.714,2H19.346c-.012-.686-.018-1.363-.018-2H26Zm3.07-5.308a3.062,3.062,0,0,1-1.4-.747.971.971,0,0,1-.279-.771,1.117,1.117,0,0,1,.629-1.005.236.236,0,0,1,.067-.012.254.254,0,0,1,.155.064,3.758,3.758,0,0,1,.826,2.472Zm3.856,0a3.771,3.771,0,0,1,.829-2.472.253.253,0,0,1,.152-.064.24.24,0,0,1,.067.012,1.107,1.107,0,0,1,.629,1.005.968.968,0,0,1-.276.771,3.03,3.03,0,0,1-1.4.747Zm-8.287-.954a6.36,6.36,0,1,1,12.72,0,6.736,6.736,0,0,1-1.546,4.127A9.683,9.683,0,0,0,33.979,25.7H32.9V19.727a4.567,4.567,0,0,0,2.378-1.215,2.243,2.243,0,0,0,.61-1.752,2.336,2.336,0,0,0-1.546-2.129,1.509,1.509,0,0,0-1.354.255c-.777.58-1.275,1.956-1.36,3.732-.2.015-.413.024-.623.027s-.422-.012-.626-.027c-.088-1.776-.583-3.152-1.36-3.732a1.515,1.515,0,0,0-1.357-.255,2.341,2.341,0,0,0-1.546,2.132,2.26,2.26,0,0,0,.613,1.752A4.577,4.577,0,0,0,29.1,19.727V25.7H28.015a9.682,9.682,0,0,0-1.831-4.139,6.736,6.736,0,0,1-1.546-4.127ZM42.667,23.7c0,.641,0,1.318-.018,2H35.282a6.694,6.694,0,0,1,.717-2h6.668Zm2.177-4.506.027-.009c.759-.2,1.266.9,1.555,1.861a12.808,12.808,0,0,1,.343,2.041.575.575,0,0,0,.006.073c.1.926.176,2.025.234,3.173v.015a.676.676,0,0,0,.006.079c.182,3.577.191,7.591.091,8.263-.273,1.776-2.3,3.85-4.181,5.654-.213.2-.431.4-.641.592a5.458,5.458,0,0,0-2.25,3.541H33.32c-.082-3.061-.1-6.362,1.02-7.9.978-1.327,5.256-5.253,7.215-5.144a.665.665,0,0,1,.6.358s.006.006.006.009a.063.063,0,0,0,.012.018c.143.225.377,1.172-2.621,4.014a.643.643,0,1,0,.887.932c1.628-1.543,3.65-3.738,2.958-5.372a45.538,45.538,0,0,0,.55-9.377c0-.252,0-.5-.006-.726-.009-1.312.446-2,.9-2.1Zm-3.51,25.289a4.413,4.413,0,0,1,1.813-2.593c.219-.2.443-.4.671-.616,2.593-2.49,4.26-4.427,4.561-6.392a78.6,78.6,0,0,0-.046-7.889h3.5v21.7H42.916A1.8,1.8,0,0,0,43,48.15V46.3a1.832,1.832,0,0,0-1.664-1.822ZM29.151,29.912h3.692v.738a.555.555,0,0,1-.553.553H29.7a.561.561,0,0,1-.553-.553ZM33.9,26.991v1.33a.309.309,0,0,1-.307.3H28.4a.309.309,0,0,1-.307-.3v-1.33Zm-2.3-1.288H30.387V19.912c.2.012.4.018.613.021s.41-.009.607-.021ZM19.695,30.295a28.361,28.361,0,0,1-.307-3.3H26.8v1.33a1.6,1.6,0,0,0,1.06,1.5v.832a1.84,1.84,0,0,0,1.84,1.837h2.587a1.84,1.84,0,0,0,1.84-1.837v-.832a1.6,1.6,0,0,0,1.06-1.5v-1.33h7.418a28.356,28.356,0,0,1-.31,3.3,2.063,2.063,0,0,0-.671-.143C38.88,30,34.195,34.61,33.3,35.818c-1.373,1.877-1.36,5.275-1.269,8.663A1.833,1.833,0,0,0,31,44.913a1.8,1.8,0,0,0-1.035-.431c.094-3.392.106-6.79-1.269-8.663-.89-1.209-5.566-5.824-8.323-5.666a2.1,2.1,0,0,0-.674.143Zm-6.073,4.588c.331,2.177,2.526,4.44,4.555,6.386.228.222.455.425.674.625a4.392,4.392,0,0,1,1.813,2.587A1.832,1.832,0,0,0,19,46.3V48.15a1.9,1.9,0,0,0,.082.541H10.16v-21.7h3.513a78.365,78.365,0,0,0-.052,7.892Zm7.2,13.807a.542.542,0,0,1-.541-.541V46.3a.54.54,0,0,1,.541-.541h8.991a.537.537,0,0,1,.537.541V48.15a.539.539,0,0,1-.537.541Zm11.357,0a.542.542,0,0,1-.541-.541V46.3a.54.54,0,0,1,.541-.541H41.17a.54.54,0,0,1,.541.541V48.15a.542.542,0,0,1-.541.541Zm25.167,3.292H55.937a2.871,2.871,0,0,0,.48-1.591V25.29a2.881,2.881,0,0,0-2.879-2.879H47.984a11.4,11.4,0,0,0-.325-1.74c-.862-2.854-2.311-2.942-3.106-2.733-.932.213-1.916,1.209-1.9,3.365,0,.231,0,.474.006.726,0,.124,0,.252,0,.383H36.8c.027-.043.055-.085.085-.127a7.965,7.965,0,0,0,1.764-4.846,7.648,7.648,0,1,0-15.3,0,7.965,7.965,0,0,0,1.764,4.846c.027.043.058.085.085.127H19.334c0-.106,0-.213,0-.316,0-.276.006-.541.006-.793.015-2.156-.969-3.152-1.9-3.365-.8-.21-2.244-.121-3.11,2.736a11.47,11.47,0,0,0-.319,1.737H8.457A2.881,2.881,0,0,0,5.578,25.29v25.1a2.874,2.874,0,0,0,.483,1.591H4.646A.644.644,0,0,0,4,52.626v3.055a3.706,3.706,0,0,0,3.7,3.7H54.294a3.7,3.7,0,0,0,3.7-3.7V52.626a.644.644,0,0,0-.644-.644Z" fill="#070202"/>
    </g>
  </g>
</svg>
