<svg xmlns="http://www.w3.org/2000/svg" xmlns:xlink="http://www.w3.org/1999/xlink" width="103" height="103" viewBox="0 0 103 103">
  <defs>
    <filter id="Trazado_904820" x="0" y="0" width="103" height="103" filterUnits="userSpaceOnUse">
      <feOffset dy="3" input="SourceAlpha"/>
      <feGaussianBlur stdDeviation="3" result="blur"/>
      <feFlood flood-opacity="0.161"/>
      <feComposite operator="in" in2="blur"/>
      <feComposite in="SourceGraphic"/>
    </filter>
  </defs>
  <g id="Grupo_1210066" data-name="Grupo 1210066" transform="translate(-815 -2351)">
    <g id="Grupo_1209251" data-name="Grupo 1209251" transform="translate(615 1589)">
      <g id="Grupo_1202705" data-name="Grupo 1202705" transform="translate(209 768)">
        <g id="Grupo_1173585" data-name="Grupo 1173585" transform="translate(0 0)">
          <g id="Grupo_1173428" data-name="Grupo 1173428">
            <g id="Grupo_1171958" data-name="Grupo 1171958">
              <g id="Grupo_1167341" data-name="Grupo 1167341">
                <g id="Grupo_1166792" data-name="Grupo 1166792">
                  <g transform="matrix(1, 0, 0, 1, -9, -6)" filter="url(#Trazado_904820)">
                    <g id="Trazado_904820-2" data-name="Trazado 904820" transform="translate(9 6)" fill="#fef9e7">
                      <path d="M 42.49999618530273 83.50002288818359 C 36.96437454223633 83.50002288818359 31.59512519836426 82.41619873046875 26.54140853881836 80.27865600585938 C 21.65933799743652 78.21370697021484 17.27447891235352 75.25724792480469 13.50861930847168 71.49138641357422 C 9.742773056030273 67.72554016113281 6.786302089691162 63.34067153930664 4.721360683441162 58.45859909057617 C 2.583819627761841 53.40488052368164 1.499996185302734 48.0356330871582 1.499996185302734 42.5000114440918 C 1.499996185302734 36.96438980102539 2.583819627761841 31.59514045715332 4.721360683441162 26.54142379760742 C 6.786302089691162 21.65933990478516 9.742773056030273 17.27448272705078 13.50861930847168 13.50862312316895 C 17.27447891235352 9.742775917053223 21.65933799743652 6.78630542755127 26.54140853881836 4.721364498138428 C 31.59512519836426 2.583823204040527 36.96437454223633 1.499999642372131 42.49999618530273 1.499999642372131 C 48.03561782836914 1.499999642372131 53.40486526489258 2.583823204040527 58.45858383178711 4.721364498138428 C 63.34065628051758 6.78630542755127 67.72551727294922 9.742775917053223 71.49137115478516 13.50862312316895 C 75.25721740722656 17.27448272705078 78.21369171142578 21.65933990478516 80.27863311767578 26.54142379760742 C 82.41617584228516 31.59514045715332 83.5 36.96438980102539 83.5 42.5000114440918 C 83.5 48.0356330871582 82.41617584228516 53.40488052368164 80.27863311767578 58.45859909057617 C 78.21369171142578 63.34067153930664 75.25721740722656 67.72554016113281 71.49137115478516 71.49138641357422 C 67.72551727294922 75.25724792480469 63.34065628051758 78.21370697021484 58.45858383178711 80.27865600585938 C 53.40486526489258 82.41619873046875 48.03561782836914 83.50002288818359 42.49999618530273 83.50002288818359 Z" stroke="none"/>
                      <path d="M 42.49999618530273 3 C 37.16621017456055 3 31.99356842041016 4.043960571289062 27.1257438659668 6.102874755859375 C 22.42246246337891 8.092201232910156 18.19786071777344 10.94070434570312 14.56927490234375 14.56929016113281 C 10.94070434570312 18.19786834716797 8.092185974121094 22.42246627807617 6.102874755859375 27.1257438659668 C 4.043952941894531 31.99357223510742 2.999992370605469 37.16622543334961 2.999992370605469 42.5000114440918 C 2.999992370605469 47.83379745483398 4.043952941894531 53.00645065307617 6.102874755859375 57.8742790222168 C 8.092185974121094 62.57754516601562 10.94070434570312 66.80214691162109 14.56927490234375 70.43073272705078 C 18.19786071777344 74.05931854248047 22.42246246337891 76.90782165527344 27.1257438659668 78.89714813232422 C 31.99356842041016 80.95606231689453 37.16621017456055 82.00002288818359 42.49999618530273 82.00002288818359 C 47.83378219604492 82.00002288818359 53.00642395019531 80.95606231689453 57.87425231933594 78.89714813232422 C 62.57752990722656 76.90782165527344 66.80213165283203 74.05931854248047 70.43071746826172 70.43073272705078 C 74.05928802490234 66.80214691162109 76.90780639648438 62.57754516601562 78.89711761474609 57.8742790222168 C 80.95603942871094 53.00645065307617 82 47.83379745483398 82 42.5000114440918 C 82 37.16622543334961 80.95603942871094 31.99357223510742 78.89711761474609 27.1257438659668 C 76.90780639648438 22.42246627807617 74.05928802490234 18.19786834716797 70.43071746826172 14.56929016113281 C 66.80213165283203 10.94070434570312 62.57752990722656 8.092201232910156 57.87425231933594 6.102874755859375 C 53.00642395019531 4.043960571289062 47.83378219604492 3 42.49999618530273 3 M 42.49999618530273 0 C 65.97209167480469 0 85 19.02790832519531 85 42.5000114440918 C 85 65.97210693359375 65.97209167480469 85.00002288818359 42.49999618530273 85.00002288818359 C 19.02790069580078 85.00002288818359 -7.62939453125e-06 65.97210693359375 -7.62939453125e-06 42.5000114440918 C -7.62939453125e-06 19.02790832519531 19.02790069580078 0 42.49999618530273 0 Z" stroke="none" fill="#887013"/>
                    </g>
                  </g>
                </g>
              </g>
            </g>
          </g>
        </g>
      </g>
    </g>
    <g id="automation-testing_14114553" transform="translate(814.396 2331.261)">
      <path id="Trazado_1049354" data-name="Trazado 1049354" d="M32.541,92.987H52.631A1.819,1.819,0,0,1,54.445,94.8v35.8a1.819,1.819,0,0,1-1.814,1.814H32.541a1.819,1.819,0,0,1-1.814-1.814V94.8A1.819,1.819,0,0,1,32.541,92.987Z" transform="translate(-5.992 -44.845)" fill="#e6e6e6" fill-rule="evenodd"/>
      <path id="Trazado_1049355" data-name="Trazado 1049355" d="M79.269,51.084h3.491v-.645a1.81,1.81,0,0,1,3.62,0v.645H89.87a.573.573,0,0,1,.571.571V55.08a.573.573,0,0,1-.571.571h-10.6a.573.573,0,0,1-.571-.571V51.654A.572.572,0,0,1,79.269,51.084Z" transform="translate(-47.975 -6.023)" fill="#f0b16e" fill-rule="evenodd"/>
      <g id="Grupo_1210065" data-name="Grupo 1210065" transform="translate(27.413 46.346)">
        <path id="Trazado_1049356" data-name="Trazado 1049356" d="M324.306,301.807l1.217,1.352-1.1,1.913-1.78-.378a6.636,6.636,0,0,1-1.486,1.141l-.1,1.816-2.133.571-.99-1.525a6.64,6.64,0,0,1-1.857-.245l-1.352,1.217-1.912-1.1.378-1.78a6.637,6.637,0,0,1-1.141-1.486l-1.816-.1-.572-2.133,1.525-.99a6.641,6.641,0,0,1,.245-1.857l-1.217-1.352,1.1-1.912,1.78.378a6.635,6.635,0,0,1,1.486-1.141l.1-1.816,2.133-.572.99,1.525a6.641,6.641,0,0,1,1.857.245l1.352-1.217,1.912,1.1-.378,1.78a6.638,6.638,0,0,1,1.141,1.486l1.816.1.572,2.133-1.525.99A6.65,6.65,0,0,1,324.306,301.807Zm-4.137-2.408a2.38,2.38,0,1,0-1.683,2.915A2.38,2.38,0,0,0,320.169,299.4Z" transform="translate(-277.527 -265.198)" fill="#88c8fe" fill-rule="evenodd"/>
        <path id="Trazado_1049357" data-name="Trazado 1049357" d="M324.305,85.009l1.217-1.352-1.1-1.912-1.78.378a6.636,6.636,0,0,0-1.486-1.141l-.1-1.816-2.133-.572-.99,1.525a6.64,6.64,0,0,0-1.857.245l-1.352-1.217-1.913,1.1.378,1.78a6.637,6.637,0,0,0-1.141,1.486l-1.816.1-.572,2.133,1.525.99a6.638,6.638,0,0,0,.245,1.857l-1.217,1.352,1.1,1.912,1.78-.378a6.636,6.636,0,0,0,1.486,1.141l.1,1.816,2.133.572.99-1.525a6.64,6.64,0,0,0,1.857-.245l1.352,1.217,1.912-1.1-.378-1.78a6.638,6.638,0,0,0,1.141-1.486l1.816-.1.572-2.133-1.525-.99A6.645,6.645,0,0,0,324.305,85.009Zm-4.137,2.408a2.38,2.38,0,1,1-1.683-2.915A2.38,2.38,0,0,1,320.168,87.417Z" transform="translate(-277.526 -78.595)" fill="#88c8fe" fill-rule="evenodd"/>
        <path id="Trazado_1049358" data-name="Trazado 1049358" d="M53.531,132.817h4.713a1.357,1.357,0,0,1,1.354,1.354v4.712a1.357,1.357,0,0,1-1.354,1.354H53.531a1.357,1.357,0,0,1-1.354-1.354v-4.712A1.357,1.357,0,0,1,53.531,132.817Z" transform="translate(-52.177 -126.049)" fill="#88c8fe" fill-rule="evenodd"/>
      </g>
      <path id="Trazado_1049359" data-name="Trazado 1049359" d="M53.531,221.22h4.713a1.357,1.357,0,0,1,1.354,1.354v4.712a1.357,1.357,0,0,1-1.354,1.354H53.531a1.357,1.357,0,0,1-1.354-1.354v-4.712A1.357,1.357,0,0,1,53.531,221.22Z" transform="translate(-24.764 -157.073)" fill="#19cfba" fill-rule="evenodd"/>
      <path id="Trazado_1049360" data-name="Trazado 1049360" d="M53.531,309.623h4.713a1.357,1.357,0,0,1,1.354,1.354v4.712a1.357,1.357,0,0,1-1.354,1.354H53.531a1.357,1.357,0,0,1-1.354-1.354v-4.712A1.357,1.357,0,0,1,53.531,309.623Z" transform="translate(-24.764 -234.442)" fill="#ffbf31" fill-rule="evenodd"/>
      <path id="Trazado_1049361" data-name="Trazado 1049361" d="M33.219,56.244,31.4,58.412a.85.85,0,0,1-1.239.079l-.922-.865a.856.856,0,0,1,1.174-1.246l.259.245,1.239-1.484a.857.857,0,1,1,1.311,1.1Zm0,22.062L31.4,80.482a.847.847,0,0,1-1.239.072l-.922-.865a.846.846,0,0,1-.036-1.2.862.862,0,0,1,1.21-.043l.259.245,1.239-1.477a.854.854,0,1,1,1.311,1.095Zm0-11.031L31.4,69.45a.857.857,0,0,1-1.239.072l-.922-.865a.856.856,0,1,1,1.174-1.246l.259.245,1.239-1.484a.864.864,0,0,1,1.21-.1A.855.855,0,0,1,33.219,67.275Zm.756,13.971V76.533a.5.5,0,0,0-.5-.5H28.766a.5.5,0,0,0-.5.5v4.712a.5.5,0,0,0,.5.5h4.712A.5.5,0,0,0,33.975,81.245Zm-.5-6.924H28.766a2.211,2.211,0,0,0-2.2,2.212v4.712a2.211,2.211,0,0,0,2.2,2.212h4.712a2.217,2.217,0,0,0,2.212-2.212V76.533A2.217,2.217,0,0,0,33.478,74.321Zm.5-4.107V65.5a.5.5,0,0,0-.5-.5H28.766a.5.5,0,0,0-.5.5v4.712a.5.5,0,0,0,.5.5h4.712A.5.5,0,0,0,33.975,70.214Zm-.5-6.924H28.766a2.211,2.211,0,0,0-2.2,2.212v4.712a2.2,2.2,0,0,0,2.2,2.2h4.712a2.211,2.211,0,0,0,2.212-2.2V65.5A2.217,2.217,0,0,0,33.478,63.29Zm.5-4.114V54.464a.5.5,0,0,0-.5-.5H28.766a.5.5,0,0,0-.5.5v4.712a.5.5,0,0,0,.5.5h4.712A.5.5,0,0,0,33.975,59.176Zm-.5-6.917H28.766a2.2,2.2,0,0,0-2.2,2.2v4.712a2.211,2.211,0,0,0,2.2,2.212h4.712a2.217,2.217,0,0,0,2.212-2.212V54.464a2.211,2.211,0,0,0-2.212-2.2ZM45.193,56.82a.855.855,0,0,1-.857.857H38.277a.854.854,0,1,1,0-1.708h6.059A.853.853,0,0,1,45.193,56.82Zm0,11.038a.853.853,0,0,1-.857.85H38.277a.854.854,0,1,1,0-1.708h6.059A.855.855,0,0,1,45.193,67.858Zm0,11.031a.855.855,0,0,1-.857.857H38.277a.857.857,0,1,1,0-1.715h6.059A.859.859,0,0,1,45.193,78.889ZM78.387,52.339a.853.853,0,1,1,1.672-.346A12.561,12.561,0,0,1,61.246,65.3a.854.854,0,0,1-1.636-.043c-.074-.276-.5-1.747-.5-1.931l.043-.3.173-.3a.869.869,0,0,1,.648-.288l1.809.036a.853.853,0,0,1,.555,1.491A10.865,10.865,0,0,0,78.387,52.339Zm-22.934,4.77a.854.854,0,0,0,.836.677.845.845,0,0,0,.836-1.023A10.861,10.861,0,0,1,73.178,45.141a.854.854,0,0,0,.555,1.491l1.8.036a.916.916,0,0,0,.4-.086l.259-.2a.1.1,0,0,0,.022-.029A.846.846,0,0,0,76.4,45.7l-.5-1.852a.854.854,0,0,0-1.636-.043A12.57,12.57,0,0,0,55.454,57.108ZM69.23,54.947a1.526,1.526,0,1,0-1.866,1.074,1.524,1.524,0,0,0,1.866-1.074ZM68.6,51.423a3.237,3.237,0,1,0,2.284,3.963A3.243,3.243,0,0,0,68.6,51.423Zm6.131,5.5.245-.937-1-.649a.88.88,0,0,1-.389-.728,5.6,5.6,0,0,0-.216-1.621.855.855,0,0,1,.195-.8l.8-.893-.483-.836L72.7,50.71a.859.859,0,0,1-.785-.238,5.6,5.6,0,0,0-1.3-.994.862.862,0,0,1-.432-.7l-.065-1.2-.929-.252-.656,1a.845.845,0,0,1-.728.389,6.131,6.131,0,0,0-1.614.216.852.852,0,0,1-.8-.187l-.893-.8-.836.483.245,1.167a.854.854,0,0,1-.238.793,5.981,5.981,0,0,0-.994,1.29.843.843,0,0,1-.7.439l-1.2.058-.252.937,1.009.649a.861.861,0,0,1,.389.728,5.893,5.893,0,0,0,.209,1.621.817.817,0,0,1-.187.8l-.8.893.483.836,1.174-.252a.853.853,0,0,1,.785.238,5.748,5.748,0,0,0,1.3.994.862.862,0,0,1,.432.7l.065,1.2.929.252.656-1a.829.829,0,0,1,.728-.389,6.091,6.091,0,0,0,1.614-.216.87.87,0,0,1,.807.187l.886.8.836-.483L71.6,59.5a.849.849,0,0,1,.238-.793,5.934,5.934,0,0,0,.994-1.29.843.843,0,0,1,.7-.439Zm.4-3.927.915-1.016a.858.858,0,0,0,.1-1l-1.1-1.909a.842.842,0,0,0-.915-.411l-1.34.288a8.674,8.674,0,0,0-.915-.713L71.8,46.87a.862.862,0,0,0-.634-.778l-2.133-.576a.852.852,0,0,0-.937.36l-.749,1.146a7.671,7.671,0,0,0-1.146.151l-1.016-.908a.85.85,0,0,0-1-.108l-1.917,1.1a.858.858,0,0,0-.4.922l.281,1.333a7.282,7.282,0,0,0-.706.922l-1.362.072a.861.861,0,0,0-.785.634l-.569,2.133a.86.86,0,0,0,.36.937l1.146.742a7.768,7.768,0,0,0,.151,1.153l-.915,1.016a.858.858,0,0,0-.1,1l1.1,1.909a.856.856,0,0,0,.915.411l1.34-.288a7.207,7.207,0,0,0,.915.706l.072,1.369a.862.862,0,0,0,.634.778l2.133.576a.868.868,0,0,0,.944-.36l.742-1.153a6.156,6.156,0,0,0,1.146-.151l1.016.915a.85.85,0,0,0,1,.108l1.917-1.1a.858.858,0,0,0,.4-.922l-.281-1.333a7.269,7.269,0,0,0,.706-.922l1.362-.072a.861.861,0,0,0,.785-.634l.569-2.133a.86.86,0,0,0-.36-.937l-1.146-.742a7.8,7.8,0,0,0-.152-1.153ZM76.4,90.028l-.5,1.837a.853.853,0,0,1-1.636.043A12.566,12.566,0,0,1,55.454,78.6a.854.854,0,1,1,1.672.353A10.86,10.86,0,0,0,73.178,90.569a.855.855,0,0,1,.555-1.491l1.931-.022a.843.843,0,0,1,.439.187l.13.144a.839.839,0,0,1,.166.641Zm3.66-6.312a12.564,12.564,0,0,0-18.812-13.3.855.855,0,0,0-1.636.036L59.135,72.2a.837.837,0,0,0,.439.98l.274.087,1.931-.022a.855.855,0,0,0,.555-1.492A10.86,10.86,0,0,1,78.387,83.371a.854.854,0,1,0,1.672.346Zm-6.088-3.336,1-.656-.245-.929-1.2-.065a.852.852,0,0,1-.7-.432,5.967,5.967,0,0,0-.994-1.3.836.836,0,0,1-.238-.785l.245-1.174-.836-.483-.886.8a.874.874,0,0,1-.807.195,5.592,5.592,0,0,0-1.614-.216.862.862,0,0,1-.728-.389l-.656-1.009-.929.252-.065,1.2a.852.852,0,0,1-.432.7,5.971,5.971,0,0,0-1.3.994.836.836,0,0,1-.785.238l-1.174-.245-.483.836.8.886a.83.83,0,0,1,.187.807,5.8,5.8,0,0,0-.209,1.614.862.862,0,0,1-.389.728l-1.009.656.252.929,1.2.065a.852.852,0,0,1,.7.432,6.206,6.206,0,0,0,.994,1.3.835.835,0,0,1,.238.785l-.245,1.174.836.483.893-.807a.852.852,0,0,1,.8-.187,5.588,5.588,0,0,0,1.614.216.845.845,0,0,1,.728.389l.656,1,.929-.245.065-1.2a.852.852,0,0,1,.432-.7,6.027,6.027,0,0,0,1.3-.994.835.835,0,0,1,.785-.238l1.174.245.483-.836-.8-.886a.874.874,0,0,1-.195-.807,5.592,5.592,0,0,0,.216-1.614.862.862,0,0,1,.389-.728Zm2.248-2.63a.861.861,0,0,0-.785-.634l-1.362-.072a7.2,7.2,0,0,0-.706-.915l.281-1.34a.847.847,0,0,0-.4-.915l-1.917-1.11a.873.873,0,0,0-1,.108l-1.016.915a7.671,7.671,0,0,0-1.146-.151l-.742-1.146a.855.855,0,0,0-.944-.36l-2.133.569a.87.87,0,0,0-.634.785l-.072,1.362a7.2,7.2,0,0,0-.915.706l-1.34-.281a.852.852,0,0,0-.915.4l-1.1,1.917a.86.86,0,0,0,.1,1l.915,1.016a7.548,7.548,0,0,0-.151,1.146l-1.146.742a.866.866,0,0,0-.36.944l.569,2.133a.871.871,0,0,0,.785.634l1.362.065a7.259,7.259,0,0,0,.706.922l-.281,1.34a.847.847,0,0,0,.4.915l1.917,1.11a.873.873,0,0,0,1-.108l1.016-.915a7.67,7.67,0,0,0,1.146.151l.749,1.146a.857.857,0,0,0,.937.36l2.133-.569a.87.87,0,0,0,.634-.785l.072-1.362a7.748,7.748,0,0,0,.915-.706l1.34.281a.847.847,0,0,0,.915-.4l1.1-1.917a.86.86,0,0,0-.1-1l-.915-1.016a7.669,7.669,0,0,0,.151-1.146l1.146-.749a.856.856,0,0,0,.36-.937Zm-8.07,4.885a1.525,1.525,0,1,0-1.866-1.081A1.527,1.527,0,0,0,68.149,82.636Zm1.225-4.28a3.236,3.236,0,1,0-.778,5.93A3.249,3.249,0,0,0,69.374,78.356ZM47.6,85.756v-35.8A.963.963,0,0,0,46.642,49H43.32a1.428,1.428,0,0,1-1.427,1.484h-10.6A1.428,1.428,0,0,1,29.868,49H26.547a.963.963,0,0,0-.958.958v35.8a.958.958,0,0,0,.958.958H46.642a.958.958,0,0,0,.958-.958ZM31.576,45.912h3.206a.853.853,0,0,0,.857-.85v-.649a.955.955,0,0,1,1.909,0v.649a.853.853,0,0,0,.857.85h3.206v2.86H31.576ZM56.664,74.753a.855.855,0,0,0-.857-.857H53.35V61.82h2.457a.857.857,0,1,0,0-1.715H52.5a.855.855,0,0,0-.857.857v6.088H49.307v-17.1a2.669,2.669,0,0,0-2.666-2.666H43.32V45.631A1.43,1.43,0,0,0,41.894,44.2H39.249a2.663,2.663,0,0,0-5.31,0H31.295a1.43,1.43,0,0,0-1.427,1.427v1.657H26.547a2.669,2.669,0,0,0-2.666,2.666v35.8a2.671,2.671,0,0,0,2.666,2.673H46.642a2.671,2.671,0,0,0,2.666-2.673V68.766h2.334v5.987a.853.853,0,0,0,.857.85h3.307A.853.853,0,0,0,56.664,74.753Z" transform="translate(0)" fill="#1e2f3f" fill-rule="evenodd"/>
    </g>
  </g>
</svg>
