<svg xmlns="http://www.w3.org/2000/svg" xmlns:xlink="http://www.w3.org/1999/xlink" width="103" height="103" viewBox="0 0 103 103">
  <defs>
    <filter id="Trazado_904820" x="0" y="0" width="103" height="103" filterUnits="userSpaceOnUse">
      <feOffset dy="3" input="SourceAlpha"/>
      <feGaussianBlur stdDeviation="3" result="blur"/>
      <feFlood flood-opacity="0.161"/>
      <feComposite operator="in" in2="blur"/>
      <feComposite in="SourceGraphic"/>
    </filter>
  </defs>
  <g id="Grupo_1210067" data-name="Grupo 1210067" transform="translate(-1130 -2351)">
    <g id="Grupo_1209252" data-name="Grupo 1209252" transform="translate(930 1589)">
      <g id="Grupo_1202705" data-name="Grupo 1202705" transform="translate(209 768)">
        <g id="Grupo_1173585" data-name="Grupo 1173585" transform="translate(0 0)">
          <g id="Grupo_1173428" data-name="Grupo 1173428">
            <g id="Grupo_1171958" data-name="Grupo 1171958">
              <g id="Grupo_1167341" data-name="Grupo 1167341">
                <g id="Grupo_1166792" data-name="Grupo 1166792">
                  <g transform="matrix(1, 0, 0, 1, -9, -6)" filter="url(#Trazado_904820)">
                    <g id="Trazado_904820-2" data-name="Trazado 904820" transform="translate(9 6)" fill="#fef9e7">
                      <path d="M 42.49999618530273 83.50002288818359 C 36.96437454223633 83.50002288818359 31.59512519836426 82.41619873046875 26.54140853881836 80.27865600585938 C 21.65933799743652 78.21370697021484 17.27447891235352 75.25724792480469 13.50861930847168 71.49138641357422 C 9.742773056030273 67.72554016113281 6.786302089691162 63.34067153930664 4.721360683441162 58.45859909057617 C 2.583819627761841 53.40488052368164 1.499996185302734 48.0356330871582 1.499996185302734 42.5000114440918 C 1.499996185302734 36.96438980102539 2.583819627761841 31.59514045715332 4.721360683441162 26.54142379760742 C 6.786302089691162 21.65933990478516 9.742773056030273 17.27448272705078 13.50861930847168 13.50862312316895 C 17.27447891235352 9.742775917053223 21.65933799743652 6.78630542755127 26.54140853881836 4.721364498138428 C 31.59512519836426 2.583823204040527 36.96437454223633 1.499999642372131 42.49999618530273 1.499999642372131 C 48.03561782836914 1.499999642372131 53.40486526489258 2.583823204040527 58.45858383178711 4.721364498138428 C 63.34065628051758 6.78630542755127 67.72551727294922 9.742775917053223 71.49137115478516 13.50862312316895 C 75.25721740722656 17.27448272705078 78.21369171142578 21.65933990478516 80.27863311767578 26.54142379760742 C 82.41617584228516 31.59514045715332 83.5 36.96438980102539 83.5 42.5000114440918 C 83.5 48.0356330871582 82.41617584228516 53.40488052368164 80.27863311767578 58.45859909057617 C 78.21369171142578 63.34067153930664 75.25721740722656 67.72554016113281 71.49137115478516 71.49138641357422 C 67.72551727294922 75.25724792480469 63.34065628051758 78.21370697021484 58.45858383178711 80.27865600585938 C 53.40486526489258 82.41619873046875 48.03561782836914 83.50002288818359 42.49999618530273 83.50002288818359 Z" stroke="none"/>
                      <path d="M 42.49999618530273 3 C 37.16621017456055 3 31.99356842041016 4.043960571289062 27.1257438659668 6.102874755859375 C 22.42246246337891 8.092201232910156 18.19786071777344 10.94070434570312 14.56927490234375 14.56929016113281 C 10.94070434570312 18.19786834716797 8.092185974121094 22.42246627807617 6.102874755859375 27.1257438659668 C 4.043952941894531 31.99357223510742 2.999992370605469 37.16622543334961 2.999992370605469 42.5000114440918 C 2.999992370605469 47.83379745483398 4.043952941894531 53.00645065307617 6.102874755859375 57.8742790222168 C 8.092185974121094 62.57754516601562 10.94070434570312 66.80214691162109 14.56927490234375 70.43073272705078 C 18.19786071777344 74.05931854248047 22.42246246337891 76.90782165527344 27.1257438659668 78.89714813232422 C 31.99356842041016 80.95606231689453 37.16621017456055 82.00002288818359 42.49999618530273 82.00002288818359 C 47.83378219604492 82.00002288818359 53.00642395019531 80.95606231689453 57.87425231933594 78.89714813232422 C 62.57752990722656 76.90782165527344 66.80213165283203 74.05931854248047 70.43071746826172 70.43073272705078 C 74.05928802490234 66.80214691162109 76.90780639648438 62.57754516601562 78.89711761474609 57.8742790222168 C 80.95603942871094 53.00645065307617 82 47.83379745483398 82 42.5000114440918 C 82 37.16622543334961 80.95603942871094 31.99357223510742 78.89711761474609 27.1257438659668 C 76.90780639648438 22.42246627807617 74.05928802490234 18.19786834716797 70.43071746826172 14.56929016113281 C 66.80213165283203 10.94070434570312 62.57752990722656 8.092201232910156 57.87425231933594 6.102874755859375 C 53.00642395019531 4.043960571289062 47.83378219604492 3 42.49999618530273 3 M 42.49999618530273 0 C 65.97209167480469 0 85 19.02790832519531 85 42.5000114440918 C 85 65.97210693359375 65.97209167480469 85.00002288818359 42.49999618530273 85.00002288818359 C 19.02790069580078 85.00002288818359 -7.62939453125e-06 65.97210693359375 -7.62939453125e-06 42.5000114440918 C -7.62939453125e-06 19.02790832519531 19.02790069580078 0 42.49999618530273 0 Z" stroke="none" fill="#887013"/>
                    </g>
                  </g>
                </g>
              </g>
            </g>
          </g>
        </g>
      </g>
    </g>
    <g id="incident_14105657_2_" data-name="incident_14105657 (2)" transform="translate(1123.95 2355.5)">
      <path id="Trazado_1049362" data-name="Trazado 1049362" d="M74.53,24.241a.725.725,0,0,1,.219.533V41.781a9.87,9.87,0,0,1,3.313,16.128l1.688,2.75a2.153,2.153,0,0,1,1.27.945L84.4,67.077a2.238,2.238,0,0,1,.194,1.9c-.676,2.04-3.7,2.835-4.85.974l-3.383-5.471a2.192,2.192,0,0,1-.284-1.54L74.75,60.778v5.934a2.767,2.767,0,0,1-2.764,2.763H36.563A2.766,2.766,0,0,1,33.8,66.713V18.764A2.767,2.767,0,0,1,36.563,16H65.986a.726.726,0,0,1,.523.22l8.021,8.021Zm.22,22.866v7.658a5.317,5.317,0,0,0,0-7.658Z" fill-rule="evenodd"/>
      <path id="Trazado_1049363" data-name="Trazado 1049363" d="M193.28,290.683H192.16a.732.732,0,0,1-.732-.732V285.81h-2.009v4.147a.729.729,0,0,1-.729.729H187.57l2.855,3.03Q191.852,292.2,193.28,290.683Z" transform="translate(-136.15 -238.894)" fill="#ef6262" fill-rule="evenodd"/>
      <path id="Trazado_1049364" data-name="Trazado 1049364" d="M234.041,293.182h5.007a9.877,9.877,0,0,1,.269-7.372H234v3.409h2.082a.73.73,0,0,1,.532,1.229Z" transform="translate(-177.26 -238.894)" fill="#f2f2f2" fill-rule="evenodd"/>
      <path id="Trazado_1049365" data-name="Trazado 1049365" d="M286.545,259.646c.1.165.218.446.366.666a8.3,8.3,0,0,0,4.664,3.651,8.416,8.416,0,0,0,5.18-.042l.645-.246a.731.731,0,0,1,.958.268l1.548,2.521a3.226,3.226,0,0,1,1.2-.729l-1.574-2.563a.731.731,0,0,1,.182-.967,8.412,8.412,0,0,0-8.957-13.979,8.849,8.849,0,0,0-1.031.534.719.719,0,0,1-.1.063,8.415,8.415,0,0,0-3.075,10.827Zm10.8-9.641a6.932,6.932,0,0,1,2.539,2.436A6.766,6.766,0,1,1,297.347,250Z" transform="translate(-223.022 -205.004)" fill="#0c9198" fill-rule="evenodd"/>
      <path id="Trazado_1049366" data-name="Trazado 1049366" d="M73.765,67.067H66.708l-.627.663A.73.73,0,0,1,65.05,67.7L60.538,62.91a.732.732,0,0,1,.5-1.27h2.085V58.232h-10.2a2.215,2.215,0,0,1-1.9-3.364L56.1,46.081l-2.947-1.706L52.133,46.13a.731.731,0,0,1-1.36-.108l-1.9-6.339a.731.731,0,0,1,.532-.934l6.453-1.523a.73.73,0,0,1,.8,1.073l-1.043,1.807,2.955,1.706,5.1-8.823a2.216,2.216,0,0,1,3.839,0l5.1,8.823,2.954-1.705-1.014-1.757a.731.731,0,0,1,.769-1.125l6.455,1.525a.731.731,0,0,1,.534.917l-1.912,6.355a.73.73,0,0,1-1.33.155l-1.042-1.8L75.061,46.08l3.975,6.884a9.844,9.844,0,0,1,5.556-.325V36.811h-5.6a2.438,2.438,0,0,1-2.434-2.434v-5.6H47.869a1.3,1.3,0,0,0-1.3,1.3V78.028a1.3,1.3,0,0,0,1.3,1.3H83.293a1.3,1.3,0,0,0,1.3-1.3V71.872a9.868,9.868,0,0,1-5.169-.2h-18.1a.732.732,0,1,1,0-1.463H76.526a9.874,9.874,0,0,1-2.765-3.137Zm-23.28,9.2a.732.732,0,1,1,0-1.463H81.194a.732.732,0,1,1,0,1.463Zm4.74-15.055A4.964,4.964,0,0,1,59.4,65.39h.2a.732.732,0,0,1,.732.731,5.844,5.844,0,1,1-5.844-5.844.732.732,0,0,1,.731.732Z" transform="translate(-11.307 -11.316)" fill="#f2f2f2" fill-rule="evenodd"/>
      <path id="Trazado_1049367" data-name="Trazado 1049367" d="M107.084,91.973h10.323a9.862,9.862,0,0,1,3.529-3.208L109.478,68.916a.756.756,0,0,0-1.313,0l-7.191,12.462-5.465,9.459a.754.754,0,0,0,.655,1.136Zm1.737-5.953a2.327,2.327,0,1,1-1.65.682A2.332,2.332,0,0,1,108.821,86.02Zm1.864-2.739c.053,1.774-2,2.979-3.236,1.46a2.242,2.242,0,0,1-.494-1.459l-.282-8.278a2.152,2.152,0,0,1,3.674-1.54,2.063,2.063,0,0,1,.62,1.54Z" transform="translate(-54.546 -46.516)" fill="#f7ba2d" fill-rule="evenodd"/>
      <path id="Trazado_1049368" data-name="Trazado 1049368" d="M88.136,122.337l-3.585-2.069a.729.729,0,0,1-.269-.995l.563-.973-4.054.958,1.2,3.99.56-.972a.73.73,0,0,1,1-.267l3.586,2.063Z" transform="translate(-41.606 -90.578)" fill="#07718b" fill-rule="evenodd"/>
      <path id="Trazado_1049369" data-name="Trazado 1049369" d="M281.086,124.078l3.584-2.071a.73.73,0,0,1,1.02.307l.539.933,1.2-3.99-4.054-.958.563.973a.729.729,0,0,1-.269.995l-3.584,2.069Z" transform="translate(-218.06 -90.578)" fill="#0c9198" fill-rule="evenodd"/>
      <path id="Trazado_1049370" data-name="Trazado 1049370" d="M206.411,234.165a.87.87,0,1,0,.258.615A.87.87,0,0,0,206.411,234.165Z" transform="translate(-151.521 -192.944)" fill="#ef6262" fill-rule="evenodd"/>
      <path id="Trazado_1049371" data-name="Trazado 1049371" d="M207.544,127.747l.283-8.3a.694.694,0,0,0-1.187-.458.644.644,0,0,0-.19.458l.285,8.3C206.767,128.754,207.551,128.632,207.544,127.747Z" transform="translate(-152.867 -91.007)" fill="#ef6262" fill-rule="evenodd"/>
      <path id="Trazado_1049372" data-name="Trazado 1049372" d="M321.08,37.81v4.563a.976.976,0,0,0,.971.971h4.563Z" transform="translate(-254.362 -19.311)" fill="#919091" fill-rule="evenodd"/>
      <path id="Trazado_1049373" data-name="Trazado 1049373" d="M320.314,284.718V275.07a5.306,5.306,0,1,0,0,9.648Z" transform="translate(-247.029 -228.957)" fill="#f2f2f2" fill-rule="evenodd"/>
      <path id="Trazado_1049374" data-name="Trazado 1049374" d="M124,361.05l.871,3.25a4.382,4.382,0,0,0,2.493-3.25Z" transform="translate(-79.865 -305.513)" fill="#ffab3c" fill-rule="evenodd"/>
      <path id="Trazado_1049375" data-name="Trazado 1049375" d="M82.3,325.674,81.2,321.543a.709.709,0,0,1-.037-.229V317a4.377,4.377,0,0,0,1.142,8.674Z" transform="translate(-38.706 -266.51)" fill="#07718b" fill-rule="evenodd"/>
      <path id="Trazado_1049376" data-name="Trazado 1049376" d="M416.9,417.609a1.62,1.62,0,0,0-1.644,1.031.777.777,0,0,0,.086.716l3.347,5.415c.44.71,1.907.28,2.22-.666a.784.784,0,0,0-.08-.734l-3.348-5.414A.765.765,0,0,0,416.9,417.609Z" transform="translate(-337.704 -355.583)" fill="#07718b" fill-rule="evenodd"/>
      <path id="Trazado_1049377" data-name="Trazado 1049377" d="M124.8,327.5a3.5,3.5,0,0,0-2.689-2.689V327.5Z" transform="translate(-78.191 -273.425)" fill="#ef6262" fill-rule="evenodd"/>
    </g>
  </g>
</svg>
