<svg xmlns="http://www.w3.org/2000/svg" xmlns:xlink="http://www.w3.org/1999/xlink" width="505" height="534.888" viewBox="0 0 505 534.888">
  <defs>
    <clipPath id="clip-path">
      <rect id="Rectángulo_418780" data-name="Rectángulo 418780" width="505" height="534.888" transform="translate(915 2787)" fill="#193141" stroke="#707070" stroke-width="1" opacity="0.49"/>
    </clipPath>
    <filter id="Rectángulo_418752" x="91.5" y="-7" width="322" height="554.736" filterUnits="userSpaceOnUse">
      <feOffset dy="3" input="SourceAlpha"/>
      <feGaussianBlur stdDeviation="3" result="blur"/>
      <feFlood flood-opacity="0.161"/>
      <feComposite operator="in" in2="blur"/>
      <feComposite in="SourceGraphic"/>
    </filter>
    <clipPath id="clip-path-2">
      <rect id="Rectángulo_419320" data-name="Rectángulo 419320" width="430.135" height="525.876" fill="none"/>
    </clipPath>
  </defs>
  <g id="Enmascarar_grupo_1098803" data-name="Enmascarar grupo 1098803" transform="translate(-915 -2787)" clip-path="url(#clip-path)">
    <g id="Grupo_1209253" data-name="Grupo 1209253" transform="translate(1015.5 2786)">
      <g id="Grupo_1209235" data-name="Grupo 1209235">
        <g transform="matrix(1, 0, 0, 1, -100.5, 1)" filter="url(#Rectángulo_418752)">
          <rect id="Rectángulo_418752-2" data-name="Rectángulo 418752" width="304" height="536.736" rx="8" transform="translate(100.5 -1)" fill="#65b3d1" opacity="0.39"/>
        </g>
      </g>
    </g>
    <g id="Grupo_1210069" data-name="Grupo 1210069" transform="translate(961 2822.121)">
      <g id="Grupo_1210068" data-name="Grupo 1210068" clip-path="url(#clip-path-2)">
        <path id="Trazado_1049378" data-name="Trazado 1049378" d="M205.7,598.647H556.111A10.754,10.754,0,0,1,566.865,609.4V901.042A10.754,10.754,0,0,1,556.111,911.8H205.7a10.754,10.754,0,0,1-10.754-10.754V609.4A10.754,10.754,0,0,1,205.7,598.647" transform="translate(-174.446 -535.684)" fill="#bbd8f1"/>
        <path id="Trazado_1049379" data-name="Trazado 1049379" d="M600.392,648.039V938.38a6.949,6.949,0,0,1-6.947,6.942h-349.1a6.948,6.948,0,0,1-6.942-6.942V648.039a6.948,6.948,0,0,1,6.942-6.942H593.451a6.949,6.949,0,0,1,6.947,6.942Z" transform="translate(-212.432 -573.67)" fill="#f0f6fc"/>
        <path id="Trazado_1049380" data-name="Trazado 1049380" d="M600.392,648.039v23.948H237.4V648.039a6.948,6.948,0,0,1,6.942-6.942H593.451a6.949,6.949,0,0,1,6.947,6.942Z" transform="translate(-212.432 -573.67)" fill="#bbd8f1"/>
        <path id="Trazado_1049381" data-name="Trazado 1049381" d="M370.4,755.1a3.455,3.455,0,1,1-3.455,3.455A3.455,3.455,0,0,1,370.4,755.1" transform="translate(-328.356 -675.68)" fill="#fff"/>
        <path id="Trazado_1049382" data-name="Trazado 1049382" d="M519.355,755.1a3.455,3.455,0,1,1-3.455,3.455,3.455,3.455,0,0,1,3.455-3.455" transform="translate(-461.64 -675.68)" fill="#fff"/>
        <path id="Trazado_1049383" data-name="Trazado 1049383" d="M668.305,755.1a3.455,3.455,0,1,1-3.455,3.455,3.455,3.455,0,0,1,3.455-3.455" transform="translate(-594.924 -675.68)" fill="#fff"/>
        <path id="Trazado_1049384" data-name="Trazado 1049384" d="M88.021,1035.915l104.853-47.189a10.754,10.754,0,0,1,14.22,5.393l38.338,85.187a10.754,10.754,0,0,1-5.393,14.22l-104.853,47.189a10.754,10.754,0,0,1-14.22-5.393l-38.338-85.187a10.754,10.754,0,0,1,5.393-14.22" transform="translate(-73.088 -883.886)" fill="#bbd8f1"/>
        <path id="Trazado_1049385" data-name="Trazado 1049385" d="M78.6,1036.028l116.837-52.582a2.545,2.545,0,0,1,3.366,1.276l43.732,97.171a2.545,2.545,0,0,1-1.276,3.366l-116.837,52.583a2.545,2.545,0,0,1-3.366-1.277l-43.732-97.171a2.545,2.545,0,0,1,1.276-3.365" transform="translate(-68.993 -879.811)" fill="#f0f6fc"/>
        <path id="Trazado_1049386" data-name="Trazado 1049386" d="M198.866,984.609l3.608,8.015L81,1047.3l-3.608-8.014a2.546,2.546,0,0,1,1.278-3.366L195.5,983.337a2.554,2.554,0,0,1,3.371,1.278Z" transform="translate(-69.048 -879.713)" fill="#bbd8f1"/>
        <path id="Trazado_1049387" data-name="Trazado 1049387" d="M135.017,1507.8a1.267,1.267,0,1,1-1.267,1.267,1.267,1.267,0,0,1,1.267-1.267" transform="translate(-119.683 -1349.215)" fill="#fff"/>
        <path id="Trazado_1049388" data-name="Trazado 1049388" d="M184.867,1485.348a1.267,1.267,0,1,1-1.267,1.267,1.267,1.267,0,0,1,1.267-1.267" transform="translate(-164.29 -1329.126)" fill="#fff"/>
        <path id="Trazado_1049389" data-name="Trazado 1049389" d="M234.717,1462.948a1.267,1.267,0,1,1-1.267,1.267,1.267,1.267,0,0,1,1.267-1.267" transform="translate(-208.897 -1309.082)" fill="#fff"/>
        <path id="Trazado_1049390" data-name="Trazado 1049390" d="M285.783,691.084c.373,4.118.7,8.246.857,12.379.074,1.93.126,3.86.058,5.79-.032.868-.084,1.73-.174,2.593a5.351,5.351,0,0,1-.079.7c.195-.836.011-.084-.021.095-.084.542-.189,1.078-.31,1.609a21.1,21.1,0,0,1-.715,2.472c-.079.221-.168.442-.247.657-.284.752.3-.615-.037.079-.195.4-.384.8-.589,1.194a36.874,36.874,0,0,1-2.913,4.475,65.021,65.021,0,0,0-6.027,8.887,30.43,30.43,0,0,0-3.339,11.122,20.476,20.476,0,0,0,30.627,19.694c3.749-2.156,7.4-6.095,6.984-10.738a3.224,3.224,0,0,0-3.155-3.155c-1.583.068-3.313,1.394-3.155,3.155.016.2.032.4.032.6a2.866,2.866,0,0,0-.037.594c-.137-.421.1-.62-.005-.158-.037.163-.084.321-.131.479l-.063.189c-.121.316-.089.252.095-.2a4.708,4.708,0,0,0-.273.542c-.126.226-.442.962-.668,1.025l.237-.316-.268.316c-.095.105-.184.205-.284.3-.289.3-.594.584-.91.857l-.158.131c-.263.21-.216.174.152-.11a2.407,2.407,0,0,1-.337.242c-.4.279-.815.542-1.236.789-.305.174-.61.337-.926.494-.189.095-.379.179-.568.268-.636.3.51-.189.079-.032a21.94,21.94,0,0,1-2.293.736c-.4.1-.82.189-1.231.258.032,0-.41.058-.415.068l.421-.053-.415.047a17.468,17.468,0,0,1-2.514.079c-.347-.016-.7-.037-1.047-.074l-.21-.021c-.347-.042-.279-.032.216.032a4,4,0,0,0-.621-.105,17.066,17.066,0,0,1-2.33-.61c-.158-.053-.321-.11-.479-.174-.284-.105-.6-.4.037.032a8.276,8.276,0,0,0-.873-.41,17.168,17.168,0,0,1-1.988-1.178c-.158-.11-.316-.226-.473-.337-.542-.384.442.363.105.084-.273-.226-.547-.447-.81-.684a17.157,17.157,0,0,1-1.614-1.656c-.084-.1-.168-.195-.247-.294l-.121-.147c-.205-.263-.163-.2.137.184a4.326,4.326,0,0,0-.61-.868,16.959,16.959,0,0,1-1.1-1.919c-.084-.174-.163-.347-.247-.521-.3-.626.268.694.016.042-.116-.3-.231-.6-.331-.9a16.467,16.467,0,0,1-.6-2.409l-.037-.216c-.053-.352-.047-.289.021.184a1.82,1.82,0,0,1-.047-.437c-.042-.436-.074-.873-.084-1.309a19.09,19.09,0,0,1,.089-2.514,1.858,1.858,0,0,1,.058-.547l-.053.4c.021-.147.042-.289.068-.436.058-.363.126-.726.205-1.083a25.4,25.4,0,0,1,.694-2.572c.137-.426.289-.847.447-1.267.053-.142.105-.279.163-.415.068-.173.252-.868.026-.074a13.446,13.446,0,0,1,1.178-2.43,69.814,69.814,0,0,1,5.711-8.288,28.743,28.743,0,0,0,4.917-9.476,42.823,42.823,0,0,0,1-12.605c-.142-4.207-.489-8.777-.889-13.157a3.224,3.224,0,0,0-3.155-3.155c-1.583.068-3.318,1.394-3.155,3.155Z" transform="translate(-243.534 -615.568)" fill="#1a1a51"/>
        <path id="Trazado_1049391" data-name="Trazado 1049391" d="M177.556,258.906v36.88A25.554,25.554,0,0,1,152,321.338H136.153a25.572,25.572,0,0,1-24.906-19.8,25.882,25.882,0,0,1-.647-5.748v-36.88a8.01,8.01,0,0,1,8.009-8.009h50.931a7.885,7.885,0,0,1,1.972.247A8,8,0,0,1,177.556,258.906Z" transform="translate(-98.969 -224.509)" fill="#ffa200"/>
        <path id="Trazado_1049392" data-name="Trazado 1049392" d="M134.3,250.9q-2.666,3.234-5.332,6.463-9.182,11.13-18.364,22.266v-7.4c.831-1,1.657-2,2.482-3.008q7.557-9.158,15.108-18.316H134.3" transform="translate(-98.968 -224.509)" fill="#ffc552"/>
        <path id="Trazado_1049393" data-name="Trazado 1049393" d="M153.007,250.9q-2.666,3.234-5.332,6.463-14.372,17.425-28.739,34.85-3.842,4.662-7.688,9.324a25.883,25.883,0,0,1-.647-5.748v-.878q10.6-12.85,21.2-25.694,7.549-9.158,15.1-18.316Z" transform="translate(-98.968 -224.509)" fill="#ffc552"/>
        <path id="Trazado_1049394" data-name="Trazado 1049394" d="M215.94,251.144l-5.127,6.216q-14.364,17.425-28.739,34.85-9.3,11.28-18.6,22.555a25.373,25.373,0,0,1-3.224-3.5l5.948-7.21q14.364-17.425,28.739-34.845,7.557-9.158,15.1-18.316h3.928A7.885,7.885,0,0,1,215.94,251.144Z" transform="translate(-143.396 -224.509)" fill="#ffc552"/>
        <path id="Trazado_1049395" data-name="Trazado 1049395" d="M321.13,328.947v7.4q-10.6,12.85-21.2,25.7-11.9,14.435-23.812,28.876a25.363,25.363,0,0,1-5.069-1.257q6.5-7.888,13-15.771,14.372-17.425,28.739-34.845,4.165-5.056,8.335-10.107" transform="translate(-242.543 -294.35)" fill="#ffc552"/>
        <path id="Trazado_1049396" data-name="Trazado 1049396" d="M469.715,544.647v7.41c-.831,1-1.656,2-2.482,3.008q-12.013,14.561-24.027,29.128H437.1q7.123-8.645,14.251-17.28,9.182-11.138,18.364-22.266" transform="translate(-391.128 -487.364)" fill="#ffc552"/>
        <path id="Trazado_1049397" data-name="Trazado 1049397" d="M362.84,503.9a9.24,9.24,0,1,1-9.24,9.24,9.24,9.24,0,0,1,9.24-9.24" transform="translate(-316.41 -450.9)" fill="#1a1a51"/>
        <path id="Trazado_1049398" data-name="Trazado 1049398" d="M2662.2,3586.052a8.154,8.154,0,0,1,2.4,5.8V3708.1h-16.4v-116.25a8.2,8.2,0,0,1,13.993-5.8Z" transform="translate(-2369.677 -3206.738)" fill="#1a1a51"/>
        <path id="Trazado_1049399" data-name="Trazado 1049399" d="M3818.8,3591.847V3708.1h-16.4v-116.25a8.2,8.2,0,0,1,16.4,0Z" transform="translate(-3402.485 -3206.738)" fill="#1a1a51"/>
        <rect id="Rectángulo_419318" data-name="Rectángulo 419318" width="165.441" height="26.11" transform="translate(264.695 393.96)" fill="#f6750e"/>
        <path id="Trazado_1049400" data-name="Trazado 1049400" d="M3497.441,3745.75l-19.583,26.11H3462.4l19.578-26.11Z" transform="translate(-3098.243 -3351.79)" fill="#fff"/>
        <path id="Trazado_1049401" data-name="Trazado 1049401" d="M2549.385,3745.75l-19.584,26.11h-13.1v-3.14l17.222-22.97Z" transform="translate(-2252.007 -3351.79)" fill="#fff"/>
        <path id="Trazado_1049402" data-name="Trazado 1049402" d="M3174.741,3745.75l-19.578,26.11H3139.7l19.579-26.11Z" transform="translate(-2809.483 -3351.79)" fill="#fff"/>
        <path id="Trazado_1049403" data-name="Trazado 1049403" d="M3817.139,3745.75v4l-16.581,22.108H3785.1l19.578-26.11Z" transform="translate(-3387.004 -3351.79)" fill="#fff"/>
        <path id="Trazado_1049404" data-name="Trazado 1049404" d="M2852.041,3745.75l-19.584,26.11H2817l19.578-26.11Z" transform="translate(-2520.723 -3351.79)" fill="#fff"/>
        <rect id="Rectángulo_419319" data-name="Rectángulo 419319" width="165.441" height="26.11" transform="translate(264.695 435.352)" fill="#fff"/>
        <path id="Trazado_1049405" data-name="Trazado 1049405" d="M3497.441,4139.3l-19.583,26.11H3462.4l19.578-26.11Z" transform="translate(-3098.243 -3703.948)" fill="#f6750e"/>
        <path id="Trazado_1049406" data-name="Trazado 1049406" d="M2549.385,4139.3l-19.584,26.11h-13.1v-3.145l17.222-22.965Z" transform="translate(-2252.007 -3703.948)" fill="#f6750e"/>
        <path id="Trazado_1049407" data-name="Trazado 1049407" d="M3174.741,4139.3l-19.578,26.11H3139.7l19.579-26.11Z" transform="translate(-2809.483 -3703.948)" fill="#f6750e"/>
        <path id="Trazado_1049408" data-name="Trazado 1049408" d="M3817.139,4139.3v4l-16.581,22.108H3785.1l19.578-26.11Z" transform="translate(-3387.004 -3703.948)" fill="#f6750e"/>
        <path id="Trazado_1049409" data-name="Trazado 1049409" d="M2852.041,4139.3l-19.584,26.11H2817l19.578-26.11Z" transform="translate(-2520.723 -3703.948)" fill="#f6750e"/>
        <path id="Trazado_1049410" data-name="Trazado 1049410" d="M163.9,3822.727H78.651l1.9-5.2,2.934-8.02,5.164-14.151,2.992-8.193,5.217-14.272,3.076-8.414,5.254-14.377,3.187-8.73,7.715-21.124h10.365l3.334,9.119,2.293,6.284,3.329,9.113,2.309,6.316,3.229,8.835,2.33,6.368,3.1,8.493,2.356,6.458,2.955,8.088,2.409,6.594Z" transform="translate(-70.378 -3328.971)" fill="#f6750e"/>
        <path id="Trazado_1049411" data-name="Trazado 1049411" d="M357.8,3813.189q-2.422,1.53-4.9,3a233.027,233.027,0,0,1-21.75,11.327c-.084.042-.168.079-.252.116l3.187-8.73c1.1-.536,2.2-1.089,3.287-1.641,6.2-3.166,12.263-6.6,18.127-10.365l2.3,6.284Z" transform="translate(-296.098 -3406.508)" fill="#fff"/>
        <path id="Trazado_1049412" data-name="Trazado 1049412" d="M290.3,3953.349l2.309,6.316q-5.151,3.526-10.528,6.715a232.849,232.849,0,0,1-21.75,11.327q-4.26,1.949-8.582,3.771l3.076-8.414q5.932-2.651,11.732-5.606a207.494,207.494,0,0,0,23.749-14.1Z" transform="translate(-225.272 -3537.555)" fill="#fff"/>
        <path id="Trazado_1049413" data-name="Trazado 1049413" d="M228.328,4103.768q-7.77,5.727-16.087,10.66a232.966,232.966,0,0,1-21.75,11.327q-8.283,3.8-16.791,7.089l2.992-8.193c1.057-.431,2.109-.862,3.166-1.309,5.706-2.424,11.333-5.022,16.854-7.835a202.87,202.87,0,0,0,27.219-16.576q1.041-.758,2.067-1.53l2.324,6.368Z" transform="translate(-155.431 -3666.455)" fill="#fff"/>
        <path id="Trazado_1049414" data-name="Trazado 1049414" d="M164.886,4245.114c-.531.431-1.062.846-1.593,1.262a193.24,193.24,0,0,1-19.952,13.589,233.006,233.006,0,0,1-21.75,11.332c-7.867,3.6-15.9,6.853-24.027,9.808-.289.105-.573.205-.862.311l2.934-8.024q5.7-2.146,11.327-4.512c5.706-2.424,11.333-5.022,16.854-7.836a202.786,202.786,0,0,0,27.219-16.57c1.052-.767,2.088-1.541,3.124-2.33.11-.084.458-.357.615-.479l-.095.079c.189-.147.384-.294.568-.447.51-.394,1.015-.8,1.52-1.2.594-.479,1.183-.957,1.762-1.441l2.356,6.463Z" transform="translate(-86.53 -3792.85)" fill="#fff"/>
        <path id="Trazado_1049415" data-name="Trazado 1049415" d="M319.462,4383.639c-2.261,1.972-4.591,3.886-6.957,5.727a193.184,193.184,0,0,1-19.952,13.583q-6.744,3.992-13.762,7.5h-15.34q6.87-3.021,13.573-6.421a202.835,202.835,0,0,0,27.219-16.57c1.052-.763,2.088-1.541,3.124-2.324.1-.079.4-.311.573-.447a.464.464,0,0,1-.053.042c.189-.147.384-.294.568-.441.51-.4,1.015-.8,1.52-1.2q3.045-2.446,5.969-5.038l1.1-.994,2.409,6.595Z" transform="translate(-235.742 -3916.693)" fill="#fff"/>
        <path id="Trazado_1049416" data-name="Trazado 1049416" d="M5.369,4591.45H94.458a5.369,5.369,0,0,1,5.369,5.369v4.849a5.369,5.369,0,0,1-5.369,5.369H5.369A5.369,5.369,0,0,1,0,4601.668v-4.849a5.369,5.369,0,0,1,5.369-5.369" transform="translate(0 -4108.543)" fill="#f6750e"/>
        <path id="Trazado_1049417" data-name="Trazado 1049417" d="M335.168,2751.554s-4.265,51.252,9.05,68.2,40.729,15.2,50.431,9.413,22.7-62.28,21.04-67.933-80.527-9.687-80.527-9.687Z" transform="translate(-299.335 -2462.154)" fill="#f5b9c8"/>
        <path id="Trazado_1049418" data-name="Trazado 1049418" d="M733.781,1659.548s-25.495,2.261-36.78,24.858-24.6,46.94-24.6,46.94l48.307,14.588,13.079-86.386Z" transform="translate(-601.681 -1485.005)" fill="#1a1a51"/>
        <path id="Trazado_1049419" data-name="Trazado 1049419" d="M1426.951,1099.721s27.493,28.234,56.211,31.458c28.708,3.239,63.968-52.95,63.968-52.95s-34.719-9.734-36.727-24.185c-.494-3.581-2.44-7.746-1.983-11.543a95.057,95.057,0,0,1,5.964-22.3l-42.323,2.966s.063,1.467-.479,26.262a50.248,50.248,0,0,1-3.891,17.485c-7.036,17.6-40.734,32.8-40.734,32.8Z" transform="translate(-1276.871 -912.898)" fill="#f5b9c8"/>
        <path id="Trazado_1049420" data-name="Trazado 1049420" d="M1814.251,1066.962c2.74,6.81,5.5,13.068,6.826,14.277,3.15,2.861,16.491-7.247,26.341-22.623a85.655,85.655,0,0,0,7.567-16.066,95.056,95.056,0,0,1,5.964-22.3l-42.323,2.966s.063,1.467-.479,26.262a50.25,50.25,0,0,1-3.891,17.486Z" transform="translate(-1623.437 -912.943)" fill="#eb5b6f"/>
        <path id="Trazado_1049421" data-name="Trazado 1049421" d="M1506.74,236.824c-6.573,24.516-29,45.9-29,45.9l-18.1-11.685-62.695-40.487a42.278,42.278,0,0,1-1.01-35.055c8.009-19.137,22.066-29.3,53.108-28.971,31.027.321,55.07,21.282,59.151,52.272A46.169,46.169,0,0,1,1506.74,236.824Z" transform="translate(-1246.158 -149.008)" fill="#1a1a51"/>
        <path id="Trazado_1049422" data-name="Trazado 1049422" d="M2076.944,814.992c-6.574,24.516-29,45.9-29,45.9l-18.1-11.685a131.826,131.826,0,0,1,17.2-36.564,157.78,157.78,0,0,0,29.891,2.345" transform="translate(-1816.362 -727.177)" fill="#1a1a51"/>
        <path id="Trazado_1049423" data-name="Trazado 1049423" d="M1541.441,683.656c-3.928,9.445-22.529,4.67-22.529,4.67s-.016.037-.047.126c-.684,1.662-7.635,18.216-14.3,24.937-4.4,4.444-14.172,9.145-23.575,12.416h-.01c-2.85.447-8.824,2.14-16.86,1.919s-15.534-1.851-23.349-17.328c-7.562-14.982-7.357-32.057-7.325-33.114v-.053a39.14,39.14,0,0,1,.841-5.627c1.026-4.57-.163-8.24-.7-13.6-.458-4.6,1.089-18.1,1.514-21.755,0,0,1.678,3.4,10.123,6.205s11.827,2.4,9.886.584c-1.8-1.7-5.821-5.869-6.337-6.416.621.542,5.89,4.975,17.228,7.52,12.09,2.714,16.912,3.308,16.849,1.709-.053-1.52-3.608-5.453-3.918-5.8.626.526,10.791,8.982,19.731,12.763a26.016,26.016,0,0,0,14.7,1.972c-.1,1-.205,2.046-.3,3.118-.137,2.587-.342,5.538-.715,8.02-.426,5.259-.726,9.576-.463,9.976.626,1.02,2.382.978,3.818.563,1.441-.4,2.729-9.466,3.9-11.191,1.183-1.762,10.454-2.13,15.866.426,5.38,2.577,9.876,8.472,5.964,17.938Z" transform="translate(-1282.673 -569.331)" fill="#f5b9c8"/>
        <path id="Trazado_1049424" data-name="Trazado 1049424" d="M2276.7,942.888s6.042-8.687,11.99-2.65-2.387,14.151-5.963,14.336-3.66-1.841-2.2-2.887,3.776-2.4,2.282-4.6-3.24-.826-3.855.205a9.995,9.995,0,0,0-.873,1.809" transform="translate(-2037.249 -839.439)" fill="#eb5b6f"/>
        <path id="Trazado_1049425" data-name="Trazado 1049425" d="M1204.351,582.035s-19.615,10.444-10.37,17.58,105.139-7.462,105.139-7.462S1255.681,574.226,1204.351,582.035Z" transform="translate(-1066.187 -519.057)" fill="#ffc552"/>
        <path id="Trazado_1049426" data-name="Trazado 1049426" d="M1313.651,62.979c2.251-24.948,18.237-49.927,42.07-58.2,16.9-5.869,42.88-7.662,58.756,2.414,9.5,6.027,15.245,17.38,18.648,27.845,3.655,11.238,6.221,23.98,6.047,35.849-.016.952-1.909,15.445-1.883,15.455,0,0-60.008-33.845-123.633-23.359Z" transform="translate(-1175.488 0)" fill="#ffa200"/>
        <path id="Trazado_1049427" data-name="Trazado 1049427" d="M1856.842,168.85s-20.814-20.246-42.749-3.5-19.6,33.514-19.6,33.514l-6.147-.952s-6.311-20.472,19.615-37.905,43.059-4.128,43.059-4.128,5.185,7,5.816,12.973Z" transform="translate(-1599.651 -135.137)" fill="#f6750e"/>
        <path id="Trazado_1049428" data-name="Trazado 1049428" d="M1477.936,4.4s-30.864,8.761-38.594,30.737-6.458,29.97-6.458,29.97l-4.985-.095s-2.051-20.441,9.807-38.094,35.123-22.15,40.23-22.518" transform="translate(-1277.598 -3.934)" fill="#f6750e"/>
        <path id="Trazado_1049429" data-name="Trazado 1049429" d="M1815.386,850.852c1.963-.22,3.818,1.958,4.143,4.865s-1,5.441-2.964,5.661-3.817-1.958-4.143-4.865,1-5.441,2.964-5.661" transform="translate(-1621.756 -761.35)" fill="#1a1a51"/>
        <path id="Trazado_1049430" data-name="Trazado 1049430" d="M1523.267,871.193c1.8-.2,3.49,1.729,3.78,4.313s-.934,4.841-2.732,5.042-3.49-1.729-3.78-4.313.934-4.841,2.732-5.042" transform="translate(-1360.574 -779.552)" fill="#1a1a51"/>
        <path id="Trazado_1049431" data-name="Trazado 1049431" d="M1816.78,860.169c.831-.093,1.621.866,1.764,2.141s-.415,2.385-1.246,2.479-1.621-.866-1.764-2.141.415-2.385,1.246-2.479" transform="translate(-1624.564 -769.695)" fill="#fff"/>
        <path id="Trazado_1049432" data-name="Trazado 1049432" d="M1520.336,881.43c.831-.093,1.621.866,1.764,2.141s-.415,2.385-1.246,2.479-1.621-.866-1.764-2.141.415-2.385,1.246-2.478" transform="translate(-1359.299 -788.72)" fill="#fff"/>
        <path id="Trazado_1049433" data-name="Trazado 1049433" d="M1600.354,967.011c.636-.016,1.1-.063,1.257-.084a1.053,1.053,0,0,0-.231-2.093c-1.53.168-5.811.195-7.183-1.7-1.188-1.641-.568-2.477,2.619-5.327.258-.231.521-.463.789-.71,3.686-3.345,1.53-9.808,1.441-10.081a1.055,1.055,0,0,0-2,.678c.016.053,1.8,5.432-.862,7.841-.263.242-.526.473-.778.7-2.75,2.461-5.348,4.791-2.919,8.135C1594.275,966.832,1598.272,967.069,1600.354,967.011Z" transform="translate(-1424.133 -846.775)" fill="#eb5b6f"/>
        <path id="Trazado_1049434" data-name="Trazado 1049434" d="M1808.55,774.371a1.055,1.055,0,0,0,.631-1.877c-4-3.218-9.908-1.835-10.155-1.777a1.055,1.055,0,0,0,.494,2.051c.053-.01,5.154-1.194,8.34,1.367a1.059,1.059,0,0,0,.689.231Z" transform="translate(-1609.09 -689.348)" fill="#1a1a51"/>
        <path id="Trazado_1049435" data-name="Trazado 1049435" d="M1484.032,784.644a1.048,1.048,0,0,0,.92-.6c.084-.168,1.909-3.76,7.11-2.472a1.054,1.054,0,0,0,.51-2.046c-5.548-1.372-8.656,1.767-9.524,3.618a1.057,1.057,0,0,0,.5,1.4,1.019,1.019,0,0,0,.479.1Z" transform="translate(-1326.979 -697.239)" fill="#1a1a51"/>
        <path id="Trazado_1049436" data-name="Trazado 1049436" d="M1672.94,1177.786a28.336,28.336,0,0,0,16.1-8.141,1.254,1.254,0,0,0-.168-1.751,1.274,1.274,0,0,0-1.751.168,25.546,25.546,0,0,1-14.414,7.247C1671.126,1175.535,1671.352,1178.017,1672.94,1177.786Z" transform="translate(-1495.815 -1044.813)" fill="#eb5b6f"/>
        <path id="Trazado_1049437" data-name="Trazado 1049437" d="M1732.191,1291.4l1.73-.168a1.3,1.3,0,0,0,.841-.447.9.9,0,0,0,.216-.421.957.957,0,0,0,.063-.489,1.27,1.27,0,0,0-.447-.841,1.288,1.288,0,0,0-.91-.279l-1.73.168a1.294,1.294,0,0,0-.841.447.9.9,0,0,0-.216.421.957.957,0,0,0-.063.489,1.27,1.27,0,0,0,.447.841,1.289,1.289,0,0,0,.91.279" transform="translate(-1548.786 -1153.203)" fill="#eb5b6f"/>
        <path id="Trazado_1049438" data-name="Trazado 1049438" d="M906.246,3473.126a8.041,8.041,0,0,0,3.986,7.025c16.718,9.466,46.829,20.551,96.2,20.551,68.669,0,107.021-14.178,119.789-19.957a8.026,8.026,0,0,0,4.6-7.557c-.279-11.491-.836-26.163-1.94-42.833-2.172-32.789-11.727-81.563-15.3-98.965a7.946,7.946,0,0,0-7.336-6.663c-31.816-.862-179.981-2.192-190.52,47.24-8.335,39.12-9.518,80.312-9.487,101.152Z" transform="translate(-810.931 -2974.827)" fill="#1a1a51"/>
        <path id="Trazado_1049439" data-name="Trazado 1049439" d="M1678.834,4564.306a.338.338,0,0,1-.058,0c-29.533-6.516-33.8-10.381-42.3-18.069-1.809-1.635-3.86-3.492-6.379-5.569a.262.262,0,0,1,.331-.405c2.529,2.083,4.586,3.944,6.4,5.585,8.435,7.63,12.668,11.459,42.06,17.943a.263.263,0,0,1-.058.52Z" transform="translate(-1458.566 -4062.684)" fill="#483b8f"/>
        <path id="Trazado_1049440" data-name="Trazado 1049440" d="M1823.674,4722.942a.258.258,0,0,1-.252-.2c-.926-3.7-1.778-6.858-2.535-9.635a161.749,161.749,0,0,1-4.559-20.583.263.263,0,1,1,.521-.078,161.738,161.738,0,0,0,4.543,20.524c.757,2.782,1.615,5.938,2.54,9.645a.265.265,0,0,1-.189.32c-.021,0-.042.005-.063.005Z" transform="translate(-1625.292 -4198.718)" fill="#483b8f"/>
        <path id="Trazado_1049441" data-name="Trazado 1049441" d="M1699.694,4864.228a.284.284,0,0,1-.184-.073l-13.736-13.258a.264.264,0,1,1,.368-.378l13.736,13.257a.263.263,0,0,1-.184.452" transform="translate(-1508.402 -4340.297)" fill="#483b8f"/>
        <path id="Trazado_1049442" data-name="Trazado 1049442" d="M1096.79,1748.71h0a5.449,5.449,0,0,1-2.224,3.5c-1.02.568-12.4-.373-18.132,3.581s-32.878,10.744-48.791,7.914-49.984,7.257-80.591,2.451-83-4.8-82.352-11.306c.121-1.236.494-4.323,1.02-8.514.016-.147.037-.3.058-.463.021-.174.047-.347.068-.526,1.82-14.561,5.243-40.813,6.542-50.779l2.293-44.594c2.8-35.47,11.717-90.672,18.895-125.637q7.178-34.965.005-.01c4.891-14.009,20.141-39.157,27.435-43.164s28.434-8.85,28.434-8.85l11.091-1s-6.421,19.142,14.272,20.052,42.922-27.109,42.922-27.109l13.215,6.41s53.571,16.108,62.2,29.912-11.99,133.957-9.1,153.672c2.409,16.481,5.627,47.487,6.621,58.462.189,2.156.3,3.534.3,3.881,0,0,1.273,5.632,2.65,12,.005.021.01.047.016.068,1.567,7.252,3.266,15.435,3.376,17.333a9.371,9.371,0,0,1-.226,2.724Z" transform="translate(-773.749 -1310.245)" fill="#483b8f"/>
        <path id="Trazado_1049443" data-name="Trazado 1049443" d="M1461.908,2004.831a.809.809,0,0,1-.4-.11,712.186,712.186,0,0,1-72.681-49.743.791.791,0,1,1,.973-1.246,710.8,710.8,0,0,0,72.524,49.632.789.789,0,0,1-.4,1.467Z" transform="translate(-1242.481 -1748.098)" fill="#1f2163"/>
        <path id="Trazado_1049444" data-name="Trazado 1049444" d="M1400.592,2035.538a.789.789,0,0,1-.678-.384,21.058,21.058,0,0,1-2.524-6.326.789.789,0,1,1,1.541-.342,19.517,19.517,0,0,0,2.335,5.853.79.79,0,0,1-.274,1.083.808.808,0,0,1-.4.11Z" transform="translate(-1250.402 -1814.586)" fill="#1f2163"/>
        <path id="Trazado_1049445" data-name="Trazado 1049445" d="M1567.463,2253.007a.775.775,0,0,1-.337-.079,244.389,244.389,0,0,1-44.978-27.577.787.787,0,1,1,.962-1.246,243.007,243.007,0,0,0,44.689,27.4.791.791,0,0,1-.342,1.5Z" transform="translate(-1361.783 -1990.037)" fill="#1f2163"/>
        <path id="Trazado_1049446" data-name="Trazado 1049446" d="M1160,2965.149a.791.791,0,0,1-.263-1.536c5.19-1.851,10.733-2.692,16.434-3.46,36.322-4.9,73.738-6.842,108.767-8.209a.789.789,0,0,1,.063,1.578c-34.986,1.367-72.361,3.3-108.615,8.2a79.772,79.772,0,0,0-16.113,3.386.79.79,0,0,1-.263.048Z" transform="translate(-1037.29 -2641.473)" fill="#1f2163"/>
        <path id="Trazado_1049447" data-name="Trazado 1049447" d="M1171.967,3093.077h-7.977a.789.789,0,1,1,0-1.578h7.977a.789.789,0,1,1,0,1.578" transform="translate(-1040.861 -2766.35)" fill="#1f2163"/>
        <path id="Trazado_1049448" data-name="Trazado 1049448" d="M1428.695,3090.027H1378.39a.789.789,0,0,1,0-1.578h50.305a.789.789,0,1,1,0,1.578" transform="translate(-1232.711 -2763.621)" fill="#1f2163"/>
        <path id="Trazado_1049449" data-name="Trazado 1049449" d="M2348.486,2257.042h-.031a.788.788,0,0,1-.757-.82l1.7-41.67a.789.789,0,1,1,1.578.063l-1.7,41.671a.788.788,0,0,1-.789.757" transform="translate(-2100.778 -1980.957)" fill="#1f2163"/>
        <path id="Trazado_1049450" data-name="Trazado 1049450" d="M2331.635,2702.012a.79.79,0,0,1-.789-.784,18.835,18.835,0,0,1,.726-5.354.787.787,0,1,1,1.515.431,17.223,17.223,0,0,0-.663,4.906.788.788,0,0,1-.784.794h-.005Z" transform="translate(-2085.698 -2411.823)" fill="#1f2163"/>
        <path id="Trazado_1049451" data-name="Trazado 1049451" d="M1914.993,3180.375a.789.789,0,0,1-.268-1.53,345.219,345.219,0,0,0,102.7-58.241.788.788,0,1,1,1,1.215,346.741,346.741,0,0,1-103.166,58.509A.8.8,0,0,1,1914.993,3180.375Z" transform="translate(-1712.878 -2792.231)" fill="#1f2163"/>
        <path id="Trazado_1049452" data-name="Trazado 1049452" d="M2814.454,3206.855a.747.747,0,0,1-.389-.1.792.792,0,0,1-.294-1.078,74.861,74.861,0,0,1,6.032-9,.787.787,0,0,1,1.241.967,74.008,74.008,0,0,0-5.906,8.814.785.785,0,0,1-.684.4Z" transform="translate(-2517.738 -2860.188)" fill="#1f2163"/>
        <path id="Trazado_1049453" data-name="Trazado 1049453" d="M2600.656,3374.223a.782.782,0,0,1-.521-.195.79.79,0,0,1-.068-1.115c6.584-7.478,12.879-15.319,18.711-23.312a.79.79,0,1,1,1.278.931c-5.864,8.03-12.19,15.913-18.805,23.422A.785.785,0,0,1,2600.656,3374.223Z" transform="translate(-2326.427 -2997.017)" fill="#1f2163"/>
        <path id="Trazado_1049454" data-name="Trazado 1049454" d="M2133.532,3896.038a.789.789,0,0,1-.037-1.578c25.137-1.11,50.637-1.488,75.795-1.12a.789.789,0,0,1-.011,1.578h-.01c-25.126-.368-50.594.005-75.7,1.115h-.037Z" transform="translate(-1908.43 -3483.735)" fill="#1f2163"/>
        <path id="Trazado_1049455" data-name="Trazado 1049455" d="M1534.407,3907.727H1470.14a.789.789,0,1,1,0-1.578h64.267a.789.789,0,1,1,0,1.578" transform="translate(-1314.812 -3495.319)" fill="#1f2163"/>
        <path id="Trazado_1049456" data-name="Trazado 1049456" d="M2026.446,1763.038c-3.229,9.681-123.491,23.407-129.1,16.234-2.729-3.492-5.8-21.04-6.631-47.3-.216-6.815-.279-14.22-.147-22.118.147-8.919.547-18.469,1.262-28.513q.757-10.72,2.03-22.134c1.2-10.765,2.782-21.934,4.791-33.372,13.994-79.639,37.006-161.633,37.006-161.633s73.838,22,79.292,36.122-9.087,119.053-9.9,139.231a87.536,87.536,0,0,0,1.436,14.893c.984,6.263,2.4,13.709,4.018,21.734,1.8,8.851,3.849,18.406,5.885,27.835,1.6,7.415,3.182,14.751,4.617,21.619C2024.894,1744.3,2027.639,1759.446,2026.446,1763.038Z" transform="translate(-1691.667 -1310.201)" fill="#ffa200"/>
        <path id="Trazado_1049457" data-name="Trazado 1049457" d="M864.933,1531.086s-19.095,32.7-30.4,113.011c-3.35,23.812-6.058,49.685-8.33,74.359-.694,7.5-1.341,14.877-1.956,22.061-.852,9.939-1.641,19.489-2.366,28.4-.652,7.9-1.257,15.3-1.841,22.05-1.983,23.118-3.6,38.447-5.285,39.2-4.438,1.993-56.1,3.6-56.9-10.922-.179-3.24,1.1-15.5,3.334-32.962.847-6.589,1.825-13.925,2.908-21.792,1.209-8.766,2.561-18.206,4-28.019,1.041-7.1,2.135-14.393,3.26-21.777,8.824-57.852,19.826-121.251,26.041-138.405,11.706-32.278,11.3-33.488,21.393-37.122s31.321-8.5,46.135-8.083Z" transform="translate(-678.137 -1370.032)" fill="#ffa200"/>
        <path id="Trazado_1049458" data-name="Trazado 1049458" d="M899.372,3280.209q7.044.355,14.088.594c-.694,7.5-1.341,14.877-1.956,22.061-16.339-.594-32.673-1.625-48.943-3.271q-3.6-.363-7.21-.768c1.041-7.1,2.135-14.393,3.26-21.777,13.547,1.462,27.146,2.477,40.755,3.16Z" transform="translate(-765.389 -2932.385)" fill="#fff"/>
        <path id="Trazado_1049459" data-name="Trazado 1049459" d="M2021.826,3294.784q-11.832,1.231-23.68,2.067c-22.113,1.583-44.279,2.261-66.444,2.692q-14.27.284-28.55.4.757-10.72,2.03-22.134,16.218-.134,32.42-.515c26.767-.579,53.561-1.62,80.212-4.244.983,6.263,2.4,13.709,4.018,21.734Z" transform="translate(-1702.987 -2928.806)" fill="#fff"/>
        <path id="Trazado_1049460" data-name="Trazado 1049460" d="M840.672,3754.441q4.883.244,9.771.436c-.652,7.9-1.257,15.3-1.841,22.05-14.935-.61-29.865-1.6-44.736-3.1q-7.068-.71-14.115-1.583c.847-6.589,1.825-13.925,2.908-21.792,15.95,1.909,31.968,3.182,48.013,3.986Z" transform="translate(-706.689 -3355.995)" fill="#fff"/>
        <path id="Trazado_1049461" data-name="Trazado 1049461" d="M2020.963,3765.968c-11.37,1.362-22.77,2.419-34.182,3.234-22.113,1.583-44.279,2.261-66.445,2.692q-14.838.292-29.67.41c-.216-6.815-.279-14.22-.147-22.118,11.906-.079,23.817-.284,35.712-.542,30.085-.652,60.208-1.888,90.114-5.3C2017.945,3751.764,2019.528,3759.1,2020.963,3765.968Z" transform="translate(-1691.623 -3350.537)" fill="#fff"/>
        <path id="Trazado_1049462" data-name="Trazado 1049462" d="M321.842,1983.187H153.535a3.888,3.888,0,0,1-3.8-3.024L117.9,1841.868a3.9,3.9,0,0,1,3.8-4.77H291.262a3.887,3.887,0,0,1,3.8,3.029l17.775,77.966,12.821,60.386a3.9,3.9,0,0,1-3.813,4.707" transform="translate(-105.412 -1643.881)" fill="#1a1a51"/>
        <path id="Trazado_1049463" data-name="Trazado 1049463" d="M2593.494,1727.534a28.778,28.778,0,0,0-36.291,11.085,33,33,0,0,0-4.917,23.454c3.765,22.024,25.936,55.79,26.373,55.932s23.259-6.81,34.561-8.33,34.776-4.564,33.908-7.389c-.694-2.261-22.444-60.3-53.629-74.748Z" transform="translate(-2283.426 -1543.53)" fill="#483b8f"/>
        <path id="Trazado_1049464" data-name="Trazado 1049464" d="M1822.152,2443.01s16.66,45.346,15.787,53.461-8.793,18.837-12.947,21.156-26.467,7.247-38.352,4.06-64.914-27.24-69.552-29.27-19.126-2.461-22.75-2.9-20.141,1.883-24.632,1.157-26.662-5.795-29.27-9.129a5.516,5.516,0,0,1,0-6.668s-6.521-2.461-6.374-5.653,4.2-4.638,4.2-4.638-5.653-2.172-5.217-6.521,5.364-4.78,5.364-4.78-1.593-6.374,1.883-7.388,14.488,1.451,16.376,1.883,9.744.437,9.744.437l-1.882-9.418s11.122,1.3,12.858,2.172,15.434,15,18.258,15.8,50.994,2.745,61.854-.216,25.1-10.349,64.651-13.546Z" transform="translate(-1461.269 -2182.297)" fill="#f5b9c8"/>
        <path id="Trazado_1049465" data-name="Trazado 1049465" d="M2798.287,2611.283a102.341,102.341,0,0,1,26.494,3.155c4.239,1.01,8.44,2.177,12.605,3.45a94.524,94.524,0,0,1,11.154,4.06,46.443,46.443,0,0,1,11.3,6.968c.768.657,1.888-.452,1.115-1.115-6.142-5.274-13.694-8.43-21.335-10.87a162.149,162.149,0,0,0-26.073-6.279,89.919,89.919,0,0,0-15.266-.957.789.789,0,0,0,0,1.578Z" transform="translate(-2503.286 -2335.193)" fill="#eb5b6f"/>
        <path id="Trazado_1049466" data-name="Trazado 1049466" d="M1681.255,2566.313a161.94,161.94,0,0,0,30.527,4.223c1.015.042,1.015-1.535,0-1.578a159.722,159.722,0,0,1-30.106-4.17c-.989-.237-1.409,1.288-.421,1.52Z" transform="translate(-1503.924 -2295.013)" fill="#eb5b6f"/>
        <path id="Trazado_1049467" data-name="Trazado 1049467" d="M1666.554,2672.558a100.638,100.638,0,0,0,28.618,5.479c1.015.047,1.015-1.53,0-1.577a99.217,99.217,0,0,1-28.2-5.422c-.962-.336-1.372,1.189-.42,1.52" transform="translate(-1490.791 -2390.068)" fill="#eb5b6f"/>
        <path id="Trazado_1049468" data-name="Trazado 1049468" d="M1696.919,2772.545a109.381,109.381,0,0,0,23.959,3.844c1.015.047,1.015-1.53,0-1.578a107.488,107.488,0,0,1-23.538-3.792.789.789,0,0,0-.421,1.52Z" transform="translate(-1517.947 -2479.548)" fill="#eb5b6f"/>
        <path id="Trazado_1049469" data-name="Trazado 1049469" d="M2216.733,2640.439q.458,7.028.91,14.052c.063,1.01,1.646,1.015,1.578,0q-.457-7.029-.91-14.052c-.063-1.01-1.646-1.015-1.578,0" transform="translate(-1983.585 -2362.051)" fill="#eb5b6f"/>
        <path id="Trazado_1049470" data-name="Trazado 1049470" d="M1452.192,1764.617h-32.741c2.714-6.147,7.047-8.361,11.685-8.519,8.083,1.641,15.177,4.2,20.446,8.062l.068.052c.179.132.358.268.536.405Z" transform="translate(-1270.16 -1571.4)" fill="#bbd8f1"/>
        <path id="Trazado_1049471" data-name="Trazado 1049471" d="M470.057,1752.838c-3.876,34.844,14.015,107.252,14.015,107.252H390.718s-30.674-30-29.465-79.455c.5-20.546,3.944-31.71,9.629-37.884,8-8.677,20.451-7.462,35.407-8.53,19.11-1.362,53.145-5.012,77.919.01-4.643.158-8.971,2.372-11.685,8.519A34.629,34.629,0,0,0,470.057,1752.838Z" transform="translate(-323.227 -1549.534)" fill="#fff"/>
        <path id="Trazado_1049472" data-name="Trazado 1049472" d="M1551.047,1764.078c-5.269-3.86-12.363-6.421-20.446-8.062,8.482-.295,17.985,6.247,20.446,8.062" transform="translate(-1369.62 -1571.318)" fill="#fff"/>
        <path id="Trazado_1049473" data-name="Trazado 1049473" d="M196.029,2533.732a13.79,13.79,0,0,1-1.557-5.3c-.352-4.123-.962-11.716-.962-14.961,0-4.57-.941-18.553,2.824-17.612S204,2508.637,204,2508.637s6.721-4.3,7.394-4.438,13.846-3.092,15.6-1.614-.536,6.052-.536,6.052,3.36.8,4.707,3.5-2.419,5.38-2.419,5.38,3.092,3.36,2.151,5.78-10.218,10.754-10.218,10.754,6.857-4.3,8.872-2.824,3,3.36,1.9,4.033-14.272,15.061-16.292,15.461-7.394.137-10.486-2.956c-2.251-2.251-6.495-9.981-8.64-14.025Z" transform="translate(-173.064 -2233.32)" fill="#f5b9c8"/>
        <path id="Trazado_1049474" data-name="Trazado 1049474" d="M290.19,2621.322a38.519,38.519,0,0,1,21.256-9.7c.994-.116,1.01-1.7,0-1.578a40.4,40.4,0,0,0-22.371,10.165C288.323,2620.891,289.438,2622.006,290.19,2621.322Z" transform="translate(-258.448 -2335.524)" fill="#eb5b6f"/>
        <path id="Trazado_1049475" data-name="Trazado 1049475" d="M334.669,2706.929a35.276,35.276,0,0,1,19.352-10.906c.994-.195.573-1.714-.421-1.52a36.707,36.707,0,0,0-20.052,11.312c-.678.752.431,1.872,1.115,1.115Z" transform="translate(-298.278 -2411.093)" fill="#eb5b6f"/>
        <path id="Trazado_1049476" data-name="Trazado 1049476" d="M396.122,2856.715a62.744,62.744,0,0,0-6.91,7.751.792.792,0,0,0,.284,1.078.806.806,0,0,0,1.078-.284,60.407,60.407,0,0,1,6.663-7.436c.736-.7-.379-1.814-1.115-1.115Z" transform="translate(-348.173 -2556.056)" fill="#eb5b6f"/>
        <path id="Trazado_1049477" data-name="Trazado 1049477" d="M2849.217,291.429v91.434a2.186,2.186,0,0,1-2.188,2.188H2737.09a2.193,2.193,0,0,1-2.187-2.188V291.429a2.2,2.2,0,0,1,2.188-2.182h109.94a2.185,2.185,0,0,1,2.188,2.182" transform="translate(-2447.258 -258.825)" fill="#bbd8f1"/>
        <path id="Trazado_1049478" data-name="Trazado 1049478" d="M2768.6,410.782V325.711a1.709,1.709,0,0,1,1.7-1.714H2874.13a1.709,1.709,0,0,1,1.7,1.714v85.066a1.709,1.709,0,0,1-1.7,1.714H2770.306a1.709,1.709,0,0,1-1.7-1.714Z" transform="translate(-2477.414 -289.921)" fill="#fff"/>
        <path id="Trazado_1049479" data-name="Trazado 1049479" d="M2975.988,488.432a7.709,7.709,0,0,1-6.679-11.564l24.9-43.117a7.713,7.713,0,0,1,13.357,0l24.895,43.117a7.709,7.709,0,0,1-6.678,11.564Z" transform="translate(-2656.077 -384.683)" fill="#ffa200"/>
        <path id="Trazado_1049480" data-name="Trazado 1049480" d="M3249.552,658.967a2.513,2.513,0,0,1,.868-1.967,3.426,3.426,0,0,1,4.323,0,2.663,2.663,0,0,1,0,3.934,3.426,3.426,0,0,1-4.323,0,2.5,2.5,0,0,1-.868-1.967m5.274-5.017h-4.417l-.694-16.1h5.811l-.694,16.1Z" transform="translate(-2907.78 -570.762)" fill="#fff"/>
        <path id="Trazado_1049481" data-name="Trazado 1049481" d="M3327.864,1487.936v54.081a1.293,1.293,0,0,1-1.294,1.294h-65.025a1.3,1.3,0,0,1-1.293-1.294v-54.081a1.3,1.3,0,0,1,1.293-1.288h65.025a1.292,1.292,0,0,1,1.294,1.288" transform="translate(-2917.354 -1330.289)" fill="#bbd8f1"/>
        <path id="Trazado_1049482" data-name="Trazado 1049482" d="M3291.375,1516.8h59.319a.973.973,0,0,1,.973.973v48.37a.973.973,0,0,1-.973.973h-59.319a.973.973,0,0,1-.973-.973v-48.37a.973.973,0,0,1,.973-.973" transform="translate(-2944.333 -1357.269)" fill="#fff"/>
        <path id="Trazado_1049483" data-name="Trazado 1049483" d="M3448.807,1611.442l-4.175-1.157a12.58,12.58,0,0,0-.51-4.423l3.781-2.051a.311.311,0,0,0,.047-.521,7.812,7.812,0,0,1-2.393-4.186.322.322,0,0,0-.479-.231l-3.765,2.046a13.111,13.111,0,0,0-3.592-2.782l1.178-4.033a.315.315,0,0,0-.342-.4,6.794,6.794,0,0,1-2.467-.294,6.637,6.637,0,0,1-2.256-1.015.329.329,0,0,0-.51.168l-1.173,4.018a13.587,13.587,0,0,0-4.575.51l-2.083-3.644a.331.331,0,0,0-.536-.047,6.688,6.688,0,0,1-1.962,1.494,6.811,6.811,0,0,1-2.335.841.312.312,0,0,0-.237.468l2.083,3.644a12.929,12.929,0,0,0-2.85,3.523l-4.123-1.146a.322.322,0,0,0-.415.331,6.378,6.378,0,0,1-.3,2.4,6.5,6.5,0,0,1-1.041,2.2.312.312,0,0,0,.168.494l4.139,1.146a12.715,12.715,0,0,0,.537,4.444l-3.765,2.046a.311.311,0,0,0-.047.521,6.463,6.463,0,0,1,1.53,1.909,6.379,6.379,0,0,1,.863,2.277.322.322,0,0,0,.479.232l3.781-2.051a13.253,13.253,0,0,0,3.586,2.755l-1.188,4.07a.315.315,0,0,0,.342.4,6.794,6.794,0,0,1,2.466.295,6.635,6.635,0,0,1,2.256,1.015.329.329,0,0,0,.51-.168l1.188-4.081a13.55,13.55,0,0,0,4.522-.515l2.12,3.707a.331.331,0,0,0,.536.047,6.686,6.686,0,0,1,1.961-1.494,6.813,6.813,0,0,1,2.335-.841.312.312,0,0,0,.237-.468l-2.119-3.707a13.011,13.011,0,0,0,2.829-3.476l4.186,1.162a.325.325,0,0,0,.416-.337,6.305,6.305,0,0,1,.3-2.4,6.494,6.494,0,0,1,1.041-2.2.312.312,0,0,0-.168-.494Zm-12.053-4.817a5.917,5.917,0,0,1-2.382,8.162,6.235,6.235,0,0,1-8.372-2.324,5.924,5.924,0,0,1,2.382-8.162,6.235,6.235,0,0,1,8.372,2.324" transform="translate(-3054.673 -1424.856)" fill="#bbd8f1"/>
      </g>
    </g>
  </g>
</svg>
