<svg xmlns="http://www.w3.org/2000/svg" xmlns:xlink="http://www.w3.org/1999/xlink" width="118" height="118" viewBox="0 0 118 118">
  <defs>
    <filter id="Trazado_982547" x="0" y="0" width="118" height="118" filterUnits="userSpaceOnUse">
      <feOffset dy="3" input="SourceAlpha"/>
      <feGaussianBlur stdDeviation="3" result="blur"/>
      <feFlood flood-opacity="0.161"/>
      <feComposite operator="in" in2="blur"/>
      <feComposite in="SourceGraphic"/>
    </filter>
  </defs>
  <g id="Grupo_1210070" data-name="Grupo 1210070" transform="translate(9 6)">
    <g id="Grupo_1208492" data-name="Grupo 1208492" transform="translate(0)">
      <g id="Grupo_1177675" data-name="Grupo 1177675" transform="translate(0 0)">
        <g id="Grupo_1176928" data-name="Grupo 1176928" transform="translate(0 0)">
          <g id="Grupo_1172322" data-name="Grupo 1172322">
            <g id="Grupo_1164700" data-name="Grupo 1164700">
              <g id="Grupo_1160931" data-name="Grupo 1160931">
                <g id="Grupo_1160749" data-name="Grupo 1160749">
                  <g id="Grupo_1158891" data-name="Grupo 1158891">
                    <g id="Grupo_1157406" data-name="Grupo 1157406">
                      <g id="Grupo_1155793" data-name="Grupo 1155793">
                        <g id="Grupo_1154704" data-name="Grupo 1154704">
                          <g id="Grupo_1150790" data-name="Grupo 1150790">
                            <g id="Grupo_1154214" data-name="Grupo 1154214">
                              <g id="Grupo_1152583" data-name="Grupo 1152583">
                                <g id="Grupo_1146973" data-name="Grupo 1146973">
                                  <g id="Grupo_1146954" data-name="Grupo 1146954">
                                    <g transform="matrix(1, 0, 0, 1, -9, -6)" filter="url(#Trazado_982547)">
                                      <g id="Trazado_982547-2" data-name="Trazado 982547" transform="translate(9 6)" fill="#fef9e7">
                                        <path d="M 49.99995803833008 98.49976348876953 C 43.45184326171875 98.49976348876953 37.10039901733398 97.2176513671875 31.1220588684082 94.68901824951172 C 25.34690093994141 92.246337890625 20.15995788574219 88.74910736083984 15.70531558990479 84.29447937011719 C 11.25068664550781 79.83985137939453 7.753458023071289 74.65290832519531 5.31077241897583 68.87776184082031 C 2.782143831253052 62.89942169189453 1.500015139579773 56.54797744750977 1.500015139579773 49.9998779296875 C 1.500015139579773 43.45177841186523 2.782143831253052 37.10033416748047 5.31077241897583 31.12199211120605 C 7.753458023071289 25.34684944152832 11.25068664550781 20.15992164611816 15.70531558990479 15.70529174804688 C 20.15995788574219 11.25066375732422 25.34688568115234 7.753435134887695 31.1220588684082 5.310749530792236 C 37.10039901733398 2.782120704650879 43.45184326171875 1.500006556510925 49.99995803833008 1.500006556510925 C 56.54807281494141 1.500006556510925 62.89951705932617 2.782120704650879 68.87786865234375 5.310749530792236 C 74.65303039550781 7.753435134887695 79.83997344970703 11.25066375732422 84.29460144042969 15.70529174804688 C 88.74924468994141 20.15992164611816 92.24647521972656 25.34684944152832 94.68915557861328 31.12199211120605 C 97.21778869628906 37.10033416748047 98.49991607666016 43.45177841186523 98.49991607666016 49.9998779296875 C 98.49991607666016 56.54797744750977 97.21778869628906 62.89942169189453 94.68915557861328 68.87776184082031 C 92.24647521972656 74.65290832519531 88.74924468994141 79.83985137939453 84.29460144042969 84.29447937011719 C 79.83997344970703 88.74910736083984 74.65303039550781 92.246337890625 68.87786865234375 94.68901824951172 C 62.89951705932617 97.2176513671875 56.54807281494141 98.49976348876953 49.99995803833008 98.49976348876953 Z" stroke="none"/>
                                        <path d="M 49.99995803833008 3 C 43.65368270874023 3 37.49883651733398 4.24224853515625 31.70637512207031 6.692245483398438 C 26.11001586914062 9.059310913085938 21.08334350585938 12.44858551025391 16.76597595214844 16.76595306396484 C 12.44860076904297 21.08330535888672 9.059326171875 26.10997009277344 6.692268371582031 31.70632171630859 C 4.242263793945312 37.49877166748047 3.000007629394531 43.65361785888672 3.000007629394531 49.9998779296875 C 3.000007629394531 56.34613800048828 4.242263793945312 62.50098419189453 6.692268371582031 68.29343414306641 C 9.059326171875 73.88978576660156 12.44860076904297 78.91644287109375 16.76597595214844 83.23380279541016 C 21.08334350585938 87.55117034912109 26.11001586914062 90.94044494628906 31.70637512207031 93.30751037597656 C 37.49883651733398 95.75750732421875 43.65368270874023 96.999755859375 49.99995803833008 96.999755859375 C 56.34623336791992 96.999755859375 62.50107955932617 95.75750732421875 68.29354095458984 93.30751037597656 C 73.889892578125 90.94044494628906 78.91657257080078 87.55117034912109 83.23394012451172 83.23380279541016 C 87.55131530761719 78.91644287109375 90.94058990478516 73.88978576660156 93.30764770507812 68.29343414306641 C 95.75765228271484 62.50098419189453 96.99990844726562 56.34613800048828 96.99990844726562 49.9998779296875 C 96.99990844726562 43.65361785888672 95.75765228271484 37.49877166748047 93.30764770507812 31.70632171630859 C 90.94058990478516 26.10997009277344 87.55131530761719 21.08330535888672 83.23394012451172 16.76595306396484 C 78.91657257080078 12.44858551025391 73.889892578125 9.059310913085938 68.29354095458984 6.692245483398438 C 62.50107955932617 4.24224853515625 56.34623336791992 3 49.99995803833008 3 M 49.99995803833008 0 C 77.61415863037109 0 99.99990844726562 22.38571166992188 99.99990844726562 49.9998779296875 C 99.99990844726562 77.61404418945312 77.61415863037109 99.999755859375 49.99995803833008 99.999755859375 C 22.38575744628906 99.999755859375 7.62939453125e-06 77.61404418945312 7.62939453125e-06 49.9998779296875 C 7.62939453125e-06 22.38571166992188 22.38575744628906 0 49.99995803833008 0 Z" stroke="none" fill="#f8ce24"/>
                                      </g>
                                    </g>
                                  </g>
                                </g>
                              </g>
                            </g>
                          </g>
                        </g>
                      </g>
                    </g>
                  </g>
                </g>
              </g>
            </g>
          </g>
        </g>
      </g>
    </g>
    <g id="risk-assessment_13089619" transform="translate(4.555 0.361)">
      <path id="Trazado_1048136" data-name="Trazado 1048136" d="M57.941,23.619h8.005a.982.982,0,0,1,.982.982V35.073a11.219,11.219,0,0,1,1.154,9.846l2.984,1.971.085-.129a.98.98,0,0,1,1.358-.276l6.6,4.357a3.809,3.809,0,0,1-4.2,6.355l-6.6-4.357a.98.98,0,0,1-.276-1.358l.084-.127-1.189-.785V64.114l.837,1.45v0l4.826,8.36h0a3.852,3.852,0,0,1-3.342,5.793H66.928v1.99a.982.982,0,0,1-.982.982H21.854a.982.982,0,0,1-.982-.982V77.66h-3.88a.982.982,0,0,1-.982-.982V19.568a.982.982,0,0,1,.982-.982H52.5a.979.979,0,0,1,.7.293Z" fill="#121209" fill-rule="evenodd"/>
      <path id="Trazado_1048137" data-name="Trazado 1048137" d="M272.1,121.479a.963.963,0,0,1-.072-.1,9.219,9.219,0,0,0-2.478-2.407h0a9.269,9.269,0,0,0-1.823-.933.984.984,0,0,1-.116-.043,9.23,9.23,0,0,0-10.847,3.594l0,0a9.226,9.226,0,0,0,2.618,12.784l0,0a9.232,9.232,0,0,0,8.216.979.978.978,0,0,1,.141-.052,9.191,9.191,0,0,0,4.426-3.545h0a9.235,9.235,0,0,0-.068-10.273Zm-14.028.966a7.663,7.663,0,0,1,12.788,8.448l-.06.09,0,0a7.665,7.665,0,0,1-10.555,2.077l-.09-.06,0,0A7.666,7.666,0,0,1,258.074,122.445Z" transform="translate(-206.927 -85.505)" fill="#fccb68" fill-rule="evenodd"/>
      <path id="Trazado_1048138" data-name="Trazado 1048138" d="M346.179,77.617V70.409H341.12l1.874,1.874a.979.979,0,0,1,.288.694v2.779a11.264,11.264,0,0,1,1.64.9l.09.06,0,0A11.239,11.239,0,0,1,346.179,77.617Z" transform="translate(-281.215 -44.826)" fill="#9b999c" fill-rule="evenodd"/>
      <path id="Trazado_1048139" data-name="Trazado 1048139" d="M389.7,228.153q.039.024.076.052l2.657,1.755.789-1.2-2.734-1.806q-.177.309-.376.611l-.06.09,0,0Q389.881,227.915,389.7,228.153Z" transform="translate(-323.237 -180.241)" fill="#f7ad4c" fill-rule="evenodd"/>
      <path id="Trazado_1048140" data-name="Trazado 1048140" d="M270.269,312.534a.981.981,0,0,1-.07-.12l-3.821-6.618v0a1.911,1.911,0,0,0-.616-.656.955.955,0,0,1-.109-.068,2.021,2.021,0,0,0-1.877.019v0a1.9,1.9,0,0,0-.692.707l-4.828,8.362h0l-1.547,2.679c-.01.018-.02.036-.031.054l-3.248,5.627a1.9,1.9,0,0,0-.262.953,1.835,1.835,0,0,0,.065.482.942.942,0,0,1,.032.1,2.017,2.017,0,0,0,.164.363h0a1.816,1.816,0,0,0,1.647.949h19.312a1.887,1.887,0,0,0,1.647-2.847v0l-4.827-8.36h0l-.938-1.624Zm-4.555,9.715a.982.982,0,1,1-1.964,0h0a.982.982,0,0,1,1.964,0Zm0-3.458a.982.982,0,0,1-1.964,0v-7.337a.982.982,0,1,1,1.964,0Z" transform="translate(-205.137 -247.612)" fill="#da9a0a" fill-rule="evenodd"/>
      <path id="Trazado_1048141" data-name="Trazado 1048141" d="M301.452,312.534a.988.988,0,0,1-.07-.12l-3.821-6.618v0a1.91,1.91,0,0,0-.616-.656.961.961,0,0,1-.109-.068,2.021,2.021,0,0,0-1.877.019v0a1.9,1.9,0,0,0-.692.707l-4.828,8.362h0l-.222.385a32.319,32.319,0,0,0,5.717.773v-3.861a.982.982,0,0,1,1.964,0v3.891a32.427,32.427,0,0,0,5.827-.611l-.333-.576h0Z" transform="translate(-236.32 -247.612)" fill="#f0ac29" fill-rule="evenodd"/>
      <g id="Grupo_1209502" data-name="Grupo 1209502" transform="translate(22.836 21.939)">
        <path id="Trazado_1048142" data-name="Trazado 1048142" d="M360.03,259.007V247.831a11.129,11.129,0,0,1-2.9,1.859v4.762A3.939,3.939,0,0,1,358,255.5h0Z" transform="translate(-317.902 -220.233)" fill="#9b999c" fill-rule="evenodd"/>
        <path id="Trazado_1048143" data-name="Trazado 1048143" d="M66.564,456.136V459.2h42.128V458.2H93.667a3.813,3.813,0,0,1-3.342-1.931v0c-.024-.041-.047-.083-.069-.125Z" transform="translate(-66.564 -400.415)" fill="#9b999c" fill-rule="evenodd"/>
        <path id="Trazado_1048144" data-name="Trazado 1048144" d="M293.563,43.421v5.23h5.23l-1.869-1.869-.01-.01Z" transform="translate(-262.915 -43.421)" fill="#9b999c" fill-rule="evenodd"/>
      </g>
      <path id="Trazado_1048145" data-name="Trazado 1048145" d="M72.684,41.717h-7.6a.982.982,0,0,1-.982-.982v-7.6H30.556V88.28H58.651a3.862,3.862,0,0,1,.527-1.766l2.42-4.191-8.214-.009a.978.978,0,1,1,0-1.956l9.343.01,1.279-2.216v0l.589-1.019-11.211-.012a.978.978,0,1,1,0-1.956l12.34.013,3.111-5.388a3.837,3.837,0,0,1,1.406-1.42h0a3.838,3.838,0,0,1,1.933-.511,4.016,4.016,0,0,1,.508.032v-3.25q-.16.038-.321.071a11.154,11.154,0,0,1-8.408-1.625l-.09-.06,0,0q-.213-.144-.417-.3l-10.062-.011a.978.978,0,1,1,0-1.956l8.022.009a11.226,11.226,0,0,1-2.471-7.251l-5.552-.006a.978.978,0,1,1,0-1.956l5.763.006a11.124,11.124,0,0,1,1.191-3.24l-6.953-.008a.978.978,0,1,1,0-1.956l8.329.009a11.209,11.209,0,0,1,10.971-3.51V41.718ZM66.957,65.971a.978.978,0,1,1,0,1.956l-13.573-.015a.978.978,0,1,1,0-1.956ZM47.66,74.28l.232-.2a.977.977,0,0,1,1.258,1.5l-1.49,1.255v7.107a.982.982,0,0,1-.982.982h-10.4a.982.982,0,0,1-.982-.982v-10.4a.982.982,0,0,1,.982-.982h10.4a.982.982,0,0,1,.982.982Zm0-14.4.232-.2a.977.977,0,0,1,1.258,1.5l-1.49,1.255V69.54a.982.982,0,0,1-.982.982h-10.4a.982.982,0,0,1-.982-.982v-10.4a.982.982,0,0,1,.982-.982h10.4a.982.982,0,0,1,.982.982Zm0-14.4.232-.2a.977.977,0,1,1,1.258,1.5l-1.49,1.255v7.107a.982.982,0,0,1-.982.982h-10.4a.982.982,0,0,1-.982-.982v-10.4a.982.982,0,0,1,.982-.982H46.678a.982.982,0,0,1,.982.982Z" transform="translate(-12.581 -12.584)" fill="#f0eef0" fill-rule="evenodd"/>
      <path id="Trazado_1048146" data-name="Trazado 1048146" d="M137.59,41.717h-7.6a.982.982,0,0,1-.982-.982v-7.6H108.953a32.07,32.07,0,0,0-3.36,10.626h5.991a.982.982,0,0,1,.982.982v.733l.232-.2a.977.977,0,1,1,1.258,1.5l-1.49,1.255v7.107a.982.982,0,0,1-.982.982h-5.256q.267,1.036.6,2.044h4.654a.982.982,0,0,1,.982.982v.733l.232-.2a.977.977,0,0,1,1.258,1.5l-1.49,1.255v6a32.451,32.451,0,0,0,7.512,6.729l10.551.012,3.111-5.388a3.837,3.837,0,0,1,1.406-1.42h0a3.838,3.838,0,0,1,1.933-.511,4.01,4.01,0,0,1,.508.032v-3.25q-.16.038-.321.071a11.154,11.154,0,0,1-8.408-1.625l-.09-.06,0,0q-.213-.144-.417-.3l-10.062-.011a.978.978,0,1,1,0-1.956l8.022.009a11.226,11.226,0,0,1-2.471-7.251l-5.552-.006a.978.978,0,1,1,0-1.956l5.763.006a11.124,11.124,0,0,1,1.191-3.24l-6.953-.008a.978.978,0,1,1,0-1.956l8.329.009a11.209,11.209,0,0,1,10.971-3.51V41.718ZM128.423,79l.489-.847v0l.589-1.019-5.939-.006A32.075,32.075,0,0,0,128.423,79Zm3.44-13.029a.978.978,0,1,1,0,1.956l-13.573-.015a.978.978,0,1,1,0-1.956Z" transform="translate(-77.487 -12.584)" fill="#fff" fill-rule="evenodd"/>
      <path id="Trazado_1048147" data-name="Trazado 1048147" d="M81.432,130.486a.977.977,0,0,1,1.22-1.527l2.381,1.905,3.647-3.072v-1.4H80.249v8.431h8.432v-4.471l-3,2.528a.978.978,0,0,1-1.239.015Z" transform="translate(-55.565 -93.247)" fill="#528948" fill-rule="evenodd"/>
      <path id="Trazado_1048148" data-name="Trazado 1048148" d="M103.507,129.557l1.635,1.308,3.647-3.072v-1.4H103.58c-.054.766-.084,1.538-.084,2.318q0,.427.011.851Zm.569,5.262q-.248-1.292-.392-2.618l.863.691a.977.977,0,0,0,1.239-.015l3-2.528v4.471Z" transform="translate(-75.673 -93.248)" fill="#5fa26d" fill-rule="evenodd"/>
      <path id="Trazado_1048149" data-name="Trazado 1048149" d="M81.432,237.161a.977.977,0,1,1,1.22-1.527l2.381,1.905,3.647-3.072v-1.4H80.249v8.431h8.432v-4.47l-3,2.528a.977.977,0,0,1-1.239.015Z" transform="translate(-55.565 -185.52)" fill="#528948" fill-rule="evenodd"/>
      <path id="Trazado_1048150" data-name="Trazado 1048150" d="M122.124,235.866l1.661-1.4v-1.4h-2.952q.581,1.437,1.292,2.8Zm1.66,2.826v-1.668l-.687.579q.333.552.688,1.089Z" transform="translate(-90.669 -185.52)" fill="#5fa26d" fill-rule="evenodd"/>
      <path id="Trazado_1048151" data-name="Trazado 1048151" d="M81.432,343.836a.977.977,0,0,1,1.22-1.527l2.381,1.905,3.647-3.072v-1.4H80.249v8.431h8.432V343.7l-3,2.529a.977.977,0,0,1-1.239.015Z" transform="translate(-55.565 -277.793)" fill="#528948" fill-rule="evenodd"/>
      <path id="Trazado_1048152" data-name="Trazado 1048152" d="M419.466,241.327l-2.039,3.086,5.783,3.819a1.849,1.849,0,1,0,2.037-3.088Z" transform="translate(-347.22 -192.668)" fill="#f7ad4c" fill-rule="evenodd"/>
      <path id="Trazado_1048153" data-name="Trazado 1048153" d="M285.915,143.675a5.7,5.7,0,0,0-2,10.349h0a5.7,5.7,0,0,0,7.9-1.619h0a5.7,5.7,0,0,0-5.9-8.73Z" transform="translate(-229.518 -108.1)" fill="#d7ebf9" fill-rule="evenodd"/>
    </g>
  </g>
</svg>
