<svg xmlns="http://www.w3.org/2000/svg" xmlns:xlink="http://www.w3.org/1999/xlink" width="108" height="108" viewBox="0 0 108 108">
  <defs>
    <filter id="Trazado_904820" x="0" y="0" width="108" height="108" filterUnits="userSpaceOnUse">
      <feOffset dy="3" input="SourceAlpha"/>
      <feGaussianBlur stdDeviation="3" result="blur"/>
      <feFlood flood-opacity="0.161"/>
      <feComposite operator="in" in2="blur"/>
      <feComposite in="SourceGraphic"/>
    </filter>
  </defs>
  <g id="Grupo_1209983" data-name="Grupo 1209983" transform="translate(-200 -485)">
    <g id="Grupo_1206197" data-name="Grupo 1206197" transform="translate(0 -277)">
      <g id="Grupo_1202705" data-name="Grupo 1202705" transform="translate(209 768)">
        <g id="Grupo_1173585" data-name="Grupo 1173585" transform="translate(0 0)">
          <g id="Grupo_1173428" data-name="Grupo 1173428">
            <g id="Grupo_1171958" data-name="Grupo 1171958">
              <g id="Grupo_1167341" data-name="Grupo 1167341">
                <g id="Grupo_1166792" data-name="Grupo 1166792">
                  <g transform="matrix(1, 0, 0, 1, -9, -6)" filter="url(#Trazado_904820)">
                    <g id="Trazado_904820-2" data-name="Trazado 904820" transform="translate(9 6)" fill="#edf5fb">
                      <path d="M 44.99999618530273 88.50002288818359 C 39.12687301635742 88.50002288818359 33.43022155761719 87.35009765625 28.06829643249512 85.08218383789062 C 22.88852119445801 82.89133453369141 18.23629570007324 79.75460815429688 14.24084663391113 75.75916290283203 C 10.24540901184082 71.76371002197266 7.108683586120605 67.11148834228516 4.917821407318115 61.93171310424805 C 2.649921178817749 56.56978607177734 1.499996185302734 50.87313461303711 1.499996185302734 45.0000114440918 C 1.499996185302734 39.12688827514648 2.649921178817749 33.43023681640625 4.917821407318115 28.06829833984375 C 7.108683586120605 22.88852310180664 10.24540901184082 18.2363109588623 14.24084663391113 14.2408618927002 C 18.23629570007324 10.24541187286377 22.88852119445801 7.108686447143555 28.06829643249512 4.917823791503906 C 33.43022155761719 2.649924039840698 39.12687301635742 1.499998927116394 44.99999618530273 1.499998927116394 C 50.87311935424805 1.499998927116394 56.56977081298828 2.649924039840698 61.93169784545898 4.917823791503906 C 67.11147308349609 7.108686447143555 71.76369476318359 10.24541187286377 75.75914764404297 14.2408618927002 C 79.75458526611328 18.2363109588623 82.89131164550781 22.88852310180664 85.08216857910156 28.06829833984375 C 87.35007476806641 33.43023681640625 88.5 39.12688827514648 88.5 45.0000114440918 C 88.5 50.87313461303711 87.35007476806641 56.56978607177734 85.08216857910156 61.93171310424805 C 82.89131164550781 67.11148834228516 79.75458526611328 71.76371002197266 75.75914764404297 75.75916290283203 C 71.76369476318359 79.75460815429688 67.11147308349609 82.89133453369141 61.93169784545898 85.08218383789062 C 56.56977081298828 87.35009765625 50.87311935424805 88.50002288818359 44.99999618530273 88.50002288818359 Z" stroke="none"/>
                      <path d="M 44.99999618530273 3 C 39.32870864868164 3 33.82865142822266 4.110054016113281 28.65262603759766 6.299339294433594 C 23.65165710449219 8.414566040039062 19.15968322753906 11.44333648681641 15.301513671875 15.30152893066406 C 11.44333648681641 19.15969848632812 8.414566040039062 23.65165710449219 6.299339294433594 28.65264129638672 C 4.110054016113281 33.82866668701172 2.999992370605469 39.3287239074707 2.999992370605469 45.0000114440918 C 2.999992370605469 50.67129898071289 4.110054016113281 56.17135620117188 6.299339294433594 61.34738159179688 C 8.414566040039062 66.34836578369141 11.44333648681641 70.84032440185547 15.301513671875 74.69849395751953 C 19.15968322753906 78.55668640136719 23.65165710449219 81.58545684814453 28.65262603759766 83.70068359375 C 33.82865142822266 85.88996887207031 39.32870864868164 87.00002288818359 44.99999618530273 87.00002288818359 C 50.67128372192383 87.00002288818359 56.17134094238281 85.88996887207031 61.34736633300781 83.70068359375 C 66.34834289550781 81.58545684814453 70.84030914306641 78.55668640136719 74.69847869873047 74.69849395751953 C 78.55665588378906 70.84032440185547 81.58542633056641 66.34836578369141 83.70065307617188 61.34738159179688 C 85.88993835449219 56.17135620117188 87 50.67129898071289 87 45.0000114440918 C 87 39.3287239074707 85.88993835449219 33.82866668701172 83.70065307617188 28.65264129638672 C 81.58542633056641 23.65165710449219 78.55665588378906 19.15969848632812 74.69847869873047 15.30152893066406 C 70.84030914306641 11.44333648681641 66.34834289550781 8.414566040039062 61.34736633300781 6.299339294433594 C 56.17134094238281 4.110054016113281 50.67128372192383 3 44.99999618530273 3 M 44.99999618530273 0 C 69.85281372070312 0 90 20.14719390869141 90 45.0000114440918 C 90 69.85282897949219 69.85281372070312 90.00002288818359 44.99999618530273 90.00002288818359 C 20.14717864990234 90.00002288818359 -7.62939453125e-06 69.85282897949219 -7.62939453125e-06 45.0000114440918 C -7.62939453125e-06 20.14719390869141 20.14717864990234 0 44.99999618530273 0 Z" stroke="none" fill="#56a8dd"/>
                    </g>
                  </g>
                </g>
              </g>
            </g>
          </g>
        </g>
      </g>
    </g>
    <g id="factory_2092137" transform="translate(223 506.16)">
      <path id="Trazado_1049159" data-name="Trazado 1049159" d="M21.09,34.985,19.667,25h-11L4.333,50.984H23.379Z" transform="translate(-0.168 -1.656)" fill="#939598"/>
      <path id="Trazado_1049160" data-name="Trazado 1049160" d="M19.208,19H9.928L9,24.568H20Z" transform="translate(-0.504 -1.224)" fill="#ffcd00"/>
      <path id="Trazado_1049161" data-name="Trazado 1049161" d="M4.237,53,3,60.424H24.344L23.283,53Z" transform="translate(-0.072 -3.671)" fill="#58595b"/>
      <path id="Trazado_1049162" data-name="Trazado 1049162" d="M8.664,25,4.333,50.984H7.117L11.448,25Z" transform="translate(-0.168 -1.656)" fill="#808285"/>
      <path id="Trazado_1049163" data-name="Trazado 1049163" d="M9.928,19,9,24.568h2.784L12.712,19Z" transform="translate(-0.504 -1.224)" fill="#ebbf00"/>
      <path id="Trazado_1049164" data-name="Trazado 1049164" d="M4.237,53,3,60.424H5.784L7.021,53Z" transform="translate(-0.072 -3.671)" fill="#414042"/>
      <path id="Trazado_1049165" data-name="Trazado 1049165" d="M58.221,27V58.552H25.74l-1.058-7.424-2.292-16L34.092,27v8.352L46.156,27v8.352Z" transform="translate(-1.468 -1.8)" fill="#ffcd00"/>
      <path id="Trazado_1049166" data-name="Trazado 1049166" d="M28.291,54.661,25.2,33.655,22.39,35.6l2.292,16,1.058,7.424h32.48V56.247H30.127a1.856,1.856,0,0,1-1.836-1.586Z" transform="translate(-1.468 -2.279)" fill="#ebbf00"/>
      <g id="Grupo_1209982" data-name="Grupo 1209982" transform="translate(27.056 40.048)">
        <path id="Trazado_1049167" data-name="Trazado 1049167" d="M49,43h5.568v5.568H49Z" transform="translate(-30.44 -43)" fill="#ff3051"/>
        <path id="Trazado_1049168" data-name="Trazado 1049168" d="M39,43h5.568v5.568H39Z" transform="translate(-29.72 -43)" fill="#ff3051"/>
        <path id="Trazado_1049169" data-name="Trazado 1049169" d="M29,43h5.568v5.568H29Z" transform="translate(-29 -43)" fill="#ff3051"/>
      </g>
      <path id="Trazado_1049170" data-name="Trazado 1049170" d="M54.6,15.208a3,3,0,0,1-.223.538l2.2,2.2-2.626,2.626-2.2-2.2a3,3,0,0,1-.538.223V21.7H47.5V18.6a3,3,0,0,1-.538-.223l-2.2,2.2-2.626-2.626,2.2-2.2a3,3,0,0,1-.223-.538H41V11.5h3.109a3,3,0,0,1,.223-.538l-2.2-2.2,2.626-2.626,2.2,2.2a3,3,0,0,1,.538-.223V5h3.712V8.109a3,3,0,0,1,.538.223l2.2-2.2,2.626,2.626-2.2,2.2a3,3,0,0,1,.223.538H57.7v3.712Z" transform="translate(-2.808 -0.216)" fill="#ffb655"/>
      <circle id="Elipse_12702" data-name="Elipse 12702" cx="2.5" cy="2.5" r="2.5" transform="translate(44 10.681)" fill="#ff3051"/>
      <path id="Trazado_1049171" data-name="Trazado 1049171" d="M54.5,49.424H48.928A.928.928,0,0,1,48,48.5V42.928A.928.928,0,0,1,48.928,42H54.5a.928.928,0,0,1,.928.928V48.5A.928.928,0,0,1,54.5,49.424Zm-4.64-1.856h3.712V43.856H49.856Z" transform="translate(-3.311 -2.88)"/>
      <path id="Trazado_1049172" data-name="Trazado 1049172" d="M44.5,49.424H38.928A.928.928,0,0,1,38,48.5V42.928A.928.928,0,0,1,38.928,42H44.5a.928.928,0,0,1,.928.928V48.5A.928.928,0,0,1,44.5,49.424Zm-4.64-1.856h3.712V43.856H39.856Z" transform="translate(-2.592 -2.88)"/>
      <path id="Trazado_1049173" data-name="Trazado 1049173" d="M12.928,14.992A.928.928,0,0,1,12,14.064V11.28a4.646,4.646,0,0,1,4.64-4.64h5.568a2.784,2.784,0,0,0,2.784-2.784V2.928a.928.928,0,0,1,1.856,0v.928a4.646,4.646,0,0,1-4.64,4.64H16.64a2.784,2.784,0,0,0-2.784,2.784v2.784A.928.928,0,0,1,12.928,14.992Z" transform="translate(-0.72)"/>
      <path id="Trazado_1049174" data-name="Trazado 1049174" d="M16.928,15.208A.928.928,0,0,1,16,14.28v-.928a2.784,2.784,0,0,1,2.784-2.784h5.568a4.646,4.646,0,0,0,4.64-4.64.928.928,0,1,1,1.856,0,6.5,6.5,0,0,1-6.5,6.5H18.784a.928.928,0,0,0-.928.928v.928A.928.928,0,0,1,16.928,15.208Z" transform="translate(-1.008 -0.216)"/>
      <path id="Trazado_1049175" data-name="Trazado 1049175" d="M51.136,22.56H47.424a.928.928,0,0,1-.928-.928V20l-1.154,1.154a.928.928,0,0,1-1.312,0L41.4,18.53a.928.928,0,0,1,0-1.312l1.154-1.154h-1.63A.928.928,0,0,1,40,15.136V11.424a.928.928,0,0,1,.928-.928h1.63L41.4,9.343a.928.928,0,0,1,0-1.312L44.03,5.4a.928.928,0,0,1,1.312,0L46.5,6.558V4.928A.928.928,0,0,1,47.424,4h3.712a.928.928,0,0,1,.928.928v1.63L53.218,5.4a.928.928,0,0,1,1.312,0L57.156,8.03a.928.928,0,0,1,0,1.312L56,10.5h1.63a.928.928,0,0,1,.928.928v3.712a.928.928,0,0,1-.928.928H56l1.154,1.154a.928.928,0,0,1,0,1.312L54.53,21.156a.928.928,0,0,1-1.312,0L52.064,20v1.63a.928.928,0,0,1-.928.928ZM48.352,20.7h1.856V18.523a.928.928,0,0,1,.662-.889,2.14,2.14,0,0,0,.371-.156.928.928,0,0,1,1.087.166l1.543,1.543,1.314-1.314L53.642,16.33a.928.928,0,0,1-.166-1.087,2.073,2.073,0,0,0,.157-.377.928.928,0,0,1,.891-.659H56.7V12.352H54.523a.928.928,0,0,1-.888-.659,2.073,2.073,0,0,0-.157-.377.928.928,0,0,1,.166-1.087l1.543-1.543L53.874,7.372,52.33,8.918a.928.928,0,0,1-1.087.166,2.14,2.14,0,0,0-.371-.156.928.928,0,0,1-.664-.892V5.856H48.352V8.037a.928.928,0,0,1-.662.889,2.14,2.14,0,0,0-.371.156.928.928,0,0,1-1.089-.163L44.686,7.372,43.372,8.686l1.546,1.543a.928.928,0,0,1,.166,1.087,2.073,2.073,0,0,0-.157.377.928.928,0,0,1-.888.659H41.856v1.856h2.181a.928.928,0,0,1,.888.659,2.073,2.073,0,0,0,.157.377.928.928,0,0,1-.166,1.087l-1.543,1.543,1.314,1.314,1.543-1.546a.928.928,0,0,1,1.087-.166,2.14,2.14,0,0,0,.371.156.928.928,0,0,1,.664.892Z" transform="translate(-2.736 -0.144)"/>
      <path id="Trazado_1049176" data-name="Trazado 1049176" d="M49.712,17.424a3.712,3.712,0,1,1,3.712-3.712A3.712,3.712,0,0,1,49.712,17.424Zm0-5.568a1.856,1.856,0,1,0,1.856,1.856A1.856,1.856,0,0,0,49.712,11.856Z" transform="translate(-3.167 -0.576)"/>
      <path id="Trazado_1049177" data-name="Trazado 1049177" d="M57.183,25.53a.928.928,0,0,0-.959.059L45.617,32.933V26.352a.928.928,0,0,0-1.456-.763L33.552,32.933V26.352A.928.928,0,0,0,32.1,25.59L21.632,32.858,19.623,18.8A.928.928,0,0,0,18.7,18H9.424a.928.928,0,0,0-.915.775l-6.5,38.977a.928.928,0,0,0,.915,1.081H56.753a.928.928,0,0,0,.928-.928V26.352a.928.928,0,0,0-.5-.822Zm-47.9-.106h9.413l3.443,24.128H5.261ZM17.9,19.856l.53,3.712H9.591l.619-3.712ZM4.952,51.408H22.405l.8,5.568H4.024Zm50.873,5.568H25.078L21.923,34.914,31.7,28.126V34.7a.928.928,0,0,0,1.456.763l10.608-7.343V34.7a.928.928,0,0,0,1.456.763l10.608-7.343Z" transform="translate(0 -1.152)"/>
      <path id="Trazado_1049178" data-name="Trazado 1049178" d="M34.5,42H28.928a.928.928,0,0,0-.928.928V48.5a.928.928,0,0,0,.928.928H34.5a.928.928,0,0,0,.928-.928V42.928A.928.928,0,0,0,34.5,42Zm-.928,5.568H29.856V43.856h3.712Z" transform="translate(-1.872 -2.88)"/>
    </g>
  </g>
</svg>
