<svg xmlns="http://www.w3.org/2000/svg" xmlns:xlink="http://www.w3.org/1999/xlink" width="103" height="103" viewBox="0 0 103 103">
  <defs>
    <filter id="Trazado_904820" x="0" y="0" width="103" height="103" filterUnits="userSpaceOnUse">
      <feOffset dy="3" input="SourceAlpha"/>
      <feGaussianBlur stdDeviation="3" result="blur"/>
      <feFlood flood-opacity="0.161"/>
      <feComposite operator="in" in2="blur"/>
      <feComposite in="SourceGraphic"/>
    </filter>
  </defs>
  <g id="Grupo_1210002" data-name="Grupo 1210002" transform="translate(-185 -904)">
    <g id="Grupo_1209240" data-name="Grupo 1209240" transform="translate(-15 142)">
      <g id="Grupo_1202705" data-name="Grupo 1202705" transform="translate(209 768)">
        <g id="Grupo_1173585" data-name="Grupo 1173585" transform="translate(0 0)">
          <g id="Grupo_1173428" data-name="Grupo 1173428">
            <g id="Grupo_1171958" data-name="Grupo 1171958">
              <g id="Grupo_1167341" data-name="Grupo 1167341">
                <g id="Grupo_1166792" data-name="Grupo 1166792">
                  <g transform="matrix(1, 0, 0, 1, -9, -6)" filter="url(#Trazado_904820)">
                    <g id="Trazado_904820-2" data-name="Trazado 904820" transform="translate(9 6)" fill="#fef9e7">
                      <path d="M 42.49999618530273 83.50002288818359 C 36.96437454223633 83.50002288818359 31.59512519836426 82.41619873046875 26.54140853881836 80.27865600585938 C 21.65933799743652 78.21370697021484 17.27447891235352 75.25724792480469 13.50861930847168 71.49138641357422 C 9.742773056030273 67.72554016113281 6.786302089691162 63.34067153930664 4.721360683441162 58.45859909057617 C 2.583819627761841 53.40488052368164 1.499996185302734 48.0356330871582 1.499996185302734 42.5000114440918 C 1.499996185302734 36.96438980102539 2.583819627761841 31.59514045715332 4.721360683441162 26.54142379760742 C 6.786302089691162 21.65933990478516 9.742773056030273 17.27448272705078 13.50861930847168 13.50862312316895 C 17.27447891235352 9.742775917053223 21.65933799743652 6.78630542755127 26.54140853881836 4.721364498138428 C 31.59512519836426 2.583823204040527 36.96437454223633 1.499999642372131 42.49999618530273 1.499999642372131 C 48.03561782836914 1.499999642372131 53.40486526489258 2.583823204040527 58.45858383178711 4.721364498138428 C 63.34065628051758 6.78630542755127 67.72551727294922 9.742775917053223 71.49137115478516 13.50862312316895 C 75.25721740722656 17.27448272705078 78.21369171142578 21.65933990478516 80.27863311767578 26.54142379760742 C 82.41617584228516 31.59514045715332 83.5 36.96438980102539 83.5 42.5000114440918 C 83.5 48.0356330871582 82.41617584228516 53.40488052368164 80.27863311767578 58.45859909057617 C 78.21369171142578 63.34067153930664 75.25721740722656 67.72554016113281 71.49137115478516 71.49138641357422 C 67.72551727294922 75.25724792480469 63.34065628051758 78.21370697021484 58.45858383178711 80.27865600585938 C 53.40486526489258 82.41619873046875 48.03561782836914 83.50002288818359 42.49999618530273 83.50002288818359 Z" stroke="none"/>
                      <path d="M 42.49999618530273 3 C 37.16621017456055 3 31.99356842041016 4.043960571289062 27.1257438659668 6.102874755859375 C 22.42246246337891 8.092201232910156 18.19786071777344 10.94070434570312 14.56927490234375 14.56929016113281 C 10.94070434570312 18.19786834716797 8.092185974121094 22.42246627807617 6.102874755859375 27.1257438659668 C 4.043952941894531 31.99357223510742 2.999992370605469 37.16622543334961 2.999992370605469 42.5000114440918 C 2.999992370605469 47.83379745483398 4.043952941894531 53.00645065307617 6.102874755859375 57.8742790222168 C 8.092185974121094 62.57754516601562 10.94070434570312 66.80214691162109 14.56927490234375 70.43073272705078 C 18.19786071777344 74.05931854248047 22.42246246337891 76.90782165527344 27.1257438659668 78.89714813232422 C 31.99356842041016 80.95606231689453 37.16621017456055 82.00002288818359 42.49999618530273 82.00002288818359 C 47.83378219604492 82.00002288818359 53.00642395019531 80.95606231689453 57.87425231933594 78.89714813232422 C 62.57752990722656 76.90782165527344 66.80213165283203 74.05931854248047 70.43071746826172 70.43073272705078 C 74.05928802490234 66.80214691162109 76.90780639648438 62.57754516601562 78.89711761474609 57.8742790222168 C 80.95603942871094 53.00645065307617 82 47.83379745483398 82 42.5000114440918 C 82 37.16622543334961 80.95603942871094 31.99357223510742 78.89711761474609 27.1257438659668 C 76.90780639648438 22.42246627807617 74.05928802490234 18.19786834716797 70.43071746826172 14.56929016113281 C 66.80213165283203 10.94070434570312 62.57752990722656 8.092201232910156 57.87425231933594 6.102874755859375 C 53.00642395019531 4.043960571289062 47.83378219604492 3 42.49999618530273 3 M 42.49999618530273 0 C 65.97209167480469 0 85 19.02790832519531 85 42.5000114440918 C 85 65.97210693359375 65.97209167480469 85.00002288818359 42.49999618530273 85.00002288818359 C 19.02790069580078 85.00002288818359 -7.62939453125e-06 65.97210693359375 -7.62939453125e-06 42.5000114440918 C -7.62939453125e-06 19.02790832519531 19.02790069580078 0 42.49999618530273 0 Z" stroke="none" fill="#887013"/>
                    </g>
                  </g>
                </g>
              </g>
            </g>
          </g>
        </g>
      </g>
    </g>
    <g id="weakness_4365394" transform="translate(207 923)">
      <g id="Grupo_1210000" data-name="Grupo 1210000" transform="translate(0.935 0.935)">
        <g id="Grupo_1209984" data-name="Grupo 1209984" transform="translate(0 33.677)">
          <path id="Trazado_1049179" data-name="Trazado 1049179" d="M8.484,38.871V50.1a1.871,1.871,0,0,1-1.871,1.871H1V37H6.613a1.871,1.871,0,0,1,1.871,1.871Z" transform="translate(-1 -37)" fill="#b4dd7f"/>
        </g>
        <g id="Grupo_1209985" data-name="Grupo 1209985" transform="translate(48.645 36.484)">
          <path id="Trazado_1049180" data-name="Trazado 1049180" d="M53,40h3.742V56.839H53Z" transform="translate(-53 -40)" fill="#ff826e"/>
        </g>
        <g id="Grupo_1209986" data-name="Grupo 1209986" transform="translate(41.161 40.226)">
          <path id="Trazado_1049181" data-name="Trazado 1049181" d="M45,44h3.742V57.1H45Z" transform="translate(-45 -44)" fill="#ff826e"/>
        </g>
        <g id="Grupo_1209987" data-name="Grupo 1209987" transform="translate(33.677 43.968)">
          <path id="Trazado_1049182" data-name="Trazado 1049182" d="M37,48h3.742v9.355H37Z" transform="translate(-37 -48)" fill="#ff826e"/>
        </g>
        <g id="Grupo_1209988" data-name="Grupo 1209988" transform="translate(16.839 35.548)">
          <path id="Trazado_1049183" data-name="Trazado 1049183" d="M26.484,53.968V57.71a1.876,1.876,0,0,1-1.871,1.871H20.871A1.876,1.876,0,0,1,19,57.71V39h5.613a1.885,1.885,0,0,0-1.871,1.871,1.876,1.876,0,0,0,1.871,1.871,1.885,1.885,0,0,0-1.871,1.871,1.876,1.876,0,0,0,1.871,1.871,1.885,1.885,0,0,0-1.871,1.871,1.876,1.876,0,0,0,1.871,1.871A1.885,1.885,0,0,0,22.742,52.1a1.876,1.876,0,0,0,1.871,1.871Z" transform="translate(-19 -39)" fill="#969faa"/>
        </g>
        <g id="Grupo_1209989" data-name="Grupo 1209989" transform="translate(20.581 43.032)">
          <path id="Trazado_1049184" data-name="Trazado 1049184" d="M28.613,47a1.876,1.876,0,0,1,1.871,1.871,1.885,1.885,0,0,1-1.871,1.871H24.871A1.876,1.876,0,0,1,23,48.871,1.885,1.885,0,0,1,24.871,47Z" transform="translate(-23 -47)" fill="#f0d0b4"/>
        </g>
        <g id="Grupo_1209990" data-name="Grupo 1209990" transform="translate(20.581 46.774)">
          <path id="Trazado_1049185" data-name="Trazado 1049185" d="M28.613,51a1.876,1.876,0,0,1,1.871,1.871,1.885,1.885,0,0,1-1.871,1.871H24.871A1.876,1.876,0,0,1,23,52.871,1.885,1.885,0,0,1,24.871,51Z" transform="translate(-23 -51)" fill="#f0d0b4"/>
        </g>
        <g id="Grupo_1209991" data-name="Grupo 1209991" transform="translate(20.581 39.29)">
          <path id="Trazado_1049186" data-name="Trazado 1049186" d="M28.613,43a1.876,1.876,0,0,1,1.871,1.871,1.885,1.885,0,0,1-1.871,1.871H24.871A1.876,1.876,0,0,1,23,44.871,1.885,1.885,0,0,1,24.871,43Z" transform="translate(-23 -43)" fill="#f0d0b4"/>
        </g>
        <g id="Grupo_1209992" data-name="Grupo 1209992" transform="translate(20.581 35.548)">
          <path id="Trazado_1049187" data-name="Trazado 1049187" d="M28.613,39a1.876,1.876,0,0,1,1.871,1.871,1.885,1.885,0,0,1-1.871,1.871H24.871A1.876,1.876,0,0,1,23,40.871,1.885,1.885,0,0,1,24.871,39Z" transform="translate(-23 -39)" fill="#f0d0b4"/>
        </g>
        <g id="Grupo_1209993" data-name="Grupo 1209993" transform="translate(7.259 31.806)">
          <path id="Trazado_1049188" data-name="Trazado 1049188" d="M18.339,38.742V53.71h-2.6a7.453,7.453,0,0,1-3.854-1.066l-2.9-1.74-.225-.047a1.9,1.9,0,0,0,.225-.889V38.742a1.9,1.9,0,0,0-.225-.889l.225-.047,2.9-1.74A7.453,7.453,0,0,1,15.739,35H25.823a.938.938,0,0,1,.935.935,2.8,2.8,0,0,1-2.806,2.806Z" transform="translate(-8.76 -35)" fill="#f0d0b4"/>
        </g>
        <g id="Grupo_1209994" data-name="Grupo 1209994" transform="translate(39.01 5.632)">
          <path id="Trazado_1049189" data-name="Trazado 1049189" d="M59.239,15.626a2.68,2.68,0,0,1,0,3.33l-.477.589a21.423,21.423,0,0,1-7.446,5.922,21.2,21.2,0,0,1-8.616,2.1,10.293,10.293,0,0,0,0-20.543,21.367,21.367,0,0,1,16.062,8.017Z" transform="translate(-42.7 -7.02)" fill="#e6e9ed"/>
        </g>
        <g id="Grupo_1209995" data-name="Grupo 1209995" transform="translate(4.677)">
          <ellipse id="Elipse_12703" data-name="Elipse 12703" cx="15.5" cy="16" rx="15.5" ry="16" transform="translate(0.387 0.065)" fill="#fcd770"/>
        </g>
        <g id="Grupo_1209996" data-name="Grupo 1209996" transform="translate(8.419 3.742)">
          <ellipse id="Elipse_12704" data-name="Elipse 12704" cx="12.5" cy="12" rx="12.5" ry="12" transform="translate(-0.355 0.323)" fill="#69d6f4"/>
        </g>
        <g id="Grupo_1209997" data-name="Grupo 1209997" transform="translate(20.581 5.632)">
          <path id="Trazado_1049190" data-name="Trazado 1049190" d="M30.484,17.292a10.285,10.285,0,0,0,9.635,10.272,20.615,20.615,0,0,1-4.5-.617,19.914,19.914,0,0,1-3.779-1.328,21.171,21.171,0,0,1-7.783-6.071l-.477-.589a2.68,2.68,0,0,1,0-3.33l.477-.589A21.423,21.423,0,0,1,31.5,9.115c.112-.056.225-.1.337-.15L35.62,7.637a20.615,20.615,0,0,1,4.5-.617A10.285,10.285,0,0,0,30.484,17.292Z" transform="translate(-23 -7.02)" fill="#e6e9ed"/>
        </g>
        <g id="Grupo_1209998" data-name="Grupo 1209998" transform="translate(28.065 5.613)">
          <path id="Trazado_1049191" data-name="Trazado 1049191" d="M41.945,7.019a10.293,10.293,0,0,1,0,20.543c-.215.019-.44.019-.655.019s-.44,0-.655-.019a10.293,10.293,0,0,1,0-20.543C40.851,7,41.075,7,41.29,7s.44,0,.655.019Z" transform="translate(-31 -7)" fill="#69d6f4"/>
        </g>
        <g id="Grupo_1209999" data-name="Grupo 1209999" transform="translate(31.806 9.355)">
          <circle id="Elipse_12705" data-name="Elipse 12705" cx="6.5" cy="6.5" r="6.5" transform="translate(0.258 -0.29)" fill="#4fc1e9"/>
        </g>
      </g>
      <g id="Grupo_1210001" data-name="Grupo 1210001">
        <path id="Trazado_1049192" data-name="Trazado 1049192" d="M57.21,14.588,56.74,14A22.239,22.239,0,0,0,39.29,5.613a22.528,22.528,0,0,0-4.806.521A16.822,16.822,0,1,0,14.008,31.889a8.439,8.439,0,0,0-3.17,1.117l-2.383,1.43a2.791,2.791,0,0,0-1.907-.759H0V50.516H6.548a2.79,2.79,0,0,0,1.907-.759l2.384,1.43a8.421,8.421,0,0,0,4.331,1.2h1.669v2.806A2.81,2.81,0,0,0,19.645,58h3.742a2.81,2.81,0,0,0,2.806-2.806V52.387h.935a2.794,2.794,0,0,0,2.077-4.677,2.764,2.764,0,0,0,0-3.742,2.764,2.764,0,0,0,0-3.742,2.794,2.794,0,0,0-2.077-4.677h-.52a3.7,3.7,0,0,0,.52-1.871,1.848,1.848,0,0,0-.232-.883,16.757,16.757,0,0,0,7.588-5.251,22.529,22.529,0,0,0,4.806.521,22.239,22.239,0,0,0,17.45-8.387l.471-.589a3.6,3.6,0,0,0,0-4.5Zm-8.565,2.251A9.355,9.355,0,1,1,39.29,7.484,9.365,9.365,0,0,1,48.645,16.839ZM21.37,19.089l.471.588a22.343,22.343,0,0,0,6.891,5.741,11.081,11.081,0,0,1-7.215,2.646,11.226,11.226,0,0,1,0-22.452,11.077,11.077,0,0,1,7.214,2.646A22.343,22.343,0,0,0,21.84,14l-.471.589a3.6,3.6,0,0,0,0,4.5Zm1.932-.581-.471-.587a1.731,1.731,0,0,1,0-2.164l.471-.588A20.423,20.423,0,0,1,31.1,9.191a11.163,11.163,0,0,0,0,15.3A20.43,20.43,0,0,1,23.3,18.509ZM7.484,47.71a.936.936,0,0,1-.935.935H1.871v-13.1H6.548a.936.936,0,0,1,.935.935Zm16.839,7.484a.936.936,0,0,1-.935.935H19.645a.936.936,0,0,1-.935-.935V37.419h2.043a2.72,2.72,0,0,0,.558,2.806,2.764,2.764,0,0,0,0,3.742,2.764,2.764,0,0,0,0,3.742,2.794,2.794,0,0,0,2.077,4.677h.935Zm3.742-13.1a.936.936,0,0,1-.935.935H23.387a.935.935,0,1,1,0-1.871h3.742A.936.936,0,0,1,28.065,42.1Zm0,3.742a.936.936,0,0,1-.935.935H23.387a.935.935,0,1,1,0-1.871h3.742A.936.936,0,0,1,28.065,45.839Zm-.935,4.677H23.387a.935.935,0,1,1,0-1.871h3.742a.935.935,0,1,1,0,1.871Zm.935-12.161a.936.936,0,0,1-.935.935H23.387a.935.935,0,1,1,0-1.871h3.742A.936.936,0,0,1,28.065,38.355Zm-2.806-4.677a1.873,1.873,0,0,1-1.871,1.871H17.274L17,35.965a5.355,5.355,0,0,1-4.465,2.39h-.37v1.871h.37a7.211,7.211,0,0,0,4.308-1.434V50.516H15.17a6.558,6.558,0,0,1-3.37-.933L9.316,48.092a2.719,2.719,0,0,0,.039-.383V36.484a2.865,2.865,0,0,0-.038-.383L11.8,34.61a6.558,6.558,0,0,1,3.37-.933Zm-3.742-1.871a14.968,14.968,0,0,1,0-29.935,14.821,14.821,0,0,1,10.95,4.808c-.652.209-1.295.442-1.923.71a12.933,12.933,0,0,0-9.026-3.647,13.1,13.1,0,0,0,0,26.194,12.936,12.936,0,0,0,9.026-3.647c.629.267,1.271.5,1.923.71a14.824,14.824,0,0,1-10.95,4.807ZM55.749,17.92l-.471.588a20.423,20.423,0,0,1-7.794,5.978,11.163,11.163,0,0,0,0-15.3,20.412,20.412,0,0,1,7.794,5.978l.471.587a1.731,1.731,0,0,1,0,2.164Z"/>
        <path id="Trazado_1049193" data-name="Trazado 1049193" d="M41.484,24.968A7.484,7.484,0,1,0,34,17.484,7.493,7.493,0,0,0,41.484,24.968Zm0-13.1a5.613,5.613,0,1,1-5.613,5.613A5.619,5.619,0,0,1,41.484,11.871Z" transform="translate(-2.194 -0.645)"/>
        <circle id="Elipse_12706" data-name="Elipse 12706" cx="1" cy="1" r="1" transform="translate(38 20)"/>
        <path id="Trazado_1049194" data-name="Trazado 1049194" d="M41,13h1.871v6.548H41Z" transform="translate(-2.645 -0.839)"/>
        <path id="Trazado_1049195" data-name="Trazado 1049195" d="M56.452,39H50.839V55.839H48.968v-13.1H43.355v13.1H41.484V46.484H35.871v9.355H34V57.71H58.323V55.839H56.452ZM52.71,40.871h1.871V55.839H52.71Zm-7.484,3.742H47.1V55.839H45.226Zm-7.484,3.742h1.871v7.484H37.742Z" transform="translate(-2.194 -2.516)"/>
        <path id="Trazado_1049196" data-name="Trazado 1049196" d="M14.871,18H13a9.442,9.442,0,0,0,.231,2.078l1.825-.413A7.534,7.534,0,0,1,14.871,18Z" transform="translate(-0.839 -1.161)"/>
        <path id="Trazado_1049197" data-name="Trazado 1049197" d="M15.715,21.555l-1.675.834a9.307,9.307,0,0,0,8.382,5.2V25.713a7.445,7.445,0,0,1-6.706-4.158Z" transform="translate(-0.906 -1.391)"/>
      </g>
    </g>
  </g>
</svg>
