<svg xmlns="http://www.w3.org/2000/svg" xmlns:xlink="http://www.w3.org/1999/xlink" width="103" height="103" viewBox="0 0 103 103">
  <defs>
    <filter id="Trazado_904820" x="0" y="0" width="103" height="103" filterUnits="userSpaceOnUse">
      <feOffset dy="3" input="SourceAlpha"/>
      <feGaussianBlur stdDeviation="3" result="blur"/>
      <feFlood flood-opacity="0.161"/>
      <feComposite operator="in" in2="blur"/>
      <feComposite in="SourceGraphic"/>
    </filter>
  </defs>
  <g id="Grupo_1210023" data-name="Grupo 1210023" transform="translate(-500 -904)">
    <g id="Grupo_1209241" data-name="Grupo 1209241" transform="translate(300 142)">
      <g id="Grupo_1202705" data-name="Grupo 1202705" transform="translate(209 768)">
        <g id="Grupo_1173585" data-name="Grupo 1173585" transform="translate(0 0)">
          <g id="Grupo_1173428" data-name="Grupo 1173428">
            <g id="Grupo_1171958" data-name="Grupo 1171958">
              <g id="Grupo_1167341" data-name="Grupo 1167341">
                <g id="Grupo_1166792" data-name="Grupo 1166792">
                  <g transform="matrix(1, 0, 0, 1, -9, -6)" filter="url(#Trazado_904820)">
                    <g id="Trazado_904820-2" data-name="Trazado 904820" transform="translate(9 6)" fill="#fef9e7">
                      <path d="M 42.49999618530273 83.50002288818359 C 36.96437454223633 83.50002288818359 31.59512519836426 82.41619873046875 26.54140853881836 80.27865600585938 C 21.65933799743652 78.21370697021484 17.27447891235352 75.25724792480469 13.50861930847168 71.49138641357422 C 9.742773056030273 67.72554016113281 6.786302089691162 63.34067153930664 4.721360683441162 58.45859909057617 C 2.583819627761841 53.40488052368164 1.499996185302734 48.0356330871582 1.499996185302734 42.5000114440918 C 1.499996185302734 36.96438980102539 2.583819627761841 31.59514045715332 4.721360683441162 26.54142379760742 C 6.786302089691162 21.65933990478516 9.742773056030273 17.27448272705078 13.50861930847168 13.50862312316895 C 17.27447891235352 9.742775917053223 21.65933799743652 6.78630542755127 26.54140853881836 4.721364498138428 C 31.59512519836426 2.583823204040527 36.96437454223633 1.499999642372131 42.49999618530273 1.499999642372131 C 48.03561782836914 1.499999642372131 53.40486526489258 2.583823204040527 58.45858383178711 4.721364498138428 C 63.34065628051758 6.78630542755127 67.72551727294922 9.742775917053223 71.49137115478516 13.50862312316895 C 75.25721740722656 17.27448272705078 78.21369171142578 21.65933990478516 80.27863311767578 26.54142379760742 C 82.41617584228516 31.59514045715332 83.5 36.96438980102539 83.5 42.5000114440918 C 83.5 48.0356330871582 82.41617584228516 53.40488052368164 80.27863311767578 58.45859909057617 C 78.21369171142578 63.34067153930664 75.25721740722656 67.72554016113281 71.49137115478516 71.49138641357422 C 67.72551727294922 75.25724792480469 63.34065628051758 78.21370697021484 58.45858383178711 80.27865600585938 C 53.40486526489258 82.41619873046875 48.03561782836914 83.50002288818359 42.49999618530273 83.50002288818359 Z" stroke="none"/>
                      <path d="M 42.49999618530273 3 C 37.16621017456055 3 31.99356842041016 4.043960571289062 27.1257438659668 6.102874755859375 C 22.42246246337891 8.092201232910156 18.19786071777344 10.94070434570312 14.56927490234375 14.56929016113281 C 10.94070434570312 18.19786834716797 8.092185974121094 22.42246627807617 6.102874755859375 27.1257438659668 C 4.043952941894531 31.99357223510742 2.999992370605469 37.16622543334961 2.999992370605469 42.5000114440918 C 2.999992370605469 47.83379745483398 4.043952941894531 53.00645065307617 6.102874755859375 57.8742790222168 C 8.092185974121094 62.57754516601562 10.94070434570312 66.80214691162109 14.56927490234375 70.43073272705078 C 18.19786071777344 74.05931854248047 22.42246246337891 76.90782165527344 27.1257438659668 78.89714813232422 C 31.99356842041016 80.95606231689453 37.16621017456055 82.00002288818359 42.49999618530273 82.00002288818359 C 47.83378219604492 82.00002288818359 53.00642395019531 80.95606231689453 57.87425231933594 78.89714813232422 C 62.57752990722656 76.90782165527344 66.80213165283203 74.05931854248047 70.43071746826172 70.43073272705078 C 74.05928802490234 66.80214691162109 76.90780639648438 62.57754516601562 78.89711761474609 57.8742790222168 C 80.95603942871094 53.00645065307617 82 47.83379745483398 82 42.5000114440918 C 82 37.16622543334961 80.95603942871094 31.99357223510742 78.89711761474609 27.1257438659668 C 76.90780639648438 22.42246627807617 74.05928802490234 18.19786834716797 70.43071746826172 14.56929016113281 C 66.80213165283203 10.94070434570312 62.57752990722656 8.092201232910156 57.87425231933594 6.102874755859375 C 53.00642395019531 4.043960571289062 47.83378219604492 3 42.49999618530273 3 M 42.49999618530273 0 C 65.97209167480469 0 85 19.02790832519531 85 42.5000114440918 C 85 65.97210693359375 65.97209167480469 85.00002288818359 42.49999618530273 85.00002288818359 C 19.02790069580078 85.00002288818359 -7.62939453125e-06 65.97210693359375 -7.62939453125e-06 42.5000114440918 C -7.62939453125e-06 19.02790832519531 19.02790069580078 0 42.49999618530273 0 Z" stroke="none" fill="#887013"/>
                    </g>
                  </g>
                </g>
              </g>
            </g>
          </g>
        </g>
      </g>
    </g>
    <g id="consultant_6856835" transform="translate(524 925)">
      <g id="Grupo_1210021" data-name="Grupo 1210021" transform="translate(0.871 0.871)">
        <g id="Grupo_1210003" data-name="Grupo 1210003" transform="translate(24.387 39.185)">
          <path id="Trazado_1049198" data-name="Trazado 1049198" d="M253.91,367.919h0a5.4,5.4,0,0,1-2.748.874v2.618a.871.871,0,0,1-.871.871H238.1a.871.871,0,0,1-.871-.871V368.8h-1.96a3.254,3.254,0,0,1-1.3-.269,11.955,11.955,0,0,0-1.966.832v4.1c2.493,1.371,7.408,2.3,13.065,2.3,8.177,0,14.807-1.95,14.807-4.355C259.871,369.982,257.528,368.713,253.91,367.919Z" transform="translate(-232 -367.919)" fill="#dfb28b"/>
        </g>
        <g id="Grupo_1210004" data-name="Grupo 1210004" transform="translate(0 34.839)">
          <path id="Trazado_1049199" data-name="Trazado 1049199" d="M13.226,343.678A5.226,5.226,0,0,1,8,338.452V333.6a5.226,5.226,0,0,1,4.705-5.2l4-.4h6.1l4.828.439a5.226,5.226,0,0,1,4.752,5.2v4.809a5.226,5.226,0,0,1-5.226,5.226v1.742H13.226Z" transform="translate(-8 -328)" fill="#b4dd7f"/>
        </g>
        <g id="Grupo_1210005" data-name="Grupo 1210005" transform="translate(24.387 24.387)">
          <path id="Trazado_1049200" data-name="Trazado 1049200" d="M237.226,243.323h1.742v4.355h-3.7A3.266,3.266,0,0,1,232,244.411v-6.968A5.446,5.446,0,0,1,237.444,232h3.266l.237.949a3.347,3.347,0,0,0,3.247,2.535h-6.1a.871.871,0,0,0-.871.871Z" transform="translate(-232 -232)" fill="#e6e9ed"/>
        </g>
        <g id="Grupo_1210006" data-name="Grupo 1210006" transform="translate(36.581 24.387)">
          <path id="Trazado_1049201" data-name="Trazado 1049201" d="M353.716,246.8a5.4,5.4,0,0,1-2.748.874c-.072,0-.145.005-.218.005h-1.524v-4.355h1.742v-6.968a.871.871,0,0,0-.871-.871H344a3.346,3.346,0,0,0,3.247-2.535l.237-.949h3.266a5.446,5.446,0,0,1,5.444,5.444v4.79A5.436,5.436,0,0,1,353.716,246.8Z" transform="translate(-344 -232)" fill="#e6e9ed"/>
        </g>
        <g id="Grupo_1210007" data-name="Grupo 1210007" transform="translate(29.613 27.871)">
          <path id="Trazado_1049202" data-name="Trazado 1049202" d="M293.718,276.194c.073,0,.146,0,.218-.005v2.618a.871.871,0,0,1-.871.871H280.871a.871.871,0,0,1-.871-.871v-2.613h3.048a2.177,2.177,0,0,0,0-4.355H280v-6.968a.871.871,0,0,1,.871-.871h12.194a.871.871,0,0,1,.871.871v6.968h-3.048a2.177,2.177,0,0,0,0,4.355h2.831Z" transform="translate(-280 -264)" fill="#969faa"/>
        </g>
        <g id="Grupo_1210008" data-name="Grupo 1210008" transform="translate(38.323 35.71)">
          <path id="Trazado_1049203" data-name="Trazado 1049203" d="M363.484,336v4.355h-1.306a2.177,2.177,0,0,1,0-4.355Z" transform="translate(-360 -336)" fill="#f0d0b4"/>
        </g>
        <g id="Grupo_1210009" data-name="Grupo 1210009" transform="translate(31.355 35.71)">
          <path id="Trazado_1049204" data-name="Trazado 1049204" d="M297.306,336a2.177,2.177,0,0,1,0,4.355H296V336Z" transform="translate(-296 -336)" fill="#f0d0b4"/>
        </g>
        <g id="Grupo_1210010" data-name="Grupo 1210010" transform="translate(22.13 42.678)">
          <path id="Trazado_1049205" data-name="Trazado 1049205" d="M241.4,400v5.226c0,2.4-7.019,4.355-15.678,4.355-6.494,0-12.065-1.1-14.445-2.66l-.005-.008a5.218,5.218,0,0,0,2.257-4.3v-.562c2.493,1.371,7.409,2.3,13.065,2.3C234.769,404.355,241.4,402.4,241.4,400Z" transform="translate(-211.27 -400)" fill="#cf9e76"/>
        </g>
        <g id="Grupo_1210011" data-name="Grupo 1210011" transform="translate(2.613)">
          <path id="Trazado_1049206" data-name="Trazado 1049206" d="M52.9,9.742v3.484a1.741,1.741,0,0,1-1.742,1.742H44.194l-.66,2.639a1.116,1.116,0,0,1-2.164,0l-.66-2.639H33.742A1.741,1.741,0,0,1,32,13.226V9.742A1.741,1.741,0,0,1,33.742,8h17.42A1.741,1.741,0,0,1,52.9,9.742Z" transform="translate(-32 -8)" fill="#e6e9ed"/>
        </g>
        <g id="Grupo_1210012" data-name="Grupo 1210012" transform="translate(1.742 13.936)">
          <path id="Trazado_1049207" data-name="Trazado 1049207" d="M39.678,142.968H32.71a1.741,1.741,0,0,0-1.742,1.742,1.74,1.74,0,0,0-1.742,1.742v.149a1.743,1.743,0,0,0,.511,1.232l1.231,1.231v4.355l-3.017-1.886A8.406,8.406,0,0,1,32.406,136h7.852a4.644,4.644,0,0,1,2.787,8.361l-1.625,1.219h-.007A3.153,3.153,0,0,0,39.678,142.968Z" transform="translate(-24 -136)" fill="#b27946"/>
        </g>
        <g id="Grupo_1210013" data-name="Grupo 1210013" transform="translate(40.065 14.807)">
          <path id="Trazado_1049208" data-name="Trazado 1049208" d="M382.968,144v11.034a5.424,5.424,0,0,0-3.7-1.453H376v-2.613a6.3,6.3,0,0,0,3.352-4.355h1A2.613,2.613,0,0,0,382.968,144Z" transform="translate(-376 -144)" fill="#fcd770"/>
        </g>
        <g id="Grupo_1210014" data-name="Grupo 1210014" transform="translate(26.129)">
          <path id="Trazado_1049209" data-name="Trazado 1049209" d="M257.582,15.291h0l-4.967,1.865a1.742,1.742,0,0,0-1.13,1.631v1.406h-.871A2.614,2.614,0,0,0,248,22.807V18.452a10.452,10.452,0,0,1,20.9,0v4.355a2.614,2.614,0,0,0-2.613-2.613h-.871V19.118a1.742,1.742,0,0,0-1.526-1.728l-.552-.07A14.3,14.3,0,0,1,257.582,15.291Z" transform="translate(-248 -8)" fill="#fcd770"/>
        </g>
        <g id="Grupo_1210015" data-name="Grupo 1210015" transform="translate(26.129 14.807)">
          <path id="Trazado_1049210" data-name="Trazado 1049210" d="M254.968,150.968v2.613H251.7a5.424,5.424,0,0,0-3.7,1.453V144a2.613,2.613,0,0,0,2.613,2.613h1a6.3,6.3,0,0,0,3.352,4.355Z" transform="translate(-248 -144)" fill="#fcd770"/>
        </g>
        <g id="Grupo_1210016" data-name="Grupo 1210016" transform="translate(34.839 30.484)">
          <ellipse id="Elipse_12707" data-name="Elipse 12707" cx="1.5" cy="2" rx="1.5" ry="2" transform="translate(0.29 -0.355)" fill="#69d6f4"/>
        </g>
        <g id="Grupo_1210017" data-name="Grupo 1210017" transform="translate(6.968 20.903)">
          <path id="Trazado_1049211" data-name="Trazado 1049211" d="M79.839,210.352v3.584h-6.1V206.1l-1.231-1.231A1.743,1.743,0,0,1,72,203.633v-.149a1.74,1.74,0,0,1,1.742-1.742A1.741,1.741,0,0,1,75.484,200h6.968a3.153,3.153,0,0,1,1.735,2.613c0,.067.007.137.007.206v4.11a3.521,3.521,0,0,1-4.355,3.423Z" transform="translate(-72 -200)" fill="#f0d0b4"/>
        </g>
        <g id="Grupo_1210018" data-name="Grupo 1210018" transform="translate(43.417 12.194)">
          <path id="Trazado_1049212" data-name="Trazado 1049212" d="M407.793,120a2.613,2.613,0,0,1,0,5.226h-1a6.267,6.267,0,0,0,.132-1.283V120Z" transform="translate(-406.79 -120)" fill="#f0d0b4"/>
        </g>
        <g id="Grupo_1210019" data-name="Grupo 1210019" transform="translate(29.613 7.291)">
          <path id="Trazado_1049213" data-name="Trazado 1049213" d="M293.936,79.873v3.943a6.3,6.3,0,0,1-3.484,5.637v2.613l-.237.949a3.347,3.347,0,0,1-6.493,0l-.237-.949V89.453A6.3,6.3,0,0,1,280,83.816V78.467a1.742,1.742,0,0,1,1.13-1.631l4.967-1.865h0A14.3,14.3,0,0,0,291.857,77l.552.07a1.742,1.742,0,0,1,1.526,1.728Z" transform="translate(-280 -74.97)" fill="#f0d0b4"/>
        </g>
        <g id="Grupo_1210020" data-name="Grupo 1210020" transform="translate(26.129 12.194)">
          <path id="Trazado_1049214" data-name="Trazado 1049214" d="M251.616,125.226h-1a2.613,2.613,0,0,1,0-5.226h.871v3.943A6.267,6.267,0,0,0,251.616,125.226Z" transform="translate(-248 -120)" fill="#f0d0b4"/>
        </g>
      </g>
      <g id="Grupo_1210022" data-name="Grupo 1210022" transform="translate(0)">
        <path id="Trazado_1049215" data-name="Trazado 1049215" d="M48.978,39.615a6.285,6.285,0,0,0,1.538-4.123V30.7a6.29,6.29,0,0,0-1.742-4.348V11.323a11.323,11.323,0,1,0-22.645,0V26.354A6.29,6.29,0,0,0,24.387,30.7v6.371a6.083,6.083,0,0,0-3.8-1.791l-4.036-.367V33.1A4.4,4.4,0,0,0,20.9,28.7v-3.88l1.277-.958a5.516,5.516,0,0,0-3.31-9.929H11.019A9.277,9.277,0,0,0,6.1,31.079l2.608,1.63v2.213l-3.22.322A6.078,6.078,0,0,0,0,41.31v4.851A6.105,6.105,0,0,0,5.226,52.2V54H20.9V52.2a6.048,6.048,0,0,0,2.1-.713C25.792,53.022,31.347,54,37.452,54a44.171,44.171,0,0,0,11.319-1.307c3.47-.964,5.23-2.282,5.23-3.919V43.549C54,41.582,51.543,40.358,48.978,39.615ZM19.161,28.7a2.652,2.652,0,0,1-3.838,2.372l-1-.5-.779,1.558,1,.5c.086.043.174.082.262.119v2.086H10.452V27.511L8.965,26.024a.865.865,0,0,1-.255-.616v-.149a.872.872,0,0,1,.871-.871h.871v-.871a.872.872,0,0,1,.871-.871h6.743a2.266,2.266,0,0,1,1.1,1.948Zm-12.136.9a7.535,7.535,0,0,1,3.993-13.924h7.852a3.774,3.774,0,0,1,2.265,6.794l-.6.447a3.982,3.982,0,0,0-.528-.853,2.484,2.484,0,0,0-.483-4.128l-.849-.425L17.9,19.07l.849.425a.744.744,0,0,1-.333,1.409H11.323a2.618,2.618,0,0,0-2.5,1.854,2.618,2.618,0,0,0-1.854,2.5v.149a2.6,2.6,0,0,0,.765,1.848l.977.977v2.423Zm17.362,16.56A4.362,4.362,0,0,1,20.9,50.429v-7.39a2.089,2.089,0,0,1,.616-1.487L20.288,40.32a3.82,3.82,0,0,0-1.126,2.719v9.22H6.968v-9.22A3.819,3.819,0,0,0,5.842,40.32L4.61,41.552a2.089,2.089,0,0,1,.616,1.487v7.39a4.362,4.362,0,0,1-3.484-4.267V41.31a4.341,4.341,0,0,1,3.922-4.333l3.961-.4h6.014l4.789.435a4.334,4.334,0,0,1,3.961,4.337ZM48.775,30.7v4.79A4.578,4.578,0,0,1,44.2,40.065h-.653V37.452H44.93a2.089,2.089,0,0,1,1.487.616l1.232-1.232a3.815,3.815,0,0,0-2.358-1.109V29.613a1.744,1.744,0,0,0-1.742-1.742H40.868a4.218,4.218,0,0,0,.676-1.453l.072-.289H44.2A4.578,4.578,0,0,1,48.775,30.7Zm-7.4,5.008a3.048,3.048,0,0,0,0,6.1h2.177v1.742H31.355V41.807h2.177a3.048,3.048,0,1,0,0-6.1H31.355v-6.1H43.549v6.1Zm.435,1.742v2.613h-.435a1.306,1.306,0,0,1,0-2.613ZM33.1,40.065V37.452h.435a1.306,1.306,0,1,1,0,2.613Zm12.194-20.9a3.462,3.462,0,0,0,1.742-.469V25.06a6.274,6.274,0,0,0-2.831-.673h-2.4V23.161a7.121,7.121,0,0,0,3.157-4Zm-.012-1.742c.008-.136.012-.273.012-.411V13.936a1.742,1.742,0,1,1,0,3.484Zm-1.73-.411a5.4,5.4,0,0,1-3,4.858l-.481.241v3.044L39.854,26a2.476,2.476,0,0,1-4.8,0l-.211-.845V22.107l-.481-.241a5.4,5.4,0,0,1-3-4.858V11.659a.875.875,0,0,1,.565-.816L36.5,9.124a15.279,15.279,0,0,0,5.733,1.932l.553.069a.872.872,0,0,1,.763.864ZM27.871,11.323a9.581,9.581,0,1,1,19.161,0v1.34a3.462,3.462,0,0,0-1.742-.469v-.2A2.617,2.617,0,0,0,43,9.4l-.553-.069a13.554,13.554,0,0,1-7.865-3.847L33.352,6.713a15.091,15.091,0,0,0,1.375,1.216L31.309,9.212a2.625,2.625,0,0,0-1.7,2.447v.535a3.462,3.462,0,0,0-1.742.469Zm1.742,2.613v3.073c0,.138,0,.275.012.411h-.012a1.742,1.742,0,1,1,0-3.484Zm-1.742,4.757a3.462,3.462,0,0,0,1.742.469h.327a7.121,7.121,0,0,0,3.157,4v1.227H30.7a6.274,6.274,0,0,0-2.831.673ZM26.129,30.7A4.578,4.578,0,0,1,30.7,26.129h2.586l.072.289a4.218,4.218,0,0,0,.676,1.453H31.355a1.744,1.744,0,0,0-1.742,1.742v6.114a3.815,3.815,0,0,0-2.358,1.109l1.232,1.232a2.089,2.089,0,0,1,1.487-.616h1.381v2.613H28.524a2.4,2.4,0,0,1-2.4-2.4ZM52.259,48.775c0,.395-.826,1.371-3.954,2.24a42.412,42.412,0,0,1-10.853,1.244c-5.292,0-10.241-.771-12.938-1.968a6.077,6.077,0,0,0,1.564-3.352,35.722,35.722,0,0,0,12.245,1.836c5.568,0,11.183-.917,13.936-2.692ZM38.323,47.033c-5.028,0-9.619-.747-12.194-1.967V41.353c0-.107,0-.214-.009-.32a4.113,4.113,0,0,0,2.4.773h1.089v1.742a1.744,1.744,0,0,0,1.742,1.742H43.549a1.744,1.744,0,0,0,1.742-1.742V41.711a6.264,6.264,0,0,0,2.025-.729c3.618.844,4.943,1.987,4.943,2.566C52.259,44.765,47.472,47.033,38.323,47.033Z" transform="translate(0)"/>
        <path id="Trazado_1049216" data-name="Trazado 1049216" d="M26.613,8.71H32.9l.495,1.979a1.986,1.986,0,0,0,3.854,0l.495-1.979h6.288A2.616,2.616,0,0,0,46.645,6.1V2.613A2.616,2.616,0,0,0,44.032,0H26.613A2.616,2.616,0,0,0,24,2.613V6.1A2.616,2.616,0,0,0,26.613,8.71Zm-.871-6.1a.872.872,0,0,1,.871-.871h17.42a.872.872,0,0,1,.871.871V6.1a.872.872,0,0,1-.871.871H36.385l-.825,3.3a.245.245,0,0,1-.475,0l-.825-3.3H26.613a.872.872,0,0,1-.871-.871Z" transform="translate(-21.387)"/>
        <path id="Trazado_1049217" data-name="Trazado 1049217" d="M72,32h1.742v1.742H72Z" transform="translate(-64.161 -28.516)"/>
        <path id="Trazado_1049218" data-name="Trazado 1049218" d="M104,32h1.742v1.742H104Z" transform="translate(-92.677 -28.516)"/>
        <path id="Trazado_1049219" data-name="Trazado 1049219" d="M136,32h1.742v1.742H136Z" transform="translate(-121.193 -28.516)"/>
        <path id="Trazado_1049220" data-name="Trazado 1049220" d="M168,32h1.742v1.742H168Z" transform="translate(-149.71 -28.516)"/>
        <path id="Trazado_1049221" data-name="Trazado 1049221" d="M317.978,164.605a1.948,1.948,0,0,1-3.484,0l-.092-.184-1.558.779.092.184a3.69,3.69,0,0,0,6.6,0l.092-.184-1.558-.779Z" transform="translate(-278.784 -146.52)"/>
        <path id="Trazado_1049222" data-name="Trazado 1049222" d="M329.414,120.45l-1.066-.533.632-1.9-1.653-.551-1.11,3.33,2.418,1.209Z" transform="translate(-290.701 -104.681)"/>
        <path id="Trazado_1049223" data-name="Trazado 1049223" d="M322.613,280a2.613,2.613,0,1,0,2.613,2.613A2.616,2.616,0,0,0,322.613,280Zm0,3.484a.871.871,0,1,1,.871-.871A.872.872,0,0,1,322.613,283.484Z" transform="translate(-285.161 -249.516)"/>
      </g>
    </g>
  </g>
</svg>
