<svg xmlns="http://www.w3.org/2000/svg" xmlns:xlink="http://www.w3.org/1999/xlink" width="103" height="103" viewBox="0 0 103 103">
  <defs>
    <filter id="Trazado_904820" x="0" y="0" width="103" height="103" filterUnits="userSpaceOnUse">
      <feOffset dy="3" input="SourceAlpha"/>
      <feGaussianBlur stdDeviation="3" result="blur"/>
      <feFlood flood-opacity="0.161"/>
      <feComposite operator="in" in2="blur"/>
      <feComposite in="SourceGraphic"/>
    </filter>
  </defs>
  <g id="Grupo_1210027" data-name="Grupo 1210027" transform="translate(-815 -904)">
    <g id="Grupo_1209242" data-name="Grupo 1209242" transform="translate(615 142)">
      <g id="Grupo_1202705" data-name="Grupo 1202705" transform="translate(209 768)">
        <g id="Grupo_1173585" data-name="Grupo 1173585" transform="translate(0 0)">
          <g id="Grupo_1173428" data-name="Grupo 1173428">
            <g id="Grupo_1171958" data-name="Grupo 1171958">
              <g id="Grupo_1167341" data-name="Grupo 1167341">
                <g id="Grupo_1166792" data-name="Grupo 1166792">
                  <g transform="matrix(1, 0, 0, 1, -9, -6)" filter="url(#Trazado_904820)">
                    <g id="Trazado_904820-2" data-name="Trazado 904820" transform="translate(9 6)" fill="#fef9e7">
                      <path d="M 42.49999618530273 83.50002288818359 C 36.96437454223633 83.50002288818359 31.59512519836426 82.41619873046875 26.54140853881836 80.27865600585938 C 21.65933799743652 78.21370697021484 17.27447891235352 75.25724792480469 13.50861930847168 71.49138641357422 C 9.742773056030273 67.72554016113281 6.786302089691162 63.34067153930664 4.721360683441162 58.45859909057617 C 2.583819627761841 53.40488052368164 1.499996185302734 48.0356330871582 1.499996185302734 42.5000114440918 C 1.499996185302734 36.96438980102539 2.583819627761841 31.59514045715332 4.721360683441162 26.54142379760742 C 6.786302089691162 21.65933990478516 9.742773056030273 17.27448272705078 13.50861930847168 13.50862312316895 C 17.27447891235352 9.742775917053223 21.65933799743652 6.78630542755127 26.54140853881836 4.721364498138428 C 31.59512519836426 2.583823204040527 36.96437454223633 1.499999642372131 42.49999618530273 1.499999642372131 C 48.03561782836914 1.499999642372131 53.40486526489258 2.583823204040527 58.45858383178711 4.721364498138428 C 63.34065628051758 6.78630542755127 67.72551727294922 9.742775917053223 71.49137115478516 13.50862312316895 C 75.25721740722656 17.27448272705078 78.21369171142578 21.65933990478516 80.27863311767578 26.54142379760742 C 82.41617584228516 31.59514045715332 83.5 36.96438980102539 83.5 42.5000114440918 C 83.5 48.0356330871582 82.41617584228516 53.40488052368164 80.27863311767578 58.45859909057617 C 78.21369171142578 63.34067153930664 75.25721740722656 67.72554016113281 71.49137115478516 71.49138641357422 C 67.72551727294922 75.25724792480469 63.34065628051758 78.21370697021484 58.45858383178711 80.27865600585938 C 53.40486526489258 82.41619873046875 48.03561782836914 83.50002288818359 42.49999618530273 83.50002288818359 Z" stroke="none"/>
                      <path d="M 42.49999618530273 3 C 37.16621017456055 3 31.99356842041016 4.043960571289062 27.1257438659668 6.102874755859375 C 22.42246246337891 8.092201232910156 18.19786071777344 10.94070434570312 14.56927490234375 14.56929016113281 C 10.94070434570312 18.19786834716797 8.092185974121094 22.42246627807617 6.102874755859375 27.1257438659668 C 4.043952941894531 31.99357223510742 2.999992370605469 37.16622543334961 2.999992370605469 42.5000114440918 C 2.999992370605469 47.83379745483398 4.043952941894531 53.00645065307617 6.102874755859375 57.8742790222168 C 8.092185974121094 62.57754516601562 10.94070434570312 66.80214691162109 14.56927490234375 70.43073272705078 C 18.19786071777344 74.05931854248047 22.42246246337891 76.90782165527344 27.1257438659668 78.89714813232422 C 31.99356842041016 80.95606231689453 37.16621017456055 82.00002288818359 42.49999618530273 82.00002288818359 C 47.83378219604492 82.00002288818359 53.00642395019531 80.95606231689453 57.87425231933594 78.89714813232422 C 62.57752990722656 76.90782165527344 66.80213165283203 74.05931854248047 70.43071746826172 70.43073272705078 C 74.05928802490234 66.80214691162109 76.90780639648438 62.57754516601562 78.89711761474609 57.8742790222168 C 80.95603942871094 53.00645065307617 82 47.83379745483398 82 42.5000114440918 C 82 37.16622543334961 80.95603942871094 31.99357223510742 78.89711761474609 27.1257438659668 C 76.90780639648438 22.42246627807617 74.05928802490234 18.19786834716797 70.43071746826172 14.56929016113281 C 66.80213165283203 10.94070434570312 62.57752990722656 8.092201232910156 57.87425231933594 6.102874755859375 C 53.00642395019531 4.043960571289062 47.83378219604492 3 42.49999618530273 3 M 42.49999618530273 0 C 65.97209167480469 0 85 19.02790832519531 85 42.5000114440918 C 85 65.97210693359375 65.97209167480469 85.00002288818359 42.49999618530273 85.00002288818359 C 19.02790069580078 85.00002288818359 -7.62939453125e-06 65.97210693359375 -7.62939453125e-06 42.5000114440918 C -7.62939453125e-06 19.02790832519531 19.02790069580078 0 42.49999618530273 0 Z" stroke="none" fill="#887013"/>
                    </g>
                  </g>
                </g>
              </g>
            </g>
          </g>
        </g>
      </g>
    </g>
    <g id="data-leak_7921097" transform="translate(832.479 915.479)">
      <path id="Trazado_1049224" data-name="Trazado 1049224" d="M86.2,136.21H57.3l-.747-2.391a1.509,1.509,0,0,0-1.441-1.059H49.356a1.509,1.509,0,0,0-1.441,1.059l-.747,2.391H45.012a2.156,2.156,0,0,0-2.156,2.156v3.45h45.5v-3.45A2.156,2.156,0,0,0,86.2,136.21Z" transform="translate(-31.583 -111.892)" fill="#ffc344"/>
      <path id="Trazado_1049225" data-name="Trazado 1049225" d="M227.314,29.924v-13.8L218.689,7.5H198.421V29.924Z" transform="translate(-170.545)" fill="#deecf1"/>
      <path id="Trazado_1049226" data-name="Trazado 1049226" d="M359.456,7.5h-3.45v8.625a3.45,3.45,0,0,0,3.45,3.45h5.39v10.35h3.234v-13.8Z" transform="translate(-311.312)" fill="#cbe5e8"/>
      <path id="Trazado_1049227" data-name="Trazado 1049227" d="M396.956,16.125h-8.625V7.5Z" transform="translate(-340.187)" fill="#9facba"/>
      <path id="Trazado_1049228" data-name="Trazado 1049228" d="M7.5,219.655h0a2.053,2.053,0,0,0,.013.23l3,26.434a2.156,2.156,0,0,0,2.142,1.913H55.383a2.156,2.156,0,0,0,2.142-1.913l3-26.434a2.052,2.052,0,0,0,.013-.23h0a2.041,2.041,0,0,0-2.041-2.041H9.541A2.041,2.041,0,0,0,7.5,219.655Z" transform="translate(0 -187.69)" fill="#ffe177"/>
      <path id="Trazado_1049229" data-name="Trazado 1049229" d="M245.054,217.614H234.206a28.8,28.8,0,0,1-17.865,30.618h25.594a2.156,2.156,0,0,0,2.142-1.913l3-26.434a2.041,2.041,0,0,0-2.027-2.271Z" transform="translate(-186.553 -187.69)" fill="#ffd15b"/>
      <g id="Grupo_1210025" data-name="Grupo 1210025" transform="translate(22.593 33.805)">
        <circle id="Elipse_12708" data-name="Elipse 12708" cx="11.428" cy="11.428" r="11.428" fill="#fe646f"/>
        <path id="Trazado_1049230" data-name="Trazado 1049230" d="M180.657,269.983a11.429,11.429,0,0,1-15.731,15.731,11.428,11.428,0,1,0,15.731-15.731Z" transform="translate(-163.218 -268.275)" fill="#fd4755"/>
        <g id="Grupo_1210024" data-name="Grupo 1210024" transform="translate(2.803 5.822)">
          <path id="Trazado_1049231" data-name="Trazado 1049231" d="M175.187,314.134s4.312,5.606,8.625,5.606,8.625-5.606,8.625-5.606-4.312-5.606-8.625-5.606S175.187,314.134,175.187,314.134Z" transform="translate(-175.187 -308.528)" fill="#deecf1"/>
          <path id="Trazado_1049232" data-name="Trazado 1049232" d="M194.1,329.3c-1.1,2.044-3.021,4.859-5.565,5.635-2.507.764-5.617-.451-7.671-1.523,1.334,1.515,4.676,4.883,8.019,4.883,4.312,0,8.625-5.606,8.625-5.606A21.529,21.529,0,0,0,194.1,329.3Z" transform="translate(-180.255 -327.08)" fill="#cbe5e8"/>
          <circle id="Elipse_12709" data-name="Elipse 12709" cx="2.803" cy="2.803" r="2.803" transform="translate(5.822 2.803)" fill="#60b7ff"/>
        </g>
      </g>
      <path id="Trazado_1049233" data-name="Trazado 1049233" d="M59.459,136.21H57.3l-.747-2.391a1.509,1.509,0,0,0-1.441-1.059H49.356a1.509,1.509,0,0,0-1.441,1.059l-.747,2.391H45.012a2.156,2.156,0,0,0-2.156,2.156v3.45" transform="translate(-31.583 -111.892)" fill="none" stroke="#000" stroke-linecap="round" stroke-linejoin="round" stroke-miterlimit="10" stroke-width="1"/>
      <path id="Trazado_1049234" data-name="Trazado 1049234" d="M396.956,16.125h-8.625V7.5" transform="translate(-340.187)" fill="none" stroke="#000" stroke-linecap="round" stroke-linejoin="round" stroke-miterlimit="10" stroke-width="1"/>
      <path id="Trazado_1049235" data-name="Trazado 1049235" d="M16.588,248.228H12.659a2.156,2.156,0,0,1-2.142-1.913l-3-26.435a2.043,2.043,0,0,1,2.028-2.271H48.864" transform="translate(0 -187.686)" fill="none" stroke="#000" stroke-linecap="round" stroke-linejoin="round" stroke-miterlimit="10" stroke-width="1"/>
      <path id="Trazado_1049236" data-name="Trazado 1049236" d="M159.927,217.61h5.9a2.043,2.043,0,0,1,2.028,2.271l-3,26.435a2.156,2.156,0,0,1-2.142,1.913H127.65" transform="translate(-107.327 -187.686)" fill="none" stroke="#000" stroke-linecap="round" stroke-linejoin="round" stroke-miterlimit="10" stroke-width="1"/>
      <circle id="Elipse_12710" data-name="Elipse 12710" cx="11.428" cy="11.428" r="11.428" transform="translate(22.593 33.805)" fill="none" stroke="#000" stroke-linecap="round" stroke-linejoin="round" stroke-miterlimit="10" stroke-width="1"/>
      <path id="Trazado_1049237" data-name="Trazado 1049237" d="M175.187,314.134s4.312,5.606,8.625,5.606,8.625-5.606,8.625-5.606-4.312-5.606-8.625-5.606S175.187,314.134,175.187,314.134Z" transform="translate(-149.791 -268.901)" fill="none" stroke="#000" stroke-linecap="round" stroke-linejoin="round" stroke-miterlimit="10" stroke-width="1"/>
      <circle id="Elipse_12711" data-name="Elipse 12711" cx="2.803" cy="2.803" r="2.803" transform="translate(31.218 42.43)" fill="none" stroke="#000" stroke-linecap="round" stroke-linejoin="round" stroke-miterlimit="10" stroke-width="1"/>
      <line id="Línea_1392" data-name="Línea 1392" transform="translate(34.021 45.233)" fill="none" stroke="#000" stroke-linecap="round" stroke-linejoin="round" stroke-miterlimit="10" stroke-width="1"/>
      <line id="Línea_1393" data-name="Línea 1393" y1="15.54" transform="translate(27.876 14.384)" fill="none" stroke="#000" stroke-linecap="round" stroke-linejoin="round" stroke-miterlimit="10" stroke-width="1"/>
      <path id="Trazado_1049238" data-name="Trazado 1049238" d="M198.42,10.648V7.5h20.268l8.624,8.624v13.8" transform="translate(-170.544)" fill="none" stroke="#000" stroke-linecap="round" stroke-linejoin="round" stroke-miterlimit="10" stroke-width="1"/>
      <line id="Línea_1394" data-name="Línea 1394" x1="6.684" y1="0.01" transform="translate(31.11 22.556)" fill="none" stroke="#000" stroke-linecap="round" stroke-linejoin="round" stroke-miterlimit="10" stroke-width="1"/>
      <line id="Línea_1395" data-name="Línea 1395" x1="5.175" y2="0.01" transform="translate(41.029 22.556)" fill="none" stroke="#000" stroke-linecap="round" stroke-linejoin="round" stroke-miterlimit="10" stroke-width="1"/>
      <line id="Línea_1396" data-name="Línea 1396" x1="7.762" transform="translate(38.441 19.321)" fill="none" stroke="#000" stroke-linecap="round" stroke-linejoin="round" stroke-miterlimit="10" stroke-width="1"/>
      <line id="Línea_1397" data-name="Línea 1397" x1="1.941" transform="translate(33.266 19.321)" fill="none" stroke="#000" stroke-linecap="round" stroke-linejoin="round" stroke-miterlimit="10" stroke-width="1"/>
      <line id="Línea_1398" data-name="Línea 1398" x2="6.684" transform="translate(36.285 25.79)" fill="none" stroke="#000" stroke-linecap="round" stroke-linejoin="round" stroke-miterlimit="10" stroke-width="1"/>
      <line id="Línea_1399" data-name="Línea 1399" x2="1.941" transform="translate(31.11 25.79)" fill="none" stroke="#000" stroke-linecap="round" stroke-linejoin="round" stroke-miterlimit="10" stroke-width="1"/>
      <g id="Grupo_1210026" data-name="Grupo 1210026" transform="translate(49.208 50.624)">
        <line id="Línea_1400" data-name="Línea 1400" x1="2.156" transform="translate(2.493 3.234)" fill="none" stroke="#000" stroke-linecap="round" stroke-linejoin="round" stroke-miterlimit="10" stroke-width="1"/>
        <line id="Línea_1401" data-name="Línea 1401" x1="4.649" transform="translate(0 0)" fill="none" stroke="#000" stroke-linecap="round" stroke-linejoin="round" stroke-miterlimit="10" stroke-width="1"/>
      </g>
    </g>
  </g>
</svg>
