<svg xmlns="http://www.w3.org/2000/svg" xmlns:xlink="http://www.w3.org/1999/xlink" width="103" height="103" viewBox="0 0 103 103">
  <defs>
    <filter id="Trazado_904820" x="0" y="0" width="103" height="103" filterUnits="userSpaceOnUse">
      <feOffset dy="3" input="SourceAlpha"/>
      <feGaussianBlur stdDeviation="3" result="blur"/>
      <feFlood flood-opacity="0.161"/>
      <feComposite operator="in" in2="blur"/>
      <feComposite in="SourceGraphic"/>
    </filter>
  </defs>
  <g id="Grupo_1209243" data-name="Grupo 1209243" transform="translate(-200 -762)">
    <g id="Grupo_1202705" data-name="Grupo 1202705" transform="translate(209 768)">
      <g id="Grupo_1173585" data-name="Grupo 1173585" transform="translate(0 0)">
        <g id="Grupo_1173428" data-name="Grupo 1173428">
          <g id="Grupo_1171958" data-name="Grupo 1171958">
            <g id="Grupo_1167341" data-name="Grupo 1167341">
              <g id="Grupo_1166792" data-name="Grupo 1166792">
                <g transform="matrix(1, 0, 0, 1, -9, -6)" filter="url(#Trazado_904820)">
                  <g id="Trazado_904820-2" data-name="Trazado 904820" transform="translate(9 6)" fill="#fef9e7">
                    <path d="M 42.49999618530273 83.50002288818359 C 36.96437454223633 83.50002288818359 31.59512519836426 82.41619873046875 26.54140853881836 80.27865600585938 C 21.65933799743652 78.21370697021484 17.27447891235352 75.25724792480469 13.50861930847168 71.49138641357422 C 9.742773056030273 67.72554016113281 6.786302089691162 63.34067153930664 4.721360683441162 58.45859909057617 C 2.583819627761841 53.40488052368164 1.499996185302734 48.0356330871582 1.499996185302734 42.5000114440918 C 1.499996185302734 36.96438980102539 2.583819627761841 31.59514045715332 4.721360683441162 26.54142379760742 C 6.786302089691162 21.65933990478516 9.742773056030273 17.27448272705078 13.50861930847168 13.50862312316895 C 17.27447891235352 9.742775917053223 21.65933799743652 6.78630542755127 26.54140853881836 4.721364498138428 C 31.59512519836426 2.583823204040527 36.96437454223633 1.499999642372131 42.49999618530273 1.499999642372131 C 48.03561782836914 1.499999642372131 53.40486526489258 2.583823204040527 58.45858383178711 4.721364498138428 C 63.34065628051758 6.78630542755127 67.72551727294922 9.742775917053223 71.49137115478516 13.50862312316895 C 75.25721740722656 17.27448272705078 78.21369171142578 21.65933990478516 80.27863311767578 26.54142379760742 C 82.41617584228516 31.59514045715332 83.5 36.96438980102539 83.5 42.5000114440918 C 83.5 48.0356330871582 82.41617584228516 53.40488052368164 80.27863311767578 58.45859909057617 C 78.21369171142578 63.34067153930664 75.25721740722656 67.72554016113281 71.49137115478516 71.49138641357422 C 67.72551727294922 75.25724792480469 63.34065628051758 78.21370697021484 58.45858383178711 80.27865600585938 C 53.40486526489258 82.41619873046875 48.03561782836914 83.50002288818359 42.49999618530273 83.50002288818359 Z" stroke="none"/>
                    <path d="M 42.49999618530273 3 C 37.16621017456055 3 31.99356842041016 4.043960571289062 27.1257438659668 6.102874755859375 C 22.42246246337891 8.092201232910156 18.19786071777344 10.94070434570312 14.56927490234375 14.56929016113281 C 10.94070434570312 18.19786834716797 8.092185974121094 22.42246627807617 6.102874755859375 27.1257438659668 C 4.043952941894531 31.99357223510742 2.999992370605469 37.16622543334961 2.999992370605469 42.5000114440918 C 2.999992370605469 47.83379745483398 4.043952941894531 53.00645065307617 6.102874755859375 57.8742790222168 C 8.092185974121094 62.57754516601562 10.94070434570312 66.80214691162109 14.56927490234375 70.43073272705078 C 18.19786071777344 74.05931854248047 22.42246246337891 76.90782165527344 27.1257438659668 78.89714813232422 C 31.99356842041016 80.95606231689453 37.16621017456055 82.00002288818359 42.49999618530273 82.00002288818359 C 47.83378219604492 82.00002288818359 53.00642395019531 80.95606231689453 57.87425231933594 78.89714813232422 C 62.57752990722656 76.90782165527344 66.80213165283203 74.05931854248047 70.43071746826172 70.43073272705078 C 74.05928802490234 66.80214691162109 76.90780639648438 62.57754516601562 78.89711761474609 57.8742790222168 C 80.95603942871094 53.00645065307617 82 47.83379745483398 82 42.5000114440918 C 82 37.16622543334961 80.95603942871094 31.99357223510742 78.89711761474609 27.1257438659668 C 76.90780639648438 22.42246627807617 74.05928802490234 18.19786834716797 70.43071746826172 14.56929016113281 C 66.80213165283203 10.94070434570312 62.57752990722656 8.092201232910156 57.87425231933594 6.102874755859375 C 53.00642395019531 4.043960571289062 47.83378219604492 3 42.49999618530273 3 M 42.49999618530273 0 C 65.97209167480469 0 85 19.02790832519531 85 42.5000114440918 C 85 65.97210693359375 65.97209167480469 85.00002288818359 42.49999618530273 85.00002288818359 C 19.02790069580078 85.00002288818359 -7.62939453125e-06 65.97210693359375 -7.62939453125e-06 42.5000114440918 C -7.62939453125e-06 19.02790832519531 19.02790069580078 0 42.49999618530273 0 Z" stroke="none" fill="#887013"/>
                  </g>
                </g>
              </g>
            </g>
          </g>
        </g>
      </g>
    </g>
    <g id="clipboard_5132273" transform="translate(152.95 776.361)">
      <g id="Grupo_1209428" data-name="Grupo 1209428" transform="translate(80.843 8.843)">
        <path id="Trazado_1047831" data-name="Trazado 1047831" d="M88,16h35.414V66.592H88Z" transform="translate(-88 -16)" fill="#a0815c"/>
        <path id="Trazado_1047832" data-name="Trazado 1047832" d="M142.766,48h5.9V91.846H120V48h5.9" transform="translate(-116.627 -44.627)" fill="#e0e0e2"/>
        <g id="Grupo_1209427" data-name="Grupo 1209427" transform="translate(5.902 10.118)">
          <path id="Trazado_1047833" data-name="Trazado 1047833" d="M144,112h8.432v8.432H144Z" transform="translate(-144 -112)" fill="#91cc04"/>
          <path id="Trazado_1047834" data-name="Trazado 1047834" d="M144,224h8.432v8.432H144Z" transform="translate(-144 -212.195)" fill="#91cc04"/>
          <path id="Trazado_1047835" data-name="Trazado 1047835" d="M144,336h8.432v8.432H144Z" transform="translate(-144 -312.391)" fill="#91cc04"/>
        </g>
        <path id="Trazado_1047836" data-name="Trazado 1047836" d="M176,16h16.864v4.638a2.108,2.108,0,0,1-2.108,2.108H178.108A2.108,2.108,0,0,1,176,20.638Z" transform="translate(-166.725 -16)" fill="#ff9811"/>
      </g>
      <g id="Grupo_1209429" data-name="Grupo 1209429" transform="translate(80 8)">
        <path id="Trazado_1047837" data-name="Trazado 1047837" d="M116.257,8H80.843A.843.843,0,0,0,80,8.843V59.435a.843.843,0,0,0,.843.843h35.414a.843.843,0,0,0,.843-.843V8.843A.843.843,0,0,0,116.257,8Zm-25.3,1.686h15.178v3.794a1.266,1.266,0,0,1-1.265,1.265H92.226a1.266,1.266,0,0,1-1.265-1.265Zm1.265,6.746h12.648a2.954,2.954,0,0,0,2.951-2.951v-.422h4.216v42.16H85.059V13.059h4.216v.422a2.954,2.954,0,0,0,2.951,2.951Zm23.188,42.16H81.686V9.686h7.589v1.686H84.216a.843.843,0,0,0-.843.843V56.062a.843.843,0,0,0,.843.843h28.669a.843.843,0,0,0,.843-.843V12.216a.843.843,0,0,0-.843-.843h-5.059V9.686h7.589Z" transform="translate(-80 -8)"/>
        <path id="Trazado_1047838" data-name="Trazado 1047838" d="M136,104.843v8.432a.843.843,0,0,0,.843.843h8.432a.843.843,0,0,0,.843-.843v-5.27l2.192-1.644a.843.843,0,0,0-1.012-1.349l-1.18.885v-1.054a.843.843,0,0,0-.843-.843h-8.432A.843.843,0,0,0,136,104.843Zm1.686.843h6.746v1.476l-3.294,2.47-1.169-1.169a.843.843,0,0,0-1.192,1.192l1.686,1.686a.843.843,0,0,0,1.1.078l2.867-2.15v3.162h-6.746Z" transform="translate(-130.098 -93.882)"/>
        <path id="Trazado_1047839" data-name="Trazado 1047839" d="M264.843,113.686h10.118a.843.843,0,0,0,0-1.686H264.843a.843.843,0,0,0,0,1.686Z" transform="translate(-244.607 -101.038)"/>
        <path id="Trazado_1047840" data-name="Trazado 1047840" d="M264.843,137.686h10.118a.843.843,0,0,0,0-1.686H264.843a.843.843,0,0,0,0,1.686Z" transform="translate(-244.607 -122.509)"/>
        <path id="Trazado_1047841" data-name="Trazado 1047841" d="M264.843,161.686h10.118a.843.843,0,0,0,0-1.686H264.843a.843.843,0,0,0,0,1.686Z" transform="translate(-244.607 -143.979)"/>
        <path id="Trazado_1047842" data-name="Trazado 1047842" d="M264.843,185.686h6.746a.843.843,0,1,0,0-1.686h-6.746a.843.843,0,0,0,0,1.686Z" transform="translate(-244.607 -165.45)"/>
        <path id="Trazado_1047843" data-name="Trazado 1047843" d="M147.3,217.012l-1.18.885v-1.054a.843.843,0,0,0-.843-.843h-8.432a.843.843,0,0,0-.843.843v8.432a.843.843,0,0,0,.843.843h8.432a.843.843,0,0,0,.843-.843v-5.27l2.192-1.644a.843.843,0,0,0-1.012-1.349Zm-2.867,7.42h-6.746v-6.746h6.746v1.476l-3.294,2.47-1.169-1.169a.843.843,0,0,0-1.192,1.193l1.686,1.686a.843.843,0,0,0,1.1.078l2.867-2.15Z" transform="translate(-130.098 -194.077)"/>
        <path id="Trazado_1047844" data-name="Trazado 1047844" d="M264.843,225.686h10.118a.843.843,0,0,0,0-1.686H264.843a.843.843,0,0,0,0,1.686Z" transform="translate(-244.607 -201.234)"/>
        <path id="Trazado_1047845" data-name="Trazado 1047845" d="M264.843,249.686h10.118a.843.843,0,0,0,0-1.686H264.843a.843.843,0,0,0,0,1.686Z" transform="translate(-244.607 -222.704)"/>
        <path id="Trazado_1047846" data-name="Trazado 1047846" d="M264.843,273.686h10.118a.843.843,0,0,0,0-1.686H264.843a.843.843,0,0,0,0,1.686Z" transform="translate(-244.607 -244.175)"/>
        <path id="Trazado_1047847" data-name="Trazado 1047847" d="M264.843,297.686h6.746a.843.843,0,0,0,0-1.686h-6.746a.843.843,0,0,0,0,1.686Z" transform="translate(-244.607 -265.645)"/>
        <path id="Trazado_1047848" data-name="Trazado 1047848" d="M147.3,329.012l-1.18.885v-1.054a.843.843,0,0,0-.843-.843h-8.432a.843.843,0,0,0-.843.843v8.432a.843.843,0,0,0,.843.843h8.432a.843.843,0,0,0,.843-.843v-5.27l2.192-1.644a.843.843,0,0,0-1.012-1.349Zm-2.867,7.42h-6.746v-6.746h6.746v1.476l-3.294,2.47-1.169-1.169a.843.843,0,0,0-1.192,1.193l1.686,1.686a.843.843,0,0,0,1.1.078l2.867-2.15Z" transform="translate(-130.098 -294.272)"/>
        <path id="Trazado_1047849" data-name="Trazado 1047849" d="M264.843,337.686h10.118a.843.843,0,0,0,0-1.686H264.843a.843.843,0,0,0,0,1.686Z" transform="translate(-244.607 -301.429)"/>
        <path id="Trazado_1047850" data-name="Trazado 1047850" d="M264.843,361.686h10.118a.843.843,0,0,0,0-1.686H264.843a.843.843,0,0,0,0,1.686Z" transform="translate(-244.607 -322.899)"/>
        <path id="Trazado_1047851" data-name="Trazado 1047851" d="M264.843,385.686h10.118a.843.843,0,0,0,0-1.686H264.843a.843.843,0,0,0,0,1.686Z" transform="translate(-244.607 -344.37)"/>
        <path id="Trazado_1047852" data-name="Trazado 1047852" d="M264.843,409.686h6.746a.843.843,0,1,0,0-1.686h-6.746a.843.843,0,0,0,0,1.686Z" transform="translate(-244.607 -365.84)"/>
      </g>
    </g>
  </g>
</svg>
