<svg xmlns="http://www.w3.org/2000/svg" xmlns:xlink="http://www.w3.org/1999/xlink" width="118" height="118" viewBox="0 0 118 118">
  <defs>
    <filter id="Trazado_982547" x="0" y="0" width="118" height="118" filterUnits="userSpaceOnUse">
      <feOffset dy="3" input="SourceAlpha"/>
      <feGaussianBlur stdDeviation="3" result="blur"/>
      <feFlood flood-opacity="0.161"/>
      <feComposite operator="in" in2="blur"/>
      <feComposite in="SourceGraphic"/>
    </filter>
  </defs>
  <g id="Grupo_1210044" data-name="Grupo 1210044" transform="translate(-265 -1632.415)">
    <g id="Grupo_1209244" data-name="Grupo 1209244" transform="translate(-528.49 402.199)">
      <g id="Grupo_1208492" data-name="Grupo 1208492" transform="translate(802.49 1236.215)">
        <g id="Grupo_1177675" data-name="Grupo 1177675" transform="translate(0 0)">
          <g id="Grupo_1176928" data-name="Grupo 1176928" transform="translate(0)">
            <g id="Grupo_1172322" data-name="Grupo 1172322" transform="translate(0 0)">
              <g id="Grupo_1164700" data-name="Grupo 1164700">
                <g id="Grupo_1160931" data-name="Grupo 1160931">
                  <g id="Grupo_1160749" data-name="Grupo 1160749">
                    <g id="Grupo_1158891" data-name="Grupo 1158891">
                      <g id="Grupo_1157406" data-name="Grupo 1157406">
                        <g id="Grupo_1155793" data-name="Grupo 1155793">
                          <g id="Grupo_1154704" data-name="Grupo 1154704">
                            <g id="Grupo_1150790" data-name="Grupo 1150790">
                              <g id="Grupo_1154214" data-name="Grupo 1154214">
                                <g id="Grupo_1152583" data-name="Grupo 1152583">
                                  <g id="Grupo_1146973" data-name="Grupo 1146973">
                                    <g id="Grupo_1146954" data-name="Grupo 1146954">
                                      <g transform="matrix(1, 0, 0, 1, -9, -6)" filter="url(#Trazado_982547)">
                                        <g id="Trazado_982547-2" data-name="Trazado 982547" transform="translate(9 6)" fill="#fef9e7">
                                          <path d="M 49.99995803833008 98.49976348876953 C 43.45184326171875 98.49976348876953 37.10039901733398 97.2176513671875 31.1220588684082 94.68901824951172 C 25.34690093994141 92.246337890625 20.15995788574219 88.74910736083984 15.70531558990479 84.29447937011719 C 11.25068664550781 79.83985137939453 7.753458023071289 74.65290832519531 5.31077241897583 68.87776184082031 C 2.782143831253052 62.89942169189453 1.500015139579773 56.54797744750977 1.500015139579773 49.9998779296875 C 1.500015139579773 43.45177841186523 2.782143831253052 37.10033416748047 5.31077241897583 31.12199211120605 C 7.753458023071289 25.34684944152832 11.25068664550781 20.15992164611816 15.70531558990479 15.70529174804688 C 20.15995788574219 11.25066375732422 25.34688568115234 7.753435134887695 31.1220588684082 5.310749530792236 C 37.10039901733398 2.782120704650879 43.45184326171875 1.500006556510925 49.99995803833008 1.500006556510925 C 56.54807281494141 1.500006556510925 62.89951705932617 2.782120704650879 68.87786865234375 5.310749530792236 C 74.65303039550781 7.753435134887695 79.83997344970703 11.25066375732422 84.29460144042969 15.70529174804688 C 88.74924468994141 20.15992164611816 92.24647521972656 25.34684944152832 94.68915557861328 31.12199211120605 C 97.21778869628906 37.10033416748047 98.49991607666016 43.45177841186523 98.49991607666016 49.9998779296875 C 98.49991607666016 56.54797744750977 97.21778869628906 62.89942169189453 94.68915557861328 68.87776184082031 C 92.24647521972656 74.65290832519531 88.74924468994141 79.83985137939453 84.29460144042969 84.29447937011719 C 79.83997344970703 88.74910736083984 74.65303039550781 92.246337890625 68.87786865234375 94.68901824951172 C 62.89951705932617 97.2176513671875 56.54807281494141 98.49976348876953 49.99995803833008 98.49976348876953 Z" stroke="none"/>
                                          <path d="M 49.99995803833008 3 C 43.65368270874023 3 37.49883651733398 4.24224853515625 31.70637512207031 6.692245483398438 C 26.11001586914062 9.059310913085938 21.08334350585938 12.44858551025391 16.76597595214844 16.76595306396484 C 12.44860076904297 21.08330535888672 9.059326171875 26.10997009277344 6.692268371582031 31.70632171630859 C 4.242263793945312 37.49877166748047 3.000007629394531 43.65361785888672 3.000007629394531 49.9998779296875 C 3.000007629394531 56.34613800048828 4.242263793945312 62.50098419189453 6.692268371582031 68.29343414306641 C 9.059326171875 73.88978576660156 12.44860076904297 78.91644287109375 16.76597595214844 83.23380279541016 C 21.08334350585938 87.55117034912109 26.11001586914062 90.94044494628906 31.70637512207031 93.30751037597656 C 37.49883651733398 95.75750732421875 43.65368270874023 96.999755859375 49.99995803833008 96.999755859375 C 56.34623336791992 96.999755859375 62.50107955932617 95.75750732421875 68.29354095458984 93.30751037597656 C 73.889892578125 90.94044494628906 78.91657257080078 87.55117034912109 83.23394012451172 83.23380279541016 C 87.55131530761719 78.91644287109375 90.94058990478516 73.88978576660156 93.30764770507812 68.29343414306641 C 95.75765228271484 62.50098419189453 96.99990844726562 56.34613800048828 96.99990844726562 49.9998779296875 C 96.99990844726562 43.65361785888672 95.75765228271484 37.49877166748047 93.30764770507812 31.70632171630859 C 90.94058990478516 26.10997009277344 87.55131530761719 21.08330535888672 83.23394012451172 16.76595306396484 C 78.91657257080078 12.44858551025391 73.889892578125 9.059310913085938 68.29354095458984 6.692245483398438 C 62.50107955932617 4.24224853515625 56.34623336791992 3 49.99995803833008 3 M 49.99995803833008 0 C 77.61415863037109 0 99.99990844726562 22.38571166992188 99.99990844726562 49.9998779296875 C 99.99990844726562 77.61404418945312 77.61415863037109 99.999755859375 49.99995803833008 99.999755859375 C 22.38575744628906 99.999755859375 7.62939453125e-06 77.61404418945312 7.62939453125e-06 49.9998779296875 C 7.62939453125e-06 22.38571166992188 22.38575744628906 0 49.99995803833008 0 Z" stroke="none" fill="#f8ce24"/>
                                        </g>
                                      </g>
                                    </g>
                                  </g>
                                </g>
                              </g>
                            </g>
                          </g>
                        </g>
                      </g>
                    </g>
                  </g>
                </g>
              </g>
            </g>
          </g>
        </g>
      </g>
    </g>
    <g id="risk-matrix_17791921" transform="translate(290.831 1628.943)">
      <g id="Grupo_1210043" data-name="Grupo 1210043" transform="translate(1.363 31.147)">
        <g id="Grupo_1210028" data-name="Grupo 1210028" transform="translate(6.536 10.221)">
          <path id="Trazado_1049240" data-name="Trazado 1049240" d="M57.706,116.029h7.375V123.4H57.706Z" transform="translate(-57.706 -116.029)" fill="#ff7e7b" fill-rule="evenodd"/>
        </g>
        <g id="Grupo_1210029" data-name="Grupo 1210029" transform="translate(6.536 20.951)">
          <path id="Trazado_1049241" data-name="Trazado 1049241" d="M57.706,198.995h7.375v7.374H57.706Z" transform="translate(-57.706 -198.995)" fill="#ffe177" fill-rule="evenodd"/>
        </g>
        <g id="Grupo_1210030" data-name="Grupo 1210030" transform="translate(19.105 10.221)">
          <path id="Trazado_1049242" data-name="Trazado 1049242" d="M154.891,116.029h7.375V123.4h-7.375Z" transform="translate(-154.891 -116.029)" fill="#ff7e7b" fill-rule="evenodd"/>
        </g>
        <g id="Grupo_1210031" data-name="Grupo 1210031" transform="translate(19.105 20.951)">
          <path id="Trazado_1049243" data-name="Trazado 1049243" d="M154.891,198.995h7.375v7.374h-7.375Z" transform="translate(-154.891 -198.995)" fill="#ffe177" fill-rule="evenodd"/>
        </g>
        <g id="Grupo_1210032" data-name="Grupo 1210032" transform="translate(31.678 10.221)">
          <path id="Trazado_1049244" data-name="Trazado 1049244" d="M252.105,116.029h7.375V123.4h-7.375Z" transform="translate(-252.105 -116.029)" fill="#ff7e7b" fill-rule="evenodd"/>
        </g>
        <g id="Grupo_1210033" data-name="Grupo 1210033" transform="translate(31.678 20.951)">
          <path id="Trazado_1049245" data-name="Trazado 1049245" d="M252.105,198.995h7.375v7.374h-7.375Z" transform="translate(-252.105 -198.995)" fill="#ffe177" fill-rule="evenodd"/>
        </g>
        <g id="Grupo_1210034" data-name="Grupo 1210034" transform="translate(31.678 31.678)">
          <path id="Trazado_1049246" data-name="Trazado 1049246" d="M252.105,281.932h7.375v7.375h-7.375Z" transform="translate(-252.105 -281.932)" fill="#8db9ff" fill-rule="evenodd"/>
        </g>
        <g id="Grupo_1210035" data-name="Grupo 1210035" transform="translate(31.678 42.404)">
          <path id="Trazado_1049247" data-name="Trazado 1049247" d="M252.105,364.87h7.375v7.374h-7.375Z" transform="translate(-252.105 -364.87)" fill="#66b49d" fill-rule="evenodd"/>
        </g>
        <g id="Grupo_1210036" data-name="Grupo 1210036" transform="translate(44.247 10.221)">
          <path id="Trazado_1049248" data-name="Trazado 1049248" d="M349.291,116.029h7.375V123.4h-7.375Z" transform="translate(-349.291 -116.029)" fill="#ff7e7b" fill-rule="evenodd"/>
        </g>
        <g id="Grupo_1210037" data-name="Grupo 1210037" transform="translate(44.247 20.951)">
          <path id="Trazado_1049249" data-name="Trazado 1049249" d="M349.291,198.995h7.375v7.374h-7.375Z" transform="translate(-349.291 -198.995)" fill="#ffe177" fill-rule="evenodd"/>
        </g>
        <g id="Grupo_1210038" data-name="Grupo 1210038" transform="translate(44.247 31.678)">
          <path id="Trazado_1049250" data-name="Trazado 1049250" d="M349.291,281.932h7.375v7.375h-7.375Z" transform="translate(-349.291 -281.932)" fill="#8db9ff" fill-rule="evenodd"/>
        </g>
        <g id="Grupo_1210039" data-name="Grupo 1210039" transform="translate(44.247 42.404)">
          <path id="Trazado_1049251" data-name="Trazado 1049251" d="M349.291,364.87h7.375v7.374h-7.375Z" transform="translate(-349.291 -364.87)" fill="#66b49d" fill-rule="evenodd"/>
        </g>
        <g id="Grupo_1210040" data-name="Grupo 1210040" transform="translate(7.077 31.205)">
          <path id="Trazado_1049252" data-name="Trazado 1049252" d="M72.808,279.228,79.9,291.5a2.845,2.845,0,0,1-2.465,4.272H64.752a2.849,2.849,0,0,1-2.454-4.294l7.232-12.262a1.9,1.9,0,0,1,3.279.015Z" transform="translate(-61.894 -278.279)" fill="#ffd06c" fill-rule="evenodd"/>
        </g>
        <g id="Grupo_1210041" data-name="Grupo 1210041" transform="translate(56.992 49.277)">
          <path id="Trazado_1049253" data-name="Trazado 1049253" d="M451.52,425.38a3.685,3.685,0,1,0-3.685-3.685A3.693,3.693,0,0,0,451.52,425.38Z" transform="translate(-447.835 -418.009)" fill="#41b3e7" fill-rule="evenodd"/>
        </g>
        <g id="Grupo_1210042" data-name="Grupo 1210042" transform="translate(0)">
          <path id="Trazado_1049254" data-name="Trazado 1049254" d="M10.858,44.371a3.685,3.685,0,1,0-3.685-3.685A3.693,3.693,0,0,0,10.858,44.371Z" transform="translate(-7.173 -37)" fill="#41b3e7" fill-rule="evenodd"/>
        </g>
      </g>
      <path id="Trazado_1049255" data-name="Trazado 1049255" d="M7.028,41.389v7.366a.9.9,0,0,0,.9.9H15.3a.9.9,0,0,0,.9-.9V41.389a.9.9,0,0,0-.9-.9H7.93a.9.9,0,0,0-.9.9Zm1.8.9h5.562v5.562H8.832ZM16.2,59.473V52.1a.9.9,0,0,0-.9-.9H7.93a.9.9,0,0,0-.9.9v7.37a.9.9,0,0,0,.9.9H15.3A.9.9,0,0,0,16.2,59.473Zm-1.8-.9H8.832V53.005h5.562Zm6.091-8.914h7.366a.9.9,0,0,0,.9-.9V41.389a.9.9,0,0,0-.9-.9H20.485a.9.9,0,0,0-.9.9v7.366A.9.9,0,0,0,20.485,49.657Zm.9-7.366h5.562v5.562H21.387Zm-.9,18.084h7.366a.9.9,0,0,0,.9-.9V52.1a.9.9,0,0,0-.9-.9H20.485a.9.9,0,0,0-.9.9v7.37A.9.9,0,0,0,20.485,60.375Zm.9-7.37h5.562v5.566H21.387Zm11.657-3.348h7.366a.9.9,0,0,0,.9-.9V41.389a.9.9,0,0,0-.9-.9H33.043a.9.9,0,0,0-.9.9v7.366A.9.9,0,0,0,33.043,49.657Zm.9-7.366h5.562v5.562H33.945Zm-.9,18.084h7.366a.9.9,0,0,0,.9-.9V52.1a.9.9,0,0,0-.9-.9H33.043a.9.9,0,0,0-.9.9v7.37A.9.9,0,0,0,33.043,60.375Zm.9-7.37h5.562v5.566H33.945Zm-.9,18.084h7.366a.9.9,0,0,0,.9-.9V62.821a.9.9,0,0,0-.9-.9H33.043a.9.9,0,0,0-.9.9v7.366A.9.9,0,0,0,33.043,71.089Zm.9-7.366h5.562v5.562H33.945Zm-.9,18.08h7.366a.9.9,0,0,0,.9-.9V73.536a.9.9,0,0,0-.9-.9H33.043a.9.9,0,0,0-.9.9V80.9A.9.9,0,0,0,33.043,81.8Zm.9-7.366h5.562V80H33.945ZM45.6,49.657h7.366a.9.9,0,0,0,.9-.9V41.389a.9.9,0,0,0-.9-.9H45.6a.9.9,0,0,0-.9.9v7.366A.9.9,0,0,0,45.6,49.657Zm.9-7.366h5.562v5.562H46.5Zm-.9,18.084h7.366a.9.9,0,0,0,.9-.9V52.1a.9.9,0,0,0-.9-.9H45.6a.9.9,0,0,0-.9.9v7.37A.9.9,0,0,0,45.6,60.375Zm.9-7.37h5.562v5.566H46.5Zm-.9,18.084h7.366a.9.9,0,0,0,.9-.9V62.821a.9.9,0,0,0-.9-.9H45.6a.9.9,0,0,0-.9.9v7.366A.9.9,0,0,0,45.6,71.089Zm.9-7.366h5.562v5.562H46.5ZM45.6,81.8h7.366a.9.9,0,0,0,.9-.9V73.536a.9.9,0,0,0-.9-.9H45.6a.9.9,0,0,0-.9.9V80.9A.9.9,0,0,0,45.6,81.8Zm.9-7.366h5.562V80H46.5ZM15.32,62.824,8.1,75.07a3.7,3.7,0,0,0-.026,3.762,3.658,3.658,0,0,0,3.253,1.889H23.99A3.746,3.746,0,0,0,27.234,75.1L20.153,62.846h0a2.742,2.742,0,0,0-2.411-1.4h-.015a2.766,2.766,0,0,0-2.406,1.377Zm2.405.427h.006a.954.954,0,0,1,.86.5L25.672,76a1.942,1.942,0,0,1-1.681,2.918H11.326a1.944,1.944,0,0,1-1.675-2.928L16.875,63.74a.943.943,0,0,1,.851-.489Zm-.971,8.725V68.182a.9.9,0,0,1,1.8,0v3.795a.9.9,0,1,1-1.8,0Zm0,2.891V74.82a.9.9,0,1,1,1.8,0v.047a.9.9,0,1,1-1.8,0ZM62.01,79.5a4.591,4.591,0,0,0-4.494,3.681H5.985V39.355a4.583,4.583,0,1,0-1.8,0V84.081a.9.9,0,0,0,.9.9H57.516A4.581,4.581,0,1,0,62.01,79.5ZM2.3,34.861A2.779,2.779,0,1,1,5.083,37.64,2.782,2.782,0,0,1,2.3,34.861Zm59.706,52a2.779,2.779,0,1,1,2.775-2.779A2.782,2.782,0,0,1,62.01,86.861Z" transform="translate(0 0)"/>
    </g>
  </g>
</svg>
