<svg xmlns="http://www.w3.org/2000/svg" xmlns:xlink="http://www.w3.org/1999/xlink" width="118" height="118" viewBox="0 0 118 118">
  <defs>
    <filter id="Trazado_982547" x="0" y="0" width="118" height="118" filterUnits="userSpaceOnUse">
      <feOffset dy="3" input="SourceAlpha"/>
      <feGaussianBlur stdDeviation="3" result="blur"/>
      <feFlood flood-opacity="0.161"/>
      <feComposite operator="in" in2="blur"/>
      <feComposite in="SourceGraphic"/>
    </filter>
  </defs>
  <g id="Grupo_1210046" data-name="Grupo 1210046" transform="translate(-583.5 -1632.415)">
    <g id="Grupo_1209245" data-name="Grupo 1209245" transform="translate(-209.99 402.199)">
      <g id="Grupo_1208492" data-name="Grupo 1208492" transform="translate(802.49 1236.215)">
        <g id="Grupo_1177675" data-name="Grupo 1177675" transform="translate(0 0)">
          <g id="Grupo_1176928" data-name="Grupo 1176928" transform="translate(0)">
            <g id="Grupo_1172322" data-name="Grupo 1172322" transform="translate(0 0)">
              <g id="Grupo_1164700" data-name="Grupo 1164700">
                <g id="Grupo_1160931" data-name="Grupo 1160931">
                  <g id="Grupo_1160749" data-name="Grupo 1160749">
                    <g id="Grupo_1158891" data-name="Grupo 1158891">
                      <g id="Grupo_1157406" data-name="Grupo 1157406">
                        <g id="Grupo_1155793" data-name="Grupo 1155793">
                          <g id="Grupo_1154704" data-name="Grupo 1154704">
                            <g id="Grupo_1150790" data-name="Grupo 1150790">
                              <g id="Grupo_1154214" data-name="Grupo 1154214">
                                <g id="Grupo_1152583" data-name="Grupo 1152583">
                                  <g id="Grupo_1146973" data-name="Grupo 1146973">
                                    <g id="Grupo_1146954" data-name="Grupo 1146954">
                                      <g transform="matrix(1, 0, 0, 1, -9, -6)" filter="url(#Trazado_982547)">
                                        <g id="Trazado_982547-2" data-name="Trazado 982547" transform="translate(9 6)" fill="#fef9e7">
                                          <path d="M 49.99995803833008 98.49976348876953 C 43.45184326171875 98.49976348876953 37.10039901733398 97.2176513671875 31.1220588684082 94.68901824951172 C 25.34690093994141 92.246337890625 20.15995788574219 88.74910736083984 15.70531558990479 84.29447937011719 C 11.25068664550781 79.83985137939453 7.753458023071289 74.65290832519531 5.31077241897583 68.87776184082031 C 2.782143831253052 62.89942169189453 1.500015139579773 56.54797744750977 1.500015139579773 49.9998779296875 C 1.500015139579773 43.45177841186523 2.782143831253052 37.10033416748047 5.31077241897583 31.12199211120605 C 7.753458023071289 25.34684944152832 11.25068664550781 20.15992164611816 15.70531558990479 15.70529174804688 C 20.15995788574219 11.25066375732422 25.34688568115234 7.753435134887695 31.1220588684082 5.310749530792236 C 37.10039901733398 2.782120704650879 43.45184326171875 1.500006556510925 49.99995803833008 1.500006556510925 C 56.54807281494141 1.500006556510925 62.89951705932617 2.782120704650879 68.87786865234375 5.310749530792236 C 74.65303039550781 7.753435134887695 79.83997344970703 11.25066375732422 84.29460144042969 15.70529174804688 C 88.74924468994141 20.15992164611816 92.24647521972656 25.34684944152832 94.68915557861328 31.12199211120605 C 97.21778869628906 37.10033416748047 98.49991607666016 43.45177841186523 98.49991607666016 49.9998779296875 C 98.49991607666016 56.54797744750977 97.21778869628906 62.89942169189453 94.68915557861328 68.87776184082031 C 92.24647521972656 74.65290832519531 88.74924468994141 79.83985137939453 84.29460144042969 84.29447937011719 C 79.83997344970703 88.74910736083984 74.65303039550781 92.246337890625 68.87786865234375 94.68901824951172 C 62.89951705932617 97.2176513671875 56.54807281494141 98.49976348876953 49.99995803833008 98.49976348876953 Z" stroke="none"/>
                                          <path d="M 49.99995803833008 3 C 43.65368270874023 3 37.49883651733398 4.24224853515625 31.70637512207031 6.692245483398438 C 26.11001586914062 9.059310913085938 21.08334350585938 12.44858551025391 16.76597595214844 16.76595306396484 C 12.44860076904297 21.08330535888672 9.059326171875 26.10997009277344 6.692268371582031 31.70632171630859 C 4.242263793945312 37.49877166748047 3.000007629394531 43.65361785888672 3.000007629394531 49.9998779296875 C 3.000007629394531 56.34613800048828 4.242263793945312 62.50098419189453 6.692268371582031 68.29343414306641 C 9.059326171875 73.88978576660156 12.44860076904297 78.91644287109375 16.76597595214844 83.23380279541016 C 21.08334350585938 87.55117034912109 26.11001586914062 90.94044494628906 31.70637512207031 93.30751037597656 C 37.49883651733398 95.75750732421875 43.65368270874023 96.999755859375 49.99995803833008 96.999755859375 C 56.34623336791992 96.999755859375 62.50107955932617 95.75750732421875 68.29354095458984 93.30751037597656 C 73.889892578125 90.94044494628906 78.91657257080078 87.55117034912109 83.23394012451172 83.23380279541016 C 87.55131530761719 78.91644287109375 90.94058990478516 73.88978576660156 93.30764770507812 68.29343414306641 C 95.75765228271484 62.50098419189453 96.99990844726562 56.34613800048828 96.99990844726562 49.9998779296875 C 96.99990844726562 43.65361785888672 95.75765228271484 37.49877166748047 93.30764770507812 31.70632171630859 C 90.94058990478516 26.10997009277344 87.55131530761719 21.08330535888672 83.23394012451172 16.76595306396484 C 78.91657257080078 12.44858551025391 73.889892578125 9.059310913085938 68.29354095458984 6.692245483398438 C 62.50107955932617 4.24224853515625 56.34623336791992 3 49.99995803833008 3 M 49.99995803833008 0 C 77.61415863037109 0 99.99990844726562 22.38571166992188 99.99990844726562 49.9998779296875 C 99.99990844726562 77.61404418945312 77.61415863037109 99.999755859375 49.99995803833008 99.999755859375 C 22.38575744628906 99.999755859375 7.62939453125e-06 77.61404418945312 7.62939453125e-06 49.9998779296875 C 7.62939453125e-06 22.38571166992188 22.38575744628906 0 49.99995803833008 0 Z" stroke="none" fill="#f8ce24"/>
                                        </g>
                                      </g>
                                    </g>
                                  </g>
                                </g>
                              </g>
                            </g>
                          </g>
                        </g>
                      </g>
                    </g>
                  </g>
                </g>
              </g>
            </g>
          </g>
        </g>
      </g>
    </g>
    <g id="decision-tree_12209671" transform="translate(593.021 1630.429)">
      <path id="Trazado_1049256" data-name="Trazado 1049256" d="M71.153,64.39v3.078h5.93a.767.767,0,0,1,.767.767v6.8a5.872,5.872,0,1,1-1.533,0V69H64.457v6.035a5.872,5.872,0,1,1-1.533,0v-6.8a.767.767,0,0,1,.767-.767H69.62V64.39a8.737,8.737,0,0,1,0-17.407V32.953H60.4A10.947,10.947,0,0,1,50.246,43.1v3.878a8.737,8.737,0,1,1-1.533,0V43.1A10.946,10.946,0,0,1,38.561,32.953H29.339v14.03a8.737,8.737,0,0,1,0,17.407v3.078h5.93a.767.767,0,0,1,.767.767v6.8a5.872,5.872,0,1,1-1.533,0V69H22.642v6.035a5.872,5.872,0,1,1-1.533,0v-6.8a.767.767,0,0,1,.767-.767h5.93V64.39a8.737,8.737,0,0,1,0-17.407v-14.8a.767.767,0,0,1,.767-.767h9.989a10.945,10.945,0,0,1,21.837,0h9.989a.767.767,0,0,1,.767.767v14.8a8.737,8.737,0,0,1,0,17.407Z" fill-rule="evenodd"/>
      <path id="Trazado_1049257" data-name="Trazado 1049257" d="M333.419,423.109a.767.767,0,0,1-1.084,1.084l-1.224-1.224-1.225,1.224a.767.767,0,0,1-1.084-1.084l1.224-1.224-1.224-1.224a.766.766,0,1,1,1.084-1.084l1.224,1.224,1.224-1.224a.766.766,0,0,1,1.084,1.084l-1.224,1.224,1.224,1.224Zm.76-4.292a4.339,4.339,0,1,0,0,6.136A4.339,4.339,0,0,0,334.179,418.817Zm0,0-3.069-1.271Z" transform="translate(-267.421 -341.026)" fill="#e22237" fill-rule="evenodd"/>
      <path id="Trazado_1049258" data-name="Trazado 1049258" d="M423.7,422.085a.764.764,0,1,1,1.018-1.138l1.741,1.56,3.144-2.249a.764.764,0,1,1,.886,1.246l-3.641,2.6a.764.764,0,0,1-.952-.053l-2.2-1.968Zm6.5-3.268a4.339,4.339,0,1,0,0,6.136A4.339,4.339,0,0,0,430.193,418.817Zm0,0-3.069-1.271Z" transform="translate(-350.042 -341.026)" fill="#37b428" fill-rule="evenodd"/>
      <path id="Trazado_1049259" data-name="Trazado 1049259" d="M33.647,423.109a.767.767,0,0,1-1.084,1.084l-1.224-1.224-1.224,1.224a.767.767,0,0,1-1.084-1.084l1.224-1.224-1.224-1.224a.767.767,0,0,1,1.084-1.084l1.224,1.224,1.224-1.224a.766.766,0,1,1,1.084,1.084l-1.224,1.224,1.224,1.224Zm.76-4.292a4.339,4.339,0,1,0,0,6.136,4.339,4.339,0,0,0,0-6.136Zm0,0-3.069-1.271Z" transform="translate(-9.463 -341.026)" fill="#e22237" fill-rule="evenodd"/>
      <path id="Trazado_1049260" data-name="Trazado 1049260" d="M123.926,422.085a.764.764,0,1,1,1.018-1.138l1.74,1.56,3.144-2.249a.764.764,0,1,1,.886,1.246l-3.641,2.6a.764.764,0,0,1-.952-.053l-2.2-1.968Zm6.5-3.268a4.339,4.339,0,1,0,0,6.136A4.339,4.339,0,0,0,130.422,418.817Zm0,0-3.069-1.271Z" transform="translate(-92.086 -341.026)" fill="#37b428" fill-rule="evenodd"/>
      <path id="Trazado_1049261" data-name="Trazado 1049261" d="M216.653,218.655a7.2,7.2,0,1,0,0,10.187A7.2,7.2,0,0,0,216.653,218.655Zm-1.8,7.309a.766.766,0,1,1-1.084,1.084l-2.215-2.215-2.215,2.215a.766.766,0,1,1-1.084-1.084l2.215-2.215-2.215-2.215a.767.767,0,1,1,1.084-1.084l2.215,2.215,2.215-2.215a.767.767,0,1,1,1.084,1.084l-2.215,2.215Z" transform="translate(-162.08 -168.063)" fill="#e22237" fill-rule="evenodd"/>
      <g id="Grupo_1210045" data-name="Grupo 1210045" transform="translate(21.368 22.774)">
        <path id="Trazado_1049262" data-name="Trazado 1049262" d="M366.535,218.655a7.2,7.2,0,1,0,0,10.187,7.2,7.2,0,0,0,0-10.187Zm-10.159,5.087a.764.764,0,0,1,1.018-1.138l2.972,2.664,5.187-3.709a.765.765,0,1,1,.886,1.246l-5.684,4.063a.764.764,0,0,1-.952-.053Z" transform="translate(-312.424 -190.837)" fill="#37b428" fill-rule="evenodd"/>
        <path id="Trazado_1049263" data-name="Trazado 1049263" d="M66.767,218.655a7.2,7.2,0,1,0,0,10.187A7.2,7.2,0,0,0,66.767,218.655Zm-10.159,5.087a.764.764,0,1,1,1.018-1.138l2.972,2.664,5.188-3.71a.765.765,0,1,1,.886,1.246l-5.684,4.063a.764.764,0,0,1-.952-.053Z" transform="translate(-54.47 -190.837)" fill="#37b428" fill-rule="evenodd"/>
        <path id="Trazado_1049264" data-name="Trazado 1049264" d="M204.591,34.993a9.412,9.412,0,1,0,0,13.311A9.412,9.412,0,0,0,204.591,34.993Zm-12.982,6.49a.764.764,0,1,1,1.018-1.138l3.922,3.515,6.762-4.836a.764.764,0,1,1,.886,1.246l-7.258,5.189a.764.764,0,0,1-.952-.053Z" transform="translate(-169.825 -32.237)" fill="#37b428" fill-rule="evenodd"/>
      </g>
    </g>
  </g>
</svg>
