<svg xmlns="http://www.w3.org/2000/svg" xmlns:xlink="http://www.w3.org/1999/xlink" width="113" height="113" viewBox="0 0 113 113">
  <defs>
    <filter id="Trazado_982547" x="0" y="0" width="113" height="113" filterUnits="userSpaceOnUse">
      <feOffset dy="3" input="SourceAlpha"/>
      <feGaussianBlur stdDeviation="3" result="blur"/>
      <feFlood flood-opacity="0.161"/>
      <feComposite operator="in" in2="blur"/>
      <feComposite in="SourceGraphic"/>
    </filter>
  </defs>
  <g id="Grupo_1209403" data-name="Grupo 1209403" transform="translate(-4773 -2332.216)">
    <g id="Grupo_1209057" data-name="Grupo 1209057" transform="translate(3661 1102)">
      <g id="Grupo_1209049" data-name="Grupo 1209049">
        <g id="Grupo_1208493" data-name="Grupo 1208493" transform="translate(0 -4397.209)">
          <g id="Grupo_1202104" data-name="Grupo 1202104" transform="translate(0 -1149.226)">
            <g id="Grupo_1201923" data-name="Grupo 1201923" transform="translate(-4174.49 4856.378)">
              <g id="Grupo_1176928" data-name="Grupo 1176928" transform="translate(5295.49 1926.273)">
                <g id="Grupo_1172322" data-name="Grupo 1172322" transform="translate(0 0)">
                  <g id="Grupo_1164700" data-name="Grupo 1164700">
                    <g id="Grupo_1160931" data-name="Grupo 1160931">
                      <g id="Grupo_1160749" data-name="Grupo 1160749">
                        <g id="Grupo_1158891" data-name="Grupo 1158891">
                          <g id="Grupo_1157406" data-name="Grupo 1157406">
                            <g id="Grupo_1155793" data-name="Grupo 1155793">
                              <g id="Grupo_1154704" data-name="Grupo 1154704">
                                <g id="Grupo_1150790" data-name="Grupo 1150790">
                                  <g id="Grupo_1154214" data-name="Grupo 1154214">
                                    <g id="Grupo_1152583" data-name="Grupo 1152583">
                                      <g id="Grupo_1146973" data-name="Grupo 1146973">
                                        <g id="Grupo_1146954" data-name="Grupo 1146954">
                                          <g transform="matrix(1, 0, 0, 1, -9, -6)" filter="url(#Trazado_982547)">
                                            <g id="Trazado_982547-2" data-name="Trazado 982547" transform="translate(9 6)" fill="#fef9e7">
                                              <path d="M 47.5000114440918 93.49987030029297 C 41.28938293457031 93.49987030029297 35.26534652709961 92.28384399414062 29.5951976776123 89.88558959960938 C 24.11773109436035 87.56881713867188 19.19814491271973 84.25183868408203 14.97310447692871 80.02680206298828 C 10.74805164337158 75.80176544189453 7.43107795715332 70.88218688964844 5.114304542541504 65.40472412109375 C 2.716038227081299 59.73458862304688 1.500011444091797 53.71054840087891 1.500011444091797 47.49993515014648 C 1.500011444091797 41.28932189941406 2.716038227081299 35.26528167724609 5.114304542541504 29.59514808654785 C 7.43107795715332 24.1176815032959 10.74805164337158 19.1981086730957 14.97310447692871 14.97306823730469 C 19.19814491271973 10.74802875518799 24.11773109436035 7.431055068969727 29.5951976776123 5.11428165435791 C 35.26534652709961 2.716028451919556 41.28938293457031 1.500001788139343 47.5000114440918 1.500001788139343 C 53.71063995361328 1.500001788139343 59.73467636108398 2.716028451919556 65.40482330322266 5.11428165435791 C 70.88229370117188 7.431055068969727 75.8018798828125 10.74802875518799 80.02691650390625 14.97306823730469 C 84.25196838378906 19.1981086730957 87.56894683837891 24.1176815032959 89.88571929931641 29.59514808654785 C 92.28398132324219 35.26528167724609 93.50001525878906 41.28932189941406 93.50001525878906 47.49993515014648 C 93.50001525878906 53.71054840087891 92.28398132324219 59.73458862304688 89.88571929931641 65.40472412109375 C 87.56894683837891 70.88218688964844 84.25196838378906 75.80176544189453 80.02691650390625 80.02680206298828 C 75.8018798828125 84.25183868408203 70.88229370117188 87.56881713867188 65.40482330322266 89.88558959960938 C 59.73467636108398 92.28384399414062 53.71063995361328 93.49987030029297 47.5000114440918 93.49987030029297 Z" stroke="none"/>
                                              <path d="M 47.5000114440918 3 C 41.49122619628906 3 35.66378021240234 4.1761474609375 30.17951965332031 6.495796203613281 C 24.880859375 8.7369384765625 20.12153625488281 11.94596862792969 16.03376770019531 16.03373718261719 C 11.94598388671875 20.12149047851562 8.736968994140625 24.88081359863281 6.495811462402344 30.17947387695312 C 4.176162719726562 35.66371917724609 3.000007629394531 41.49116516113281 3.000007629394531 47.49993515014648 C 3.000007629394531 53.50870513916016 4.176162719726562 59.33615112304688 6.495811462402344 64.82039642333984 C 8.736968994140625 70.11905670166016 11.94598388671875 74.87837982177734 16.03376770019531 78.96613311767578 C 20.12153625488281 83.05390167236328 24.880859375 86.26293182373047 30.17951965332031 88.50407409667969 C 35.66378021240234 90.82372283935547 41.49122619628906 91.99987030029297 47.5000114440918 91.99987030029297 C 53.50879669189453 91.99987030029297 59.33624267578125 90.82372283935547 64.82050323486328 88.50407409667969 C 70.11916351318359 86.26293182373047 74.87848663330078 83.05390167236328 78.96625518798828 78.96613311767578 C 83.05403900146484 74.87837982177734 86.2630615234375 70.11905670166016 88.50421142578125 64.82039642333984 C 90.82386016845703 59.33615112304688 92.00001525878906 53.50870513916016 92.00001525878906 47.49993515014648 C 92.00001525878906 41.49116516113281 90.82386016845703 35.66371917724609 88.50421142578125 30.17947387695312 C 86.2630615234375 24.88081359863281 83.05403900146484 20.12149047851562 78.96625518798828 16.03373718261719 C 74.87848663330078 11.94596862792969 70.11916351318359 8.7369384765625 64.82050323486328 6.495796203613281 C 59.33624267578125 4.1761474609375 53.50879669189453 3 47.5000114440918 3 M 47.5000114440918 0 C 73.73353576660156 0 95.00001525878906 21.26644134521484 95.00001525878906 47.49993515014648 C 95.00001525878906 73.73342895507812 73.73353576660156 94.99987030029297 47.5000114440918 94.99987030029297 C 21.26648712158203 94.99987030029297 7.62939453125e-06 73.73342895507812 7.62939453125e-06 47.49993515014648 C 7.62939453125e-06 21.26644134521484 21.26648712158203 0 47.5000114440918 0 Z" stroke="none" fill="#f8ce24"/>
                                            </g>
                                          </g>
                                        </g>
                                      </g>
                                    </g>
                                  </g>
                                </g>
                              </g>
                            </g>
                          </g>
                        </g>
                      </g>
                    </g>
                  </g>
                </g>
              </g>
            </g>
          </g>
        </g>
      </g>
    </g>
    <g id="glasses_6002822" transform="translate(4797.447 2351.664)">
      <path id="Trazado_1047672" data-name="Trazado 1047672" d="M3.137,41H5.274V53.821H3.137A2.137,2.137,0,0,1,1,51.684V43.137A2.137,2.137,0,0,1,3.137,41Z" transform="translate(0.068 2.806)" fill="#7f8e94"/>
      <path id="Trazado_1047673" data-name="Trazado 1047673" d="M10.342,58.369l-4-1.6A2.137,2.137,0,0,1,5,54.785v-14.2A2.137,2.137,0,0,1,6.343,38.6l4-1.6Z" transform="translate(0.342 2.532)" fill="#9e9e9e"/>
      <path id="Trazado_1047674" data-name="Trazado 1047674" d="M2.137,0H4.274V12.821H2.137A2.137,2.137,0,0,1,0,10.684V2.137A2.137,2.137,0,0,1,2.137,0Z" transform="translate(63.038 56.628) rotate(180)" fill="#7f8e94"/>
      <path id="Trazado_1047675" data-name="Trazado 1047675" d="M50,58.369l4-1.6a2.137,2.137,0,0,0,1.343-1.981v-14.2A2.137,2.137,0,0,0,54,38.6L50,37Z" transform="translate(3.422 2.532)" fill="#9e9e9e"/>
      <path id="Trazado_1047676" data-name="Trazado 1047676" d="M52.738,37.137V58.506A2.143,2.143,0,0,1,50.6,60.643H37.181a2.137,2.137,0,0,1-2.03-1.459l-.972-2.921a2.96,2.96,0,0,0-5.62,0l-.977,2.921a2.137,2.137,0,0,1-2.026,1.459H12.137A2.143,2.143,0,0,1,10,58.506V37.137A2.143,2.143,0,0,1,12.137,35H50.6a2.143,2.143,0,0,1,2.137,2.137Z" transform="translate(0.684 2.396)" fill="#02a9f4"/>
      <path id="Trazado_1047677" data-name="Trazado 1047677" d="M48.205,35H45a2.143,2.143,0,0,1,2.137,2.137V58.506A2.143,2.143,0,0,1,45,60.643h3.205a2.143,2.143,0,0,0,2.137-2.137V37.137A2.143,2.143,0,0,0,48.205,35Z" transform="translate(3.08 2.396)" fill="#0377bc"/>
      <path id="Trazado_1047678" data-name="Trazado 1047678" d="M19.685,37.327,10.08,28.6a3.3,3.3,0,0,1,4.132-5.126l5.473,3.9V7.411a3.205,3.205,0,0,1,6.411,0V4.205a3.205,3.205,0,1,1,6.411,0V7.411a3.205,3.205,0,0,1,6.411,0v3.205a3.205,3.205,0,1,1,6.411,0V37.327Z" transform="translate(0.616 0.069)" fill="#ffdf00"/>
      <path id="Trazado_1047679" data-name="Trazado 1047679" d="M40.1,7a3.171,3.171,0,0,0-1.6.444,3.191,3.191,0,0,1,1.6,2.761V36.916h3.205V10.205A3.205,3.205,0,0,0,40.1,7Z" transform="translate(2.635 0.479)" fill="#fec108"/>
      <path id="Trazado_1047680" data-name="Trazado 1047680" d="M23,35.411V31.137A2.137,2.137,0,0,1,25.137,29H37.958A2.137,2.137,0,0,1,40.1,31.137v4.274Z" transform="translate(1.574 1.985)" fill="#ff9801"/>
      <path id="Trazado_1047681" data-name="Trazado 1047681" d="M37.205,29H34a2.137,2.137,0,0,1,2.137,2.137v4.274h3.205V31.137A2.137,2.137,0,0,0,37.205,29Z" transform="translate(2.327 1.985)" fill="#f57c00"/>
      <path id="Trazado_1047682" data-name="Trazado 1047682" d="M14.068,42.274a1.068,1.068,0,0,1-.755-1.824l2.137-2.137a1.068,1.068,0,1,1,1.511,1.511l-2.137,2.137a1.068,1.068,0,0,1-.755.313Z" transform="translate(0.89 2.601)" fill="#f5f5f5"/>
      <path id="Trazado_1047683" data-name="Trazado 1047683" d="M14.068,48.548a1.068,1.068,0,0,1-.755-1.824l6.411-6.411a1.068,1.068,0,1,1,1.511,1.511l-6.411,6.411a1.068,1.068,0,0,1-.755.313Z" transform="translate(0.89 2.738)" fill="#f5f5f5"/>
      <path id="Trazado_1047684" data-name="Trazado 1047684" d="M60.9,42.738H59.8a3.187,3.187,0,0,0-1.987-2.6l-3.434-1.371a3.205,3.205,0,0,0-3.1-2.441H47.011V10.685A4.274,4.274,0,0,0,40.574,7a4.274,4.274,0,0,0-6.411-3.205,4.274,4.274,0,0,0-8.494,0,4.274,4.274,0,0,0-6.437,3.685V25.366l-3.777-2.7a4.369,4.369,0,0,0-5.478,6.787l7.559,6.872H12.821a3.205,3.205,0,0,0-3.1,2.441L6.288,40.14a3.185,3.185,0,0,0-1.986,2.6h-1.1A3.205,3.205,0,0,0,0,45.943v8.548A3.205,3.205,0,0,0,3.205,57.7H4.3a3.187,3.187,0,0,0,1.987,2.6l3.434,1.371a3.205,3.205,0,0,0,3.1,2.441h13.42a3.205,3.205,0,0,0,3.034-2.189L30.252,59a1.892,1.892,0,0,1,3.594,0l.977,2.921a3.205,3.205,0,0,0,3.043,2.19h13.42a3.205,3.205,0,0,0,3.1-2.441l3.431-1.372A3.185,3.185,0,0,0,59.8,57.7h1.1a3.205,3.205,0,0,0,3.205-3.205V45.943A3.205,3.205,0,0,0,60.9,42.738ZM11.415,27.874a2.232,2.232,0,0,1,2.8-3.467l5.469,3.907a1.068,1.068,0,0,0,1.689-.871V7.479a2.137,2.137,0,0,1,4.274,0V22.437a1.068,1.068,0,1,0,2.137,0V4.274a2.137,2.137,0,0,1,4.274,0V22.437a1.068,1.068,0,1,0,2.137,0V7.479a2.137,2.137,0,0,1,4.274,0V23.506a1.068,1.068,0,0,0,2.137,0V10.685a2.137,2.137,0,1,1,4.274,0V36.327H42.738V33.122a3.205,3.205,0,0,0-3.205-3.205H26.711a3.205,3.205,0,0,0-3.205,3.205v3.205H20.713ZM40.6,36.327H25.643V33.122a1.068,1.068,0,0,1,1.068-1.068H39.532A1.068,1.068,0,0,1,40.6,33.122ZM2.137,54.491V45.943a1.068,1.068,0,0,1,1.068-1.068H4.274V55.559H3.205A1.068,1.068,0,0,1,2.137,54.491Zm4.274,2.827v-14.2a1.068,1.068,0,0,1,.671-.991l2.535-1.014V59.323L7.083,58.31a1.068,1.068,0,0,1-.672-.993ZM51.285,61.97H37.866a1.068,1.068,0,0,1-1.013-.73l-.977-2.92a4.027,4.027,0,0,0-7.646,0l-.977,2.921a1.068,1.068,0,0,1-1.013.729H12.821A1.068,1.068,0,0,1,11.753,60.9V39.532a1.068,1.068,0,0,1,1.068-1.068H51.285a1.068,1.068,0,0,1,1.068,1.068V60.9a1.068,1.068,0,0,1-1.068,1.068ZM57.7,57.318a1.068,1.068,0,0,1-.671.991L54.49,59.323V41.111l2.533,1.013a1.068,1.068,0,0,1,.672.993Zm4.274-2.827A1.068,1.068,0,0,1,60.9,55.559H59.833V44.875H60.9a1.068,1.068,0,0,1,1.068,1.068Z"/>
    </g>
  </g>
</svg>
