<svg xmlns="http://www.w3.org/2000/svg" xmlns:xlink="http://www.w3.org/1999/xlink" width="113" height="113" viewBox="0 0 113 113">
  <defs>
    <filter id="Trazado_982547" x="0" y="0" width="113" height="113" filterUnits="userSpaceOnUse">
      <feOffset dy="3" input="SourceAlpha"/>
      <feGaussianBlur stdDeviation="3" result="blur"/>
      <feFlood flood-opacity="0.161"/>
      <feComposite operator="in" in2="blur"/>
      <feComposite in="SourceGraphic"/>
    </filter>
  </defs>
  <g id="Grupo_1209409" data-name="Grupo 1209409" transform="translate(-4442 -2692.216)">
    <g id="Grupo_1209058" data-name="Grupo 1209058" transform="translate(3330 1462)">
      <g id="Grupo_1209049" data-name="Grupo 1209049">
        <g id="Grupo_1208493" data-name="Grupo 1208493" transform="translate(0 -4397.209)">
          <g id="Grupo_1202104" data-name="Grupo 1202104" transform="translate(0 -1149.226)">
            <g id="Grupo_1201923" data-name="Grupo 1201923" transform="translate(-4174.49 4856.378)">
              <g id="Grupo_1176928" data-name="Grupo 1176928" transform="translate(5295.49 1926.273)">
                <g id="Grupo_1172322" data-name="Grupo 1172322" transform="translate(0 0)">
                  <g id="Grupo_1164700" data-name="Grupo 1164700">
                    <g id="Grupo_1160931" data-name="Grupo 1160931">
                      <g id="Grupo_1160749" data-name="Grupo 1160749">
                        <g id="Grupo_1158891" data-name="Grupo 1158891">
                          <g id="Grupo_1157406" data-name="Grupo 1157406">
                            <g id="Grupo_1155793" data-name="Grupo 1155793">
                              <g id="Grupo_1154704" data-name="Grupo 1154704">
                                <g id="Grupo_1150790" data-name="Grupo 1150790">
                                  <g id="Grupo_1154214" data-name="Grupo 1154214">
                                    <g id="Grupo_1152583" data-name="Grupo 1152583">
                                      <g id="Grupo_1146973" data-name="Grupo 1146973">
                                        <g id="Grupo_1146954" data-name="Grupo 1146954">
                                          <g transform="matrix(1, 0, 0, 1, -9, -6)" filter="url(#Trazado_982547)">
                                            <g id="Trazado_982547-2" data-name="Trazado 982547" transform="translate(9 6)" fill="#fef9e7">
                                              <path d="M 47.5000114440918 93.49987030029297 C 41.28938293457031 93.49987030029297 35.26534652709961 92.28384399414062 29.5951976776123 89.88558959960938 C 24.11773109436035 87.56881713867188 19.19814491271973 84.25183868408203 14.97310447692871 80.02680206298828 C 10.74805164337158 75.80176544189453 7.43107795715332 70.88218688964844 5.114304542541504 65.40472412109375 C 2.716038227081299 59.73458862304688 1.500011444091797 53.71054840087891 1.500011444091797 47.49993515014648 C 1.500011444091797 41.28932189941406 2.716038227081299 35.26528167724609 5.114304542541504 29.59514808654785 C 7.43107795715332 24.1176815032959 10.74805164337158 19.1981086730957 14.97310447692871 14.97306823730469 C 19.19814491271973 10.74802875518799 24.11773109436035 7.431055068969727 29.5951976776123 5.11428165435791 C 35.26534652709961 2.716028451919556 41.28938293457031 1.500001788139343 47.5000114440918 1.500001788139343 C 53.71063995361328 1.500001788139343 59.73467636108398 2.716028451919556 65.40482330322266 5.11428165435791 C 70.88229370117188 7.431055068969727 75.8018798828125 10.74802875518799 80.02691650390625 14.97306823730469 C 84.25196838378906 19.1981086730957 87.56894683837891 24.1176815032959 89.88571929931641 29.59514808654785 C 92.28398132324219 35.26528167724609 93.50001525878906 41.28932189941406 93.50001525878906 47.49993515014648 C 93.50001525878906 53.71054840087891 92.28398132324219 59.73458862304688 89.88571929931641 65.40472412109375 C 87.56894683837891 70.88218688964844 84.25196838378906 75.80176544189453 80.02691650390625 80.02680206298828 C 75.8018798828125 84.25183868408203 70.88229370117188 87.56881713867188 65.40482330322266 89.88558959960938 C 59.73467636108398 92.28384399414062 53.71063995361328 93.49987030029297 47.5000114440918 93.49987030029297 Z" stroke="none"/>
                                              <path d="M 47.5000114440918 3 C 41.49122619628906 3 35.66378021240234 4.1761474609375 30.17951965332031 6.495796203613281 C 24.880859375 8.7369384765625 20.12153625488281 11.94596862792969 16.03376770019531 16.03373718261719 C 11.94598388671875 20.12149047851562 8.736968994140625 24.88081359863281 6.495811462402344 30.17947387695312 C 4.176162719726562 35.66371917724609 3.000007629394531 41.49116516113281 3.000007629394531 47.49993515014648 C 3.000007629394531 53.50870513916016 4.176162719726562 59.33615112304688 6.495811462402344 64.82039642333984 C 8.736968994140625 70.11905670166016 11.94598388671875 74.87837982177734 16.03376770019531 78.96613311767578 C 20.12153625488281 83.05390167236328 24.880859375 86.26293182373047 30.17951965332031 88.50407409667969 C 35.66378021240234 90.82372283935547 41.49122619628906 91.99987030029297 47.5000114440918 91.99987030029297 C 53.50879669189453 91.99987030029297 59.33624267578125 90.82372283935547 64.82050323486328 88.50407409667969 C 70.11916351318359 86.26293182373047 74.87848663330078 83.05390167236328 78.96625518798828 78.96613311767578 C 83.05403900146484 74.87837982177734 86.2630615234375 70.11905670166016 88.50421142578125 64.82039642333984 C 90.82386016845703 59.33615112304688 92.00001525878906 53.50870513916016 92.00001525878906 47.49993515014648 C 92.00001525878906 41.49116516113281 90.82386016845703 35.66371917724609 88.50421142578125 30.17947387695312 C 86.2630615234375 24.88081359863281 83.05403900146484 20.12149047851562 78.96625518798828 16.03373718261719 C 74.87848663330078 11.94596862792969 70.11916351318359 8.7369384765625 64.82050323486328 6.495796203613281 C 59.33624267578125 4.1761474609375 53.50879669189453 3 47.5000114440918 3 M 47.5000114440918 0 C 73.73353576660156 0 95.00001525878906 21.26644134521484 95.00001525878906 47.49993515014648 C 95.00001525878906 73.73342895507812 73.73353576660156 94.99987030029297 47.5000114440918 94.99987030029297 C 21.26648712158203 94.99987030029297 7.62939453125e-06 73.73342895507812 7.62939453125e-06 47.49993515014648 C 7.62939453125e-06 21.26644134521484 21.26648712158203 0 47.5000114440918 0 Z" stroke="none" fill="#f8ce24"/>
                                            </g>
                                          </g>
                                        </g>
                                      </g>
                                    </g>
                                  </g>
                                </g>
                              </g>
                            </g>
                          </g>
                        </g>
                      </g>
                    </g>
                  </g>
                </g>
              </g>
            </g>
          </g>
        </g>
      </g>
    </g>
    <g id="barrel_7654994" transform="translate(4445.88 2709.007)">
      <g id="Grupo_1209408" data-name="Grupo 1209408" transform="translate(25.531 7.5)">
        <g id="Grupo_1209405" data-name="Grupo 1209405" transform="translate(20.707 5.818)">
          <rect id="Rectángulo_418868" data-name="Rectángulo 418868" width="31.399" height="45.989" transform="translate(1.037 3.305)" fill="#ffe177"/>
          <rect id="Rectángulo_418869" data-name="Rectángulo 418869" width="18.025" height="45.989" transform="translate(1.037 3.305)" fill="#ffd15b"/>
          <path id="Trazado_1047685" data-name="Trazado 1047685" d="M241.916,96.627v-11.5h-31.4v45.989h31.4v-30.37" transform="translate(-209.48 -81.817)" fill="none" stroke="#000" stroke-linecap="round" stroke-linejoin="round" stroke-miterlimit="10" stroke-width="1.5"/>
          <path id="Trazado_1047686" data-name="Trazado 1047686" d="M234.581,476.378h-32.3a.588.588,0,0,0-.588.588v2.13a.588.588,0,0,0,.588.588h32.3a.588.588,0,0,0,.588-.588v-2.13A.588.588,0,0,0,234.581,476.378Z" transform="translate(-201.696 -427.084)" fill="#ffc344"/>
          <path id="Trazado_1047687" data-name="Trazado 1047687" d="M221.8,479.1v-2.13a.588.588,0,0,1,.588-.588H202.284a.588.588,0,0,0-.588.588v2.13a.588.588,0,0,0,.588.588h20.108A.588.588,0,0,1,221.8,479.1Z" transform="translate(-201.696 -427.084)" fill="#feb137"/>
          <path id="Trazado_1047688" data-name="Trazado 1047688" d="M234.581,476.378h-32.3a.588.588,0,0,0-.588.588v2.13a.588.588,0,0,0,.588.588h32.3a.588.588,0,0,0,.588-.588v-2.13A.588.588,0,0,0,234.581,476.378Z" transform="translate(-201.696 -427.084)" fill="none" stroke="#000" stroke-linecap="round" stroke-linejoin="round" stroke-miterlimit="10" stroke-width="1.5"/>
          <path id="Trazado_1047689" data-name="Trazado 1047689" d="M234.581,57h-32.3a.588.588,0,0,0-.588.588v2.13a.588.588,0,0,0,.588.588h32.3a.588.588,0,0,0,.588-.588v-2.13A.588.588,0,0,0,234.581,57Z" transform="translate(-201.696 -57)" fill="#ffc344"/>
          <path id="Trazado_1047690" data-name="Trazado 1047690" d="M221.8,59.718v-2.13a.588.588,0,0,1,.588-.588H202.284a.588.588,0,0,0-.588.588v2.13a.588.588,0,0,0,.588.588h20.108A.588.588,0,0,1,221.8,59.718Z" transform="translate(-201.696 -57)" fill="#feb137"/>
          <path id="Trazado_1047691" data-name="Trazado 1047691" d="M234.581,57h-32.3a.588.588,0,0,0-.588.588v2.13a.588.588,0,0,0,.588.588h32.3a.588.588,0,0,0,.588-.588v-2.13A.588.588,0,0,0,234.581,57Z" transform="translate(-201.696 -57)" fill="none" stroke="#000" stroke-linecap="round" stroke-linejoin="round" stroke-miterlimit="10" stroke-width="1.5"/>
          <g id="Grupo_1209404" data-name="Grupo 1209404" transform="translate(0.398 12.121)">
            <line id="Línea_1308" data-name="Línea 1308" x1="32.676" transform="translate(0 28.357)" fill="none" stroke="#000" stroke-linecap="round" stroke-linejoin="round" stroke-miterlimit="10" stroke-width="1.5"/>
            <line id="Línea_1309" data-name="Línea 1309" x2="32.676" fill="none" stroke="#000" stroke-linecap="round" stroke-linejoin="round" stroke-miterlimit="10" stroke-width="1.5"/>
          </g>
        </g>
        <rect id="Rectángulo_418870" data-name="Rectángulo 418870" width="34.872" height="51.076" transform="translate(1.151 3.671)" fill="#01c0fa"/>
        <line id="Línea_1310" data-name="Línea 1310" y2="51.076" transform="translate(36.024 3.671)" fill="none" stroke="#000" stroke-linecap="round" stroke-linejoin="round" stroke-miterlimit="10" stroke-width="1.5"/>
        <rect id="Rectángulo_418871" data-name="Rectángulo 418871" width="5.016" height="51.076" transform="translate(1.151 3.671)" fill="#08a9f1"/>
        <line id="Línea_1311" data-name="Línea 1311" y1="51.076" transform="translate(1.151 3.671)" fill="none" stroke="#000" stroke-linecap="round" stroke-linejoin="round" stroke-miterlimit="10" stroke-width="1.5"/>
        <path id="Trazado_1047692" data-name="Trazado 1047692" d="M62.118,473.268h-36a.588.588,0,0,0-.588.588v2.5a.588.588,0,0,0,.588.588h36a.588.588,0,0,0,.588-.588v-2.5A.588.588,0,0,0,62.118,473.268Z" transform="translate(-25.531 -418.521)" fill="#08a9f1"/>
        <path id="Trazado_1047693" data-name="Trazado 1047693" d="M31.463,476.351v-2.5a.588.588,0,0,1,.588-.588H26.119a.588.588,0,0,0-.588.588v2.5a.588.588,0,0,0,.588.588h5.932A.588.588,0,0,1,31.463,476.351Z" transform="translate(-25.531 -418.521)" fill="#0290cf"/>
        <path id="Trazado_1047694" data-name="Trazado 1047694" d="M62.118,7.5h-36a.588.588,0,0,0-.588.588v2.5a.588.588,0,0,0,.588.588h36a.588.588,0,0,0,.588-.588v-2.5A.588.588,0,0,0,62.118,7.5Z" transform="translate(-25.531 -7.5)" fill="#08a9f1"/>
        <path id="Trazado_1047695" data-name="Trazado 1047695" d="M31.463,10.583v-2.5a.588.588,0,0,1,.588-.588H26.119a.588.588,0,0,0-.588.588v2.5a.588.588,0,0,0,.588.588h5.932A.588.588,0,0,1,31.463,10.583Z" transform="translate(-25.531 -7.5)" fill="#0290cf"/>
        <path id="Trazado_1047696" data-name="Trazado 1047696" d="M36.635,473.268H26.119a.588.588,0,0,0-.588.588v2.5a.588.588,0,0,0,.588.588h36a.588.588,0,0,0,.588-.588v-2.5a.588.588,0,0,0-.588-.588H40.749" transform="translate(-25.531 -418.521)" fill="none" stroke="#000" stroke-linecap="round" stroke-linejoin="round" stroke-miterlimit="10" stroke-width="1.5"/>
        <path id="Trazado_1047697" data-name="Trazado 1047697" d="M54.736,11.171h7.382a.588.588,0,0,0,.588-.588v-2.5a.588.588,0,0,0-.588-.588h-36a.588.588,0,0,0-.588.588v2.5a.588.588,0,0,0,.588.588h24.5" transform="translate(-25.531 -7.5)" fill="none" stroke="#000" stroke-linecap="round" stroke-linejoin="round" stroke-miterlimit="10" stroke-width="1.5"/>
        <g id="Grupo_1209406" data-name="Grupo 1209406" transform="translate(0.369 14.615)">
          <line id="Línea_1312" data-name="Línea 1312" x1="36.438" transform="translate(0 29.188)" fill="none" stroke="#000" stroke-linecap="round" stroke-linejoin="round" stroke-miterlimit="10" stroke-width="1.5"/>
          <line id="Línea_1313" data-name="Línea 1313" x2="36.438" fill="none" stroke="#000" stroke-linecap="round" stroke-linejoin="round" stroke-miterlimit="10" stroke-width="1.5"/>
        </g>
        <path id="Trazado_1047698" data-name="Trazado 1047698" d="M121.776,169.853l-7.226,12.516a.911.911,0,0,0,.789,1.367h14.452a.911.911,0,0,0,.789-1.367l-7.226-12.516A.912.912,0,0,0,121.776,169.853Z" transform="translate(-103.978 -150.368)" fill="#ffe177"/>
        <path id="Trazado_1047699" data-name="Trazado 1047699" d="M118.5,182.368l6.042-10.465-1.184-2.05a.912.912,0,0,0-1.579,0l-7.226,12.516a.911.911,0,0,0,.789,1.367h3.946A.911.911,0,0,1,118.5,182.368Z" transform="translate(-103.978 -150.367)" fill="#ffd15b"/>
        <path id="Trazado_1047700" data-name="Trazado 1047700" d="M121.776,169.853l-7.226,12.516a.911.911,0,0,0,.789,1.367h14.452a.911.911,0,0,0,.789-1.367l-7.226-12.516A.912.912,0,0,0,121.776,169.853Z" transform="translate(-103.978 -150.368)" fill="none" stroke="#000" stroke-linecap="round" stroke-linejoin="round" stroke-miterlimit="10" stroke-width="1.5"/>
        <line id="Línea_1314" data-name="Línea 1314" x2="15.992" transform="translate(10.592 38.147)" fill="none" stroke="#000" stroke-linecap="round" stroke-linejoin="round" stroke-miterlimit="10" stroke-width="1.5"/>
        <g id="Grupo_1209407" data-name="Grupo 1209407" transform="translate(18.588 23.865)">
          <line id="Línea_1315" data-name="Línea 1315" y2="3.773" fill="none" stroke="#000" stroke-linecap="round" stroke-linejoin="round" stroke-miterlimit="10" stroke-width="1.5"/>
          <line id="Línea_1316" data-name="Línea 1316" y2="0.28" transform="translate(0 6.602)" fill="none" stroke="#000" stroke-linecap="round" stroke-linejoin="round" stroke-miterlimit="10" stroke-width="1.5"/>
        </g>
      </g>
      <path id="Trazado_1047701" data-name="Trazado 1047701" d="M411.774,241h-8.186a.588.588,0,0,0-.588.588V252.4a.588.588,0,0,0,.588.588h8.186Z" transform="translate(-333.101 -206.054)" fill="#9b8e99"/>
      <path id="Trazado_1047702" data-name="Trazado 1047702" d="M407.038,252.4V241.588a.588.588,0,0,1,.588-.588h-4.038a.588.588,0,0,0-.588.588V252.4a.588.588,0,0,0,.588.588h4.038A.588.588,0,0,1,407.038,252.4Z" transform="translate(-333.101 -206.054)" fill="#918291"/>
      <path id="Trazado_1047703" data-name="Trazado 1047703" d="M411.774,241h-8.186a.588.588,0,0,0-.588.588V252.4a.588.588,0,0,0,.588.588h8.186Z" transform="translate(-333.101 -206.054)" fill="none" stroke="#000" stroke-linecap="round" stroke-linejoin="round" stroke-miterlimit="10" stroke-width="1.5"/>
    </g>
  </g>
</svg>
