<svg xmlns="http://www.w3.org/2000/svg" xmlns:xlink="http://www.w3.org/1999/xlink" width="113" height="113" viewBox="0 0 113 113">
  <defs>
    <filter id="Trazado_982547" x="0" y="0" width="113" height="113" filterUnits="userSpaceOnUse">
      <feOffset dy="3" input="SourceAlpha"/>
      <feGaussianBlur stdDeviation="3" result="blur"/>
      <feFlood flood-opacity="0.161"/>
      <feComposite operator="in" in2="blur"/>
      <feComposite in="SourceGraphic"/>
    </filter>
  </defs>
  <g id="Grupo_1209411" data-name="Grupo 1209411" transform="translate(-4774 -2692.216)">
    <g id="Grupo_1209059" data-name="Grupo 1209059" transform="translate(3662 1462)">
      <g id="Grupo_1209049" data-name="Grupo 1209049">
        <g id="Grupo_1208493" data-name="Grupo 1208493" transform="translate(0 -4397.209)">
          <g id="Grupo_1202104" data-name="Grupo 1202104" transform="translate(0 -1149.226)">
            <g id="Grupo_1201923" data-name="Grupo 1201923" transform="translate(-4174.49 4856.378)">
              <g id="Grupo_1176928" data-name="Grupo 1176928" transform="translate(5295.49 1926.273)">
                <g id="Grupo_1172322" data-name="Grupo 1172322" transform="translate(0 0)">
                  <g id="Grupo_1164700" data-name="Grupo 1164700">
                    <g id="Grupo_1160931" data-name="Grupo 1160931">
                      <g id="Grupo_1160749" data-name="Grupo 1160749">
                        <g id="Grupo_1158891" data-name="Grupo 1158891">
                          <g id="Grupo_1157406" data-name="Grupo 1157406">
                            <g id="Grupo_1155793" data-name="Grupo 1155793">
                              <g id="Grupo_1154704" data-name="Grupo 1154704">
                                <g id="Grupo_1150790" data-name="Grupo 1150790">
                                  <g id="Grupo_1154214" data-name="Grupo 1154214">
                                    <g id="Grupo_1152583" data-name="Grupo 1152583">
                                      <g id="Grupo_1146973" data-name="Grupo 1146973">
                                        <g id="Grupo_1146954" data-name="Grupo 1146954">
                                          <g transform="matrix(1, 0, 0, 1, -9, -6)" filter="url(#Trazado_982547)">
                                            <g id="Trazado_982547-2" data-name="Trazado 982547" transform="translate(9 6)" fill="#fef9e7">
                                              <path d="M 47.5000114440918 93.49987030029297 C 41.28938293457031 93.49987030029297 35.26534652709961 92.28384399414062 29.5951976776123 89.88558959960938 C 24.11773109436035 87.56881713867188 19.19814491271973 84.25183868408203 14.97310447692871 80.02680206298828 C 10.74805164337158 75.80176544189453 7.43107795715332 70.88218688964844 5.114304542541504 65.40472412109375 C 2.716038227081299 59.73458862304688 1.500011444091797 53.71054840087891 1.500011444091797 47.49993515014648 C 1.500011444091797 41.28932189941406 2.716038227081299 35.26528167724609 5.114304542541504 29.59514808654785 C 7.43107795715332 24.1176815032959 10.74805164337158 19.1981086730957 14.97310447692871 14.97306823730469 C 19.19814491271973 10.74802875518799 24.11773109436035 7.431055068969727 29.5951976776123 5.11428165435791 C 35.26534652709961 2.716028451919556 41.28938293457031 1.500001788139343 47.5000114440918 1.500001788139343 C 53.71063995361328 1.500001788139343 59.73467636108398 2.716028451919556 65.40482330322266 5.11428165435791 C 70.88229370117188 7.431055068969727 75.8018798828125 10.74802875518799 80.02691650390625 14.97306823730469 C 84.25196838378906 19.1981086730957 87.56894683837891 24.1176815032959 89.88571929931641 29.59514808654785 C 92.28398132324219 35.26528167724609 93.50001525878906 41.28932189941406 93.50001525878906 47.49993515014648 C 93.50001525878906 53.71054840087891 92.28398132324219 59.73458862304688 89.88571929931641 65.40472412109375 C 87.56894683837891 70.88218688964844 84.25196838378906 75.80176544189453 80.02691650390625 80.02680206298828 C 75.8018798828125 84.25183868408203 70.88229370117188 87.56881713867188 65.40482330322266 89.88558959960938 C 59.73467636108398 92.28384399414062 53.71063995361328 93.49987030029297 47.5000114440918 93.49987030029297 Z" stroke="none"/>
                                              <path d="M 47.5000114440918 3 C 41.49122619628906 3 35.66378021240234 4.1761474609375 30.17951965332031 6.495796203613281 C 24.880859375 8.7369384765625 20.12153625488281 11.94596862792969 16.03376770019531 16.03373718261719 C 11.94598388671875 20.12149047851562 8.736968994140625 24.88081359863281 6.495811462402344 30.17947387695312 C 4.176162719726562 35.66371917724609 3.000007629394531 41.49116516113281 3.000007629394531 47.49993515014648 C 3.000007629394531 53.50870513916016 4.176162719726562 59.33615112304688 6.495811462402344 64.82039642333984 C 8.736968994140625 70.11905670166016 11.94598388671875 74.87837982177734 16.03376770019531 78.96613311767578 C 20.12153625488281 83.05390167236328 24.880859375 86.26293182373047 30.17951965332031 88.50407409667969 C 35.66378021240234 90.82372283935547 41.49122619628906 91.99987030029297 47.5000114440918 91.99987030029297 C 53.50879669189453 91.99987030029297 59.33624267578125 90.82372283935547 64.82050323486328 88.50407409667969 C 70.11916351318359 86.26293182373047 74.87848663330078 83.05390167236328 78.96625518798828 78.96613311767578 C 83.05403900146484 74.87837982177734 86.2630615234375 70.11905670166016 88.50421142578125 64.82039642333984 C 90.82386016845703 59.33615112304688 92.00001525878906 53.50870513916016 92.00001525878906 47.49993515014648 C 92.00001525878906 41.49116516113281 90.82386016845703 35.66371917724609 88.50421142578125 30.17947387695312 C 86.2630615234375 24.88081359863281 83.05403900146484 20.12149047851562 78.96625518798828 16.03373718261719 C 74.87848663330078 11.94596862792969 70.11916351318359 8.7369384765625 64.82050323486328 6.495796203613281 C 59.33624267578125 4.1761474609375 53.50879669189453 3 47.5000114440918 3 M 47.5000114440918 0 C 73.73353576660156 0 95.00001525878906 21.26644134521484 95.00001525878906 47.49993515014648 C 95.00001525878906 73.73342895507812 73.73353576660156 94.99987030029297 47.5000114440918 94.99987030029297 C 21.26648712158203 94.99987030029297 7.62939453125e-06 73.73342895507812 7.62939453125e-06 47.49993515014648 C 7.62939453125e-06 21.26644134521484 21.26648712158203 0 47.5000114440918 0 Z" stroke="none" fill="#f8ce24"/>
                                            </g>
                                          </g>
                                        </g>
                                      </g>
                                    </g>
                                  </g>
                                </g>
                              </g>
                            </g>
                          </g>
                        </g>
                      </g>
                    </g>
                  </g>
                </g>
              </g>
            </g>
          </g>
        </g>
      </g>
    </g>
    <g id="point_14147733" transform="translate(4798.461 2713.638)">
      <ellipse id="Elipse_12680" data-name="Elipse 12680" cx="10" cy="4" rx="10" ry="4" transform="translate(22 24)" fill="#e59876"/>
      <path id="Trazado_1047704" data-name="Trazado 1047704" d="M32,3a8,8,0,0,1,7.19,11.63L32,29,24.81,14.63A8,8,0,0,1,32,3Z" fill="#dc2725"/>
      <circle id="Elipse_12681" data-name="Elipse 12681" cx="4" cy="4" r="4" transform="translate(28 7)" fill="#fda41a"/>
      <path id="Trazado_1047705" data-name="Trazado 1047705" d="M21,11,15,7V9H3v4H15v2Z" fill="#7fc8e2"/>
      <path id="Trazado_1047706" data-name="Trazado 1047706" d="M43,10l6-4V8H61v4H49v2Z" fill="#7fc8e2"/>
      <path id="Trazado_1047707" data-name="Trazado 1047707" d="M42.14,46.84l-5.14,4L41.33,61l3.74-3.76-2.05-4.32,10.27-7.99-.88-6.08-1.32-9.12L40.16,33.17l.88,6.08Z" fill="#7f7f7f"/>
      <g id="Grupo_1209410" data-name="Grupo 1209410">
        <path id="Trazado_1047708" data-name="Trazado 1047708" d="M32,40.15l3.9,3.09,5.14-3.99-.88-6.08-5.14,3.99-.31-.11.31.11,5.14-3.99" fill="#4c4c4c"/>
        <path id="Trazado_1047709" data-name="Trazado 1047709" d="M51.09,29.73,61,38.93l-.95,3.28-7.64-3.36" fill="#4c4c4c"/>
        <path id="Trazado_1047710" data-name="Trazado 1047710" d="M34.71,37.05l.31.11,5.14-3.99" fill="#4c4c4c"/>
        <path id="Trazado_1047711" data-name="Trazado 1047711" d="M53.29,44.93l.88,6.08L60,53l.66,4.56-10.23-2.8-1.88-6.14" fill="#4c4c4c"/>
      </g>
      <path id="Trazado_1047712" data-name="Trazado 1047712" d="M21.86,46.84l5.14,4L22.67,61l-3.74-3.76,2.05-4.32L10.71,44.93l.88-6.08,1.32-9.12,10.93,3.44-.88,6.08Z" fill="#7f7f7f"/>
      <path id="Trazado_1047713" data-name="Trazado 1047713" d="M12.91,29.73,3,38.93l.96,3.28,7.63-3.36" fill="#4c4c4c"/>
      <path id="Trazado_1047714" data-name="Trazado 1047714" d="M22.96,39.25l5.14,3.99,6.46-5.12L35,35.08l-6.02,2.08-5.14-3.99" fill="#4c4c4c"/>
      <path id="Trazado_1047715" data-name="Trazado 1047715" d="M10.71,44.93l-.88,6.08L4,53l-.66,4.56,10.23-2.8,1.88-6.14" fill="#4c4c4c"/>
      <circle id="Elipse_12682" data-name="Elipse 12682" cx="4" cy="4" r="4" transform="translate(17 22)" fill="#6d6d6d"/>
      <circle id="Elipse_12683" data-name="Elipse 12683" cx="4" cy="4" r="4" transform="translate(39 22)" fill="#6d6d6d"/>
      <path id="Trazado_1047716" data-name="Trazado 1047716" d="M2,60H14v2H2Z"/>
      <path id="Trazado_1047717" data-name="Trazado 1047717" d="M3,14H14v1a.988.988,0,0,0,1.53.83l6-4a1,1,0,0,0,0-1.66l-6-4A1.033,1.033,0,0,0,14,7V8H3A1,1,0,0,0,2,9v4a1,1,0,0,0,1,1Zm1-4H15a1,1,0,0,0,1-1V8.87L19.2,11,16,13.13V13a1,1,0,0,0-1-1H4Z"/>
      <path id="Trazado_1047718" data-name="Trazado 1047718" d="M16,60h2v2H16Z"/>
      <path id="Trazado_1047719" data-name="Trazado 1047719" d="M50,60H62v2H50Z"/>
      <path id="Trazado_1047720" data-name="Trazado 1047720" d="M61,7H50V6a1.03,1.03,0,0,0-1.53-.88l-6,4a1,1,0,0,0,0,1.66l6,4A1,1,0,0,0,50,14V13H61a1,1,0,0,0,1-1V8A1,1,0,0,0,61,7Zm-1,4H49a1,1,0,0,0-1,1v.13L44.8,10,48,7.87V8a1,1,0,0,0,1,1H60Z"/>
      <path id="Trazado_1047721" data-name="Trazado 1047721" d="M60.4,58.52a.75.75,0,0,0,.26,0,1,1,0,0,0,1-1.14L61,52.86a1,1,0,0,0-.67-.81l-5.25-1.79-1.41-9.77,6,2.63a1,1,0,0,0,.41.09,1.06,1.06,0,0,0,.42-.09,1.08,1.08,0,0,0,.54-.63l1-3.28a1,1,0,0,0-.28-1L51.77,29l-.14-.12a1,1,0,0,0-.84-.1l-6,1.88a4.982,4.982,0,1,0-5.85-7.56,5.17,5.17,0,0,0-.5.84,18.37,18.37,0,0,0-2.5-.59l4.12-8.23a9,9,0,1,0-16.16,0L28,23.31a18.37,18.37,0,0,0-2.5.59,5.17,5.17,0,0,0-.5-.84,5,5,0,1,0-8,5.88,4.9,4.9,0,0,0,2.25,1.72l-6-1.88a1,1,0,0,0-.84.1l-.14.12L2.32,38.2a1,1,0,0,0-.28,1l1,3.28a1.08,1.08,0,0,0,.54.63A1.06,1.06,0,0,0,4,43.2a1,1,0,0,0,.41-.09l6-2.63L8.93,50.26,3.68,52.05a1,1,0,0,0-.67.81l-.66,4.56a1,1,0,0,0,1,1.14.75.75,0,0,0,.26,0l10.24-2.79a1,1,0,0,0,.69-.67L16,50.3l3.76,2.92L18,56.81A1,1,0,0,0,18.22,58L22,61.71a1,1,0,0,0,.7.29h.19a1,1,0,0,0,.73-.59l4.33-10.16a1,1,0,0,0-.3-1.18l-4.68-3.64.77-5.32L27.49,44a1,1,0,0,0,1.23,0L32,41.43,35.28,44a.987.987,0,0,0,1.23.01l3.78-2.93.77,5.31-4.68,3.64a1,1,0,0,0-.3,1.18l4.33,10.16a1,1,0,0,0,.73.59h.19a1,1,0,0,0,.7-.29L45.78,58A1,1,0,0,0,46,56.81l-1.71-3.59L48,50.3l1.45,4.76a1,1,0,0,0,.69.67Zm-1-17.69-6.08-2.67-.83-5.77,7.38,6.85ZM42.53,23a3,3,0,1,1-2,1.2,3,3,0,0,1,2-1.2ZM26,7.34a7.024,7.024,0,1,1,12.27,6.84L32,26.76,25.71,14.18A7,7,0,0,1,26,7.34Zm5.09,22.11a1,1,0,0,0,1.78,0L35,25.2a17,17,0,0,1,3,.66,4.78,4.78,0,0,0,.05.92,5,5,0,0,0,1.42,2.75A16.77,16.77,0,0,1,32,31a16.77,16.77,0,0,1-7.48-1.47,5,5,0,0,0,1.42-2.75,4.78,4.78,0,0,0,0-.92,17,17,0,0,1,3-.66ZM18,25.53A3,3,0,0,1,21,23a2.59,2.59,0,0,1,.48,0A3,3,0,1,1,18,25.53Zm2.18,5.41A5.25,5.25,0,0,0,21,31a4.8,4.8,0,0,0,1.64-.29C24.58,32.13,28.06,33,32,33s7.42-.87,9.35-2.29A4.8,4.8,0,0,0,43,31a5.35,5.35,0,0,0,.79-.06,5.12,5.12,0,0,0,.77-.2l-4.69,1.47a.89.89,0,0,0-.33.19L36,35.14a1,1,0,0,0-1.35-1L29.17,36l-4.71-3.66a1.09,1.09,0,0,0-.32-.17L19.45,30.7a4.83,4.83,0,0,0,.77.24ZM4.6,40.83l-.47-1.59,7.38-6.85-.83,5.77Zm8.18,13.11L4.55,56.19l.35-2.44L10.15,52a1,1,0,0,0,.67-.8l.63-4.38L14.29,49Zm13-2.78-3.44,8.08L20.14,57l1.75-3.69a1,1,0,0,0-.29-1.22l-9.82-7.64,2-13.45,9,2.83L20.87,46.7a1,1,0,0,0,.38.93ZM28.1,42,24,38.81l.55-3.8L28.37,38a1,1,0,0,0,.94.16l4.46-1.54-.14,1Zm7.81,0-2.3-1.82,1.57-1.24a1,1,0,0,0,.37-.64V38l3.86-3,.55,3.8Zm6.2,11.38L43.86,57l-2.2,2.2-3.44-8.08,4.53-3.53a1,1,0,0,0,.38-.93L41.27,33.87l9-2.83,1.95,13.45L42.4,52.13a1,1,0,0,0-.29,1.22ZM49.71,49l2.84-2.21.63,4.38a1,1,0,0,0,.67.8l5.25,1.8.35,2.44-8.23-2.25Z"/>
      <path id="Trazado_1047722" data-name="Trazado 1047722" d="M46,60h2v2H46Z"/>
      <path id="Trazado_1047723" data-name="Trazado 1047723" d="M37,11a5,5,0,1,0-5,5A5,5,0,0,0,37,11Zm-8,0a3,3,0,1,1,3,3A3,3,0,0,1,29,11Z"/>
    </g>
  </g>
</svg>
