<svg xmlns="http://www.w3.org/2000/svg" xmlns:xlink="http://www.w3.org/1999/xlink" width="113" height="113" viewBox="0 0 113 113">
  <defs>
    <filter id="Trazado_982547" x="0" y="0" width="113" height="113" filterUnits="userSpaceOnUse">
      <feOffset dy="3" input="SourceAlpha"/>
      <feGaussianBlur stdDeviation="3" result="blur"/>
      <feFlood flood-opacity="0.161"/>
      <feComposite operator="in" in2="blur"/>
      <feComposite in="SourceGraphic"/>
    </filter>
  </defs>
  <g id="Grupo_1209412" data-name="Grupo 1209412" transform="translate(-4442 -3052.216)">
    <g id="Grupo_1209060" data-name="Grupo 1209060" transform="translate(3330 1822)">
      <g id="Grupo_1209049" data-name="Grupo 1209049">
        <g id="Grupo_1208493" data-name="Grupo 1208493" transform="translate(0 -4397.209)">
          <g id="Grupo_1202104" data-name="Grupo 1202104" transform="translate(0 -1149.226)">
            <g id="Grupo_1201923" data-name="Grupo 1201923" transform="translate(-4174.49 4856.378)">
              <g id="Grupo_1176928" data-name="Grupo 1176928" transform="translate(5295.49 1926.273)">
                <g id="Grupo_1172322" data-name="Grupo 1172322" transform="translate(0 0)">
                  <g id="Grupo_1164700" data-name="Grupo 1164700">
                    <g id="Grupo_1160931" data-name="Grupo 1160931">
                      <g id="Grupo_1160749" data-name="Grupo 1160749">
                        <g id="Grupo_1158891" data-name="Grupo 1158891">
                          <g id="Grupo_1157406" data-name="Grupo 1157406">
                            <g id="Grupo_1155793" data-name="Grupo 1155793">
                              <g id="Grupo_1154704" data-name="Grupo 1154704">
                                <g id="Grupo_1150790" data-name="Grupo 1150790">
                                  <g id="Grupo_1154214" data-name="Grupo 1154214">
                                    <g id="Grupo_1152583" data-name="Grupo 1152583">
                                      <g id="Grupo_1146973" data-name="Grupo 1146973">
                                        <g id="Grupo_1146954" data-name="Grupo 1146954">
                                          <g transform="matrix(1, 0, 0, 1, -9, -6)" filter="url(#Trazado_982547)">
                                            <g id="Trazado_982547-2" data-name="Trazado 982547" transform="translate(9 6)" fill="#fef9e7">
                                              <path d="M 47.5000114440918 93.49987030029297 C 41.28938293457031 93.49987030029297 35.26534652709961 92.28384399414062 29.5951976776123 89.88558959960938 C 24.11773109436035 87.56881713867188 19.19814491271973 84.25183868408203 14.97310447692871 80.02680206298828 C 10.74805164337158 75.80176544189453 7.43107795715332 70.88218688964844 5.114304542541504 65.40472412109375 C 2.716038227081299 59.73458862304688 1.500011444091797 53.71054840087891 1.500011444091797 47.49993515014648 C 1.500011444091797 41.28932189941406 2.716038227081299 35.26528167724609 5.114304542541504 29.59514808654785 C 7.43107795715332 24.1176815032959 10.74805164337158 19.1981086730957 14.97310447692871 14.97306823730469 C 19.19814491271973 10.74802875518799 24.11773109436035 7.431055068969727 29.5951976776123 5.11428165435791 C 35.26534652709961 2.716028451919556 41.28938293457031 1.500001788139343 47.5000114440918 1.500001788139343 C 53.71063995361328 1.500001788139343 59.73467636108398 2.716028451919556 65.40482330322266 5.11428165435791 C 70.88229370117188 7.431055068969727 75.8018798828125 10.74802875518799 80.02691650390625 14.97306823730469 C 84.25196838378906 19.1981086730957 87.56894683837891 24.1176815032959 89.88571929931641 29.59514808654785 C 92.28398132324219 35.26528167724609 93.50001525878906 41.28932189941406 93.50001525878906 47.49993515014648 C 93.50001525878906 53.71054840087891 92.28398132324219 59.73458862304688 89.88571929931641 65.40472412109375 C 87.56894683837891 70.88218688964844 84.25196838378906 75.80176544189453 80.02691650390625 80.02680206298828 C 75.8018798828125 84.25183868408203 70.88229370117188 87.56881713867188 65.40482330322266 89.88558959960938 C 59.73467636108398 92.28384399414062 53.71063995361328 93.49987030029297 47.5000114440918 93.49987030029297 Z" stroke="none"/>
                                              <path d="M 47.5000114440918 3 C 41.49122619628906 3 35.66378021240234 4.1761474609375 30.17951965332031 6.495796203613281 C 24.880859375 8.7369384765625 20.12153625488281 11.94596862792969 16.03376770019531 16.03373718261719 C 11.94598388671875 20.12149047851562 8.736968994140625 24.88081359863281 6.495811462402344 30.17947387695312 C 4.176162719726562 35.66371917724609 3.000007629394531 41.49116516113281 3.000007629394531 47.49993515014648 C 3.000007629394531 53.50870513916016 4.176162719726562 59.33615112304688 6.495811462402344 64.82039642333984 C 8.736968994140625 70.11905670166016 11.94598388671875 74.87837982177734 16.03376770019531 78.96613311767578 C 20.12153625488281 83.05390167236328 24.880859375 86.26293182373047 30.17951965332031 88.50407409667969 C 35.66378021240234 90.82372283935547 41.49122619628906 91.99987030029297 47.5000114440918 91.99987030029297 C 53.50879669189453 91.99987030029297 59.33624267578125 90.82372283935547 64.82050323486328 88.50407409667969 C 70.11916351318359 86.26293182373047 74.87848663330078 83.05390167236328 78.96625518798828 78.96613311767578 C 83.05403900146484 74.87837982177734 86.2630615234375 70.11905670166016 88.50421142578125 64.82039642333984 C 90.82386016845703 59.33615112304688 92.00001525878906 53.50870513916016 92.00001525878906 47.49993515014648 C 92.00001525878906 41.49116516113281 90.82386016845703 35.66371917724609 88.50421142578125 30.17947387695312 C 86.2630615234375 24.88081359863281 83.05403900146484 20.12149047851562 78.96625518798828 16.03373718261719 C 74.87848663330078 11.94596862792969 70.11916351318359 8.7369384765625 64.82050323486328 6.495796203613281 C 59.33624267578125 4.1761474609375 53.50879669189453 3 47.5000114440918 3 M 47.5000114440918 0 C 73.73353576660156 0 95.00001525878906 21.26644134521484 95.00001525878906 47.49993515014648 C 95.00001525878906 73.73342895507812 73.73353576660156 94.99987030029297 47.5000114440918 94.99987030029297 C 21.26648712158203 94.99987030029297 7.62939453125e-06 73.73342895507812 7.62939453125e-06 47.49993515014648 C 7.62939453125e-06 21.26644134521484 21.26648712158203 0 47.5000114440918 0 Z" stroke="none" fill="#f8ce24"/>
                                            </g>
                                          </g>
                                        </g>
                                      </g>
                                    </g>
                                  </g>
                                </g>
                              </g>
                            </g>
                          </g>
                        </g>
                      </g>
                    </g>
                  </g>
                </g>
              </g>
            </g>
          </g>
        </g>
      </g>
    </g>
    <g id="first-aid_5029320" transform="translate(4467 3074)">
      <path id="Trazado_1047724" data-name="Trazado 1047724" d="M15,8v5h4V8H37v5h4V8a4,4,0,0,0-4-4H19a4,4,0,0,0-4,4Z" fill="#646464"/>
      <path id="Trazado_1047725" data-name="Trazado 1047725" d="M53,17a4,4,0,0,0-4-4H7a4,4,0,0,0-4,4v3H53Z" fill="#f65d69"/>
      <path id="Trazado_1047726" data-name="Trazado 1047726" d="M3,20V48a4,4,0,0,0,4,4H49a4,4,0,0,0,4-4V20Z" fill="#ef3c4d"/>
      <path id="Trazado_1047727" data-name="Trazado 1047727" d="M36,32H30V26H26v6H20v4h6v6h4V36h6Z" fill="#fff"/>
      <path id="Trazado_1047728" data-name="Trazado 1047728" d="M59,60H47a2,2,0,0,1-2-2V47l4-4h8l4,4V58A2,2,0,0,1,59,60Z" fill="#ffd20a"/>
      <path id="Trazado_1047729" data-name="Trazado 1047729" d="M49,39h8v4H49Z" fill="#f0f0f0"/>
      <path id="Trazado_1047730" data-name="Trazado 1047730" d="M53,33a2,2,0,0,0-2,2v5h4V35A2,2,0,0,0,53,33Z" fill="#f0f0f0"/>
      <path id="Trazado_1047731" data-name="Trazado 1047731" d="M28,56H40v4H28Z" fill="#e1e1e1"/>
      <path id="Trazado_1047732" data-name="Trazado 1047732" d="M40,44a8,8,0,1,0,8,8A8,8,0,0,0,40,44Zm0,12a4,4,0,1,1,4-4A4,4,0,0,1,40,56Z" fill="#f0f0f0"/>
      <path id="Trazado_1047733" data-name="Trazado 1047733" d="M37,36V32a1,1,0,0,0-1-1H31V26a1,1,0,0,0-1-1H26a1,1,0,0,0-1,1v5H20a1,1,0,0,0-1,1v4a1,1,0,0,0,1,1h5v5a1,1,0,0,0,1,1h4a1,1,0,0,0,1-1V37h5A1,1,0,0,0,37,36Zm-2-1H30a1,1,0,0,0-1,1v5H27V36a1,1,0,0,0-1-1H21V33h5a1,1,0,0,0,1-1V27h2v5a1,1,0,0,0,1,1h5Z"/>
      <path id="Trazado_1047734" data-name="Trazado 1047734" d="M61.71,46.29,58,42.59V39a1,1,0,0,0-1-1H56V35a3,3,0,0,0-2-2.82V17a5,5,0,0,0-5-5H42V8a5,5,0,0,0-5-5H19a5,5,0,0,0-5,5v4H7a5,5,0,0,0-5,5V48a5,5,0,0,0,5,5H31.06a9,9,0,0,0,.47,2H28a1,1,0,0,0-1,1v4a1,1,0,0,0,1,1H40a9,9,0,0,0,4.57-1.26A3,3,0,0,0,47,61H59a3,3,0,0,0,3-3V47A1,1,0,0,0,61.71,46.29ZM53,34a1,1,0,0,1,1,1v4a1,1,0,0,0,1,1h1v2H50V40h1a1,1,0,0,0,1-1V35A1,1,0,0,1,53,34ZM16,8a3,3,0,0,1,3-3H37a3,3,0,0,1,3,3v4H38V8a1,1,0,0,0-1-1H19a1,1,0,0,0-1,1v4H16ZM36,9v3H20V9ZM4,17a3,3,0,0,1,3-3H49a3,3,0,0,1,3,3v2H4ZM31.06,51H7a3,3,0,0,1-3-3V21H52V32.18A3,3,0,0,0,50,35v3H49a1,1,0,0,0-1,1v3.59L45.61,45A8.91,8.91,0,0,0,40,43a9,9,0,0,0-8.94,8ZM29,59V57h3.52a9,9,0,0,0,1.84,2Zm11,0a7,7,0,1,1,7-7A7,7,0,0,1,40,59Zm20-1a1,1,0,0,1-1,1H47a1,1,0,0,1-.83-.47A9,9,0,0,0,47,46.39L49.41,44h7.18L60,47.41Z"/>
      <path id="Trazado_1047735" data-name="Trazado 1047735" d="M40,47a5,5,0,1,0,5,5,5,5,0,0,0-5-5Zm0,8a3,3,0,0,1-2.82-2h5.64A3,3,0,0,1,40,55Zm-2.82-4a3,3,0,0,1,5.64,0Z"/>
    </g>
  </g>
</svg>
