<svg xmlns="http://www.w3.org/2000/svg" xmlns:xlink="http://www.w3.org/1999/xlink" width="796.446" height="498.474" viewBox="0 0 796.446 498.474">
  <defs>
    <linearGradient id="linear-gradient" x1="-1.4" y1="0.483" x2="2.971" y2="0.483" gradientUnits="objectBoundingBox">
      <stop offset="0" stop-color="#b4b4b3"/>
      <stop offset="0.04" stop-color="#bfbfbe"/>
      <stop offset="0.15" stop-color="#d6d6d6"/>
      <stop offset="0.27" stop-color="#e8e8e8"/>
      <stop offset="0.41" stop-color="#f5f5f5"/>
      <stop offset="0.6" stop-color="#fcfcfc"/>
      <stop offset="1" stop-color="#fff"/>
    </linearGradient>
  </defs>
  <g id="Grupo_1209170" data-name="Grupo 1209170" transform="translate(-414.496 -3647.312)">
    <g id="OBJECTS" transform="translate(549.995 3649.743)">
      <g id="Grupo_1209074" data-name="Grupo 1209074">
        <g id="Grupo_1209072" data-name="Grupo 1209072">
          <g id="Grupo_1209069" data-name="Grupo 1209069">
            <path id="Trazado_1046600" data-name="Trazado 1046600" d="M442.66,110.33l-3.43-2.49a.811.811,0,0,0-.94,0l-3.89,2.92a.789.789,0,0,0-.28.87l1.15,3.64a.775.775,0,0,1-.14.73,16.031,16.031,0,0,0-1.06,1.53.8.8,0,0,1-.68.39h-3.38a.792.792,0,0,0-.76.57l-1.42,4.76a.806.806,0,0,0,.28.86l3.24,2.49a.806.806,0,0,1,.31.59,15.527,15.527,0,0,0,.19,1.79.8.8,0,0,1-.22.69l-3.03,2.98a.793.793,0,0,0-.16.91l2.2,4.57a.786.786,0,0,0,.8.44l4.41-.46a.828.828,0,0,1,.66.24,19.415,19.415,0,0,0,1.78,1.62.78.78,0,0,1,.3.54l.45,4.61a.787.787,0,0,0,.6.69l4.79,1.21a.8.8,0,0,0,.87-.35l1.68-2.73a.831.831,0,0,1,.73-.38q.6.03,1.2.03a.779.779,0,0,1,.59.25l3.37,3.56a.8.8,0,0,0,.92.17l4.37-2.1a.772.772,0,0,0,.44-.81l-.46-3.7a.819.819,0,0,1,.31-.73c.32-.24.62-.5.92-.77a.782.782,0,0,1,.7-.19l4.09.86a.8.8,0,0,0,.86-.4l2.34-4.34a.787.787,0,0,0-.1-.9l-2.7-3.09a.76.76,0,0,1-.17-.69c.07-.34.14-.69.19-1.04a.787.787,0,0,1,.4-.58l3.62-2a.814.814,0,0,0,.4-.85l-.97-4.96a.787.787,0,0,0-.65-.63l-3.75-.63a.765.765,0,0,1-.58-.45h0c-.21-.43-.43-.85-.67-1.26a.8.8,0,0,1-.03-.75l1.63-3.38a.777.777,0,0,0-.15-.9l-3.54-3.6a.8.8,0,0,0-.91-.16l-3.84,1.87a.8.8,0,0,1-.69,0c-.35-.17-.71-.32-1.07-.46a.812.812,0,0,1-.49-.56l-.92-3.9a.8.8,0,0,0-.69-.61l-4.88-.53a.787.787,0,0,0-.81.47l-1.79,4.09a.825.825,0,0,1-.53.45c-.09.03-.19.05-.28.08a.773.773,0,0,1-.69-.12Zm9.69,25.43a9.607,9.607,0,1,1,4.32-12.74A9.506,9.506,0,0,1,452.35,135.76Z" fill="#3b6da5"/>
            <path id="Trazado_1046601" data-name="Trazado 1046601" d="M443.89,111.01l-3.43-2.49a.811.811,0,0,0-.94,0l-3.89,2.92a.789.789,0,0,0-.28.87l1.15,3.64a.775.775,0,0,1-.14.73,16.031,16.031,0,0,0-1.06,1.53.8.8,0,0,1-.68.39h-3.38a.792.792,0,0,0-.76.57l-1.42,4.76a.806.806,0,0,0,.28.86l3.24,2.49a.806.806,0,0,1,.31.59,15.766,15.766,0,0,0,.19,1.79.8.8,0,0,1-.22.69l-3.03,2.98a.793.793,0,0,0-.16.91l2.2,4.57a.809.809,0,0,0,.8.45l4.41-.46a.816.816,0,0,1,.66.24,19.415,19.415,0,0,0,1.78,1.62.78.78,0,0,1,.3.54l.45,4.61a.787.787,0,0,0,.6.69l4.79,1.21a.8.8,0,0,0,.87-.35l1.68-2.73a.831.831,0,0,1,.73-.38q.6.03,1.2.03a.779.779,0,0,1,.59.25l3.37,3.56a.8.8,0,0,0,.92.17l4.37-2.1a.772.772,0,0,0,.44-.81l-.46-3.7a.819.819,0,0,1,.31-.73c.32-.24.62-.5.92-.77a.782.782,0,0,1,.7-.19l4.09.86a.8.8,0,0,0,.86-.4l2.34-4.34a.787.787,0,0,0-.1-.9l-2.7-3.09a.76.76,0,0,1-.17-.69c.07-.34.14-.69.19-1.04a.787.787,0,0,1,.4-.58l3.62-2a.814.814,0,0,0,.4-.85l-.97-4.96a.787.787,0,0,0-.65-.63l-3.75-.63a.765.765,0,0,1-.58-.45h0c-.21-.43-.43-.85-.67-1.26a.8.8,0,0,1-.03-.75l1.63-3.38a.777.777,0,0,0-.15-.9l-3.54-3.6a.8.8,0,0,0-.91-.16l-3.84,1.87a.8.8,0,0,1-.69,0c-.35-.17-.71-.32-1.07-.46a.812.812,0,0,1-.49-.56l-.92-3.9a.8.8,0,0,0-.69-.61l-4.88-.53a.787.787,0,0,0-.81.47l-1.79,4.09a.825.825,0,0,1-.53.45c-.09.03-.19.05-.28.08a.773.773,0,0,1-.69-.12Zm9.31,25.6a9.6,9.6,0,1,1,4.87-12.54A9.513,9.513,0,0,1,453.2,136.61Z" fill="#3b6da5"/>
          </g>
          <g id="Grupo_1209070" data-name="Grupo 1209070">
            <path id="Trazado_1046602" data-name="Trazado 1046602" d="M454.9,152.14l-1.91-1.39a.451.451,0,0,0-.52,0l-2.17,1.62a.458.458,0,0,0-.16.49l.64,2.03a.467.467,0,0,1-.08.41,9.906,9.906,0,0,0-.59.85.45.45,0,0,1-.38.22h-1.88a.429.429,0,0,0-.42.32l-.79,2.65a.438.438,0,0,0,.15.48l1.81,1.38a.466.466,0,0,1,.17.33c.02.33.05.66.1,1a.463.463,0,0,1-.12.39l-1.69,1.66a.458.458,0,0,0-.09.51l1.23,2.55a.438.438,0,0,0,.44.25l2.46-.25a.435.435,0,0,1,.36.14,8.382,8.382,0,0,0,.99.9.438.438,0,0,1,.17.3l.25,2.57a.449.449,0,0,0,.33.39l2.67.67a.424.424,0,0,0,.48-.2l.94-1.52a.448.448,0,0,1,.41-.21c.22.01.44.02.67.02a.471.471,0,0,1,.33.14l1.88,1.98a.427.427,0,0,0,.51.09l2.44-1.17a.444.444,0,0,0,.25-.45l-.26-2.06a.46.46,0,0,1,.17-.41c.18-.14.35-.28.51-.43a.436.436,0,0,1,.39-.11l2.28.48a.443.443,0,0,0,.48-.22l1.3-2.42a.44.44,0,0,0-.06-.5l-1.5-1.72a.46.46,0,0,1-.1-.39c.04-.19.08-.38.11-.58a.417.417,0,0,1,.22-.32l2.02-1.11a.43.43,0,0,0,.22-.47l-.54-2.77a.448.448,0,0,0-.36-.35l-2.09-.35a.464.464,0,0,1-.33-.25h0c-.12-.24-.24-.47-.37-.7a.477.477,0,0,1-.02-.42l.91-1.88a.44.44,0,0,0-.08-.5l-1.97-2a.442.442,0,0,0-.51-.09l-2.14,1.04a.424.424,0,0,1-.38,0c-.2-.09-.39-.18-.59-.26a.423.423,0,0,1-.27-.31l-.51-2.17a.448.448,0,0,0-.38-.34l-2.72-.3a.443.443,0,0,0-.45.26l-1,2.28a.454.454,0,0,1-.29.25c-.05.01-.11.03-.16.04a.428.428,0,0,1-.39-.07Zm5.39,14.16a5.35,5.35,0,1,1,2.41-7.1A5.3,5.3,0,0,1,460.29,166.3Z" fill="#3b6da5"/>
            <path id="Trazado_1046603" data-name="Trazado 1046603" d="M455.58,152.51l-1.91-1.39a.451.451,0,0,0-.52,0l-2.17,1.62a.458.458,0,0,0-.16.49l.64,2.03a.467.467,0,0,1-.08.41,9.906,9.906,0,0,0-.59.85.45.45,0,0,1-.38.22h-1.88a.429.429,0,0,0-.42.32l-.79,2.65a.438.438,0,0,0,.15.48l1.81,1.39a.466.466,0,0,1,.17.33c.02.33.05.66.1,1a.463.463,0,0,1-.12.39l-1.69,1.66a.458.458,0,0,0-.09.51l1.23,2.55a.438.438,0,0,0,.44.25l2.46-.25a.435.435,0,0,1,.36.14,8.382,8.382,0,0,0,.99.9.438.438,0,0,1,.17.3l.25,2.57a.449.449,0,0,0,.33.39l2.67.67a.424.424,0,0,0,.48-.2l.94-1.52a.448.448,0,0,1,.41-.21c.22.01.44.02.67.02a.471.471,0,0,1,.33.14l1.88,1.98a.427.427,0,0,0,.51.09l2.44-1.17a.444.444,0,0,0,.25-.45l-.26-2.06a.46.46,0,0,1,.17-.41c.18-.14.35-.28.51-.43a.436.436,0,0,1,.39-.11l2.28.48a.443.443,0,0,0,.48-.22l1.3-2.42a.44.44,0,0,0-.06-.5l-1.5-1.72a.46.46,0,0,1-.1-.39c.04-.19.08-.38.11-.58a.417.417,0,0,1,.22-.32l2.02-1.11a.43.43,0,0,0,.22-.47l-.54-2.77a.448.448,0,0,0-.36-.35l-2.09-.35a.464.464,0,0,1-.33-.25h0c-.12-.24-.24-.47-.37-.7a.477.477,0,0,1-.02-.42l.91-1.88a.44.44,0,0,0-.08-.5l-1.97-2a.442.442,0,0,0-.51-.09l-2.14,1.04a.424.424,0,0,1-.38,0c-.2-.09-.39-.18-.59-.26a.423.423,0,0,1-.27-.31l-.51-2.17a.448.448,0,0,0-.38-.34l-2.72-.3a.443.443,0,0,0-.45.26l-1,2.28a.454.454,0,0,1-.29.25c-.05.01-.11.03-.16.04a.455.455,0,0,1-.39-.06Zm5.4,14.16a5.35,5.35,0,1,1,2.41-7.1A5.3,5.3,0,0,1,460.98,166.67Z" fill="#3b6da5"/>
          </g>
          <g id="Grupo_1209071" data-name="Grupo 1209071">
            <path id="Trazado_1046604" data-name="Trazado 1046604" d="M373.36,176.71l-6.51.02a1.221,1.221,0,0,0-1.16.86l-2.18,7.13a1.238,1.238,0,0,0,.44,1.34l4.72,3.46a1.2,1.2,0,0,1,.49,1.03,27.307,27.307,0,0,0,.07,2.86,1.216,1.216,0,0,1-.49,1.1l-4.19,3.06a1.224,1.224,0,0,0-.43,1.39l2.55,7.18a1.207,1.207,0,0,0,1.12.81l6.27.15a1.187,1.187,0,0,1,.91.45,27.375,27.375,0,0,0,1.85,2.05,1.229,1.229,0,0,1,.35,1.06l-1.06,6.44a1.23,1.23,0,0,0,.63,1.27l6.86,3.67a1.228,1.228,0,0,0,1.39-.17l5.05-4.55a1.21,1.21,0,0,1,1.03-.29,26.89,26.89,0,0,0,3.67.39,1.225,1.225,0,0,1,.87.4l4.73,5.3a1.223,1.223,0,0,0,1.36.32l7.03-2.83a1.22,1.22,0,0,0,.76-1.22l-.39-4.9a1.235,1.235,0,0,1,.57-1.13c.51-.33,1.02-.68,1.51-1.05a1.217,1.217,0,0,1,.96-.23l7.39,1.36a1.215,1.215,0,0,0,1.29-.62l3.51-6.56a1.212,1.212,0,0,0-.19-1.41l-3.91-4.16a1.235,1.235,0,0,1-.28-1.19c.17-.59.32-1.18.44-1.78a1.221,1.221,0,0,1,.69-.87l5.84-2.64a1.2,1.2,0,0,0,.7-1.27l-1.03-7.48a1.214,1.214,0,0,0-.94-1.02l-6.14-1.39a1.214,1.214,0,0,1-.84-.7c-.22-.49-.45-.98-.7-1.46a1.209,1.209,0,0,1-.03-1.08l2.68-5.75a1.225,1.225,0,0,0-.28-1.41l-5.69-5.28a1.218,1.218,0,0,0-1.37-.2l-5.22,2.62a1.22,1.22,0,0,1-1.13-.03h0c-.65-.35-1.3-.66-1.96-.95a1.207,1.207,0,0,1-.72-.9l-1.04-5.66a1.2,1.2,0,0,0-1-.98l-7.64-1.25a1.216,1.216,0,0,0-1.27.63l-3.06,5.78a1.206,1.206,0,0,1-.85.62c-.58.11-1.16.24-1.74.4a1.211,1.211,0,0,1-1.11-.25l-4.67-4a1.206,1.206,0,0,0-1.4-.13l-6.53,3.76a1.216,1.216,0,0,0-.58,1.32l1.48,6.68a1.2,1.2,0,0,1-.25,1.03c-.09.12-.19.24-.28.36a1.222,1.222,0,0,1-.96.48Zm34.99,22.74a14.726,14.726,0,1,1-6.16-19.69A14.6,14.6,0,0,1,408.35,199.45Z" fill="#3b6da5"/>
            <path id="Trazado_1046605" data-name="Trazado 1046605" d="M375.49,176.44l-6.51.02a1.221,1.221,0,0,0-1.16.86l-2.18,7.13a1.238,1.238,0,0,0,.44,1.34l4.72,3.46a1.2,1.2,0,0,1,.49,1.03,27.307,27.307,0,0,0,.07,2.86,1.216,1.216,0,0,1-.49,1.1l-4.19,3.06a1.224,1.224,0,0,0-.43,1.39l2.55,7.18a1.207,1.207,0,0,0,1.12.81l6.27.15a1.187,1.187,0,0,1,.91.45,27.375,27.375,0,0,0,1.85,2.05,1.229,1.229,0,0,1,.35,1.06l-1.06,6.44a1.23,1.23,0,0,0,.63,1.27l6.86,3.67a1.228,1.228,0,0,0,1.39-.17l5.05-4.55a1.21,1.21,0,0,1,1.03-.29,26.89,26.89,0,0,0,3.67.39,1.225,1.225,0,0,1,.87.4l4.73,5.3a1.223,1.223,0,0,0,1.36.32l7.03-2.83a1.22,1.22,0,0,0,.76-1.22l-.39-4.9a1.235,1.235,0,0,1,.57-1.13c.51-.33,1.02-.68,1.51-1.05a1.217,1.217,0,0,1,.96-.23l7.39,1.36a1.215,1.215,0,0,0,1.29-.62l3.51-6.56a1.212,1.212,0,0,0-.19-1.41l-3.91-4.16a1.235,1.235,0,0,1-.28-1.19c.17-.59.32-1.18.44-1.78a1.221,1.221,0,0,1,.69-.87l5.84-2.64a1.2,1.2,0,0,0,.7-1.27l-1.03-7.48a1.214,1.214,0,0,0-.94-1.02l-6.14-1.39a1.214,1.214,0,0,1-.84-.7c-.22-.49-.45-.98-.7-1.46a1.208,1.208,0,0,1-.03-1.08l2.68-5.75a1.225,1.225,0,0,0-.28-1.41l-5.69-5.28a1.218,1.218,0,0,0-1.37-.2l-5.22,2.62a1.22,1.22,0,0,1-1.13-.03h0c-.65-.35-1.3-.66-1.96-.95a1.207,1.207,0,0,1-.72-.9l-1.04-5.66a1.2,1.2,0,0,0-1-.98l-7.64-1.25a1.216,1.216,0,0,0-1.27.63l-3.06,5.78a1.206,1.206,0,0,1-.85.62c-.58.11-1.16.24-1.74.4a1.211,1.211,0,0,1-1.11-.25l-4.67-4a1.206,1.206,0,0,0-1.4-.13l-6.53,3.76a1.216,1.216,0,0,0-.58,1.32l1.48,6.68a1.2,1.2,0,0,1-.25,1.03c-.09.12-.19.24-.28.36a1.222,1.222,0,0,1-.96.48Zm35,22.73a14.726,14.726,0,1,1-6.16-19.69A14.6,14.6,0,0,1,410.49,199.17Z" fill="#3b6da5"/>
          </g>
        </g>
        <g id="Grupo_1209073" data-name="Grupo 1209073">
          <path id="Trazado_1046606" data-name="Trazado 1046606" d="M264.1,450.21l5.64-5.87a1.513,1.513,0,0,0,.23-1.79l-4.52-8.15a1.511,1.511,0,0,0-1.59-.76l-7.22,1.24a1.54,1.54,0,0,1-1.36-.45,31.68,31.68,0,0,0-2.63-2.42,1.531,1.531,0,0,1-.56-1.4l.88-6.43a1.524,1.524,0,0,0-.88-1.59l-8.68-3.95a1.532,1.532,0,0,0-1.7.3l-5.58,5.51a1.533,1.533,0,0,1-1.2.43,30.432,30.432,0,0,0-3.45-.11,1.558,1.558,0,0,1-1.26-.61l-4.87-6.55a1.53,1.53,0,0,0-1.69-.54l-9.26,2.98a1.525,1.525,0,0,0-1.05,1.4l-.29,8.5a1.522,1.522,0,0,1-.64,1.18,32.727,32.727,0,0,0-3.54,2.97,1.5,1.5,0,0,1-1.11.43l-8.88-.35a1.522,1.522,0,0,0-1.47.95l-3.55,8.79a1.532,1.532,0,0,0,.44,1.75l4.74,3.91a1.528,1.528,0,0,1,.52,1.49c-.15.75-.27,1.5-.37,2.27a1.5,1.5,0,0,1-.62,1.06l-7.65,5.47a1.5,1.5,0,0,0-.56,1.7l2.85,8.86a1.526,1.526,0,0,0,1.43,1.06l7.15.1a1.531,1.531,0,0,1,1.31.78c.38.67.79,1.32,1.21,1.95a1.511,1.511,0,0,1,.18,1.38l-2.7,7.54a1.538,1.538,0,0,0,.53,1.74l7.63,5.58a1.521,1.521,0,0,0,1.73.04l6.58-4.32a1.492,1.492,0,0,1,1.36-.15q.945.345,1.92.63a1.539,1.539,0,0,1,1,.91l2.85,7.4a1.506,1.506,0,0,0,1.5.97l9.69-.53a1.52,1.52,0,0,0,1.37-1.07l2.18-6.97a1.522,1.522,0,0,1,1-.99h0c.87-.28,1.73-.6,2.56-.94a1.515,1.515,0,0,1,1.43.13l6,3.98a1.5,1.5,0,0,0,1.75-.05l7.76-5.79a1.53,1.53,0,0,0,.54-1.69l-2.55-7.78a1.529,1.529,0,0,1,.18-1.3c.41-.62.79-1.26,1.15-1.91a1.5,1.5,0,0,1,1.18-.78l7.65-.73a1.512,1.512,0,0,0,1.33-1.15l2.29-9.14a1.527,1.527,0,0,0-.68-1.67l-7.3-4.47a1.505,1.505,0,0,1-.71-1.12c-.02-.19-.05-.37-.08-.56a1.534,1.534,0,0,1,.4-1.29Zm-50.87,11.74a18.429,18.429,0,1,1,23.08,11.56A18.249,18.249,0,0,1,213.23,461.95Z" fill="#3b6da5"/>
          <path id="Trazado_1046607" data-name="Trazado 1046607" d="M120.9,409.24l5.64-5.87a1.513,1.513,0,0,0,.23-1.79l-4.52-8.15a1.511,1.511,0,0,0-1.59-.76l-7.22,1.24a1.54,1.54,0,0,1-1.36-.45,31.68,31.68,0,0,0-2.63-2.42,1.531,1.531,0,0,1-.56-1.4l.88-6.43a1.524,1.524,0,0,0-.88-1.59l-8.68-3.95a1.532,1.532,0,0,0-1.7.3l-5.58,5.51a1.533,1.533,0,0,1-1.2.43,30.432,30.432,0,0,0-3.45-.11,1.558,1.558,0,0,1-1.26-.61l-4.87-6.55a1.53,1.53,0,0,0-1.69-.54l-9.26,2.98a1.525,1.525,0,0,0-1.05,1.4l-.29,8.5a1.522,1.522,0,0,1-.64,1.18,32.727,32.727,0,0,0-3.54,2.97,1.5,1.5,0,0,1-1.11.43l-8.88-.35a1.508,1.508,0,0,0-1.47.95l-3.55,8.79a1.532,1.532,0,0,0,.44,1.75l4.74,3.91a1.528,1.528,0,0,1,.52,1.49c-.15.75-.27,1.5-.37,2.27a1.5,1.5,0,0,1-.62,1.06l-7.65,5.47a1.5,1.5,0,0,0-.56,1.7l2.85,8.86a1.526,1.526,0,0,0,1.43,1.06l7.15.1a1.531,1.531,0,0,1,1.31.78c.38.67.79,1.32,1.21,1.95a1.511,1.511,0,0,1,.18,1.38l-2.7,7.54a1.538,1.538,0,0,0,.53,1.74l7.63,5.58a1.521,1.521,0,0,0,1.73.04l6.58-4.32a1.492,1.492,0,0,1,1.36-.15q.945.345,1.92.63a1.515,1.515,0,0,1,1,.91l2.85,7.4a1.506,1.506,0,0,0,1.5.97l9.69-.53a1.52,1.52,0,0,0,1.37-1.07l2.18-6.97a1.522,1.522,0,0,1,1-.99h0c.87-.28,1.73-.6,2.56-.94a1.515,1.515,0,0,1,1.43.13l6,3.98a1.518,1.518,0,0,0,1.75-.05l7.76-5.79a1.53,1.53,0,0,0,.54-1.69l-2.55-7.78a1.556,1.556,0,0,1,.18-1.31c.41-.62.79-1.26,1.15-1.91a1.5,1.5,0,0,1,1.18-.78l7.65-.73a1.512,1.512,0,0,0,1.33-1.15l2.29-9.14a1.527,1.527,0,0,0-.68-1.67l-7.3-4.47a1.505,1.505,0,0,1-.71-1.12c-.02-.19-.05-.37-.08-.56a1.525,1.525,0,0,1,.4-1.29ZM70.04,420.98a18.429,18.429,0,1,1,23.08,11.56A18.249,18.249,0,0,1,70.04,420.98Z" fill="#3b6da5"/>
          <path id="Trazado_1046608" data-name="Trazado 1046608" d="M292.56,323.35l3.46-3.6a.938.938,0,0,0,.14-1.1l-2.78-5.01a.941.941,0,0,0-.98-.47l-4.43.76a.916.916,0,0,1-.83-.28,17.438,17.438,0,0,0-1.62-1.48.92.92,0,0,1-.34-.86l.54-3.95a.927.927,0,0,0-.54-.98l-5.33-2.42a.917.917,0,0,0-1.04.19l-3.42,3.39a.92.92,0,0,1-.74.26c-.7-.06-1.41-.08-2.12-.07a.957.957,0,0,1-.77-.37l-2.99-4.02a.946.946,0,0,0-1.04-.33l-5.69,1.83a.935.935,0,0,0-.65.86l-.18,5.22a.929.929,0,0,1-.39.73,20.1,20.1,0,0,0-2.17,1.82.911.911,0,0,1-.68.26l-5.45-.21a.925.925,0,0,0-.9.58l-2.18,5.39a.943.943,0,0,0,.27,1.07l2.91,2.4a.937.937,0,0,1,.32.92c-.09.46-.17.92-.22,1.39a.935.935,0,0,1-.38.65l-4.69,3.36a.95.95,0,0,0-.35,1.05l1.75,5.44a.947.947,0,0,0,.88.65l4.39.06a.926.926,0,0,1,.8.48,13.242,13.242,0,0,0,.75,1.19.919.919,0,0,1,.11.85l-1.66,4.63a.944.944,0,0,0,.33,1.07l4.68,3.42a.934.934,0,0,0,1.06.03l4.04-2.65a.958.958,0,0,1,.84-.09c.39.14.78.27,1.18.39a.922.922,0,0,1,.61.56l1.75,4.54a.941.941,0,0,0,.92.6l5.95-.33a.934.934,0,0,0,.84-.65l1.34-4.28a.924.924,0,0,1,.62-.61h0c.54-.17,1.06-.37,1.57-.58a.948.948,0,0,1,.88.08l3.68,2.44a.932.932,0,0,0,1.08-.03l4.77-3.56a.946.946,0,0,0,.33-1.04l-1.56-4.78a.911.911,0,0,1,.11-.8c.25-.38.49-.77.71-1.17a.936.936,0,0,1,.73-.48l4.7-.45a.951.951,0,0,0,.82-.7l1.4-5.61a.922.922,0,0,0-.42-1.02l-4.48-2.75a.961.961,0,0,1-.44-.69c-.01-.11-.03-.23-.05-.34a.952.952,0,0,1,.25-.79Zm-31.23,7.21a11.316,11.316,0,1,1,14.17,7.1A11.208,11.208,0,0,1,261.33,330.56Z" transform="translate(6 -4)" fill="#3b6da5"/>
          <path id="Trazado_1046609" data-name="Trazado 1046609" d="M254.42,345.59l3.46-3.6a.938.938,0,0,0,.14-1.1l-2.78-5.01a.941.941,0,0,0-.98-.47l-4.43.76a.916.916,0,0,1-.83-.28,17.438,17.438,0,0,0-1.62-1.48.92.92,0,0,1-.34-.86l.54-3.95a.927.927,0,0,0-.54-.98l-5.33-2.42a.917.917,0,0,0-1.04.19l-3.42,3.39a.932.932,0,0,1-.74.26c-.7-.06-1.41-.08-2.12-.07a.957.957,0,0,1-.77-.37l-2.99-4.02a.946.946,0,0,0-1.04-.33l-5.69,1.83a.935.935,0,0,0-.65.86l-.18,5.22a.929.929,0,0,1-.39.73,20.1,20.1,0,0,0-2.17,1.82.911.911,0,0,1-.68.26l-5.45-.21a.925.925,0,0,0-.9.58l-2.18,5.39a.943.943,0,0,0,.27,1.07l2.91,2.4a.937.937,0,0,1,.32.92c-.09.46-.17.92-.22,1.39a.935.935,0,0,1-.38.65l-4.7,3.36a.95.95,0,0,0-.35,1.05l1.75,5.44a.947.947,0,0,0,.88.65l4.39.06a.926.926,0,0,1,.8.48,13.242,13.242,0,0,0,.75,1.19.919.919,0,0,1,.11.85l-1.66,4.63a.944.944,0,0,0,.33,1.07l4.68,3.42a.934.934,0,0,0,1.06.03l4.04-2.65a.958.958,0,0,1,.84-.09c.39.14.78.27,1.18.39a.922.922,0,0,1,.61.56l1.75,4.54a.941.941,0,0,0,.92.6l5.95-.33a.934.934,0,0,0,.84-.65l1.34-4.28a.924.924,0,0,1,.62-.61h0c.54-.17,1.06-.37,1.57-.58a.948.948,0,0,1,.88.08l3.68,2.44a.932.932,0,0,0,1.08-.03l4.77-3.56a.946.946,0,0,0,.33-1.04l-1.56-4.78a.911.911,0,0,1,.11-.8c.25-.38.49-.77.71-1.17a.936.936,0,0,1,.73-.48l4.7-.45a.951.951,0,0,0,.82-.7l1.4-5.61a.922.922,0,0,0-.42-1.02l-4.48-2.75a.961.961,0,0,1-.44-.69c-.01-.11-.03-.23-.05-.34a.952.952,0,0,1,.25-.79ZM223.2,352.8a11.316,11.316,0,1,1,14.17,7.1A11.208,11.208,0,0,1,223.2,352.8Z" fill="#3b6da5"/>
        </g>
      </g>
      <g id="Grupo_1209076" data-name="Grupo 1209076">
        <rect id="Rectángulo_418634" data-name="Rectángulo 418634" width="184" height="117.9" rx="4.62" transform="translate(172.07 123.74)" fill="#4accc6"/>
        <rect id="Rectángulo_418635" data-name="Rectángulo 418635" width="176.16" height="110.42" transform="translate(175.8 128.05)" fill="#ffc999"/>
        <rect id="Rectángulo_418636" data-name="Rectángulo 418636" width="176.16" height="19.43" transform="translate(175.8 219.04)" fill="#ffb464"/>
        <rect id="Rectángulo_418637" data-name="Rectángulo 418637" width="13.98" height="27.77" transform="translate(208.45 189.63)" fill="#fff"/>
        <rect id="Rectángulo_418638" data-name="Rectángulo 418638" width="13.98" height="46.13" transform="translate(232.77 171.27)" fill="#fff"/>
        <rect id="Rectángulo_418639" data-name="Rectángulo 418639" width="13.98" height="72.24" transform="translate(256.88 145.16)" fill="#fff"/>
        <rect id="Rectángulo_418640" data-name="Rectángulo 418640" width="13.98" height="76.77" transform="translate(301.62 140.63)" fill="#fff"/>
        <rect id="Rectángulo_418641" data-name="Rectángulo 418641" width="13.98" height="56.22" transform="translate(279.87 161.17)" fill="#fff"/>
        <g id="Grupo_1209075" data-name="Grupo 1209075">
          <path id="Trazado_1046610" data-name="Trazado 1046610" d="M187.64,182.69l21.17-12.96,27.53,12.37,31.26-39.19,24.12,31.24,44.78-37.27" fill="none" stroke="#305685" stroke-miterlimit="10" stroke-width="1"/>
          <path id="Trazado_1046611" data-name="Trazado 1046611" d="M333.86,135.01l4.31,4.65,2.33-6.05Z" fill="#305685"/>
        </g>
        <circle id="Elipse_12654" data-name="Elipse 12654" cx="2.05" cy="2.05" r="2.05" transform="translate(185.46 181.21)" fill="#305685"/>
        <circle id="Elipse_12655" data-name="Elipse 12655" cx="2.05" cy="2.05" r="2.05" transform="translate(234.29 180.05)" fill="#305685"/>
        <path id="Trazado_1046612" data-name="Trazado 1046612" d="M269.65,142.91a2.05,2.05,0,1,1-2.05-2.05A2.053,2.053,0,0,1,269.65,142.91Z" fill="#305685"/>
        <circle id="Elipse_12656" data-name="Elipse 12656" cx="2.05" cy="2.05" r="2.05" transform="translate(289.67 171.97)" fill="#305685"/>
        <line id="Línea_1202" data-name="Línea 1202" x2="176.15" transform="translate(175.8 219.04)" fill="none" stroke="#305685" stroke-miterlimit="10" stroke-width="1"/>
        <rect id="Rectángulo_418642" data-name="Rectángulo 418642" width="7.21" height="7.21" transform="translate(185.46 139.66)" fill="#fff" opacity="0.23"/>
        <line id="Línea_1203" data-name="Línea 1203" x2="30.41" transform="translate(197.39 139.66)" fill="none" stroke="#305685" stroke-miterlimit="10" stroke-width="1" opacity="0.33"/>
        <line id="Línea_1204" data-name="Línea 1204" x2="30.4" transform="translate(197.36 141.8)" fill="none" stroke="#305685" stroke-miterlimit="10" stroke-width="1" opacity="0.33"/>
        <line id="Línea_1205" data-name="Línea 1205" x2="30.4" transform="translate(197.36 143.98)" fill="none" stroke="#305685" stroke-miterlimit="10" stroke-width="1" opacity="0.33"/>
        <line id="Línea_1206" data-name="Línea 1206" x2="17.94" transform="translate(197.36 146.43)" fill="none" stroke="#305685" stroke-miterlimit="10" stroke-width="1" opacity="0.33"/>
      </g>
      <g id="Grupo_1209079" data-name="Grupo 1209079">
        <g id="Grupo_1209077" data-name="Grupo 1209077">
          <circle id="Elipse_12657" data-name="Elipse 12657" cx="64.46" cy="64.46" r="64.46" transform="translate(330.982 122.836) rotate(-76.33)" fill="#d34242"/>
          <circle id="Elipse_12658" data-name="Elipse 12658" cx="61.37" cy="61.37" r="61.37" transform="translate(347.73 13.46)" fill="#f65454"/>
          <circle id="Elipse_12659" data-name="Elipse 12659" cx="52.29" cy="52.29" r="52.29" transform="translate(356.05 21.93)" fill="#fffffd"/>
          <circle id="Elipse_12660" data-name="Elipse 12660" cx="40.54" cy="40.54" r="40.54" transform="translate(368.56 34.29)" fill="#f65454"/>
          <circle id="Elipse_12661" data-name="Elipse 12661" cx="29.89" cy="29.89" r="29.89" transform="translate(378.57 45.59)" fill="#fff"/>
          <circle id="Elipse_12662" data-name="Elipse 12662" cx="15.41" cy="15.41" r="15.41" transform="translate(392.07 60.07)" fill="#f65454"/>
        </g>
        <g id="Grupo_1209078" data-name="Grupo 1209078">
          <path id="Trazado_1046613" data-name="Trazado 1046613" d="M406.5,74.22H325.12a1.729,1.729,0,0,0-1.56,1.86v1.18a1.777,1.777,0,0,0,1.65,1.92l81.15-2.42a1.287,1.287,0,0,0,1.12-1.37h0a1.086,1.086,0,0,0-.98-1.17Z" fill="#892929"/>
          <path id="Trazado_1046614" data-name="Trazado 1046614" d="M324.74,77.2a6.45,6.45,0,0,0-1.18.07,1.777,1.777,0,0,0,1.65,1.92l81.15-2.42a1.287,1.287,0,0,0,1.12-1.37l-.04.35-82.7,1.45Z" fill="#892929" opacity="0.64"/>
          <path id="Trazado_1046615" data-name="Trazado 1046615" d="M406.43,74.26,355.34,109.3c-.54.37-.51,1.36.07,2.2l.67.98c.61.89,1.57,1.29,2.12.87l49.57-36.94c.38-.28.35-1-.07-1.61h0c-.37-.53-.94-.78-1.28-.54Z" fill="#892929" opacity="0.36"/>
          <path id="Trazado_1046616" data-name="Trazado 1046616" d="M353.91,74.28s-2.66-9.18-4.38-11.14-7.15-5.06-7.15-5.06l1.23,8.11-3.94-8.11H327.11l3.94,8.11-6.65-8.11h-9.11l11.82,16.28,26.79-.08Z" fill="#d34242"/>
          <path id="Trazado_1046617" data-name="Trazado 1046617" d="M355.1,78.29s-3.7,8.49-5.43,9.96a66.8,66.8,0,0,1-6.83,4.34l1.51-7.44-4.76,7.34H327l4.76-7.34-8.02,7.34h-10l14.08-13.48,27.3-.72Z" fill="#d34242"/>
          <ellipse id="Elipse_12663" data-name="Elipse 12663" cx="1.95" cy="2.48" rx="1.95" ry="2.48" transform="translate(322.79 74.23)" fill="#470a00"/>
          <path id="Trazado_1046618" data-name="Trazado 1046618" d="M354.67,75.76s2.43-7.47-.76-8.03-7.16-3.34-7.16-3.34l5.36,9.7-5.55-6.21-11.95-3.49,2.72,9.69-13.77-9.69,5.19,10.44-.6,1.19,26.51-.25Z" fill="#ff6c6c"/>
        </g>
      </g>
      <g id="Grupo_1209095" data-name="Grupo 1209095">
        <g id="Grupo_1209080" data-name="Grupo 1209080">
          <path id="Trazado_1046620" data-name="Trazado 1046620" d="M78.64,459.26a26.557,26.557,0,0,1-1.08,10.14,3.356,3.356,0,0,0-.14,2.5c.46.88,1.61,1.1,2.6,1.17a31.824,31.824,0,0,0,7.1-.26,3.675,3.675,0,0,0,2.22-.9,3.843,3.843,0,0,0,.73-2.45c.16-2.69.22-5.38.2-8.08a6.259,6.259,0,0,0-.72-3.45,4.469,4.469,0,0,0-2.33-1.64,7.418,7.418,0,0,0-8.79,3.75" fill="#eb9091"/>
          <path id="Trazado_1046621" data-name="Trazado 1046621" d="M178.36,471.26c1.79-.87-.9-12.83-1.14-14.42a2.151,2.151,0,0,0-.83-1.68,2.093,2.093,0,0,0-1.42-.03q-5.82,1.215-11.63,2.44a67.626,67.626,0,0,1,3.87,14.33,1.072,1.072,0,0,0,.28.65,1.034,1.034,0,0,0,.52.2,16.426,16.426,0,0,0,10.36-1.49Z" fill="#eb9091"/>
          <path id="Trazado_1046622" data-name="Trazado 1046622" d="M167.72,486.55a62.585,62.585,0,0,0,10.76,1.83,76.428,76.428,0,0,0,15.85-.75,4.079,4.079,0,0,0,1.82-.59c1.23-.89,1.13-2.73.9-4.23a1.96,1.96,0,0,0-.66-1.44,2.076,2.076,0,0,0-1.26-.2c-8.84.31-10.3-6.04-13.94-12.76a2.275,2.275,0,0,0-.89-1.02,2.422,2.422,0,0,0-1.39-.09c-1.63.22-3.93.18-5.44.87-1.37.63-2.26,2.3-3.67,2.71-1.26.36-2.73-.78-3.84-.08-1.92,1.24-.37,4.3-.71,6-.44,2.22-1.91,4.13-2.8,6.3-.24.6-.47,1.34-.06,1.84a1.845,1.845,0,0,0,.98.5c1.4.37,2.85.75,4.33,1.11Z" fill="#0e1f32"/>
          <path id="Trazado_1046623" data-name="Trazado 1046623" d="M180.44,478.2a8.285,8.285,0,0,0,1.8,2.02c1.57,1.22,3.71,2.64,5.72,2.88a15.976,15.976,0,0,0,3.84-.16l2.71-.33a5.973,5.973,0,0,1,2.08.31.475.475,0,0,0,.37-.02.439.439,0,0,0,.15-.44,1.879,1.879,0,0,0-1.5-1.47,6.374,6.374,0,0,0-2.22.04c-6.05.77-10.11-7.17-11.89-11.76-.67-1.74-1.62-1.12-3.18-1.16-1.99-.04-.92,2.27-.62,3.54a22.217,22.217,0,0,0,2.04,5.35c.22.4.44.8.7,1.18Z" fill="#2f5682" opacity="0.27"/>
          <path id="Trazado_1046624" data-name="Trazado 1046624" d="M89.71,470.64a2.6,2.6,0,0,1,.83.07c1.33.38,1.08,4.9,1.47,6.27.85,2.96,2.11,5.86,1.87,9.01a3.265,3.265,0,0,1-1.1,2.59,3.659,3.659,0,0,1-2.05.4c-4.69.02-42.5,7.28-43.01.5-.11-1.46,1.59-3.62,2.73-4.46,2.31-1.71,4.42-1.32,6.93-1.9,6.9-1.6,12.66-4.88,15.97-11.16a4.317,4.317,0,0,1,.96-1.35,3.78,3.78,0,0,1,1.28-.61,21.38,21.38,0,0,1,4.75-.94,4.7,4.7,0,0,1,2.27.23,1.839,1.839,0,0,1,1.16,1.81c-.03.21-.11.45.02.62s.38.16.58.14a17.5,17.5,0,0,0,3.65-.8,7.793,7.793,0,0,1,1.69-.44Z" fill="#0e1f32"/>
          <path id="Trazado_1046625" data-name="Trazado 1046625" d="M89.72,470.58a2.384,2.384,0,0,1,1.53,1.02c.93,1.36.31,3.82.75,5.38.85,2.96,2.11,5.86,1.87,9.01a3.265,3.265,0,0,1-1.1,2.59,3.659,3.659,0,0,1-2.05.4h-.16c-8.59.42-17.14,2.37-25.72,3.04-4.35.34-9.14.86-13.45-.09-1.55-.34-5.72-1.83-2.78-3.73a5.625,5.625,0,0,1,2.33-.68,58.979,58.979,0,0,1,7.39-.28,62.562,62.562,0,0,0,19.7-3.28c3.45-1.25,7.12-3.38,7.9-6.97.31-1.45.11-3,.59-4.4a2.926,2.926,0,0,1,3.21-2.02Z" fill="#2f5682" opacity="0.27"/>
          <path id="Trazado_1046626" data-name="Trazado 1046626" d="M126.92,265.27c28.36,21.88,20.08,60.68,27.52,90.92,4.45,18.08,15.09,34.17,20.3,52.15,4.94,17.01,5.61,36.6,8.17,54.17a77.19,77.19,0,0,1-17.65-.39,8.211,8.211,0,0,1-4.15-1.41c-1.64-1.33-2.08-3.61-2.44-5.69-4.02-23.3-12.99-44.02-21.18-65.94-10.39-27.79-20.75-55.6-31.35-83.31-2.4.44-4.79.88-7.19,1.33q-.4,9.045-.82,18.08c-.06,1.43-.13,2.85-.19,4.28-.89,19.46-2.52,38.71-2.5,58.18.03,25.63-.07,50.93,3.43,76.35-8.61-1.18-17.1.43-25.78-.83-7.2-1.5-3.95-39.48-4.17-47.08-.52-17.86-1.53-35.74-4.39-53.4-1.19-7.31-2.37-14.63-3.18-22-1.51-13.76-2.66-28.8.16-42.38,2.68-12.91,6.74-25.8,7.84-39.09,13.04,6.54,28.07,6.69,42.57,8.25,5.24.56,11.1,1.38,15-2.16Z" fill="#2f5682"/>
          <path id="Trazado_1046627" data-name="Trazado 1046627" d="M116.44,279.02a10.825,10.825,0,0,1,4.05.42c6.4,2.07,9.74,11.95,11.75,17.69,9.01,25.78,11.16,53.23,17.75,79.61,6.58,26.33,21.15,48.49,23.94,76.26.87,8.69.1,10.32-8.68,9.11a8.211,8.211,0,0,1-4.15-1.41c-1.64-1.33-2.08-3.61-2.44-5.69-4.02-23.3-12.99-44.02-21.18-65.94-10.48-28.02-21.15-55.97-31.47-84.05.48,1.31-11.22,2.43-12.11,2.36,1.03.08-.18,24.85-.34,27.6-.57,9.86-1.55,19.72-3.04,29.49-.97,6.55-2.15,13.1-2.35,19.72-.2,6.42.52,12.83,1.08,19.23a374.386,374.386,0,0,1,1.29,40.88c-.08,3.52,1.35,16.22-1.2,18.69-2.39,2.31-13.18.8-16.25.16-7.2-1.5-3.95-39.48-4.17-47.08-.52-17.86-1.53-35.74-4.39-53.4-1.19-7.31-2.37-14.63-3.18-22-1.51-13.76-2.66-28.8.16-42.38.95-4.57,1.36-13.37,3.99-17.18,3.63-5.28,7.08-2.5,13.74-1.24a164.868,164.868,0,0,0,19.8,2.52c5.22.35,11.8-3.01,17.41-3.36Z" fill="#2f5682" opacity="0.31"/>
        </g>
        <g id="Grupo_1209081" data-name="Grupo 1209081">
          <path id="Trazado_1046628" data-name="Trazado 1046628" d="M119.88,230.9a21.881,21.881,0,0,1-1.13-5.98,20.62,20.62,0,0,1,1.72-7.21c3.31-8.8,7.26-17.52,8.9-26.83,1.53-8.69,3.07-15.94-6.88-18.61a70.715,70.715,0,0,0-30.7-1.23c-6.73,1.21-18.86,3.1-21.74,10.46a15.129,15.129,0,0,0-.74,5.8c.17,11.11,2.94,22.38,4.56,33.34,1.18,7.97-2.48,14.48-4.31,22.24a137.8,137.8,0,0,0-3.52,24.83,3.783,3.783,0,0,0,2.75,4.53,75.463,75.463,0,0,0,61.74.91,4.287,4.287,0,0,0,2.07-1.48c1.19-1.92-5.02-14.07-5.75-16.61q-3.48-12.09-6.98-24.17Z" fill="#5a9598"/>
          <path id="Trazado_1046629" data-name="Trazado 1046629" d="M119.22,230.99a43.812,43.812,0,0,1-.48-6.06,20.62,20.62,0,0,1,1.72-7.21c2.58-6.86,8.69-15.89,3.92-22.97a22.318,22.318,0,0,0-6.19-5.74,58.912,58.912,0,0,0-28.06-9.9,29.969,29.969,0,0,0-12.18,1.1c-2.72.93-6.18,2.76-7.69,5.34-1.64,2.79-.81,5.62-.39,8.83,1,7.65,3.12,15.22,2.84,23-.36,9.73,1.98,18.38,8.73,25.74,6.47,7.06,15.48,11.49,24.84,13.54a16.229,16.229,0,0,0,7.39.31c10.76-2.7,6.57-18.57,5.54-25.97Z" fill="#5a9598" opacity="0.2"/>
        </g>
        <g id="Grupo_1209086" data-name="Grupo 1209086">
          <path id="Trazado_1046630" data-name="Trazado 1046630" d="M105.04,159.39c-.85,3.23-.21,7.41.27,10.66a11.233,11.233,0,0,1,.19,3.51c-.34,1.96-2.21,3.09-3.98,3.65a10.2,10.2,0,0,1-6.89-.28,5.523,5.523,0,0,1-3.49-3.53,7.716,7.716,0,0,1-.1-1.92c.16-4.52,1.05-9.72.39-14.18,2.11.65,3.99,1.94,6.17,2.44.89.21,7.11.83,7.47-.45,0,.03-.02.06-.02.09Z" fill="#eb9091"/>
          <path id="Trazado_1046631" data-name="Trazado 1046631" d="M102.28,159.53c.82-.08,1.64-.15,2.43-.18.42-.02-.49,3.63-.67,3.99a49.176,49.176,0,0,1-3.06,4.57q-2.64,3.93-5.33,7.84c-1.01,1.48-1.11,1.48-2.5.39a4.91,4.91,0,0,1-2-2.73,7.716,7.716,0,0,1-.1-1.92c.16-4.52,1.05-9.72.39-14.18a28.462,28.462,0,0,0,2.97,1.24,10.128,10.128,0,0,0,3.19,1.2,31.2,31.2,0,0,0,4.69-.21Z" fill="#eb9091" opacity="0.57"/>
          <path id="Trazado_1046632" data-name="Trazado 1046632" d="M79.59,102.11a14.793,14.793,0,0,0-6.85-.6c-5.28.64-11.03,4.72-13.17,9.65-1.71,3.95-1.19,8.97,1.85,12.02a19.151,19.151,0,0,0-7.87,6.35c-1.87,2.85-2.49,6.7-.89,9.71a10.84,10.84,0,0,0,6.25,4.82c-2.61.26-4.53,2.73-5.13,5.28a10.63,10.63,0,0,0,7.55,12.3c-1.61-.39-2.01,4.59-1.96,5.33.11,1.93.65,3.59,2.51,4.56a2.479,2.479,0,0,1,.96.65c.66.94-.62,2.06-1.73,2.37-2.08.59-4.29.62-6.4,1.11s-4.26,1.57-5.19,3.52a28.584,28.584,0,0,1,5.36-.9,11,11,0,0,0-1.54,8.25c.05.25.2.55.45.51a.5.5,0,0,0,.3-.24c1.17-1.56,2.35-3.13,3.52-4.69a8.839,8.839,0,0,0,1.42,3.5,3.039,3.039,0,0,0,3.36,1.14,3.645,3.645,0,0,0,1.25-.96,10.411,10.411,0,0,0,.59-12.93c3.04.91,6.04-1.62,7.74-4.31,1.04-1.65,1.89-3.7,1.15-5.51-.59-1.45-2.03-2.33-3.38-3.11a6.7,6.7,0,0,0,4.63-12.18c4.44-.09,8.15-3.44,10.7-7.07a15.252,15.252,0,0,0,2.57-5.26,7.227,7.227,0,0,0-.86-5.66,5.543,5.543,0,0,0,5.18-3.83c.8-2.68-.54-5.05-1.46-7.47-.87-2.29-1.41-4.67-2.37-6.93-1.7-4-4.25-7.89-8.52-9.42Z" fill="#101f37"/>
          <path id="Trazado_1046633" data-name="Trazado 1046633" d="M72.74,101.5c-3.1.37-8.82,2.44-10.06,5.72a22.691,22.691,0,0,1,8.17-2.03,13.066,13.066,0,0,0-4.24,19.75c-4.02,1.57-7.44,5.18-7.85,9.47s2.9,8.88,7.21,9.04a6.7,6.7,0,0,0-4.21,3.8c-.42.97-.78,4.77.63,5.33a6.766,6.766,0,0,1-3.08-2.46,8.388,8.388,0,0,0,7.06,10.52,11.957,11.957,0,0,0-3.93,5.1,6.044,6.044,0,0,0,1.05,6.11c.26-.18.51-.36.77-.55a8.16,8.16,0,0,0-.05,3.58,22.339,22.339,0,0,0-7.36,3.85,11.372,11.372,0,0,0-3.27,4.46c-.14.37-1.11,4.04.19,3.84a.5.5,0,0,0,.3-.24c1.17-1.56,2.35-3.13,3.52-4.69a8.839,8.839,0,0,0,1.42,3.5,3.039,3.039,0,0,0,3.36,1.14,3.645,3.645,0,0,0,1.25-.96,10.411,10.411,0,0,0,.59-12.93c3.04.91,6.04-1.62,7.74-4.31,1.04-1.65,1.89-3.7,1.15-5.51-.59-1.45-2.03-2.33-3.38-3.11a6.7,6.7,0,0,0,4.63-12.18c4.44-.09,8.15-3.44,10.7-7.07a15.252,15.252,0,0,0,2.57-5.26,7.227,7.227,0,0,0-.86-5.66,5.543,5.543,0,0,0,5.18-3.83c.8-2.68-.54-5.05-1.46-7.47-.87-2.29-1.41-4.67-2.37-6.93-1.7-4-4.25-7.89-8.52-9.42a14.793,14.793,0,0,0-6.85-.6Z" fill="#101f37"/>
          <path id="Trazado_1046634" data-name="Trazado 1046634" d="M80.87,146.38a22.62,22.62,0,0,0,5.43,8.67,21.784,21.784,0,0,0,8.67,5.49c3.41,1.11,6.43.75,9.87.16,6.61-1.13,11.38-8.89,11.69-15.2.14-2.79-.4-5.55-.52-8.33a41.017,41.017,0,0,1,.75-7.74c1.14-7.8-1.96-15.53-9.55-18.48-9.61-3.74-22.34-1.3-28.2,7.6-2.47,3.75-2.97,7.61-3.34,11.93-1.12-.43-2.08-1.59-3.46-.98a3.381,3.381,0,0,0-1.66,2.73,10.188,10.188,0,0,0,3.04,8.91,5.385,5.385,0,0,0,2.42,1.42,2.859,2.859,0,0,0,2.65-.65,26.81,26.81,0,0,1,2.21,4.46Z" fill="#eb9091"/>
          <path id="Trazado_1046635" data-name="Trazado 1046635" d="M80.87,146.38a22.62,22.62,0,0,0,5.43,8.67,21.784,21.784,0,0,0,8.67,5.49c3.41,1.11,6.43.75,9.87.16,2.15-.37,5.16-1.46,5.81-3.68-11.04,3.55-21-7.13-23.08-17.14-1.31-6.31-.37-13-.2-19.35.1-3.6.71-7.79,3.82-9.6-4.92-.21-9.55,3.62-12.18,7.61-2.47,3.75-2.97,7.61-3.34,11.93-1.12-.43-2.08-1.59-3.46-.98a3.381,3.381,0,0,0-1.66,2.73,10.188,10.188,0,0,0,3.04,8.91,5.385,5.385,0,0,0,2.42,1.42,2.859,2.859,0,0,0,2.65-.65,26.81,26.81,0,0,1,2.21,4.46Z" fill="#eb9091" opacity="0.29"/>
          <g id="Grupo_1209082" data-name="Grupo 1209082">
            <path id="Trazado_1046636" data-name="Trazado 1046636" d="M72.7,131.09a33.815,33.815,0,0,1,5.48,5.92l-1.52-.51a2.834,2.834,0,0,0-3.37,1.99,2.554,2.554,0,0,1,.99-2.32,2.912,2.912,0,0,1,2.67-.6l-.52.78a29.457,29.457,0,0,1-3.73-5.26Z" fill="#eb9091"/>
          </g>
          <path id="Trazado_1046637" data-name="Trazado 1046637" d="M96.87,135.61c0,1.12-.64,2.03-1.43,2.03s-1.43-.91-1.43-2.03.64-2.03,1.43-2.03S96.87,134.49,96.87,135.61Z"/>
          <path id="Trazado_1046638" data-name="Trazado 1046638" d="M112.07,134.79c0,1.01-.51,1.84-1.14,1.84s-1.14-.82-1.14-1.84.51-1.84,1.14-1.84S112.07,133.77,112.07,134.79Z"/>
          <g id="Grupo_1209083" data-name="Grupo 1209083">
            <path id="Trazado_1046639" data-name="Trazado 1046639" d="M105.02,129.46a21.424,21.424,0,0,0,2.35,11.27,11.811,11.811,0,0,0,2.42,2.6,1.02,1.02,0,0,1-.38,1.82,8.356,8.356,0,0,1-6.7-.49c2.13.61,4.82.65,6.64-.49-.86-.85-2.2-1.68-2.85-2.95a16.514,16.514,0,0,1-1.48-11.76h0Z" fill="#eb9091"/>
          </g>
          <g id="Grupo_1209084" data-name="Grupo 1209084">
            <path id="Trazado_1046640" data-name="Trazado 1046640" d="M105.01,154.08c-2.91,0-5.39-2.28-7.39-4.11a5.444,5.444,0,0,1-.78-.81,31.837,31.837,0,0,1,3.22.55c.8.16,1.63.33,2.46.45a16.059,16.059,0,0,0,2.29.18h.48a8.922,8.922,0,0,0,2.67-.49,9.636,9.636,0,0,0,1.37-.66c.29-.16.57-.31.87-.45.15-.07.39-.15.64-.24.19-.07.38-.13.55-.2-.14.24-.27.5-.41.75-1.12,2.08-2.29,4.23-4.49,4.83a5.811,5.811,0,0,1-1.49.2Z" fill="#fff"/>
            <path id="Trazado_1046641" data-name="Trazado 1046641" d="M110.61,148.98c-1.07,1.98-2.19,3.99-4.2,4.54a5.54,5.54,0,0,1-1.39.19c-2.76,0-5.19-2.22-7.13-4.01l-.02-.02c.7.11,1.4.25,2.13.4.81.16,1.64.33,2.48.46a16.847,16.847,0,0,0,2.35.19h.49a8.978,8.978,0,0,0,2.78-.52,10.98,10.98,0,0,0,1.42-.68c.29-.16.56-.31.84-.43.06-.03.15-.06.24-.1m1.82-1.69Zm0,0c-.35.47-1.82.83-2.37,1.08-.75.34-1.44.81-2.21,1.09a8.275,8.275,0,0,1-2.56.47h-.46a15.264,15.264,0,0,1-2.24-.18c-2.14-.31-4.23-.93-6.39-1.06a3.869,3.869,0,0,0,1.19,1.51c2.15,1.97,4.66,4.21,7.64,4.21a6.44,6.44,0,0,0,1.59-.21c3.11-.84,4.23-4.47,5.83-6.93h0Z" fill="#ce6369"/>
          </g>
          <g id="Grupo_1209085" data-name="Grupo 1209085">
            <path id="Trazado_1046642" data-name="Trazado 1046642" d="M88.93,132.69c-.89-2.16,1.57-3.64,3.38-3.83,2.76-.53,5.86-.04,7.86,2.12a36.66,36.66,0,0,1-7.62.71,8.709,8.709,0,0,0-2.45.07,2.858,2.858,0,0,0-1.17.93Z" fill="#101f37"/>
            <path id="Trazado_1046643" data-name="Trazado 1046643" d="M107.82,127.29c.4-6.71,9.53-5.91,7.82,1-1.13-.64-1.58-2.05-2.84-2.49-1.65-.66-3.21.8-4.98,1.48h0Z" fill="#101f37"/>
          </g>
          <path id="Trazado_1046644" data-name="Trazado 1046644" d="M78.85,137.63a18.835,18.835,0,0,1,1.09,7.91c-.32,3.2-1.71,6.3-1.51,9.51a10.061,10.061,0,0,0,8.49,9.06,12.68,12.68,0,0,1-5.33-12.03,6.873,6.873,0,0,0,3.18,5.29,9.015,9.015,0,0,1-2.1-7.94c.42-1.87,1.43-3.56,1.96-5.4,1.43-4.98-1.25-10.83-4.9-14.19,9.71,2.3,18.91-5.1,21.36-14.31.47,1.17.95,2.34,1.42,3.5a1.388,1.388,0,0,0,.47.7c.7.44,1.44-.57,1.52-1.4a5.873,5.873,0,0,0-.38-2.72,13.228,13.228,0,0,1,12.23,12.71c.11,2.4-.46,4.51-.58,6.89-.27,5.35,1.84,10.74.48,16.06-.41,1.61-1.14,3.13-1.5,4.76a5.563,5.563,0,0,0,.8,4.76,7.63,7.63,0,0,1,.65-5.52,34.676,34.676,0,0,0,2.27-5.21c1.21-4.71-1.45-9.48-1.91-14.32a6.683,6.683,0,0,1,.31-3.17c.45-1.08,1.41-1.74,1.81-2.88a10.966,10.966,0,0,0-.76-8.84c1.39-.1,2.33-1.56,2.51-2.94a7.222,7.222,0,0,0-3.3-6.56,12.1,12.1,0,0,0-5.28-1.96c-.5-.07-4.1.12-4.28-.19-2.31-3.96-7.23-5.74-11.81-5.76-10.98-.04-20.41,8.62-21.89,19.36-.48,3.45,1.66,7.32,3.11,10.34a41.425,41.425,0,0,1,1.88,4.5Z" fill="#101f37"/>
          <path id="Trazado_1046645" data-name="Trazado 1046645" d="M89.52,140.66a2.545,2.545,0,0,0-1.85,1.62,2.488,2.488,0,0,0,.69,2.01,6.983,6.983,0,0,0,10.05.83,1.935,1.935,0,0,0-.28-3.32C96.06,140.05,92.02,139.83,89.52,140.66Z" fill="#eb9091" opacity="0.37"/>
          <path id="Trazado_1046646" data-name="Trazado 1046646" d="M111.88,139.31a3.675,3.675,0,0,0-1.68,2.08,2.4,2.4,0,0,0,.71,2.48,2.486,2.486,0,0,0,2.81,0,4.506,4.506,0,0,0,1.72-2.38,3.3,3.3,0,0,0,.17-2.03c-.56-1.86-2.61-.85-3.73-.15Z" fill="#eb9091" opacity="0.37"/>
        </g>
        <g id="Grupo_1209087" data-name="Grupo 1209087">
          <path id="Trazado_1046647" data-name="Trazado 1046647" d="M143.97,277.92c.08-.05.16-.11.24-.16-4.79-10.62-10.1-20.93-15.31-31.35-2.61-5.15-5.21-10.3-7.49-15.61-3.68-8.57,2.44-15.31,4.49-23.9a97.758,97.758,0,0,0,2.48-28.98,8.6,8.6,0,0,0-.8-3.63c-1.05-1.91-3.29-2.79-5.38-3.4a52.7,52.7,0,0,0-16.18-2.02c2.38,8.54,2.76,16.86,3.27,25.62.43,7.35,1.95,14.05.31,21.57-5.02,23.13-4.07,50.13,1.01,73.36a65.239,65.239,0,0,0,33.37-11.5Z" fill="#3f6c9e"/>
          <path id="Trazado_1046648" data-name="Trazado 1046648" d="M135.01,279.08c.28-2.33-.84-4.97-1.45-7.14q-1.74-6.15-3.72-12.22-4.05-12.405-9.12-24.44a33.4,33.4,0,0,1-2.41-7.1,31.241,31.241,0,0,1,0-8.14q1.47-17.22,2.95-34.44c.33-3.81,2.59-12.51.03-14.97-1.64-1.58-15.08-1.04-15.28-1.76,2.38,8.54,2.76,16.86,3.27,25.62.43,7.35,1.95,14.05.31,21.57a157.359,157.359,0,0,0-3.3,35.9c.18,11.54.77,23.96,4.13,35.05a2.26,2.26,0,0,0,.88,1.43,2.181,2.181,0,0,0,1.22.15c5.39-.39,10.61-1.99,15.72-3.75,2.05-.71,4.18-1.5,5.61-3.13a4.8,4.8,0,0,0,1.16-2.64Z" fill="#3f6c9e" opacity="0.47"/>
          <path id="Trazado_1046649" data-name="Trazado 1046649" d="M67.74,290.35A42.679,42.679,0,0,1,54,283.75c-.86-11.73,3.83-22.82,7.55-33.69,3.26-9.52,7.55-20.5,6.84-30.56-.53-7.57-1.78-15.09-2.58-22.64-.49-4.59,1.88-15.57-4.67-16.32,2.94.34,7.9-4.77,10.39-6.12,4.94-2.68,10.91-5.37,16.64-5.15a41.52,41.52,0,0,1,5.08,16.94,72.141,72.141,0,0,1,.06,7.92c-.75,22.29-6.28,44-6.57,66.18a174.764,174.764,0,0,1-2.56,27.59,5.224,5.224,0,0,1-1.21,2.98,5.036,5.036,0,0,1-3.55,1,42.768,42.768,0,0,1-11.69-1.55Z" fill="#3f6c9e"/>
          <path id="Trazado_1046650" data-name="Trazado 1046650" d="M68.24,289.07A73.221,73.221,0,0,1,59,284.53c-1.82-1.02-3.77-2.2-4.52-4.15-1.55-4.03.74-10.88,1.86-14.81,1.49-5.25,3.44-10.35,5.21-15.51,3.26-9.52,7.55-20.5,6.84-30.56-.53-7.57-1.78-15.09-2.58-22.64-.31-2.9.19-5.83,0-8.74-.28-4.03-.66-4.62,2.91-7.07a42.172,42.172,0,0,1,19.96-7.16c3.3-.29-.9,6.81-1.29,7.33q-4.4,5.835-8.8,11.66c2.28,1.35,4.57,2.7,6.85,4.05a4.63,4.63,0,0,1,1.58,1.29c1.01,1.53-.16,3.62-1.66,4.69s-3.35,1.7-4.51,3.12c-1.65,2.04-1.34,4.97-.94,7.56q2.91,18.945,5.81,37.88a90.447,90.447,0,0,1,.52,20.67c-.27,3.46-.68,6.92-1.18,10.35-.38,2.63-.22,6.43-2.89,7.88a8.56,8.56,0,0,1-4.31.79,28.681,28.681,0,0,1-9.61-2.11Z" fill="#3f6c9e" opacity="0.47"/>
        </g>
        <g id="Grupo_1209089" data-name="Grupo 1209089">
          <path id="Trazado_1046651" data-name="Trazado 1046651" d="M195.63,195.93c1.72-2.79,3.04-5.85,5.64-7.8a23.7,23.7,0,0,1,7.55-3.38,47,47,0,0,1,13.91-2.42c.96,0,2.14.22,2.44,1.13a1.7,1.7,0,0,1-1.07,1.93,5.993,5.993,0,0,1-2.39.31,19.954,19.954,0,0,0-10.5,3.15,6.959,6.959,0,0,1,3.9,5.12,20.457,20.457,0,0,1-.03,6.67c-.17,1.5-.66,3.35-2.15,3.6-.77.13-1.56-.26-2.33-.11-1.38.28-1.86,2.06-3.04,2.82-1.14.74-2.63.37-3.99.37-5.51,0-10.54,9.91-15.72,6.78a10.823,10.823,0,0,1-3.27-3.79,2.974,2.974,0,0,1,.69-4.88l6.88-5.38a15.066,15.066,0,0,0,3.47-4.13Z" fill="#eb9091"/>
          <g id="Grupo_1209088" data-name="Grupo 1209088">
            <path id="Trazado_1046652" data-name="Trazado 1046652" d="M200.01,190.66a10.879,10.879,0,0,0,2.59-1.92c1.51-1.27,3.53-1.28,4.45.67a15.461,15.461,0,0,0,3.65,5.13c1.93,1.52,2.14,3.93-.78,4.09-2.48.03-4.21-1.92-5.62-3.63l.75-.56c1.4,2.04,2.62,4.58,2.06,7.14-.33,2.54-3.43,4.61-5.72,3.1,2.31,1.14,4.88-.84,5.12-3.21.37-2.39-.87-4.6-2.22-6.5l.75-.56c1.26,1.46,2.85,3.25,4.86,3.23,3.06-.2-.15-2.61-.95-3.64a13.1,13.1,0,0,1-1.8-2.8c-.5-.99-.75-2.1-1.55-2.61-2.02-1.05-3.7,1.62-5.57,2.07h0Z" fill="#eb9091"/>
          </g>
          <path id="Trazado_1046653" data-name="Trazado 1046653" d="M183.04,227.86a98.3,98.3,0,0,1-18.93,10.72c-3.59,1.48-7.42,2.74-11.28,2.32-11.79-1.22-14.74-15.47-22-22.45a6.155,6.155,0,0,1-1.69-2.12,5.726,5.726,0,0,1-.23-1.98c.08-11.63,1.26-27.78-3.52-38.51.55-1.16,2.26-.98,3.43-.46,6.12,2.73,9.46,9.25,12.35,15.3,4,8.39,7.54,19.71,15.7,25.15,4.75,3.67,9.05-.47,13.14-3.4q8.475-6.09,16.95-12.17a75.288,75.288,0,0,1,11.55,14.11,1.65,1.65,0,0,1,.36.96,1.753,1.753,0,0,1-.84,1.18c-4.92,3.86-9.86,7.76-14.99,11.36Z" fill="#305685"/>
          <path id="Trazado_1046654" data-name="Trazado 1046654" d="M183.04,227.86a98.3,98.3,0,0,1-18.93,10.72c-3.59,1.48-7.42,2.74-11.28,2.32-11.79-1.22-14.74-15.47-22-22.45a6.155,6.155,0,0,1-1.69-2.12,5.726,5.726,0,0,1-.23-1.98c.07-10.81-3.13-23.26-1.62-33.78,1.7-.08,2.92.97,3.85,2.56,6.02,10.22,10.4,21.48,17.92,30.73,2.12,2.61,4.5,5.13,7.53,6.57,10.55,5.01,20.7-6.65,28.43-12.33,6.51-4.79,10.28,1.24,13.47,6.28a1.65,1.65,0,0,1,.36.96,1.753,1.753,0,0,1-.84,1.18c-4.92,3.86-9.86,7.76-14.99,11.36Z" fill="#3f6c9e" opacity="0.47"/>
        </g>
        <g id="Grupo_1209091" data-name="Grupo 1209091">
          <path id="Trazado_1046655" data-name="Trazado 1046655" d="M61.47,180.53a46.555,46.555,0,0,0-6.95,7.4q-6.9,9.24-13.62,18.61c-3.68,5.13-15.63,16.49-9.87,23.4a9.315,9.315,0,0,0,7.19,3.04c7.76-.03,16.71-11.03,21.73-16.39,5.32-5.67,13.9-13.05,14.46-21.2a45.318,45.318,0,0,0-1.73-15.88c-.49-1.67-1.38-3.58-3.1-3.84a4.77,4.77,0,0,0-3.21,1.13,53.962,53.962,0,0,0-4.9,3.73Z" fill="#305685"/>
          <path id="Trazado_1046656" data-name="Trazado 1046656" d="M65.15,184.51c-4.84,4.74-8.98,10.13-13.54,15.18-6.13,6.78-11.6,14.25-15.13,22.73-3.29,7.9-1.98,13.77,7.21,9,6.54-3.4,11.31-9.56,16.26-14.83,5.32-5.67,13.9-13.05,14.46-21.2.3-4.33.58-11.57-1.88-15.33a1.408,1.408,0,0,0-.84-.7,1.46,1.46,0,0,0-1.09.43,56.17,56.17,0,0,0-5.45,4.73Z" fill="#305685" opacity="0.33"/>
          <path id="Trazado_1046657" data-name="Trazado 1046657" d="M67.92,204.55a28.028,28.028,0,0,1,5.84-1.95c2-.42,4.36.14,5.45,1.87a7.283,7.283,0,0,1,.87,2.79c.34,1.92.67,3.85,1.01,5.77.55,3.16,1.05,6.66-.66,9.38-1.14,1.81-3.08,2.94-4.96,3.97-6.04,3.4-11.93,5.12-17.83,9.02-3.49,2.31-7.05,4.65-11.06,5.84-4.91,1.46-10.56.97-14.67-2.08s-6.23-8.88-4.24-13.6c1.49-3.56,4.93-5.96,8.52-7.37s7.44-2,11.14-3.08c7.43-2.17,13.66-7.43,20.59-10.54Z" fill="#305685"/>
          <path id="Trazado_1046658" data-name="Trazado 1046658" d="M69.19,206.66a17.7,17.7,0,0,1,2.69-1.33c7.6-2.97,8.17,1.66,9.23,7.7.55,3.16,1.05,6.66-.66,9.38-1.14,1.81-3.08,2.94-4.96,3.97-6.04,3.4-11.93,5.12-17.83,9.02-3.49,2.31-7.05,4.65-11.06,5.84-4.91,1.46-10.56.97-14.67-2.08-6.99-5.18-2.42-13.51,3.82-17.14,4.18-2.43,9.01-3.42,13.61-4.91a62.739,62.739,0,0,0,15.36-7.46c1.49-1,2.95-2.07,4.49-2.97Z" fill="#2f5682" opacity="0.31"/>
          <g id="Grupo_1209090" data-name="Grupo 1209090">
            <rect id="Rectángulo_418643" data-name="Rectángulo 418643" width="70.65" height="45.59" rx="6.98" transform="translate(150.916 179.466) rotate(110.96)" fill="#04242b"/>
            <rect id="Rectángulo_418644" data-name="Rectángulo 418644" width="69.71" height="44.17" rx="7.91" transform="translate(150.585 180.342) rotate(110.96)" fill="#095466"/>
            <rect id="Rectángulo_418645" data-name="Rectángulo 418645" width="62.88" height="40.27" rx="7.49" transform="translate(147.902 182.072) rotate(110.96)" fill="#c7e0ff"/>
            <path id="Trazado_1046659" data-name="Trazado 1046659" d="M105.05,236.5a1.078,1.078,0,1,1,1.45-.6A1.107,1.107,0,0,1,105.05,236.5Z" fill="#727272"/>
            <path id="Trazado_1046660" data-name="Trazado 1046660" d="M123.05,223.53c.09-2.68.5-5.41.58-8.07a32.8,32.8,0,0,0-5.57-19.06c-2.3-3.44-5.23-6.48-7.51-9.93-2.34-3.54-4.08-7.71-2.77-11.66,1.16-3.49,4.37-6.37,8.49-4.79l26.21,10.04a5.94,5.94,0,0,1,3.64,7.56q-3.795,9.915-7.59,19.82-2.925,7.635-5.84,15.26c-.79,2.07-3.29,12.34-6.39,10.84a4.423,4.423,0,0,1-1.91-2.18,16.266,16.266,0,0,1-1.32-7.82Z" fill="#c7e0ff"/>
            <path id="Trazado_1046661" data-name="Trazado 1046661" d="M113.85,206.16l.7,4.17,5.1.96,1.9-3.31a14.86,14.86,0,0,0,2.31-.27l2.68,2.66,4.61-2.07-.56-4.01a13.506,13.506,0,0,0,1.39-1.53l4.49.28,1.76-4.59-3.58-2.92a12.458,12.458,0,0,0-.13-2.52l3.01-3.26-2.67-4.33-3.56.59a14.111,14.111,0,0,0-1.2-1.25l.14-4.66-4.85-1.86-2.51,2.87a15.213,15.213,0,0,0-1.76-.25l-2.43-3.61-4.98,1.12-.29,4.03a13.062,13.062,0,0,0-1.3.77l-4.2-1.37-2.97,3.95,2.37,3.25c-.04.1-.09.2-.13.31a11.929,11.929,0,0,0-.44,1.4l-3.83,1.04-.04,4.95,4.23,1.6a15.061,15.061,0,0,0,.62,1.49l-2.25,3.28,3.25,3.96,4.33-1.34c.26.16.53.32.8.47Zm10.26-20.65a9.627,9.627,0,1,1-12.93,5.34A9.9,9.9,0,0,1,124.11,185.51Z" fill="#fff"/>
            <path id="Trazado_1046662" data-name="Trazado 1046662" d="M99.14,222.53l.4,2.4,2.94.56,1.09-1.91a9.845,9.845,0,0,0,1.33-.15l1.55,1.53,2.66-1.2-.32-2.31a6.689,6.689,0,0,0,.8-.88l2.59.16,1.01-2.65-2.06-1.68a7.79,7.79,0,0,0-.07-1.45l1.73-1.88-1.54-2.5-2.05.34a7.767,7.767,0,0,0-.69-.72l.08-2.69-2.8-1.07-1.44,1.65a7.2,7.2,0,0,0-1.01-.14l-1.4-2.08-2.87.65-.17,2.32a7.008,7.008,0,0,0-.75.44l-2.42-.79-1.71,2.27,1.37,1.87c-.02.06-.05.12-.07.18a8.45,8.45,0,0,0-.26.81l-2.21.6-.02,2.85,2.44.92a7.116,7.116,0,0,0,.36.86l-1.3,1.89,1.87,2.28,2.5-.77c.15.09.3.18.46.27Zm5.92-11.91a5.549,5.549,0,1,1-7.45,3.08A5.712,5.712,0,0,1,105.06,210.62Z" fill="#fff"/>
            <path id="Trazado_1046663" data-name="Trazado 1046663" d="M119.84,224.23l.24,1.44,1.76.33.65-1.14a4.262,4.262,0,0,0,.8-.09l.93.92,1.59-.72-.19-1.38a4.881,4.881,0,0,0,.48-.53l1.55.1.61-1.58-1.23-1.01a5.071,5.071,0,0,0-.04-.87l1.04-1.12-.92-1.5-1.23.2c-.13-.15-.27-.29-.41-.43l.05-1.61-1.68-.64-.86.99c-.2-.04-.41-.07-.61-.09l-.84-1.24-1.72.39-.1,1.39a4.121,4.121,0,0,0-.45.27l-1.45-.47-1.02,1.36.82,1.12a1,1,0,0,0-.04.11,4.421,4.421,0,0,0-.15.48l-1.32.36v1.71l1.44.55a3.376,3.376,0,0,0,.22.52l-.78,1.13,1.12,1.37,1.5-.46a2.544,2.544,0,0,0,.28.16Zm3.54-7.13a3.319,3.319,0,1,1-4.46,1.84A3.417,3.417,0,0,1,123.38,217.1Z" fill="#fff"/>
          </g>
          <path id="Trazado_1046664" data-name="Trazado 1046664" d="M84.4,196.6a5.275,5.275,0,0,1,.93-.96c1.37-1.07,3.19-1.23,4.67-2.09a30,30,0,0,1,4.44-2.29,14.311,14.311,0,0,1,10.87-.09,3.116,3.116,0,0,1,1.51,1.18c.99,1.71-1.35,2.51-2.62,2.45-.9-.04-1.77-.28-2.67-.34a8.927,8.927,0,0,0-1.86.09,17.969,17.969,0,0,0-5.17,1.51c-.96.45-2.67,2.11-3.69,2.14,4.44-.13,8.43-.12,12.26,2.43,2.71,2.03,4.38,5.64,3.45,8.9-.13.46-.66,1-.99.65a7.028,7.028,0,0,1,1.2,2.11,2.376,2.376,0,0,1-.41,2.29,1.463,1.463,0,0,1-2.14,0,2.071,2.071,0,0,1,.52,2.13,1.572,1.572,0,0,1-1.87.95,2.733,2.733,0,0,1-.92-.66c-1.54-1.5-3.05-3.04-4.5-4.63-1.7-.54-6.28-.36-7.47-.33a13.428,13.428,0,0,1-3.55,6.11,7.668,7.668,0,0,1-6.57,2.05,4.126,4.126,0,0,0-1.3-.18c-.99.1-1.69,1.07-2.66,1.29a2.448,2.448,0,0,1-2.3-.92,7.222,7.222,0,0,1-1.16-2.32,15.807,15.807,0,0,1-1.16-5.89,1.455,1.455,0,0,1,.2-.79,1.792,1.792,0,0,1,.73-.54c4.88-2.48,8.3-6.84,10.73-11.65a16.624,16.624,0,0,1,1.48-2.6Z" fill="#eb9091"/>
        </g>
        <g id="Grupo_1209094" data-name="Grupo 1209094">
          <g id="Grupo_1209092" data-name="Grupo 1209092">
            <path id="Trazado_1046665" data-name="Trazado 1046665" d="M104.61,210.01a13.185,13.185,0,0,0-14.96-6.82c5.6-3.1,13.62.57,14.96,6.82Z" fill="#eb9091"/>
          </g>
          <g id="Grupo_1209093" data-name="Grupo 1209093">
            <path id="Trazado_1046666" data-name="Trazado 1046666" d="M104.06,212.87c-3.62-4.18-8.98-5.71-14.37-5.11,5.06-2.14,11.99-.04,14.37,5.11Z" fill="#eb9091"/>
          </g>
        </g>
      </g>
      <g id="Grupo_1209098" data-name="Grupo 1209098">
        <path id="Trazado_1046667" data-name="Trazado 1046667" d="M271.4,210.87a38.115,38.115,0,1,0,21.84,49.28A38.113,38.113,0,0,0,271.4,210.87Zm-24.72,64.07a30.558,30.558,0,1,1,39.51-17.51,30.547,30.547,0,0,1-39.51,17.51Z" fill="#04242b"/>
        <g id="Grupo_1209097" data-name="Grupo 1209097">
          <path id="Trazado_1046668" data-name="Trazado 1046668" d="M272.06,209.18a38.115,38.115,0,1,0,21.84,49.28A38.113,38.113,0,0,0,272.06,209.18Zm-24.72,64.07a30.558,30.558,0,1,1,39.51-17.51,30.547,30.547,0,0,1-39.51,17.51Z" fill="#095466"/>
          <g id="Grupo_1209096" data-name="Grupo 1209096" opacity="0.77">
            <circle id="Elipse_12664" data-name="Elipse 12664" cx="31.01" cy="31.01" r="31.01" transform="translate(222.865 219.137) rotate(-8.59)" fill="#c7e0ff"/>
            <path id="Trazado_1046669" data-name="Trazado 1046669" d="M265.79,274.04a1,1,0,0,1-.39,1.41c-1.95,1.14-6.4.78-8.6.69a31.013,31.013,0,0,1-10.4-59.67c5.26-2.16,13.83-4.45,18.15.53a6.108,6.108,0,0,1,1.71,4.17c-.12,2.27-2.07,4.06-4.17,4.91-3.34,1.35-7.06,1.79-10.48,2.99a27.012,27.012,0,0,0-9.24,5.42,20.823,20.823,0,0,0-.25,31.39,28.156,28.156,0,0,0,18.25,7.32,18.342,18.342,0,0,1,4.8.49,1.273,1.273,0,0,1,.63.35Z" fill="#c7e0ff"/>
            <path id="Trazado_1046670" data-name="Trazado 1046670" d="M280.11,233.96a7.842,7.842,0,1,1-4.49-10.14A7.842,7.842,0,0,1,280.11,233.96Z" fill="#fff"/>
            <path id="Trazado_1046671" data-name="Trazado 1046671" d="M280.57,247.53a3.109,3.109,0,1,1-1.78-4.02A3.11,3.11,0,0,1,280.57,247.53Z" fill="#fff"/>
          </g>
          <path id="Trazado_1046672" data-name="Trazado 1046672" d="M237.56,283.67l-11.36-8.6a2.425,2.425,0,0,1-.47-3.4h0a2.425,2.425,0,0,1,3.4-.47l11.36,8.6a2.425,2.425,0,0,1,.47,3.4h0A2.425,2.425,0,0,1,237.56,283.67Z" fill="#04242b"/>
          <rect id="Rectángulo_418646" data-name="Rectángulo 418646" width="13.82" height="74.18" rx="5.11" transform="matrix(0.797, 0.603, -0.603, 0.797, 226.678, 274.521)" fill="#04242b"/>
        </g>
      </g>
      <g id="Grupo_1209111" data-name="Grupo 1209111">
        <path id="Trazado_1046673" data-name="Trazado 1046673" d="M442.8,460.31l.33-178.38a2.635,2.635,0,0,0-2.63-2.64l-24.11-.03a2.629,2.629,0,0,1-2.63-2.64v-2.45h-.21v-.62l-12.22-.01h2.19a16.309,16.309,0,0,1-5.24-.93,22.807,22.807,0,0,1-7.8-5.24c-2.96-3.1-3.91-7.7-7.34-10.42a9.1,9.1,0,0,0-2.29-1.3,4.575,4.575,0,0,0-2.56-.84,10.607,10.607,0,0,0-4.01-.07c-4.8.86-6.74,3.61-8.15,7.88a13.578,13.578,0,0,1-4.12,5.7,29.119,29.119,0,0,1-8.14,5.16h-8.55a2.614,2.614,0,0,0-2.64,2.62v.35a2.631,2.631,0,0,1-2.65,2.63l-32.9-.18a2.638,2.638,0,0,0-2.65,2.63l-1.71,174.41,9.02,7.42,128.38-.44a2.642,2.642,0,0,0,2.64-2.63Z" fill="#892929" opacity="0.22"/>
        <g id="Grupo_1209110" data-name="Grupo 1209110">
          <g id="Grupo_1209099" data-name="Grupo 1209099">
            <path id="Trazado_1046674" data-name="Trazado 1046674" d="M445.28,463.48l-133.5-.11.22-183.8,133.49.73Z" fill="#5b6e84"/>
            <rect id="Rectángulo_418647" data-name="Rectángulo 418647" width="135.89" height="183.65" transform="translate(314.689 279.814) rotate(0.07)" fill="#6f85a5"/>
          </g>
          <g id="Grupo_1209109" data-name="Grupo 1209109">
            <rect id="Rectángulo_418648" data-name="Rectángulo 418648" width="119.66" height="167.44" transform="translate(323.048 288.094) rotate(0.07)" fill="#5b6e84"/>
            <g id="Grupo_1209100" data-name="Grupo 1209100">
              <path id="Trazado_1046675" data-name="Trazado 1046675" d="M430.7,450.54l-107.25-.13.2-167.44,119.66.14-.19,157.11Z" fill="url(#linear-gradient)"/>
              <path id="Trazado_1046676" data-name="Trazado 1046676" d="M430.7,450.54l3.57-13.59,8.85,3.27Z" fill="#ffedb8"/>
            </g>
            <g id="Grupo_1209104" data-name="Grupo 1209104">
              <g id="Grupo_1209103" data-name="Grupo 1209103">
                <g id="Grupo_1209101" data-name="Grupo 1209101">
                  <path id="Trazado_1046677" data-name="Trazado 1046677" d="M361.39,274.15a29.348,29.348,0,0,0,8.14-5.16,13.578,13.578,0,0,0,4.12-5.7c1.42-4.27,3.35-7.01,8.15-7.88a9.969,9.969,0,0,1,7.88,1.85c3.43,2.72,4.38,7.32,7.34,10.42,3.49,3.65,8.92,6.53,14.01,6.54l-49.66-.06Z" fill="#5b6e84"/>
                  <path id="Trazado_1046678" data-name="Trazado 1046678" d="M362.37,274.51a29.348,29.348,0,0,0,8.14-5.16,13.578,13.578,0,0,0,4.12-5.7c1.42-4.27,3.35-7.01,8.15-7.88a9.969,9.969,0,0,1,7.88,1.85c3.43,2.72,4.38,7.32,7.34,10.42,3.49,3.65,8.92,6.53,14.01,6.54l-49.66-.06Z" fill="#ffb464"/>
                  <path id="Trazado_1046679" data-name="Trazado 1046679" d="M362.37,274.51a29.348,29.348,0,0,0,8.14-5.16,13.578,13.578,0,0,0,4.12-5.7c1.42-4.27,3.35-7.01,8.15-7.88,2.85-.51,5.2-.7,7.01,2.1a17.784,17.784,0,0,1,1.93,5.64,11.537,11.537,0,0,0,2.41,5.41c2.84,3.03,10.03,5.66,1.61,5.63-5.09-.02-10.19-.01-15.28-.02q-6.465,0-12.92-.02c-1.33,0-3.93-.53-5.18,0Z" fill="#9b9b9b" opacity="0.16"/>
                </g>
                <g id="Grupo_1209102" data-name="Grupo 1209102">
                  <path id="Trazado_1046680" data-name="Trazado 1046680" d="M388.06,264.54a3.267,3.267,0,1,1-2.33-3.99A3.265,3.265,0,0,1,388.06,264.54Z" fill="#5b6e84"/>
                  <circle id="Elipse_12665" data-name="Elipse 12665" cx="2.98" cy="2.98" r="2.98" transform="translate(381.55 260.94)" fill="#5b6e84"/>
                </g>
              </g>
              <path id="Trazado_1046681" data-name="Trazado 1046681" d="M349.25,274.19h71.81v14.54a4.722,4.722,0,0,1-4.72,4.72h-63.2a3.888,3.888,0,0,1-3.89-3.89V274.19h0Z" transform="translate(0.34 -0.46) rotate(0.07)" fill="#5b6e84"/>
              <path id="Trazado_1046682" data-name="Trazado 1046682" d="M350.4,274.81h70.87v15.74a3.529,3.529,0,0,1-3.53,3.53H354.12a3.726,3.726,0,0,1-3.72-3.72V274.82h0Z" transform="translate(0.34 -0.46) rotate(0.07)" fill="#ffb464"/>
              <path id="Trazado_1046683" data-name="Trazado 1046683" d="M410.24,283.94a16.3,16.3,0,0,1-9,3.41c-5.2.42-10.4-.86-15.62-.88a32.291,32.291,0,0,0-12.86,2.65c-7.1,3.08-12.14,4.92-19.93,4.91a2.445,2.445,0,0,1-2.44-2.45l.02-16.82q16.725.015,33.44.04c8.01,0,16.02.09,24.03.03,4.55-.03,7.61.95,4.73,6.24a9.929,9.929,0,0,1-2.37,2.86Z" fill="#9b9b9b" opacity="0.16"/>
            </g>
            <g id="Grupo_1209105" data-name="Grupo 1209105">
              <rect id="Rectángulo_418649" data-name="Rectángulo 418649" width="19.76" height="19.76" transform="translate(331.814 348.925) rotate(0.07)" fill="#c7e0ff"/>
              <line id="Línea_1207" data-name="Línea 1207" x2="70.61" y2="0.51" transform="translate(360.61 350.71)" fill="none" stroke="#ffc585" stroke-linecap="round" stroke-miterlimit="10" stroke-width="2"/>
              <line id="Línea_1208" data-name="Línea 1208" x2="70.61" y2="0.51" transform="translate(360.55 355.96)" fill="none" stroke="#ffc585" stroke-linecap="round" stroke-miterlimit="10" stroke-width="2"/>
              <line id="Línea_1209" data-name="Línea 1209" x2="70.6" y2="0.51" transform="translate(360.98 360.97)" fill="none" stroke="#ffc585" stroke-linecap="round" stroke-miterlimit="10" stroke-width="2"/>
              <line id="Línea_1210" data-name="Línea 1210" x2="70.6" y2="0.51" transform="translate(360.96 366.25)" fill="none" stroke="#ffc585" stroke-linecap="round" stroke-miterlimit="10" stroke-width="2"/>
            </g>
            <g id="Grupo_1209106" data-name="Grupo 1209106">
              <rect id="Rectángulo_418650" data-name="Rectángulo 418650" width="19.76" height="19.76" transform="translate(331.661 319.105) rotate(0.07)" fill="#c7e0ff"/>
              <line id="Línea_1211" data-name="Línea 1211" x2="70.61" y2="0.51" transform="translate(360.33 320.01)" fill="none" stroke="#ffc585" stroke-linecap="round" stroke-miterlimit="10" stroke-width="2"/>
              <line id="Línea_1212" data-name="Línea 1212" x2="70.6" y2="0.51" transform="translate(359.95 324.69)" fill="none" stroke="#ffc585" stroke-linecap="round" stroke-miterlimit="10" stroke-width="2"/>
              <line id="Línea_1213" data-name="Línea 1213" x2="31.61" y2="0.23" transform="translate(360.16 329.44)" fill="none" stroke="#ffc585" stroke-linecap="round" stroke-miterlimit="10" stroke-width="2"/>
              <line id="Línea_1214" data-name="Línea 1214" x2="31.62" y2="0.23" transform="translate(399.16 329.84)" fill="none" stroke="#ffc585" stroke-linecap="round" stroke-miterlimit="10" stroke-width="2"/>
            </g>
            <g id="Grupo_1209107" data-name="Grupo 1209107">
              <rect id="Rectángulo_418651" data-name="Rectángulo 418651" width="19.76" height="19.76" transform="translate(332.026 380.255) rotate(0.07)" fill="#c7e0ff"/>
              <line id="Línea_1215" data-name="Línea 1215" x2="70.61" y2="0.51" transform="translate(361.66 382.04)" fill="none" stroke="#ffc585" stroke-linecap="round" stroke-miterlimit="10" stroke-width="2"/>
              <line id="Línea_1216" data-name="Línea 1216" x2="31.61" y2="0.23" transform="translate(361.33 386.51)" fill="none" stroke="#ffc585" stroke-linecap="round" stroke-miterlimit="10" stroke-width="2"/>
            </g>
            <g id="Grupo_1209108" data-name="Grupo 1209108">
              <rect id="Rectángulo_418652" data-name="Rectángulo 418652" width="19.76" height="19.76" transform="translate(332.07 410.145) rotate(0.07)" fill="#c7e0ff"/>
              <line id="Línea_1217" data-name="Línea 1217" x2="70.6" y2="0.5" transform="translate(360.45 411.97)" fill="none" stroke="#ffc585" stroke-linecap="round" stroke-miterlimit="10" stroke-width="2"/>
              <line id="Línea_1218" data-name="Línea 1218" x2="70.61" y2="0.51" transform="translate(360.34 416.72)" fill="none" stroke="#ffc585" stroke-linecap="round" stroke-miterlimit="10" stroke-width="2"/>
              <line id="Línea_1219" data-name="Línea 1219" x2="70.61" y2="0.5" transform="translate(359.71 421.21)" fill="none" stroke="#ffc585" stroke-linecap="round" stroke-miterlimit="10" stroke-width="2"/>
              <line id="Línea_1220" data-name="Línea 1220" x2="31.62" y2="0.23" transform="translate(359.87 426.18)" fill="none" stroke="#ffc585" stroke-linecap="round" stroke-miterlimit="10" stroke-width="2"/>
            </g>
          </g>
        </g>
      </g>
      <g id="Grupo_1209112" data-name="Grupo 1209112">
        <circle id="Elipse_12666" data-name="Elipse 12666" cx="37.49" cy="37.49" r="37.49" transform="translate(389.612 258.932) rotate(-21.97)" fill="#2f5682"/>
        <circle id="Elipse_12667" data-name="Elipse 12667" cx="37.49" cy="37.49" r="37.49" transform="translate(404.89 242.63)" fill="#1a8fc3"/>
        <path id="Trazado_1046684" data-name="Trazado 1046684" d="M442.38,242.63v37.49l31.28-20.67s-10.95-17.24-31.28-16.82Z" fill="#ffb464"/>
        <path id="Trazado_1046685" data-name="Trazado 1046685" d="M442.38,280.12h37.49s-.18-12.25-6.21-20.67Z" fill="#ffc999"/>
        <path id="Trazado_1046686" data-name="Trazado 1046686" d="M442.38,280.12h37.49s0,27.74-26.34,35.8l-11.14-35.8Z" fill="#ff2074"/>
      </g>
      <g id="Grupo_1209113" data-name="Grupo 1209113">
        <circle id="Elipse_12668" data-name="Elipse 12668" cx="42.52" cy="42.52" r="42.52" transform="matrix(0.159, -0.987, 0.987, 0.159, 126.363, 99.733)" fill="#2f5682"/>
        <circle id="Elipse_12669" data-name="Elipse 12669" cx="42.52" cy="42.52" r="42.52" transform="translate(125.48 95.563) rotate(-76.96)" fill="#305685"/>
        <circle id="Elipse_12670" data-name="Elipse 12670" cx="40.49" cy="40.49" r="40.49" transform="translate(119.046 63.546) rotate(-45)" fill="#1a8fc3"/>
        <circle id="Elipse_12671" data-name="Elipse 12671" cx="36.07" cy="36.07" r="36.07" transform="translate(140.19 27.44)" fill="#92e5ff"/>
        <path id="Trazado_1046687" data-name="Trazado 1046687" d="M185.66,47.95c-3.35,5.81-9.9,9.17-14.92,13.76a34.951,34.951,0,0,0-4.26,4.68,22.565,22.565,0,0,0-4.24,8.58c-1.54,6.89,1.46,14.06,5.67,19.73a15.159,15.159,0,0,1,2.53,4.14c-8.02-.14-16.34-5.84-21.43-11.71a36.069,36.069,0,0,1,27.26-59.69c3.25,0,5.73.16,7.93,2.8a15.845,15.845,0,0,1,2.1,16.49c-.2.42-.41.82-.64,1.22Z" fill="#58a6ff" opacity="0.78"/>
        <circle id="Elipse_12672" data-name="Elipse 12672" cx="3.85" cy="3.85" r="3.85" transform="translate(172.41 60.44)" fill="#17172b"/>
        <rect id="Rectángulo_418653" data-name="Rectángulo 418653" width="2.28" height="28.57" transform="translate(175.28 32.38)" fill="#17172b"/>
        <rect id="Rectángulo_418654" data-name="Rectángulo 418654" width="2.38" height="24.56" transform="translate(163.989 88.022) rotate(-150)" fill="#17172b"/>
        <path id="Trazado_1046688" data-name="Trazado 1046688" d="M170.99,40.68a7.04,7.04,0,1,1-7.04-7.04A7.038,7.038,0,0,1,170.99,40.68Z" fill="#fff"/>
        <circle id="Elipse_12673" data-name="Elipse 12673" cx="3.08" cy="3.08" r="3.08" transform="translate(151.74 48.32)" fill="#fff"/>
        <circle id="Elipse_12674" data-name="Elipse 12674" cx="36.07" cy="36.07" r="36.07" transform="translate(140.19 27.44)" fill="#97faff" opacity="0.53"/>
      </g>
    </g>
    <g id="Grupo_1209165" data-name="Grupo 1209165">
      <g id="Grupo_1209164" data-name="Grupo 1209164">
        <path id="Trazado_1046786" data-name="Trazado 1046786" d="M3544.331,3850.672h237.751" transform="translate(-2755.827 -9.888)" fill="none" stroke="#cc17ec" stroke-width="1.5"/>
        <g id="Grupo_1209163" data-name="Grupo 1209163">
          <g id="Trazado_1046788" data-name="Trazado 1046788" transform="translate(784.433 3834.716)" fill="#fff">
            <path d="M 6.06689453125 11.63378429412842 C 2.997304439544678 11.63378429412842 0.5000045299530029 9.136484146118164 0.5000045299530029 6.06689453125 C 0.5000045299530029 2.997304439544678 2.997304439544678 0.5000045299530029 6.06689453125 0.5000045299530029 C 9.136484146118164 0.5000045299530029 11.63378429412842 2.997304439544678 11.63378429412842 6.06689453125 C 11.63378429412842 9.136484146118164 9.136484146118164 11.63378429412842 6.06689453125 11.63378429412842 Z" stroke="none"/>
            <path d="M 6.06689453125 1.000004768371582 C 3.273004531860352 1.000004768371582 1.000004768371582 3.273004531860352 1.000004768371582 6.06689453125 C 1.000004768371582 8.860784530639648 3.273004531860352 11.13378429412842 6.06689453125 11.13378429412842 C 8.860784530639648 11.13378429412842 11.13378429412842 8.860784530639648 11.13378429412842 6.06689453125 C 11.13378429412842 3.273004531860352 8.860784530639648 1.000004768371582 6.06689453125 1.000004768371582 M 6.06689453125 4.76837158203125e-06 C 9.417544364929199 4.76837158203125e-06 12.13378429412842 2.716244697570801 12.13378429412842 6.06689453125 C 12.13378429412842 9.417544364929199 9.417544364929199 12.13378429412842 6.06689453125 12.13378429412842 C 2.716244697570801 12.13378429412842 4.76837158203125e-06 9.417544364929199 4.76837158203125e-06 6.06689453125 C 4.76837158203125e-06 2.716244697570801 2.716244697570801 4.76837158203125e-06 6.06689453125 4.76837158203125e-06 Z" stroke="none" fill="#cc17ec"/>
          </g>
          <path id="Trazado_1046787" data-name="Trazado 1046787" d="M2.6,0A2.6,2.6,0,1,1,0,2.6,2.6,2.6,0,0,1,2.6,0Z" transform="translate(787.9 3838.183)" fill="#e25cfa"/>
        </g>
      </g>
      <g id="Grupo_1209066" data-name="Grupo 1209066" transform="translate(1014.241 3814.783)">
        <g id="Grupo_1206112" data-name="Grupo 1206112">
          <g id="Rectángulo_418210" data-name="Rectángulo 418210" transform="translate(22 9)" fill="#fff" stroke="#cc17ec" stroke-width="1.5">
            <rect width="134" height="35" rx="17.5" stroke="none"/>
            <rect x="0.75" y="0.75" width="132.5" height="33.5" rx="16.75" fill="none"/>
          </g>
          <path id="Trazado_1054225" data-name="Trazado 1054225" d="M-33.737,0V-11.2h3.969q5.969,0,5.969,5.461a5.522,5.522,0,0,1-1.629,4.18A6.007,6.007,0,0,1-29.768,0Zm2.523-9.148v7.1h1.25a3.378,3.378,0,0,0,2.574-.984,3.735,3.735,0,0,0,.934-2.68,3.388,3.388,0,0,0-.926-2.52,3.529,3.529,0,0,0-2.6-.918ZM-14.993-3.3h-5.219q.125,1.742,2.2,1.742A4.286,4.286,0,0,0-15.7-2.18V-.4A6.1,6.1,0,0,1-18.579.2,4.058,4.058,0,0,1-21.587-.879a4.058,4.058,0,0,1-1.07-3A4.281,4.281,0,0,1-21.5-7.031,3.852,3.852,0,0,1-18.657-8.2,3.5,3.5,0,0,1-15.95-7.156a4,4,0,0,1,.957,2.82Zm-2.289-1.516q0-1.719-1.391-1.719a1.328,1.328,0,0,0-1.027.492,2.234,2.234,0,0,0-.527,1.227Zm13.394-.961a2.142,2.142,0,0,0-1.039-.242,1.5,1.5,0,0,0-1.258.59A2.573,2.573,0,0,0-6.638-3.82V0H-9.107V-8h2.469v1.484h.031A2.136,2.136,0,0,1-4.5-8.141a1.59,1.59,0,0,1,.609.094ZM4.91,0H2.449V-1.219H2.41A2.792,2.792,0,0,1-.035.2Q-2.816.2-2.816-3.172V-8H-.355v4.609q0,1.7,1.344,1.7A1.329,1.329,0,0,0,2.051-2.16a1.874,1.874,0,0,0,.4-1.262V-8H4.91Zm6.916-.094A3.649,3.649,0,0,1,10.177.2Q7.568.2,7.568-2.516V-6.18h-1.3V-8h1.3V-9.727l2.461-.7V-8h1.8v1.82h-1.8v3.234q0,1.25.992,1.25a1.673,1.673,0,0,0,.8-.227Zm2.642-9.172a1.442,1.442,0,0,1-1.023-.371,1.2,1.2,0,0,1-.4-.91,1.153,1.153,0,0,1,.4-.906,1.49,1.49,0,0,1,1.023-.352,1.486,1.486,0,0,1,1.027.352,1.158,1.158,0,0,1,.395.906,1.191,1.191,0,0,1-.395.922A1.466,1.466,0,0,1,14.468-9.266ZM15.687,0H13.218V-8h2.469Zm9.806,0H23.032V-4.445Q23.032-6.3,21.7-6.3a1.318,1.318,0,0,0-1.055.492,1.875,1.875,0,0,0-.414,1.25V0H17.767V-8h2.469v1.266h.031A2.829,2.829,0,0,1,22.837-8.2q2.656,0,2.656,3.3ZM34.1,0H31.768V-1.148h-.031A2.607,2.607,0,0,1,29.354.2a2.492,2.492,0,0,1-1.832-.66,2.366,2.366,0,0,1-.668-1.762q0-2.328,2.758-2.687L31.784-5.2q0-1.312-1.422-1.312a4.853,4.853,0,0,0-2.719.852V-7.523a6.116,6.116,0,0,1,1.41-.469,7.413,7.413,0,0,1,1.629-.2Q34.1-8.2,34.1-4.781Zm-2.32-3.25v-.539L30.331-3.6q-1.2.156-1.2,1.086a.9.9,0,0,0,.293.691,1.126,1.126,0,0,0,.793.27,1.462,1.462,0,0,0,1.133-.48A1.735,1.735,0,0,0,31.784-3.25Z" transform="translate(97.5 32)" fill="#0b0a0a"/>
          <g id="Elipse_12633" data-name="Elipse 12633" transform="translate(5 2)" fill="#fff" stroke="#cc17ec" stroke-width="1.5">
            <circle cx="24" cy="24" r="24" stroke="none"/>
            <circle cx="24" cy="24" r="23.25" fill="none"/>
          </g>
        </g>
      </g>
    </g>
    <g id="Grupo_1209167" data-name="Grupo 1209167" transform="translate(104 167)">
      <g id="Grupo_1209164-2" data-name="Grupo 1209164" transform="translate(784.433 3834.716)">
        <path id="Trazado_1046786-2" data-name="Trazado 1046786" d="M3544.331,3850.672h237.751" transform="translate(-3540.26 -3844.605)" fill="none" stroke="#cc17ec" stroke-width="1.5"/>
        <g id="Grupo_1209163-2" data-name="Grupo 1209163">
          <g id="Trazado_1046788-2" data-name="Trazado 1046788" fill="#fff">
            <path d="M 6.06689453125 11.63378429412842 C 2.997304439544678 11.63378429412842 0.5000045299530029 9.136484146118164 0.5000045299530029 6.06689453125 C 0.5000045299530029 2.997304439544678 2.997304439544678 0.5000045299530029 6.06689453125 0.5000045299530029 C 9.136484146118164 0.5000045299530029 11.63378429412842 2.997304439544678 11.63378429412842 6.06689453125 C 11.63378429412842 9.136484146118164 9.136484146118164 11.63378429412842 6.06689453125 11.63378429412842 Z" stroke="none"/>
            <path d="M 6.06689453125 1.000004768371582 C 3.273004531860352 1.000004768371582 1.000004768371582 3.273004531860352 1.000004768371582 6.06689453125 C 1.000004768371582 8.860784530639648 3.273004531860352 11.13378429412842 6.06689453125 11.13378429412842 C 8.860784530639648 11.13378429412842 11.13378429412842 8.860784530639648 11.13378429412842 6.06689453125 C 11.13378429412842 3.273004531860352 8.860784530639648 1.000004768371582 6.06689453125 1.000004768371582 M 6.06689453125 4.76837158203125e-06 C 9.417544364929199 4.76837158203125e-06 12.13378429412842 2.716244697570801 12.13378429412842 6.06689453125 C 12.13378429412842 9.417544364929199 9.417544364929199 12.13378429412842 6.06689453125 12.13378429412842 C 2.716244697570801 12.13378429412842 4.76837158203125e-06 9.417544364929199 4.76837158203125e-06 6.06689453125 C 4.76837158203125e-06 2.716244697570801 2.716244697570801 4.76837158203125e-06 6.06689453125 4.76837158203125e-06 Z" stroke="none" fill="#cc17ec"/>
          </g>
          <path id="Trazado_1046787-2" data-name="Trazado 1046787" d="M2.6,0A2.6,2.6,0,1,1,0,2.6,2.6,2.6,0,0,1,2.6,0Z" transform="translate(3.467 3.467)" fill="#e25cfa"/>
        </g>
      </g>
      <g id="Grupo_1209066-2" data-name="Grupo 1209066" transform="translate(920.942 3816.783)">
        <g id="Grupo_1206112-2" data-name="Grupo 1206112">
          <g id="Rectángulo_418210-2" data-name="Rectángulo 418210" transform="translate(17 7)" fill="#fff" stroke="#cc17ec" stroke-width="1.5">
            <rect width="169" height="35" rx="17.5" stroke="none"/>
            <rect x="0.75" y="0.75" width="167.5" height="33.5" rx="16.75" fill="none"/>
          </g>
          <path id="Trazado_1054226" data-name="Trazado 1054226" d="M-49.015,0h-6.719V-11.2h6.461v2.055H-53.21v2.492h3.664v2.047H-53.21v2.563h4.2Zm9.283-8-2.641,3.875L-39.748,0h-2.844l-1.156-2.156q-.141-.258-.336-.727h-.031a5.073,5.073,0,0,1-.32.7L-45.6,0h-2.836l2.7-3.984L-48.271-8h2.859l1.141,2.242a4.917,4.917,0,0,1,.32.75h.031a5.285,5.285,0,0,1,.336-.766L-42.42-8Zm5.947,7.906A3.649,3.649,0,0,1-35.434.2q-2.609,0-2.609-2.711V-6.18h-1.3V-8h1.3V-9.727l2.461-.7V-8h1.8v1.82h-1.8v3.234q0,1.25.992,1.25a1.673,1.673,0,0,0,.8-.227Zm6.611-5.68a2.142,2.142,0,0,0-1.039-.242,1.5,1.5,0,0,0-1.258.59,2.573,2.573,0,0,0-.453,1.605V0h-2.469V-8h2.469v1.484h.031a2.136,2.136,0,0,1,2.109-1.625,1.59,1.59,0,0,1,.609.094ZM-19.368,0H-21.7V-1.148h-.031A2.607,2.607,0,0,1-24.118.2a2.492,2.492,0,0,1-1.832-.66,2.366,2.366,0,0,1-.668-1.762q0-2.328,2.758-2.687l2.172-.289q0-1.312-1.422-1.312a4.853,4.853,0,0,0-2.719.852V-7.523a6.116,6.116,0,0,1,1.41-.469,7.413,7.413,0,0,1,1.629-.2q3.422,0,3.422,3.414Zm-2.32-3.25v-.539l-1.453.188q-1.2.156-1.2,1.086a.9.9,0,0,0,.293.691,1.126,1.126,0,0,0,.793.27,1.462,1.462,0,0,0,1.133-.48A1.735,1.735,0,0,0-21.688-3.25ZM-13.6.2A4.3,4.3,0,0,1-16.745-.926,4.064,4.064,0,0,1-17.89-3.969,4.065,4.065,0,0,1-16.7-7.074,4.487,4.487,0,0,1-13.491-8.2a4.249,4.249,0,0,1,3.125,1.121A3.985,3.985,0,0,1-9.234-4.109,4.23,4.23,0,0,1-10.4-.961,4.348,4.348,0,0,1-13.6.2Zm.063-6.5a1.647,1.647,0,0,0-1.359.6A2.653,2.653,0,0,0-15.382-4q0,2.3,1.859,2.3,1.773,0,1.773-2.367Q-11.749-6.3-13.538-6.3Zm11.127.531a2.142,2.142,0,0,0-1.039-.242,1.5,1.5,0,0,0-1.258.59A2.573,2.573,0,0,0-5.162-3.82V0H-7.631V-8h2.469v1.484h.031A2.136,2.136,0,0,1-3.021-8.141a1.59,1.59,0,0,1,.609.094ZM6.5,0H4.035V-1.1H4A2.768,2.768,0,0,1,1.527.2,3.033,3.033,0,0,1-.887-.863,4.382,4.382,0,0,1-1.8-3.82,4.77,4.77,0,0,1-.793-7,3.287,3.287,0,0,1,1.848-8.2,2.246,2.246,0,0,1,4-7.086h.031v-4.758H6.5ZM4.082-3.891v-.6a1.893,1.893,0,0,0-.453-1.3A1.5,1.5,0,0,0,2.449-6.3a1.487,1.487,0,0,0-1.281.645,2.993,2.993,0,0,0-.461,1.77,2.59,2.59,0,0,0,.445,1.625,1.479,1.479,0,0,0,1.234.57,1.485,1.485,0,0,0,1.223-.6A2.507,2.507,0,0,0,4.082-3.891ZM9.834-9.266A1.442,1.442,0,0,1,8.81-9.637a1.2,1.2,0,0,1-.4-.91,1.153,1.153,0,0,1,.4-.906A1.49,1.49,0,0,1,9.834-11.8a1.486,1.486,0,0,1,1.027.352,1.158,1.158,0,0,1,.395.906,1.191,1.191,0,0,1-.395.922A1.466,1.466,0,0,1,9.834-9.266ZM11.052,0H8.584V-8h2.469Zm9.806,0H18.4V-4.445Q18.4-6.3,17.07-6.3a1.318,1.318,0,0,0-1.055.492,1.875,1.875,0,0,0-.414,1.25V0H13.132V-8H15.6v1.266h.031A2.829,2.829,0,0,1,18.2-8.2q2.656,0,2.656,3.3ZM29.47,0H27.134V-1.148H27.1A2.607,2.607,0,0,1,24.72.2a2.492,2.492,0,0,1-1.832-.66,2.366,2.366,0,0,1-.668-1.762q0-2.328,2.758-2.687L27.149-5.2q0-1.312-1.422-1.312a4.853,4.853,0,0,0-2.719.852V-7.523a6.116,6.116,0,0,1,1.41-.469,7.413,7.413,0,0,1,1.629-.2q3.422,0,3.422,3.414Zm-2.32-3.25v-.539L25.7-3.6q-1.2.156-1.2,1.086a.9.9,0,0,0,.293.691,1.126,1.126,0,0,0,.793.27,1.462,1.462,0,0,0,1.133-.48A1.735,1.735,0,0,0,27.149-3.25Zm9.494-2.523A2.142,2.142,0,0,0,35.6-6.016a1.5,1.5,0,0,0-1.258.59,2.573,2.573,0,0,0-.453,1.605V0H31.424V-8h2.469v1.484h.031a2.136,2.136,0,0,1,2.109-1.625,1.59,1.59,0,0,1,.609.094Zm2.463-3.492a1.442,1.442,0,0,1-1.023-.371,1.2,1.2,0,0,1-.4-.91,1.153,1.153,0,0,1,.4-.906,1.49,1.49,0,0,1,1.023-.352,1.486,1.486,0,0,1,1.027.352,1.158,1.158,0,0,1,.395.906,1.191,1.191,0,0,1-.395.922A1.466,1.466,0,0,1,39.106-9.266ZM40.324,0H37.856V-8h2.469ZM49.06,0H46.724V-1.148h-.031A2.607,2.607,0,0,1,44.31.2a2.492,2.492,0,0,1-1.832-.66,2.366,2.366,0,0,1-.668-1.762q0-2.328,2.758-2.687L46.74-5.2q0-1.312-1.422-1.312a4.853,4.853,0,0,0-2.719.852V-7.523a6.116,6.116,0,0,1,1.41-.469,7.413,7.413,0,0,1,1.629-.2q3.422,0,3.422,3.414ZM46.74-3.25v-.539L45.287-3.6q-1.2.156-1.2,1.086a.9.9,0,0,0,.293.691,1.126,1.126,0,0,0,.793.27,1.462,1.462,0,0,0,1.133-.48A1.735,1.735,0,0,0,46.74-3.25ZM50.492-.211v-2a5.256,5.256,0,0,0,1.215.547,4.028,4.028,0,0,0,1.145.18,2.455,2.455,0,0,0,1.035-.18.581.581,0,0,0,.379-.547.506.506,0,0,0-.172-.391,1.6,1.6,0,0,0-.441-.273,5.009,5.009,0,0,0-.59-.211q-.32-.094-.617-.211a5.913,5.913,0,0,1-.84-.387A2.427,2.427,0,0,1,51-4.164a1.889,1.889,0,0,1-.375-.633,2.525,2.525,0,0,1-.129-.852A2.192,2.192,0,0,1,50.785-6.8a2.393,2.393,0,0,1,.781-.793,3.57,3.57,0,0,1,1.117-.453A5.825,5.825,0,0,1,53.992-8.2a7.261,7.261,0,0,1,1.078.082,8.047,8.047,0,0,1,1.078.238v1.906a3.9,3.9,0,0,0-1-.41,4.235,4.235,0,0,0-1.051-.137,2.328,2.328,0,0,0-.457.043,1.505,1.505,0,0,0-.379.125A.7.7,0,0,0,53-6.137a.486.486,0,0,0-.094.293.541.541,0,0,0,.141.375,1.221,1.221,0,0,0,.367.27,3.625,3.625,0,0,0,.5.2q.277.09.551.184a7.161,7.161,0,0,1,.891.375,2.848,2.848,0,0,1,.684.477,1.871,1.871,0,0,1,.438.641,2.277,2.277,0,0,1,.152.875,2.282,2.282,0,0,1-.309,1.215,2.471,2.471,0,0,1-.82.82,3.72,3.72,0,0,1-1.18.461A6.54,6.54,0,0,1,52.937.2,7.149,7.149,0,0,1,50.492-.211Z" transform="translate(112.5 30)" fill="#0b0a0a"/>
          <g id="Elipse_12633-2" data-name="Elipse 12633" fill="#fff" stroke="#cc17ec" stroke-width="1.5">
            <circle cx="24" cy="24" r="24" stroke="none"/>
            <circle cx="24" cy="24" r="23.25" fill="none"/>
          </g>
        </g>
      </g>
    </g>
    <g id="Grupo_1209166" data-name="Grupo 1209166" transform="translate(414.496 3820.763)">
      <g id="Grupo_1209164-3" data-name="Grupo 1209164" transform="translate(19.923 17.933)">
        <path id="Trazado_1046786-3" data-name="Trazado 1046786" d="M3782.083,3850.672H3544.331" transform="translate(-3544.331 -3844.605)" fill="none" stroke="#cc17ec" stroke-width="1.5"/>
        <g id="Grupo_1209163-3" data-name="Grupo 1209163" transform="translate(229.688)">
          <g id="Trazado_1046788-3" data-name="Trazado 1046788" fill="#fff">
            <path d="M 6.06689453125 11.63378429412842 C 2.997304439544678 11.63378429412842 0.5000045299530029 9.136484146118164 0.5000045299530029 6.06689453125 C 0.5000045299530029 2.997304439544678 2.997304439544678 0.5000045299530029 6.06689453125 0.5000045299530029 C 9.136484146118164 0.5000045299530029 11.63378429412842 2.997304439544678 11.63378429412842 6.06689453125 C 11.63378429412842 9.136484146118164 9.136484146118164 11.63378429412842 6.06689453125 11.63378429412842 Z" stroke="none"/>
            <path d="M 6.06689453125 1.000004768371582 C 3.273004531860352 1.000004768371582 1.000004768371582 3.273004531860352 1.000004768371582 6.06689453125 C 1.000004768371582 8.860784530639648 3.273004531860352 11.13378429412842 6.06689453125 11.13378429412842 C 8.860784530639648 11.13378429412842 11.13378429412842 8.860784530639648 11.13378429412842 6.06689453125 C 11.13378429412842 3.273004531860352 8.860784530639648 1.000004768371582 6.06689453125 1.000004768371582 M 6.06689453125 4.76837158203125e-06 C 9.417544364929199 4.76837158203125e-06 12.13378429412842 2.716244697570801 12.13378429412842 6.06689453125 C 12.13378429412842 9.417544364929199 9.417544364929199 12.13378429412842 6.06689453125 12.13378429412842 C 2.716244697570801 12.13378429412842 4.76837158203125e-06 9.417544364929199 4.76837158203125e-06 6.06689453125 C 4.76837158203125e-06 2.716244697570801 2.716244697570801 4.76837158203125e-06 6.06689453125 4.76837158203125e-06 Z" stroke="none" fill="#cc17ec"/>
          </g>
          <path id="Trazado_1046787-3" data-name="Trazado 1046787" d="M2.6,0A2.6,2.6,0,1,0,5.2,2.6,2.6,2.6,0,0,0,2.6,0Z" transform="translate(3.467 3.467)" fill="#e25cfa"/>
        </g>
      </g>
      <g id="Grupo_1209066-3" data-name="Grupo 1209066">
        <g id="Grupo_1206112-3" data-name="Grupo 1206112">
          <g id="Rectángulo_418210-3" data-name="Rectángulo 418210" transform="translate(0 7)" fill="#fff" stroke="#cc17ec" stroke-width="1.5">
            <rect width="134" height="35" rx="17.5" stroke="none"/>
            <rect x="0.75" y="0.75" width="132.5" height="33.5" rx="16.75" fill="none"/>
          </g>
          <path id="Trazado_1054224" data-name="Trazado 1054224" d="M-32.192,0H-38.91V-11.2h6.461v2.055h-3.937v2.492h3.664v2.047h-3.664v2.563h4.2Zm1.033-.211v-2a5.256,5.256,0,0,0,1.215.547,4.028,4.028,0,0,0,1.145.18,2.455,2.455,0,0,0,1.035-.18.581.581,0,0,0,.379-.547.506.506,0,0,0-.172-.391A1.6,1.6,0,0,0-28-2.875a5.009,5.009,0,0,0-.59-.211q-.32-.094-.617-.211a5.913,5.913,0,0,1-.84-.387,2.427,2.427,0,0,1-.609-.48A1.889,1.889,0,0,1-31.03-4.8a2.525,2.525,0,0,1-.129-.852A2.192,2.192,0,0,1-30.866-6.8a2.393,2.393,0,0,1,.781-.793,3.57,3.57,0,0,1,1.117-.453A5.825,5.825,0,0,1-27.659-8.2a7.261,7.261,0,0,1,1.078.082,8.047,8.047,0,0,1,1.078.238v1.906a3.9,3.9,0,0,0-1-.41,4.235,4.235,0,0,0-1.051-.137,2.328,2.328,0,0,0-.457.043,1.505,1.505,0,0,0-.379.125.7.7,0,0,0-.258.211.486.486,0,0,0-.094.293.541.541,0,0,0,.141.375,1.221,1.221,0,0,0,.367.27,3.625,3.625,0,0,0,.5.2q.277.09.551.184a7.161,7.161,0,0,1,.891.375,2.848,2.848,0,0,1,.684.477,1.872,1.872,0,0,1,.438.641,2.277,2.277,0,0,1,.152.875,2.282,2.282,0,0,1-.309,1.215,2.471,2.471,0,0,1-.82.82,3.72,3.72,0,0,1-1.18.461A6.54,6.54,0,0,1-28.713.2,7.149,7.149,0,0,1-31.159-.211ZM-21.095-.93h-.031V3.68h-2.469V-8h2.469v1.2h.031a2.9,2.9,0,0,1,2.57-1.4,2.892,2.892,0,0,1,2.4,1.066,4.54,4.54,0,0,1,.848,2.9,4.922,4.922,0,0,1-.988,3.211A3.222,3.222,0,0,1-18.892.2,2.491,2.491,0,0,1-21.095-.93Zm-.07-3.281v.641a2.037,2.037,0,0,0,.438,1.352,1.424,1.424,0,0,0,1.148.523,1.514,1.514,0,0,0,1.309-.652A3.15,3.15,0,0,0-17.806-4.2q0-2.109-1.641-2.109a1.541,1.541,0,0,0-1.238.574A2.29,2.29,0,0,0-21.165-4.211ZM-6.484-3.3H-11.7q.125,1.742,2.2,1.742a4.286,4.286,0,0,0,2.32-.625V-.4A6.1,6.1,0,0,1-10.07.2,4.058,4.058,0,0,1-13.077-.879a4.058,4.058,0,0,1-1.07-3,4.281,4.281,0,0,1,1.156-3.156A3.852,3.852,0,0,1-10.148-8.2,3.5,3.5,0,0,1-7.441-7.156a4,4,0,0,1,.957,2.82ZM-8.773-4.812q0-1.719-1.391-1.719a1.328,1.328,0,0,0-1.027.492,2.234,2.234,0,0,0-.527,1.227ZM1.049-.289A4.881,4.881,0,0,1-1.365.2,4.083,4.083,0,0,1-4.349-.922,3.859,3.859,0,0,1-5.49-3.8,4.251,4.251,0,0,1-4.267-7.02,4.518,4.518,0,0,1-1-8.2a4.2,4.2,0,0,1,2.047.375v2.094A2.814,2.814,0,0,0-.677-6.3a2.275,2.275,0,0,0-1.684.621,2.317,2.317,0,0,0-.621,1.715A2.28,2.28,0,0,0-2.388-2.3,2.182,2.182,0,0,0-.756-1.7a3.258,3.258,0,0,0,1.8-.578ZM5.137,0H2.668V-8H5.137ZM6.41-11.789,3.965-9.266H2.184l2.031-2.523Zm6.025,1.836a2.494,2.494,0,0,0-.914-.187q-1.188,0-1.187,1.289V-8h1.828v1.82H10.334V0H7.873V-6.18H6.529V-8H7.873v-.992a2.88,2.88,0,0,1,.891-2.2,3.4,3.4,0,0,1,2.422-.836,4.253,4.253,0,0,1,1.25.156Zm2.166.688a1.442,1.442,0,0,1-1.023-.371,1.2,1.2,0,0,1-.4-.91,1.153,1.153,0,0,1,.4-.906A1.49,1.49,0,0,1,14.6-11.8a1.486,1.486,0,0,1,1.027.352,1.158,1.158,0,0,1,.395.906,1.191,1.191,0,0,1-.395.922A1.466,1.466,0,0,1,14.6-9.266ZM15.82,0H13.351V-8H15.82Zm8.142-.289A4.881,4.881,0,0,1,21.548.2,4.083,4.083,0,0,1,18.563-.922,3.859,3.859,0,0,1,17.423-3.8,4.251,4.251,0,0,1,18.645-7.02,4.518,4.518,0,0,1,21.915-8.2a4.2,4.2,0,0,1,2.047.375v2.094A2.814,2.814,0,0,0,22.235-6.3a2.275,2.275,0,0,0-1.684.621,2.317,2.317,0,0,0-.621,1.715A2.28,2.28,0,0,0,20.524-2.3a2.182,2.182,0,0,0,1.633.605,3.258,3.258,0,0,0,1.8-.578ZM32.237,0H29.9V-1.148H29.87A2.607,2.607,0,0,1,27.487.2a2.492,2.492,0,0,1-1.832-.66,2.366,2.366,0,0,1-.668-1.762q0-2.328,2.758-2.687L29.917-5.2q0-1.312-1.422-1.312a4.853,4.853,0,0,0-2.719.852V-7.523a6.116,6.116,0,0,1,1.41-.469,7.413,7.413,0,0,1,1.629-.2q3.422,0,3.422,3.414Zm-2.32-3.25v-.539L28.463-3.6q-1.2.156-1.2,1.086a.9.9,0,0,0,.293.691,1.126,1.126,0,0,0,.793.27,1.462,1.462,0,0,0,1.133-.48A1.735,1.735,0,0,0,29.917-3.25ZM33.668-.211v-2a5.256,5.256,0,0,0,1.215.547,4.028,4.028,0,0,0,1.145.18,2.455,2.455,0,0,0,1.035-.18.581.581,0,0,0,.379-.547A.506.506,0,0,0,37.27-2.6a1.6,1.6,0,0,0-.441-.273,5.009,5.009,0,0,0-.59-.211q-.32-.094-.617-.211a5.913,5.913,0,0,1-.84-.387,2.427,2.427,0,0,1-.609-.48A1.889,1.889,0,0,1,33.8-4.8a2.525,2.525,0,0,1-.129-.852A2.192,2.192,0,0,1,33.961-6.8a2.393,2.393,0,0,1,.781-.793,3.57,3.57,0,0,1,1.117-.453A5.825,5.825,0,0,1,37.168-8.2a7.261,7.261,0,0,1,1.078.082,8.047,8.047,0,0,1,1.078.238v1.906a3.9,3.9,0,0,0-1-.41,4.235,4.235,0,0,0-1.051-.137,2.328,2.328,0,0,0-.457.043,1.505,1.505,0,0,0-.379.125.7.7,0,0,0-.258.211.486.486,0,0,0-.094.293.541.541,0,0,0,.141.375,1.221,1.221,0,0,0,.367.27,3.625,3.625,0,0,0,.5.2q.277.09.551.184a7.161,7.161,0,0,1,.891.375,2.848,2.848,0,0,1,.684.477,1.871,1.871,0,0,1,.438.641,2.277,2.277,0,0,1,.152.875A2.282,2.282,0,0,1,39.5-1.23a2.471,2.471,0,0,1-.82.82A3.72,3.72,0,0,1,37.5.051,6.54,6.54,0,0,1,36.113.2,7.149,7.149,0,0,1,33.668-.211Z" transform="translate(54.5 30)" fill="#0b0a0a"/>
          <g id="Elipse_12633-3" data-name="Elipse 12633" transform="translate(103)" fill="#fff" stroke="#cc17ec" stroke-width="1.5">
            <circle cx="24" cy="24" r="24" stroke="none"/>
            <circle cx="24" cy="24" r="23.25" fill="none"/>
          </g>
        </g>
      </g>
    </g>
  </g>
</svg>
