<svg xmlns="http://www.w3.org/2000/svg" xmlns:xlink="http://www.w3.org/1999/xlink" width="505" height="508.794" viewBox="0 0 505 508.794">
  <defs>
    <clipPath id="clip-path">
      <rect id="Rectángulo_418674" data-name="Rectángulo 418674" width="505" height="508.794" transform="translate(915 4295.175)" fill="#193141" stroke="#707070" stroke-width="1" opacity="0.49"/>
    </clipPath>
    <filter id="Rectángulo_418656" x="63" y="-6.392" width="379" height="527" filterUnits="userSpaceOnUse">
      <feOffset dy="3" input="SourceAlpha"/>
      <feGaussianBlur stdDeviation="3" result="blur"/>
      <feFlood flood-opacity="0.161"/>
      <feComposite operator="in" in2="blur"/>
      <feComposite in="SourceGraphic"/>
    </filter>
    <clipPath id="clip-path-2">
      <rect id="Rectángulo_418905" data-name="Rectángulo 418905" width="512.858" height="310.321" fill="none" stroke="#e5782d" stroke-width="1"/>
    </clipPath>
    <clipPath id="clip-path-3">
      <rect id="Rectángulo_418943" data-name="Rectángulo 418943" width="512.858" height="310.321" fill="none"/>
    </clipPath>
    <clipPath id="clip-path-5">
      <rect id="Rectángulo_418873" data-name="Rectángulo 418873" width="527.512" height="416.092" fill="none"/>
    </clipPath>
  </defs>
  <g id="Enmascarar_grupo_1098796" data-name="Enmascarar grupo 1098796" transform="translate(-915 -4295.175)" clip-path="url(#clip-path)">
    <g transform="matrix(1, 0, 0, 1, 915, 4295.18)" filter="url(#Rectángulo_418656)">
      <rect id="Rectángulo_418656-2" data-name="Rectángulo 418656" width="361" height="509" rx="8" transform="translate(72 -0.39)" fill="#56a8dd"/>
    </g>
    <g id="Grupo_1209424" data-name="Grupo 1209424" transform="translate(907.142 4320.623)">
      <rect id="Rectángulo_418874" data-name="Rectángulo 418874" width="75.719" height="8.662" transform="translate(349.957 67.423)" fill="#fff"/>
      <rect id="Rectángulo_418875" data-name="Rectángulo 418875" width="75.719" height="8.662" transform="translate(349.957 67.423)" fill="none" stroke="#e5782d" stroke-linecap="round" stroke-linejoin="round" stroke-width="1.5"/>
      <rect id="Rectángulo_418876" data-name="Rectángulo 418876" width="82.674" height="3.083" transform="translate(346.48 64.338)" fill="#fff"/>
      <rect id="Rectángulo_418877" data-name="Rectángulo 418877" width="82.674" height="3.083" transform="translate(346.48 64.338)" fill="none" stroke="#e5782d" stroke-linecap="round" stroke-linejoin="round" stroke-width="1.5"/>
      <rect id="Rectángulo_418878" data-name="Rectángulo 418878" width="82.674" height="3.083" transform="translate(346.48 76.086)" fill="#fff" stroke="#e5782d" stroke-width="1"/>
      <rect id="Rectángulo_418879" data-name="Rectángulo 418879" width="82.674" height="3.083" transform="translate(346.48 76.086)" fill="none" stroke="#e5782d" stroke-linecap="round" stroke-linejoin="round" stroke-width="1.5"/>
      <path id="Trazado_1047813" data-name="Trazado 1047813" d="M549.764,82.792,511.9,58.711l-37.86,24.081" transform="translate(-124.087 -15.368)" fill="none" stroke="#e5782d" stroke-linecap="round" stroke-linejoin="round" stroke-width="1.5"/>
      <g id="Grupo_1209419" data-name="Grupo 1209419">
        <g id="Grupo_1209418" data-name="Grupo 1209418" clip-path="url(#clip-path-2)">
          <path id="Trazado_1047814" data-name="Trazado 1047814" d="M520.75,54.895a3.38,3.38,0,1,0,3.38-3.38V49.229" transform="translate(-136.313 -12.886)" fill="none" stroke="#e5782d" stroke-linecap="round" stroke-linejoin="round" stroke-width="1.5"/>
          <path id="Trazado_1047815" data-name="Trazado 1047815" d="M519.851,42.318a4.044,4.044,0,1,0,4.043-4.043,4.043,4.043,0,0,0-4.043,4.043" transform="translate(-136.078 -10.019)" fill="#fff" stroke="#e5782d" stroke-width="1"/>
          <path id="Trazado_1047816" data-name="Trazado 1047816" d="M519.851,42.318a4.044,4.044,0,1,0,4.043-4.043A4.043,4.043,0,0,0,519.851,42.318Z" transform="translate(-136.078 -10.019)" fill="none" stroke="#e5782d" stroke-linecap="round" stroke-linejoin="round" stroke-width="1.5"/>
          <path id="Trazado_1047817" data-name="Trazado 1047817" d="M523.619,43.3a1.262,1.262,0,1,0,1.262-1.262,1.261,1.261,0,0,0-1.262,1.262" transform="translate(-137.064 -11.005)" fill="#ff95fb" stroke="#e5782d" stroke-width="1"/>
          <line id="Línea_1320" data-name="Línea 1320" y1="11.654" transform="translate(391.86 20.645)" fill="none" stroke="#e5782d" stroke-linecap="round" stroke-linejoin="round" stroke-width="1.5"/>
          <line id="Línea_1321" data-name="Línea 1321" y1="11.654" transform="translate(383.773 20.645)" fill="none" stroke="#e5782d" stroke-linecap="round" stroke-linejoin="round" stroke-width="1.5"/>
          <path id="Trazado_1047905" data-name="Trazado 1047905" d="M0,0H12.935V3H0Z" transform="translate(381.35 18.257)" fill="#e6eff3" stroke="#e5782d" stroke-width="1"/>
          <rect id="Rectángulo_418881" data-name="Rectángulo 418881" width="16.245" height="12.329" transform="translate(379.32 5.929)" fill="none" stroke="#e5782d" stroke-linecap="round" stroke-linejoin="round" stroke-width="1.5"/>
          <line id="Línea_1322" data-name="Línea 1322" x1="16.245" y1="12.329" transform="translate(379.32 5.929)" fill="none" stroke="#e5782d" stroke-linecap="round" stroke-linejoin="round" stroke-width="1.5"/>
          <rect id="Rectángulo_418882" data-name="Rectángulo 418882" width="16.245" height="12.329" transform="translate(363.075 5.929)" fill="none" stroke="#e5782d" stroke-linecap="round" stroke-linejoin="round" stroke-width="1.5"/>
          <line id="Línea_1323" data-name="Línea 1323" y1="12.329" x2="16.245" transform="translate(363.075 5.929)" fill="none" stroke="#e5782d" stroke-linecap="round" stroke-linejoin="round" stroke-width="1.5"/>
          <rect id="Rectángulo_418883" data-name="Rectángulo 418883" width="16.245" height="12.329" transform="translate(346.83 5.929)" fill="none" stroke="#e5782d" stroke-linecap="round" stroke-linejoin="round" stroke-width="1.5"/>
          <line id="Línea_1324" data-name="Línea 1324" x1="16.245" y1="12.329" transform="translate(346.83 5.929)" fill="none" stroke="#e5782d" stroke-linecap="round" stroke-linejoin="round" stroke-width="1.5"/>
          <rect id="Rectángulo_418884" data-name="Rectángulo 418884" width="16.245" height="12.329" transform="translate(330.585 5.929)" fill="none" stroke="#e5782d" stroke-linecap="round" stroke-linejoin="round" stroke-width="1.5"/>
          <line id="Línea_1325" data-name="Línea 1325" y1="12.329" x2="16.245" transform="translate(330.585 5.929)" fill="none" stroke="#e5782d" stroke-linecap="round" stroke-linejoin="round" stroke-width="1.5"/>
          <rect id="Rectángulo_418885" data-name="Rectángulo 418885" width="16.245" height="12.329" transform="translate(314.34 5.929)" fill="none" stroke="#e5782d" stroke-linecap="round" stroke-linejoin="round" stroke-width="1.5"/>
          <line id="Línea_1326" data-name="Línea 1326" x1="16.245" y1="12.329" transform="translate(314.34 5.929)" fill="none" stroke="#e5782d" stroke-linecap="round" stroke-linejoin="round" stroke-width="1.5"/>
          <rect id="Rectángulo_418886" data-name="Rectángulo 418886" width="16.245" height="12.329" transform="translate(298.095 5.929)" fill="none" stroke="#e5782d" stroke-linecap="round" stroke-linejoin="round" stroke-width="1.5"/>
          <line id="Línea_1327" data-name="Línea 1327" y1="12.329" x2="16.245" transform="translate(298.095 5.929)" fill="none" stroke="#e5782d" stroke-linecap="round" stroke-linejoin="round" stroke-width="1.5"/>
          <rect id="Rectángulo_418887" data-name="Rectángulo 418887" width="16.245" height="12.329" transform="translate(281.85 5.929)" fill="none" stroke="#e5782d" stroke-linecap="round" stroke-linejoin="round" stroke-width="1.5"/>
          <line id="Línea_1328" data-name="Línea 1328" x1="16.245" y1="12.329" transform="translate(281.85 5.929)" fill="none" stroke="#e5782d" stroke-linecap="round" stroke-linejoin="round" stroke-width="1.5"/>
          <rect id="Rectángulo_418888" data-name="Rectángulo 418888" width="16.245" height="12.329" transform="translate(265.605 5.929)" fill="none" stroke="#e5782d" stroke-linecap="round" stroke-linejoin="round" stroke-width="1.5"/>
          <line id="Línea_1329" data-name="Línea 1329" y1="12.329" x2="16.245" transform="translate(265.605 5.929)" fill="none" stroke="#e5782d" stroke-linecap="round" stroke-linejoin="round" stroke-width="1.5"/>
          <rect id="Rectángulo_418889" data-name="Rectángulo 418889" width="16.245" height="12.329" transform="translate(249.359 5.929)" fill="none" stroke="#e5782d" stroke-linecap="round" stroke-linejoin="round" stroke-width="1.5"/>
          <line id="Línea_1330" data-name="Línea 1330" x1="16.245" y1="12.329" transform="translate(249.36 5.929)" fill="none" stroke="#e5782d" stroke-linecap="round" stroke-linejoin="round" stroke-width="1.5"/>
          <rect id="Rectángulo_418890" data-name="Rectángulo 418890" width="16.245" height="12.329" transform="translate(233.115 5.929)" fill="none" stroke="#e5782d" stroke-linecap="round" stroke-linejoin="round" stroke-width="1.5"/>
          <line id="Línea_1331" data-name="Línea 1331" y1="12.329" x2="16.245" transform="translate(233.115 5.929)" fill="none" stroke="#e5782d" stroke-linecap="round" stroke-linejoin="round" stroke-width="1.5"/>
          <rect id="Rectángulo_418891" data-name="Rectángulo 418891" width="12.329" height="16.613" transform="translate(265.774 183.291)" fill="none" stroke="#e5782d" stroke-linecap="round" stroke-linejoin="round" stroke-width="1.5"/>
          <line id="Línea_1332" data-name="Línea 1332" y1="16.613" x2="12.329" transform="translate(265.774 183.291)" fill="none" stroke="#e5782d" stroke-linecap="round" stroke-linejoin="round" stroke-width="1.5"/>
          <rect id="Rectángulo_418892" data-name="Rectángulo 418892" width="12.329" height="16.613" transform="translate(265.774 166.678)" fill="none" stroke="#e5782d" stroke-linecap="round" stroke-linejoin="round" stroke-width="1.5"/>
          <line id="Línea_1333" data-name="Línea 1333" x2="12.329" y2="16.613" transform="translate(265.774 166.678)" fill="none" stroke="#e5782d" stroke-linecap="round" stroke-linejoin="round" stroke-width="1.5"/>
          <rect id="Rectángulo_418893" data-name="Rectángulo 418893" width="12.329" height="16.613" transform="translate(265.774 150.065)" fill="none" stroke="#e5782d" stroke-linecap="round" stroke-linejoin="round" stroke-width="1.5"/>
          <line id="Línea_1334" data-name="Línea 1334" y1="16.613" x2="12.329" transform="translate(265.774 150.065)" fill="none" stroke="#e5782d" stroke-linecap="round" stroke-linejoin="round" stroke-width="1.5"/>
          <rect id="Rectángulo_418894" data-name="Rectángulo 418894" width="12.329" height="16.613" transform="translate(265.774 133.453)" fill="none" stroke="#e5782d" stroke-linecap="round" stroke-linejoin="round" stroke-width="1.5"/>
          <line id="Línea_1335" data-name="Línea 1335" x2="12.329" y2="16.613" transform="translate(265.774 133.452)" fill="none" stroke="#e5782d" stroke-linecap="round" stroke-linejoin="round" stroke-width="1.5"/>
          <rect id="Rectángulo_418895" data-name="Rectángulo 418895" width="12.329" height="16.613" transform="translate(265.774 116.84)" fill="none" stroke="#e5782d" stroke-linecap="round" stroke-linejoin="round" stroke-width="1.5"/>
          <line id="Línea_1336" data-name="Línea 1336" y1="16.613" x2="12.329" transform="translate(265.774 116.84)" fill="none" stroke="#e5782d" stroke-linecap="round" stroke-linejoin="round" stroke-width="1.5"/>
          <rect id="Rectángulo_418896" data-name="Rectángulo 418896" width="12.329" height="16.613" transform="translate(265.774 100.227)" fill="none" stroke="#e5782d" stroke-linecap="round" stroke-linejoin="round" stroke-width="1.5"/>
          <line id="Línea_1337" data-name="Línea 1337" x2="12.329" y2="16.613" transform="translate(265.774 100.227)" fill="none" stroke="#e5782d" stroke-linecap="round" stroke-linejoin="round" stroke-width="1.5"/>
          <rect id="Rectángulo_418897" data-name="Rectángulo 418897" width="12.329" height="16.613" transform="translate(265.774 83.614)" fill="none" stroke="#e5782d" stroke-linecap="round" stroke-linejoin="round" stroke-width="1.5"/>
          <line id="Línea_1338" data-name="Línea 1338" y1="16.613" x2="12.329" transform="translate(265.774 83.614)" fill="none" stroke="#e5782d" stroke-linecap="round" stroke-linejoin="round" stroke-width="1.5"/>
          <rect id="Rectángulo_418898" data-name="Rectángulo 418898" width="12.329" height="16.613" transform="translate(265.774 67.001)" fill="none" stroke="#e5782d" stroke-linecap="round" stroke-linejoin="round" stroke-width="1.5"/>
          <line id="Línea_1339" data-name="Línea 1339" x2="12.329" y2="16.613" transform="translate(265.774 67.001)" fill="none" stroke="#e5782d" stroke-linecap="round" stroke-linejoin="round" stroke-width="1.5"/>
          <rect id="Rectángulo_418899" data-name="Rectángulo 418899" width="12.329" height="16.613" transform="translate(265.774 50.388)" fill="none" stroke="#e5782d" stroke-linecap="round" stroke-linejoin="round" stroke-width="1.5"/>
          <line id="Línea_1340" data-name="Línea 1340" y1="16.613" x2="12.329" transform="translate(265.774 50.388)" fill="none" stroke="#e5782d" stroke-linecap="round" stroke-linejoin="round" stroke-width="1.5"/>
          <rect id="Rectángulo_418900" data-name="Rectángulo 418900" width="12.329" height="16.613" transform="translate(265.774 33.775)" fill="none" stroke="#e5782d" stroke-linecap="round" stroke-linejoin="round" stroke-width="1.5"/>
          <line id="Línea_1341" data-name="Línea 1341" x2="12.329" y2="16.613" transform="translate(265.774 33.775)" fill="none" stroke="#e5782d" stroke-linecap="round" stroke-linejoin="round" stroke-width="1.5"/>
          <path id="Trazado_1047818" data-name="Trazado 1047818" d="M348.109,33.971h30.925V.75H359.6L348.109,17.36Z" transform="translate(-91.122 -0.196)" fill="#fff" stroke="#e5782d" stroke-width="1"/>
          <path id="Trazado_1047819" data-name="Trazado 1047819" d="M348.109,33.971h30.925V.75H359.6L348.109,17.36Z" transform="translate(-91.122 -0.196)" fill="none" stroke="#e5782d" stroke-linecap="round" stroke-linejoin="round" stroke-width="1.5"/>
          <rect id="Rectángulo_418901" data-name="Rectángulo 418901" width="11.832" height="18.376" transform="translate(271.938 4.594)" fill="#fff" stroke="#e5782d" stroke-width="1"/>
          <rect id="Rectángulo_418902" data-name="Rectángulo 418902" width="11.832" height="18.376" transform="translate(271.938 4.594)" fill="none" stroke="#e5782d" stroke-linecap="round" stroke-linejoin="round" stroke-width="1.5"/>
          <line id="Línea_1342" data-name="Línea 1342" x2="8.025" transform="translate(260.447 19.757)" fill="#fff" stroke="#e5782d" stroke-width="1"/>
          <line id="Línea_1343" data-name="Línea 1343" x2="8.025" transform="translate(260.447 19.757)" fill="none" stroke="#e5782d" stroke-linecap="round" stroke-linejoin="round" stroke-width="1.5"/>
          <line id="Línea_1344" data-name="Línea 1344" x2="8.025" transform="translate(260.447 22.97)" fill="#fff" stroke="#e5782d" stroke-width="1"/>
          <line id="Línea_1345" data-name="Línea 1345" x2="8.025" transform="translate(260.447 22.97)" fill="none" stroke="#e5782d" stroke-linecap="round" stroke-linejoin="round" stroke-width="1.5"/>
          <line id="Línea_1346" data-name="Línea 1346" x2="8.025" transform="translate(260.447 26.184)" fill="#fff" stroke="#e5782d" stroke-width="1"/>
          <line id="Línea_1347" data-name="Línea 1347" x2="8.025" transform="translate(260.447 26.184)" fill="none" stroke="#e5782d" stroke-linecap="round" stroke-linejoin="round" stroke-width="1.5"/>
          <line id="Línea_1348" data-name="Línea 1348" x2="8.025" transform="translate(260.447 29.397)" fill="#fff" stroke="#e5782d" stroke-width="1"/>
          <line id="Línea_1349" data-name="Línea 1349" x2="8.025" transform="translate(260.447 29.397)" fill="none" stroke="#e5782d" stroke-linecap="round" stroke-linejoin="round" stroke-width="1.5"/>
          <rect id="Rectángulo_418903" data-name="Rectángulo 418903" width="43.461" height="6.417" transform="translate(250.208 193.486)" fill="#ff95fb" stroke="#e5782d" stroke-width="1"/>
          <rect id="Rectángulo_418904" data-name="Rectángulo 418904" width="43.461" height="6.417" transform="translate(250.208 193.486)" fill="none" stroke="#e5782d" stroke-linecap="round" stroke-linejoin="round" stroke-width="1.5"/>
        </g>
      </g>
      <rect id="Rectángulo_418906" data-name="Rectángulo 418906" width="2.37" height="195.309" transform="translate(502.155 4.641)" fill="#303030"/>
      <path id="Trazado_1047906" data-name="Trazado 1047906" d="M0,0H5.636V195.309H0Z" transform="translate(496.518 4.641)" fill="#e5782d"/>
      <rect id="Rectángulo_418908" data-name="Rectángulo 418908" width="2.37" height="195.309" transform="translate(457.009 4.641)" fill="#303030"/>
      <path id="Trazado_1047902" data-name="Trazado 1047902" d="M0,0H5.636V195.309H0Z" transform="translate(451.372 4.641)" fill="#e5782d"/>
      <rect id="Rectángulo_418910" data-name="Rectángulo 418910" width="50.783" height="66.063" transform="translate(438.251 133.887)" fill="#00826f"/>
      <rect id="Rectángulo_418911" data-name="Rectángulo 418911" width="34.335" height="25.885" transform="translate(446.475 147.672)" fill="#fff"/>
      <rect id="Rectángulo_418912" data-name="Rectángulo 418912" width="34.335" height="25.885" transform="translate(446.475 147.672)" fill="none" stroke="#303030" stroke-linecap="round" stroke-linejoin="round" stroke-width="1.5"/>
      <rect id="Rectángulo_418913" data-name="Rectángulo 418913" width="2.93" height="25.885" transform="translate(446.475 147.672)" fill="#e5782d"/>
      <rect id="Rectángulo_418914" data-name="Rectángulo 418914" width="2.93" height="25.885" transform="translate(446.475 147.672)" fill="none" stroke="#303030" stroke-linecap="round" stroke-linejoin="round" stroke-width="1.5"/>
      <line id="Línea_1350" data-name="Línea 1350" x2="34.335" transform="translate(446.474 164.958)" fill="none" stroke="#00826f" stroke-linecap="round" stroke-linejoin="round" stroke-width="1.5"/>
      <line id="Línea_1351" data-name="Línea 1351" y2="25.885" transform="translate(457.919 147.673)" fill="none" stroke="#00826f" stroke-linecap="round" stroke-linejoin="round" stroke-width="1.5"/>
      <line id="Línea_1352" data-name="Línea 1352" y2="25.885" transform="translate(469.364 147.673)" fill="none" stroke="#00826f" stroke-linecap="round" stroke-linejoin="round" stroke-width="1.5"/>
      <rect id="Rectángulo_418915" data-name="Rectángulo 418915" width="2.37" height="108.61" transform="translate(411.85 91.341)" fill="#303030"/>
      <path id="Trazado_1047901" data-name="Trazado 1047901" d="M0,0H5.636V108.61H0Z" transform="translate(406.214 91.341)" fill="#e5782d"/>
      <rect id="Rectángulo_418917" data-name="Rectángulo 418917" width="50.783" height="66.063" transform="translate(393.092 133.887)" fill="#00826f"/>
      <rect id="Rectángulo_418918" data-name="Rectángulo 418918" width="34.335" height="25.885" transform="translate(401.316 147.672)" fill="#fff"/>
      <rect id="Rectángulo_418919" data-name="Rectángulo 418919" width="34.335" height="25.885" transform="translate(401.316 147.672)" fill="none" stroke="#303030" stroke-linecap="round" stroke-linejoin="round" stroke-width="1.5"/>
      <rect id="Rectángulo_418920" data-name="Rectángulo 418920" width="2.93" height="25.885" transform="translate(401.316 147.672)" fill="#e5782d"/>
      <rect id="Rectángulo_418921" data-name="Rectángulo 418921" width="2.93" height="25.885" transform="translate(401.316 147.672)" fill="none" stroke="#303030" stroke-linecap="round" stroke-linejoin="round" stroke-width="1.5"/>
      <line id="Línea_1353" data-name="Línea 1353" x2="34.335" transform="translate(401.316 164.958)" fill="none" stroke="#00826f" stroke-linecap="round" stroke-linejoin="round" stroke-width="1.5"/>
      <line id="Línea_1354" data-name="Línea 1354" y2="25.885" transform="translate(412.761 147.673)" fill="none" stroke="#00826f" stroke-linecap="round" stroke-linejoin="round" stroke-width="1.5"/>
      <line id="Línea_1355" data-name="Línea 1355" y2="25.885" transform="translate(424.206 147.673)" fill="none" stroke="#00826f" stroke-linecap="round" stroke-linejoin="round" stroke-width="1.5"/>
      <rect id="Rectángulo_418922" data-name="Rectángulo 418922" width="2.37" height="108.61" transform="translate(361.068 91.341)" fill="#303030"/>
      <path id="Trazado_1047903" data-name="Trazado 1047903" d="M0,0H5.636V108.61H0Z" transform="translate(355.431 91.341)" fill="#e5782d"/>
      <rect id="Rectángulo_418924" data-name="Rectángulo 418924" width="50.783" height="66.063" transform="translate(342.31 133.887)" fill="#00826f"/>
      <rect id="Rectángulo_418925" data-name="Rectángulo 418925" width="34.335" height="25.885" transform="translate(350.534 147.672)" fill="#fff"/>
      <rect id="Rectángulo_418926" data-name="Rectángulo 418926" width="34.335" height="25.885" transform="translate(350.534 147.672)" fill="none" stroke="#303030" stroke-linecap="round" stroke-linejoin="round" stroke-width="1.5"/>
      <rect id="Rectángulo_418927" data-name="Rectángulo 418927" width="2.93" height="25.885" transform="translate(350.534 147.672)" fill="#e5782d"/>
      <rect id="Rectángulo_418928" data-name="Rectángulo 418928" width="2.93" height="25.885" transform="translate(350.534 147.672)" fill="none" stroke="#303030" stroke-linecap="round" stroke-linejoin="round" stroke-width="1.5"/>
      <line id="Línea_1356" data-name="Línea 1356" x2="34.335" transform="translate(350.534 164.958)" fill="none" stroke="#00826f" stroke-linecap="round" stroke-linejoin="round" stroke-width="1.5"/>
      <line id="Línea_1357" data-name="Línea 1357" y2="25.885" transform="translate(361.979 147.673)" fill="none" stroke="#00826f" stroke-linecap="round" stroke-linejoin="round" stroke-width="1.5"/>
      <line id="Línea_1358" data-name="Línea 1358" y2="25.885" transform="translate(373.424 147.673)" fill="none" stroke="#00826f" stroke-linecap="round" stroke-linejoin="round" stroke-width="1.5"/>
      <rect id="Rectángulo_418929" data-name="Rectángulo 418929" width="2.37" height="108.61" transform="translate(310.286 91.341)" fill="#303030"/>
      <path id="Trazado_1047904" data-name="Trazado 1047904" d="M0,0H5.636V108.61H0Z" transform="translate(304.65 91.341)" fill="#e5782d"/>
      <rect id="Rectángulo_418931" data-name="Rectángulo 418931" width="50.783" height="66.063" transform="translate(291.527 133.887)" fill="#00826f"/>
      <rect id="Rectángulo_418932" data-name="Rectángulo 418932" width="34.335" height="25.885" transform="translate(299.751 147.672)" fill="#fff"/>
      <rect id="Rectángulo_418933" data-name="Rectángulo 418933" width="34.335" height="25.885" transform="translate(299.751 147.672)" fill="none" stroke="#303030" stroke-linecap="round" stroke-linejoin="round" stroke-width="1.5"/>
      <rect id="Rectángulo_418934" data-name="Rectángulo 418934" width="2.93" height="25.885" transform="translate(299.751 147.672)" fill="#e5782d"/>
      <rect id="Rectángulo_418935" data-name="Rectángulo 418935" width="2.93" height="25.885" transform="translate(299.751 147.672)" fill="none" stroke="#303030" stroke-linecap="round" stroke-linejoin="round" stroke-width="1.5"/>
      <line id="Línea_1359" data-name="Línea 1359" x2="34.335" transform="translate(299.751 164.958)" fill="none" stroke="#00826f" stroke-linecap="round" stroke-linejoin="round" stroke-width="1.5"/>
      <line id="Línea_1360" data-name="Línea 1360" y2="25.885" transform="translate(311.196 147.673)" fill="none" stroke="#00826f" stroke-linecap="round" stroke-linejoin="round" stroke-width="1.5"/>
      <line id="Línea_1361" data-name="Línea 1361" y2="25.885" transform="translate(322.641 147.673)" fill="none" stroke="#00826f" stroke-linecap="round" stroke-linejoin="round" stroke-width="1.5"/>
      <rect id="Rectángulo_418936" data-name="Rectángulo 418936" width="15.496" height="66.063" transform="translate(489.033 133.887)" fill="#303030"/>
      <rect id="Rectángulo_418937" data-name="Rectángulo 418937" width="50.783" height="66.063" transform="translate(438.251 67.823)" fill="#00826f"/>
      <rect id="Rectángulo_418938" data-name="Rectángulo 418938" width="34.335" height="25.885" transform="translate(446.475 81.609)" fill="#fff"/>
      <rect id="Rectángulo_418939" data-name="Rectángulo 418939" width="34.335" height="25.885" transform="translate(446.475 81.609)" fill="none" stroke="#303030" stroke-linecap="round" stroke-linejoin="round" stroke-width="1.5"/>
      <rect id="Rectángulo_418940" data-name="Rectángulo 418940" width="2.93" height="25.885" transform="translate(446.475 81.609)" fill="#e5782d"/>
      <rect id="Rectángulo_418941" data-name="Rectángulo 418941" width="2.93" height="25.885" transform="translate(446.475 81.609)" fill="none" stroke="#303030" stroke-linecap="round" stroke-linejoin="round" stroke-width="1.5"/>
      <line id="Línea_1362" data-name="Línea 1362" x2="34.335" transform="translate(446.474 98.894)" fill="none" stroke="#00826f" stroke-linecap="round" stroke-linejoin="round" stroke-width="1.5"/>
      <line id="Línea_1363" data-name="Línea 1363" y2="25.885" transform="translate(457.919 81.609)" fill="none" stroke="#00826f" stroke-linecap="round" stroke-linejoin="round" stroke-width="1.5"/>
      <line id="Línea_1364" data-name="Línea 1364" y2="25.885" transform="translate(469.364 81.609)" fill="none" stroke="#00826f" stroke-linecap="round" stroke-linejoin="round" stroke-width="1.5"/>
      <rect id="Rectángulo_418942" data-name="Rectángulo 418942" width="15.496" height="66.063" transform="translate(489.033 67.823)" fill="#303030"/>
      <path id="Trazado_1047820" data-name="Trazado 1047820" d="M.75,270.786h0Z" transform="translate(-0.196 -70.882)" fill="#fff"/>
      <g id="Grupo_1209421" data-name="Grupo 1209421">
        <g id="Grupo_1209420" data-name="Grupo 1209420" clip-path="url(#clip-path-3)">
          <path id="Trazado_1047829" data-name="Trazado 1047829" d="M511.751,0,8.12-.7" transform="translate(0.554 199.904)" fill="none" stroke="#303030" stroke-linecap="round" stroke-width="1.5"/>
        </g>
      </g>
      <rect id="Rectángulo_418944" data-name="Rectángulo 418944" width="266.727" height="45.09" transform="translate(240.584 245.933)" fill="#303030"/>
      <rect id="Rectángulo_418945" data-name="Rectángulo 418945" width="266.727" height="45.09" transform="translate(240.584 245.933)" fill="none" stroke="#303030" stroke-linecap="round" stroke-linejoin="round" stroke-width="1.5"/>
      <rect id="Rectángulo_418946" data-name="Rectángulo 418946" width="266.727" height="45.09" transform="translate(231.276 245.933)" fill="#fff"/>
      <rect id="Rectángulo_418947" data-name="Rectángulo 418947" width="266.727" height="45.09" transform="translate(231.276 245.933)" fill="none" stroke="#303030" stroke-linecap="round" stroke-linejoin="round" stroke-width="1.5"/>
      <path id="Trazado_1047821" data-name="Trazado 1047821" d="M619.335,333.136H586.956l32.406,45.09h32.378Z" transform="translate(-153.644 -87.203)" fill="#f8ce24"/>
      <path id="Trazado_1047822" data-name="Trazado 1047822" d="M528.109,333.136H495.731l32.406,45.09h32.378Z" transform="translate(-129.764 -87.203)" fill="#f8ce24"/>
      <path id="Trazado_1047823" data-name="Trazado 1047823" d="M436.884,333.136H404.506l32.406,45.09h32.378Z" transform="translate(-105.885 -87.203)" fill="#f55571"/>
      <path id="Trazado_1047824" data-name="Trazado 1047824" d="M345.659,333.136H313.281l32.406,45.09h32.378Z" transform="translate(-82.005 -87.203)" fill="#f55571"/>
      <rect id="Rectángulo_418948" data-name="Rectángulo 418948" width="15.086" height="19.298" transform="translate(443.935 291.023)" fill="#303030"/>
      <rect id="Rectángulo_418949" data-name="Rectángulo 418949" width="15.087" height="19.298" transform="translate(270.098 291.023)" fill="#303030"/>
      <rect id="Rectángulo_418950" data-name="Rectángulo 418950" width="37.344" height="7.823" transform="translate(432.805 238.11)" fill="#303030"/>
      <g id="Grupo_1209423" data-name="Grupo 1209423">
        <g id="Grupo_1209422" data-name="Grupo 1209422" clip-path="url(#clip-path-3)">
          <path id="Trazado_1047825" data-name="Trazado 1047825" d="M619.847,304.158a12.837,12.837,0,1,1-12.837-12.837,12.837,12.837,0,0,1,12.837,12.837" transform="translate(-155.533 -76.257)" fill="#303030"/>
          <path id="Trazado_1047826" data-name="Trazado 1047826" d="M616.431,306.035a7.543,7.543,0,1,1-7.543-7.543,7.544,7.544,0,0,1,7.543,7.543" transform="translate(-157.41 -78.134)" fill="#00826f"/>
          <rect id="Rectángulo_418951" data-name="Rectángulo 418951" width="37.344" height="7.823" transform="translate(258.969 238.11)" fill="#303030"/>
          <path id="Trazado_1047827" data-name="Trazado 1047827" d="M384.372,304.158a12.837,12.837,0,1,1-12.837-12.837,12.837,12.837,0,0,1,12.837,12.837" transform="translate(-93.894 -76.257)" fill="#303030"/>
          <path id="Trazado_1047828" data-name="Trazado 1047828" d="M380.956,306.035a7.543,7.543,0,1,1-7.543-7.543,7.544,7.544,0,0,1,7.543,7.543" transform="translate(-95.771 -78.134)" fill="#00826f"/>
          <line id="Línea_1366" data-name="Línea 1366" x2="266.727" transform="translate(231.276 245.933)" fill="none" stroke="#303030" stroke-linecap="round" stroke-linejoin="round" stroke-width="1.5"/>
          <line id="Línea_1367" data-name="Línea 1367" x2="266.727" transform="translate(231.276 291.023)" fill="none" stroke="#303030" stroke-linecap="round" stroke-linejoin="round" stroke-width="1.5"/>
        </g>
      </g>
    </g>
    <g id="Grupo_1209417" data-name="Grupo 1209417" transform="translate(987 4341.237)">
      <g id="Grupo_1209414" data-name="Grupo 1209414">
        <g id="Grupo_1209426" data-name="Grupo 1209426">
          <path id="Trazado_1047736" data-name="Trazado 1047736" d="M69.29,65.662c1.4,26.534,25.743,54.29,53.524,52.824s48.482-31.6,47.081-58.132S144.839,13.5,117.058,14.963,67.89,39.128,69.29,65.662" transform="translate(-0.69 -0.148)" fill="#303030"/>
          <path id="Trazado_1047737" data-name="Trazado 1047737" d="M84.021,83.63a15.1,15.1,0,0,1-11.4-2.483c-3.922-2.649-4.256-8.067-5.007-12.377-1.256-7.22-1.862-12.741-1.017-19.247.664-5.113,1.723-10.468,4.253-14.96,3.584-6.364,11.267-9.921,18.506-9.046,1.441-9.173,4.93-16.847,23.661-21.544,7.453-1.869,30.582-5.344,48.9,13.913,3.975,4.179,6.76,9.333,9.754,14.262,1.268,2.087,4.058,6.864,4.058,6.864,5.119,8.806,7.34,24.27-7.811,28.34-2.782.747-5.565,1.485-8.358,2.187q-16.756,4.215-33.8,7.136c-6.9,1.183-13.833,2.02-20.748,3.063C97.97,80.8,91.043,82.571,84.021,83.63" transform="translate(-0.66 -0.025)" fill="#303030"/>
          <path id="Trazado_1047738" data-name="Trazado 1047738" d="M170.722,79.657c-.068-7.474.148-11.928-.965-21.411-1.633-13.915-10.144-24.517-10.144-24.517-9.848-13.146-35.4-20.4-53.04,3.853C95.241,38.627,90.058,45.113,88.658,53.99c4.316,7.061,8.886,14.595,9.22,25.169.339,7.289-1.248,7.665-4.29,4.479-4.063-4.118-9.977-7.453-15.921-7.056-7.741.517-12.448,5.4-13.247,11.052-.79,5.589,4.018,11.255,9.552,13.112s12.646,1.363,17.377-2.188c0,0,.617,6.688,1.147,12.432a21.912,21.912,0,0,0,7.3,14.7l-2.21,30.993-14.057,6.149c4.716,4.424,33.23,32.674,60.194,32.014s23.445-38.616,23.445-38.616l-15.557-1.972-2.745-17.276c3.263-.261,15.872-1.685,21.314-8.005s4.028-14.127,2.45-26.543c-.85-6.7-1.854-16.619-1.912-22.774" transform="translate(-0.642 -0.215)" fill="#ad6163"/>
          <path id="Trazado_1047739" data-name="Trazado 1047739" d="M147.554,73.5c.513-3.254,3.306-5.281,6.629-6.072s8.272-.735,9.885,3.834c-.515,4.929-10.967,8.005-16.515,2.237" transform="translate(-1.472 -0.669)" fill="#fff"/>
          <path id="Trazado_1047740" data-name="Trazado 1047740" d="M159.536,73.807a4.319,4.319,0,0,1-5.441,2.709,4.251,4.251,0,0,1-2.934-5.277,4.322,4.322,0,0,1,5.442-2.71,4.252,4.252,0,0,1,2.933,5.278" transform="translate(-1.506 -0.681)" fill="#303030"/>
          <path id="Trazado_1047741" data-name="Trazado 1047741" d="M150.84,71.2l4.5,1.355L150.607,73.6Z" transform="translate(-1.502 -0.71)" fill="#fff"/>
          <path id="Trazado_1047742" data-name="Trazado 1047742" d="M164.476,70.3c-2.629-3.118-6.607-3.348-9.931-2.557s-6.432,3.436-6.991,5.758" transform="translate(-1.472 -0.672)" fill="none" stroke="#303030" stroke-linecap="round" stroke-linejoin="round" stroke-width="1.5"/>
          <path id="Trazado_1047743" data-name="Trazado 1047743" d="M149.644,49.359c6.773-.969,13.866,1.483,17.641,5.29" transform="translate(-1.492 -0.49)" fill="none" stroke="#303030" stroke-linecap="round" stroke-linejoin="round" stroke-width="1.5"/>
          <path id="Trazado_1047744" data-name="Trazado 1047744" d="M113.339,77.189c.513-3.254,3.307-5.281,6.629-6.072s8.272-.735,9.885,3.833c-.515,4.929-10.967,8.006-16.515,2.238" transform="translate(-1.13 -0.705)" fill="#fff"/>
          <path id="Trazado_1047745" data-name="Trazado 1047745" d="M124.56,77.655a4.323,4.323,0,0,1-5.443,2.71,4.253,4.253,0,0,1-2.933-5.278,4.321,4.321,0,0,1,5.442-2.709,4.252,4.252,0,0,1,2.934,5.277" transform="translate(-1.157 -0.72)" fill="#303030"/>
          <path id="Trazado_1047746" data-name="Trazado 1047746" d="M115.863,75.043l4.5,1.355-4.737,1.045Z" transform="translate(-1.153 -0.748)" fill="#fff"/>
          <path id="Trazado_1047747" data-name="Trazado 1047747" d="M130.261,73.991c-2.628-3.118-6.607-3.348-9.931-2.557s-6.431,3.436-6.991,5.758" transform="translate(-1.13 -0.709)" fill="none" stroke="#303030" stroke-linecap="round" stroke-linejoin="round" stroke-width="1.5"/>
          <path id="Trazado_1047748" data-name="Trazado 1047748" d="M105.565,64.643c2.122-5.892,9.032-11.6,15.684-12.713" transform="translate(-1.053 -0.518)" fill="none" stroke="#303030" stroke-linecap="round" stroke-linejoin="round" stroke-width="1.5"/>
          <path id="Trazado_1047749" data-name="Trazado 1047749" d="M140.708,63.492c2.347,9.577,6.7,15.349,9.4,20.033,2.068,3.591,2.769,10.043-6.536,11.185" transform="translate(-1.403 -0.633)" fill="none" stroke="#303030" stroke-linecap="round" stroke-linejoin="round" stroke-width="1.5"/>
          <path id="Trazado_1047750" data-name="Trazado 1047750" d="M72,90.071c1.292-1.123,4.639-2.233,8.193-1.67a10.666,10.666,0,0,1,8.062,6.153" transform="translate(-0.718 -0.88)" fill="none" stroke="#303030" stroke-linecap="round" stroke-linejoin="round" stroke-width="1.5"/>
          <path id="Trazado_1047751" data-name="Trazado 1047751" d="M78.362,93.229c.952-.821,4.377-3.013,8.1-1.48" transform="translate(-0.781 -0.91)" fill="none" stroke="#303030" stroke-linecap="round" stroke-linejoin="round" stroke-width="1.5"/>
          <path id="Trazado_1047752" data-name="Trazado 1047752" d="M106.056,74.855a15.776,15.776,0,1,0,31.418-2.9c-.8-8.676-7.9-8.771-16.578-7.97S105.255,66.18,106.056,74.855Z" transform="translate(-1.057 -0.635)" fill="none" stroke="#303030" stroke-linecap="round" stroke-linejoin="round" stroke-width="1.5"/>
          <path id="Trazado_1047753" data-name="Trazado 1047753" d="M148.007,70.983a15.776,15.776,0,1,0,31.418-2.9c-.8-8.676-7.9-8.771-16.578-7.97S147.206,62.308,148.007,70.983Z" transform="translate(-1.475 -0.596)" fill="none" stroke="#303030" stroke-linecap="round" stroke-linejoin="round" stroke-width="1.5"/>
          <path id="Trazado_1047754" data-name="Trazado 1047754" d="M148.867,75.28c-2.542-4.068-9.072-2.713-11.311,1.292" transform="translate(-1.372 -0.726)" fill="none" stroke="#303030" stroke-linecap="round" stroke-linejoin="round" stroke-width="1.5"/>
          <line id="Línea_1317" data-name="Línea 1317" x1="11.044" y2="3.622" transform="translate(93.548 76.81)" fill="none" stroke="#303030" stroke-linecap="round" stroke-linejoin="round" stroke-width="1.5"/>
          <path id="Trazado_1047755" data-name="Trazado 1047755" d="M129.548,104.71A23.552,23.552,0,0,0,151.765,106" transform="translate(-1.292 -1.044)" fill="none" stroke="#303030" stroke-linecap="round" stroke-linejoin="round" stroke-width="1.5"/>
          <path id="Trazado_1047756" data-name="Trazado 1047756" d="M149.369,138.07c-12.425.009-26.5-2.32-34.988-7.058,2.429,5.215,12.8,13.321,36.316,15.772Z" transform="translate(-1.141 -1.307)" fill="#303030"/>
          <path id="Trazado_1047757" data-name="Trazado 1047757" d="M145.553,34.544c-2.255-4.813-6.009-10.339-12.118-8.58a15.271,15.271,0,0,0-5.078,2.965,1.934,1.934,0,0,1-.914.487,2.068,2.068,0,0,1-1.193-.382,10.426,10.426,0,0,0-6.55-1.27,7.682,7.682,0,0,0-5.472,3.633,114.188,114.188,0,0,0-9.5,23.074c-.875,2.811-1.867,5.7-3.891,7.838-2.36,2.492-5.811,3.624-9.182,4.267-2.715.517-5.661.745-8.118-.52a1.269,1.269,0,0,1-.675-.628c-.159-.452.173-.912.443-1.309,1.578-2.324,1.416-5.356,1.47-8.165.283-14.631,9.141-29.213,22.733-34.635,5.391-2.15,11.862-2.751,16.755.369a7.685,7.685,0,0,1,4.664-4.29,19.1,19.1,0,0,1,6.44-.911c8.693-.108,17.97,1.493,24.343,7.406,5.885,5.461,8.288,13.586,10.908,21.175a13.366,13.366,0,0,0,2.527,4.9,4.76,4.76,0,0,0,5.013,1.486,17.382,17.382,0,0,1-24.3-.891c-4.167-4.387-5.738-10.544-8.306-16.023" transform="translate(-0.826 -0.164)" fill="#303030"/>
          <path id="Trazado_1047758" data-name="Trazado 1047758" d="M68.563,79.867l2.929-1.913c4.518-9.172,18.4-35.913,52.719-43.84,42.2-9.747,51.477,4.894,51.477,4.894s4.428-2.836,1.222-8.589C168.779,15.831,139.287-8.015,98.416,6.592c-47.578,17-36.277,59.8-29.853,73.275" transform="translate(-0.624 -0.02)" fill="#f55571"/>
          <path id="Trazado_1047759" data-name="Trazado 1047759" d="M76.228,19.572s-1.115.45-.748-2.059,4.8-10.959,20.657-15.374c15.158-4.223,29.984.644,33.531,1.787s10.9,5.076,9.977,7.418l.046,4.136-20.569,4.748s-12.433-7.841-25.582-6.893-17.311,6.236-17.311,6.236" transform="translate(-0.752 -0.004)" fill="#f55571"/>
          <path id="Trazado_1047760" data-name="Trazado 1047760" d="M76.215,20.224c-.229-4.373,3.162-7.685,6.863-9.4A32.25,32.25,0,0,1,95.572,8.235a44.8,44.8,0,0,1,23.665,5.973,6.532,6.532,0,0,0,4.239,1.079c1.866-.3,3.712-.806,5.567-1.171q3.043-.6,6.109-1.056c1.147-.171,2.3-.327,3.447-.476a1.955,1.955,0,0,0,1.855-1.3c.331-1.508-1.745-2.716-2.707-3.46a31.661,31.661,0,0,0-14.507-6.485,65.4,65.4,0,0,0-26.592.06q-1.285.279-2.553.631a.743.743,0,0,0,.4,1.433,60.771,60.771,0,0,1,25.666-1.173,40.666,40.666,0,0,1,10.306,2.795,29.892,29.892,0,0,1,4.415,2.479q1.166.786,2.267,1.66a9.081,9.081,0,0,1,1.738,1.528,1,1,0,0,1,.117.2c-.114.263-1.275.262-1.523.3q-1.613.215-3.222.457-3.019.462-6.014,1.061-1.629.325-3.252.68c-.63.136-1.325.345-1.946.416-1.46.167-2.856-.837-4.08-1.525A45.638,45.638,0,0,0,95.675,6.748,35.332,35.332,0,0,0,83.459,9.061c-3.778,1.521-7.281,4.219-8.415,8.3a8.962,8.962,0,0,0-.314,2.859c.049.95,1.535.956,1.485,0" transform="translate(-0.745 0)" fill="#303030"/>
          <path id="Trazado_1047761" data-name="Trazado 1047761" d="M118.092,19.01a48.877,48.877,0,0,0-18.174-5.955,34.852,34.852,0,0,0-16.8,1.741,25.878,25.878,0,0,0-8.167,5.03c-.7.648.347,1.7,1.05,1.05,8.4-7.728,20.992-7.856,31.386-4.813a48.219,48.219,0,0,1,9.96,4.227c.835.467,1.585-.816.749-1.282" transform="translate(-0.745 -0.127)" fill="#303030"/>
          <path id="Trazado_1047762" data-name="Trazado 1047762" d="M139.651,10.954a1.076,1.076,0,0,1,.1.1c-.042-.06-.039-.054.01.017.016.029.09.191.046.073a2.4,2.4,0,0,1,.075.275c.04.161.006-.061.013.094a11.283,11.283,0,0,1-.03,1.186q-.082,1.4-.165,2.81a.743.743,0,1,0,1.485,0q.092-1.553.183-3.106a2.973,2.973,0,0,0-.668-2.5.759.759,0,0,0-1.05,0,.75.75,0,0,0,0,1.05" transform="translate(-1.391 -0.097)" fill="#303030"/>
          <path id="Trazado_1047763" data-name="Trazado 1047763" d="M100.989,22.219a34.055,34.055,0,0,0-14.672-.975,32.964,32.964,0,0,0-13.6,4.979,23.164,23.164,0,0,0-5.559,5.128.748.748,0,0,0,.266,1.016.762.762,0,0,0,1.017-.266,24.215,24.215,0,0,1,10.584-7.452,34.988,34.988,0,0,1,13.88-2.276,30.432,30.432,0,0,1,7.685,1.278c.917.28,1.308-1.153.4-1.432" transform="translate(-0.669 -0.208)" fill="#303030"/>
          <path id="Trazado_1047764" data-name="Trazado 1047764" d="M140.176,4.671c4.32,2.174,8.913,5.29,11.051,9.788.41.862,1.691.11,1.283-.75a18.283,18.283,0,0,0-4.932-6,34.654,34.654,0,0,0-6.652-4.323c-.851-.429-1.6.852-.749,1.282" transform="translate(-1.394 -0.033)" fill="#303030"/>
          <path id="Trazado_1047765" data-name="Trazado 1047765" d="M73.7,71.727c-1.214-2.142-2.432-4.322-3.43-6.576a3.6,3.6,0,0,1,.113-3.337A27.928,27.928,0,0,1,72.045,59a37.022,37.022,0,0,1,4.119-5.183q1.158-1.215,2.419-2.326c.725-.638,1.661-1.675,2.663-1.822.91-.133,1.156.51,1.615,1.174.686,1,1.2,2.081,1.8,3.128a.743.743,0,0,0,1.283-.749c-.6-1.047-1.119-2.132-1.8-3.128-.476-.691-.906-1.517-1.759-1.785A3.458,3.458,0,0,0,79.3,49a28.557,28.557,0,0,0-2.849,2.439,39.1,39.1,0,0,0-4.977,5.778,37.118,37.118,0,0,0-2.02,3.189,6.179,6.179,0,0,0-1.05,3.578,12.435,12.435,0,0,0,1.658,4.11q1.126,2.22,2.355,4.385a.743.743,0,0,0,1.282-.749" transform="translate(-0.682 -0.481)" fill="#303030"/>
          <path id="Trazado_1047766" data-name="Trazado 1047766" d="M77.719,63.664l.637,2.739c19.147-24.194,65.92-41.652,99.53-23.754,12.423-4.776,16.8-20.182-11.955-21.533S94.743,28.936,77.719,63.664" transform="translate(-0.775 -0.209)" fill="#303030"/>
          <path id="Trazado_1047767" data-name="Trazado 1047767" d="M78.362,66.43c13.712-15.545,64.393-40.065,100.167-21.014,12.424-4.776,16.8-20.182-11.955-21.533S95.386,31.7,78.362,66.43" transform="translate(-0.781 -0.237)" fill="#f55571"/>
          <path id="Trazado_1047768" data-name="Trazado 1047768" d="M223.992,182.693s14.078,4.066,20.57,13.768,11.806,22.363,24.736,51.876c10.687,24.4,22.487,49.983,22.487,49.983l42.945,3.67,4.345,51.07s-25.527,3.129-46.244,6.089-41.348,1.955-50.6-2.5-10.64-14.089-19.049-34.6c-9.731-23.73-14.719-33.256-14.719-33.256Z" transform="translate(-2.079 -1.822)" fill="#ad6163"/>
          <path id="Trazado_1047769" data-name="Trazado 1047769" d="M285.463,279.165c-1.39-4.067-19.154-49.244-27.022-66.4-13.837-30.177-26.555-34.484-46.863-40.649l3.928,52.754V337.035c1.618,8.126,9.484,19.884,22.685,16.78,1.4-15.128,24.7-64.559,47.271-74.65" transform="translate(-2.11 -1.716)" fill="#fff"/>
          <path id="Trazado_1047770" data-name="Trazado 1047770" d="M285.463,279.165c-1.39-4.067-19.154-49.244-27.022-66.4-13.837-30.177-26.555-34.484-46.863-40.649l3.928,52.754V337.035c1.618,8.126,9.484,19.884,22.685,16.78C239.594,338.687,262.889,289.256,285.463,279.165Z" transform="translate(-2.11 -1.716)" fill="none" stroke="#303030" stroke-linecap="round" stroke-linejoin="round" stroke-width="1.5"/>
          <path id="Trazado_1047771" data-name="Trazado 1047771" d="M226.206,398.882c4.094-41.287.98-87.351,2.884-157.437,1.4-51.611-20.919-68.631-20.919-68.631l-51.7-16.622c.316,6.366-3.271,12.859-9.518,21.66-26.439-6.714-47.483-12.62-53.837-21.66L46.233,177.839c-9.622,5.484-15.518,26.188-13.35,63.713,1.923,33.3,7.054,64.718,5.819,97.859-.706,18.949-8.731,52.8,2.656,61.764Z" transform="translate(-0.323 -1.558)" fill="#fff"/>
          <path id="Trazado_1047772" data-name="Trazado 1047772" d="M226.206,398.882c4.094-41.287.98-87.351,2.884-157.437,1.4-51.611-20.919-68.631-20.919-68.631l-51.7-16.622c.316,6.366-3.271,12.859-9.518,21.66-26.439-6.714-47.483-12.62-53.837-21.66L46.233,177.839c-9.622,5.484-15.518,26.188-13.35,63.713,1.923,33.3,7.054,64.718,5.819,97.859-.706,18.949-8.731,52.8,2.656,61.764Z" transform="translate(-0.323 -1.558)" fill="none" stroke="#303030" stroke-linecap="round" stroke-linejoin="round" stroke-width="1.5"/>
          <path id="Trazado_1047773" data-name="Trazado 1047773" d="M151.063,183.118c4.713,10.731,11.747,42.726,14.813,62.272,2.288,14.586,2.883,28.154,5.171,42.74" transform="translate(-1.507 -1.826)" fill="#fff"/>
          <path id="Trazado_1047774" data-name="Trazado 1047774" d="M150.414,183.486a98.726,98.726,0,0,1,4.378,13.409c1.735,6.317,3.252,12.7,4.669,19.091q2.211,9.972,4.055,20.021c1.349,7.378,2.466,14.781,3.3,22.236.991,8.892,1.747,17.812,3,26.673q.241,1.7.507,3.4c.148.941,1.578.542,1.432-.395-1.4-8.944-2.2-17.961-3.159-26.958-.825-7.736-1.877-15.43-3.238-23.089q-1.785-10.048-3.966-20.02c-1.413-6.506-2.928-12.994-4.645-19.428a124.62,124.62,0,0,0-4.5-14.4q-.263-.652-.545-1.3c-.382-.873-1.662-.119-1.282.749" transform="translate(-1.499 -1.819)" fill="#303030"/>
          <path id="Trazado_1047775" data-name="Trazado 1047775" d="M87.774,156.193s66.209,62.522,78.124,98.418c6.617-61.608.865-97.04.865-97.04l42.873,13.516s19.8,13.852,21.226,57.02-1.2,233.8-1.2,233.8H23.322s.9-67.294,4.919-113.162c4.464-50.94-.411-80.317,1.012-114.946s1.9-43.642,16.13-59.3Z" transform="translate(-0.233 -1.558)" fill="#f8ce24"/>
          <path id="Trazado_1047776" data-name="Trazado 1047776" d="M128.181,359.975c1.582.01,3.17.025,4.744.025,23.943,0,46.931-1.116,67.237-3.167l12.064-1.365c6.529-.828,12.688-1.763,18.439-2.795.051-4,.1-8.086.147-12.224-5.727,1.082-11.969,2.066-18.647,2.94L200.1,344.8c-14.214,1.475-29.944,2.488-46.537,2.94-8.636.235-17.3.314-25.951.247l-12.1-.19a664.524,664.524,0,0,1-86.467-7.434c-.224,3.312-.482,6.708-.789,10.216-.055.628-.109,1.235-.162,1.854a675.243,675.243,0,0,0,88,7.38ZM212.3,393.551c6.3-.8,12.254-1.7,17.83-2.69.058-3.8.119-7.893.182-12.228-5.556,1.039-11.585,1.987-18.024,2.831l-12.068,1.416c-14.245,1.481-30.016,2.5-46.655,2.952-8.249.226-16.53.31-24.791.259l-12.07-.173A659.8,659.8,0,0,1,26,377.967q-.508,6.579-.9,12.085c29.052,4.719,60.781,7.226,91.622,7.87l12.068.148c1.38.008,2.765.022,4.14.022,23.969,0,46.982-1.119,67.305-3.174Z" transform="translate(-0.25 -3.394)" fill="#fff"/>
          <path id="Trazado_1047830" data-name="Trazado 1047830" d="M130.564,360.429c1.619.01,3.243.025,4.854.025,24.5,0,48.016-1.142,68.791-3.24l12.343-1.4c6.68-.847,12.982-1.8,18.866-2.859.052-4.1.1-8.273.15-12.507-5.86,1.107-12.246,2.114-19.078,3.008L204.15,344.9c-14.542,1.509-30.637,2.545-47.613,3.008-8.836.24-17.7.321-26.551.253l-12.38-.194a679.888,679.888,0,0,1-88.466-7.606c-.229,3.388-.493,6.864-.807,10.452-.057.642-.111,1.263-.166,1.9a690.854,690.854,0,0,0,90.031,7.55Zm86.067,34.352c6.444-.818,12.537-1.74,18.243-2.752.06-3.888.122-8.076.186-12.51-5.684,1.063-11.853,2.033-18.441,2.9l-12.347,1.449c-14.575,1.515-30.71,2.557-47.734,3.021-8.44.231-16.913.317-25.364.265l-12.35-.177c-32.765-.725-64.78-3.524-92.807-8.136q-.52,6.731-.921,12.365c29.724,4.828,62.186,7.393,93.74,8.052l12.347.152c1.412.008,2.829.022,4.236.022,24.523,0,48.068-1.145,68.861-3.247Z" transform="translate(-5.007 84.299)" fill="#fff"/>
          <path id="Trazado_1047777" data-name="Trazado 1047777" d="M211.512,171.235s19.8,13.852,21.227,57.021S231.18,463.1,231.18,463.1" transform="translate(-2.109 -1.708)" fill="none" stroke="#303030" stroke-linecap="round" stroke-linejoin="round" stroke-width="1.5"/>
          <path id="Trazado_1047778" data-name="Trazado 1047778" d="M167.334,255.6s6.872,79.075,7.749,207.3" transform="translate(-1.669 -2.549)" fill="none" stroke="#303030" stroke-linecap="round" stroke-linejoin="round" stroke-width="1.5"/>
          <path id="Trazado_1047779" data-name="Trazado 1047779" d="M88.423,156.193s66.209,62.522,78.124,98.418c6.617-61.608.865-97.04.865-97.04" transform="translate(-0.882 -1.558)" fill="none" stroke="#303030" stroke-linecap="round" stroke-linejoin="round" stroke-width="1.5"/>
          <path id="Trazado_1047780" data-name="Trazado 1047780" d="M145.941,181.359l-6.281-3.807-5.381,21.021s-21.97-8.6-33.634-19.2c-12.335-11.208-18.4-18.077-18.4-18.077L98.4,141.325s3.658,11.608,12.907,16.587,20.7,8.534,25.779,9.244,10.9,9.161,10.9,9.161a109.611,109.611,0,0,0,3.8-11.545c1.942-5.41-.1-11.273-.1-11.273l-1.862-10.367,16.848,11.385s12.087,20.116,0,36.085L155.1,173.388l-2.77,6.577" transform="translate(-0.82 -1.409)" fill="#fff"/>
          <path id="Trazado_1047781" data-name="Trazado 1047781" d="M145.941,181.359l-6.281-3.807-5.381,21.021s-21.97-8.6-33.634-19.2c-12.335-11.208-18.4-18.077-18.4-18.077L98.4,141.325s3.658,11.608,12.907,16.587,20.7,8.534,25.779,9.244,10.9,9.161,10.9,9.161a109.611,109.611,0,0,0,3.8-11.545c1.942-5.41-.1-11.273-.1-11.273l-1.862-10.367,16.848,11.385s12.087,20.116,0,36.085L155.1,173.388l-2.77,6.577" transform="translate(-0.82 -1.409)" fill="none" stroke="#303030" stroke-linecap="round" stroke-linejoin="round" stroke-width="1.5"/>
          <path id="Trazado_1047782" data-name="Trazado 1047782" d="M216.584,291.236a29.791,29.791,0,0,0,7.567-5.426,45.318,45.318,0,0,0,5.153-6.052,51.784,51.784,0,0,1,4.156-5.795,14.952,14.952,0,0,1,2.917-2.236,55.131,55.131,0,0,1,6.6-3.542c3.38-1.528,7.3-2.816,10.2-5.194a5.741,5.741,0,0,0,2.23-3.839,5.423,5.423,0,0,0-1.7-4.541,11.384,11.384,0,0,0-7.445-2.417,21.492,21.492,0,0,0-5.806,1.313c-2.072.707-4.111,1.507-6.148,2.306l-7.165,2.811a54.118,54.118,0,0,0-23.886,19.091,7.03,7.03,0,0,0-1.694,4.042c.043,2.155,2.176,6.037,3.437,7.728,1.618,2.168,4.869,4.038,7.611,3.276a23.092,23.092,0,0,0,3.983-1.524" transform="translate(-2.01 -2.515)" fill="#753c40"/>
          <path id="Trazado_1047783" data-name="Trazado 1047783" d="M276.269,287.793a8.52,8.52,0,0,1-5,8.505,1.224,1.224,0,0,1-1.172-.048L196.137,252.8a2.871,2.871,0,0,1-1.424-2.123c-.382-3.369.938-5.895,4.259-7.426a2.986,2.986,0,0,1,2.768.117l73.915,43.427a1.226,1.226,0,0,1,.613,1" transform="translate(-1.941 -2.423)" fill="#00826f"/>
          <path id="Trazado_1047784" data-name="Trazado 1047784" d="M276.269,287.793a8.52,8.52,0,0,1-5,8.505,1.224,1.224,0,0,1-1.172-.048L196.137,252.8a2.871,2.871,0,0,1-1.424-2.123c-.382-3.369.938-5.895,4.259-7.426a2.986,2.986,0,0,1,2.768.117l73.915,43.427A1.226,1.226,0,0,1,276.269,287.793Z" transform="translate(-1.941 -2.423)" fill="none" stroke="#303030" stroke-miterlimit="10" stroke-width="1.5"/>
          <path id="Trazado_1047785" data-name="Trazado 1047785" d="M274.538,287.507a7.5,7.5,0,0,0-4.358,7.322,1.806,1.806,0,0,0,1.506,1.767l10.978,1.758a1,1,0,0,0,.945-1.606l-6.884-8.74a1.77,1.77,0,0,0-2.188-.5" transform="translate(-2.694 -2.865)" fill="#fff"/>
          <path id="Trazado_1047786" data-name="Trazado 1047786" d="M274.538,287.507a7.5,7.5,0,0,0-4.358,7.322,1.806,1.806,0,0,0,1.506,1.767l10.978,1.758a1,1,0,0,0,.945-1.606l-6.884-8.74A1.77,1.77,0,0,0,274.538,287.507Z" transform="translate(-2.694 -2.865)" fill="none" stroke="#303030" stroke-miterlimit="10" stroke-width="1.5"/>
          <path id="Trazado_1047787" data-name="Trazado 1047787" d="M278.456,292.732a10.318,10.318,0,0,1,1.152-1.093l4.059,5.154a1,1,0,0,1-.944,1.606l-6.636-1.063a10.333,10.333,0,0,1,2.369-4.6" transform="translate(-2.753 -2.908)" fill="#303030"/>
          <path id="Trazado_1047788" data-name="Trazado 1047788" d="M278.456,292.732a10.318,10.318,0,0,1,1.152-1.093l4.059,5.154a1,1,0,0,1-.944,1.606l-6.636-1.063A10.333,10.333,0,0,1,278.456,292.732Z" transform="translate(-2.753 -2.908)" fill="none" stroke="#303030" stroke-miterlimit="10" stroke-width="1.5"/>
          <path id="Trazado_1047789" data-name="Trazado 1047789" d="M278.774,289.217a14.236,14.236,0,0,0-3.621-9.1c-2.14-2.556-5.543-6.289-8.3-8.158-7.576-5.129-10.753-5.714-14.347-7.156-4.646-1.863-25.713-3.374-32.266-.367-5.771,2.648-22.914,15.688-30.8,20.979-13.729,9.206-92.644,20.43-92.644,20.43L75.21,243.24S62.238,193.528,42.2,178.767C-.718,193.855.329,220.507,6.049,245.979c5.158,22.967,20.82,72.375,27.369,91.055,12.674,36.155,25.357,44.66,62.593,30.652,34.337-12.917,72.318-27.954,87.366-35.145,11.878-5.676,15.262-1.873,24.184-4.712a25.83,25.83,0,0,0,11.84-7.669c2.04-2.163,3.856-6.346,6.174-8.262,3.965-3.278,6.984-3.213,9.979-2.047,3.658,1.423,6.984,3.714,11.005,7.573a7.546,7.546,0,0,0,4.462,2.449,5.275,5.275,0,0,0,4.562-1.728c.824-1.126.475-3.471.157-4.185-3.587-8.073-6.9-10.309-11.04-13.287a58.173,58.173,0,0,0-7.878-4.635c5.286.082,9.737,2.05,14.387,4.283,4.472,2.146,7.556,6.359,11.9,8.717,2.211,1.2,5.112,1.836,7.127.334,1.506-1.122,2.843-4.548,2.047-6.249a4.624,4.624,0,0,0,4.5.207c4.071-2.015,2.969-8.531.29-11.739,1.094.161,1.679-1.268,1.692-2.374" transform="translate(-0.032 -1.783)" fill="#ad6163"/>
          <path id="Trazado_1047790" data-name="Trazado 1047790" d="M242.575,282.237c8.754,1.989,15.075,3.935,22.078,9.553a33.055,33.055,0,0,1,10.024,12.365" transform="translate(-2.419 -2.815)" fill="none" stroke="#303030" stroke-linecap="round" stroke-linejoin="round" stroke-width="1.5"/>
          <path id="Trazado_1047791" data-name="Trazado 1047791" d="M238.46,298.605c4.174.77,9.838,4.2,12.782,7.254s5.93,7.353,7.053,11.335" transform="translate(-2.378 -2.978)" fill="none" stroke="#303030" stroke-linecap="round" stroke-linejoin="round" stroke-width="1.5"/>
          <path id="Trazado_1047792" data-name="Trazado 1047792" d="M249.278,271.9c13.865,3.1,22.985,10.546,31,20.2" transform="translate(-2.486 -2.712)" fill="none" stroke="#303030" stroke-linecap="round" stroke-linejoin="round" stroke-width="1.5"/>
          <path id="Trazado_1047793" data-name="Trazado 1047793" d="M180.764,291.156c-6.362,2.191-8.894,15.649-7.661,23.269s7.587,17.62,11.81,19.207l3.506-1.5s.221,1.7-2.148,3.3c-2.645,1.788-8.866,6.079-12.244,6.187-3.746.12-14.5-9.319-16.44-23.766-2.133-15.911,5.453-22.61,7.6-23.933s14.285-5.2,16.368-5.709c2.644-.643,3.129,1.432,3.129,1.432Z" transform="translate(-1.568 -2.873)" fill="#303030"/>
          <path id="Trazado_1047794" data-name="Trazado 1047794" d="M157.929,305.177l15.848-5.735a3.507,3.507,0,0,1,4.689,3.017l1.342,16.67a3.509,3.509,0,0,1-2.169,3.527l-15.621,6.386a3.507,3.507,0,0,1-4.819-2.93l-1.568-17.32a3.506,3.506,0,0,1,2.3-3.614" transform="translate(-1.552 -2.984)" fill="#303030"/>
          <path id="Trazado_1047795" data-name="Trazado 1047795" d="M157.929,305.177l15.848-5.735a3.507,3.507,0,0,1,4.689,3.017l1.342,16.67a3.509,3.509,0,0,1-2.169,3.527l-15.621,6.386a3.507,3.507,0,0,1-4.819-2.93l-1.568-17.32A3.506,3.506,0,0,1,157.929,305.177Z" transform="translate(-1.552 -2.984)" fill="none" stroke="#303030" stroke-linecap="round" stroke-linejoin="round" stroke-width="1.5"/>
          <path id="Trazado_1047796" data-name="Trazado 1047796" d="M154.445,303.826l15.848-5.734a3.507,3.507,0,0,1,4.689,3.016l1.34,16.67a3.507,3.507,0,0,1-2.168,3.527l-15.621,6.386a3.507,3.507,0,0,1-4.819-2.93l-1.568-17.32a3.506,3.506,0,0,1,2.3-3.615" transform="translate(-1.517 -2.971)" fill="#fff"/>
          <path id="Trazado_1047797" data-name="Trazado 1047797" d="M154.445,303.826l15.848-5.734a3.507,3.507,0,0,1,4.689,3.016l1.34,16.67a3.507,3.507,0,0,1-2.168,3.527l-15.621,6.386a3.507,3.507,0,0,1-4.819-2.93l-1.568-17.32A3.506,3.506,0,0,1,154.445,303.826Z" transform="translate(-1.517 -2.971)" fill="none" stroke="#303030" stroke-linecap="round" stroke-linejoin="round" stroke-width="1.5"/>
          <path id="Trazado_1047798" data-name="Trazado 1047798" d="M44.263,175.629C16.109,188.311,2.955,198.321.942,223.983s12.234,54.7,19.372,87.714c7.436,34.391,5.5,51.088,26.364,52.07a32.722,32.722,0,0,1-5.341-8.087c6.467-12.764,24.7-43.143,54.335-49.322l8.189-1.534s.5-9.216-9.781-12.691c0,0-8.769-39.752-17.071-63.4s-19.759-43.947-26.253-48.526" transform="translate(-0.007 -1.752)" fill="#fff"/>
          <path id="Trazado_1047799" data-name="Trazado 1047799" d="M44.263,175.629C16.109,188.311,2.955,198.321.942,223.983s12.234,54.7,19.372,87.714c7.436,34.391,5.5,51.088,26.364,52.07a32.722,32.722,0,0,1-5.341-8.087c6.467-12.764,24.7-43.143,54.335-49.322l8.189-1.534s.5-9.216-9.781-12.691c0,0-8.769-39.752-17.071-63.4s-19.759-43.947-26.253-48.526" transform="translate(-0.007 -1.752)" fill="none" stroke="#303030" stroke-linecap="round" stroke-linejoin="round" stroke-width="1.5"/>
          <path id="Trazado_1047800" data-name="Trazado 1047800" d="M94.392,292.552a67.468,67.468,0,0,0-28.364,2.379A52.22,52.22,0,0,0,41.975,311.1a64.824,64.824,0,0,0-9.9,16.6.747.747,0,0,0,.519.913.76.76,0,0,0,.913-.518c4.119-9.812,10.47-18.775,19.238-24.942a54.235,54.235,0,0,1,25.8-9.3,73.767,73.767,0,0,1,15.842.186c.947.109.94-1.377,0-1.485" transform="translate(-0.319 -2.912)" fill="#303030"/>
          <path id="Trazado_1047801" data-name="Trazado 1047801" d="M401.24,326.146c-11.188,9.578-28.83,12.75-45.765,15.641l-2.167-36.364,42.238-4.043Z" transform="translate(-3.523 -3.006)" fill="#ad6163"/>
          <path id="Trazado_1047802" data-name="Trazado 1047802" d="M217.18,367.59l4.364,5.252L344.56,368.3,435.3,226.216l-3.379-5.772L303.805,225.1Z" transform="translate(-2.166 -2.198)" fill="#303030"/>
          <path id="Trazado_1047803" data-name="Trazado 1047803" d="M221.587,372.9,344.6,368.355l90.739-142.082-128.115,4.657Z" transform="translate(-2.21 -2.257)" fill="#00826f"/>
          <path id="Trazado_1047804" data-name="Trazado 1047804" d="M346.927,229.215l-6.671,10.445,64.4-2.184,6.671-10.446-11.971.435,1.547-3.875c.854-2.139-.986-5.389-4.479-6.188a49.294,49.294,0,0,0-13.2-.937,69.9,69.9,0,0,0-14.99,2.2,16.19,16.19,0,0,0-8.443,6.19l-2.344,4Z" transform="translate(-3.393 -2.158)" fill="#fff"/>
          <path id="Trazado_1047805" data-name="Trazado 1047805" d="M346.927,229.215l-6.671,10.445,64.4-2.184,6.671-10.446-11.971.435,1.547-3.875c.854-2.139-.986-5.389-4.479-6.188a49.294,49.294,0,0,0-13.2-.937,69.9,69.9,0,0,0-14.99,2.2,16.19,16.19,0,0,0-8.443,6.19l-2.344,4Z" transform="translate(-3.393 -2.158)" fill="none" stroke="#303030" stroke-linecap="round" stroke-linejoin="round" stroke-width="1.5"/>
          <path id="Trazado_1047806" data-name="Trazado 1047806" d="M377.912,318.395s12.222,3.936,23.349,7.243c12.757-13.27,13.79-20.877,15.292-29.96s2.323-13.444-2.233-22.452a108.662,108.662,0,0,0-14.575-21.67c-3.735-4.11-8.371,3.92-4.492,11.343,3.608,6.906,7.424,13.638,6.864,18.207,0,0-17.221-4.139-23.433-4.728-8.265-.785-9.8-.248-11.792.315-3.257.921-1.979,7.857,5.638,9.7,16.3,3.938,18.866,4.035,22.762,8.116,0,0-4.1-.79-16.171-1.685-15.7-1.164-20.88-1.343-23.16.819-1.216,1.153-1.262,9.435,6.792,12.028-2.845,5.639.8,10.254,15.159,12.728" transform="translate(-3.544 -2.498)" fill="#ad6163"/>
          <path id="Trazado_1047807" data-name="Trazado 1047807" d="M397.631,280.505a39.544,39.544,0,0,1,11.175,4.5,12.994,12.994,0,0,1,4.8,5.519,24.441,24.441,0,0,1,1.943,7.3.747.747,0,0,0,.914.518.762.762,0,0,0,.519-.913c-.533-3.927-1.621-7.941-4.253-11.01a18.871,18.871,0,0,0-6.872-4.655,56.853,56.853,0,0,0-7.831-2.695.743.743,0,0,0-.4,1.432" transform="translate(-3.96 -2.783)" fill="#303030"/>
          <path id="Trazado_1047808" data-name="Trazado 1047808" d="M403.5,301.074c-2.254-3.633-5.906-5.764-9.868-7.115-4.883-1.666-9.942-1.265-15.013-1.492-5.483-.245-10.965-.515-16.449-.733-3.169-.127-7.733.4-7.568,4.531a12.12,12.12,0,0,0,7.941,10.529c.9.327,1.287-1.108.4-1.433a10.7,10.7,0,0,1-6.8-8.418,3.644,3.644,0,0,1,.158-2.1,2.732,2.732,0,0,1,1.558-1.176,12.508,12.508,0,0,1,4.745-.425l15.036.67c2.4.107,4.8.108,7.2.16a27.25,27.25,0,0,1,6.914.851c4.111,1.172,8.144,3.163,10.465,6.9.5.811,1.788.065,1.282-.749" transform="translate(-3.536 -2.909)" fill="#303030"/>
          <path id="Trazado_1047809" data-name="Trazado 1047809" d="M396.645,314.447a10.22,10.22,0,0,0-3.752-5.866A15.029,15.029,0,0,0,385.708,306a112.166,112.166,0,0,0-16.666-1.165c-1.11,0-2.223.026-3.328.113a7.574,7.574,0,0,0-2.365.432,3.931,3.931,0,0,0-2.132,3.686,7.338,7.338,0,0,0,1.539,4.638c1.268,1.622,3.359,2.127,5.2,2.853,4.261,1.684,8.734,2.785,13.128,4.062a.743.743,0,0,0,.395-1.432l-8.167-2.376c-1.12-.326-2.237-.648-3.331-1.055-.64-.238-1.274-.489-1.909-.742-.963-.381-1.992-.7-2.914-1.176a4.959,4.959,0,0,1-2.319-3.395c-.249-1.1-.279-2.682.692-3.467a3.03,3.03,0,0,1,1.6-.489c.926-.1,1.86-.135,2.791-.153a107.931,107.931,0,0,1,14.854.766c2.826.335,5.885.6,8.381,2.09a8.792,8.792,0,0,1,4.056,5.656c.206.933,1.638.538,1.432-.395" transform="translate(-3.602 -3.04)" fill="#303030"/>
          <line id="Línea_1318" data-name="Línea 1318" x2="518.456" transform="translate(8.313 415.349)" fill="#fff"/>
          <line id="Línea_1319" data-name="Línea 1319" x2="598.27" transform="translate(-71.5 461.349)" fill="none" stroke="#303030" stroke-linecap="round" stroke-linejoin="round" stroke-width="1.5"/>
        </g>
      </g>
    </g>
    <g id="Grupo_1209425" data-name="Grupo 1209425" transform="translate(932.328 4378.33)">
      <path id="Trazado_1047810" data-name="Trazado 1047810" d="M222.965,56.355c14.094-1.86,29.268-10.674,38.369-21.462a9.621,9.621,0,0,1,14.744.015c9.069,10.784,24.337,19.593,38.463,21.448A10.221,10.221,0,0,1,323.4,67.232c-1.138,16.082-5.55,34.274-14.921,50.484,1.636,5.792,9.307,10.331,14.017,11.543,2.516.647.006,3.474-8.451,3.65a35.871,35.871,0,0,1-14.342-2.5,85.68,85.68,0,0,1-21.744,18.908,17.694,17.694,0,0,1-18.409,0c-31.369-19.073-43.442-53.841-45.442-82.087a10.221,10.221,0,0,1,8.856-10.876" transform="translate(-214.082 -31.461)" fill="#fff"/>
      <path id="Trazado_1047811" data-name="Trazado 1047811" d="M222.965,56.355c14.094-1.86,29.268-10.674,38.369-21.462a9.621,9.621,0,0,1,14.744.015c9.069,10.784,24.337,19.593,38.463,21.448A10.221,10.221,0,0,1,323.4,67.232c-1.138,16.082-5.55,34.274-14.921,50.484,1.636,5.792,9.307,10.331,14.017,11.543,2.516.647.006,3.474-8.451,3.65a35.871,35.871,0,0,1-14.342-2.5,85.68,85.68,0,0,1-21.744,18.908,17.694,17.694,0,0,1-18.409,0c-31.369-19.073-43.442-53.841-45.442-82.087A10.221,10.221,0,0,1,222.965,56.355Z" transform="translate(-214.082 -31.461)" fill="none" stroke="#303030" stroke-linecap="round" stroke-linejoin="round" stroke-width="1.5"/>
      <path id="Trazado_1047812" data-name="Trazado 1047812" d="M266.2,118.332a7.105,7.105,0,0,1-4.9-1.963l-15.1-14.393A7.107,7.107,0,0,1,256,91.688l9.721,9.267,24.461-28.046A7.107,7.107,0,1,1,300.9,82.252L271.554,115.9a7.109,7.109,0,0,1-5.029,2.428c-.109.006-.218.008-.327.008" transform="translate(-222.454 -32.451)" fill="#00826f"/>
    </g>
  </g>
</svg>
