<svg xmlns="http://www.w3.org/2000/svg" xmlns:xlink="http://www.w3.org/1999/xlink" width="118" height="118" viewBox="0 0 118 118">
  <defs>
    <filter id="Trazado_982547" x="0" y="0" width="118" height="118" filterUnits="userSpaceOnUse">
      <feOffset dy="3" input="SourceAlpha"/>
      <feGaussianBlur stdDeviation="3" result="blur"/>
      <feFlood flood-opacity="0.161"/>
      <feComposite operator="in" in2="blur"/>
      <feComposite in="SourceGraphic"/>
    </filter>
  </defs>
  <g id="Grupo_1209430" data-name="Grupo 1209430" transform="translate(-265 -5410.365)">
    <g id="Grupo_1209179" data-name="Grupo 1209179" transform="translate(-528.49 4180.149)">
      <g id="Grupo_1208492" data-name="Grupo 1208492" transform="translate(802.49 1236.215)">
        <g id="Grupo_1177675" data-name="Grupo 1177675" transform="translate(0 0)">
          <g id="Grupo_1176928" data-name="Grupo 1176928" transform="translate(0)">
            <g id="Grupo_1172322" data-name="Grupo 1172322" transform="translate(0 0)">
              <g id="Grupo_1164700" data-name="Grupo 1164700">
                <g id="Grupo_1160931" data-name="Grupo 1160931">
                  <g id="Grupo_1160749" data-name="Grupo 1160749">
                    <g id="Grupo_1158891" data-name="Grupo 1158891">
                      <g id="Grupo_1157406" data-name="Grupo 1157406">
                        <g id="Grupo_1155793" data-name="Grupo 1155793">
                          <g id="Grupo_1154704" data-name="Grupo 1154704">
                            <g id="Grupo_1150790" data-name="Grupo 1150790">
                              <g id="Grupo_1154214" data-name="Grupo 1154214">
                                <g id="Grupo_1152583" data-name="Grupo 1152583">
                                  <g id="Grupo_1146973" data-name="Grupo 1146973">
                                    <g id="Grupo_1146954" data-name="Grupo 1146954">
                                      <g transform="matrix(1, 0, 0, 1, -9, -6)" filter="url(#Trazado_982547)">
                                        <g id="Trazado_982547-2" data-name="Trazado 982547" transform="translate(9 6)" fill="#fef9e7">
                                          <path d="M 49.99995803833008 98.49976348876953 C 43.45184326171875 98.49976348876953 37.10039901733398 97.2176513671875 31.1220588684082 94.68901824951172 C 25.34690093994141 92.246337890625 20.15995788574219 88.74910736083984 15.70531558990479 84.29447937011719 C 11.25068664550781 79.83985137939453 7.753458023071289 74.65290832519531 5.31077241897583 68.87776184082031 C 2.782143831253052 62.89942169189453 1.500015139579773 56.54797744750977 1.500015139579773 49.9998779296875 C 1.500015139579773 43.45177841186523 2.782143831253052 37.10033416748047 5.31077241897583 31.12199211120605 C 7.753458023071289 25.34684944152832 11.25068664550781 20.15992164611816 15.70531558990479 15.70529174804688 C 20.15995788574219 11.25066375732422 25.34688568115234 7.753435134887695 31.1220588684082 5.310749530792236 C 37.10039901733398 2.782120704650879 43.45184326171875 1.500006556510925 49.99995803833008 1.500006556510925 C 56.54807281494141 1.500006556510925 62.89951705932617 2.782120704650879 68.87786865234375 5.310749530792236 C 74.65303039550781 7.753435134887695 79.83997344970703 11.25066375732422 84.29460144042969 15.70529174804688 C 88.74924468994141 20.15992164611816 92.24647521972656 25.34684944152832 94.68915557861328 31.12199211120605 C 97.21778869628906 37.10033416748047 98.49991607666016 43.45177841186523 98.49991607666016 49.9998779296875 C 98.49991607666016 56.54797744750977 97.21778869628906 62.89942169189453 94.68915557861328 68.87776184082031 C 92.24647521972656 74.65290832519531 88.74924468994141 79.83985137939453 84.29460144042969 84.29447937011719 C 79.83997344970703 88.74910736083984 74.65303039550781 92.246337890625 68.87786865234375 94.68901824951172 C 62.89951705932617 97.2176513671875 56.54807281494141 98.49976348876953 49.99995803833008 98.49976348876953 Z" stroke="none"/>
                                          <path d="M 49.99995803833008 3 C 43.65368270874023 3 37.49883651733398 4.24224853515625 31.70637512207031 6.692245483398438 C 26.11001586914062 9.059310913085938 21.08334350585938 12.44858551025391 16.76597595214844 16.76595306396484 C 12.44860076904297 21.08330535888672 9.059326171875 26.10997009277344 6.692268371582031 31.70632171630859 C 4.242263793945312 37.49877166748047 3.000007629394531 43.65361785888672 3.000007629394531 49.9998779296875 C 3.000007629394531 56.34613800048828 4.242263793945312 62.50098419189453 6.692268371582031 68.29343414306641 C 9.059326171875 73.88978576660156 12.44860076904297 78.91644287109375 16.76597595214844 83.23380279541016 C 21.08334350585938 87.55117034912109 26.11001586914062 90.94044494628906 31.70637512207031 93.30751037597656 C 37.49883651733398 95.75750732421875 43.65368270874023 96.999755859375 49.99995803833008 96.999755859375 C 56.34623336791992 96.999755859375 62.50107955932617 95.75750732421875 68.29354095458984 93.30751037597656 C 73.889892578125 90.94044494628906 78.91657257080078 87.55117034912109 83.23394012451172 83.23380279541016 C 87.55131530761719 78.91644287109375 90.94058990478516 73.88978576660156 93.30764770507812 68.29343414306641 C 95.75765228271484 62.50098419189453 96.99990844726562 56.34613800048828 96.99990844726562 49.9998779296875 C 96.99990844726562 43.65361785888672 95.75765228271484 37.49877166748047 93.30764770507812 31.70632171630859 C 90.94058990478516 26.10997009277344 87.55131530761719 21.08330535888672 83.23394012451172 16.76595306396484 C 78.91657257080078 12.44858551025391 73.889892578125 9.059310913085938 68.29354095458984 6.692245483398438 C 62.50107955932617 4.24224853515625 56.34623336791992 3 49.99995803833008 3 M 49.99995803833008 0 C 77.61415863037109 0 99.99990844726562 22.38571166992188 99.99990844726562 49.9998779296875 C 99.99990844726562 77.61404418945312 77.61415863037109 99.999755859375 49.99995803833008 99.999755859375 C 22.38575744628906 99.999755859375 7.62939453125e-06 77.61404418945312 7.62939453125e-06 49.9998779296875 C 7.62939453125e-06 22.38571166992188 22.38575744628906 0 49.99995803833008 0 Z" stroke="none" fill="#f8ce24"/>
                                        </g>
                                      </g>
                                    </g>
                                  </g>
                                </g>
                              </g>
                            </g>
                          </g>
                        </g>
                      </g>
                    </g>
                  </g>
                </g>
              </g>
            </g>
          </g>
        </g>
      </g>
    </g>
    <g id="clipboard_5132273" transform="translate(221 5425.956)">
      <g id="Grupo_1209428" data-name="Grupo 1209428" transform="translate(81.045 9.045)">
        <path id="Trazado_1047831" data-name="Trazado 1047831" d="M88,16h43.909V78.727H88Z" transform="translate(-88 -16)" fill="#a0815c"/>
        <path id="Trazado_1047832" data-name="Trazado 1047832" d="M148.227,48h7.318v54.364H120V48h7.318" transform="translate(-115.818 -43.818)" fill="#e0e0e2"/>
        <g id="Grupo_1209427" data-name="Grupo 1209427" transform="translate(7.318 12.545)">
          <path id="Trazado_1047833" data-name="Trazado 1047833" d="M144,112h10.455v10.455H144Z" transform="translate(-144 -112)" fill="#91cc04"/>
          <path id="Trazado_1047834" data-name="Trazado 1047834" d="M144,224h10.455v10.455H144Z" transform="translate(-144 -209.364)" fill="#91cc04"/>
          <path id="Trazado_1047835" data-name="Trazado 1047835" d="M144,336h10.455v10.455H144Z" transform="translate(-144 -306.727)" fill="#91cc04"/>
        </g>
        <path id="Trazado_1047836" data-name="Trazado 1047836" d="M176,16h20.909v5.75a2.614,2.614,0,0,1-2.614,2.614H178.614A2.614,2.614,0,0,1,176,21.75Z" transform="translate(-164.5 -16)" fill="#ff9811"/>
      </g>
      <g id="Grupo_1209429" data-name="Grupo 1209429" transform="translate(80 8)">
        <path id="Trazado_1047837" data-name="Trazado 1047837" d="M124.955,8H81.045A1.045,1.045,0,0,0,80,9.045V71.773a1.045,1.045,0,0,0,1.045,1.045h43.909A1.045,1.045,0,0,0,126,71.773V9.045A1.045,1.045,0,0,0,124.955,8ZM93.591,10.091h18.818v4.7a1.569,1.569,0,0,1-1.568,1.568H95.159A1.569,1.569,0,0,1,93.591,14.8Zm1.568,8.364h15.682A3.663,3.663,0,0,0,114.5,14.8v-.523h5.227V66.545H86.273V14.273H91.5V14.8a3.663,3.663,0,0,0,3.659,3.659Zm28.75,52.273H82.091V10.091H91.5v2.091H85.227a1.045,1.045,0,0,0-1.045,1.045V67.591a1.045,1.045,0,0,0,1.045,1.045h35.545a1.045,1.045,0,0,0,1.045-1.045V13.227a1.045,1.045,0,0,0-1.045-1.045H114.5V10.091h9.409Z" transform="translate(-80 -8)"/>
        <path id="Trazado_1047838" data-name="Trazado 1047838" d="M136,105.045V115.5a1.045,1.045,0,0,0,1.045,1.045H147.5a1.045,1.045,0,0,0,1.045-1.045v-6.534l2.718-2.039a1.045,1.045,0,0,0-1.255-1.673l-1.464,1.1v-1.307A1.045,1.045,0,0,0,147.5,104H137.045A1.045,1.045,0,0,0,136,105.045Zm2.091,1.045h8.364v1.83l-4.084,3.063-1.45-1.45a1.045,1.045,0,0,0-1.479,1.479l2.091,2.091a1.045,1.045,0,0,0,1.367.1l3.555-2.666v3.92h-8.364Z" transform="translate(-128.682 -91.455)"/>
        <path id="Trazado_1047839" data-name="Trazado 1047839" d="M265.045,114.091h12.545a1.045,1.045,0,0,0,0-2.091H265.045a1.045,1.045,0,0,0,0,2.091Z" transform="translate(-239.955 -98.409)"/>
        <path id="Trazado_1047840" data-name="Trazado 1047840" d="M265.045,138.091h12.545a1.045,1.045,0,0,0,0-2.091H265.045a1.045,1.045,0,0,0,0,2.091Z" transform="translate(-239.955 -119.273)"/>
        <path id="Trazado_1047841" data-name="Trazado 1047841" d="M265.045,162.091h12.545a1.045,1.045,0,0,0,0-2.091H265.045a1.045,1.045,0,0,0,0,2.091Z" transform="translate(-239.955 -140.136)"/>
        <path id="Trazado_1047842" data-name="Trazado 1047842" d="M265.045,186.091h8.364a1.045,1.045,0,0,0,0-2.091h-8.364a1.045,1.045,0,0,0,0,2.091Z" transform="translate(-239.955 -161)"/>
        <path id="Trazado_1047843" data-name="Trazado 1047843" d="M150.009,217.255l-1.464,1.1v-1.307A1.045,1.045,0,0,0,147.5,216H137.045A1.045,1.045,0,0,0,136,217.045V227.5a1.045,1.045,0,0,0,1.045,1.045H147.5a1.045,1.045,0,0,0,1.045-1.045v-6.534l2.718-2.039a1.045,1.045,0,0,0-1.255-1.673Zm-3.555,9.2h-8.364v-8.364h8.364v1.83l-4.084,3.063-1.45-1.45a1.045,1.045,0,0,0-1.479,1.479l2.091,2.091a1.045,1.045,0,0,0,1.367.1l3.555-2.666Z" transform="translate(-128.682 -188.818)"/>
        <path id="Trazado_1047844" data-name="Trazado 1047844" d="M265.045,226.091h12.545a1.045,1.045,0,0,0,0-2.091H265.045a1.045,1.045,0,0,0,0,2.091Z" transform="translate(-239.955 -195.773)"/>
        <path id="Trazado_1047845" data-name="Trazado 1047845" d="M265.045,250.091h12.545a1.045,1.045,0,0,0,0-2.091H265.045a1.045,1.045,0,0,0,0,2.091Z" transform="translate(-239.955 -216.636)"/>
        <path id="Trazado_1047846" data-name="Trazado 1047846" d="M265.045,274.091h12.545a1.045,1.045,0,0,0,0-2.091H265.045a1.045,1.045,0,0,0,0,2.091Z" transform="translate(-239.955 -237.5)"/>
        <path id="Trazado_1047847" data-name="Trazado 1047847" d="M265.045,298.091h8.364a1.045,1.045,0,0,0,0-2.091h-8.364a1.045,1.045,0,0,0,0,2.091Z" transform="translate(-239.955 -258.364)"/>
        <path id="Trazado_1047848" data-name="Trazado 1047848" d="M150.009,329.255l-1.464,1.1v-1.307A1.045,1.045,0,0,0,147.5,328H137.045A1.045,1.045,0,0,0,136,329.045V339.5a1.045,1.045,0,0,0,1.045,1.045H147.5a1.045,1.045,0,0,0,1.045-1.045v-6.534l2.718-2.039a1.045,1.045,0,0,0-1.255-1.673Zm-3.555,9.2h-8.364v-8.364h8.364v1.83l-4.084,3.063-1.45-1.45a1.045,1.045,0,0,0-1.479,1.479l2.091,2.091a1.045,1.045,0,0,0,1.367.1l3.555-2.666Z" transform="translate(-128.682 -286.182)"/>
        <path id="Trazado_1047849" data-name="Trazado 1047849" d="M265.045,338.091h12.545a1.045,1.045,0,0,0,0-2.091H265.045a1.045,1.045,0,0,0,0,2.091Z" transform="translate(-239.955 -293.136)"/>
        <path id="Trazado_1047850" data-name="Trazado 1047850" d="M265.045,362.091h12.545a1.045,1.045,0,0,0,0-2.091H265.045a1.045,1.045,0,0,0,0,2.091Z" transform="translate(-239.955 -314)"/>
        <path id="Trazado_1047851" data-name="Trazado 1047851" d="M265.045,386.091h12.545a1.045,1.045,0,0,0,0-2.091H265.045a1.045,1.045,0,0,0,0,2.091Z" transform="translate(-239.955 -334.864)"/>
        <path id="Trazado_1047852" data-name="Trazado 1047852" d="M265.045,410.091h8.364a1.045,1.045,0,0,0,0-2.091h-8.364a1.045,1.045,0,0,0,0,2.091Z" transform="translate(-239.955 -355.727)"/>
      </g>
    </g>
  </g>
</svg>
