<svg xmlns="http://www.w3.org/2000/svg" xmlns:xlink="http://www.w3.org/1999/xlink" width="108" height="108" viewBox="0 0 108 108">
  <defs>
    <filter id="Trazado_904820" x="0" y="0" width="108" height="108" filterUnits="userSpaceOnUse">
      <feOffset dy="3" input="SourceAlpha"/>
      <feGaussianBlur stdDeviation="3" result="blur"/>
      <feFlood flood-opacity="0.161"/>
      <feComposite operator="in" in2="blur"/>
      <feComposite in="SourceGraphic"/>
    </filter>
  </defs>
  <g id="Grupo_1209367" data-name="Grupo 1209367" transform="translate(-620 -528.783)">
    <g id="Grupo_1206729" data-name="Grupo 1206729" transform="translate(629 534.783)">
      <g id="Grupo_1202705" data-name="Grupo 1202705" transform="translate(0 0)">
        <g id="Grupo_1173585" data-name="Grupo 1173585">
          <g id="Grupo_1173428" data-name="Grupo 1173428">
            <g id="Grupo_1171958" data-name="Grupo 1171958">
              <g id="Grupo_1167341" data-name="Grupo 1167341">
                <g id="Grupo_1166792" data-name="Grupo 1166792">
                  <g transform="matrix(1, 0, 0, 1, -9, -6)" filter="url(#Trazado_904820)">
                    <g id="Trazado_904820-2" data-name="Trazado 904820" transform="translate(9 6)" fill="#fbedfe">
                      <path d="M 44.99999618530273 88.50002288818359 C 39.12687301635742 88.50002288818359 33.43022155761719 87.35009765625 28.06829643249512 85.08218383789062 C 22.88852119445801 82.89133453369141 18.23629570007324 79.75460815429688 14.24084663391113 75.75916290283203 C 10.24540901184082 71.76371002197266 7.108683586120605 67.11148834228516 4.917821407318115 61.93171310424805 C 2.649921178817749 56.56978607177734 1.499996185302734 50.87313461303711 1.499996185302734 45.0000114440918 C 1.499996185302734 39.12688827514648 2.649921178817749 33.43023681640625 4.917821407318115 28.06829833984375 C 7.108683586120605 22.88852310180664 10.24540901184082 18.2363109588623 14.24084663391113 14.2408618927002 C 18.23629570007324 10.24541187286377 22.88852119445801 7.108686447143555 28.06829643249512 4.917823791503906 C 33.43022155761719 2.649924039840698 39.12687301635742 1.499998927116394 44.99999618530273 1.499998927116394 C 50.87311935424805 1.499998927116394 56.56977081298828 2.649924039840698 61.93169784545898 4.917823791503906 C 67.11147308349609 7.108686447143555 71.76369476318359 10.24541187286377 75.75914764404297 14.2408618927002 C 79.75458526611328 18.2363109588623 82.89131164550781 22.88852310180664 85.08216857910156 28.06829833984375 C 87.35007476806641 33.43023681640625 88.5 39.12688827514648 88.5 45.0000114440918 C 88.5 50.87313461303711 87.35007476806641 56.56978607177734 85.08216857910156 61.93171310424805 C 82.89131164550781 67.11148834228516 79.75458526611328 71.76371002197266 75.75914764404297 75.75916290283203 C 71.76369476318359 79.75460815429688 67.11147308349609 82.89133453369141 61.93169784545898 85.08218383789062 C 56.56977081298828 87.35009765625 50.87311935424805 88.50002288818359 44.99999618530273 88.50002288818359 Z" stroke="none"/>
                      <path d="M 44.99999618530273 3 C 39.32870864868164 3 33.82865142822266 4.110054016113281 28.65262603759766 6.299339294433594 C 23.65165710449219 8.414566040039062 19.15968322753906 11.44333648681641 15.301513671875 15.30152893066406 C 11.44333648681641 19.15969848632812 8.414566040039062 23.65165710449219 6.299339294433594 28.65264129638672 C 4.110054016113281 33.82866668701172 2.999992370605469 39.3287239074707 2.999992370605469 45.0000114440918 C 2.999992370605469 50.67129898071289 4.110054016113281 56.17135620117188 6.299339294433594 61.34738159179688 C 8.414566040039062 66.34836578369141 11.44333648681641 70.84032440185547 15.301513671875 74.69849395751953 C 19.15968322753906 78.55668640136719 23.65165710449219 81.58545684814453 28.65262603759766 83.70068359375 C 33.82865142822266 85.88996887207031 39.32870864868164 87.00002288818359 44.99999618530273 87.00002288818359 C 50.67128372192383 87.00002288818359 56.17134094238281 85.88996887207031 61.34736633300781 83.70068359375 C 66.34834289550781 81.58545684814453 70.84030914306641 78.55668640136719 74.69847869873047 74.69849395751953 C 78.55665588378906 70.84032440185547 81.58542633056641 66.34836578369141 83.70065307617188 61.34738159179688 C 85.88993835449219 56.17135620117188 87 50.67129898071289 87 45.0000114440918 C 87 39.3287239074707 85.88993835449219 33.82866668701172 83.70065307617188 28.65264129638672 C 81.58542633056641 23.65165710449219 78.55665588378906 19.15969848632812 74.69847869873047 15.30152893066406 C 70.84030914306641 11.44333648681641 66.34834289550781 8.414566040039062 61.34736633300781 6.299339294433594 C 56.17134094238281 4.110054016113281 50.67128372192383 3 44.99999618530273 3 M 44.99999618530273 0 C 69.85281372070312 0 90 20.14719390869141 90 45.0000114440918 C 90 69.85282897949219 69.85281372070312 90.00002288818359 44.99999618530273 90.00002288818359 C 20.14717864990234 90.00002288818359 -7.62939453125e-06 69.85282897949219 -7.62939453125e-06 45.0000114440918 C -7.62939453125e-06 20.14719390869141 20.14717864990234 0 44.99999618530273 0 Z" stroke="none" fill="#7b3289"/>
                    </g>
                  </g>
                </g>
              </g>
            </g>
          </g>
        </g>
      </g>
    </g>
    <g id="schedule_1473269" transform="translate(645.589 547.157)">
      <path id="Trazado_1047552" data-name="Trazado 1047552" d="M52.938,93.326H11.463A2.963,2.963,0,0,1,8.5,90.363V43.95A3.95,3.95,0,0,1,12.45,40h39.5a3.95,3.95,0,0,1,3.95,3.95V90.363A2.963,2.963,0,0,1,52.938,93.326Zm0,0" transform="translate(-7.013 -35.062)" fill="#6cbae5"/>
      <path id="Trazado_1047553" data-name="Trazado 1047553" d="M56.5,88H92.051v41.476H56.5Zm0,0" transform="translate(-49.088 -77.137)" fill="#fbd699"/>
      <path id="Trazado_1047554" data-name="Trazado 1047554" d="M130.475,256H144.3a1.975,1.975,0,1,1,0,3.95H130.475a1.975,1.975,0,0,1,0-3.95Zm0,0" transform="translate(-112.2 -224.399)" fill="#e48422"/>
      <path id="Trazado_1047555" data-name="Trazado 1047555" d="M164.35,150.813H152.5l3.441-12.9a2.571,2.571,0,0,1,4.967,0Zm0,0" transform="translate(-133.237 -119.212)" fill="#fd9226"/>
      <path id="Trazado_1047556" data-name="Trazado 1047556" d="M96.5,336h5.925v5.925H96.5Zm0,0" transform="translate(-84.15 -294.524)" fill="#fbb540"/>
      <path id="Trazado_1047557" data-name="Trazado 1047557" d="M92.45,319.9a.987.987,0,0,1-.79-.395l-2.963-3.95a.987.987,0,0,1,1.58-1.185l2.37,3.16,7.11-5.333a.987.987,0,0,1,1.185,1.58l-7.9,5.925A.981.981,0,0,1,92.45,319.9Zm0,0" transform="translate(-77.137 -273.486)" fill="#8dc79d"/>
      <g id="Grupo_1209366" data-name="Grupo 1209366" transform="translate(12.35 15.801)">
        <path id="Trazado_1047558" data-name="Trazado 1047558" d="M192.5,344h11.85v1.975H192.5Zm0,0" transform="translate(-180.65 -317.337)" fill="#fbb540"/>
        <path id="Trazado_1047559" data-name="Trazado 1047559" d="M192.5,376h11.85v1.975H192.5Zm0,0" transform="translate(-180.65 -345.387)" fill="#fbb540"/>
        <path id="Trazado_1047560" data-name="Trazado 1047560" d="M96.5,128h1.975v1.975H96.5Zm0,0" transform="translate(-96.5 -128)" fill="#fbb540"/>
        <path id="Trazado_1047561" data-name="Trazado 1047561" d="M96.5,160h1.975v1.975H96.5Zm0,0" transform="translate(-96.5 -156.05)" fill="#fbb540"/>
        <path id="Trazado_1047562" data-name="Trazado 1047562" d="M96.5,192h1.975v1.975H96.5Zm0,0" transform="translate(-96.5 -184.1)" fill="#fbb540"/>
      </g>
      <path id="Trazado_1047563" data-name="Trazado 1047563" d="M291.993,147.577l2.963-2.615a.987.987,0,0,1,1.394.087l2.439,2.763-4.444,3.922-2.439-2.763A.988.988,0,0,1,291.993,147.577Zm0,0" transform="translate(-255.218 -126.851)" fill="#9c9c9c"/>
      <path id="Trazado_1047564" data-name="Trazado 1047564" d="M391.422,150.8l-4.441-3.922,2.436-2.76a.988.988,0,0,1,1.394-.087l2.961,2.614a.988.988,0,0,1,.087,1.394Zm0,0" transform="translate(-338.774 -126.04)" fill="#e06661"/>
      <path id="Trazado_1047565" data-name="Trazado 1047565" d="M320.3,345.775h-1.975V330.963a.988.988,0,0,0-.988-.987h-9.875a.988.988,0,0,0-.987.987v14.813H304.5V330.963A2.963,2.963,0,0,1,307.463,328h9.875a2.963,2.963,0,0,1,2.963,2.963Zm0,0" transform="translate(-266.475 -287.511)" fill="#e06661"/>
      <path id="Trazado_1047566" data-name="Trazado 1047566" d="M311.9,164.5a7.9,7.9,0,0,1,7.9,7.9v1.975a7.9,7.9,0,1,1-15.8,0V172.4A7.9,7.9,0,0,1,311.9,164.5Zm0,0" transform="translate(-266.033 -144.197)" fill="#c3c3c3"/>
      <path id="Trazado_1047567" data-name="Trazado 1047567" d="M336,212.5h7.9v5.925H336Zm0,0" transform="translate(-294.083 -186.272)" fill="#f7ba61"/>
      <path id="Trazado_1047568" data-name="Trazado 1047568" d="M347.946,308.938h-1.975A1.975,1.975,0,0,1,344,306.963V304h5.925v2.963A1.975,1.975,0,0,1,347.946,308.938Zm0,0" transform="translate(-301.095 -266.474)" fill="#8d8d8d"/>
      <path id="Trazado_1047569" data-name="Trazado 1047569" d="M306.1,260.5a7.889,7.889,0,0,0,15.281,0Zm0,0" transform="translate(-267.879 -228.34)" fill="#9c9c9c"/>
      <path id="Trazado_1047570" data-name="Trazado 1047570" d="M122.475,8h15.8a1.975,1.975,0,0,1,1.975,1.975v7.9a1.975,1.975,0,0,1-1.975,1.975h-15.8a1.975,1.975,0,0,1-1.975-1.975v-7.9A1.975,1.975,0,0,1,122.475,8Zm0,0" transform="translate(-105.188 -7.012)" fill="#cbcbcb"/>
      <path id="Trazado_1047571" data-name="Trazado 1047571" d="M52.692,17.258a1.975,1.975,0,0,0-2.788.172l-.028.034V8.888A4.943,4.943,0,0,0,44.938,3.95H36.05V2.963A2.963,2.963,0,0,0,33.088,0h-15.8a2.963,2.963,0,0,0-2.963,2.963V3.95H5.437A4.943,4.943,0,0,0,.5,8.888V55.3a3.95,3.95,0,0,0,3.95,3.95H52.838a.988.988,0,0,0,.988-.988V43.451a2.963,2.963,0,0,0-2.963-2.963h-.988V38.1a8.913,8.913,0,0,0,.908-.527c.061-.041.12-.086.179-.128.16-.111.316-.227.468-.35.068-.054.133-.111.2-.168q.208-.178.4-.367c.066-.063.13-.127.2-.2.124-.128.243-.261.36-.4.061-.07.123-.139.182-.211.111-.138.216-.282.319-.427.055-.077.114-.15.166-.229.115-.172.22-.351.324-.531.113-.2.216-.4.313-.608.029-.06.06-.12.088-.181.081-.183.153-.371.222-.56.019-.052.039-.1.056-.154.069-.2.128-.395.183-.6.007-.024.015-.045.022-.069v-.013a8.871,8.871,0,0,0,.288-2.209V28.2a8.836,8.836,0,0,0-.725-3.509l1.8-2.038a1.975,1.975,0,0,0-.172-2.788Zm.084,10.948v1.975a6.907,6.907,0,0,1-.078.988H50.8V26.231a.988.988,0,0,0-.988-.988h-7.9a.988.988,0,0,0-.988.988v4.938h-1.9a6.909,6.909,0,0,1-.079-.988V28.206a6.913,6.913,0,1,1,13.825,0Zm-.7,4.981a6.9,6.9,0,0,1-.454.807,6.793,6.793,0,0,1-.539.7c-.043.052-.09.1-.136.15a6.7,6.7,0,0,1-.514.505c-.041.037-.08.076-.122.112a6.929,6.929,0,0,1-.679.5c-.055.037-.113.068-.17.1a6.631,6.631,0,0,1-.619.338c-.059.029-.117.058-.176.085a6.886,6.886,0,0,1-.812.3c-.042.013-.087.022-.129.034a6.87,6.87,0,0,1-.737.161c-.076.013-.151.026-.228.036a6.291,6.291,0,0,1-1.79,0c-.077-.01-.153-.023-.23-.036a6.827,6.827,0,0,1-.734-.161c-.043-.012-.088-.021-.131-.034a6.886,6.886,0,0,1-.812-.3c-.059-.027-.117-.056-.176-.085a6.632,6.632,0,0,1-.619-.338c-.056-.035-.114-.067-.17-.1a6.929,6.929,0,0,1-.679-.5c-.042-.036-.081-.075-.122-.112a6.784,6.784,0,0,1-.514-.505c-.046-.05-.093-.1-.136-.15a6.9,6.9,0,0,1-.539-.7v0a6.774,6.774,0,0,1-.453-.806l-.021-.043H52.1ZM14.507,11.851a2.963,2.963,0,0,0,2.781,1.975h15.8a2.963,2.963,0,0,0,2.781-1.975h6.107v5.832l-.124-.14a1.975,1.975,0,0,0-2.788-.175L36.1,19.983a1.976,1.976,0,0,0-.173,2.789l1.747,1.975a8.847,8.847,0,0,0-.7,3.456v1.975a8.856,8.856,0,0,0,.29,2.213V32.4c.007.024.015.045.022.069.054.2.114.405.183.6.018.051.038.1.056.154.069.189.141.376.222.559.027.063.06.122.089.185.1.205.2.408.312.606.1.181.209.359.324.531.052.079.11.152.166.229.1.145.207.288.319.426.058.072.121.141.182.212.117.135.235.269.36.395l.2.2q.2.19.4.367c.066.056.131.114.2.168.152.122.308.238.468.349.059.043.118.087.179.129a9.025,9.025,0,0,0,.97.557v1.922a2.891,2.891,0,0,0,.044.433h-.971a2.963,2.963,0,0,0-2.963,2.963v7.9H8.4V11.851Zm24.21,11.094-1.309-1.481,2.963-2.614L41.7,20.358a8.94,8.94,0,0,0-2.987,2.586ZM40,43.451a.988.988,0,0,1,.988-.988h.988v8.888H40Zm3.95-3.089V38.856q.129.028.26.052c.177.034.357.06.538.083.093.012.185.027.278.036.277.026.555.041.837.041s.561-.016.838-.041c.1-.009.186-.024.278-.036.181-.023.361-.049.538-.083.107-.02.213-.043.318-.067v1.216a.982.982,0,0,1-.284.691.532.532,0,0,0-.051.04.978.978,0,0,1-.653.257H44.873a.978.978,0,0,1-.922-.683Zm4.875-9.194H42.9v-3.95h5.925ZM44.938,5.925A2.963,2.963,0,0,1,47.9,8.888V19.563a8.641,8.641,0,0,0-3.95-.032V10.863a.988.988,0,0,0-.988-.988H36.05V5.925ZM16.3,2.963a.988.988,0,0,1,.988-.988h15.8a.988.988,0,0,1,.988.988v7.9a.988.988,0,0,1-.988.988h-15.8a.988.988,0,0,1-.988-.988ZM2.475,55.3V8.888A2.963,2.963,0,0,1,5.437,5.925h8.888v3.95H7.412a.988.988,0,0,0-.988.988V52.339a.988.988,0,0,0,.988.988H38.025v3.95H4.45A1.975,1.975,0,0,1,2.475,55.3ZM40,57.276v-3.95h2.963a.988.988,0,0,0,.988-.988v-9.48a2.934,2.934,0,0,0,.925.162h1.975a2.928,2.928,0,0,0,1.05-.2V55.3a1.975,1.975,0,0,1-1.975,1.975ZM50.863,42.464a.988.988,0,0,1,.988.988V57.276H49.326a3.909,3.909,0,0,0,.549-1.975V42.464ZM52.977,22.9a8.941,8.941,0,0,0-3-2.568l1.409-1.595,2.963,2.613Zm0,0" transform="translate(0 0)"/>
      <path id="Trazado_1047572" data-name="Trazado 1047572" d="M123.462,148.69h13.825a2.963,2.963,0,1,0,0-5.925h-.229l-3.246-12.171a3.555,3.555,0,0,0-6.875,0l-3.246,12.171h-.229a2.963,2.963,0,1,0,0,5.925Zm5.382-17.588a1.58,1.58,0,0,1,3.061,0l3.111,11.663h-9.283Zm-5.382,13.638h13.825a.988.988,0,1,1,0,1.975H123.462a.988.988,0,0,1,0-1.975Zm0,0" transform="translate(-105.187 -112.151)"/>
      <path id="Trazado_1047573" data-name="Trazado 1047573" d="M89.529,321.875h5.925a.988.988,0,0,0,.988-.988v-3.7l4.543-3.407A.987.987,0,1,0,99.8,312.2l-3.4,2.551a.972.972,0,0,0-.944-.773H89.529a1.031,1.031,0,0,0-.108.022.956.956,0,0,0-.2.04,11.145,11.145,0,0,0-.282.135c-.029.023-.027.034-.043.049a.921.921,0,0,0-.138.155.9.9,0,0,0-.1.148.938.938,0,0,0-.06.172.921.921,0,0,0-.04.2c0,.024-.014.043-.014.067v5.925A.988.988,0,0,0,89.529,321.875Zm4.938-1.975h-3.95v-1.975L91.7,319.5a.987.987,0,0,0,1.382.2l1.382-1.037Zm0-3.7-1.777,1.333L91.5,315.95h2.963Zm0,0" transform="translate(-77.179 -273.486)"/>
      <path id="Trazado_1047574" data-name="Trazado 1047574" d="M192.5,344h11.85v1.975H192.5Zm0,0" transform="translate(-168.3 -301.536)"/>
      <path id="Trazado_1047575" data-name="Trazado 1047575" d="M192.5,376h11.85v1.975H192.5Zm0,0" transform="translate(-168.3 -329.586)"/>
      <path id="Trazado_1047576" data-name="Trazado 1047576" d="M96.5,128h1.975v1.975H96.5Zm0,0" transform="translate(-84.15 -112.199)"/>
      <path id="Trazado_1047577" data-name="Trazado 1047577" d="M96.5,160h1.975v1.975H96.5Zm0,0" transform="translate(-84.15 -140.249)"/>
      <path id="Trazado_1047578" data-name="Trazado 1047578" d="M96.5,192h1.975v1.975H96.5Zm0,0" transform="translate(-84.15 -168.299)"/>
    </g>
  </g>
</svg>
