<svg xmlns="http://www.w3.org/2000/svg" xmlns:xlink="http://www.w3.org/1999/xlink" width="118" height="118" viewBox="0 0 118 118">
  <defs>
    <filter id="Trazado_982547" x="0" y="0" width="118" height="118" filterUnits="userSpaceOnUse">
      <feOffset dy="3" input="SourceAlpha"/>
      <feGaussianBlur stdDeviation="3" result="blur"/>
      <feFlood flood-opacity="0.161"/>
      <feComposite operator="in" in2="blur"/>
      <feComposite in="SourceGraphic"/>
    </filter>
  </defs>
  <g id="Grupo_1209470" data-name="Grupo 1209470" transform="translate(-898.5 -5410.365)">
    <g id="Grupo_1209181" data-name="Grupo 1209181" transform="translate(105.01 4180.149)">
      <g id="Grupo_1208492" data-name="Grupo 1208492" transform="translate(802.49 1236.215)">
        <g id="Grupo_1177675" data-name="Grupo 1177675" transform="translate(0 0)">
          <g id="Grupo_1176928" data-name="Grupo 1176928" transform="translate(0)">
            <g id="Grupo_1172322" data-name="Grupo 1172322" transform="translate(0 0)">
              <g id="Grupo_1164700" data-name="Grupo 1164700">
                <g id="Grupo_1160931" data-name="Grupo 1160931">
                  <g id="Grupo_1160749" data-name="Grupo 1160749">
                    <g id="Grupo_1158891" data-name="Grupo 1158891">
                      <g id="Grupo_1157406" data-name="Grupo 1157406">
                        <g id="Grupo_1155793" data-name="Grupo 1155793">
                          <g id="Grupo_1154704" data-name="Grupo 1154704">
                            <g id="Grupo_1150790" data-name="Grupo 1150790">
                              <g id="Grupo_1154214" data-name="Grupo 1154214">
                                <g id="Grupo_1152583" data-name="Grupo 1152583">
                                  <g id="Grupo_1146973" data-name="Grupo 1146973">
                                    <g id="Grupo_1146954" data-name="Grupo 1146954">
                                      <g transform="matrix(1, 0, 0, 1, -9, -6)" filter="url(#Trazado_982547)">
                                        <g id="Trazado_982547-2" data-name="Trazado 982547" transform="translate(9 6)" fill="#fef9e7">
                                          <path d="M 49.99995803833008 98.49976348876953 C 43.45184326171875 98.49976348876953 37.10039901733398 97.2176513671875 31.1220588684082 94.68901824951172 C 25.34690093994141 92.246337890625 20.15995788574219 88.74910736083984 15.70531558990479 84.29447937011719 C 11.25068664550781 79.83985137939453 7.753458023071289 74.65290832519531 5.31077241897583 68.87776184082031 C 2.782143831253052 62.89942169189453 1.500015139579773 56.54797744750977 1.500015139579773 49.9998779296875 C 1.500015139579773 43.45177841186523 2.782143831253052 37.10033416748047 5.31077241897583 31.12199211120605 C 7.753458023071289 25.34684944152832 11.25068664550781 20.15992164611816 15.70531558990479 15.70529174804688 C 20.15995788574219 11.25066375732422 25.34688568115234 7.753435134887695 31.1220588684082 5.310749530792236 C 37.10039901733398 2.782120704650879 43.45184326171875 1.500006556510925 49.99995803833008 1.500006556510925 C 56.54807281494141 1.500006556510925 62.89951705932617 2.782120704650879 68.87786865234375 5.310749530792236 C 74.65303039550781 7.753435134887695 79.83997344970703 11.25066375732422 84.29460144042969 15.70529174804688 C 88.74924468994141 20.15992164611816 92.24647521972656 25.34684944152832 94.68915557861328 31.12199211120605 C 97.21778869628906 37.10033416748047 98.49991607666016 43.45177841186523 98.49991607666016 49.9998779296875 C 98.49991607666016 56.54797744750977 97.21778869628906 62.89942169189453 94.68915557861328 68.87776184082031 C 92.24647521972656 74.65290832519531 88.74924468994141 79.83985137939453 84.29460144042969 84.29447937011719 C 79.83997344970703 88.74910736083984 74.65303039550781 92.246337890625 68.87786865234375 94.68901824951172 C 62.89951705932617 97.2176513671875 56.54807281494141 98.49976348876953 49.99995803833008 98.49976348876953 Z" stroke="none"/>
                                          <path d="M 49.99995803833008 3 C 43.65368270874023 3 37.49883651733398 4.24224853515625 31.70637512207031 6.692245483398438 C 26.11001586914062 9.059310913085938 21.08334350585938 12.44858551025391 16.76597595214844 16.76595306396484 C 12.44860076904297 21.08330535888672 9.059326171875 26.10997009277344 6.692268371582031 31.70632171630859 C 4.242263793945312 37.49877166748047 3.000007629394531 43.65361785888672 3.000007629394531 49.9998779296875 C 3.000007629394531 56.34613800048828 4.242263793945312 62.50098419189453 6.692268371582031 68.29343414306641 C 9.059326171875 73.88978576660156 12.44860076904297 78.91644287109375 16.76597595214844 83.23380279541016 C 21.08334350585938 87.55117034912109 26.11001586914062 90.94044494628906 31.70637512207031 93.30751037597656 C 37.49883651733398 95.75750732421875 43.65368270874023 96.999755859375 49.99995803833008 96.999755859375 C 56.34623336791992 96.999755859375 62.50107955932617 95.75750732421875 68.29354095458984 93.30751037597656 C 73.889892578125 90.94044494628906 78.91657257080078 87.55117034912109 83.23394012451172 83.23380279541016 C 87.55131530761719 78.91644287109375 90.94058990478516 73.88978576660156 93.30764770507812 68.29343414306641 C 95.75765228271484 62.50098419189453 96.99990844726562 56.34613800048828 96.99990844726562 49.9998779296875 C 96.99990844726562 43.65361785888672 95.75765228271484 37.49877166748047 93.30764770507812 31.70632171630859 C 90.94058990478516 26.10997009277344 87.55131530761719 21.08330535888672 83.23394012451172 16.76595306396484 C 78.91657257080078 12.44858551025391 73.889892578125 9.059310913085938 68.29354095458984 6.692245483398438 C 62.50107955932617 4.24224853515625 56.34623336791992 3 49.99995803833008 3 M 49.99995803833008 0 C 77.61415863037109 0 99.99990844726562 22.38571166992188 99.99990844726562 49.9998779296875 C 99.99990844726562 77.61404418945312 77.61415863037109 99.999755859375 49.99995803833008 99.999755859375 C 22.38575744628906 99.999755859375 7.62939453125e-06 77.61404418945312 7.62939453125e-06 49.9998779296875 C 7.62939453125e-06 22.38571166992188 22.38575744628906 0 49.99995803833008 0 Z" stroke="none" fill="#f8ce24"/>
                                        </g>
                                      </g>
                                    </g>
                                  </g>
                                </g>
                              </g>
                            </g>
                          </g>
                        </g>
                      </g>
                    </g>
                  </g>
                </g>
              </g>
            </g>
          </g>
        </g>
      </g>
    </g>
    <g id="folder_3260608" transform="translate(926 5408.527)">
      <g id="Grupo_1209469" data-name="Grupo 1209469" transform="translate(0.924 30.957)">
        <path id="Trazado_1047873" data-name="Trazado 1047873" d="M11.806,91.31H23.937L62.186,51.177v-5.49a3.105,3.105,0,0,0-3.094-3.1H27.913c-3.851,0-2.79-5.044-6.641-5.044H10.606A3.1,3.1,0,0,0,7.512,40.64V87.016a4.307,4.307,0,0,0,4.294,4.294Z" transform="translate(-7.512 -37.546)" fill="#ffc350" fill-rule="evenodd"/>
        <path id="Trazado_1047874" data-name="Trazado 1047874" d="M138.975,51.177v-5.49a3.105,3.105,0,0,0-3.094-3.1H132.9a3.105,3.105,0,0,1,3.094,3.1v5.49ZM104.7,42.59c-3.851,0-2.79-5.044-6.641-5.044H95.075c3.851,0,2.79,5.044,6.641,5.044Z" transform="translate(-84.301 -37.546)" fill="#f5ac25" fill-rule="evenodd"/>
        <path id="Trazado_1047875" data-name="Trazado 1047875" d="M42.407,157.856l10.171-.419L88.79,117.724V115.54a2.12,2.12,0,0,0-2.11-2.11H44.517a2.117,2.117,0,0,0-2.11,2.11v42.316Z" transform="translate(-38.113 -104.093)" fill="#4a80aa" fill-rule="evenodd"/>
        <path id="Trazado_1047876" data-name="Trazado 1047876" d="M49.794,188.458H96.171a3.108,3.108,0,0,0,3.1-3.1V151.422a3.108,3.108,0,0,0-3.1-3.1H49.794a3.105,3.105,0,0,0-3.094,3.1v32.742a4.307,4.307,0,0,1-4.294,4.294h7.387Z" transform="translate(-38.113 -134.694)" fill="#ffe17d" fill-rule="evenodd"/>
        <path id="Trazado_1047877" data-name="Trazado 1047877" d="M455.079,188.458h2.986a3.108,3.108,0,0,0,3.1-3.1V151.422a3.108,3.108,0,0,0-3.1-3.1h-2.986a3.108,3.108,0,0,1,3.1,3.1V185.36A3.108,3.108,0,0,1,455.079,188.458Z" transform="translate(-400.007 -134.694)" fill="#ffd164" fill-rule="evenodd"/>
        <path id="Trazado_1047878" data-name="Trazado 1047878" d="M380.058,117.724h2.986V115.54a2.12,2.12,0,0,0-2.11-2.11h-2.986a2.12,2.12,0,0,1,2.11,2.11Z" transform="translate(-332.367 -104.093)" fill="#407093" fill-rule="evenodd"/>
        <path id="Trazado_1047879" data-name="Trazado 1047879" d="M230.335,203.225v-2.508a2.4,2.4,0,0,0-2.386-2.389h-6.212a2.4,2.4,0,0,0-2.389,2.389v2.508Z" transform="translate(-193.282 -178.544)" fill="#365e7d" fill-rule="evenodd"/>
        <path id="Trazado_1047880" data-name="Trazado 1047880" d="M178.479,233.252h23.478a2.4,2.4,0,0,1,2.389,2.389V250.1a2.4,2.4,0,0,1-2.389,2.389H178.479a2.4,2.4,0,0,1-2.389-2.389V235.641A2.4,2.4,0,0,1,178.479,233.252Z" transform="translate(-155.347 -209.171)" fill="#4a80aa" fill-rule="evenodd"/>
        <path id="Trazado_1047881" data-name="Trazado 1047881" d="M362.045,233.252h2.986a2.4,2.4,0,0,1,2.389,2.389V250.1a2.4,2.4,0,0,1-2.389,2.389h-2.986a2.4,2.4,0,0,0,2.389-2.389V235.641A2.4,2.4,0,0,0,362.045,233.252Z" transform="translate(-318.421 -209.171)" fill="#407093" fill-rule="evenodd"/>
        <path id="Trazado_1047882" data-name="Trazado 1047882" d="M221.858,275.179a5.912,5.912,0,1,0-5.912-5.912A5.922,5.922,0,0,0,221.858,275.179Z" transform="translate(-190.299 -235.57)" fill="#c4deff" fill-rule="evenodd"/>
        <path id="Trazado_1047883" data-name="Trazado 1047883" d="M253.354,263.355a5.912,5.912,0,0,1,0,11.824,6.019,6.019,0,0,1-1.493-.188,5.914,5.914,0,0,0,0-11.444A5.861,5.861,0,0,1,253.354,263.355Z" transform="translate(-221.795 -235.57)" fill="#a5cdff" fill-rule="evenodd"/>
        <path id="Trazado_1047884" data-name="Trazado 1047884" d="M270.332,202.625v-1.908a2.4,2.4,0,0,0-2.386-2.389h-2.989a2.4,2.4,0,0,1,2.389,2.389v1.908Z" transform="translate(-233.279 -178.544)" fill="#2b4d66" fill-rule="evenodd"/>
      </g>
      <path id="Trazado_1047885" data-name="Trazado 1047885" d="M54.678,43.668V39.1A2.18,2.18,0,0,0,52.5,36.925H21.325c-2.466,0-3.3-1.5-4.126-3-.568-1.022-1.134-2.044-2.515-2.044H4.018a2.192,2.192,0,0,0-2.173,2.173V80.427a3.389,3.389,0,0,0,2.449,3.24V42.4a3.037,3.037,0,0,1,3.035-3.031H26.317a.923.923,0,1,1,0,1.845H7.328a1.184,1.184,0,0,0-.841.349,1.2,1.2,0,0,0-.349.837V83.668a3.389,3.389,0,0,0,2.449-3.24V47.686a4.031,4.031,0,0,1,4.018-4.018H50.677V42.4a1.191,1.191,0,0,0-1.186-1.186H30.5a.923.923,0,1,1,0-1.845H49.491A3.037,3.037,0,0,1,52.522,42.4v1.263ZM41.772,69.161a.923.923,0,1,1,0-1.845h4.775a.923.923,0,1,1,0,1.845Zm0-7.168a.923.923,0,1,1,0-1.845h4.775a.923.923,0,1,1,0,1.845Zm0,3.586a.923.923,0,1,1,0-1.845h4.775a.923.923,0,1,1,0,1.845ZM37.056,54.118V53.13a1.477,1.477,0,0,0-1.465-1.469H29.379a1.471,1.471,0,0,0-1.465,1.469v.987ZM38.9,53.13v.987h8.633a3.317,3.317,0,0,1,3.31,3.31V71.882a3.31,3.31,0,0,1-3.31,3.31H24.057a3.317,3.317,0,0,1-3.314-3.31V66.744a.923.923,0,0,1,1.845,0v5.138a1.477,1.477,0,0,0,.433,1.036,1.461,1.461,0,0,0,1.036.429H47.534A1.465,1.465,0,0,0,49,71.882V57.428a1.471,1.471,0,0,0-1.465-1.465H24.057a1.477,1.477,0,0,0-1.468,1.465v5.138a.923.923,0,0,1-1.845,0V57.428a3.323,3.323,0,0,1,3.314-3.31h2.009V53.13a3.323,3.323,0,0,1,3.314-3.314h6.212A3.323,3.323,0,0,1,38.9,53.13ZM37.168,66.392a.919.919,0,0,1,1.723.642,6.834,6.834,0,1,1,0-4.757.919.919,0,0,1-1.723.642,4.995,4.995,0,0,0-8.211-1.789,4.99,4.99,0,0,0,6.372,7.628A5.016,5.016,0,0,0,37.168,66.392ZM17.6,55.143a.923.923,0,0,1-1.845,0v-5.18a.92.92,0,0,1,.921-.921h5.18a.923.923,0,0,1,0,1.845H17.6ZM15.755,74.17a.923.923,0,1,1,1.845,0v4.252h4.255a.923.923,0,0,1,0,1.845h-5.18a.92.92,0,0,1-.921-.921Zm38.232,0a.924.924,0,1,1,1.849,0v5.176a.923.923,0,0,1-.924.921H49.735a.923.923,0,1,1,0-1.845h4.252V74.17Zm1.849-19.027a.924.924,0,0,1-1.849,0V50.888H49.735a.923.923,0,1,1,0-1.845h5.176a.923.923,0,0,1,.924.921v5.18ZM5.218,85.642A5.228,5.228,0,0,1,0,80.427V34.051a4.025,4.025,0,0,1,4.018-4.018H14.684c2.466,0,3.3,1.5,4.13,3,.565,1.022,1.13,2.044,2.511,2.044H52.5A4.025,4.025,0,0,1,56.523,39.1v4.569h2.459A4.025,4.025,0,0,1,63,47.686v14.88a.923.923,0,0,1-1.845,0V47.686a2.18,2.18,0,0,0-2.173-2.173H12.606a2.185,2.185,0,0,0-2.173,2.173V80.427A5.19,5.19,0,0,1,9.191,83.8H58.982a2.18,2.18,0,0,0,2.173-2.173V66.744a.923.923,0,0,1,1.845,0v14.88a4.025,4.025,0,0,1-4.018,4.018H5.218Z"/>
    </g>
  </g>
</svg>
