<svg xmlns="http://www.w3.org/2000/svg" xmlns:xlink="http://www.w3.org/1999/xlink" width="118" height="118" viewBox="0 0 118 118">
  <defs>
    <filter id="Trazado_982547" x="0" y="0" width="118" height="118" filterUnits="userSpaceOnUse">
      <feOffset dy="3" input="SourceAlpha"/>
      <feGaussianBlur stdDeviation="3" result="blur"/>
      <feFlood flood-opacity="0.161"/>
      <feComposite operator="in" in2="blur"/>
      <feComposite in="SourceGraphic"/>
    </filter>
  </defs>
  <g id="Grupo_1209472" data-name="Grupo 1209472" transform="translate(-1213 -5410.365)">
    <g id="Grupo_1209182" data-name="Grupo 1209182" transform="translate(419.51 4180.149)">
      <g id="Grupo_1208492" data-name="Grupo 1208492" transform="translate(802.49 1236.215)">
        <g id="Grupo_1177675" data-name="Grupo 1177675" transform="translate(0 0)">
          <g id="Grupo_1176928" data-name="Grupo 1176928" transform="translate(0)">
            <g id="Grupo_1172322" data-name="Grupo 1172322" transform="translate(0 0)">
              <g id="Grupo_1164700" data-name="Grupo 1164700">
                <g id="Grupo_1160931" data-name="Grupo 1160931">
                  <g id="Grupo_1160749" data-name="Grupo 1160749">
                    <g id="Grupo_1158891" data-name="Grupo 1158891">
                      <g id="Grupo_1157406" data-name="Grupo 1157406">
                        <g id="Grupo_1155793" data-name="Grupo 1155793">
                          <g id="Grupo_1154704" data-name="Grupo 1154704">
                            <g id="Grupo_1150790" data-name="Grupo 1150790">
                              <g id="Grupo_1154214" data-name="Grupo 1154214">
                                <g id="Grupo_1152583" data-name="Grupo 1152583">
                                  <g id="Grupo_1146973" data-name="Grupo 1146973">
                                    <g id="Grupo_1146954" data-name="Grupo 1146954">
                                      <g transform="matrix(1, 0, 0, 1, -9, -6)" filter="url(#Trazado_982547)">
                                        <g id="Trazado_982547-2" data-name="Trazado 982547" transform="translate(9 6)" fill="#fef9e7">
                                          <path d="M 49.99995803833008 98.49976348876953 C 43.45184326171875 98.49976348876953 37.10039901733398 97.2176513671875 31.1220588684082 94.68901824951172 C 25.34690093994141 92.246337890625 20.15995788574219 88.74910736083984 15.70531558990479 84.29447937011719 C 11.25068664550781 79.83985137939453 7.753458023071289 74.65290832519531 5.31077241897583 68.87776184082031 C 2.782143831253052 62.89942169189453 1.500015139579773 56.54797744750977 1.500015139579773 49.9998779296875 C 1.500015139579773 43.45177841186523 2.782143831253052 37.10033416748047 5.31077241897583 31.12199211120605 C 7.753458023071289 25.34684944152832 11.25068664550781 20.15992164611816 15.70531558990479 15.70529174804688 C 20.15995788574219 11.25066375732422 25.34688568115234 7.753435134887695 31.1220588684082 5.310749530792236 C 37.10039901733398 2.782120704650879 43.45184326171875 1.500006556510925 49.99995803833008 1.500006556510925 C 56.54807281494141 1.500006556510925 62.89951705932617 2.782120704650879 68.87786865234375 5.310749530792236 C 74.65303039550781 7.753435134887695 79.83997344970703 11.25066375732422 84.29460144042969 15.70529174804688 C 88.74924468994141 20.15992164611816 92.24647521972656 25.34684944152832 94.68915557861328 31.12199211120605 C 97.21778869628906 37.10033416748047 98.49991607666016 43.45177841186523 98.49991607666016 49.9998779296875 C 98.49991607666016 56.54797744750977 97.21778869628906 62.89942169189453 94.68915557861328 68.87776184082031 C 92.24647521972656 74.65290832519531 88.74924468994141 79.83985137939453 84.29460144042969 84.29447937011719 C 79.83997344970703 88.74910736083984 74.65303039550781 92.246337890625 68.87786865234375 94.68901824951172 C 62.89951705932617 97.2176513671875 56.54807281494141 98.49976348876953 49.99995803833008 98.49976348876953 Z" stroke="none"/>
                                          <path d="M 49.99995803833008 3 C 43.65368270874023 3 37.49883651733398 4.24224853515625 31.70637512207031 6.692245483398438 C 26.11001586914062 9.059310913085938 21.08334350585938 12.44858551025391 16.76597595214844 16.76595306396484 C 12.44860076904297 21.08330535888672 9.059326171875 26.10997009277344 6.692268371582031 31.70632171630859 C 4.242263793945312 37.49877166748047 3.000007629394531 43.65361785888672 3.000007629394531 49.9998779296875 C 3.000007629394531 56.34613800048828 4.242263793945312 62.50098419189453 6.692268371582031 68.29343414306641 C 9.059326171875 73.88978576660156 12.44860076904297 78.91644287109375 16.76597595214844 83.23380279541016 C 21.08334350585938 87.55117034912109 26.11001586914062 90.94044494628906 31.70637512207031 93.30751037597656 C 37.49883651733398 95.75750732421875 43.65368270874023 96.999755859375 49.99995803833008 96.999755859375 C 56.34623336791992 96.999755859375 62.50107955932617 95.75750732421875 68.29354095458984 93.30751037597656 C 73.889892578125 90.94044494628906 78.91657257080078 87.55117034912109 83.23394012451172 83.23380279541016 C 87.55131530761719 78.91644287109375 90.94058990478516 73.88978576660156 93.30764770507812 68.29343414306641 C 95.75765228271484 62.50098419189453 96.99990844726562 56.34613800048828 96.99990844726562 49.9998779296875 C 96.99990844726562 43.65361785888672 95.75765228271484 37.49877166748047 93.30764770507812 31.70632171630859 C 90.94058990478516 26.10997009277344 87.55131530761719 21.08330535888672 83.23394012451172 16.76595306396484 C 78.91657257080078 12.44858551025391 73.889892578125 9.059310913085938 68.29354095458984 6.692245483398438 C 62.50107955932617 4.24224853515625 56.34623336791992 3 49.99995803833008 3 M 49.99995803833008 0 C 77.61415863037109 0 99.99990844726562 22.38571166992188 99.99990844726562 49.9998779296875 C 99.99990844726562 77.61404418945312 77.61415863037109 99.999755859375 49.99995803833008 99.999755859375 C 22.38575744628906 99.999755859375 7.62939453125e-06 77.61404418945312 7.62939453125e-06 49.9998779296875 C 7.62939453125e-06 22.38571166992188 22.38575744628906 0 49.99995803833008 0 Z" stroke="none" fill="#f8ce24"/>
                                        </g>
                                      </g>
                                    </g>
                                  </g>
                                </g>
                              </g>
                            </g>
                          </g>
                        </g>
                      </g>
                    </g>
                  </g>
                </g>
              </g>
            </g>
          </g>
        </g>
      </g>
    </g>
    <g id="Layer_x0020_1" transform="translate(1240.081 5434.251)">
      <path id="Trazado_1047886" data-name="Trazado 1047886" d="M44.735,17.421h-8.09a1.091,1.091,0,1,1,0-2.182h8.09A1.091,1.091,0,1,1,44.735,17.421ZM58.054,57V24.683a.172.172,0,0,0-.188-.151H51.921v2.22h2.784a1.1,1.1,0,0,1,1.129,1.091V53.692a1.132,1.132,0,0,1-1.129,1.129H35.366V57ZM51.921,22.312h5.945a2.385,2.385,0,0,1,2.37,2.37V57h2.671a1.122,1.122,0,0,1,.9,1.768l-3.8,5a1.1,1.1,0,0,1-.865.452H4.7a1.1,1.1,0,0,1-.865-.452l-3.8-5A1.1,1.1,0,0,1,.9,57H3.609V24.683a2.377,2.377,0,0,1,2.333-2.37h5.945V11.852l-7.9.038a4.194,4.194,0,0,1-.527-8.353c.715-4.666,7.563-4.7,8.278,0a4.18,4.18,0,0,1,2.709,1.355H46.353A5.907,5.907,0,0,1,52.185,0a5.986,5.986,0,0,1,5.945,5.531,5.945,5.945,0,0,1-.038,11.89H51.921Zm-40.034,2.22H5.942a.162.162,0,0,0-.151.151V57H28.48V54.821H9.1a1.125,1.125,0,0,1-1.091-1.129V27.843A1.092,1.092,0,0,1,9.1,26.752h2.784Zm0,4.4H10.194V52.6H30.813V50.983A15.219,15.219,0,0,1,16.7,35.143H13.016a1.125,1.125,0,0,1-1.129-1.091ZM33.033,52.6H53.614V28.934H51.921v5.117a1.092,1.092,0,0,1-1.091,1.091H47.105A15.188,15.188,0,0,1,33.033,50.983ZM28.48,59.223H3.12l2.107,2.784H28.48Zm2.182,2.784h2.521V54.821H30.662Zm4.7,0H58.581l2.145-2.784H35.366ZM46.879,32.923h2.86V13.47H14.107V32.923h2.86a15.233,15.233,0,0,1,29.913,0Zm5.042-20.581v2.9h6.171a3.753,3.753,0,1,0-.865-7.412,1.1,1.1,0,0,1-1.355-1.242A3.733,3.733,0,0,0,48.61,4.891h2.22a1.092,1.092,0,0,1,1.091,1.091ZM11.887,9.595l.038-3.8c-.9-.263-1.392.3-2.032-.3-.489-.452-.3-.9-.3-1.317a1.976,1.976,0,0,0-3.951,0c0,.376.151.828-.3,1.279-.489.489-.941.263-1.355.263a1.976,1.976,0,0,0,0,3.951C5.077,9.67,11.323,9.783,11.887,9.595Zm2.22,1.656H49.739V7.074H14.107Zm3.687-.978c-.9,0-2.446.226-2.446-1.091,0-1.355,1.543-1.091,2.446-1.091A1.091,1.091,0,0,1,17.794,10.272Zm4.553,0c-.9,0-2.446.226-2.446-1.091,0-1.355,1.543-1.091,2.446-1.091A1.091,1.091,0,0,1,22.347,10.272ZM31.9,22.8A13.019,13.019,0,1,0,44.847,34.164,13.023,13.023,0,0,0,31.9,22.8ZM4.475,19.716a1.091,1.091,0,0,1-1.091-.865c-.564-2.6-2.032-2.521-2.3-2.483a1.108,1.108,0,0,1-.376-2.182,4.007,4.007,0,0,1,3.763,1.693c1.693-2.3,4.967-2.182,4.628-.414a1.087,1.087,0,0,1-1.279.9c-.226-.038-1.693-.113-2.3,2.483A1.051,1.051,0,0,1,4.475,19.716ZM34.124,45.6h-4.44a1.124,1.124,0,0,1-1.091-.9l-.414-2.408-2.3.828a1.13,1.13,0,0,1-1.355-.489l-2.22-3.838a1.1,1.1,0,0,1,.263-1.392l1.881-1.58-1.881-1.58a1.1,1.1,0,0,1-.263-1.392l2.22-3.875a1.114,1.114,0,0,1,1.355-.452l2.3.828.414-2.408A1.159,1.159,0,0,1,29.684,26h4.44a1.1,1.1,0,0,1,1.091.9l.452,2.446,2.3-.828a1.08,1.08,0,0,1,1.317.452l2.22,3.875a1.052,1.052,0,0,1-.226,1.392l-1.881,1.58,1.881,1.58a1.052,1.052,0,0,1,.226,1.392l-2.22,3.838a1.1,1.1,0,0,1-1.317.489l-2.3-.828L35.215,44.7A1.066,1.066,0,0,1,34.124,45.6Zm-3.5-2.182h2.6l.452-2.634a1.4,1.4,0,0,1,1.693-.978l2.483.941,1.317-2.258L37.1,36.761a1.362,1.362,0,0,1,0-1.919l2.069-1.693-1.317-2.258-2.483.9a1.368,1.368,0,0,1-1.693-.978l-.452-2.6h-2.6l-.452,2.6a1.384,1.384,0,0,1-1.693.978L26,30.891,24.68,33.148l2.032,1.693a1.329,1.329,0,0,1,0,1.919L24.68,38.491,26,40.749l2.483-.9a1.362,1.362,0,0,1,1.693.941ZM31.9,39.394a3.593,3.593,0,0,1,0-7.187,3.593,3.593,0,1,1,0,7.187Zm0-4.967a1.392,1.392,0,0,0,0,2.784A1.392,1.392,0,0,0,31.9,34.428ZM27.2,17.421H19.074a1.091,1.091,0,0,1,0-2.182H27.2A1.091,1.091,0,0,1,27.2,17.421Z" transform="translate(0)" fill-rule="evenodd"/>
      <path id="Trazado_1047887" data-name="Trazado 1047887" d="M822.521,1457H820v7.187h2.521Z" transform="translate(-789.338 -1402.179)" fill="#a05000" fill-rule="evenodd"/>
      <path id="Trazado_1047888" data-name="Trazado 1047888" d="M970.36,1574H945v2.784h23.215Z" transform="translate(-909.634 -1514.777)" fill="#58535a" fill-rule="evenodd"/>
      <path id="Trazado_1047889" data-name="Trazado 1047889" d="M113.36,1576.784V1574H88l2.107,2.784Z" transform="translate(-84.88 -1514.777)" fill="#58535a" fill-rule="evenodd"/>
      <path id="Trazado_1047890" data-name="Trazado 1047890" d="M159,684.471h22.688v-2.182H162.311a1.125,1.125,0,0,1-1.091-1.129V655.311a1.092,1.092,0,0,1,1.091-1.091H165.1V652h-5.945a.162.162,0,0,0-.151.151Z" transform="translate(-153.208 -627.468)" fill="#333" fill-rule="evenodd"/>
      <path id="Trazado_1047891" data-name="Trazado 1047891" d="M276,792.667h20.619v-1.618a15.219,15.219,0,0,1-14.11-15.841h-3.687a1.125,1.125,0,0,1-1.129-1.091V769H276Z" transform="translate(-265.806 -740.066)" fill="#d3ffff" fill-rule="evenodd"/>
      <path id="Trazado_1047892" data-name="Trazado 1047892" d="M945,682.289v2.182h22.688V652.151A.172.172,0,0,0,967.5,652h-5.945v2.22h2.784a1.1,1.1,0,0,1,1.129,1.091V681.16a1.132,1.132,0,0,1-1.129,1.129Z" transform="translate(-909.634 -627.468)" fill="#333" fill-rule="evenodd"/>
      <path id="Trazado_1047893" data-name="Trazado 1047893" d="M883,792.667h20.581V769h-1.693v5.117a1.092,1.092,0,0,1-1.091,1.091h-3.725A15.188,15.188,0,0,1,883,791.049Z" transform="translate(-849.967 -740.066)" fill="#d3ffff" fill-rule="evenodd"/>
      <path id="Trazado_1047894" data-name="Trazado 1047894" d="M520.056,632.037A13.019,13.019,0,1,0,507,619.019,13.04,13.04,0,0,0,520.056,632.037Zm2.182-3.236H517.8a1.124,1.124,0,0,1-1.091-.9l-.414-2.408-2.3.828a1.13,1.13,0,0,1-1.354-.489l-2.22-3.838a1.1,1.1,0,0,1,.263-1.392l1.881-1.58-1.881-1.58a1.1,1.1,0,0,1-.263-1.392l2.22-3.875a1.114,1.114,0,0,1,1.354-.451l2.3.828.414-2.408a1.159,1.159,0,0,1,1.091-.941h4.44a1.1,1.1,0,0,1,1.091.9l.452,2.446,2.3-.828a1.08,1.08,0,0,1,1.317.451l2.22,3.875a1.052,1.052,0,0,1-.226,1.392l-1.881,1.58,1.881,1.58a1.052,1.052,0,0,1,.226,1.392l-2.22,3.838a1.1,1.1,0,0,1-1.317.489l-2.3-.828-.452,2.408A1.066,1.066,0,0,1,522.239,628.8Z" transform="translate(-488.114 -583.199)" fill="#d3ffff" fill-rule="evenodd"/>
      <path id="Trazado_1047895" data-name="Trazado 1047895" d="M671.686,761.589l2.483.941,1.317-2.258-2.069-1.731a1.362,1.362,0,0,1,0-1.919l2.069-1.693-1.317-2.258-2.483.9a1.368,1.368,0,0,1-1.693-.978l-.452-2.6h-2.6l-.452,2.6a1.384,1.384,0,0,1-1.693.978l-2.483-.9L661,754.929l2.032,1.693a1.329,1.329,0,0,1,0,1.919L661,760.272l1.317,2.258,2.483-.9a1.362,1.362,0,0,1,1.693.941l.452,2.634h2.6l.452-2.634A1.4,1.4,0,0,1,671.686,761.589Zm.151-3.988a3.593,3.593,0,1,1-3.612-3.612A3.581,3.581,0,0,1,671.836,757.6Z" transform="translate(-636.32 -721.781)" fill="#333" fill-rule="evenodd"/>
      <path id="Trazado_1047896" data-name="Trazado 1047896" d="M817.633,917.784a1.392,1.392,0,0,0,0-2.784A1.392,1.392,0,0,0,817.633,917.784Z" transform="translate(-785.729 -880.572)" fill="#d3ffff" fill-rule="evenodd"/>
      <path id="Trazado_1047897" data-name="Trazado 1047897" d="M397.8,365.111a15.3,15.3,0,0,1,14.975,12.341h2.86V358H380v19.453h2.86A15.258,15.258,0,0,1,397.8,365.111Zm12.83-3.161h-8.09a1.091,1.091,0,1,1,0-2.182h8.09A1.091,1.091,0,1,1,410.628,361.951Zm-17.534,0h-8.127a1.091,1.091,0,0,1,0-2.182h8.127A1.091,1.091,0,0,1,393.094,361.951Z" transform="translate(-365.893 -344.53)" fill="#dedede" fill-rule="evenodd"/>
      <path id="Trazado_1047898" data-name="Trazado 1047898" d="M380,192.176h35.632V188H380Zm8.24-3.161a1.091,1.091,0,0,1,0,2.182c-.9,0-2.446.226-2.446-1.091C385.794,188.753,387.337,189.016,388.24,189.016Zm-4.553,0a1.091,1.091,0,0,1,0,2.182c-.9,0-2.446.226-2.446-1.091C381.242,188.753,382.784,189.016,383.687,189.016Z" transform="translate(-365.893 -180.926)" fill="#373435" fill-rule="evenodd"/>
      <g id="Grupo_1209471" data-name="Grupo 1209471" transform="translate(2.039 2.182)">
        <path id="Trazado_1047899" data-name="Trazado 1047899" d="M1300.311,61.8v9.256h6.171a3.753,3.753,0,1,0-.865-7.412,1.1,1.1,0,0,1-1.355-1.242A3.733,3.733,0,0,0,1297,60.709h2.22A1.092,1.092,0,0,1,1300.311,61.8Z" transform="translate(-1250.428 -58)" fill="#1aa1ff" fill-rule="evenodd"/>
        <path id="Trazado_1047900" data-name="Trazado 1047900" d="M69.1,66.615l.038-3.8c-.9-.263-1.392.3-2.032-.3-.489-.452-.3-.9-.3-1.317a1.976,1.976,0,0,0-3.951,0c0,.376.151.828-.3,1.279-.489.489-.941.263-1.355.263a1.976,1.976,0,0,0,0,3.951C62.288,66.691,68.534,66.8,69.1,66.615Z" transform="translate(-59.25 -59.203)" fill="#1aa1ff" fill-rule="evenodd"/>
      </g>
    </g>
  </g>
</svg>
