<svg xmlns="http://www.w3.org/2000/svg" xmlns:xlink="http://www.w3.org/1999/xlink" width="505" height="486.187" viewBox="0 0 505 486.187">
  <defs>
    <clipPath id="clip-path">
      <rect id="Rectángulo_418700" data-name="Rectángulo 418700" width="505" height="486.187" transform="translate(915 6076.783)" fill="#193141" stroke="#707070" stroke-width="1" opacity="0.49"/>
    </clipPath>
    <filter id="Rectángulo_418682" x="29" y="156.992" width="447" height="176.474" filterUnits="userSpaceOnUse">
      <feOffset dy="3" input="SourceAlpha"/>
      <feGaussianBlur stdDeviation="3" result="blur"/>
      <feFlood flood-opacity="0.161"/>
      <feComposite operator="in" in2="blur"/>
      <feComposite in="SourceGraphic"/>
    </filter>
    <clipPath id="clip-path-2">
      <rect id="Rectángulo_418966" data-name="Rectángulo 418966" width="457.953" height="425.753" fill="#4286f5"/>
    </clipPath>
    <clipPath id="clip-path-3">
      <path id="Trazado_1047939" data-name="Trazado 1047939" d="M837.424,552.8a15.28,15.28,0,0,0-15.21,15.21v305.5a15.239,15.239,0,0,0,15.21,15.183h208.9a15.216,15.216,0,0,0,15.183-15.183V568.01a15.239,15.239,0,0,0-15.183-15.21Z" transform="translate(-822.214 -552.8)" fill="none"/>
    </clipPath>
    <linearGradient id="linear-gradient" x1="-0.459" y1="1.048" x2="-0.458" y2="1.048" gradientUnits="objectBoundingBox">
      <stop offset="0" stop-color="#fcbe05"/>
      <stop offset="1" stop-color="#fca209"/>
    </linearGradient>
    <clipPath id="clip-path-4">
      <rect id="Rectángulo_418968" data-name="Rectángulo 418968" width="457.953" height="425.753" fill="none"/>
    </clipPath>
    <clipPath id="clip-path-5">
      <path id="Trazado_1047941" data-name="Trazado 1047941" d="M927.058,664.3a2.861,2.861,0,0,0-2.844,2.831V967.615a2.873,2.873,0,0,0,2.844,2.844h206.394a2.855,2.855,0,0,0,2.844-2.844V667.144a2.855,2.855,0,0,0-2.844-2.844Z" transform="translate(-924.214 -664.3)" fill="none"/>
    </clipPath>
    <linearGradient id="linear-gradient-2" x1="-0.396" y1="1.05" x2="-0.396" y2="1.05" gradientUnits="objectBoundingBox">
      <stop offset="0" stop-color="#e8e5e5"/>
      <stop offset="1" stop-color="#fff"/>
    </linearGradient>
  </defs>
  <g id="Enmascarar_grupo_1098797" data-name="Enmascarar grupo 1098797" transform="translate(-915 -6076.783)" clip-path="url(#clip-path)">
    <g transform="matrix(1, 0, 0, 1, 915, 6076.78)" filter="url(#Rectángulo_418682)">
      <rect id="Rectángulo_418682-2" data-name="Rectángulo 418682" width="429" height="158.474" rx="8" transform="translate(38 162.99)" fill="#65b3d1"/>
    </g>
    <g id="Grupo_1209473" data-name="Grupo 1209473" transform="translate(938.523 6106.136)">
      <path id="Trazado_1047907" data-name="Trazado 1047907" d="M456.728,471.382V360.4H471.2V471.382h4.514V355.9h-23.5V471.382Z" transform="translate(-391.827 -308.374)" fill="#4286f5"/>
      <path id="Trazado_1047908" data-name="Trazado 1047908" d="M465.87,497.2h-.828v-2.35l-.628-.561,17.48-19.283H465.042v-2.55H481.48l-17.066-18.815.895-.8h-.267v-2.257l-.628-.561,17.56-19.349H465.042V428.1h17.039l-17.667-19.456.628-.561v-1.229l-.628-.588L483.082,385.7l1.9,1.736-16.772,18.481H484.03v2.577H467.739l17.24,18.989-.948.868v1.963l.948.855-17.333,19.109H484.03v2.564H467.152L484.979,472.5l-.948.868v1.2l.948.868-17.413,19.189H484.03V497.2H465.87Z" transform="translate(-402.398 -334.195)" fill="#4286f5"/>
      <rect id="Rectángulo_418953" data-name="Rectángulo 418953" width="2.257" height="110.795" transform="translate(60.387 52.213)" fill="#4286f5"/>
      <rect id="Rectángulo_418954" data-name="Rectángulo 418954" width="2.243" height="110.795" transform="translate(81.673 52.213)" fill="#4286f5"/>
      <path id="Trazado_1047909" data-name="Trazado 1047909" d="M647.7,471.382V360.4H633.2V471.382h-4.487V355.9H652.2V471.382Z" transform="translate(-544.758 -308.374)" fill="#4286f5"/>
      <path id="Trazado_1047910" data-name="Trazado 1047910" d="M657.423,497.2h.841v-2.35l.628-.561-17.48-19.283h16.852v-2.55H641.839l17.053-18.815-.881-.8h.254v-2.257l.628-.561-17.56-19.349h16.932V428.1H641.239l17.654-19.456-.628-.561v-1.229l.628-.588L640.224,385.7l-1.91,1.736,16.8,18.481H639.276v2.577h16.278l-17.24,18.989.961.868v1.963l-.961.855,17.333,19.109H639.276v2.564h16.879L638.314,472.5l.961.868v1.2l-.961.868,17.413,19.189H639.276V497.2h18.148Z" transform="translate(-553.076 -334.195)" fill="#4286f5"/>
      <rect id="Rectángulo_418955" data-name="Rectángulo 418955" width="2.257" height="110.795" transform="translate(105.188 52.213)" fill="#4286f5"/>
      <path id="Trazado_1047911" data-name="Trazado 1047911" d="M779.128,471.382V360.4h14.5V471.382h4.487V355.9h-23.5V471.382Z" transform="translate(-671.175 -308.374)" fill="#4286f5"/>
      <path id="Trazado_1047912" data-name="Trazado 1047912" d="M788.3,497.2h-.855v-2.35l-.628-.561,17.48-19.283H787.442v-2.55H803.88l-17.066-18.815.895-.8h-.267v-2.257l-.628-.561,17.56-19.349H787.442V428.1h17.039l-17.667-19.456.628-.561v-1.229l-.628-.588L805.482,385.7l1.923,1.736-16.8,18.481h15.824v2.577H790.166l17.24,18.989-.975.868v1.963l.975.855-17.346,19.109h16.372v2.564H789.565l17.84,19.656-.975.868v1.2l.975.868-17.426,19.189h16.452V497.2H788.3Z" transform="translate(-681.746 -334.195)" fill="#4286f5"/>
      <rect id="Rectángulo_418956" data-name="Rectángulo 418956" width="2.257" height="110.795" transform="translate(124.725 52.213)" fill="#4286f5"/>
      <path id="Trazado_1047913" data-name="Trazado 1047913" d="M940.2,471.382V360.4H925.7V471.382h-4.487V355.9h23.5V471.382Z" transform="translate(-798.198 -308.374)" fill="#4286f5"/>
      <path id="Trazado_1047914" data-name="Trazado 1047914" d="M950.023,497.2h.841v-2.35l.628-.561-17.48-19.283h16.852v-2.55H934.439l17.053-18.815-.895-.8h.267v-2.257l.628-.561-17.56-19.349h16.932V428.1H933.825l17.667-19.456-.628-.561v-1.229l.628-.588L932.824,385.7l-1.91,1.736L947.7,405.917H931.875v2.577h16.292l-17.253,18.989.961.868v1.963l-.961.855,17.333,19.109H931.875v2.564h16.879L930.914,472.5l.961.868v1.2l-.961.868,17.413,19.189H931.875V497.2h18.148Z" transform="translate(-806.603 -334.195)" fill="#4286f5"/>
      <rect id="Rectángulo_418957" data-name="Rectángulo 418957" width="2.257" height="110.795" transform="translate(144.261 52.213)" fill="#4286f5"/>
      <path id="Trazado_1047915" data-name="Trazado 1047915" d="M2873.2,1189.16h-14.675v-1.99h12.339l-12.846-14.141,1.148-1.015h-.641V1170.2l-.508-.441,13.528-14.9h-13.02v-2h12.7l-13.207-14.529.708-.628h-.2v-1.749l-.508-.454,13.594-14.956h-13.086v-1.976h13.167l-13.674-15.063.508-.441V1101.4H2873.2v2H2860.6l13.34,14.676-.748.668v1.522l.748.668-13.42,14.769H2873.2v1.99h-13.073l13.821,15.2-.748.668v.948l.748.668-13.474,14.836H2873.2v2h-13.434l14.181,15.6-.748.668Z" transform="translate(-2476.365 -954.323)" fill="#d3e9f5"/>
      <path id="Trazado_1047916" data-name="Trazado 1047916" d="M2873.2,540.86h-14.675v-1.99h12.339l-12.846-14.141,1.148-1.028h-.641v-1.8l-.508-.441,13.528-14.9h-13.02v-1.976h12.7l-13.207-14.542.708-.628h-.2v-1.749l-.508-.441,13.594-14.969h-13.086v-1.99h13.167l-13.674-15.036.508-.454V453.1H2873.2v2H2860.6l13.34,14.676-.748.681v1.509l.748.668-13.42,14.782H2873.2v1.99h-13.073l13.821,15.183-.748.694v.921l.748.681-13.474,14.822H2873.2v1.99h-13.434l14.181,15.61-.748.668Z" transform="translate(-2476.365 -392.595)" fill="#4286f5"/>
      <path id="Trazado_1047917" data-name="Trazado 1047917" d="M2986.473,48.979l.694-.654L2948.7,9.8l-.681.681Z" transform="translate(-2554.347 -8.491)" fill="#4286f5"/>
      <path id="Trazado_1047918" data-name="Trazado 1047918" d="M2271.49,57.667l78.987-43.426-.468-.841-80.5,44.267Z" transform="translate(-1966.451 -11.61)" fill="#4286f5"/>
      <path id="Trazado_1047919" data-name="Trazado 1047919" d="M2603.316,57.667,2638.463,14l-.748-.6-35.6,44.267Z" transform="translate(-2254.637 -11.61)" fill="#4286f5"/>
      <path id="Trazado_1047920" data-name="Trazado 1047920" d="M2218.614,380.462l100.259-.614V379.1l-100.259.628Z" transform="translate(-1922.348 -328.476)" fill="#4286f5"/>
      <path id="Trazado_1047921" data-name="Trazado 1047921" d="M1916.337,343.621l8.68-10.469,6.864,8.56-.4.494,1.736,1.415.107-.12.094.12,1.749-1.389-.4-.481,7.131-8.6,6.891,8.56-.427.494,1.709,1.415.147-.147.094.147,1.749-1.389-.4-.507,7.117-8.573,6.877,8.533-.414.521,1.709,1.415.134-.16.134.16,1.749-1.415-.427-.494,7.1-8.586,6.917,8.56-.454.521,1.723,1.415.16-.16.134.16,1.736-1.415-.427-.494,7.091-8.586,6.9,8.546-.44.534,1.709,1.415.16-.187.174.187,1.723-1.415-.44-.521,7.091-8.56,6.9,8.52-.441.561,1.709,1.415.187-.2.16.2,1.723-1.415-.441-.534,7.077-8.546,8.533,10.5,1.736-1.415-10.256-12.579-8.52,10.269-8.359-10.269-8.533,10.282-8.333-10.282L1984,339.936l-8.333-10.336-8.56,10.336-8.319-10.336-8.56,10.349-8.319-10.349-8.546,10.349-8.306-10.349-10.443,12.606Z" transform="translate(-1658.943 -285.586)" fill="#4286f5"/>
      <g id="Grupo_1209474" data-name="Grupo 1209474">
        <g id="Grupo_1209473-2" data-name="Grupo 1209473" clip-path="url(#clip-path-2)">
          <path id="Trazado_1047922" data-name="Trazado 1047922" d="M2028.782,341.8h-122.72l6.824-8.4h115.9V330h-116.7a1.693,1.693,0,0,0-1.309.628l-9.6,11.8a1.693,1.693,0,0,0,1.309,2.778h126.3Z" transform="translate(-1646.959 -285.933)" fill="#4286f5"/>
          <path id="Trazado_1047923" data-name="Trazado 1047923" d="M3056.353,300.7h1.122v4.727h-1.122Zm-47.539,0h1.122v4.727h-1.122Zm3.966,0h1.122v4.727h-1.122Zm3.966,0h1.122v4.727h-1.122Zm3.966,0h1.108v4.727h-1.108Zm3.953,0h1.122v4.727h-1.122Zm3.966,0h1.122v4.727h-1.122Zm3.966,0h1.108v4.727H3032.6Zm3.966,0h1.108v4.727h-1.108Zm3.939,0h1.122v4.727H3040.5Zm3.979,0h1.122v4.727h-1.122Zm3.966,0h1.109v4.727h-1.109Zm3.939,0h1.122v4.727h-1.122Z" transform="translate(-2607.028 -260.546)" fill="#4286f5"/>
          <path id="Trazado_1047924" data-name="Trazado 1047924" d="M2977.714,301.619h1.736v-6.6h54.3v6.6h1.722V293.3h-57.754Z" transform="translate(-2580.081 -254.134)" fill="#4286f5"/>
          <path id="Trazado_1047925" data-name="Trazado 1047925" d="M3019.086,344.473h-9.174l-1.642-3.151h-49.555V336.1h60.372Z" transform="translate(-2563.618 -291.218)" fill="#4286f5"/>
          <path id="Trazado_1047926" data-name="Trazado 1047926" d="M2869.114,6.216a1.622,1.622,0,1,1,1.629,1.629,1.624,1.624,0,0,1-1.629-1.629" transform="translate(-2485.983 -3.986)" fill="#4286f5"/>
          <path id="Trazado_1047927" data-name="Trazado 1047927" d="M2934.914,6.216a1.623,1.623,0,1,1,1.616,1.629,1.621,1.621,0,0,1-1.616-1.629" transform="translate(-2542.996 -3.986)" fill="#4286f5"/>
          <path id="Trazado_1047928" data-name="Trazado 1047928" d="M2852.1,510.133V316.385h11.217V510.133h3.485V312.9h-18.188V510.133Z" transform="translate(-2468.22 -271.116)" fill="#4286f5"/>
          <path id="Trazado_1047929" data-name="Trazado 1047929" d="M2873.776,97.937l1.095-1.669-11.951-7.785,9.989-6.757-8.212-6.3,6.37-4.38L2865.3,64.7l-1.469,1.322,4.233,4.674-6.744,4.647,8.186,6.29-10.189,6.89Z" transform="translate(-2477.492 -56.06)" fill="#4286f5"/>
          <path id="Trazado_1047930" data-name="Trazado 1047930" d="M2859.417,60.459H2848.76l5.435-35.587Zm-14.7,3.485h18.722L2857.213,21.4H2851.2Z" transform="translate(-2464.841 -18.542)" fill="#4286f5"/>
          <rect id="Rectángulo_418958" data-name="Rectángulo 418958" width="9.762" height="4.327" transform="translate(384.266 0)" fill="#4286f5"/>
          <path id="Trazado_1047931" data-name="Trazado 1047931" d="M2824.6,680.1h21.633v-3.3H2824.6Zm-.842,2.2h-.36v-5.5h-.387v-1.2h25.025v1.2h-.628v5.5Z" transform="translate(-2446.039 -585.383)" fill="#4286f5"/>
          <rect id="Rectángulo_418959" data-name="Rectángulo 418959" width="26.427" height="2.19" transform="translate(376.508 145.875)" fill="#4286f5"/>
          <rect id="Rectángulo_418960" data-name="Rectángulo 418960" width="1.215" height="5.916" transform="translate(401.719 142.149)" fill="#4286f5"/>
          <rect id="Rectángulo_418961" data-name="Rectángulo 418961" width="1.215" height="5.916" transform="translate(398.074 142.149)" fill="#4286f5"/>
          <rect id="Rectángulo_418962" data-name="Rectángulo 418962" width="1.188" height="5.916" transform="translate(379.94 142.149)" fill="#4286f5"/>
          <rect id="Rectángulo_418963" data-name="Rectángulo 418963" width="1.202" height="5.916" transform="translate(376.174 142.149)" fill="#4286f5"/>
          <path id="Trazado_1047932" data-name="Trazado 1047932" d="M2845.214,1064.822h0v-1.362h.574v-.16h-.574Z" transform="translate(-2465.274 -921.311)" fill="#4286f5"/>
          <rect id="Rectángulo_418964" data-name="Rectángulo 418964" width="0.614" height="0.16" transform="translate(380.514 141.989)" fill="#4286f5"/>
          <path id="Trazado_1047933" data-name="Trazado 1047933" d="M2817.014,1064.822v-1.362h1.2v-.16h-1.2Z" transform="translate(-2440.841 -921.311)" fill="#4286f5"/>
          <rect id="Rectángulo_418965" data-name="Rectángulo 418965" width="27.776" height="1.215" transform="translate(375.787 141.362)" fill="#4286f5"/>
          <path id="Trazado_1047934" data-name="Trazado 1047934" d="M2016.083,454.8h2.817a1.071,1.071,0,0,1,1.068,1.068v.481a1.071,1.071,0,0,1-1.068,1.068h-2.817a1.071,1.071,0,0,1-1.068-1.068v-.481a1.071,1.071,0,0,1,1.068-1.068" transform="translate(-1745.937 -394.068)" fill="#4286f5"/>
          <path id="Trazado_1047935" data-name="Trazado 1047935" d="M2000.182,442.6h7.051a1.071,1.071,0,0,1,1.068,1.068v.481a1.071,1.071,0,0,1-1.068,1.068h-7.051a1.071,1.071,0,0,1-1.068-1.068v-.481a1.089,1.089,0,0,1,1.068-1.068" transform="translate(-1732.16 -383.497)" fill="#4286f5"/>
          <path id="Trazado_1047936" data-name="Trazado 1047936" d="M68.529,3091H498.917a5.916,5.916,0,0,1,0,11.831H68.529a5.916,5.916,0,1,1,0-11.831" transform="translate(-54.252 -2678.239)" fill="#4286f5"/>
          <path id="Trazado_1047938" data-name="Trazado 1047938" d="M837.424,592h208.9a15.217,15.217,0,0,1,15.183,15.183v305.5a15.239,15.239,0,0,1-15.183,15.21h-208.9a15.262,15.262,0,0,1-15.21-15.21v-305.5A15.257,15.257,0,0,1,837.424,592" transform="translate(-712.419 -512.947)" fill="#4286f5"/>
        </g>
      </g>
      <g id="Grupo_1209476" data-name="Grupo 1209476" transform="translate(109.795 73.819)">
        <g id="Grupo_1209475" data-name="Grupo 1209475" clip-path="url(#clip-path-3)">
          <rect id="Rectángulo_418967" data-name="Rectángulo 418967" width="239.3" height="335.899" transform="translate(-0.001 -0.001)" fill="url(#linear-gradient)"/>
        </g>
      </g>
      <g id="Grupo_1209478" data-name="Grupo 1209478">
        <g id="Grupo_1209477" data-name="Grupo 1209477" clip-path="url(#clip-path-4)">
          <path id="Trazado_1047940" data-name="Trazado 1047940" d="M961.633,697.3h205.219a3.425,3.425,0,0,1,3.419,3.419v299.308a3.434,3.434,0,0,1-3.419,3.418H961.633a3.442,3.442,0,0,1-3.418-3.418V700.719a3.425,3.425,0,0,1,3.418-3.419" transform="translate(-830.258 -604.185)" fill="#fc7411"/>
        </g>
      </g>
      <g id="Grupo_1209480" data-name="Grupo 1209480" transform="translate(123.416 88.708)">
        <g id="Grupo_1209479" data-name="Grupo 1209479" clip-path="url(#clip-path-5)">
          <rect id="Rectángulo_418969" data-name="Rectángulo 418969" width="255.984" height="334.735" transform="matrix(0.988, -0.151, 0.151, 0.988, -45.812, 7.016)" fill="url(#linear-gradient-2)"/>
        </g>
      </g>
      <g id="Grupo_1209482" data-name="Grupo 1209482">
        <g id="Grupo_1209481" data-name="Grupo 1209481" clip-path="url(#clip-path-4)">
          <path id="Trazado_1047942" data-name="Trazado 1047942" d="M1391.314,552.8h92.367v26.24l-89.256.641Z" transform="translate(-1205.523 -478.981)" fill="#cc7639"/>
          <path id="Trazado_1047943" data-name="Trazado 1047943" d="M1404.214,664.3h90.645V675.65l-89.256.641Z" transform="translate(-1216.7 -575.592)" fill="#ccc"/>
          <path id="Trazado_1047944" data-name="Trazado 1047944" d="M1396.041,393.878H1419.7a16.465,16.465,0,1,1,32.93,0H1476.3a4.759,4.759,0,0,1,4.754,4.727v25.011h-89.736V398.606a4.753,4.753,0,0,1,4.727-4.727" transform="translate(-1205.523 -327.003)" fill="#4286f5"/>
          <path id="Trazado_1047945" data-name="Trazado 1047945" d="M1678.966,445a7.438,7.438,0,1,1-7.451,7.451,7.432,7.432,0,0,1,7.451-7.451" transform="translate(-1448.306 -385.576)" fill="#0b355d"/>
          <rect id="Rectángulo_418970" data-name="Rectángulo 418970" width="89.723" height="4.407" transform="translate(185.791 83.126)" fill="#00529c"/>
          <rect id="Rectángulo_418971" data-name="Rectángulo 418971" width="89.723" height="2.19" transform="translate(185.791 85.343)" fill="#96beff"/>
          <path id="Trazado_1047946" data-name="Trazado 1047946" d="M1911.714,1021.971h42.572v-2.3a4.679,4.679,0,0,0-4.674-4.674h-33.224a4.679,4.679,0,0,0-4.674,4.674Z" transform="translate(-1656.431 -879.461)" fill="#78a7e8"/>
          <path id="Trazado_1047947" data-name="Trazado 1047947" d="M1224.214,1021.971h87.079v-2.3a4.679,4.679,0,0,0-4.674-4.674h-77.732a4.679,4.679,0,0,0-4.674,4.674Z" transform="translate(-1060.737 -879.461)" fill="#78a7e8"/>
          <path id="Trazado_1047948" data-name="Trazado 1047948" d="M1540.314,1307.946h38.953V1304.3h-38.953Zm0,32.2h48.126V1336.5h-48.126Zm0-6.45h47.245v-3.646h-47.245Zm0-6.437h48.126v-3.646h-48.126Zm0-6.45H1584.5v-3.619h-44.187Zm0-6.423h48.126v-3.646h-48.126Z" transform="translate(-1334.626 -1130.129)" fill="#bcd0f0"/>
          <path id="Trazado_1047949" data-name="Trazado 1047949" d="M941.314,1186.2h207.542v1.122H941.314Zm0,210.921h207.542v1.122H941.314Zm0-70.307h207.542v1.122H941.314Zm0-70.32h207.542v1.122H941.314Z" transform="translate(-815.614 -1027.799)" fill="#bcd0f0"/>
          <path id="Trazado_1047950" data-name="Trazado 1047950" d="M1454.136,1398.256h-1.122V1186.2h1.122Zm69.759,0h-1.122V1186.2h1.122Z" transform="translate(-1258.984 -1027.799)" fill="#bcd0f0"/>
          <path id="Trazado_1047951" data-name="Trazado 1047951" d="M2062.614,1307.946h38.926V1304.3h-38.926Zm0,32.2h15.9V1336.5h-15.9Zm0-6.45h47.245v-3.646h-47.245Zm0-6.437h48.113v-3.646h-48.113Zm0-6.45H2106.8v-3.619h-44.187Zm0-6.423h48.113v-3.646h-48.113Z" transform="translate(-1787.18 -1130.129)" fill="#bcd0f0"/>
          <path id="Trazado_1047952" data-name="Trazado 1047952" d="M2062.614,1787.446h38.926V1783.8h-38.926Zm0,38.245h38.926v-3.646h-38.926Zm0,12.886H2106.8v-3.646h-44.187Zm0-6.45h48.113v-3.646h-48.113Zm0-12.472h48.113v-3.646h-48.113Zm0-6.45h47.245v-3.646h-47.245Zm0-6.45h48.113v-3.646h-48.113Zm0-6.436H2106.8V1796.7h-44.187Zm0-6.423h48.113v-3.646h-48.113Z" transform="translate(-1787.18 -1545.598)" fill="#bcd0f0"/>
          <path id="Trazado_1047953" data-name="Trazado 1047953" d="M1540.314,1787.446h38.953V1783.8h-38.953Zm0,32.209h15.9v-3.646h-15.9Zm0-6.45h47.245v-3.646h-47.245Zm0-6.45h48.126v-3.646h-48.126Zm0-6.436H1584.5v-3.646h-44.187Zm0-6.423h48.126v-3.646h-48.126Z" transform="translate(-1334.626 -1545.598)" fill="#bcd0f0"/>
          <path id="Trazado_1047954" data-name="Trazado 1047954" d="M2062.614,2317.546h38.926V2313.9h-38.926Zm0,32.2h15.9V2346.1h-15.9Zm0-6.436h47.245v-3.646h-47.245Zm0-6.45h48.113v-3.619h-48.113Zm0-6.423H2106.8v-3.645h-44.187Zm0-6.45h48.113v-3.646h-48.113Z" transform="translate(-1787.18 -2004.91)" fill="#bcd0f0"/>
          <path id="Trazado_1047955" data-name="Trazado 1047955" d="M1540.314,2303.246h38.953V2299.6h-38.953Zm0,38.231h38.953v-3.646h-38.953Zm0,12.9H1584.5v-3.646h-44.187Zm0-6.45h48.126v-3.646h-48.126Zm0-12.486h48.126V2331.8h-48.126Zm0-6.45h47.245v-3.645h-47.245Zm0-6.436h48.126v-3.646h-48.126Zm0-6.45H1584.5v-3.619h-44.187Zm0-6.423h48.126v-3.645h-48.126Z" transform="translate(-1334.626 -1992.52)" fill="#bcd0f0"/>
          <path id="Trazado_1047956" data-name="Trazado 1047956" d="M1089.2,1383.239l1.028-2.057s.561-.761,1.869,0l6.864,4.994,8.92-11.19c2.057-2.6,4.126-.881,2.457,1.976l-9.388,15.971s-.828,1.162-1.776.561l-9.6-7.692a1.692,1.692,0,0,1-.374-2.564" transform="translate(-943.39 -1190.266)" fill="#96cf9a"/>
          <path id="Trazado_1047957" data-name="Trazado 1047957" d="M1089.2,1890.84l1.028-2.03s.561-.761,1.869,0l6.864,4.994,8.92-11.217c2.057-2.577,4.126-.868,2.457,1.99l-9.388,15.971s-.828,1.148-1.776.548l-9.6-7.692a1.69,1.69,0,0,1-.374-2.564" transform="translate(-943.39 -1630.097)" fill="#96cf9a"/>
          <path id="Trazado_1047958" data-name="Trazado 1047958" d="M1089.2,2398.437l1.028-2.03s.561-.788,1.869,0l6.864,4.994,8.92-11.217c2.057-2.577,4.126-.868,2.457,1.976l-9.388,15.984s-.828,1.148-1.776.547l-9.6-7.692a1.689,1.689,0,0,1-.374-2.564" transform="translate(-943.39 -2069.91)" fill="#96cf9a"/>
          <path id="Trazado_1047959" data-name="Trazado 1047959" d="M750.245,1165.066s-9.267,13.033-13.674,16.358c-4.407,3.3-13.687,10.736-16.024,15.41-2.31,4.594,5.582,14.235,12,8.4,7.331-6.664,19.176-25.412,25.772-34.773,0-.027-1.122-5.6-8.079-5.395" transform="translate(-623.971 -1009.482)" fill="#f0874c"/>
          <path id="Trazado_1047960" data-name="Trazado 1047960" d="M534.753,1152.148c4.433,10.99,7.184,10.069,7.718,18.308,0,.16,6.663,8.987,3.125,13.821-1.816,2.47-8.6,10.71-15.5,2.07-5.662-7.064-18.468-28.577-21.713-39.166-1.776-5.8-3.378-16.051,3.739-17.52,6.276-1.3,20.137,16.332,22.634,22.488" transform="translate(-439.179 -978.751)" fill="#6291de"/>
          <path id="Trazado_1047961" data-name="Trazado 1047961" d="M407.708,1808.955s-1.789,50.891-1.536,62.869-1.576,18.041-2.737,25.572-6.1,34.92-5.435,44.628c.668,9.681,2.016,13.447,2.016,13.447l-14.662,2.217-3.178-.788-1.429-.427s-.4-15.544-.387-21.312.708-38.084.481-46.377c-.2-8.292-7.385-50.891-8.253-65.727a100.1,100.1,0,0,1,2.31-27.228l28.9-.948,2.11-.08Z" transform="translate(-322.71 -1555.129)" fill="#5b637d"/>
          <path id="Trazado_1047962" data-name="Trazado 1047962" d="M201.959,1709.693s.921,7.224-4.847,22.594-13.167,60.025-16.051,66.421c-2.884,6.37-7.812,56.219-6.944,64.164.841,7.919,2.978,14.662-.107,16.318-3.058,1.656-15.944.8-15.944.8a42.01,42.01,0,0,1-.788-7.224c-.04-3.659,1.349-12.018,1.349-12.018s-4.714-39.086-4.714-51.892c-.027-12.793,3.686-40.3,3.686-40.3s-3.165-30.273-3.3-39.727,1.576-26.56,1.576-26.56l44.588-1.469a41.514,41.514,0,0,1,1.5,8.894" transform="translate(-133.36 -1473.68)" fill="#5b637d"/>
          <path id="Trazado_1047963" data-name="Trazado 1047963" d="M182.912,2216.847a.477.477,0,0,0,.6.2.423.423,0,0,0,.187-.588,76.307,76.307,0,0,1-4.674-11.444.453.453,0,0,0-.548-.321.4.4,0,0,0-.307.521,77.189,77.189,0,0,0,4.741,11.631" transform="translate(-154.36 -1910.274)" fill="#303030"/>
          <path id="Trazado_1047964" data-name="Trazado 1047964" d="M320.673,2431.2a.473.473,0,0,0-.28-.561.436.436,0,0,0-.561.267l-5.261,16.131a.455.455,0,0,0,.28.561.426.426,0,0,0,.561-.267Z" transform="translate(-272.544 -2106.039)" fill="#303030"/>
          <path id="Trazado_1047965" data-name="Trazado 1047965" d="M192.3,2528.556a.459.459,0,0,0-.628-.16.445.445,0,0,0-.147.6l5.195,8.453a.434.434,0,0,0,.6.16.412.412,0,0,0,.147-.6Z" transform="translate(-165.898 -2190.708)" fill="#303030"/>
          <path id="Trazado_1047966" data-name="Trazado 1047966" d="M211.4,1705.7l1.749,17.84s1.829,3.339-.2,6.156c-7.638,3.245-58.676,7.6-64.5-2.417-.748-1.3-1.549-1.229-.16-10.149.548-3.605,1.068-6.944,1.5-9.842A196.162,196.162,0,0,0,211.4,1705.7" transform="translate(-127.83 -1477.927)" fill="#6291de"/>
          <path id="Trazado_1047967" data-name="Trazado 1047967" d="M162.745,1135.868l.6,28.844,2.39,17.987a217.863,217.863,0,0,1-64.258,1.269c.681-4.687,2.577-9.227,2.47-10.75-.307-4.233-1.415-11.618-1.415-11.618s-8.119-31.461-8.907-38.405c-1.375-12.3,7.8-22.007,19.47-23.6l23.235,13.193,10.256-11.537c3.646.881,6,1.629,6,1.629s5.061.668,6.971,9.588c1.963,8.893,3.192,23.4,3.192,23.4" transform="translate(-81.005 -952.763)" fill="#fdb722"/>
          <path id="Trazado_1047968" data-name="Trazado 1047968" d="M194.752,1378l.2,9.187c-9.561,1.148-28.55,2.31-62.989.668-.507-2.978-1.042-6.156-1.549-9.267,37.217,1.87,55.938.547,64.338-.588m.347,15.811.187,9.187c-9.4,1.122-27.789,2.23-60.612.748l-.12-.921s-.6-3.405-1.456-8.333c35.494,1.7,53.655.427,62-.681" transform="translate(-112.999 -1193.987)" fill="#fbeff5"/>
          <path id="Trazado_1047969" data-name="Trazado 1047969" d="M30.109,1165.687c-4.086,11.137-.828,20.965-5.956,27.428-1.349,1.7,1.242,7.385-1.776,9.321-4.206,2.684-13.394,8-17.987,5.622-1.7-.881-2.924-7.1-2.818-8.72.561-9.04,7.638-45.029,12.339-55.057,2.6-5.475,8.293-14.155,14.555-10.456,5.528,3.285,3.953,25.639,1.642,31.862" transform="translate(-1.357 -981.647)" fill="#6291de"/>
          <path id="Trazado_1047970" data-name="Trazado 1047970" d="M25.144,1642.178s-1.148-15.931.16-21.312c1.3-5.355,3.726-17,2.577-22.087-1.148-5.021-13.367-7.425-14.622,1.148-1.415,9.828,1.375,31.822,2.23,43.252,0,0,4.42,3.592,9.655-1" transform="translate(-11.147 -1381.355)" fill="#f0874c"/>
          <path id="Trazado_1047971" data-name="Trazado 1047971" d="M5.226,1912.587s-1.122,1.375-1.122,4.567c.027,3.2-.227,10.389-.227,10.389l-3.445,9.281s-.668,1.349.28,1.856c.921.507,1.856-.708,1.856-.708l4.126-7.612.841.361L5.8,1942.166s-.08,1.749,1.148,1.789c1.229.067,1.469-1.616,1.469-1.616l2.457-11.03.761.307s.08,5.114-.027,6.45-2.137,6.036-2.137,6.036c-.668,1.469,1.736,2.15,2.724.561.441-.708,1.068-1.789,1.068-1.789s.547.868,1.335.467c.761-.387,2.39-2.978,2.39-2.978a12.65,12.65,0,0,0,1.415-4.126c0-1.469-.881-9.882-.881-9.882l-3.792-13.113s-1.3-2.684-2.19-2.8-5.021-.174-6.316,2.15" transform="translate(-0.177 -1655.289)" fill="#f0874c"/>
          <path id="Trazado_1047972" data-name="Trazado 1047972" d="M1.848,2079.7l-1.415,3.833s-.668,1.349.28,1.856c.921.508,1.856-.708,1.856-.708l2.016-3.726a3.192,3.192,0,0,1-2.737-1.255m4.567,5.141-.6,4.033s-.08,1.75,1.148,1.789c1.229.067,1.469-1.615,1.469-1.615l.761-3.445a2.787,2.787,0,0,1-2.778-.761m4.954,1.082c-.588,1.9-1.87,4.874-1.87,4.874-.668,1.469,1.736,2.15,2.724.561.441-.708,1.068-1.789,1.068-1.789s.547.868,1.335.467c.721-.361,2.19-2.7,2.377-2.964l-2.07-.908-.708,1.589s-1.936-.12-2.35-.748a3.216,3.216,0,0,1-.507-1.082" transform="translate(-0.177 -1801.985)" fill="#df6e3d"/>
          <path id="Trazado_1047973" data-name="Trazado 1047973" d="M106.979,2143.43a7.1,7.1,0,0,0,1.349-1.549l-1.042-.481c-.227.508-.921,1.536-.4,1.95.04.04.053.067.093.08" transform="translate(-92.448 -1855.445)" fill="#fff"/>
          <path id="Trazado_1047974" data-name="Trazado 1047974" d="M3.682,2104.234s-.721.922-.24,1.376.988.28,1.429-.4.4-.8.4-.8l-1.3-.708Z" transform="translate(-2.839 -1822.78)" fill="#fff"/>
          <path id="Trazado_1047975" data-name="Trazado 1047975" d="M46.391,2143.517c.561.32,1,.04,1.3-.708s.2-.881.2-.881l-1.375-.427c-.16.548-.708,1.669-.12,2.017" transform="translate(-39.966 -1855.532)" fill="#fff"/>
          <path id="Trazado_1047976" data-name="Trazado 1047976" d="M76.1,2156.65c.521.427,1,.2,1.389-.507s.347-.841.347-.841l-1.335-.6c-.214.494-.921,1.522-.4,1.949" transform="translate(-65.774 -1866.969)" fill="#fff"/>
          <path id="Trazado_1047977" data-name="Trazado 1047977" d="M38.2,2055.069a.19.19,0,0,0,.08.28.206.206,0,0,0,.267-.08l1.749-3.138a.217.217,0,0,0-.08-.267.171.171,0,0,0-.267.067Z" transform="translate(-33.073 -1777.834)" fill="#d25932"/>
          <path id="Trazado_1047978" data-name="Trazado 1047978" d="M84.2,2059.1a.215.215,0,0,0-.2-.2.2.2,0,0,0-.187.2l.12,4.567a.2.2,0,0,0,.2.2.2.2,0,0,0,.187-.2Z" transform="translate(-72.622 -1783.962)" fill="#d25932"/>
          <path id="Trazado_1047979" data-name="Trazado 1047979" d="M105.615,2075.374a.2.2,0,0,0,.107.267.173.173,0,0,0,.24-.107c.027,0,.668-1.616.828-2.11.2-.521-.441-7.024-.441-7.024a.23.23,0,0,0-.227-.2c-.107.027-.187.107-.16.2,0,.027.628,6.463.481,6.9-.187.454-.828,2.07-.828,2.07" transform="translate(-91.498 -1790.287)" fill="#d25932"/>
          <path id="Trazado_1047980" data-name="Trazado 1047980" d="M57.623,2036.134a.18.18,0,0,0-.24-.12.189.189,0,0,0-.12.24l.6,1.7a.179.179,0,0,0,.24.12.189.189,0,0,0,.12-.24Z" transform="translate(-49.609 -1764.12)" fill="#d25932"/>
          <path id="Trazado_1047981" data-name="Trazado 1047981" d="M75.39,2038.852a.174.174,0,0,0-.08-.267.184.184,0,0,0-.267.067l-.641,1.242a.174.174,0,0,0,.08.267.184.184,0,0,0,.267-.067Z" transform="translate(-64.439 -1766.331)" fill="#d25932"/>
          <path id="Trazado_1047982" data-name="Trazado 1047982" d="M37.868,2033.727a.2.2,0,0,0-.227-.16.165.165,0,0,0-.16.2l.2,1.536a.188.188,0,0,0,.227.16c.107,0,.16-.107.16-.2Z" transform="translate(-32.471 -1762.007)" fill="#d25932"/>
          <path id="Trazado_1047983" data-name="Trazado 1047983" d="M99.341,2045.327a.181.181,0,1,0-.361.04l.187,1.536a.2.2,0,0,0,.227.16.165.165,0,0,0,.16-.2Z" transform="translate(-85.758 -1772.058)" fill="#d25932"/>
          <path id="Trazado_1047984" data-name="Trazado 1047984" d="M21.982,1574.92c.921,4.407-3.565,16.131-3.525,21.392s2.43,11.284-.4,12.886c-2.858,1.616-2.537,2.724-2.537,2.724l-12.926.628a2.177,2.177,0,0,0-.547-2.31c-1.082-1.3-1.242-2.03-1.709-5.475s-.387-22.127-.12-31.915c5.341-12.5,18.855-11.724,21.766,2.07" transform="translate(0 -1355.146)" fill="#6291de"/>
          <path id="Trazado_1047985" data-name="Trazado 1047985" d="M434.127,1300.516c-1.188.08-2.417.187-3.686.24l-1.549-39.887.027-.027c-.307-8.413-3.2-27.469-3.2-27.522l3.619-.521c.027.067,2.938,19.229,3.245,27.949Z" transform="translate(-368.866 -1068.176)" fill="#ff9201"/>
          <path id="Trazado_1047986" data-name="Trazado 1047986" d="M240.514,1092.076a82.529,82.529,0,0,1,16.532-1.042,100.647,100.647,0,0,1,16.959,2.7c1.509,1.99,2.965,5.355,2.337,10.616a26.726,26.726,0,0,1-7.638,15.744s-9.561-2.1-18.949-12.245a42.459,42.459,0,0,1-9.241-15.771" transform="translate(-208.397 -945.252)" fill="#6291de"/>
          <path id="Trazado_1047987" data-name="Trazado 1047987" d="M294.214,951.423c.547,3.485,1.776,14.222,2.07,20.658.561,11.07,22.634,10.99,19.777,2.417-1.629-4.914-3.338-17.987-4.367-23.623-3.031-1.282-14.9-.935-17.48.548" transform="translate(-254.926 -823.215)" fill="#f0874c"/>
          <path id="Trazado_1047988" data-name="Trazado 1047988" d="M298.114,977.932c.347,2.617.828,6.85,1.229,11.017,3.218,2.1,9.161,5.315,15.33,5.141a9.453,9.453,0,0,0,3.605-.748c-.908-4.727-1.776-10.549-2.43-14.716l-.481-2.764-3.806-.681c-4.433-.32-10.83.067-13.207,1Z" transform="translate(-258.305 -844.863)" fill="#df6e3d"/>
          <path id="Trazado_1047989" data-name="Trazado 1047989" d="M671.523,1254.3c1.99-4.033,12.806-10.456,16.024-14.582,3.245-4.153,5.074-10.376,8.319-9.868s3.659-.547,3.659-.547l10.536,7.5a2.19,2.19,0,0,0-1,2.177c.04,1.669-.28,2.377-2.07,5.355s-13.407,17.587-19.7,25.118c-11.925,6.463-22.06-2.537-15.771-15.156" transform="translate(-580.183 -1065.144)" fill="#6291de"/>
          <path id="Trazado_1047990" data-name="Trazado 1047990" d="M904.855,1003.009a28.83,28.83,0,0,0,4.033-8.132c1.309-4.474,6.263-12.766,6.263-12.766s.467-1.375-.347-1.776c-.8-.427-2.15,1.375-2.15,1.375l-5.782,8.213,5.9-14.515s.507-1.789-.908-2.11c0,0-1.028-.441-1.856,1.188-.828,1.656-5.8,12.646-5.8,12.646l1.856-13.955s.28-1.789-1.3-1.789c0,0-1.042-.107-1.375,1.3s-1.95,12.833-1.95,12.833a9.5,9.5,0,0,0-4.594-3.058c-2.657-.6-3.445.988-3.445.988l-3.619,6.343s-.12.628,1.068,1,2.07-1.042,2.07-1.042l3.085-3.806,2.684,1.709-2.657,5.155-1.95,2.564-.988-.641a4.48,4.48,0,0,0-.067-2.457,1.967,1.967,0,0,0-2.684-1.068l-.067,2.524-.187,2.844s3.178,1.576,4.273,3.218c1.99,2.978,5.128,8.613,10.483,3.218" transform="translate(-770.969 -841.671)" fill="#f0874c"/>
          <path id="Trazado_1047991" data-name="Trazado 1047991" d="M932.064,1131.06a.408.408,0,0,0-.467.347.43.43,0,0,0,.36.467,4.732,4.732,0,0,1,3.792,3.445c.187.6.347,1.149.467,1.589.147.521.24.908.307,1.188.12.628.147.588.147.588a.412.412,0,1,0,.748.347s.107-.227-.107-1.108c-.067-.307-.16-.708-.307-1.229-.12-.427-.267-.948-.467-1.616a5.594,5.594,0,0,0-4.474-4.02" transform="translate(-807.192 -980.017)" fill="#d25932"/>
          <path id="Trazado_1047992" data-name="Trazado 1047992" d="M894.372,1095.028s-.507,1.3-1.269,1.456-.547-.828-.547-.828l.948-1.455Z" transform="translate(-773.346 -948.085)" fill="#fff"/>
          <path id="Trazado_1047993" data-name="Trazado 1047993" d="M894.594,1121.6l-.08,2.457,1.349-.107a1.8,1.8,0,0,0-1.269-2.35" transform="translate(-775.064 -971.826)" fill="#fff"/>
          <path id="Trazado_1047994" data-name="Trazado 1047994" d="M223.351,903.213l1.9,11.364s-3.485,1.148-5.862-.361-3.525-4.487-4.487-6.383c-.881-1.829-.708-4.994,1.509-6.53a4.8,4.8,0,0,1,6.944,1.91" transform="translate(-185.772 -780.253)" fill="#f0874c"/>
          <path id="Trazado_1047995" data-name="Trazado 1047995" d="M306.633,741.1s.748,16.372.387,21.059c-.387,4.674-5.195,9.668-9.868,11.858s-13.006-.267-13.006-.267a18.7,18.7,0,0,1-12-11.1c-3.539-9.08-3.485-14.622-3.178-24.33.534-18.268,36.749-20.458,37.671,2.778" transform="translate(-232.933 -627.445)" fill="#f0874c"/>
          <path id="Trazado_1047996" data-name="Trazado 1047996" d="M373.014,862.653c4.767-2.9,7.572-.227,8.239-1.669,1.015-2.15-6.824-2.858-8.239,1.669" transform="translate(-323.203 -744.554)" fill="#424242"/>
          <path id="Trazado_1047997" data-name="Trazado 1047997" d="M463.617,975.4s-.147.748-1.789,1.188-2.564.6-1.976,1.456,2.43.28,2.978-.16l1.576-1.375Z" transform="translate(-398.289 -845.149)" fill="#df6e3d"/>
          <path id="Trazado_1047998" data-name="Trazado 1047998" d="M465.92,950.3a2.227,2.227,0,0,0,1.91,1.669,2.451,2.451,0,0,1,1.509.788,2.112,2.112,0,0,1,.441.881,2.268,2.268,0,0,1,0,.948c-.267,1.429-2.217,2.35-3.445,2.15a17.359,17.359,0,0,0,1.509-1.2,2.177,2.177,0,0,0,.681-1.162.924.924,0,0,0,0-.467.706.706,0,0,0-.147-.32,1.5,1.5,0,0,0-.788-.387c-1-.174-2.43-1.8-1.669-2.9" transform="translate(-403.516 -823.4)" fill="#d25932"/>
          <path id="Trazado_1047999" data-name="Trazado 1047999" d="M400.615,1037.2l4.473,1.87a2.6,2.6,0,0,1-2.884.6,2.128,2.128,0,0,1-1.589-2.47" transform="translate(-347.092 -898.696)" fill="#df6e3d"/>
          <path id="Trazado_1048000" data-name="Trazado 1048000" d="M234.236,926.151a4.567,4.567,0,0,1-2.884,1.2c-1.669.04-2.858-.761-3.1-1.829-.267-1.042.067-1.3-.708-2.1s-2.27-4.433.12-5.6,3.165,2.15,3.378,3.846-.2,4.527,3.192,4.473" transform="translate(-196.136 -795.058)" fill="#df6e3d"/>
          <path id="Trazado_1048001" data-name="Trazado 1048001" d="M230.253,921.452a1.481,1.481,0,0,1-.521-.948,2.3,2.3,0,0,0-.027-.427,13.994,13.994,0,0,0-.481-4.514,3.108,3.108,0,0,0-1.789-2.3,2.575,2.575,0,0,0-3.058,1.5,3.142,3.142,0,0,0,.107,2.818c-.12-1.242.8-4.073,2.644-3.525a2.5,2.5,0,0,1,1.229,1.736,14.568,14.568,0,0,1,.481,4.327c0,.2.027.347.027.547a1.972,1.972,0,0,0,.748,1.429,2.936,2.936,0,0,0,2.337.467,3.053,3.053,0,0,0,1.549-.668,6.293,6.293,0,0,1-3.245-.441" transform="translate(-194.17 -791.227)" fill="#d25932"/>
          <path id="Trazado_1048002" data-name="Trazado 1048002" d="M391.922,911.392a2.064,2.064,0,1,0,2.123,1.99,2.042,2.042,0,0,0-2.123-1.99" transform="translate(-337.838 -789.687)" fill="#424242"/>
          <path id="Trazado_1048003" data-name="Trazado 1048003" d="M500.54,907.8a2.1,2.1,0,0,0,.134,4.153,2.1,2.1,0,0,0-.134-4.153" transform="translate(-432.195 -786.575)" fill="#424242"/>
          <path id="Trazado_1048004" data-name="Trazado 1048004" d="M499.792,862.488c-3.832-2.617-5.836.24-6.45-1.188-.881-2.083,5.1-3.245,6.45,1.188" transform="translate(-427.386 -744.682)" fill="#424242"/>
          <path id="Trazado_1048005" data-name="Trazado 1048005" d="M408.472,1004.02a7.2,7.2,0,0,1-5.5-.628,4.918,4.918,0,0,1-2.257-3.993c2.15,3.5,4.914,3.766,6.343,3.619a3.054,3.054,0,0,1,1.415,1" transform="translate(-347.204 -865.944)" fill="#d25932"/>
          <path id="Trazado_1048006" data-name="Trazado 1048006" d="M242.632,705.666c-6.57-7.638,7.1-21.846,21.806-18.4.147.04,13.394,6.463,14.3,7.051,4.367,2.924,7.959,8.119-3.619,9.548-17.587,2.137-20.217.4-20.217.4Z" transform="translate(-208.765 -595.031)" fill="#424242"/>
          <path id="Trazado_1048007" data-name="Trazado 1048007" d="M256.058,780.013s1.415,5.382-3.285,8.373-4.914,7.024-4.233,9.241-2.1,2.6-2.844-.227-1.9-6.383-3.993-6.891-1.749-11.417,0-14.1c1.789-2.671,13.247-6.089,14.355,3.605" transform="translate(-208.17 -670.273)" fill="#282b38"/>
          <path id="Trazado_1048008" data-name="Trazado 1048008" d="M334.4,783.688c8.72,1.776,14.7,1.068,17.013-1.936s-1.856-6.023-8.453-4.807c-6.623,1.229-23.783-1.99-26.747-2.644,5.422,5.769,10,7.718,18.188,9.388" transform="translate(-273.988 -670.903)" fill="#424242"/>
          <path id="Trazado_1048009" data-name="Trazado 1048009" d="M322.488,782.4s3.485,6.023,7.572,7.531,4.287-1.5,1.816-3.165c-2.5-1.656-4.687-5.355-8.613-6.383-3.913-1-.774,2.016-.774,2.016" transform="translate(-278.392 -675.993)" fill="#424242"/>
          <path id="Trazado_1048010" data-name="Trazado 1048010" d="M284.83,686.15l-44.347,1.269c-10.723-33.651,46.217-37.737,44.347-1.269" transform="translate(-207.203 -572.257)" fill="#ffb401"/>
          <path id="Trazado_1048011" data-name="Trazado 1048011" d="M265.814,669.315c5.836-9.748,22.394-10.71,30.553-1.5l-7.972.2a3.945,3.945,0,0,1-3.165-1.108c-1.3-1.322-9.868-8.426-19.416,2.4" transform="translate(-230.318 -573.102)" fill="#ff9201"/>
          <path id="Trazado_1048012" data-name="Trazado 1048012" d="M252.5,746.047l-19.657.547c-2.27-7.264.12-15,5.341-17.28s11.3,1.736,13.567,9a18.422,18.422,0,0,1,.748,7.732" transform="translate(-201.011 -631.366)" fill="#ff9201"/>
          <path id="Trazado_1048013" data-name="Trazado 1048013" d="M278.279,805.6l-38.365,1.362.16,1.616,38.365-1.375Z" transform="translate(-207.877 -698.023)" fill="#ffb401"/>
          <path id="Trazado_1048014" data-name="Trazado 1048014" d="M275.7,835.7l-47.713,1.7c-.521.027-.908.24-.881.507l.187,1.789c.027.24.467.441.961.427l47.713-1.7c.507-.027.908-.24.881-.507l-.187-1.789c-.04-.24-.467-.441-.961-.427" transform="translate(-196.778 -724.1)" fill="#ffb401"/>
          <path id="Trazado_1048015" data-name="Trazado 1048015" d="M260.271,834.089h0a.645.645,0,0,0-.641.721l.187,1.91a.793.793,0,0,0,.788.681.668.668,0,0,0,.641-.748l-.187-1.9a.759.759,0,0,0-.788-.668m-13.527.481h0a.661.661,0,0,0-.641.721l.2,1.91a.783.783,0,0,0,.788.681.676.676,0,0,0,.641-.748l-.2-1.9a.751.751,0,0,0-.788-.668" transform="translate(-213.237 -722.707)" fill="#f9d49d"/>
          <path id="Trazado_1048016" data-name="Trazado 1048016" d="M401,795.057a72.742,72.742,0,0,0-6.543-4.687c-2.27-1.309-3.338-2.137-6.543-2.03l-19.91.668s-2.217,0-2.35,2.016l-.147,1.99-.227,2.724s-.841,2.764,1.789,2.657,9.067-.321,9.067-.321Z" transform="translate(-316.394 -683.06)" fill="#ff9201"/>
          <path id="Trazado_1048017" data-name="Trazado 1048017" d="M451.469,835.294l-25.572.841a1.326,1.326,0,0,0-1.3,1.389,1.358,1.358,0,0,0,1.375,1.3l25.572-.841a1.343,1.343,0,0,0-.08-2.684" transform="translate(-367.9 -723.751)" fill="#ffb401"/>
          <path id="Trazado_1048018" data-name="Trazado 1048018" d="M435.613,2735.609h.027a16.221,16.221,0,0,0,2.337,1.2c2.417.949,9.241,3.579,9.241,3.579s6.744.067,8.172,1.616,2.7,4.367-2.457,6.076-13.407.508-16.679.547c-3.258.067-19.83,1-22.394.641a6.5,6.5,0,0,1-3.993-2.5,27.546,27.546,0,0,1,1.335-8.987c1.082-4.728-.507-42.678-.507-42.678l24.3-.307s-3.806,28.376-3.325,33.424a10.4,10.4,0,0,0,3.939,7.384" transform="translate(-355.128 -2334.947)" fill="#f6c261"/>
          <path id="Trazado_1048019" data-name="Trazado 1048019" d="M525.867,2719.9c-.988,7.638-3.285,26.12-2.9,30.113a11.874,11.874,0,0,0,.481,2.377c-8.44.721-8.239-4.487-8.239-4.487s1.309-18.2,1.936-22.407c.628-4.233,3.605-4.487,3.605-4.487Z" transform="translate(-446.411 -2356.695)" fill="#e36b13"/>
          <path id="Trazado_1048020" data-name="Trazado 1048020" d="M455.716,3050.4c1.309,1.615,2.15,4.246-2.7,5.875-5.141,1.736-13.407.507-16.679.547-3.245.067-19.83,1-22.367.641a6.422,6.422,0,0,1-4.006-2.537,24.324,24.324,0,0,1,.067-2.471,23.179,23.179,0,0,0,6.29,1.456s23.355.2,33.144-.641c3.712-.334,5.488-1.522,6.25-2.871" transform="translate(-355.215 -2643.061)" fill="#e36b13"/>
          <path id="Trazado_1048021" data-name="Trazado 1048021" d="M175.832,2723.018c.748.6,1.536,1.228,2.35,1.816,4.927,3.579,15.65,7.451,15.65,7.451s2.537,2.217,1.5,4.113-5.315,2.27-11.925,3.258c-6.61.962-10.509,1.309-16.145-.227-5.662-1.536-16.932-3.993-16.932-3.993a5.582,5.582,0,0,1-1.229-3.579c.147-1.5,1.082-6.65,1.509-8.947.227-1.242-4.193-50.223-4.193-50.223l25.692-.988s-1.669,17.961-2.738,27.949c-.668,6.45,1.229,13.447,2.684,17.64,1.322,3.859.855,3.392,3.779,5.729" transform="translate(-126.862 -2314.931)" fill="#f6c261"/>
          <path id="Trazado_1048022" data-name="Trazado 1048022" d="M276.2,2703.9c-.561,5.956-1.589,16.732-2.337,23.663-.668,6.45,1.229,13.447,2.684,17.64.147.4.267.748.361,1.068-3.045,1.309-6.73.16-7.678-1.469-1.108-1.856-2.217-10.63-2.217-10.63s.588-16.919.721-22.781,3.806-6.65,3.806-6.65Z" transform="translate(-231.358 -2342.831)" fill="#e36b13"/>
          <path id="Trazado_1048023" data-name="Trazado 1048023" d="M211.467,3113.563c.588.587,2.15,2.39,1.3,3.993-1.028,1.909-5.3,2.3-11.9,3.285-6.61.962-10.536,1.309-16.171-.267-5.662-1.549-16.932-4.073-16.932-4.073a5.589,5.589,0,0,1-1.242-3.646c.04-.321.107-.841.187-1.456,5.982,1.909,14.943,4.727,18.722,5.515,5.916,1.2,7.264.2,16.679-1.068s9.361-2.283,9.361-2.283" transform="translate(-144.269 -2695.915)" fill="#e36b13"/>
          <path id="Trazado_1048024" data-name="Trazado 1048024" d="M133.371,1414.685a.372.372,0,0,1,.734-.12l4.233,23.276a.377.377,0,0,1-.307.427.349.349,0,0,1-.427-.281Z" transform="translate(-115.555 -1225.397)" fill="#2f5cc8"/>
          <path id="Trazado_1048025" data-name="Trazado 1048025" d="M193.574,1369.48a.345.345,0,0,1,.32-.4.354.354,0,0,1,.4.321l1.242,11.03a.345.345,0,0,1-.32.4.353.353,0,0,1-.4-.32Z" transform="translate(-167.719 -1186.255)" fill="#2f5cc8"/>
          <path id="Trazado_1048026" data-name="Trazado 1048026" d="M689.632,1355.706a.328.328,0,0,1,.507.027.347.347,0,0,1,0,.507l-8.2,7.758a.363.363,0,0,1-.521,0,.342.342,0,0,1,.027-.521Z" transform="translate(-590.333 -1174.577)" fill="#2f5cc8"/>
          <path id="Trazado_1048027" data-name="Trazado 1048027" d="M878.128,1232.221a.36.36,0,0,1,.467-.547l8.88,7.638a.354.354,0,0,1,.04.521.372.372,0,0,1-.507.04Z" transform="translate(-760.748 -1067.117)" fill="#2f5cc8"/>
          <path id="Trazado_1048028" data-name="Trazado 1048028" d="M16.3,1909.942a.355.355,0,0,1-.387-.347.373.373,0,0,1,.361-.387l12.179-.508a.383.383,0,0,1,.387.361.369.369,0,0,1-.347.387Z" transform="translate(-13.789 -1653.819)" fill="#2f5cc8"/>
          <path id="Trazado_1048029" data-name="Trazado 1048029" d="M102.3,1761.13a.4.4,0,0,1,.481-.227.385.385,0,0,1,.227.468c-.027.026-2.657,7.878-6.2,10.576a.364.364,0,0,1-.507-.08.35.35,0,0,1,.067-.508c3.352-2.551,5.929-10.2,5.929-10.229" transform="translate(-83.374 -1525.746)" fill="#2f5cc8"/>
          <path id="Trazado_1048030" data-name="Trazado 1048030" d="M137.473,1643.411a.364.364,0,0,1,.467-.24.347.347,0,0,1,.24.441,19.782,19.782,0,0,1-3.832,6.81.369.369,0,0,1-.561-.481,19.024,19.024,0,0,0,3.686-6.53" transform="translate(-115.852 -1423.731)" fill="#2f5cc8"/>
          <path id="Trazado_1048031" data-name="Trazado 1048031" d="M793.964,1270.864a.374.374,0,0,1,.427-.307.367.367,0,0,1,.307.427,101.031,101.031,0,0,1-4.473,16.839.375.375,0,0,1-.481.227.385.385,0,0,1-.227-.467,101.665,101.665,0,0,0,4.447-16.719" transform="translate(-684.075 -1100.886)" fill="#2f5cc8"/>
          <path id="Trazado_1048032" data-name="Trazado 1048032" d="M676.814,1279.07a.39.39,0,0,1,.347-.387.359.359,0,0,1,.4.347l.681,11.617a.368.368,0,0,1-.734.04Z" transform="translate(-586.435 -1107.93)" fill="#2f5cc8"/>
          <path id="Trazado_1048033" data-name="Trazado 1048033" d="M125.885,1232.639a.372.372,0,1,1,.708-.227l2.5,7.6a.387.387,0,0,1-.24.468.368.368,0,0,1-.467-.227Z" transform="translate(-109.058 -1067.614)" fill="#2f5cc8"/>
          <path id="Trazado_1048034" data-name="Trazado 1048034" d="M274.561,1523.2a.362.362,0,0,1,.08-.507.366.366,0,0,1,.521.067c.027.04,9.948,13.634,17.039,17.747a.378.378,0,0,1,.12.507.373.373,0,0,1-.507.147c-7.2-4.206-17.213-17.921-17.253-17.961" transform="translate(-237.836 -1319.286)" fill="#f36d15"/>
          <path id="Trazado_1048035" data-name="Trazado 1048035" d="M537.709,1518.686a.359.359,0,1,1,.641.321c-.027.04-6.116,12.673-8.439,17.013a.383.383,0,0,1-.507.16.4.4,0,0,1-.147-.507c2.4-4.5,8.426-16.946,8.453-16.986" transform="translate(-458.546 -1315.698)" fill="#f36d15"/>
          <path id="Trazado_1048036" data-name="Trazado 1048036" d="M391.885,1983.545a.4.4,0,0,1-.441.281.412.412,0,0,1-.28-.467c.027-.067,5.275-22.047,6.984-31.8s1.976-14.021,1.976-14.021a.375.375,0,0,1,.748.053s-.28,4.286-1.99,14.075c-1.749,9.815-7,31.822-7,31.875" transform="translate(-338.923 -1678.509)" fill="#303030"/>
          <path id="Trazado_1048037" data-name="Trazado 1048037" d="M465.113,2227.38a.365.365,0,0,1,.668-.294s1.082,2.19,6.623,11.725a.374.374,0,0,1-.654.361c-5.528-9.561-6.637-11.791-6.637-11.791" transform="translate(-402.977 -1929.5)" fill="#303030"/>
          <path id="Trazado_1048038" data-name="Trazado 1048038" d="M473.393,2399.187a.356.356,0,0,1,.107-.508.369.369,0,0,1,.521.107l4.287,6.65a.384.384,0,0,1-.12.507.352.352,0,0,1-.508-.107Z" transform="translate(-410.122 -2078.313)" fill="#303030"/>
          <path id="Trazado_1048039" data-name="Trazado 1048039" d="M2589.237,1108.2c-9.347.441-11.845,6.77-16.064,12.926-7.011,10.215-13.875,18.628-18,26.24-2.844,5.195-4.513,16.372,3.2,16.265,2.47-.04,12.259-3.178,15-5.5,7.144-6,13.033-17.72,18.762-27.776,3.165-5.5,7.184-16.184,1.549-20.645-1.362-1.068-1.923-1.028-4.447-1.509" transform="translate(-2211.901 -960.215)" fill="#96cf9a"/>
          <path id="Trazado_1048040" data-name="Trazado 1048040" d="M2533.6,1358.09s-3.605,13.153-.161,16.772c2.217,2.337,8.827,4.994,14.5,2.965,3.138-1.108,5.675-5.862,7.758-7.692,5.835-5.195,3.485-11.9-.227-16.024-3.686-4.14-19.269-5.568-21.873,3.979" transform="translate(-2193.843 -1170.525)" fill="#f6e7de"/>
          <path id="Trazado_1048041" data-name="Trazado 1048041" d="M2679.72,2984.8l-3.459,1.108a35.967,35.967,0,0,1-6.37,4.166c-2.6,1.122-9.922,4.247-9.922,4.247s-7.344.307-8.84,2.056-2.778,4.847,2.884,6.53,14.635.067,18.188,0,21.646.387,24.41-.12a7.058,7.058,0,0,0,4.273-2.858s.027-7.771-3.405-12.953Z" transform="translate(-2296.001 -2586.221)" fill="#fff"/>
          <path id="Trazado_1048042" data-name="Trazado 1048042" d="M2788.314,3007.114c1.549-.147,2.9-.281,3.846-.307,3.539-.067,21.646.387,24.41-.12a7.06,7.06,0,0,0,4.273-2.858s.026-7.772-3.405-12.953l-12.792-1.576c-5.782,3.525-12.366,7.491-13.568,7.932a4.431,4.431,0,0,0-2.737,2.5Z" transform="translate(-2415.973 -2590.12)" fill="#e36b13"/>
          <path id="Trazado_1048043" data-name="Trazado 1048043" d="M2650.768,3073.9c-1.375,1.789-2.19,4.687,3.138,6.3,5.675,1.7,14.635.066,18.188,0s21.646.36,24.41-.147a7.035,7.035,0,0,0,4.273-2.9s0-1.068-.16-2.684a25.955,25.955,0,0,1-6.783,1.789s-25.439,1.082-36.122.507c-4.086-.187-6.063-1.429-6.944-2.871" transform="translate(-2295.906 -2663.423)" fill="#fff"/>
          <path id="Trazado_1048044" data-name="Trazado 1048044" d="M2764.514,1800.369s3.526,51.478,3.659,63.617,2.19,18.228,3.619,25.813,2.377,34.6,2.03,44.427-1.576,13.714-1.576,13.714l19.87,2.31,3.2-.908,2.9-.921s-1.576-15.3-1.789-21.139-1.976-38.525-2.057-46.938,5.8-51.8,6.156-66.862a100.755,100.755,0,0,0-3.259-27.482h-31.448Z" transform="translate(-2395.351 -1547.504)" fill="#5b637d"/>
          <path id="Trazado_1048045" data-name="Trazado 1048045" d="M2921.11,2184.588l.908.027c-.668-15.25-2.778-64.245-3.2-73.458-.508-10.856-3-54.536-3.018-54.656l-.881.147c0,.12,2.5,43.559,3,54.629.414,9.254,2.524,57.888,3.192,73.312" transform="translate(-2525.667 -1781.882)" fill="#303030"/>
          <path id="Trazado_1048046" data-name="Trazado 1048046" d="M2936.027,3006.7a75.558,75.558,0,0,1-8.906,8.279c-4.874,3.806-15.611,8.079-15.611,8.079s-2.5,2.337-1.375,4.233,5.461,2.11,12.178,2.884,10.7.988,16.372-.761,17-4.594,17-4.594a5.554,5.554,0,0,0,1.122-3.686c-.24-1.949-2.07-10.149-2.07-10.149l-.507-2.523Z" transform="translate(-2521.274 -2605.196)" fill="#fff"/>
          <path id="Trazado_1048047" data-name="Trazado 1048047" d="M3053.352,3034.762a29.677,29.677,0,0,0,5.7-1.2c5.662-1.736,17-4.594,17-4.594a5.554,5.554,0,0,0,1.122-3.686c-.24-1.949-2.07-10.149-2.07-10.149l-.507-2.524-11.618-1.108-13.247,11.177s-2.136,1.469-.16,2.925,2.9,5.074,2.9,5.074Z" transform="translate(-2641.617 -2609.355)" fill="#e36b13"/>
          <path id="Trazado_1048048" data-name="Trazado 1048048" d="M2911.332,3107.773c-.561.627-2.07,2.5-1.162,4.073,1.108,1.936,5.462,2.15,12.178,2.938,6.73.761,10.7.961,16.372-.8s17.013-4.687,17.013-4.687a5.64,5.64,0,0,0,1.122-3.726c-.04-.347-.12-.841-.24-1.469-5.982,2.136-14.956,5.275-18.789,6.2-5.942,1.455-7.331.467-16.919-.508-9.548-.975-9.574-2.016-9.574-2.016" transform="translate(-2521.31 -2689.59)" fill="#fff"/>
          <path id="Trazado_1048049" data-name="Trazado 1048049" d="M2871.576,1695.094s-.681,7.344,5.662,22.741c6.37,15.383,15.37,60.359,18.508,66.715s3.646,56.967,3.045,65.019-2.537,14.956.628,16.532,22.367,0,22.367,0a43.554,43.554,0,0,0,.548-7.344c-.08-3.726-1.776-12.125-1.776-12.125s3.445-39.767,3.044-52.72c-.427-12.966-5.1-40.7-5.1-40.7s2.177-30.767,1.99-40.341-2.47-26.868-2.47-26.868H2872.8a42.381,42.381,0,0,0-1.229,9.094" transform="translate(-2488.098 -1460.858)" fill="#5b637d"/>
          <path id="Trazado_1048050" data-name="Trazado 1048050" d="M3120.325,1954.081l.908-.04.347-65.019c-.027-.107-5.355-31.7-7.491-43-2.11-11.15-4.166-58.876-4.166-59.023l-.908.147c0,.147,2.07,47.886,4.193,59.143,2.07,10.95,7.291,41.89,7.465,42.932Z" transform="translate(-2693.848 -1548.37)" fill="#303030"/>
          <path id="Trazado_1048051" data-name="Trazado 1048051" d="M3187.712,2198.4a.491.491,0,0,1-.6.24.447.447,0,0,1-.2-.6,72.2,72.2,0,0,0,4.353-11.738.487.487,0,0,1,.548-.347.446.446,0,0,1,.32.547,73.516,73.516,0,0,1-4.42,11.9" transform="translate(-2761.301 -1894.047)" fill="#303030"/>
          <path id="Trazado_1048052" data-name="Trazado 1048052" d="M3049.354,2421.227a.478.478,0,0,1,.28-.588.441.441,0,0,1,.561.267l5.862,16.171a.412.412,0,0,1-.267.561.418.418,0,0,1-.561-.24Z" transform="translate(-2642.132 -2097.374)" fill="#303030"/>
          <path id="Trazado_1048053" data-name="Trazado 1048053" d="M3216.806,2880.689a.449.449,0,1,1-.868-.227l2.738-9.681a.475.475,0,0,1,.547-.347.429.429,0,0,1,.307.548Z" transform="translate(-2786.483 -2487.117)" fill="#303030"/>
          <path id="Trazado_1048054" data-name="Trazado 1048054" d="M3184.921,2514.426a.469.469,0,0,1,.628-.187.445.445,0,0,1,.16.6l-4.968,8.733a.455.455,0,0,1-.6.2.438.438,0,0,1-.187-.6Z" transform="translate(-2755.265 -2178.448)" fill="#303030"/>
          <path id="Trazado_1048055" data-name="Trazado 1048055" d="M2959.85,1023.464l1.8-7.064h-21.9l-3.338,11.1h21.753Z" transform="translate(-2544.296 -880.674)" fill="#689e7d"/>
          <path id="Trazado_1048056" data-name="Trazado 1048056" d="M2749.023,1102.17l.361,29.245-1.87,45.3a13.765,13.765,0,0,0,2.577,6.143c7.838,3.045,57.487,5.8,63.056-4.527.721-1.349,1.549-11.564-.16-20.538-1.789-9.508-3.245-17.24-3.165-19.75.16-4.286,1.042-11.8,1.042-11.8s5.181-36.99,5.715-44.04c.561-7.064-2.1-18.148-11.858-17.921-4.367.107-13.955-1.91-23.436-1a110.726,110.726,0,0,0-23.1,5.181s-5.1.841-6.744,9.948c-1.656,9.081-2.417,23.77-2.417,23.77" transform="translate(-2380.621 -921.081)" fill="#96cf9a"/>
          <path id="Trazado_1048057" data-name="Trazado 1048057" d="M2869.962,1040.4s-7.264,9.668-8.693,12.993a10.986,10.986,0,0,0-.828,6.2s.547,1.976,2.9-.841,13.047-15.57,13.047-15.57Z" transform="translate(-2478.352 -901.469)" fill="#689e7d"/>
          <path id="Trazado_1048058" data-name="Trazado 1048058" d="M2941.584,932.326c-.427,3.565-1.309,14.475-1.416,21.005-.187,11.23-22.554,11.9-19.937,3.125,1.5-5.034,2.778-18.321,3.646-24.063,3-1.429,15.063-1.469,17.707-.067" transform="translate(-2530.09 -806.935)" fill="#f5a99b"/>
          <path id="Trazado_1048059" data-name="Trazado 1048059" d="M2951.125,933.852c-.267,2.684-.628,6.971-.881,11.19-3.178,2.23-9.107,5.7-15.343,5.715a9.113,9.113,0,0,1-3.686-.641c.761-4.807,1.428-10.736,1.989-14.983l.387-2.8,3.846-.828c4.447-.481,10.95-.307,13.407.588Z" transform="translate(-2539.791 -806.886)" fill="#dd6f66"/>
          <path id="Trazado_1048060" data-name="Trazado 1048060" d="M3012.868,1016.4l-9.521,10.3s-7.144,6.223-7.731,9.067c-.708,3.325,2.778,6.81,6.143,2.964l12.753-14.342Z" transform="translate(-2595.511 -880.674)" fill="#689e7d"/>
          <path id="Trazado_1048061" data-name="Trazado 1048061" d="M3120.338,1075.243c-4.954,8.172-1.082,13.514,1.656,20.217,4.513,11.137,7.852,32.276,13.274,38.645,1.428,1.656-4.447,7.224-1.336,9.08,4.353,2.577,13.834,7.652,18.4,5.1,1.7-.948,2.724-7.291,2.564-8.947-.882-9.147-9.241-45.336-14.355-55.338-2.8-5.462-9.441-14.3-16.371-11.778-1.709.614-1.99,1.122-3.833,3.018" transform="translate(-2701.593 -928.66)" fill="#96cf9a"/>
          <path id="Trazado_1048062" data-name="Trazado 1048062" d="M3214.466,1445.371s-.227,2.27-.427,5.074a16.5,16.5,0,0,0,1.309,7.652c.988,2.43,7.772,10.029,14.462,9.788,6.69-.267,11.885-10.977,11.23-16.358a119.154,119.154,0,0,0-2.564-12.886s-1.162-3.1-6-3.045-16.185,5.622-18.014,9.775" transform="translate(-2784.811 -1243.891)" fill="#fff"/>
          <path id="Trazado_1048063" data-name="Trazado 1048063" d="M3063.69,850.6l-1.976,11.818s3.579,1.068,6.063-.588c2.47-1.629,3.646-4.754,4.634-6.744.921-1.936.761-5.195-1.536-6.69a5.107,5.107,0,0,0-7.185,2.2" transform="translate(-2652.864 -734.472)" fill="#f5a99b"/>
          <path id="Trazado_1048064" data-name="Trazado 1048064" d="M2793.2,688.959s-.8,16.932-.427,21.766,5.355,9.828,10.188,11.925,13.474-.708,13.474-.708a20.277,20.277,0,0,0,12.419-11.9c3.686-9.481,3.619-15.21,3.325-25.238-.534-18.9-37.991-19.91-38.979,4.153" transform="translate(-2419.747 -581.182)" fill="#f5a99b"/>
          <path id="Trazado_1048065" data-name="Trazado 1048065" d="M2925.963,807.622c-4.927-2.844-7.839.04-8.533-1.456-1.028-2.163,7.064-3.178,8.533,1.456" transform="translate(-2527.769 -696.933)" fill="#424242"/>
          <path id="Trazado_1048066" data-name="Trazado 1048066" d="M2856.029,933.3s.147.761,1.856,1.162,2.644.521,2.03,1.429c-.6.881-2.524.387-3.084-.067l-1.616-1.375Z" transform="translate(-2473.939 -808.671)" fill="#dd6f66"/>
          <path id="Trazado_1048067" data-name="Trazado 1048067" d="M2857.656,906.6a2.389,2.389,0,0,1-1.977,1.789,2.791,2.791,0,0,0-1.576.881,1.966,1.966,0,0,0-.44.921,2.9,2.9,0,0,0-.027.961c.28,1.469,2.3,2.35,3.579,2.11a15.978,15.978,0,0,1-1.576-1.2,2.143,2.143,0,0,1-.721-1.188,1.39,1.39,0,0,1,0-.467,1.157,1.157,0,0,1,.161-.347,1.415,1.415,0,0,1,.828-.4c1.068-.214,2.564-1.95,1.75-3.058" transform="translate(-2472.549 -785.536)" fill="#bb5e29"/>
          <path id="Trazado_1048068" data-name="Trazado 1048068" d="M3072.314,874.19a4.564,4.564,0,0,0,2.978,1.148c1.736-.027,2.964-.881,3.218-1.99.267-1.082-.08-1.349.721-2.19s2.35-4.647-.12-5.782-3.258,2.337-3.5,4.086c-.227,1.776.2,4.674-3.3,4.727" transform="translate(-2662.048 -749.627)" fill="#dd6f66"/>
          <path id="Trazado_1048069" data-name="Trazado 1048069" d="M2934.123,864.2a2.057,2.057,0,0,1,2.07,2.15,2.221,2.221,0,0,1-2.216,2.137,2.046,2.046,0,0,1-2.07-2.137,2.252,2.252,0,0,1,2.217-2.15" transform="translate(-2540.389 -748.798)" fill="#424242"/>
          <path id="Trazado_1048070" data-name="Trazado 1048070" d="M2825.541,864.2a1.941,1.941,0,0,1,1.789,2.15,2.1,2.1,0,0,1-1.949,2.137,1.919,1.919,0,0,1-1.776-2.137,2.106,2.106,0,0,1,1.936-2.15" transform="translate(-2446.55 -748.798)" fill="#424242"/>
          <path id="Trazado_1048071" data-name="Trazado 1048071" d="M2806.614,814.722c3.993-2.844,6.036.04,6.664-1.456.921-2.163-5.261-3.178-6.664,1.456" transform="translate(-2431.829 -703.085)" fill="#424242"/>
          <path id="Trazado_1048072" data-name="Trazado 1048072" d="M2799.014,861.27a14.33,14.33,0,0,1,5.155-2.657c2.857-.708,5.195-1.2,5.195-1.2a27.7,27.7,0,0,1,11.177,2.15,20.462,20.462,0,0,0,3.579,1.028,2.02,2.02,0,0,0,2.6-1c.721-1.709,3.579-7.491,3.579-7.491l2.858-6.623s.587-5.034,3.045-4.233c2.47.828-.187,8.333-.187,8.333s-1.162,9.227-3.5,12.5a67.5,67.5,0,0,1-7.211,7.772s-5.261,4.287-10.215,4.407-6.183.04-6.183.04h-6.25s-1.937.347-1.576-2.577l.32-4.594Z" transform="translate(-2425.244 -728.828)" fill="#282b38"/>
          <path id="Trazado_1048073" data-name="Trazado 1048073" d="M2854.715,986.628a7.232,7.232,0,0,0,5.381,1.776,5.346,5.346,0,0,0,3.953-2.8c-3.605,2.377-6.3,1.456-7.572.708a2.848,2.848,0,0,0-1.736.321Z" transform="translate(-2473.507 -853.987)" fill="#f5a99b"/>
          <path id="Trazado_1048074" data-name="Trazado 1048074" d="M3008.274,733.976a11.417,11.417,0,0,1,2.7,2.23,6.008,6.008,0,0,0,5.716,2.056c1.148-.307,2.537-2.31,3.018-2.43,2.177-.6,1.83-11.885,0-14.6-1.469-2.19-9.561-4.687-13.193-.16l-.267,7.879c-.094,2.8-.614,3.418,2.03,5.021" transform="translate(-2604.712 -622.594)" fill="#282b38"/>
          <path id="Trazado_1048075" data-name="Trazado 1048075" d="M2836.811,670.291a14.255,14.255,0,0,0-7.678-1.2c-4.513.481-27.362,3.846-27.362,3.846s-5.114.588-6.89-2.457c-1.816-3.058-.307-9.468,8.132-11.444s16.839-2.938,21.326-.881,5.315,4.674,7.892,6.463,5.542,4.033,4.58,5.675" transform="translate(-2421.071 -569.27)" fill="#424242"/>
          <path id="Trazado_1048076" data-name="Trazado 1048076" d="M2770.207,652.574l44.948-.2c9.721-34.452-48.1-36.669-44.948.2" transform="translate(-2400.175 -542.166)" fill="#fff"/>
          <path id="Trazado_1048077" data-name="Trazado 1048077" d="M2884.908,633.63c-6.236-9.681-23.062-10.109-30.994-.481l8.079-.08a3.911,3.911,0,0,0,3.165-1.229c1.242-1.389,9.721-8.88,19.75,1.789" transform="translate(-2472.813 -542.532)" fill="#e0ebf5"/>
          <path id="Trazado_1048078" data-name="Trazado 1048078" d="M2968,709.469l19.91-.12c2.056-7.425-.628-15.183-6-17.32s-11.377,2.137-13.447,9.561a18.948,18.948,0,0,0-.467,7.879" transform="translate(-2571.471 -599.142)" fill="#e0ebf5"/>
          <path id="Trazado_1048079" data-name="Trazado 1048079" d="M2753.507,809.8l48.367.12c.521,0,.921.2.908.467l-.107,1.816c-.027.267-.467.467-.988.467l-48.367-.107c-.521,0-.921-.227-.908-.481l.12-1.816c.027-.267.441-.467.975-.467" transform="translate(-2384.865 -701.662)" fill="#fff"/>
          <path id="Trazado_1048080" data-name="Trazado 1048080" d="M2717.314,767.248a76.409,76.409,0,0,1,6.49-4.994c2.27-1.389,3.325-2.257,6.57-2.257h20.191s2.23-.08,2.457,1.936l.2,2.03.307,2.738s.961,2.764-1.709,2.764-9.187-.027-9.187-.027Z" transform="translate(-2354.454 -658.51)" fill="#e0ebf5"/>
          <path id="Trazado_1048081" data-name="Trazado 1048081" d="M2716.563,810.5H2742.5a1.349,1.349,0,1,1,0,2.7h-25.933a1.349,1.349,0,1,1,0-2.7" transform="translate(-2352.634 -702.269)" fill="#fff"/>
          <path id="Trazado_1048082" data-name="Trazado 1048082" d="M2391.095,1433.332l-.681,3.646s2.858,2.137,9.268.387c6.383-1.749,19.937-1.376,23.823-3.846,3.886-2.5,4.113-9.722.788-12.259s-7.719-.961-10.777,1.308-19.95,6.664-19.95,6.664Z" transform="translate(-2071.207 -1230.344)" fill="#f5a99b"/>
          <path id="Trazado_1048083" data-name="Trazado 1048083" d="M2409.576,1406.917l29,7.772,9.161-26.347L2433,1357.455l-29.284-5.555c1.2,14.943,5.982,48.754,5.862,55.017" transform="translate(-2082.731 -1171.372)" fill="#f6e7de"/>
          <path id="Trazado_1048084" data-name="Trazado 1048084" d="M2671.528,1406.917l-42.932,7.772s-1.229-44.361-5.582-57.234l43.359-5.555c3.686,13.033,4.954,48.754,5.154,55.017" transform="translate(-2272.746 -1171.372)" fill="#fff"/>
          <path id="Trazado_1048085" data-name="Trazado 1048085" d="M3027.16,1514.1s16.024-2.3,21.059-4.714,16.051-7.344,21.353-7.291c5.195.067,10.229,11.645,1.976,14.716-9.427,3.5-31.795,5.461-43.292,7.051-.013,0-4.527-3.619-1.095-9.761" transform="translate(-2621.809 -1301.512)" fill="#f5a99b"/>
          <path id="Trazado_1048086" data-name="Trazado 1048086" d="M2867.874,1514.833s-1.749.44-4.674-.961-9.588-4.313-9.588-4.313l-10-.881s-1.536,0-1.575-1.068c-.067-1.082,1.455-1.389,1.455-1.389l8.76-.481.027-.908-11.191-3.405s-1.629-.708-1.148-1.829c.481-1.148,2.11-.641,2.11-.641l11.15,2.564.067-.828s-4.634-2.3-5.9-2.8c-1.3-.508-6.463-.681-6.463-.681-1.629-.027-1.2-2.524.668-2.724.841-.107,2.11-.2,2.11-.2s-.547-.868.147-1.416,3.806-.881,3.806-.881,3.018-.16,4.367.481c1.349.668,8.653,5.141,8.653,5.141l10.349,9.161s1.9,2.35,1.589,3.218-2.043,4.66-4.714,4.847" transform="translate(-2460.626 -1292.735)" fill="#f5a99b"/>
          <path id="Trazado_1048087" data-name="Trazado 1048087" d="M2870.314,1494.361a7.457,7.457,0,0,1,2.016-.561l-.027,1.162c-.561,0-1.816.187-1.977-.467.013-.04-.013-.093-.013-.134" transform="translate(-2487.023 -1294.323)" fill="#fff"/>
          <path id="Trazado_1048088" data-name="Trazado 1048088" d="M2861.058,1603.084s-1.162.28-1.375-.361.2-1.028.988-1.122c.8-.12.921-.027.921-.027l.08,1.469Z" transform="translate(-2477.767 -1387.677)" fill="#fff"/>
          <path id="Trazado_1048089" data-name="Trazado 1048089" d="M2843.973,1548c-.067-.681.4-.962,1.2-.881s.881.2.881.2l-.227,1.429c-.547-.08-1.816-.08-1.856-.748" transform="translate(-2464.194 -1340.506)" fill="#fff"/>
          <path id="Trazado_1048090" data-name="Trazado 1048090" d="M2844.8,1514.41c-.16-.668.267-1,1.069-1.068.8-.04.908.067.908.067l-.027,1.469c-.534,0-1.789.174-1.95-.467" transform="translate(-2464.885 -1311.248)" fill="#fff"/>
          <path id="Trazado_1048091" data-name="Trazado 1048091" d="M2911.841,1593.528a.23.23,0,0,1-.227-.187.194.194,0,0,1,.187-.2l3.646-.24a.194.194,0,0,1,.2.187.2.2,0,0,1-.16.227Z" transform="translate(-2522.808 -1380.19)" fill="#bb5e29"/>
          <path id="Trazado_1048092" data-name="Trazado 1048092" d="M2920.1,1546.485a.217.217,0,0,1,.08.267.174.174,0,0,1-.267.08l-4.126-2.1a.175.175,0,0,1-.08-.267.154.154,0,0,1,.24-.08Z" transform="translate(-2526.322 -1338.128)" fill="#bb5e29"/>
          <path id="Trazado_1048093" data-name="Trazado 1048093" d="M2887.5,1507.887a.2.2,0,0,1-.187-.2.194.194,0,0,1,.2-.187s1.749.107,2.27.16c.561.067,6.236,3.485,6.236,3.485a.2.2,0,0,1,.08.281.175.175,0,0,1-.24.067c-.027,0-5.635-3.378-6.1-3.445s-2.23-.16-2.257-.16" transform="translate(-2501.753 -1306.194)" fill="#bb5e29"/>
          <path id="Trazado_1048094" data-name="Trazado 1048094" d="M2947.973,1586.167a.223.223,0,0,1,.027.28.193.193,0,0,1-.28,0l-1.3-1.3a.178.178,0,0,1,0-.267.2.2,0,0,1,.267-.027Z" transform="translate(-2552.917 -1373.19)" fill="#bb5e29"/>
          <path id="Trazado_1048095" data-name="Trazado 1048095" d="M2954.043,1573.1a.186.186,0,0,1,.2.187c.027.12-.067.2-.187.2l-1.416.067a.23.23,0,0,1-.227-.187.186.186,0,0,1,.187-.2Z" transform="translate(-2558.159 -1363.034)" fill="#bb5e29"/>
          <path id="Trazado_1048096" data-name="Trazado 1048096" d="M2941.532,1608.243a.215.215,0,0,1,.066.267.188.188,0,0,1-.267.067l-1.309-.841a.214.214,0,0,1-.066-.267.188.188,0,0,1,.267-.067Z" transform="translate(-2547.344 -1392.729)" fill="#bb5e29"/>
          <path id="Trazado_1048097" data-name="Trazado 1048097" d="M2957.732,1546.884a.2.2,0,0,1,.067.28.208.208,0,0,1-.267.067l-1.309-.841a.229.229,0,0,1-.067-.281.215.215,0,0,1,.267-.067Z" transform="translate(-2561.381 -1339.568)" fill="#bb5e29"/>
          <path id="Trazado_1048098" data-name="Trazado 1048098" d="M2374.82,1354.888a4.337,4.337,0,0,1-.508-1.976c.027-1.068,1.937-2.39,1.937-2.39l2.257-3.926,5.061-1.5,4.527.788-.4,1.629-4.033.8-3.458,1.108-.748,2.684Z" transform="translate(-2057.255 -1165.48)" fill="#f5a99b"/>
          <path id="Trazado_1048099" data-name="Trazado 1048099" d="M2368.976,1389.569l-.761-5.194a1.941,1.941,0,0,1,1.162-1.656c1.162-.561,6.41-3.619,6.41-3.619l3.806.28,5.862,2.1.027,2.1-.588.187.628.922-.307,2.19-6.9-1.028-3.926,1.829.468,1.042,3.846-.761,5.435,1.162-.227,2.11-5.942-.107-2.351,1.188.508,2.03c-.107,8.733-5.422,9.521-5.982,4.834-.241-1.749-1.042-9.08-1.162-9.6" transform="translate(-2051.971 -1194.94)" fill="#f5a99b"/>
          <path id="Trazado_1048100" data-name="Trazado 1048100" d="M2382.648,1405.524a.2.2,0,0,1-.147-.227c.04-.12.147-.187.24-.147a3.565,3.565,0,0,0,1.669.027c.908-.24,5.715-2.35,5.742-2.35l.107-.027,6.81,1.2a.2.2,0,0,1-.08.387l-6.73-1.2c-.548.24-4.875,2.137-5.742,2.35a3.543,3.543,0,0,1-1.87-.013" transform="translate(-2064.349 -1215.475)" fill="#bb5e29"/>
          <path id="Trazado_1048101" data-name="Trazado 1048101" d="M2401.878,1449.545a.189.189,0,0,1-.24-.12.179.179,0,0,1,.12-.24l3-.961a.19.19,0,1,1,.12.36Z" transform="translate(-2080.921 -1254.822)" fill="#bb5e29"/>
          <path id="Trazado_1048102" data-name="Trazado 1048102" d="M2388.625,1436.2a.187.187,0,0,1-.24-.16.206.206,0,0,1,.16-.227l1.7-.347a.2.2,0,0,1,.227.16.191.191,0,0,1-.16.227Z" transform="translate(-2069.444 -1243.779)" fill="#bb5e29"/>
          <path id="Trazado_1048103" data-name="Trazado 1048103" d="M3126.773,1144.764a.387.387,0,0,1,.441-.307.369.369,0,0,1,.281.441c0,.04-3.2,15.584.28,25.025,3.5,9.521,8.119,25.332,8.132,25.372a.4.4,0,0,1-.267.467.38.38,0,0,1-.467-.267c-.027-.04-4.607-15.811-8.119-25.332-3.525-9.6-.281-25.359-.281-25.4" transform="translate(-2708.054 -991.625)" fill="#689e7d"/>
          <path id="Trazado_1048104" data-name="Trazado 1048104" d="M3099.875,1210.205a.367.367,0,0,1,.227-.481.375.375,0,0,1,.481.2l3.566,9.227a.38.38,0,0,1-.2.481.357.357,0,0,1-.481-.227Z" transform="translate(-2685.911 -1048.159)" fill="#689e7d"/>
          <path id="Trazado_1048105" data-name="Trazado 1048105" d="M3184.011,1344.648a.362.362,0,0,1-.027-.521.374.374,0,0,1,.521-.027l11.19,9.948a.352.352,0,0,1,.04.521.377.377,0,0,1-.521.027Z" transform="translate(-2758.723 -1164.534)" fill="#689e7d"/>
          <path id="Trazado_1048106" data-name="Trazado 1048106" d="M3042.607,1380.1a.361.361,0,0,1,.4-.321.392.392,0,0,1,.347.4c-.027.04-1.535,12.927-5.635,17.56a.369.369,0,1,1-.561-.481c3.926-4.473,5.448-17.119,5.448-17.159" transform="translate(-2631.513 -1195.526)" fill="#689e7d"/>
          <path id="Trazado_1048107" data-name="Trazado 1048107" d="M2743.37,1160.526a.376.376,0,0,1,.668.347,49.131,49.131,0,0,0-4.447,13.207c-1.188,7.011-1.95,14.235-1.95,14.262a.4.4,0,0,1-.427.347.36.36,0,0,1-.321-.4c0-.027.761-7.291,1.949-14.315a51.609,51.609,0,0,1,4.527-13.447" transform="translate(-2371.417 -1005.384)" fill="#689e7d"/>
          <path id="Trazado_1048108" data-name="Trazado 1048108" d="M3061.269,1708.713a.373.373,0,0,1,.481-.2.382.382,0,0,1,.2.508c-.027.04-8.159,19.416-17.627,26.627a.371.371,0,0,1-.454-.588c9.308-7.091,17.386-26.28,17.4-26.347" transform="translate(-2637.276 -1480.339)" fill="#689e7d"/>
          <path id="Trazado_1048109" data-name="Trazado 1048109" d="M2799.361,1828.867a.372.372,0,0,1,.6-.44l7.292,9.8a.373.373,0,0,1-.6.441Z" transform="translate(-2425.484 -1584.135)" fill="#689e7d"/>
          <path id="Trazado_1048110" data-name="Trazado 1048110" d="M2937.085,2023.055a.364.364,0,0,1,.24-.467.38.38,0,0,1,.468.267c.027.08,9.161,32.076,10.549,37.511a.371.371,0,0,1-.267.44.38.38,0,0,1-.468-.267c-1.389-5.408-10.509-37.4-10.522-37.484" transform="translate(-2544.86 -1752.483)" fill="#303030"/>
          <path id="Trazado_1048111" data-name="Trazado 1048111" d="M2812.141,2183.805a.367.367,0,0,1,.227-.481.38.38,0,0,1,.481.2l6.156,15.7a.376.376,0,1,1-.708.253Z" transform="translate(-2436.594 -1891.748)" fill="#303030"/>
        </g>
      </g>
    </g>
  </g>
</svg>
