<svg xmlns="http://www.w3.org/2000/svg" xmlns:xlink="http://www.w3.org/1999/xlink" width="113" height="113" viewBox="0 0 113 113">
  <defs>
    <filter id="Trazado_982547" x="0" y="0" width="113" height="113" filterUnits="userSpaceOnUse">
      <feOffset dy="3" input="SourceAlpha"/>
      <feGaussianBlur stdDeviation="3" result="blur"/>
      <feFlood flood-opacity="0.161"/>
      <feComposite operator="in" in2="blur"/>
      <feComposite in="SourceGraphic"/>
    </filter>
  </defs>
  <g id="Grupo_1209501" data-name="Grupo 1209501" transform="translate(-375.51 -7184.171)">
    <g id="Grupo_1209191" data-name="Grupo 1209191" transform="translate(384.51 7190.171)">
      <g id="Grupo_1208492" data-name="Grupo 1208492" transform="translate(0 0)">
        <g id="Grupo_1177675" data-name="Grupo 1177675" transform="translate(0 0)">
          <g id="Grupo_1176928" data-name="Grupo 1176928" transform="translate(0 0)">
            <g id="Grupo_1172322" data-name="Grupo 1172322">
              <g id="Grupo_1164700" data-name="Grupo 1164700">
                <g id="Grupo_1160931" data-name="Grupo 1160931">
                  <g id="Grupo_1160749" data-name="Grupo 1160749">
                    <g id="Grupo_1158891" data-name="Grupo 1158891">
                      <g id="Grupo_1157406" data-name="Grupo 1157406">
                        <g id="Grupo_1155793" data-name="Grupo 1155793">
                          <g id="Grupo_1154704" data-name="Grupo 1154704">
                            <g id="Grupo_1150790" data-name="Grupo 1150790">
                              <g id="Grupo_1154214" data-name="Grupo 1154214">
                                <g id="Grupo_1152583" data-name="Grupo 1152583">
                                  <g id="Grupo_1146973" data-name="Grupo 1146973">
                                    <g id="Grupo_1146954" data-name="Grupo 1146954">
                                      <g transform="matrix(1, 0, 0, 1, -9, -6)" filter="url(#Trazado_982547)">
                                        <g id="Trazado_982547-2" data-name="Trazado 982547" transform="translate(9 6)" fill="#fef9e7">
                                          <path d="M 47.5000114440918 93.49987030029297 C 41.28938293457031 93.49987030029297 35.26534652709961 92.28384399414062 29.5951976776123 89.88558959960938 C 24.11773109436035 87.56881713867188 19.19814491271973 84.25183868408203 14.97310447692871 80.02680206298828 C 10.74805164337158 75.80176544189453 7.43107795715332 70.88218688964844 5.114304542541504 65.40472412109375 C 2.716038227081299 59.73458862304688 1.500011444091797 53.71054840087891 1.500011444091797 47.49993515014648 C 1.500011444091797 41.28932189941406 2.716038227081299 35.26528167724609 5.114304542541504 29.59514808654785 C 7.43107795715332 24.1176815032959 10.74805164337158 19.1981086730957 14.97310447692871 14.97306823730469 C 19.19814491271973 10.74802875518799 24.11773109436035 7.431055068969727 29.5951976776123 5.11428165435791 C 35.26534652709961 2.716028451919556 41.28938293457031 1.500001788139343 47.5000114440918 1.500001788139343 C 53.71063995361328 1.500001788139343 59.73467636108398 2.716028451919556 65.40482330322266 5.11428165435791 C 70.88229370117188 7.431055068969727 75.8018798828125 10.74802875518799 80.02691650390625 14.97306823730469 C 84.25196838378906 19.1981086730957 87.56894683837891 24.1176815032959 89.88571929931641 29.59514808654785 C 92.28398132324219 35.26528167724609 93.50001525878906 41.28932189941406 93.50001525878906 47.49993515014648 C 93.50001525878906 53.71054840087891 92.28398132324219 59.73458862304688 89.88571929931641 65.40472412109375 C 87.56894683837891 70.88218688964844 84.25196838378906 75.80176544189453 80.02691650390625 80.02680206298828 C 75.8018798828125 84.25183868408203 70.88229370117188 87.56881713867188 65.40482330322266 89.88558959960938 C 59.73467636108398 92.28384399414062 53.71063995361328 93.49987030029297 47.5000114440918 93.49987030029297 Z" stroke="none"/>
                                          <path d="M 47.5000114440918 3 C 41.49122619628906 3 35.66378021240234 4.1761474609375 30.17951965332031 6.495796203613281 C 24.880859375 8.7369384765625 20.12153625488281 11.94596862792969 16.03376770019531 16.03373718261719 C 11.94598388671875 20.12149047851562 8.736968994140625 24.88081359863281 6.495811462402344 30.17947387695312 C 4.176162719726562 35.66371917724609 3.000007629394531 41.49116516113281 3.000007629394531 47.49993515014648 C 3.000007629394531 53.50870513916016 4.176162719726562 59.33615112304688 6.495811462402344 64.82039642333984 C 8.736968994140625 70.11905670166016 11.94598388671875 74.87837982177734 16.03376770019531 78.96613311767578 C 20.12153625488281 83.05390167236328 24.880859375 86.26293182373047 30.17951965332031 88.50407409667969 C 35.66378021240234 90.82372283935547 41.49122619628906 91.99987030029297 47.5000114440918 91.99987030029297 C 53.50879669189453 91.99987030029297 59.33624267578125 90.82372283935547 64.82050323486328 88.50407409667969 C 70.11916351318359 86.26293182373047 74.87848663330078 83.05390167236328 78.96625518798828 78.96613311767578 C 83.05403900146484 74.87837982177734 86.2630615234375 70.11905670166016 88.50421142578125 64.82039642333984 C 90.82386016845703 59.33615112304688 92.00001525878906 53.50870513916016 92.00001525878906 47.49993515014648 C 92.00001525878906 41.49116516113281 90.82386016845703 35.66371917724609 88.50421142578125 30.17947387695312 C 86.2630615234375 24.88081359863281 83.05403900146484 20.12149047851562 78.96625518798828 16.03373718261719 C 74.87848663330078 11.94596862792969 70.11916351318359 8.7369384765625 64.82050323486328 6.495796203613281 C 59.33624267578125 4.1761474609375 53.50879669189453 3 47.5000114440918 3 M 47.5000114440918 0 C 73.73353576660156 0 95.00001525878906 21.26644134521484 95.00001525878906 47.49993515014648 C 95.00001525878906 73.73342895507812 73.73353576660156 94.99987030029297 47.5000114440918 94.99987030029297 C 21.26648712158203 94.99987030029297 7.62939453125e-06 73.73342895507812 7.62939453125e-06 47.49993515014648 C 7.62939453125e-06 21.26644134521484 21.26648712158203 0 47.5000114440918 0 Z" stroke="none" fill="#f8ce24"/>
                                        </g>
                                      </g>
                                    </g>
                                  </g>
                                </g>
                              </g>
                            </g>
                          </g>
                        </g>
                      </g>
                    </g>
                  </g>
                </g>
              </g>
            </g>
          </g>
        </g>
      </g>
    </g>
    <g id="intruder_2857720" transform="translate(400 7202.664)">
      <g id="Grupo_1209499" data-name="Grupo 1209499" transform="translate(2.066 2.066)">
        <g id="Grupo_1209483" data-name="Grupo 1209483" transform="translate(31.993 38.392)">
          <path id="Trazado_1048112" data-name="Trazado 1048112" d="M49.063,55.244v.011A2.956,2.956,0,0,0,48,55.063H46.93A2.139,2.139,0,0,0,44.8,57.2v4.266a2.139,2.139,0,0,0,2.133,2.133H32a2.139,2.139,0,0,0,2.133-2.133V57.2A2.139,2.139,0,0,0,32,55.063V38H49.063V55.244Z" transform="translate(-32 -38)" fill="#e6e9ed"/>
        </g>
        <g id="Grupo_1209484" data-name="Grupo 1209484" transform="translate(0 38.392)">
          <path id="Trazado_1048113" data-name="Trazado 1048113" d="M27.595,57.2v6.4H14.573a12.575,12.575,0,0,1-3.05-24.774L14.8,38a4.266,4.266,0,1,0,8.532,0,18.366,18.366,0,0,1,10.664,5.3V55.063H31.05A3.215,3.215,0,0,0,28.789,56Z" transform="translate(-2 -38)" fill="#b4dd7f"/>
        </g>
        <g id="Grupo_1209485" data-name="Grupo 1209485" transform="translate(21.329 17.063)">
          <path id="Trazado_1048114" data-name="Trazado 1048114" d="M32.451,24.388a11.641,11.641,0,0,1-8.062,8.894L22,34V29.731L24.442,28.5a3.292,3.292,0,0,0-1.472-6.239H22V18h6.729a7.186,7.186,0,0,0-.331,2.133,4.25,4.25,0,0,0,4.052,4.255Z" transform="translate(-22 -18)" fill="#fcd770"/>
        </g>
        <g id="Grupo_1209486" data-name="Grupo 1209486" transform="translate(6.399 0)">
          <path id="Trazado_1048115" data-name="Trazado 1048115" d="M20.8,2s-4.266,4.266-4.266,12.8H8A12.794,12.794,0,0,1,20.8,2Z" transform="translate(-8 -2)" fill="#cf9e76"/>
        </g>
        <g id="Grupo_1209487" data-name="Grupo 1209487" transform="translate(19.196 0)">
          <path id="Trazado_1048116" data-name="Trazado 1048116" d="M32.8,12.664,31.379,14.8H24.266C24.266,6.266,20,2,20,2a13.2,13.2,0,0,1,8.457,3.029A12.331,12.331,0,0,1,32.8,12.664Z" transform="translate(-20 -2)" fill="#cf9e76"/>
        </g>
        <g id="Grupo_1209488" data-name="Grupo 1209488" transform="translate(14.93 0)">
          <path id="Trazado_1048117" data-name="Trazado 1048117" d="M24.532,14.8H16C16,6.266,20.266,2,20.266,2S24.532,6.266,24.532,14.8Z" transform="translate(-16 -2)" fill="#ff826e"/>
        </g>
        <g id="Grupo_1209489" data-name="Grupo 1209489" transform="translate(4.266 12.797)">
          <path id="Trazado_1048118" data-name="Trazado 1048118" d="M32.309,14l-1.664,2.5a7.14,7.14,0,0,0-.853,1.77H7.066A1.07,1.07,0,0,1,6,17.2V15.066A1.07,1.07,0,0,1,7.066,14H32.309Z" transform="translate(-6 -14)" fill="#d3a06c"/>
        </g>
        <g id="Grupo_1209490" data-name="Grupo 1209490" transform="translate(27.728 10.664)">
          <path id="Trazado_1048119" data-name="Trazado 1048119" d="M35.348,16.628a7.057,7.057,0,0,1,1.184,3.9A4.26,4.26,0,0,1,32.266,24.8a1.429,1.429,0,0,1-.213-.011A4.25,4.25,0,0,1,28,20.532a7.007,7.007,0,0,1,1.184-3.9l1.664-2.5L32.266,12Z" transform="translate(-28 -12)" fill="#69d6f4"/>
        </g>
        <g id="Grupo_1209491" data-name="Grupo 1209491" transform="translate(4.554 17.063)">
          <path id="Trazado_1048120" data-name="Trazado 1048120" d="M23.045,18v2.133C19.078,24.1,12.338,24.377,6.27,24.4a26.8,26.8,0,0,1,2.7-6.4Z" transform="translate(-6.27 -18)" fill="#e6e9ed"/>
        </g>
        <g id="Grupo_1209492" data-name="Grupo 1209492" transform="translate(44.791 55.455)">
          <path id="Trazado_1048121" data-name="Trazado 1048121" d="M50.4,57.2v2.133a3.2,3.2,0,0,1-3.2,3.2H46.133A2.139,2.139,0,0,1,44,60.4V56.133A2.139,2.139,0,0,1,46.133,54H47.2a2.956,2.956,0,0,1,1.066.192A3.165,3.165,0,0,1,50.4,57.2Z" transform="translate(-44 -54)" fill="#f0d0b4"/>
        </g>
        <g id="Grupo_1209493" data-name="Grupo 1209493" transform="translate(25.595 55.455)">
          <path id="Trazado_1048122" data-name="Trazado 1048122" d="M32.4,54a2.139,2.139,0,0,1,2.133,2.133V60.4A2.139,2.139,0,0,1,32.4,62.532H26v-6.4l1.194-1.194A3.215,3.215,0,0,1,29.455,54Z" transform="translate(-26 -54)" fill="#f0d0b4"/>
        </g>
        <g id="Grupo_1209494" data-name="Grupo 1209494" transform="translate(4.266 19.196)">
          <path id="Trazado_1048123" data-name="Trazado 1048123" d="M14.532,35.687l-1.856.267a3.28,3.28,0,0,1-.565.043,3.978,3.978,0,0,1-3.978-3.978V28.532A2.148,2.148,0,0,1,6,26.4a9.048,9.048,0,0,1,.288-2.133c6.068-.021,12.808-.3,16.775-4.266v2.133h.97a3.292,3.292,0,0,1,1.472,6.239L23.063,29.6v9.6a4.266,4.266,0,0,1-8.532,0Z" transform="translate(-6 -20)" fill="#f0d0b4"/>
        </g>
        <g id="Grupo_1209495" data-name="Grupo 1209495" transform="translate(53.322 38.392)">
          <path id="Trazado_1048124" data-name="Trazado 1048124" d="M52,38h4.266V52.93H52Z" transform="translate(-52 -38)" fill="#cf9e76"/>
        </g>
        <g id="Grupo_1209496" data-name="Grupo 1209496" transform="translate(46.924 34.126)">
          <path id="Trazado_1048125" data-name="Trazado 1048125" d="M63.063,36.133v2.133H46V36.133A2.139,2.139,0,0,1,48.133,34h12.8A2.139,2.139,0,0,1,63.063,36.133Z" transform="translate(-46 -34)" fill="#aab2bd"/>
        </g>
        <g id="Grupo_1209497" data-name="Grupo 1209497" transform="translate(49.056 19.196)">
          <path id="Trazado_1048126" data-name="Trazado 1048126" d="M54.4,34.93H48V26.4a6.4,6.4,0,1,1,12.8,0V34.93Z" transform="translate(-48 -20)" fill="#ffeaa7"/>
        </g>
        <g id="Grupo_1209498" data-name="Grupo 1209498" transform="translate(53.322 23.462)">
          <circle id="Elipse_12684" data-name="Elipse 12684" cx="2.5" cy="2.5" r="2.5" transform="translate(-0.389 -0.409)" fill="#ff826e"/>
        </g>
      </g>
      <g id="Grupo_1209500" data-name="Grupo 1209500" transform="translate(1 1)">
        <circle id="Elipse_12685" data-name="Elipse 12685" cx="1" cy="1" r="1" transform="translate(11 20.12)"/>
        <path id="Trazado_1048127" data-name="Trazado 1048127" d="M67.12,41.525v-3.2a3.2,3.2,0,0,0-2.133-3V27.661a7.465,7.465,0,0,0-14.93,0v7.661a3.2,3.2,0,0,0-2.133,3v1.066H32.993V43.4a19.243,19.243,0,0,0-8.532-3.852V35.92l1.625-.487a12.63,12.63,0,0,0,8.587-8.9,5.322,5.322,0,0,0,4.718-5.27,8.094,8.094,0,0,0-1.362-4.5l-2.967-4.45A13.755,13.755,0,0,0,21.262,1,13.873,13.873,0,0,0,7.453,13.8H7.4A2.135,2.135,0,0,0,5.266,15.93v2.133A2.135,2.135,0,0,0,7.4,20.2h.147c-1.174,2.334-2.28,5.14-2.28,7.465A3.206,3.206,0,0,0,7.4,30.678v2.6a5.055,5.055,0,0,0,5.049,5.049,5.2,5.2,0,0,0,.715-.05l.636-.091v1.441l-2.463.616A13.642,13.642,0,0,0,14.642,67.12H50.056a4.27,4.27,0,0,0,4.266-4.266V60.721a4.252,4.252,0,0,0-2.133-3.673v-.593H62.854V54.322H60.721v-12.8ZM52.189,27.661a5.332,5.332,0,1,1,10.664,0v7.465H58.588V30.664a3.2,3.2,0,1,0-2.133,0v4.462H52.189Zm4.266,0a1.066,1.066,0,1,1,1.066,1.066A1.068,1.068,0,0,1,56.455,27.661Zm-6.4,10.664a1.068,1.068,0,0,1,1.066-1.066h12.8a1.068,1.068,0,0,1,1.066,1.066v1.066H50.056ZM25.474,33.389l-1.012.3V31.52l1.855-.927a4.362,4.362,0,0,0-1.855-8.263V20.2h4.344a8.244,8.244,0,0,0-.078,1.066,5.324,5.324,0,0,0,3.793,5.079A10.506,10.506,0,0,1,25.474,33.389ZM37.259,21.262a3.2,3.2,0,0,1-6.4,0,5.964,5.964,0,0,1,1-3.316l2.2-3.293,2.2,3.293A5.964,5.964,0,0,1,37.259,21.262ZM32.929,12.5,32.068,13.8h-5.5A21.348,21.348,0,0,0,23.548,3.343,11.511,11.511,0,0,1,32.929,12.5Zm-8.5,1.293H18.1A18.843,18.843,0,0,1,21.262,3.776,18.835,18.835,0,0,1,24.429,13.8ZM18.966,3.361a21.351,21.351,0,0,0-3,10.436H9.586A11.752,11.752,0,0,1,18.966,3.361ZM7.4,15.93H30.645l-.556.833a8.069,8.069,0,0,0-.688,1.3H7.4ZM22.329,20.2v.6c-3.36,3.069-8.793,3.581-14.283,3.657A27.937,27.937,0,0,1,9.952,20.2ZM20.347,37.248l-.3-2.112-7.181,1.027a2.961,2.961,0,0,1-3.209-2.1h2.009a4.27,4.27,0,0,0,4.266-4.266H13.8a2.135,2.135,0,0,1-2.133,2.133H9.532v-3.2H8.465A1.068,1.068,0,0,1,7.4,27.661a7.267,7.267,0,0,1,.1-1.074c5.41-.049,10.864-.442,14.83-3.088v.963h2.037a2.229,2.229,0,0,1,1,4.223L22.329,30.2V40.458a3.2,3.2,0,1,1-6.4,0V37.88ZM3.133,53.477A11.5,11.5,0,0,1,11.851,42.31l2.131-.532A5.312,5.312,0,0,0,24.3,41.7a17.15,17.15,0,0,1,8.692,4.527V56.455H31.12a4.241,4.241,0,0,0-3.017,1.25l-.883.883H16.841a7.311,7.311,0,0,1-7.309-7.309V50.056H7.4v1.222a9.389,9.389,0,0,0,5.22,8.446,9.5,9.5,0,0,0,4.222,1h9.754v4.266H14.642A11.523,11.523,0,0,1,3.133,53.477ZM30.86,64.987H28.728V60.1l.883-.883a2.123,2.123,0,0,1,1.509-.625h2.94a1.068,1.068,0,0,1,1.066,1.066V63.92a1.068,1.068,0,0,1-1.066,1.066Zm21.329-2.133a2.135,2.135,0,0,1-2.133,2.133H48.99a1.068,1.068,0,0,1-1.066-1.066V59.655a1.068,1.068,0,0,1,1.066-1.066h1.066a2.135,2.135,0,0,1,2.133,2.133Zm-3.2-6.4a3.2,3.2,0,0,0-3.2,3.2V63.92a3.163,3.163,0,0,0,.2,1.066H37.062a3.138,3.138,0,0,0,.2-1.066V59.655a3.2,3.2,0,0,0-2.133-3V41.525h14.93v14.93Zm3.2-14.93h2.133v12.8H52.189Zm6.4,12.8H56.455v-12.8h2.133Z" transform="translate(-1 -1)"/>
        <path id="Trazado_1048128" data-name="Trazado 1048128" d="M35,41H45.664v2.133H35Z" transform="translate(1.259 1.658)"/>
        <path id="Trazado_1048129" data-name="Trazado 1048129" d="M35,45H45.664v2.133H35Z" transform="translate(1.259 1.924)"/>
        <path id="Trazado_1048130" data-name="Trazado 1048130" d="M35,49H45.664v2.133H35Z" transform="translate(1.259 2.189)"/>
        <path id="Trazado_1048131" data-name="Trazado 1048131" d="M37,53h4.266v2.133H37Z" transform="translate(1.392 2.455)"/>
        <path id="Trazado_1048132" data-name="Trazado 1048132" d="M37,57h4.266v2.133H37Z" transform="translate(1.392 2.721)"/>
        <path id="Trazado_1048133" data-name="Trazado 1048133" d="M53,11h2.133v6.4H53Z" transform="translate(2.455 -0.336)"/>
        <path id="Trazado_1048134" data-name="Trazado 1048134" d="M0,0H2.133V6.4H0Z" transform="translate(49.424 12.271) rotate(-22.514)"/>
        <path id="Trazado_1048135" data-name="Trazado 1048135" d="M0,0H6.4V2.133H0Z" transform="translate(59.223 17.379) rotate(-67.486)"/>
      </g>
    </g>
  </g>
</svg>
