<svg xmlns="http://www.w3.org/2000/svg" xmlns:xlink="http://www.w3.org/1999/xlink" width="113" height="113" viewBox="0 0 113 113">
  <defs>
    <filter id="Trazado_982547" x="0" y="0" width="113" height="113" filterUnits="userSpaceOnUse">
      <feOffset dy="3" input="SourceAlpha"/>
      <feGaussianBlur stdDeviation="3" result="blur"/>
      <feFlood flood-opacity="0.161"/>
      <feComposite operator="in" in2="blur"/>
      <feComposite in="SourceGraphic"/>
    </filter>
  </defs>
  <g id="Grupo_1209503" data-name="Grupo 1209503" transform="translate(-694 -7184.171)">
    <g id="Grupo_1209192" data-name="Grupo 1209192" transform="translate(703 7190.171)">
      <g id="Grupo_1209049" data-name="Grupo 1209049" transform="translate(0 0)">
        <g id="Grupo_1208493" data-name="Grupo 1208493">
          <g id="Grupo_1202104" data-name="Grupo 1202104">
            <g id="Grupo_1201923" data-name="Grupo 1201923" transform="translate(0 0)">
              <g id="Grupo_1176928" data-name="Grupo 1176928" transform="translate(0 0)">
                <g id="Grupo_1172322" data-name="Grupo 1172322">
                  <g id="Grupo_1164700" data-name="Grupo 1164700">
                    <g id="Grupo_1160931" data-name="Grupo 1160931">
                      <g id="Grupo_1160749" data-name="Grupo 1160749">
                        <g id="Grupo_1158891" data-name="Grupo 1158891">
                          <g id="Grupo_1157406" data-name="Grupo 1157406">
                            <g id="Grupo_1155793" data-name="Grupo 1155793">
                              <g id="Grupo_1154704" data-name="Grupo 1154704">
                                <g id="Grupo_1150790" data-name="Grupo 1150790">
                                  <g id="Grupo_1154214" data-name="Grupo 1154214">
                                    <g id="Grupo_1152583" data-name="Grupo 1152583">
                                      <g id="Grupo_1146973" data-name="Grupo 1146973">
                                        <g id="Grupo_1146954" data-name="Grupo 1146954">
                                          <g transform="matrix(1, 0, 0, 1, -9, -6)" filter="url(#Trazado_982547)">
                                            <g id="Trazado_982547-2" data-name="Trazado 982547" transform="translate(9 6)" fill="#fef9e7">
                                              <path d="M 47.5000114440918 93.49987030029297 C 41.28938293457031 93.49987030029297 35.26534652709961 92.28384399414062 29.5951976776123 89.88558959960938 C 24.11773109436035 87.56881713867188 19.19814491271973 84.25183868408203 14.97310447692871 80.02680206298828 C 10.74805164337158 75.80176544189453 7.43107795715332 70.88218688964844 5.114304542541504 65.40472412109375 C 2.716038227081299 59.73458862304688 1.500011444091797 53.71054840087891 1.500011444091797 47.49993515014648 C 1.500011444091797 41.28932189941406 2.716038227081299 35.26528167724609 5.114304542541504 29.59514808654785 C 7.43107795715332 24.1176815032959 10.74805164337158 19.1981086730957 14.97310447692871 14.97306823730469 C 19.19814491271973 10.74802875518799 24.11773109436035 7.431055068969727 29.5951976776123 5.11428165435791 C 35.26534652709961 2.716028451919556 41.28938293457031 1.500001788139343 47.5000114440918 1.500001788139343 C 53.71063995361328 1.500001788139343 59.73467636108398 2.716028451919556 65.40482330322266 5.11428165435791 C 70.88229370117188 7.431055068969727 75.8018798828125 10.74802875518799 80.02691650390625 14.97306823730469 C 84.25196838378906 19.1981086730957 87.56894683837891 24.1176815032959 89.88571929931641 29.59514808654785 C 92.28398132324219 35.26528167724609 93.50001525878906 41.28932189941406 93.50001525878906 47.49993515014648 C 93.50001525878906 53.71054840087891 92.28398132324219 59.73458862304688 89.88571929931641 65.40472412109375 C 87.56894683837891 70.88218688964844 84.25196838378906 75.80176544189453 80.02691650390625 80.02680206298828 C 75.8018798828125 84.25183868408203 70.88229370117188 87.56881713867188 65.40482330322266 89.88558959960938 C 59.73467636108398 92.28384399414062 53.71063995361328 93.49987030029297 47.5000114440918 93.49987030029297 Z" stroke="none"/>
                                              <path d="M 47.5000114440918 3 C 41.49122619628906 3 35.66378021240234 4.1761474609375 30.17951965332031 6.495796203613281 C 24.880859375 8.7369384765625 20.12153625488281 11.94596862792969 16.03376770019531 16.03373718261719 C 11.94598388671875 20.12149047851562 8.736968994140625 24.88081359863281 6.495811462402344 30.17947387695312 C 4.176162719726562 35.66371917724609 3.000007629394531 41.49116516113281 3.000007629394531 47.49993515014648 C 3.000007629394531 53.50870513916016 4.176162719726562 59.33615112304688 6.495811462402344 64.82039642333984 C 8.736968994140625 70.11905670166016 11.94598388671875 74.87837982177734 16.03376770019531 78.96613311767578 C 20.12153625488281 83.05390167236328 24.880859375 86.26293182373047 30.17951965332031 88.50407409667969 C 35.66378021240234 90.82372283935547 41.49122619628906 91.99987030029297 47.5000114440918 91.99987030029297 C 53.50879669189453 91.99987030029297 59.33624267578125 90.82372283935547 64.82050323486328 88.50407409667969 C 70.11916351318359 86.26293182373047 74.87848663330078 83.05390167236328 78.96625518798828 78.96613311767578 C 83.05403900146484 74.87837982177734 86.2630615234375 70.11905670166016 88.50421142578125 64.82039642333984 C 90.82386016845703 59.33615112304688 92.00001525878906 53.50870513916016 92.00001525878906 47.49993515014648 C 92.00001525878906 41.49116516113281 90.82386016845703 35.66371917724609 88.50421142578125 30.17947387695312 C 86.2630615234375 24.88081359863281 83.05403900146484 20.12149047851562 78.96625518798828 16.03373718261719 C 74.87848663330078 11.94596862792969 70.11916351318359 8.7369384765625 64.82050323486328 6.495796203613281 C 59.33624267578125 4.1761474609375 53.50879669189453 3 47.5000114440918 3 M 47.5000114440918 0 C 73.73353576660156 0 95.00001525878906 21.26644134521484 95.00001525878906 47.49993515014648 C 95.00001525878906 73.73342895507812 73.73353576660156 94.99987030029297 47.5000114440918 94.99987030029297 C 21.26648712158203 94.99987030029297 7.62939453125e-06 73.73342895507812 7.62939453125e-06 47.49993515014648 C 7.62939453125e-06 21.26644134521484 21.26648712158203 0 47.5000114440918 0 Z" stroke="none" fill="#f8ce24"/>
                                            </g>
                                          </g>
                                        </g>
                                      </g>
                                    </g>
                                  </g>
                                </g>
                              </g>
                            </g>
                          </g>
                        </g>
                      </g>
                    </g>
                  </g>
                </g>
              </g>
            </g>
          </g>
        </g>
      </g>
    </g>
    <g id="risk-assessment_13089619" transform="translate(704.989 7189.44)">
      <path id="Trazado_1048136" data-name="Trazado 1048136" d="M54.791,23.241h7.4a.908.908,0,0,1,.908.908v9.685a10.377,10.377,0,0,1,1.067,9.106l2.76,1.823.079-.119a.906.906,0,0,1,1.256-.255l6.1,4.03A3.523,3.523,0,0,1,70.483,54.3l-6.1-4.03a.906.906,0,0,1-.255-1.256l.078-.118-1.1-.726V60.693l.774,1.341v0l4.464,7.731h0a3.562,3.562,0,0,1-3.091,5.358H63.1v1.841a.908.908,0,0,1-.908.908H21.415a.908.908,0,0,1-.908-.908V73.221H16.919a.908.908,0,0,1-.908-.908V19.494a.908.908,0,0,1,.908-.908H49.76a.906.906,0,0,1,.647.271Z" fill="#121209" fill-rule="evenodd"/>
      <path id="Trazado_1048137" data-name="Trazado 1048137" d="M270.834,121.175a.888.888,0,0,1-.067-.1,8.526,8.526,0,0,0-2.291-2.226h0a8.573,8.573,0,0,0-1.686-.863.909.909,0,0,1-.107-.04,8.537,8.537,0,0,0-10.032,3.324v0A8.533,8.533,0,0,0,259.07,133.1l0,0a8.539,8.539,0,0,0,7.6.905.9.9,0,0,1,.131-.048,8.5,8.5,0,0,0,4.094-3.278h0a8.541,8.541,0,0,0-.062-9.5Zm-12.974.894a7.087,7.087,0,0,1,11.827,7.813l-.055.084,0,0a7.09,7.09,0,0,1-9.762,1.921l-.084-.055,0,0A7.09,7.09,0,0,1,257.86,122.068Z" transform="translate(-209.353 -86.508)" fill="#fccb68" fill-rule="evenodd"/>
      <path id="Trazado_1048138" data-name="Trazado 1048138" d="M345.8,77.076V70.409H341.12l1.733,1.733a.905.905,0,0,1,.266.642v2.57a10.417,10.417,0,0,1,1.517.83l.084.055,0,0A10.4,10.4,0,0,1,345.8,77.076Z" transform="translate(-284.513 -45.352)" fill="#9b999c" fill-rule="evenodd"/>
      <path id="Trazado_1048139" data-name="Trazado 1048139" d="M389.7,228.064q.036.022.07.048l2.458,1.623.73-1.105-2.529-1.67q-.164.286-.348.565l-.055.084,0,0Q389.867,227.843,389.7,228.064Z" transform="translate(-327.027 -182.355)" fill="#f7ad4c" fill-rule="evenodd"/>
      <path id="Trazado_1048140" data-name="Trazado 1048140" d="M268.984,311.956a.906.906,0,0,1-.064-.111l-3.534-6.121v0a1.767,1.767,0,0,0-.57-.607.885.885,0,0,1-.1-.062,1.869,1.869,0,0,0-1.736.017v0a1.759,1.759,0,0,0-.64.654l-4.465,7.734h0l-1.431,2.478-.029.05-3,5.2a1.756,1.756,0,0,0-.243.881,1.7,1.7,0,0,0,.06.446.872.872,0,0,1,.029.1,1.866,1.866,0,0,0,.152.336h0a1.679,1.679,0,0,0,1.523.878h17.861a1.746,1.746,0,0,0,1.523-2.633v0l-4.464-7.731h0l-.867-1.5Zm-4.213,8.985a.908.908,0,1,1-1.816,0h0a.908.908,0,1,1,1.816,0Zm0-3.2a.908.908,0,1,1-1.816,0v-6.786a.908.908,0,1,1,1.816,0Z" transform="translate(-207.543 -250.516)" fill="#da9a0a" fill-rule="evenodd"/>
      <path id="Trazado_1048141" data-name="Trazado 1048141" d="M300.533,311.956a.914.914,0,0,1-.064-.111l-3.534-6.121v0a1.767,1.767,0,0,0-.57-.607.888.888,0,0,1-.1-.062,1.869,1.869,0,0,0-1.736.017v0a1.759,1.759,0,0,0-.64.654l-4.465,7.734h0l-.205.356a29.891,29.891,0,0,0,5.287.715v-3.571a.908.908,0,0,1,1.816,0v3.6a29.989,29.989,0,0,0,5.389-.565l-.308-.533h0Z" transform="translate(-239.091 -250.516)" fill="#f0ac29" fill-rule="evenodd"/>
      <g id="Grupo_1209502" data-name="Grupo 1209502" transform="translate(22.323 21.687)">
        <path id="Trazado_1048142" data-name="Trazado 1048142" d="M359.812,258.167V247.831a10.294,10.294,0,0,1-2.68,1.719v4.4a3.643,3.643,0,0,1,.8.967h0Z" transform="translate(-320.849 -222.307)" fill="#9b999c" fill-rule="evenodd"/>
        <path id="Trazado_1048143" data-name="Trazado 1048143" d="M66.564,456.136v2.838h38.963v-.933H91.63a3.526,3.526,0,0,1-3.091-1.786v0c-.022-.038-.043-.077-.064-.115Z" transform="translate(-66.564 -404.601)" fill="#9b999c" fill-rule="evenodd"/>
        <path id="Trazado_1048144" data-name="Trazado 1048144" d="M293.563,43.421v4.837H298.4l-1.729-1.729-.009-.009Z" transform="translate(-265.218 -43.421)" fill="#9b999c" fill-rule="evenodd"/>
      </g>
      <path id="Trazado_1048145" data-name="Trazado 1048145" d="M69.519,41.072h-7.03a.908.908,0,0,1-.908-.908v-7.03H30.556v51H56.54a3.572,3.572,0,0,1,.488-1.633l2.238-3.876-7.6-.008a.9.9,0,1,1,0-1.809l8.641.01,1.183-2.05v0l.544-.943-10.369-.011a.9.9,0,1,1,0-1.809l11.413.012,2.877-4.983a3.548,3.548,0,0,1,1.3-1.313h0a3.549,3.549,0,0,1,1.787-.472,3.712,3.712,0,0,1,.47.03V62.27q-.148.035-.3.065a10.316,10.316,0,0,1-7.776-1.5l-.084-.055,0,0q-.2-.133-.385-.273l-9.306-.01a.9.9,0,1,1,0-1.809l7.42.008A10.383,10.383,0,0,1,56.8,51.984l-5.134-.006a.9.9,0,1,1,0-1.809l5.33.006a10.288,10.288,0,0,1,1.1-3l-6.431-.007a.9.9,0,1,1,0-1.809l7.7.009A10.367,10.367,0,0,1,69.52,42.124V41.073ZM64.222,63.5a.9.9,0,1,1,0,1.809L51.669,65.3a.9.9,0,1,1,0-1.809ZM46.375,71.189l.214-.18a.9.9,0,0,1,1.164,1.383l-1.378,1.161v6.573a.908.908,0,0,1-.908.908H35.853a.908.908,0,0,1-.908-.908V70.511a.908.908,0,0,1,.908-.908h9.614a.908.908,0,0,1,.908.908Zm0-13.32.214-.18a.9.9,0,0,1,1.164,1.383l-1.378,1.161V66.8a.908.908,0,0,1-.908.908H35.853a.908.908,0,0,1-.908-.908V57.191a.908.908,0,0,1,.908-.908h9.614a.908.908,0,0,1,.908.908Zm0-13.32.214-.18a.9.9,0,0,1,1.164,1.383l-1.378,1.16v6.573a.908.908,0,0,1-.908.908H35.853a.908.908,0,0,1-.908-.908V43.87a.908.908,0,0,1,.908-.908h9.614a.908.908,0,0,1,.908.908Z" transform="translate(-12.729 -12.731)" fill="#f0eef0" fill-rule="evenodd"/>
      <path id="Trazado_1048146" data-name="Trazado 1048146" d="M135.186,41.072h-7.03a.908.908,0,0,1-.908-.908v-7.03H108.7a29.661,29.661,0,0,0-3.108,9.828h5.541a.908.908,0,0,1,.908.908v.678l.214-.18a.9.9,0,1,1,1.164,1.383l-1.378,1.16v6.573a.908.908,0,0,1-.908.908h-4.861q.247.958.557,1.89h4.3a.908.908,0,0,1,.908.908v.678l.214-.18a.9.9,0,0,1,1.164,1.383l-1.378,1.161V65.78A30.013,30.013,0,0,0,118.99,72l9.759.011,2.877-4.983a3.548,3.548,0,0,1,1.3-1.313h0a3.549,3.549,0,0,1,1.787-.472,3.709,3.709,0,0,1,.469.03V62.27q-.148.035-.3.065a10.316,10.316,0,0,1-7.776-1.5l-.084-.055,0,0q-.2-.133-.385-.273l-9.306-.01a.9.9,0,0,1,0-1.809l7.42.008a10.383,10.383,0,0,1-2.285-6.706l-5.134-.006a.9.9,0,1,1,0-1.809l5.33.006a10.288,10.288,0,0,1,1.1-3l-6.431-.007a.9.9,0,1,1,0-1.809l7.7.009a10.367,10.367,0,0,1,10.147-3.247V41.073Zm-8.479,34.481.452-.784v0l.544-.943-5.493-.006a29.666,29.666,0,0,0,4.5,1.736Zm3.181-12.05a.9.9,0,1,1,0,1.809L117.335,65.3a.9.9,0,1,1,0-1.809Z" transform="translate(-78.396 -12.731)" fill="#fff" fill-rule="evenodd"/>
      <path id="Trazado_1048147" data-name="Trazado 1048147" d="M81.343,130.178a.9.9,0,0,1,1.128-1.412l2.2,1.762,3.373-2.841v-1.3h-7.8v7.8h7.8v-4.135l-2.776,2.338a.9.9,0,0,1-1.146.014Z" transform="translate(-56.217 -94.341)" fill="#528948" fill-rule="evenodd"/>
      <path id="Trazado_1048148" data-name="Trazado 1048148" d="M103.506,129.319l1.512,1.209,3.373-2.841v-1.3h-4.818c-.05.708-.077,1.423-.077,2.144q0,.395.01.787Zm.527,4.867q-.229-1.195-.362-2.421l.8.639a.9.9,0,0,0,1.146-.014l2.776-2.338v4.135Z" transform="translate(-76.561 -94.341)" fill="#5fa26d" fill-rule="evenodd"/>
      <path id="Trazado_1048149" data-name="Trazado 1048149" d="M81.343,236.853a.9.9,0,1,1,1.128-1.412l2.2,1.762,3.373-2.841v-1.3h-7.8v7.8h7.8v-4.134l-2.776,2.338a.9.9,0,0,1-1.146.014Z" transform="translate(-56.217 -187.696)" fill="#528948" fill-rule="evenodd"/>
      <path id="Trazado_1048150" data-name="Trazado 1048150" d="M122.027,235.655l1.536-1.293v-1.3h-2.731q.537,1.329,1.2,2.592Zm1.535,2.613v-1.543l-.635.535q.308.51.636,1.007Z" transform="translate(-91.732 -187.696)" fill="#5fa26d" fill-rule="evenodd"/>
      <path id="Trazado_1048151" data-name="Trazado 1048151" d="M81.343,343.528a.9.9,0,1,1,1.128-1.412l2.2,1.762,3.373-2.841v-1.3h-7.8v7.8h7.8V343.4l-2.776,2.339a.9.9,0,0,1-1.146.014Z" transform="translate(-56.217 -281.05)" fill="#528948" fill-rule="evenodd"/>
      <path id="Trazado_1048152" data-name="Trazado 1048152" d="M419.313,241.327l-1.885,2.854,5.348,3.532a1.711,1.711,0,1,0,1.884-2.856Z" transform="translate(-351.292 -194.928)" fill="#f7ad4c" fill-rule="evenodd"/>
      <path id="Trazado_1048153" data-name="Trazado 1048153" d="M285.572,143.666a5.275,5.275,0,0,0-1.848,9.571h0a5.272,5.272,0,0,0,7.307-1.5h0a5.276,5.276,0,0,0-5.461-8.074Z" transform="translate(-232.21 -109.368)" fill="#d7ebf9" fill-rule="evenodd"/>
    </g>
  </g>
</svg>
