<svg xmlns="http://www.w3.org/2000/svg" xmlns:xlink="http://www.w3.org/1999/xlink" width="113" height="113" viewBox="0 0 113 113">
  <defs>
    <filter id="Trazado_982547" x="0" y="0" width="113" height="113" filterUnits="userSpaceOnUse">
      <feOffset dy="3" input="SourceAlpha"/>
      <feGaussianBlur stdDeviation="3" result="blur"/>
      <feFlood flood-opacity="0.161"/>
      <feComposite operator="in" in2="blur"/>
      <feComposite in="SourceGraphic"/>
    </filter>
  </defs>
  <g id="Grupo_1209527" data-name="Grupo 1209527" transform="translate(-4805.021 -7205.388)">
    <g id="Grupo_1209194" data-name="Grupo 1209194" transform="translate(4814.021 7211.388)">
      <g id="Grupo_1209049" data-name="Grupo 1209049" transform="translate(0 0)">
        <g id="Grupo_1208493" data-name="Grupo 1208493">
          <g id="Grupo_1202104" data-name="Grupo 1202104">
            <g id="Grupo_1201923" data-name="Grupo 1201923" transform="translate(0 0)">
              <g id="Grupo_1176928" data-name="Grupo 1176928" transform="translate(0 0)">
                <g id="Grupo_1172322" data-name="Grupo 1172322">
                  <g id="Grupo_1164700" data-name="Grupo 1164700">
                    <g id="Grupo_1160931" data-name="Grupo 1160931">
                      <g id="Grupo_1160749" data-name="Grupo 1160749">
                        <g id="Grupo_1158891" data-name="Grupo 1158891">
                          <g id="Grupo_1157406" data-name="Grupo 1157406">
                            <g id="Grupo_1155793" data-name="Grupo 1155793">
                              <g id="Grupo_1154704" data-name="Grupo 1154704">
                                <g id="Grupo_1150790" data-name="Grupo 1150790">
                                  <g id="Grupo_1154214" data-name="Grupo 1154214">
                                    <g id="Grupo_1152583" data-name="Grupo 1152583">
                                      <g id="Grupo_1146973" data-name="Grupo 1146973">
                                        <g id="Grupo_1146954" data-name="Grupo 1146954">
                                          <g transform="matrix(1, 0, 0, 1, -9, -6)" filter="url(#Trazado_982547)">
                                            <g id="Trazado_982547-2" data-name="Trazado 982547" transform="translate(9 6)" fill="#fef9e7">
                                              <path d="M 47.5000114440918 93.49987030029297 C 41.28938293457031 93.49987030029297 35.26534652709961 92.28384399414062 29.5951976776123 89.88558959960938 C 24.11773109436035 87.56881713867188 19.19814491271973 84.25183868408203 14.97310447692871 80.02680206298828 C 10.74805164337158 75.80176544189453 7.43107795715332 70.88218688964844 5.114304542541504 65.40472412109375 C 2.716038227081299 59.73458862304688 1.500011444091797 53.71054840087891 1.500011444091797 47.49993515014648 C 1.500011444091797 41.28932189941406 2.716038227081299 35.26528167724609 5.114304542541504 29.59514808654785 C 7.43107795715332 24.1176815032959 10.74805164337158 19.1981086730957 14.97310447692871 14.97306823730469 C 19.19814491271973 10.74802875518799 24.11773109436035 7.431055068969727 29.5951976776123 5.11428165435791 C 35.26534652709961 2.716028451919556 41.28938293457031 1.500001788139343 47.5000114440918 1.500001788139343 C 53.71063995361328 1.500001788139343 59.73467636108398 2.716028451919556 65.40482330322266 5.11428165435791 C 70.88229370117188 7.431055068969727 75.8018798828125 10.74802875518799 80.02691650390625 14.97306823730469 C 84.25196838378906 19.1981086730957 87.56894683837891 24.1176815032959 89.88571929931641 29.59514808654785 C 92.28398132324219 35.26528167724609 93.50001525878906 41.28932189941406 93.50001525878906 47.49993515014648 C 93.50001525878906 53.71054840087891 92.28398132324219 59.73458862304688 89.88571929931641 65.40472412109375 C 87.56894683837891 70.88218688964844 84.25196838378906 75.80176544189453 80.02691650390625 80.02680206298828 C 75.8018798828125 84.25183868408203 70.88229370117188 87.56881713867188 65.40482330322266 89.88558959960938 C 59.73467636108398 92.28384399414062 53.71063995361328 93.49987030029297 47.5000114440918 93.49987030029297 Z" stroke="none"/>
                                              <path d="M 47.5000114440918 3 C 41.49122619628906 3 35.66378021240234 4.1761474609375 30.17951965332031 6.495796203613281 C 24.880859375 8.7369384765625 20.12153625488281 11.94596862792969 16.03376770019531 16.03373718261719 C 11.94598388671875 20.12149047851562 8.736968994140625 24.88081359863281 6.495811462402344 30.17947387695312 C 4.176162719726562 35.66371917724609 3.000007629394531 41.49116516113281 3.000007629394531 47.49993515014648 C 3.000007629394531 53.50870513916016 4.176162719726562 59.33615112304688 6.495811462402344 64.82039642333984 C 8.736968994140625 70.11905670166016 11.94598388671875 74.87837982177734 16.03376770019531 78.96613311767578 C 20.12153625488281 83.05390167236328 24.880859375 86.26293182373047 30.17951965332031 88.50407409667969 C 35.66378021240234 90.82372283935547 41.49122619628906 91.99987030029297 47.5000114440918 91.99987030029297 C 53.50879669189453 91.99987030029297 59.33624267578125 90.82372283935547 64.82050323486328 88.50407409667969 C 70.11916351318359 86.26293182373047 74.87848663330078 83.05390167236328 78.96625518798828 78.96613311767578 C 83.05403900146484 74.87837982177734 86.2630615234375 70.11905670166016 88.50421142578125 64.82039642333984 C 90.82386016845703 59.33615112304688 92.00001525878906 53.50870513916016 92.00001525878906 47.49993515014648 C 92.00001525878906 41.49116516113281 90.82386016845703 35.66371917724609 88.50421142578125 30.17947387695312 C 86.2630615234375 24.88081359863281 83.05403900146484 20.12149047851562 78.96625518798828 16.03373718261719 C 74.87848663330078 11.94596862792969 70.11916351318359 8.7369384765625 64.82050323486328 6.495796203613281 C 59.33624267578125 4.1761474609375 53.50879669189453 3 47.5000114440918 3 M 47.5000114440918 0 C 73.73353576660156 0 95.00001525878906 21.26644134521484 95.00001525878906 47.49993515014648 C 95.00001525878906 73.73342895507812 73.73353576660156 94.99987030029297 47.5000114440918 94.99987030029297 C 21.26648712158203 94.99987030029297 7.62939453125e-06 73.73342895507812 7.62939453125e-06 47.49993515014648 C 7.62939453125e-06 21.26644134521484 21.26648712158203 0 47.5000114440918 0 Z" stroke="none" fill="#f8ce24"/>
                                            </g>
                                          </g>
                                        </g>
                                      </g>
                                    </g>
                                  </g>
                                </g>
                              </g>
                            </g>
                          </g>
                        </g>
                      </g>
                    </g>
                  </g>
                </g>
              </g>
            </g>
          </g>
        </g>
      </g>
    </g>
    <g id="redesign_9789473" transform="translate(4808.361 7221.623)">
      <g id="Grupo_1209526" data-name="Grupo 1209526" transform="translate(27.206 8.989)">
        <g id="Grupo_1209518" data-name="Grupo 1209518" transform="translate(0)">
          <path id="Trazado_1048181" data-name="Trazado 1048181" d="M36.816,16H73.473a1.155,1.155,0,0,1,.846.35l6.714,6.714a1.155,1.155,0,0,1,.35.846V74.117a1.2,1.2,0,0,1-1.2,1.2H36.816a1.2,1.2,0,0,1-1.2-1.2V17.2A1.2,1.2,0,0,1,36.816,16Z" transform="translate(-35.62 -16)" fill="#eceff1" fill-rule="evenodd"/>
          <path id="Trazado_1048182" data-name="Trazado 1048182" d="M36.816,16H39V75.313H36.816a1.2,1.2,0,0,1-1.2-1.2V17.2A1.2,1.2,0,0,1,36.816,16Z" transform="translate(-35.62 -16)" fill="#d1d1d6" fill-rule="evenodd"/>
          <path id="Trazado_1048183" data-name="Trazado 1048183" d="M345.962,16.839a1.2,1.2,0,0,1,.35.247l6.714,6.714a1.2,1.2,0,0,1,.247.35H346.56a.6.6,0,0,1-.6-.6Z" transform="translate(-307.613 -16.735)" fill="#a79ba7" fill-rule="evenodd"/>
        </g>
        <g id="Grupo_1209519" data-name="Grupo 1209519" transform="translate(18.072 2.224)">
          <circle id="Elipse_12687" data-name="Elipse 12687" cx="2.471" cy="2.471" r="2.471" transform="translate(0 3.495) rotate(-45)" fill="#ffe177"/>
          <path id="Trazado_1048184" data-name="Trazado 1048184" d="M207.1,42.26a2.471,2.471,0,0,1,0,4.943,2.5,2.5,0,0,1-.434-.038,2.472,2.472,0,0,0,0-4.867A2.5,2.5,0,0,1,207.1,42.26Z" transform="translate(-203.605 -41.239)" fill="#ffd064" fill-rule="evenodd"/>
        </g>
        <g id="Grupo_1209520" data-name="Grupo 1209520" transform="translate(10.524 2.223)">
          <circle id="Elipse_12688" data-name="Elipse 12688" cx="2.471" cy="2.471" r="2.471" transform="translate(0 3.495) rotate(-45)" fill="#ffe177"/>
          <path id="Trazado_1048185" data-name="Trazado 1048185" d="M146.017,42.26a2.471,2.471,0,0,1,0,4.943,2.5,2.5,0,0,1-.434-.038,2.472,2.472,0,0,0,0-4.867A2.5,2.5,0,0,1,146.017,42.26Z" transform="translate(-142.519 -41.238)" fill="#ffd064" fill-rule="evenodd"/>
        </g>
        <g id="Grupo_1209521" data-name="Grupo 1209521" transform="translate(3.5 2.739)">
          <circle id="Elipse_12689" data-name="Elipse 12689" cx="2.471" cy="2.471" r="2.471" transform="translate(0 1.137) rotate(-13.3)" fill="#ffe177"/>
          <path id="Trazado_1048186" data-name="Trazado 1048186" d="M84.932,42.26a2.471,2.471,0,0,1,0,4.943,2.5,2.5,0,0,1-.434-.038,2.472,2.472,0,0,0,0-4.867A2.5,2.5,0,0,1,84.932,42.26Z" transform="translate(-81.958 -41.754)" fill="#ffd064" fill-rule="evenodd"/>
        </g>
        <g id="Grupo_1209522" data-name="Grupo 1209522" transform="translate(8.763 11.866)">
          <path id="Trazado_1048187" data-name="Trazado 1048187" d="M123.466,114.366a12.051,12.051,0,0,1,3.528,1.463l2.293-1.018,2.7,2.7-1.018,2.292a12.045,12.045,0,0,1,1.463,3.529l2.339.9v3.821l-2.34.9a12.051,12.051,0,0,1-1.463,3.528l1.018,2.293-2.7,2.7-2.292-1.018a12.048,12.048,0,0,1-3.529,1.463l-.9,2.339h-3.821l-.9-2.34a12.051,12.051,0,0,1-3.528-1.463l-2.293,1.018-2.7-2.7,1.018-2.292a12.048,12.048,0,0,1-1.463-3.529l-2.339-.9v-3.821l2.339-.9a12.048,12.048,0,0,1,1.463-3.529l-1.018-2.292,2.7-2.7,2.293,1.018a12.051,12.051,0,0,1,3.528-1.463l.9-2.34h3.821Z" transform="translate(-106.536 -112.026)" fill="#a79ba7" fill-rule="evenodd"/>
          <path id="Trazado_1048188" data-name="Trazado 1048188" d="M150.724,136.459l-2.293,1.018-.353-.353,2.149-.955Q150.473,136.32,150.724,136.459Zm9.151-22.095a12.051,12.051,0,0,1,3.528,1.463l-.652.289a15.893,15.893,0,0,0-4.024-1.752l-.9-2.34h1.148Zm3.529,22.1a12.048,12.048,0,0,1-3.529,1.463l-.9,2.339h-1.148l.9-2.339a15.888,15.888,0,0,0,4.025-1.752Zm-15.325-21.3.353-.353,2.293,1.018q-.251.139-.5.289Zm16.822,0,.795-.353,2.7,2.7-1.018,2.292a12.044,12.044,0,0,1,1.463,3.529l2.339.9v3.821l-2.34.9a12.051,12.051,0,0,1-1.463,3.528l1.018,2.293-2.7,2.7-.795-.353,2.349-2.349-1.018-2.293a12.049,12.049,0,0,0,1.463-3.528l2.34-.9v-3.821l-2.339-.9a12.051,12.051,0,0,0-1.463-3.529l1.018-2.292Z" transform="translate(-142.945 -112.024)" fill="#837683" fill-rule="evenodd"/>
          <circle id="Elipse_12690" data-name="Elipse 12690" cx="6.664" cy="6.664" r="6.664" transform="translate(6.102 9.154) rotate(-13.3)" fill="#eceff1"/>
          <path id="Trazado_1048189" data-name="Trazado 1048189" d="M173.527,172.351a6.664,6.664,0,0,0,0,13.328q.268,0,.53-.021a6.664,6.664,0,0,1,0-13.286Q173.795,172.351,173.527,172.351Z" transform="translate(-159.408 -164.896)" fill="#d1d1d6" fill-rule="evenodd"/>
        </g>
        <g id="Grupo_1209523" data-name="Grupo 1209523" transform="translate(19.931 23.066)">
          <path id="Trazado_1048190" data-name="Trazado 1048190" d="M196.918,230.1V205.12a2.463,2.463,0,0,1,2.459-2.459h.983a2.463,2.463,0,0,1,2.459,2.459V230.1l-2.95,5.11Z" transform="translate(-196.918 -202.661)" fill="#e3a76f" fill-rule="evenodd"/>
          <path id="Trazado_1048191" data-name="Trazado 1048191" d="M213.991,202.686a2.457,2.457,0,0,1,.349-.025h.983a2.463,2.463,0,0,1,2.458,2.459V230.1l-2.95,5.11-.84-1.456,2.11-3.654V205.119A2.465,2.465,0,0,0,213.991,202.686Z" transform="translate(-211.881 -202.661)" fill="#c48958" fill-rule="evenodd"/>
          <path id="Trazado_1048192" data-name="Trazado 1048192" d="M199.868,429.807l-2.95-5.11h5.9Z" transform="translate(-196.918 -397.26)" fill="#837683" fill-rule="evenodd"/>
          <path id="Trazado_1048193" data-name="Trazado 1048193" d="M214.831,429.807l-.84-1.456,2.11-3.654h1.681Z" transform="translate(-211.881 -397.26)" fill="#685e68" fill-rule="evenodd"/>
          <path id="Trazado_1048194" data-name="Trazado 1048194" d="M196.917,207.184V205.12a2.463,2.463,0,0,1,2.458-2.459h.983a2.463,2.463,0,0,1,2.459,2.459v2.064Z" transform="translate(-196.917 -202.661)" fill="#837683" fill-rule="evenodd"/>
          <path id="Trazado_1048195" data-name="Trazado 1048195" d="M213.99,202.686a2.458,2.458,0,0,1,.349-.025h.984a2.463,2.463,0,0,1,2.459,2.459v2.064H216.1v-2.064A2.465,2.465,0,0,0,213.99,202.686Z" transform="translate(-211.88 -202.661)" fill="#685e68" fill-rule="evenodd"/>
        </g>
        <g id="Grupo_1209524" data-name="Grupo 1209524" transform="translate(37.278 29.777)">
          <ellipse id="Elipse_12691" data-name="Elipse 12691" cx="7.74" cy="7.74" rx="7.74" ry="7.74" transform="matrix(1, -0.022, 0.022, 1, 0, 0.341)" fill="#8ac9fe"/>
          <path id="Trazado_1048196" data-name="Trazado 1048196" d="M395.1,258.388a7.74,7.74,0,0,1,0,15.48,7.819,7.819,0,0,1-.85-.047,7.74,7.74,0,0,0,0-15.387A7.826,7.826,0,0,1,395.1,258.388Z" transform="translate(-387.208 -258.213)" fill="#60b7ff" fill-rule="evenodd"/>
        </g>
        <g id="Grupo_1209525" data-name="Grupo 1209525" transform="translate(35.866 36.934)">
          <path id="Trazado_1048197" data-name="Trazado 1048197" d="M335.716,315.23l8.679,16.76a.618.618,0,0,1-.549.9H326.488a.618.618,0,0,1-.549-.9l8.679-16.76a.618.618,0,0,1,1.1,0Z" transform="translate(-325.868 -314.896)" fill="#6cf5c2" fill-rule="evenodd"/>
          <path id="Trazado_1048198" data-name="Trazado 1048198" d="M395.48,315.229l8.679,16.76a.618.618,0,0,1-.549.9h-1.746a.618.618,0,0,0,.549-.9l-8.355-16.134.324-.627a.618.618,0,0,1,1.1,0Z" transform="translate(-385.632 -314.895)" fill="#00e499" fill-rule="evenodd"/>
        </g>
      </g>
      <path id="Trazado_1048199" data-name="Trazado 1048199" d="M48.578,13.531A1.174,1.174,0,1,1,47.4,14.7,1.176,1.176,0,0,1,48.578,13.531Zm0,4.325A3.151,3.151,0,1,0,45.428,14.7,3.155,3.155,0,0,0,48.578,17.856Zm-7.547-4.325A1.174,1.174,0,1,1,39.857,14.7,1.177,1.177,0,0,1,41.031,13.531Zm0,4.325A3.151,3.151,0,1,0,37.88,14.7,3.154,3.154,0,0,0,41.031,17.856Zm-7.549-1.977A1.174,1.174,0,1,1,34.656,14.7,1.175,1.175,0,0,1,33.482,15.879ZM36.633,14.7a3.151,3.151,0,1,0-3.151,3.151A3.154,3.154,0,0,0,36.633,14.7ZM64.1,62.931l8.071-15.583,8.069,15.583Zm7.68,4.176v-2.2h-9.3a.988.988,0,0,1-.877-1.443l5.149-9.945a8.728,8.728,0,0,1,5.033-15.558V17.393H65.955a1.589,1.589,0,0,1-1.587-1.587V9.977H28.2a.21.21,0,0,0-.208.208V67.107a.209.209,0,0,0,.208.206H71.576a.209.209,0,0,0,.208-.206Zm-1.4-51.691H66.345V11.376Zm8.54,31.265A6.751,6.751,0,1,0,67.684,51.72L71.3,44.743a.989.989,0,0,1,1.756,0l3.613,6.977A6.72,6.72,0,0,0,78.925,46.681Zm3.822,16.784L77.6,53.52A8.728,8.728,0,0,0,73.761,38.1V16.9a2.139,2.139,0,0,0-.64-1.545L66.407,8.64A2.146,2.146,0,0,0,64.863,8H28.2a2.188,2.188,0,0,0-2.185,2.185V67.107A2.186,2.186,0,0,0,28.2,69.291H71.576a2.187,2.187,0,0,0,2.185-2.184v-2.2h8.107a.989.989,0,0,0,.878-1.443ZM60.707,37.555a11.046,11.046,0,0,1-1.342,3.239.989.989,0,0,0-.062.921l.743,1.672L58.3,45.129l-1.672-.743a.991.991,0,0,0-.92.062,11.1,11.1,0,0,1-1.883.927V41.536a7.653,7.653,0,1,0-7.878,0v3.838a11.033,11.033,0,0,1-1.882-.926.989.989,0,0,0-.921-.062l-1.672.743-1.742-1.742.743-1.672a.989.989,0,0,0-.062-.919,11.061,11.061,0,0,1-1.343-3.24.989.989,0,0,0-.607-.693l-1.705-.656V33.742l1.706-.658a.99.99,0,0,0,.607-.693,11.052,11.052,0,0,1,1.342-3.239.988.988,0,0,0,.062-.921l-.743-1.672,1.742-1.742,1.672.743a.989.989,0,0,0,.921-.062,11.043,11.043,0,0,1,3.238-1.342A.991.991,0,0,0,48,23.55l.657-1.706h2.463l.657,1.706a.991.991,0,0,0,.693.607A11.041,11.041,0,0,1,55.711,25.5a.989.989,0,0,0,.921.062l1.672-.743,1.743,1.742L59.3,28.232a.992.992,0,0,0,.062.919,11.043,11.043,0,0,1,1.344,3.24.988.988,0,0,0,.607.693l1.705.658V36.2l-1.706.657a.989.989,0,0,0-.607.693ZM49.89,62.626l-1.238-2.145h2.476Zm.492-31.559H49.4a3.45,3.45,0,0,0-3.448,3.446v4.552a5.676,5.676,0,1,1,7.878,0V34.513a3.45,3.45,0,0,0-3.447-3.446ZM51.852,36.4H47.929V34.513a1.471,1.471,0,0,1,1.47-1.469h.983a1.471,1.471,0,0,1,1.469,1.469ZM47.929,58.5V38.372h3.923V58.5Zm14.2-15.3-.812-1.829A13.053,13.053,0,0,0,62.5,38.525l1.865-.719A.986.986,0,0,0,65,36.884V33.063a.987.987,0,0,0-.634-.922L62.5,31.423a12.986,12.986,0,0,0-1.182-2.852l.812-1.828a.989.989,0,0,0-.2-1.1l-2.7-2.7a.99.99,0,0,0-1.1-.2l-1.827.812a13,13,0,0,0-2.851-1.181L52.723,20.5a.987.987,0,0,0-.922-.634H47.979a.988.988,0,0,0-.922.634l-.718,1.866a12.982,12.982,0,0,0-2.852,1.181l-1.827-.812a.988.988,0,0,0-1.1.2l-2.7,2.7a.99.99,0,0,0-.2,1.1l.812,1.828a13.046,13.046,0,0,0-1.182,2.852l-1.865.718a.987.987,0,0,0-.634.922v3.822a.986.986,0,0,0,.634.922l1.865.718a12.991,12.991,0,0,0,1.182,2.853l-.812,1.828a.988.988,0,0,0,.2,1.1l2.7,2.7a.99.99,0,0,0,1.1.2l1.827-.812a13.014,13.014,0,0,0,2.464,1.065V59.492a.985.985,0,0,0,.133.494L49.034,65.1a.988.988,0,0,0,1.712,0L53.7,59.987a.986.986,0,0,0,.133-.494V47.464A13.014,13.014,0,0,0,56.293,46.4l1.829.812a.986.986,0,0,0,1.1-.2l2.7-2.7A.987.987,0,0,0,62.128,43.205Z" fill-rule="evenodd"/>
    </g>
  </g>
</svg>
