<svg xmlns="http://www.w3.org/2000/svg" xmlns:xlink="http://www.w3.org/1999/xlink" width="113" height="113" viewBox="0 0 113 113">
  <defs>
    <filter id="Trazado_982547" x="0" y="0" width="113" height="113" filterUnits="userSpaceOnUse">
      <feOffset dy="3" input="SourceAlpha"/>
      <feGaussianBlur stdDeviation="3" result="blur"/>
      <feFlood flood-opacity="0.161"/>
      <feComposite operator="in" in2="blur"/>
      <feComposite in="SourceGraphic"/>
    </filter>
  </defs>
  <g id="Grupo_1209532" data-name="Grupo 1209532" transform="translate(-4475.021 -7623.388)">
    <g id="Grupo_1209195" data-name="Grupo 1209195" transform="translate(4484.021 7629.388)">
      <g id="Grupo_1209049" data-name="Grupo 1209049" transform="translate(0 0)">
        <g id="Grupo_1208493" data-name="Grupo 1208493">
          <g id="Grupo_1202104" data-name="Grupo 1202104">
            <g id="Grupo_1201923" data-name="Grupo 1201923" transform="translate(0 0)">
              <g id="Grupo_1176928" data-name="Grupo 1176928" transform="translate(0 0)">
                <g id="Grupo_1172322" data-name="Grupo 1172322">
                  <g id="Grupo_1164700" data-name="Grupo 1164700">
                    <g id="Grupo_1160931" data-name="Grupo 1160931">
                      <g id="Grupo_1160749" data-name="Grupo 1160749">
                        <g id="Grupo_1158891" data-name="Grupo 1158891">
                          <g id="Grupo_1157406" data-name="Grupo 1157406">
                            <g id="Grupo_1155793" data-name="Grupo 1155793">
                              <g id="Grupo_1154704" data-name="Grupo 1154704">
                                <g id="Grupo_1150790" data-name="Grupo 1150790">
                                  <g id="Grupo_1154214" data-name="Grupo 1154214">
                                    <g id="Grupo_1152583" data-name="Grupo 1152583">
                                      <g id="Grupo_1146973" data-name="Grupo 1146973">
                                        <g id="Grupo_1146954" data-name="Grupo 1146954">
                                          <g transform="matrix(1, 0, 0, 1, -9, -6)" filter="url(#Trazado_982547)">
                                            <g id="Trazado_982547-2" data-name="Trazado 982547" transform="translate(9 6)" fill="#fef9e7">
                                              <path d="M 47.5000114440918 93.49987030029297 C 41.28938293457031 93.49987030029297 35.26534652709961 92.28384399414062 29.5951976776123 89.88558959960938 C 24.11773109436035 87.56881713867188 19.19814491271973 84.25183868408203 14.97310447692871 80.02680206298828 C 10.74805164337158 75.80176544189453 7.43107795715332 70.88218688964844 5.114304542541504 65.40472412109375 C 2.716038227081299 59.73458862304688 1.500011444091797 53.71054840087891 1.500011444091797 47.49993515014648 C 1.500011444091797 41.28932189941406 2.716038227081299 35.26528167724609 5.114304542541504 29.59514808654785 C 7.43107795715332 24.1176815032959 10.74805164337158 19.1981086730957 14.97310447692871 14.97306823730469 C 19.19814491271973 10.74802875518799 24.11773109436035 7.431055068969727 29.5951976776123 5.11428165435791 C 35.26534652709961 2.716028451919556 41.28938293457031 1.500001788139343 47.5000114440918 1.500001788139343 C 53.71063995361328 1.500001788139343 59.73467636108398 2.716028451919556 65.40482330322266 5.11428165435791 C 70.88229370117188 7.431055068969727 75.8018798828125 10.74802875518799 80.02691650390625 14.97306823730469 C 84.25196838378906 19.1981086730957 87.56894683837891 24.1176815032959 89.88571929931641 29.59514808654785 C 92.28398132324219 35.26528167724609 93.50001525878906 41.28932189941406 93.50001525878906 47.49993515014648 C 93.50001525878906 53.71054840087891 92.28398132324219 59.73458862304688 89.88571929931641 65.40472412109375 C 87.56894683837891 70.88218688964844 84.25196838378906 75.80176544189453 80.02691650390625 80.02680206298828 C 75.8018798828125 84.25183868408203 70.88229370117188 87.56881713867188 65.40482330322266 89.88558959960938 C 59.73467636108398 92.28384399414062 53.71063995361328 93.49987030029297 47.5000114440918 93.49987030029297 Z" stroke="none"/>
                                              <path d="M 47.5000114440918 3 C 41.49122619628906 3 35.66378021240234 4.1761474609375 30.17951965332031 6.495796203613281 C 24.880859375 8.7369384765625 20.12153625488281 11.94596862792969 16.03376770019531 16.03373718261719 C 11.94598388671875 20.12149047851562 8.736968994140625 24.88081359863281 6.495811462402344 30.17947387695312 C 4.176162719726562 35.66371917724609 3.000007629394531 41.49116516113281 3.000007629394531 47.49993515014648 C 3.000007629394531 53.50870513916016 4.176162719726562 59.33615112304688 6.495811462402344 64.82039642333984 C 8.736968994140625 70.11905670166016 11.94598388671875 74.87837982177734 16.03376770019531 78.96613311767578 C 20.12153625488281 83.05390167236328 24.880859375 86.26293182373047 30.17951965332031 88.50407409667969 C 35.66378021240234 90.82372283935547 41.49122619628906 91.99987030029297 47.5000114440918 91.99987030029297 C 53.50879669189453 91.99987030029297 59.33624267578125 90.82372283935547 64.82050323486328 88.50407409667969 C 70.11916351318359 86.26293182373047 74.87848663330078 83.05390167236328 78.96625518798828 78.96613311767578 C 83.05403900146484 74.87837982177734 86.2630615234375 70.11905670166016 88.50421142578125 64.82039642333984 C 90.82386016845703 59.33615112304688 92.00001525878906 53.50870513916016 92.00001525878906 47.49993515014648 C 92.00001525878906 41.49116516113281 90.82386016845703 35.66371917724609 88.50421142578125 30.17947387695312 C 86.2630615234375 24.88081359863281 83.05403900146484 20.12149047851562 78.96625518798828 16.03373718261719 C 74.87848663330078 11.94596862792969 70.11916351318359 8.7369384765625 64.82050323486328 6.495796203613281 C 59.33624267578125 4.1761474609375 53.50879669189453 3 47.5000114440918 3 M 47.5000114440918 0 C 73.73353576660156 0 95.00001525878906 21.26644134521484 95.00001525878906 47.49993515014648 C 95.00001525878906 73.73342895507812 73.73353576660156 94.99987030029297 47.5000114440918 94.99987030029297 C 21.26648712158203 94.99987030029297 7.62939453125e-06 73.73342895507812 7.62939453125e-06 47.49993515014648 C 7.62939453125e-06 21.26644134521484 21.26648712158203 0 47.5000114440918 0 Z" stroke="none" fill="#f8ce24"/>
                                            </g>
                                          </g>
                                        </g>
                                      </g>
                                    </g>
                                  </g>
                                </g>
                              </g>
                            </g>
                          </g>
                        </g>
                      </g>
                    </g>
                  </g>
                </g>
              </g>
            </g>
          </g>
        </g>
      </g>
    </g>
    <g id="proof_18610504" transform="translate(4487.12 7640.534)">
      <g id="Grupo_1209531" data-name="Grupo 1209531" transform="translate(11.207 8.58)">
        <g id="Grupo_1209528" data-name="Grupo 1209528" transform="translate(17.627 0)">
          <path id="Trazado_1048200" data-name="Trazado 1048200" d="M198.005,74.608V19.5H159.716a4.1,4.1,0,0,0-4.088,4.088V70.524a4.1,4.1,0,0,0,4.088,4.084Z" transform="translate(-155.628 -19.5)" fill="#6cf5c2" fill-rule="evenodd"/>
          <path id="Trazado_1048201" data-name="Trazado 1048201" d="M159.716,66.437V19.5a4.1,4.1,0,0,0-4.088,4.088V70.507a4.1,4.1,0,0,1,4.088-4.07Z" transform="translate(-155.628 -19.5)" fill="#00e499" fill-rule="evenodd"/>
          <path id="Trazado_1048202" data-name="Trazado 1048202" d="M198.005,398.924v-8.172H159.716a4.086,4.086,0,1,0,0,8.172Z" transform="translate(-155.628 -343.815)" fill="#eceff1" fill-rule="evenodd"/>
          <path id="Trazado_1048203" data-name="Trazado 1048203" d="M159.716,390.752v8.172a4.086,4.086,0,1,1,0-8.172Z" transform="translate(-155.628 -343.815)" fill="#d1d1d6" fill-rule="evenodd"/>
        </g>
        <g id="Grupo_1209529" data-name="Grupo 1209529" transform="translate(23.527 51.024)">
          <path id="Trazado_1048204" data-name="Trazado 1048204" d="M202.3,423.083h7.169v8.077a.374.374,0,0,1-.583.31l-2.847-1.922-3.165,2a.374.374,0,0,1-.574-.316Z" transform="translate(-202.298 -423.083)" fill="#8ac9fe" fill-rule="evenodd"/>
          <path id="Trazado_1048205" data-name="Trazado 1048205" d="M203.631,431.068l-.759.48a.374.374,0,0,1-.574-.316v-8.149h1.333Zm5.836-.1v.2a.374.374,0,0,1-.583.31l-2.847-1.922.688-.435Z" transform="translate(-202.298 -423.083)" fill="#60b7ff" fill-rule="evenodd"/>
        </g>
        <g id="Grupo_1209530" data-name="Grupo 1209530" transform="translate(0 14.689)">
          <path id="Trazado_1048206" data-name="Trazado 1048206" d="M89.641,295.3a13.431,13.431,0,0,0,2.277,2.509l-6.193,6.072-2.358-2.43Z" transform="translate(-74.875 -275.121)" fill="#a79ba7" fill-rule="evenodd"/>
          <path id="Trazado_1048207" data-name="Trazado 1048207" d="M89.6,294.979a1.557,1.557,0,0,0,.675.9L84.12,302l-.754-.827Z" transform="translate(-74.875 -274.84)" fill="#837683" fill-rule="evenodd"/>
          <path id="Trazado_1048208" data-name="Trazado 1048208" d="M19.212,342.845,16.551,340.1a1.224,1.224,0,0,1,.025-1.726l7.373-7.153a1.224,1.224,0,0,1,1.726.027l2.661,2.742a1.225,1.225,0,0,1-.025,1.726l-7.373,7.153A1.224,1.224,0,0,1,19.212,342.845Z" transform="translate(-16.208 -306.202)" fill="#f1ba84" fill-rule="evenodd"/>
          <path id="Trazado_1048209" data-name="Trazado 1048209" d="M25.04,331.224l-7.373,7.153a1.224,1.224,0,0,0-.025,1.726l2.661,2.744a1.247,1.247,0,0,0,.33.239,1.226,1.226,0,0,1-1.421-.239L16.551,340.1a1.224,1.224,0,0,1,.025-1.726l7.373-7.153a1.227,1.227,0,0,1,1.4-.215A1.218,1.218,0,0,0,25.04,331.224Z" transform="translate(-16.208 -306.204)" fill="#e3a76f" fill-rule="evenodd"/>
          <path id="Trazado_1048210" data-name="Trazado 1048210" d="M119.8,135.688a13.424,13.424,0,1,0,13.424,13.424A13.423,13.423,0,0,0,119.8,135.688Z" transform="translate(-94.977 -135.688)" fill="#8ac9fe" fill-rule="evenodd"/>
          <path id="Trazado_1048211" data-name="Trazado 1048211" d="M119.8,135.688a13.424,13.424,0,1,0,0,26.847c.219,0,.436-.007.653-.016a13.424,13.424,0,0,1,0-26.816C120.237,135.692,120.02,135.688,119.8,135.688Z" transform="translate(-94.977 -135.688)" fill="#60b7ff" fill-rule="evenodd"/>
          <path id="Trazado_1048212" data-name="Trazado 1048212" d="M140.98,159.932a10.358,10.358,0,1,0,10.359,10.358A10.359,10.359,0,0,0,140.98,159.932Z" transform="translate(-116.156 -156.867)" fill="#eceff1" fill-rule="evenodd"/>
          <path id="Trazado_1048213" data-name="Trazado 1048213" d="M207.715,159.932c-.235,0-.468.007-.7.023a10.359,10.359,0,0,1,0,20.67c.233.016.465.025.7.025a10.358,10.358,0,1,0,0-20.717Z" transform="translate(-182.892 -156.867)" fill="#d1d1d6" fill-rule="evenodd"/>
        </g>
      </g>
      <path id="Trazado_1048214" data-name="Trazado 1048214" d="M27.321,59.733V50.906a1.011,1.011,0,1,1,2.023,0v4.751a5.14,5.14,0,0,1,2.122-.968V52.633a1.011,1.011,0,1,1,2.023,0V54.59h36.8V9.023h-36.8v12a1.011,1.011,0,1,1-2.023,0V9.192a3.146,3.146,0,0,0-2.122,2.964V22.479a1.011,1.011,0,0,1-2.023,0V12.156A5.172,5.172,0,0,1,32.477,7H71.3a1.011,1.011,0,0,1,1.011,1.011V63.887A1.011,1.011,0,0,1,71.3,64.9H42.6v3.75a1.012,1.012,0,0,1-1.577.838l-2.931-1.978-3.232,2.043A1.011,1.011,0,0,1,33.3,68.7V64.9h-.827a5.169,5.169,0,0,1-5.156-5.152Zm5.156-3.12a3.142,3.142,0,0,0-3.133,3.12v.013a3.14,3.14,0,0,0,3.133,3.129H33.3V59.746a1.011,1.011,0,0,1,1.011-1.011h7.269A1.011,1.011,0,0,1,42.6,59.746v3.129H70.288V56.613Zm2.85,4.144v6.1l2.239-1.415a1.011,1.011,0,0,1,1.106.017l1.9,1.283V60.757ZM24.652,51.018a2.228,2.228,0,0,1-.477,2.505l-7.3,7.08a2.226,2.226,0,0,1-3.138-.047l-2.634-2.715a2.226,2.226,0,0,1,.047-3.138l7.3-7.08a2.227,2.227,0,0,1,2.436-.439l2.955-2.868a14.3,14.3,0,1,1,3.623,3.973Zm-2.239-2.5.925.954,2.591-2.514q-.471-.47-.9-.982ZM36.031,24.568A12.274,12.274,0,1,0,48.3,36.842,12.274,12.274,0,0,0,36.031,24.568Zm0,1.094a11.18,11.18,0,1,1-11.18,11.18,11.18,11.18,0,0,1,11.18-11.18Zm0,2.023a9.157,9.157,0,1,0,9.157,9.157,9.157,9.157,0,0,0-9.157-9.157Zm-4.941,8.956a1.011,1.011,0,0,1,1.43-1.43l2.713,2.713L40,33.155a1.011,1.011,0,1,1,1.43,1.43l-5.484,5.484a1.012,1.012,0,0,1-1.43,0Zm-15.9,22.506a.2.2,0,0,0,.278,0l7.3-7.079a.2.2,0,0,0,0-.278l-2.634-2.715a.2.2,0,0,0-.278,0l-7.3,7.08a.2.2,0,0,0,0,.278ZM42.187,19.961a1.011,1.011,0,0,1,0-2.023h19.4a1.011,1.011,0,0,1,0,2.023ZM46.2,25.7a1.011,1.011,0,0,1,0-2.023H65.937a1.011,1.011,0,0,1,0,2.023Zm4.576,5.734a1.011,1.011,0,0,1,0-2.023H65.937a1.011,1.011,0,0,1,0,2.023Zm1.636,5.734a1.011,1.011,0,0,1,0-2.023H65.937a1.011,1.011,0,0,1,0,2.023ZM51.438,42.9a1.011,1.011,0,1,1,0-2.023h14.5a1.011,1.011,0,0,1,0,2.023ZM47.73,48.632a1.011,1.011,0,1,1,0-2.023H65.937a1.011,1.011,0,0,1,0,2.023Z" fill-rule="evenodd"/>
    </g>
  </g>
</svg>
