<svg xmlns="http://www.w3.org/2000/svg" xmlns:xlink="http://www.w3.org/1999/xlink" width="108" height="108" viewBox="0 0 108 108">
  <defs>
    <filter id="Trazado_904820" x="0" y="0" width="108" height="108" filterUnits="userSpaceOnUse">
      <feOffset dy="3" input="SourceAlpha"/>
      <feGaussianBlur stdDeviation="3" result="blur"/>
      <feFlood flood-opacity="0.161"/>
      <feComposite operator="in" in2="blur"/>
      <feComposite in="SourceGraphic"/>
    </filter>
  </defs>
  <g id="Grupo_1209538" data-name="Grupo 1209538" transform="translate(-191 -7741.783)">
    <g id="Grupo_1209198" data-name="Grupo 1209198" transform="translate(-9 6979.783)">
      <g id="Grupo_1202705" data-name="Grupo 1202705" transform="translate(209 768)">
        <g id="Grupo_1173585" data-name="Grupo 1173585" transform="translate(0 0)">
          <g id="Grupo_1173428" data-name="Grupo 1173428">
            <g id="Grupo_1171958" data-name="Grupo 1171958">
              <g id="Grupo_1167341" data-name="Grupo 1167341">
                <g id="Grupo_1166792" data-name="Grupo 1166792">
                  <g transform="matrix(1, 0, 0, 1, -9, -6)" filter="url(#Trazado_904820)">
                    <g id="Trazado_904820-2" data-name="Trazado 904820" transform="translate(9 6)" fill="#fef9e7">
                      <path d="M 44.99999618530273 88.50002288818359 C 39.12687301635742 88.50002288818359 33.43022155761719 87.35009765625 28.06829643249512 85.08218383789062 C 22.88852119445801 82.89133453369141 18.23629570007324 79.75460815429688 14.24084663391113 75.75916290283203 C 10.24540901184082 71.76371002197266 7.108683586120605 67.11148834228516 4.917821407318115 61.93171310424805 C 2.649921178817749 56.56978607177734 1.499996185302734 50.87313461303711 1.499996185302734 45.0000114440918 C 1.499996185302734 39.12688827514648 2.649921178817749 33.43023681640625 4.917821407318115 28.06829833984375 C 7.108683586120605 22.88852310180664 10.24540901184082 18.2363109588623 14.24084663391113 14.2408618927002 C 18.23629570007324 10.24541187286377 22.88852119445801 7.108686447143555 28.06829643249512 4.917823791503906 C 33.43022155761719 2.649924039840698 39.12687301635742 1.499998927116394 44.99999618530273 1.499998927116394 C 50.87311935424805 1.499998927116394 56.56977081298828 2.649924039840698 61.93169784545898 4.917823791503906 C 67.11147308349609 7.108686447143555 71.76369476318359 10.24541187286377 75.75914764404297 14.2408618927002 C 79.75458526611328 18.2363109588623 82.89131164550781 22.88852310180664 85.08216857910156 28.06829833984375 C 87.35007476806641 33.43023681640625 88.5 39.12688827514648 88.5 45.0000114440918 C 88.5 50.87313461303711 87.35007476806641 56.56978607177734 85.08216857910156 61.93171310424805 C 82.89131164550781 67.11148834228516 79.75458526611328 71.76371002197266 75.75914764404297 75.75916290283203 C 71.76369476318359 79.75460815429688 67.11147308349609 82.89133453369141 61.93169784545898 85.08218383789062 C 56.56977081298828 87.35009765625 50.87311935424805 88.50002288818359 44.99999618530273 88.50002288818359 Z" stroke="none"/>
                      <path d="M 44.99999618530273 3 C 39.32870864868164 3 33.82865142822266 4.110054016113281 28.65262603759766 6.299339294433594 C 23.65165710449219 8.414566040039062 19.15968322753906 11.44333648681641 15.301513671875 15.30152893066406 C 11.44333648681641 19.15969848632812 8.414566040039062 23.65165710449219 6.299339294433594 28.65264129638672 C 4.110054016113281 33.82866668701172 2.999992370605469 39.3287239074707 2.999992370605469 45.0000114440918 C 2.999992370605469 50.67129898071289 4.110054016113281 56.17135620117188 6.299339294433594 61.34738159179688 C 8.414566040039062 66.34836578369141 11.44333648681641 70.84032440185547 15.301513671875 74.69849395751953 C 19.15968322753906 78.55668640136719 23.65165710449219 81.58545684814453 28.65262603759766 83.70068359375 C 33.82865142822266 85.88996887207031 39.32870864868164 87.00002288818359 44.99999618530273 87.00002288818359 C 50.67128372192383 87.00002288818359 56.17134094238281 85.88996887207031 61.34736633300781 83.70068359375 C 66.34834289550781 81.58545684814453 70.84030914306641 78.55668640136719 74.69847869873047 74.69849395751953 C 78.55665588378906 70.84032440185547 81.58542633056641 66.34836578369141 83.70065307617188 61.34738159179688 C 85.88993835449219 56.17135620117188 87 50.67129898071289 87 45.0000114440918 C 87 39.3287239074707 85.88993835449219 33.82866668701172 83.70065307617188 28.65264129638672 C 81.58542633056641 23.65165710449219 78.55665588378906 19.15969848632812 74.69847869873047 15.30152893066406 C 70.84030914306641 11.44333648681641 66.34834289550781 8.414566040039062 61.34736633300781 6.299339294433594 C 56.17134094238281 4.110054016113281 50.67128372192383 3 44.99999618530273 3 M 44.99999618530273 0 C 69.85281372070312 0 90 20.14719390869141 90 45.0000114440918 C 90 69.85282897949219 69.85281372070312 90.00002288818359 44.99999618530273 90.00002288818359 C 20.14717864990234 90.00002288818359 -7.62939453125e-06 69.85282897949219 -7.62939453125e-06 45.0000114440918 C -7.62939453125e-06 20.14719390869141 20.14717864990234 0 44.99999618530273 0 Z" stroke="none" fill="#887013"/>
                    </g>
                  </g>
                </g>
              </g>
            </g>
          </g>
        </g>
      </g>
    </g>
    <g id="analysis_13728280" transform="translate(207.994 7756.779)">
      <g id="Grupo_1209537" data-name="Grupo 1209537" transform="translate(7.953 7.954)">
        <g id="Grupo_1209533" data-name="Grupo 1209533" transform="translate(0 0)">
          <path id="Trazado_1048215" data-name="Trazado 1048215" d="M51.232,50.461a2.213,2.213,0,0,1,2.208,2.208V93.313a2.213,2.213,0,0,1-2.208,2.211H17.213A2.213,2.213,0,0,1,15,93.313V52.669a2.213,2.213,0,0,1,2.208-2.208Z" transform="translate(-15.005 -46.254)" fill="#837683" fill-rule="evenodd"/>
          <path id="Trazado_1048216" data-name="Trazado 1048216" d="M296.259,95.525h2.851a2.213,2.213,0,0,0,2.208-2.211V52.669a2.213,2.213,0,0,0-2.208-2.208h-2.851Z" transform="translate(-262.883 -46.254)" fill="#685e68" fill-rule="evenodd"/>
          <path id="Trazado_1048217" data-name="Trazado 1048217" d="M72.192,76.353h-30.3a1,1,0,0,0-1,1v36.928a.994.994,0,0,0,1,.992h30.3a1,1,0,0,0,1-.992V77.348A1,1,0,0,0,72.192,76.353Z" transform="translate(-37.824 -69.073)" fill="#eceff1" fill-rule="evenodd"/>
          <path id="Trazado_1048218" data-name="Trazado 1048218" d="M296.259,115.269h.992c.032,0,.064,0,.093,0a1,1,0,0,0,.9-.989V77.348a1,1,0,0,0-.9-.989.927.927,0,0,0-.093-.006h-.992Z" transform="translate(-262.883 -69.073)" fill="#d1d1d6" fill-rule="evenodd"/>
          <path id="Trazado_1048219" data-name="Trazado 1048219" d="M106.275,17.879h3.151a.973.973,0,0,0,.911-.6,3.756,3.756,0,0,1,6.9,0,.973.973,0,0,0,.911.6H121.3a1,1,0,0,1,1,1V22.63a1,1,0,0,1-1,.992H106.275a.993.993,0,0,1-.992-.992V18.874A1,1,0,0,1,106.275,17.879Z" transform="translate(-94.57 -15.007)" fill="#e3a76f" fill-rule="evenodd"/>
          <path id="Trazado_1048220" data-name="Trazado 1048220" d="M120.305,43.958H105.283a.993.993,0,0,0,.992.992H121.3a1,1,0,0,0,1-.992V40.2a1,1,0,0,0-1-1v3.756a1,1,0,0,1-.992,1Z" transform="translate(-94.57 -36.335)" fill="#c48958" fill-rule="evenodd"/>
        </g>
        <g id="Grupo_1209534" data-name="Grupo 1209534" transform="translate(25.604 26.617)">
          <path id="Trazado_1048221" data-name="Trazado 1048221" d="M379.129,378.714a11.008,11.008,0,0,1-1.867,2.057l5.078,4.978,1.933-1.993Z" transform="translate(-359.878 -362.17)" fill="#a79ba7" fill-rule="evenodd"/>
          <path id="Trazado_1048222" data-name="Trazado 1048222" d="M389.177,378.433a1.276,1.276,0,0,1-.554.741l5.044,5.013.618-.678Z" transform="translate(-369.89 -361.923)" fill="#837683" fill-rule="evenodd"/>
          <path id="Trazado_1048223" data-name="Trazado 1048223" d="M416.606,419.6l2.181-2.25a1,1,0,0,0-.02-1.415l-6.044-5.865a1,1,0,0,0-1.415.022l-2.182,2.248a1,1,0,0,0,.02,1.415l6.044,5.865a1,1,0,0,0,1.415-.02Z" transform="translate(-387.713 -389.559)" fill="#f1ba84" fill-rule="evenodd"/>
          <path id="Trazado_1048224" data-name="Trazado 1048224" d="M432.129,410.073l6.044,5.865a1,1,0,0,1,.02,1.415l-2.181,2.25a1.02,1.02,0,0,1-.27.2,1,1,0,0,0,1.165-.2l2.181-2.25a1,1,0,0,0-.02-1.415l-6.044-5.865a1.006,1.006,0,0,0-1.144-.176A1,1,0,0,1,432.129,410.073Z" transform="translate(-408.013 -389.561)" fill="#e3a76f" fill-rule="evenodd"/>
          <path id="Trazado_1048225" data-name="Trazado 1048225" d="M241.77,239.3a11.005,11.005,0,1,1-11.005,11.005A11,11,0,0,1,241.77,239.3Z" transform="translate(-230.765 -239.302)" fill="#8ac9fe" fill-rule="evenodd"/>
          <path id="Trazado_1048226" data-name="Trazado 1048226" d="M319.529,239.3a11.005,11.005,0,1,1,0,22.01c-.18,0-.357-.005-.535-.013a11.005,11.005,0,0,0,0-21.984C319.172,239.306,319.349,239.3,319.529,239.3Z" transform="translate(-308.524 -239.302)" fill="#60b7ff" fill-rule="evenodd"/>
          <path id="Trazado_1048227" data-name="Trazado 1048227" d="M260.885,260.99a8.431,8.431,0,1,1-8.431,8.431A8.432,8.432,0,0,1,260.885,260.99Z" transform="translate(-249.88 -258.416)" fill="#eceff1" fill-rule="evenodd"/>
          <path id="Trazado_1048228" data-name="Trazado 1048228" d="M260.885,260.99c.191,0,.381.006.57.018a8.431,8.431,0,0,0,0,16.824c-.189.013-.379.02-.57.02a8.431,8.431,0,0,1,0-16.863Z" transform="translate(-249.88 -258.416)" fill="#d1d1d6" fill-rule="evenodd"/>
        </g>
        <path id="Trazado_1048229" data-name="Trazado 1048229" d="M310.613,124.253A11.309,11.309,0,1,1,307,146.284l-6.017,1.611a.593.593,0,0,1-.727-.727l1.295-4.835a11.309,11.309,0,0,1,9.058-18.08Z" transform="translate(-265.567 -111.289)" fill="#ffe177" fill-rule="evenodd"/>
        <path id="Trazado_1048230" data-name="Trazado 1048230" d="M318.2,124.268q.295-.015.593-.015a11.309,11.309,0,0,1,0,22.618q-.3,0-.592-.015a11.309,11.309,0,0,0,0-22.587Zm-3.016,22.015-6.017,1.611a.593.593,0,0,1-.573-.154l-.008-.008,6.044-1.618Q314.9,146.206,315.183,146.284Z" transform="translate(-273.746 -111.289)" fill="#ffd064" fill-rule="evenodd"/>
        <g id="Grupo_1209536" data-name="Grupo 1209536" transform="translate(10.871 11.658)">
          <path id="Trazado_1048231" data-name="Trazado 1048231" d="M117.429,122.278a4.682,4.682,0,0,1,3.38-3.674.153.153,0,0,1,.167.209c-1.344,3.269,2.47,5.683.234,9.643a7.454,7.454,0,0,1-6.6,3.6c-7.633.059-9.367-7.4-7.048-12.932a.153.153,0,0,1,.293.063c-.172,5.123,4.681,4.621,3.039.939-1.212-2.716,1.334-6.78,5.414-6.88a.153.153,0,0,1,.131.236C113.84,117.473,118,118.577,117.429,122.278Z" transform="translate(-106.61 -113.25)" fill="#fe646f" fill-rule="evenodd"/>
          <g id="Grupo_1209535" data-name="Grupo 1209535" transform="translate(0.575 0)">
            <path id="Trazado_1048232" data-name="Trazado 1048232" d="M111.459,120.164q.167-.527.38-1.037a.153.153,0,0,1,.293.063c-.078,2.317.872,3.483,1.784,3.725C113.006,123.18,111.692,122.368,111.459,120.164Zm8.531-6.871q.292-.036.6-.043a.153.153,0,0,1,.136.078.167.167,0,0,1,0,.157c-2.231,4.53,1.54,4.957.986,8.793a5.949,5.949,0,0,0-.66,1.615c.574-3.7-3.634-6.42-1.03-10.408a.153.153,0,0,0,0-.157A.147.147,0,0,0,119.99,113.293Zm4.566,5.46a3.3,3.3,0,0,1,.526-.148.153.153,0,0,1,.167.209c-1.344,3.269,2.47,5.683.234,9.643a7.454,7.454,0,0,1-6.6,3.6q-.23,0-.452-.005a7.407,7.407,0,0,0,6.344-3.6c2.236-3.96-1.578-6.374-.234-9.643A.155.155,0,0,0,124.557,118.753Z" transform="translate(-111.459 -113.25)" fill="#fd4755" fill-rule="evenodd"/>
            <path id="Trazado_1048233" data-name="Trazado 1048233" d="M141.308,202.628c-3.536-.237-5.313-3.344-3.886-6.625a3.946,3.946,0,0,0,2.187,2.292c-.664-1.553-.427-3.931,3.04-4.974a4.923,4.923,0,0,0,.314,4.7,3.753,3.753,0,0,0,1.558-3.037C147.437,197.124,145.873,202.394,141.308,202.628Z" transform="translate(-133.906 -183.819)" fill="#fd4755" fill-rule="evenodd"/>
          </g>
        </g>
      </g>
      <path id="Trazado_1048234" data-name="Trazado 1048234" d="M17.717,13.11H10.164A1.263,1.263,0,0,0,8.9,14.37V55.017a1.264,1.264,0,0,0,1.262,1.262H36.852a.949.949,0,0,1,0,1.9H10.164A3.165,3.165,0,0,1,7,55.017V14.37a3.164,3.164,0,0,1,3.161-3.158h7.553v-.386a.949.949,0,0,1,.949-.949h4.173a4.705,4.705,0,0,1,8.667,0h4.171a.949.949,0,0,1,.949.949v.386h7.556a3.164,3.164,0,0,1,3.158,3.158v5.2a.949.949,0,1,1-1.9,0v-5.2a1.262,1.262,0,0,0-1.259-1.259H36.627v1.174h6.692a.949.949,0,0,1,.949.949v6.5a.949.949,0,1,1-1.9,0V16.183H36.627v.386a.949.949,0,0,1-.949.949H18.666a.949.949,0,0,1-.949-.949v-.386H11.974V53.207H33.535a.949.949,0,0,1,0,1.9H11.025a.949.949,0,0,1-.949-.949V15.234a.949.949,0,0,1,.949-.949h6.692Zm17.011,2.51V11.775h-3.9a.949.949,0,0,1-.923-.726,2.807,2.807,0,0,0-5.455,0,.949.949,0,0,1-.923.728H19.616V15.62Zm-7.556-3.509a1.078,1.078,0,1,1,1.08-1.08A1.08,1.08,0,0,1,27.172,12.111ZM51.649,55.205a11.894,11.894,0,0,1-5.733,2.25,12.065,12.065,0,0,1-1.353.076,11.955,11.955,0,0,1-5.808-22.4.949.949,0,0,1,.924,1.659,10.055,10.055,0,0,0,4.884,18.845,10.188,10.188,0,0,0,1.14-.064,10.01,10.01,0,0,0,5.392-2.346,10.117,10.117,0,0,0,1.708-1.88,10,10,0,0,0,1.8-5.123.949.949,0,1,1,1.895.119A11.886,11.886,0,0,1,54.8,51.75L57.123,54a1.961,1.961,0,0,1,2.1.4h0l6.042,5.864a1.953,1.953,0,0,1,.04,2.757h0l-2.181,2.246h0a1.957,1.957,0,0,1-2.753.045l0,0-6.039-5.864a1.953,1.953,0,0,1-.467-2.093Zm2.032-1.9q-.284.335-.592.648l1.987,1.929.611-.629Zm8.087,10.642L63.949,61.7a.051.051,0,0,0,0-.072h0l-6.043-5.865a.051.051,0,0,0-.072,0h0l-2.181,2.247,0,0a.047.047,0,0,0,0,.067l0,0,6.039,5.864a.053.053,0,0,0,.072,0ZM30.137,25.656a4.829,4.829,0,0,1,3.074-1.672.949.949,0,0,1,.946,1.36c-.7,1.441-.1,2.671.346,3.978a6.6,6.6,0,0,1-.251,5.968,8.4,8.4,0,0,1-7.417,4.085,8.736,8.736,0,0,1-6.153-2.127c-3.3-3-3.563-8.681-1.389-12.964a.949.949,0,0,1,1.788.549,4.946,4.946,0,0,0,.293,2.812,1.2,1.2,0,0,0,.773.729c.288.049.4-.269.34-.7a2.938,2.938,0,0,0-.242-.794,5.21,5.21,0,0,1,.27-4.467,6.912,6.912,0,0,1,6.323-3.749.949.949,0,0,1,.757,1.493,3.988,3.988,0,0,0-.85,2.055,4.454,4.454,0,0,0,.849,2.368c.192.348.38.7.543,1.075Zm-1.413,2.709c.189-1.57-.669-2.579-1.217-3.652a5.121,5.121,0,0,1-.662-2.474,4.528,4.528,0,0,1,.27-1.435,5.018,5.018,0,0,0-2.908,2.47,3.316,3.316,0,0,0-.227,2.832,3.423,3.423,0,0,1,.129,3.032,2.1,2.1,0,0,1-2.278,1.105,3.006,3.006,0,0,1-1.974-1.46,8.146,8.146,0,0,0,1.827,6.79,6.108,6.108,0,0,1,.362-4.155.949.949,0,0,1,1.8.167,1.3,1.3,0,0,0,.1.275,3.978,3.978,0,0,1,.267-.837,5.4,5.4,0,0,1,3.663-2.819A.949.949,0,0,1,28.724,28.366Zm3.6,6.424q.145-.209.271-.434C33.8,32.222,32.911,30.6,32.39,29a7.369,7.369,0,0,1-.442-2.481,4.459,4.459,0,0,0-1.383,2.353.95.95,0,0,1-1.511.512.946.946,0,0,1-.1.222,3.411,3.411,0,0,0-.21,2.5,2.016,2.016,0,0,0,.326-1.226.949.949,0,0,1,1.506-.868,4.713,4.713,0,0,1,1.75,4.776Zm-5.519,2.684h0a3.738,3.738,0,0,0,3.626-4.568,5.215,5.215,0,0,1-1.415,1.675.949.949,0,0,1-1.355-.239,6.313,6.313,0,0,1-.911-3.524,2.53,2.53,0,0,0-.813.982,2.4,2.4,0,0,0,.035,1.919.949.949,0,0,1-1.2,1.265,4.558,4.558,0,0,1-1.407-.905,3.4,3.4,0,0,0,.447,1.7,3.644,3.644,0,0,0,2.99,1.7Zm4.677-18.056a.949.949,0,1,1,.949,1.644.476.476,0,0,0-.3.626c.007.149.015.3.014.446A2.139,2.139,0,0,1,30.9,24.177a.949.949,0,0,1-.949-1.644.476.476,0,0,0,.3-.625c-.007-.149-.015-.3-.013-.447a2.14,2.14,0,0,1,1.253-2.043ZM52.006,46.4a.949.949,0,1,1,1.887.206,9.387,9.387,0,1,1-14.269-9.014.949.949,0,0,1,1,1.614A7.489,7.489,0,1,0,52.006,46.4ZM14.858,42.615a.949.949,0,0,1,0-1.9h6.349a.949.949,0,0,1,0,1.9Zm0,3.912a.949.949,0,1,1,0-1.9H26.473a.949.949,0,1,1,0,1.9Zm0,3.912a.949.949,0,1,1,0-1.9H30.9a.949.949,0,1,1,0,1.9ZM53,19.97a12.258,12.258,0,1,1-3.633,23.969l-6.74,1.8a.949.949,0,0,1-1.163-1.163l1.444-5.393A12.259,12.259,0,0,1,53,19.97Zm7.136,19.769A10.36,10.36,0,1,0,44.7,38.43a.949.949,0,0,1,.157.815l-1.135,4.24,5.422-1.451a.949.949,0,0,1,.546.016A10.441,10.441,0,0,0,53,42.588,10.314,10.314,0,0,0,59.244,40.5a.95.95,0,0,1-.958-1.186,28.368,28.368,0,0,0,.871-5.958.949.949,0,1,1,1.9.076,30.269,30.269,0,0,1-.918,6.311Zm-7.66-8.963a.949.949,0,1,1,1.895-.119,23.857,23.857,0,0,1-.775,7.767.949.949,0,0,1-1.832-.5,21.955,21.955,0,0,0,.712-7.148Zm-5.687,7.11A.949.949,0,0,1,45,37.247a15.122,15.122,0,0,0,.83-6.053.949.949,0,0,1,1.895-.119,17.015,17.015,0,0,1-.937,6.811Zm1.457-9.572a.949.949,0,0,1-1.723-.8,7.6,7.6,0,0,1,6.425-4.391.949.949,0,1,1,.118,1.9,5.7,5.7,0,0,0-4.82,3.295ZM55.492,25.4a.949.949,0,1,1,.688-1.77,7.609,7.609,0,0,1,4.838,6.615.949.949,0,0,1-1.9.119A5.71,5.71,0,0,0,55.492,25.4ZM48.414,39.647a.949.949,0,1,1-1.747-.744,16.761,16.761,0,0,0,1.109-3.784,17.9,17.9,0,0,0,.207-4.06.949.949,0,1,1,1.9-.117,19.789,19.789,0,0,1-.23,4.492h0a18.664,18.664,0,0,1-1.234,4.213Zm1.88-10.6a.949.949,0,1,1-1.671-.9,5.449,5.449,0,0,1,10.243,2.234,28.962,28.962,0,0,1-.007,3.758.949.949,0,0,1-1.894-.127,27.048,27.048,0,0,0,.007-3.512h0A3.564,3.564,0,0,0,53.2,27.171h0A3.561,3.561,0,0,0,50.294,29.045Zm.552,10.3a.949.949,0,0,1-1.787-.642,18.791,18.791,0,0,0,.841-3.225.949.949,0,1,1,1.872.316,20.683,20.683,0,0,1-.926,3.551Zm1.2-6a.949.949,0,0,1-1.9-.1,20.183,20.183,0,0,0-.013-2.32h0a3.312,3.312,0,0,1,3.085-3.5h0a3.311,3.311,0,0,1,3.5,3.085h0a26.52,26.52,0,0,1-.313,6.059q-.179,1.077-.452,2.13a.949.949,0,1,1-1.838-.475q.251-.973.418-1.969v0a24.628,24.628,0,0,0,.29-5.625,1.4,1.4,0,1,0-2.793.174,22.066,22.066,0,0,1,.014,2.539Zm4.669,2.934a.949.949,0,1,1,1.877.287q-.189,1.237-.493,2.452a.949.949,0,1,1-1.842-.459Q56.534,37.427,56.711,36.277Z" transform="translate(0 0)" fill-rule="evenodd"/>
    </g>
  </g>
</svg>
