<svg xmlns="http://www.w3.org/2000/svg" xmlns:xlink="http://www.w3.org/1999/xlink" width="108" height="108" viewBox="0 0 108 108">
  <defs>
    <filter id="Trazado_904820" x="0" y="0" width="108" height="108" filterUnits="userSpaceOnUse">
      <feOffset dy="3" input="SourceAlpha"/>
      <feGaussianBlur stdDeviation="3" result="blur"/>
      <feFlood flood-opacity="0.161"/>
      <feComposite operator="in" in2="blur"/>
      <feComposite in="SourceGraphic"/>
    </filter>
  </defs>
  <g id="Grupo_1209197" data-name="Grupo 1209197" transform="translate(-200 -762)">
    <g id="Grupo_1202705" data-name="Grupo 1202705" transform="translate(209 768)">
      <g id="Grupo_1173585" data-name="Grupo 1173585" transform="translate(0 0)">
        <g id="Grupo_1173428" data-name="Grupo 1173428">
          <g id="Grupo_1171958" data-name="Grupo 1171958">
            <g id="Grupo_1167341" data-name="Grupo 1167341">
              <g id="Grupo_1166792" data-name="Grupo 1166792">
                <g transform="matrix(1, 0, 0, 1, -9, -6)" filter="url(#Trazado_904820)">
                  <g id="Trazado_904820-2" data-name="Trazado 904820" transform="translate(9 6)" fill="#fef9e7">
                    <path d="M 44.99999618530273 88.50002288818359 C 39.12687301635742 88.50002288818359 33.43022155761719 87.35009765625 28.06829643249512 85.08218383789062 C 22.88852119445801 82.89133453369141 18.23629570007324 79.75460815429688 14.24084663391113 75.75916290283203 C 10.24540901184082 71.76371002197266 7.108683586120605 67.11148834228516 4.917821407318115 61.93171310424805 C 2.649921178817749 56.56978607177734 1.499996185302734 50.87313461303711 1.499996185302734 45.0000114440918 C 1.499996185302734 39.12688827514648 2.649921178817749 33.43023681640625 4.917821407318115 28.06829833984375 C 7.108683586120605 22.88852310180664 10.24540901184082 18.2363109588623 14.24084663391113 14.2408618927002 C 18.23629570007324 10.24541187286377 22.88852119445801 7.108686447143555 28.06829643249512 4.917823791503906 C 33.43022155761719 2.649924039840698 39.12687301635742 1.499998927116394 44.99999618530273 1.499998927116394 C 50.87311935424805 1.499998927116394 56.56977081298828 2.649924039840698 61.93169784545898 4.917823791503906 C 67.11147308349609 7.108686447143555 71.76369476318359 10.24541187286377 75.75914764404297 14.2408618927002 C 79.75458526611328 18.2363109588623 82.89131164550781 22.88852310180664 85.08216857910156 28.06829833984375 C 87.35007476806641 33.43023681640625 88.5 39.12688827514648 88.5 45.0000114440918 C 88.5 50.87313461303711 87.35007476806641 56.56978607177734 85.08216857910156 61.93171310424805 C 82.89131164550781 67.11148834228516 79.75458526611328 71.76371002197266 75.75914764404297 75.75916290283203 C 71.76369476318359 79.75460815429688 67.11147308349609 82.89133453369141 61.93169784545898 85.08218383789062 C 56.56977081298828 87.35009765625 50.87311935424805 88.50002288818359 44.99999618530273 88.50002288818359 Z" stroke="none"/>
                    <path d="M 44.99999618530273 3 C 39.32870864868164 3 33.82865142822266 4.110054016113281 28.65262603759766 6.299339294433594 C 23.65165710449219 8.414566040039062 19.15968322753906 11.44333648681641 15.301513671875 15.30152893066406 C 11.44333648681641 19.15969848632812 8.414566040039062 23.65165710449219 6.299339294433594 28.65264129638672 C 4.110054016113281 33.82866668701172 2.999992370605469 39.3287239074707 2.999992370605469 45.0000114440918 C 2.999992370605469 50.67129898071289 4.110054016113281 56.17135620117188 6.299339294433594 61.34738159179688 C 8.414566040039062 66.34836578369141 11.44333648681641 70.84032440185547 15.301513671875 74.69849395751953 C 19.15968322753906 78.55668640136719 23.65165710449219 81.58545684814453 28.65262603759766 83.70068359375 C 33.82865142822266 85.88996887207031 39.32870864868164 87.00002288818359 44.99999618530273 87.00002288818359 C 50.67128372192383 87.00002288818359 56.17134094238281 85.88996887207031 61.34736633300781 83.70068359375 C 66.34834289550781 81.58545684814453 70.84030914306641 78.55668640136719 74.69847869873047 74.69849395751953 C 78.55665588378906 70.84032440185547 81.58542633056641 66.34836578369141 83.70065307617188 61.34738159179688 C 85.88993835449219 56.17135620117188 87 50.67129898071289 87 45.0000114440918 C 87 39.3287239074707 85.88993835449219 33.82866668701172 83.70065307617188 28.65264129638672 C 81.58542633056641 23.65165710449219 78.55665588378906 19.15969848632812 74.69847869873047 15.30152893066406 C 70.84030914306641 11.44333648681641 66.34834289550781 8.414566040039062 61.34736633300781 6.299339294433594 C 56.17134094238281 4.110054016113281 50.67128372192383 3 44.99999618530273 3 M 44.99999618530273 0 C 69.85281372070312 0 90 20.14719390869141 90 45.0000114440918 C 90 69.85282897949219 69.85281372070312 90.00002288818359 44.99999618530273 90.00002288818359 C 20.14717864990234 90.00002288818359 -7.62939453125e-06 69.85282897949219 -7.62939453125e-06 45.0000114440918 C -7.62939453125e-06 20.14719390869141 20.14717864990234 0 44.99999618530273 0 Z" stroke="none" fill="#887013"/>
                  </g>
                </g>
              </g>
            </g>
          </g>
        </g>
      </g>
    </g>
    <g id="risk-assessment_13089619_1_" data-name="risk-assessment_13089619 (1)" transform="translate(212.651 766.383)">
      <path id="Trazado_1048235" data-name="Trazado 1048235" d="M52.68,22.988h7a.859.859,0,0,1,.859.859V33a9.812,9.812,0,0,1,1.009,8.611l2.609,1.724.075-.113a.857.857,0,0,1,1.187-.241L71.192,46.8a3.331,3.331,0,0,1-3.673,5.558l-5.772-3.811a.857.857,0,0,1-.241-1.187l.073-.111-1.04-.687V58.4l.732,1.268v0l4.221,7.311h0a3.368,3.368,0,0,1-2.923,5.066H60.54v1.741a.859.859,0,0,1-.859.859H21.121a.859.859,0,0,1-.859-.859V70.249H16.87a.859.859,0,0,1-.859-.859V19.445a.859.859,0,0,1,.859-.859H47.924a.856.856,0,0,1,.612.256Z" transform="translate(0 0)" fill="#121209" fill-rule="evenodd"/>
      <path id="Trazado_1048236" data-name="Trazado 1048236" d="M269.985,120.972a.839.839,0,0,1-.063-.091,8.061,8.061,0,0,0-2.167-2.105h0a8.107,8.107,0,0,0-1.594-.816.857.857,0,0,1-.1-.038,8.072,8.072,0,0,0-9.486,3.143v0a8.068,8.068,0,0,0,2.29,11.18l0,0a8.074,8.074,0,0,0,7.185.856.857.857,0,0,1,.124-.046,8.038,8.038,0,0,0,3.871-3.1h0a8.076,8.076,0,0,0-.059-8.985Zm-12.268.845A6.7,6.7,0,0,1,268.9,129.2l-.052.079,0,0a6.7,6.7,0,0,1-9.231,1.816l-.079-.052,0,0A6.7,6.7,0,0,1,257.718,121.816Z" transform="translate(-210.979 -87.18)" fill="#fccb68" fill-rule="evenodd"/>
      <path id="Trazado_1048237" data-name="Trazado 1048237" d="M345.545,76.713v-6.3H341.12l1.639,1.639a.856.856,0,0,1,.252.607v2.43a9.854,9.854,0,0,1,1.435.785l.079.052,0,0A9.834,9.834,0,0,1,345.545,76.713Z" transform="translate(-286.722 -45.704)" fill="#9b999c" fill-rule="evenodd"/>
      <path id="Trazado_1048238" data-name="Trazado 1048238" d="M389.7,228q.034.021.066.046l2.324,1.535.69-1.045-2.391-1.579q-.155.27-.329.534l-.052.079,0,0Q389.858,227.795,389.7,228Z" transform="translate(-329.566 -183.771)" fill="#f7ad4c" fill-rule="evenodd"/>
      <path id="Trazado_1048239" data-name="Trazado 1048239" d="M268.124,311.57a.858.858,0,0,1-.061-.105l-3.341-5.788v0a1.67,1.67,0,0,0-.539-.574.831.831,0,0,1-.1-.059,1.767,1.767,0,0,0-1.641.016v0a1.663,1.663,0,0,0-.605.618l-4.222,7.313h0l-1.353,2.343-.027.047L253.4,320.3a1.661,1.661,0,0,0-.229.833,1.606,1.606,0,0,0,.057.422.822.822,0,0,1,.028.092,1.766,1.766,0,0,0,.143.317h0a1.588,1.588,0,0,0,1.441.83h16.889a1.651,1.651,0,0,0,1.44-2.49v0l-4.221-7.311h0l-.82-1.42Zm-3.984,8.5a.859.859,0,1,1-1.717,0h0a.859.859,0,1,1,1.717,0Zm0-3.024a.859.859,0,1,1-1.717,0v-6.417a.859.859,0,1,1,1.717,0Z" transform="translate(-209.154 -252.461)" fill="#da9a0a" fill-rule="evenodd"/>
      <path id="Trazado_1048240" data-name="Trazado 1048240" d="M299.917,311.57a.862.862,0,0,1-.061-.105l-3.341-5.788v0a1.671,1.671,0,0,0-.539-.574.834.834,0,0,1-.1-.059,1.767,1.767,0,0,0-1.641.016v0a1.663,1.663,0,0,0-.605.618l-4.222,7.313h0l-.194.336a28.267,28.267,0,0,0,5,.676v-3.377a.859.859,0,1,1,1.717,0v3.4a28.354,28.354,0,0,0,5.1-.534l-.291-.5h0Z" transform="translate(-240.948 -252.461)" fill="#f0ac29" fill-rule="evenodd"/>
      <g id="Grupo_1209539" data-name="Grupo 1209539" transform="translate(21.98 21.518)">
        <path id="Trazado_1048241" data-name="Trazado 1048241" d="M359.666,257.605v-9.774a9.734,9.734,0,0,1-2.534,1.626v4.164a3.444,3.444,0,0,1,.76.914h0Z" transform="translate(-322.824 -223.696)" fill="#9b999c" fill-rule="evenodd"/>
        <path id="Trazado_1048242" data-name="Trazado 1048242" d="M66.564,456.136v2.683h36.843v-.882H90.266a3.335,3.335,0,0,1-2.923-1.689v0c-.021-.036-.041-.073-.061-.109Z" transform="translate(-66.564 -407.405)" fill="#9b999c" fill-rule="evenodd"/>
        <path id="Trazado_1048243" data-name="Trazado 1048243" d="M293.563,43.421V48h4.574L296.5,46.36l-.009-.009Z" transform="translate(-266.76 -43.421)" fill="#9b999c" fill-rule="evenodd"/>
      </g>
      <path id="Trazado_1048244" data-name="Trazado 1048244" d="M67.4,40.64H60.751a.859.859,0,0,1-.859-.859V33.134H30.556V81.362h24.57a3.378,3.378,0,0,1,.461-1.544L57.7,76.152l-7.184-.008a.855.855,0,1,1,0-1.711l8.171.009L59.809,72.5v0l.515-.892-9.8-.011a.855.855,0,1,1,0-1.711l10.792.012,2.721-4.712a3.355,3.355,0,0,1,1.229-1.242h0a3.356,3.356,0,0,1,1.69-.447,3.511,3.511,0,0,1,.444.028V60.685q-.14.033-.281.062a9.754,9.754,0,0,1-7.353-1.421l-.079-.052,0,0q-.186-.126-.364-.258L50.52,59a.855.855,0,1,1,0-1.711l7.016.008a9.818,9.818,0,0,1-2.161-6.341l-4.855-.005a.855.855,0,1,1,0-1.711l5.04.006A9.728,9.728,0,0,1,56.6,46.414l-6.081-.007a.855.855,0,1,1,0-1.711L57.8,44.7a9.8,9.8,0,0,1,9.595-3.07v-.994ZM62.39,61.851a.855.855,0,1,1,0,1.711l-11.87-.013a.855.855,0,1,1,0-1.711ZM45.514,69.118l.2-.171a.855.855,0,1,1,1.1,1.308l-1.3,1.1v6.215a.859.859,0,0,1-.859.859H35.565a.859.859,0,0,1-.859-.859V68.477a.859.859,0,0,1,.859-.859h9.091a.859.859,0,0,1,.859.859Zm0-12.6.2-.171a.855.855,0,0,1,1.1,1.308l-1.3,1.1v6.215a.859.859,0,0,1-.859.859H35.565a.859.859,0,0,1-.859-.859V55.882a.859.859,0,0,1,.859-.859h9.091a.859.859,0,0,1,.859.859Zm0-12.6.2-.171a.855.855,0,0,1,1.1,1.308l-1.3,1.1v6.215a.859.859,0,0,1-.859.859H35.565a.859.859,0,0,1-.859-.859V43.286a.859.859,0,0,1,.859-.859h9.091a.859.859,0,0,1,.859.859Z" transform="translate(-12.828 -12.83)" fill="#f0eef0" fill-rule="evenodd"/>
      <path id="Trazado_1048245" data-name="Trazado 1048245" d="M133.576,40.64h-6.648a.859.859,0,0,1-.859-.859V33.134H108.532a28.047,28.047,0,0,0-2.939,9.293h5.24a.859.859,0,0,1,.859.859v.641l.2-.171a.855.855,0,1,1,1.1,1.308l-1.3,1.1v6.215a.859.859,0,0,1-.859.859h-4.6q.234.906.526,1.787h4.07a.859.859,0,0,1,.859.859v.641l.2-.171a.855.855,0,0,1,1.1,1.308l-1.3,1.1V64a28.38,28.38,0,0,0,6.569,5.885l9.228.01,2.721-4.712a3.355,3.355,0,0,1,1.229-1.242h0a3.356,3.356,0,0,1,1.69-.447,3.51,3.51,0,0,1,.444.028V60.685q-.14.033-.281.062a9.754,9.754,0,0,1-7.353-1.421l-.079-.052,0,0q-.186-.126-.364-.258L116.7,59a.855.855,0,1,1,0-1.711l7.016.008a9.818,9.818,0,0,1-2.161-6.341l-4.855-.005a.855.855,0,1,1,0-1.711l5.04.006a9.729,9.729,0,0,1,1.041-2.834l-6.081-.007a.855.855,0,1,1,0-1.711l7.284.008a9.8,9.8,0,0,1,9.595-3.07v-.994Zm-8.017,32.605.428-.741v0l.515-.892-5.194-.006a28.052,28.052,0,0,0,4.252,1.641Zm3.008-11.394a.855.855,0,1,1,0,1.711l-11.87-.013a.855.855,0,1,1,0-1.711Z" transform="translate(-79.005 -12.83)" fill="#fff" fill-rule="evenodd"/>
      <path id="Trazado_1048246" data-name="Trazado 1048246" d="M81.284,129.972a.854.854,0,0,1,1.067-1.335l2.083,1.666,3.189-2.686v-1.229H80.249v7.373h7.374v-3.91L85,132.062a.855.855,0,0,1-1.083.013Z" transform="translate(-56.653 -95.073)" fill="#528948" fill-rule="evenodd"/>
      <path id="Trazado_1048247" data-name="Trazado 1048247" d="M103.506,129.159l1.43,1.144,3.189-2.686v-1.229h-4.556c-.047.67-.073,1.345-.073,2.027q0,.373.01.744Zm.5,4.6q-.217-1.13-.342-2.29l.755.6a.855.855,0,0,0,1.083-.013l2.625-2.211v3.91Z" transform="translate(-77.155 -95.073)" fill="#5fa26d" fill-rule="evenodd"/>
      <path id="Trazado_1048248" data-name="Trazado 1048248" d="M81.284,236.647a.854.854,0,1,1,1.067-1.335l2.083,1.666,3.189-2.686v-1.229H80.249v7.373h7.374v-3.91L85,238.738a.855.855,0,0,1-1.083.013Z" transform="translate(-56.653 -189.153)" fill="#528948" fill-rule="evenodd"/>
      <path id="Trazado_1048249" data-name="Trazado 1048249" d="M121.962,235.514l1.452-1.223v-1.229h-2.582q.508,1.257,1.13,2.451Zm1.452,2.471v-1.459l-.6.506q.291.483.6.953Z" transform="translate(-92.444 -189.153)" fill="#5fa26d" fill-rule="evenodd"/>
      <path id="Trazado_1048250" data-name="Trazado 1048250" d="M81.284,343.322a.854.854,0,0,1,1.067-1.335l2.083,1.666,3.189-2.686v-1.229H80.249v7.373h7.374V343.2L85,345.413a.855.855,0,0,1-1.083.013Z" transform="translate(-56.653 -283.232)" fill="#528948" fill-rule="evenodd"/>
      <path id="Trazado_1048251" data-name="Trazado 1048251" d="M419.21,241.327l-1.783,2.7,5.057,3.34a1.617,1.617,0,1,0,1.781-2.7Z" transform="translate(-354.019 -196.441)" fill="#f7ad4c" fill-rule="evenodd"/>
      <path id="Trazado_1048252" data-name="Trazado 1048252" d="M285.342,143.66a4.988,4.988,0,0,0-1.747,9.05h0a4.986,4.986,0,0,0,6.909-1.415h0a4.989,4.989,0,0,0-5.164-7.634Z" transform="translate(-234.012 -110.217)" fill="#d7ebf9" fill-rule="evenodd"/>
    </g>
  </g>
</svg>
