<svg xmlns="http://www.w3.org/2000/svg" xmlns:xlink="http://www.w3.org/1999/xlink" width="108" height="108" viewBox="0 0 108 108">
  <defs>
    <filter id="Trazado_904820" x="0" y="0" width="108" height="108" filterUnits="userSpaceOnUse">
      <feOffset dy="3" input="SourceAlpha"/>
      <feGaussianBlur stdDeviation="3" result="blur"/>
      <feFlood flood-opacity="0.161"/>
      <feComposite operator="in" in2="blur"/>
      <feComposite in="SourceGraphic"/>
    </filter>
  </defs>
  <g id="Grupo_1209550" data-name="Grupo 1209550" transform="translate(-1031 -7741.783)">
    <g id="Grupo_1209196" data-name="Grupo 1209196" transform="translate(831 6979.783)">
      <g id="Grupo_1202705" data-name="Grupo 1202705" transform="translate(209 768)">
        <g id="Grupo_1173585" data-name="Grupo 1173585" transform="translate(0 0)">
          <g id="Grupo_1173428" data-name="Grupo 1173428">
            <g id="Grupo_1171958" data-name="Grupo 1171958">
              <g id="Grupo_1167341" data-name="Grupo 1167341">
                <g id="Grupo_1166792" data-name="Grupo 1166792">
                  <g transform="matrix(1, 0, 0, 1, -9, -6)" filter="url(#Trazado_904820)">
                    <g id="Trazado_904820-2" data-name="Trazado 904820" transform="translate(9 6)" fill="#fef9e7">
                      <path d="M 44.99999618530273 88.50002288818359 C 39.12687301635742 88.50002288818359 33.43022155761719 87.35009765625 28.06829643249512 85.08218383789062 C 22.88852119445801 82.89133453369141 18.23629570007324 79.75460815429688 14.24084663391113 75.75916290283203 C 10.24540901184082 71.76371002197266 7.108683586120605 67.11148834228516 4.917821407318115 61.93171310424805 C 2.649921178817749 56.56978607177734 1.499996185302734 50.87313461303711 1.499996185302734 45.0000114440918 C 1.499996185302734 39.12688827514648 2.649921178817749 33.43023681640625 4.917821407318115 28.06829833984375 C 7.108683586120605 22.88852310180664 10.24540901184082 18.2363109588623 14.24084663391113 14.2408618927002 C 18.23629570007324 10.24541187286377 22.88852119445801 7.108686447143555 28.06829643249512 4.917823791503906 C 33.43022155761719 2.649924039840698 39.12687301635742 1.499998927116394 44.99999618530273 1.499998927116394 C 50.87311935424805 1.499998927116394 56.56977081298828 2.649924039840698 61.93169784545898 4.917823791503906 C 67.11147308349609 7.108686447143555 71.76369476318359 10.24541187286377 75.75914764404297 14.2408618927002 C 79.75458526611328 18.2363109588623 82.89131164550781 22.88852310180664 85.08216857910156 28.06829833984375 C 87.35007476806641 33.43023681640625 88.5 39.12688827514648 88.5 45.0000114440918 C 88.5 50.87313461303711 87.35007476806641 56.56978607177734 85.08216857910156 61.93171310424805 C 82.89131164550781 67.11148834228516 79.75458526611328 71.76371002197266 75.75914764404297 75.75916290283203 C 71.76369476318359 79.75460815429688 67.11147308349609 82.89133453369141 61.93169784545898 85.08218383789062 C 56.56977081298828 87.35009765625 50.87311935424805 88.50002288818359 44.99999618530273 88.50002288818359 Z" stroke="none"/>
                      <path d="M 44.99999618530273 3 C 39.32870864868164 3 33.82865142822266 4.110054016113281 28.65262603759766 6.299339294433594 C 23.65165710449219 8.414566040039062 19.15968322753906 11.44333648681641 15.301513671875 15.30152893066406 C 11.44333648681641 19.15969848632812 8.414566040039062 23.65165710449219 6.299339294433594 28.65264129638672 C 4.110054016113281 33.82866668701172 2.999992370605469 39.3287239074707 2.999992370605469 45.0000114440918 C 2.999992370605469 50.67129898071289 4.110054016113281 56.17135620117188 6.299339294433594 61.34738159179688 C 8.414566040039062 66.34836578369141 11.44333648681641 70.84032440185547 15.301513671875 74.69849395751953 C 19.15968322753906 78.55668640136719 23.65165710449219 81.58545684814453 28.65262603759766 83.70068359375 C 33.82865142822266 85.88996887207031 39.32870864868164 87.00002288818359 44.99999618530273 87.00002288818359 C 50.67128372192383 87.00002288818359 56.17134094238281 85.88996887207031 61.34736633300781 83.70068359375 C 66.34834289550781 81.58545684814453 70.84030914306641 78.55668640136719 74.69847869873047 74.69849395751953 C 78.55665588378906 70.84032440185547 81.58542633056641 66.34836578369141 83.70065307617188 61.34738159179688 C 85.88993835449219 56.17135620117188 87 50.67129898071289 87 45.0000114440918 C 87 39.3287239074707 85.88993835449219 33.82866668701172 83.70065307617188 28.65264129638672 C 81.58542633056641 23.65165710449219 78.55665588378906 19.15969848632812 74.69847869873047 15.30152893066406 C 70.84030914306641 11.44333648681641 66.34834289550781 8.414566040039062 61.34736633300781 6.299339294433594 C 56.17134094238281 4.110054016113281 50.67128372192383 3 44.99999618530273 3 M 44.99999618530273 0 C 69.85281372070312 0 90 20.14719390869141 90 45.0000114440918 C 90 69.85282897949219 69.85281372070312 90.00002288818359 44.99999618530273 90.00002288818359 C 20.14717864990234 90.00002288818359 -7.62939453125e-06 69.85282897949219 -7.62939453125e-06 45.0000114440918 C -7.62939453125e-06 20.14719390869141 20.14717864990234 0 44.99999618530273 0 Z" stroke="none" fill="#887013"/>
                    </g>
                  </g>
                </g>
              </g>
            </g>
          </g>
        </g>
      </g>
    </g>
    <g id="risk-assessment_14247501" transform="translate(1046.228 7754.441)">
      <g id="Grupo_1209549" data-name="Grupo 1209549" transform="translate(11.055 8.027)">
        <g id="Grupo_1209540" data-name="Grupo 1209540" transform="translate(0)">
          <path id="Trazado_1048253" data-name="Trazado 1048253" d="M58.561,54.437a2.4,2.4,0,0,1,2.39,2.39V100.81a2.4,2.4,0,0,1-2.39,2.393H21.747a2.4,2.4,0,0,1-2.39-2.393V56.827a2.4,2.4,0,0,1,2.39-2.39Z" transform="translate(-19.357 -49.884)" fill="#837683" fill-rule="evenodd"/>
          <path id="Trazado_1048254" data-name="Trazado 1048254" d="M326.42,103.2h3.086a2.4,2.4,0,0,0,2.39-2.393V56.827a2.4,2.4,0,0,0-2.39-2.39H326.42Z" transform="translate(-290.302 -49.884)" fill="#685e68" fill-rule="evenodd"/>
          <path id="Trazado_1048255" data-name="Trazado 1048255" d="M81.492,82.7H48.7a1.078,1.078,0,0,0-1.077,1.077v39.963a1.076,1.076,0,0,0,1.077,1.074h32.79a1.078,1.078,0,0,0,1.077-1.074V83.781A1.081,1.081,0,0,0,81.492,82.7Z" transform="translate(-44.3 -74.826)" fill="#eceff1" fill-rule="evenodd"/>
          <path id="Trazado_1048256" data-name="Trazado 1048256" d="M326.42,124.817h1.074c.035,0,.069,0,.1,0a1.08,1.08,0,0,0,.976-1.071V83.781a1.077,1.077,0,0,0-.976-1.071,1,1,0,0,0-.1-.006H326.42Z" transform="translate(-290.302 -74.826)" fill="#d1d1d6" fill-rule="evenodd"/>
          <path id="Trazado_1048257" data-name="Trazado 1048257" d="M118.993,18.837h3.41a1.053,1.053,0,0,0,.985-.649,4.065,4.065,0,0,1,7.469,0,1.053,1.053,0,0,0,.986.649h3.407a1.08,1.08,0,0,1,1.077,1.077v4.065a1.078,1.078,0,0,1-1.077,1.074H118.993a1.075,1.075,0,0,1-1.074-1.074V19.914A1.078,1.078,0,0,1,118.993,18.837Z" transform="translate(-106.326 -15.729)" fill="#e3a76f" fill-rule="evenodd"/>
          <path id="Trazado_1048258" data-name="Trazado 1048258" d="M134.175,47.292H117.919a1.075,1.075,0,0,0,1.074,1.074h16.256a1.078,1.078,0,0,0,1.077-1.074V43.227a1.08,1.08,0,0,0-1.077-1.077v4.065a1.079,1.079,0,0,1-1.074,1.077Z" transform="translate(-106.326 -39.042)" fill="#c48958" fill-rule="evenodd"/>
        </g>
        <g id="Grupo_1209541" data-name="Grupo 1209541" transform="translate(13.507 11.71)">
          <path id="Trazado_1048259" data-name="Trazado 1048259" d="M135.4,115.286h3.56a1.356,1.356,0,0,1,1.2.691l1.276,2.208h7.052a1.22,1.22,0,0,1,1.219,1.219v6.972a1.219,1.219,0,0,1-1.219,1.215H135.4a1.219,1.219,0,0,1-1.219-1.215V116.5A1.219,1.219,0,0,1,135.4,115.286Z" transform="translate(-134.186 -115.286)" fill="#ffd064" fill-rule="evenodd"/>
          <path id="Trazado_1048260" data-name="Trazado 1048260" d="M166.956,115.286h.924a1.356,1.356,0,0,1,1.2.691l1.276,2.208h-.925l-1.276-2.208A1.356,1.356,0,0,0,166.956,115.286Zm9.527,2.9h.924a1.22,1.22,0,0,1,1.219,1.219v6.972a1.219,1.219,0,0,1-1.219,1.215h-.924a1.219,1.219,0,0,0,1.219-1.215V119.4A1.22,1.22,0,0,0,176.483,118.185Z" transform="translate(-163.101 -115.286)" fill="#ffc338" fill-rule="evenodd"/>
          <path id="Trazado_1048261" data-name="Trazado 1048261" d="M148.492,139.936a1.22,1.22,0,0,1,1.219,1.219v6.972a1.219,1.219,0,0,1-1.219,1.215H135.4a1.219,1.219,0,0,1-1.219-1.215v-8.19Z" transform="translate(-134.186 -137.037)" fill="#ffe177" fill-rule="evenodd"/>
          <path id="Trazado_1048262" data-name="Trazado 1048262" d="M148.985,140.2a1.217,1.217,0,0,1,.955,1.188v6.972a1.219,1.219,0,0,1-1.219,1.215H135.634a1.217,1.217,0,0,1-1.188-.951,1.189,1.189,0,0,0,.264.027H147.8a1.219,1.219,0,0,0,1.219-1.215V140.46A1.182,1.182,0,0,0,148.985,140.2Z" transform="translate(-134.415 -137.266)" fill="#ffd064" fill-rule="evenodd"/>
        </g>
        <g id="Grupo_1209544" data-name="Grupo 1209544" transform="translate(8.557 26.953)">
          <g id="Grupo_1209542" data-name="Grupo 1209542">
            <path id="Trazado_1048263" data-name="Trazado 1048263" d="M97.7,244.877H93.494a1.391,1.391,0,0,0-1.389,1.389v4.206a1.391,1.391,0,0,0,1.389,1.386H97.7a1.39,1.39,0,0,0,1.386-1.386v-4.206A1.391,1.391,0,0,0,97.7,244.877Z" transform="translate(-92.105 -244.877)" fill="#8ac9fe" fill-rule="evenodd"/>
            <path id="Trazado_1048264" data-name="Trazado 1048264" d="M94.67,244.877H93.494a1.391,1.391,0,0,0-1.389,1.389v4.206a1.391,1.391,0,0,0,1.389,1.386H94.67a1.391,1.391,0,0,1-1.389-1.386v-4.206A1.391,1.391,0,0,1,94.67,244.877Z" transform="translate(-92.105 -244.877)" fill="#60b7ff" fill-rule="evenodd"/>
          </g>
          <g id="Grupo_1209543" data-name="Grupo 1209543" transform="translate(0 11.799)">
            <path id="Trazado_1048265" data-name="Trazado 1048265" d="M97.7,345.187H93.494a1.391,1.391,0,0,0-1.389,1.386v4.206a1.391,1.391,0,0,0,1.389,1.389H97.7a1.391,1.391,0,0,0,1.386-1.389v-4.206A1.39,1.39,0,0,0,97.7,345.187Z" transform="translate(-92.105 -345.187)" fill="#6cf5c2" fill-rule="evenodd"/>
            <path id="Trazado_1048266" data-name="Trazado 1048266" d="M94.67,345.187H93.494a1.391,1.391,0,0,0-1.389,1.386v4.206a1.391,1.391,0,0,0,1.389,1.389H94.67a1.391,1.391,0,0,1-1.389-1.389v-4.206A1.391,1.391,0,0,1,94.67,345.187Z" transform="translate(-92.105 -345.187)" fill="#00e499" fill-rule="evenodd"/>
          </g>
        </g>
        <g id="Grupo_1209545" data-name="Grupo 1209545" transform="translate(30.33 12.728)">
          <path id="Trazado_1048267" data-name="Trazado 1048267" d="M278.328,139.187,293,124.515a2.093,2.093,0,0,1,2.952.063l.6.6a2.092,2.092,0,0,1,.063,2.952l-14.672,14.672-4.471,1.108a.213.213,0,0,1-.255-.255Z" transform="translate(-277.214 -123.936)" fill="#e3a76f" fill-rule="evenodd"/>
          <path id="Trazado_1048268" data-name="Trazado 1048268" d="M295.724,127.692a2.377,2.377,0,0,1,.229.2l.6.6a2.092,2.092,0,0,1,.063,2.952L281.947,146.12l-4.471,1.108a.213.213,0,0,1-.255-.255l.254-1.031,3.442-.853,14.672-14.672A2.078,2.078,0,0,0,295.724,127.692Z" transform="translate(-277.214 -127.25)" fill="#c48958" fill-rule="evenodd"/>
          <path id="Trazado_1048269" data-name="Trazado 1048269" d="M277.22,258.065l1.108-4.471,3.618,3.618-4.471,1.108A.213.213,0,0,1,277.22,258.065Z" transform="translate(-277.214 -238.343)" fill="#837683" fill-rule="evenodd"/>
          <path id="Trazado_1048270" data-name="Trazado 1048270" d="M277.22,277.475l.254-1.031,3.442-.853,1.031,1.031-4.471,1.108a.213.213,0,0,1-.255-.255Z" transform="translate(-277.214 -257.753)" fill="#685e68" fill-rule="evenodd"/>
          <path id="Trazado_1048271" data-name="Trazado 1048271" d="M401.115,125.727l1.213-1.213a2.093,2.093,0,0,1,2.952.063l.6.6a2.092,2.092,0,0,1,.063,2.952l-1.213,1.213Z" transform="translate(-386.541 -123.936)" fill="#837683" fill-rule="evenodd"/>
          <path id="Trazado_1048272" data-name="Trazado 1048272" d="M424.46,127.692a2.377,2.377,0,0,1,.229.2l.6.6a2.092,2.092,0,0,1,.063,2.952l-1.213,1.213-1.031-1.031,1.213-1.213A2.078,2.078,0,0,0,424.46,127.692Z" transform="translate(-405.951 -127.25)" fill="#685e68" fill-rule="evenodd"/>
        </g>
        <g id="Grupo_1209548" data-name="Grupo 1209548" transform="translate(28.681 32.255)">
          <g id="Grupo_1209546" data-name="Grupo 1209546">
            <path id="Trazado_1048273" data-name="Trazado 1048273" d="M278.733,291.159l11.038,19.114a2.414,2.414,0,0,1-2.091,3.62H265.609a2.414,2.414,0,0,1-2.089-3.62l11.036-19.114a2.411,2.411,0,0,1,4.178,0Z" transform="translate(-263.192 -289.952)" fill="#ffe177" fill-rule="evenodd"/>
            <path id="Trazado_1048274" data-name="Trazado 1048274" d="M370.515,290.094a2.446,2.446,0,0,1,.829-.142,2.374,2.374,0,0,1,2.089,1.207l11.038,19.114a2.414,2.414,0,0,1-2.091,3.62h-1.659a2.414,2.414,0,0,0,2.091-3.62l-11.038-19.114A2.376,2.376,0,0,0,370.515,290.094Z" transform="translate(-357.891 -289.952)" fill="#ffd064" fill-rule="evenodd"/>
          </g>
          <g id="Grupo_1209547" data-name="Grupo 1209547" transform="translate(12.073 6.029)">
            <path id="Trazado_1048275" data-name="Trazado 1048275" d="M367.434,350.905a1.076,1.076,0,0,1-1.076-1.039l-.274-7.54a1.054,1.054,0,0,1,.3-.788,1.043,1.043,0,0,1,.776-.329h.543a1.078,1.078,0,0,1,1.078,1.117l-.272,7.54A1.077,1.077,0,0,1,367.434,350.905Z" transform="translate(-366.055 -341.21)" fill="#fe646f" fill-rule="evenodd"/>
            <path id="Trazado_1048276" data-name="Trazado 1048276" d="M367.214,438.672a1.379,1.379,0,1,0-1.379-1.38A1.382,1.382,0,0,0,367.214,438.672Z" transform="translate(-365.834 -424.774)" fill="#fe646f" fill-rule="evenodd"/>
          </g>
        </g>
      </g>
      <path id="Trazado_1048277" data-name="Trazado 1048277" d="M38.87,62.647H13.3A3.358,3.358,0,0,1,9.948,59.3V14.944A3.361,3.361,0,0,1,13.3,11.591h8.338v-.515a.941.941,0,0,1,.941-.941H27.2a5.04,5.04,0,0,1,9.332,0h4.615a.941.941,0,0,1,.941.941v.515h8.338a3.361,3.361,0,0,1,3.353,3.353V23.72l2.744-2.744a2.916,2.916,0,0,1,4.124,0l.562.557,0,0a2.932,2.932,0,0,1,0,4.126l-7.433,7.433v6.472A3.291,3.291,0,0,1,56.1,41.2h0L67.14,60.311h0a3.311,3.311,0,0,1,0,3.354h0a3.312,3.312,0,0,1-2.9,1.675H42.162a3.31,3.31,0,0,1-2.9-1.678h0a3.417,3.417,0,0,1-.388-1.017ZM21.639,13.473H13.3a1.475,1.475,0,0,0-1.471,1.471V59.3A1.473,1.473,0,0,0,13.3,60.765H39.038a3.5,3.5,0,0,1,.22-.454l.586-1.016h-25.6a.941.941,0,0,1-.941-.941V15.887a.941.941,0,0,1,.941-.941h7.4Zm20.444,0v1.473h7.4a.941.941,0,0,1,.941.941V27.076L51.892,25.6V14.944a1.475,1.475,0,0,0-1.471-1.471Zm0,3.355v.515a.941.941,0,0,1-.941.941H22.58a.941.941,0,0,1-.941-.941v-.515H15.185V57.413H40.932l7.606-13.173V38.331l-1.56,1.56a.937.937,0,0,1-.42.243l-4.515,1.211a.938.938,0,0,1-.32.056H32.391a.941.941,0,0,1,0-1.882H41l.509-1.9H32.391a.941.941,0,1,1,0-1.882h9.626l.031-.115a.937.937,0,0,1,.243-.42l6.246-6.246V16.828Zm9.809,18.148-1.473,1.473v4.546a3.3,3.3,0,0,1,1.473-1.219Zm-8.453,2.7-.39,1.454,1.454-.39Zm2.875.223L57.581,26.635,55.546,24.6,44.28,35.867ZM58.907,25.309l.974-.974a1.05,1.05,0,0,0,0-1.476l-.56-.555,0,0a1.037,1.037,0,0,0-1.467,0l0,0-.974.974ZM54.472,42.136a1.47,1.47,0,0,0-2.547,0L40.889,61.25a1.473,1.473,0,0,0,1.273,2.21H64.234a1.473,1.473,0,0,0,1.276-2.21L54.472,42.136ZM54.146,56.89a2.32,2.32,0,1,1-1.895,0,2.016,2.016,0,0,1-1.069-1.71l-.274-7.543v0a1.965,1.965,0,0,1,.564-1.469l0,0a1.95,1.95,0,0,1,1.452-.616h.544a2.019,2.019,0,0,1,2.018,2.092l-.272,7.54a2.017,2.017,0,0,1-1.071,1.711ZM53.2,59.446a.439.439,0,1,0-.438-.438A.439.439,0,0,0,53.2,59.446Zm0-4.2a.137.137,0,0,0,.137-.131l.272-7.541h0a.13.13,0,0,0-.039-.1l0,0a.129.129,0,0,0-.1-.039h-.544a.136.136,0,0,0-.1.043.144.144,0,0,0-.037.1l.274,7.536h0a.136.136,0,0,0,.135.131ZM24.1,30.8V21.44a2.1,2.1,0,0,1,2.1-2.092h3.373a2.2,2.2,0,0,1,1.95,1.119l0,0,.937,1.625h6.137a2.1,2.1,0,0,1,2.1,2.1v6.6a2.1,2.1,0,0,1-2.1,2.092h-12.4A2.1,2.1,0,0,1,24.1,30.8Zm6.185-8.7-.395-.684a.364.364,0,0,0-.322-.181H26.192a.212.212,0,0,0-.214.21V22.1Zm8.31,1.882H25.978V30.8a.212.212,0,0,0,.214.21h12.4a.212.212,0,0,0,.213-.21v-6.6A.214.214,0,0,0,38.591,23.977ZM27.543,38.131v2.622a2.334,2.334,0,0,1-2.33,2.327H21.007a2.334,2.334,0,0,1-2.327-2.327V36.546a2.334,2.334,0,0,1,2.327-2.33h4.206a2.335,2.335,0,0,1,2.18,1.509L28.745,34.5a.941.941,0,1,1,1.264,1.394ZM25.661,37.3v-.751a.449.449,0,0,0-.448-.448H21.007a.447.447,0,0,0-.445.448v4.206a.446.446,0,0,0,.445.445h4.206a.447.447,0,0,0,.448-.445v-.914l-.614.557a.941.941,0,0,1-1.3-.032l-2.04-2.04a.941.941,0,0,1,1.331-1.331L24.446,38.4Zm6.73,15.98a.941.941,0,1,1,0-1.882h9.331a.941.941,0,1,1,0,1.882Zm0-3.779a.941.941,0,1,1,0-1.882H44.828a.941.941,0,1,1,0,1.882Zm-4.848.432v2.618a2.334,2.334,0,0,1-2.33,2.33H21.007a2.334,2.334,0,0,1-2.327-2.33V48.342a2.334,2.334,0,0,1,2.327-2.327h4.206a2.337,2.337,0,0,1,2.181,1.509l1.35-1.225a.941.941,0,1,1,1.264,1.394ZM25.661,49.1v-.754a.447.447,0,0,0-.448-.445H21.007a.446.446,0,0,0-.445.445v4.206a.447.447,0,0,0,.445.448h4.206a.449.449,0,0,0,.448-.448v-.911l-.614.557a.941.941,0,0,1-1.3-.032l-2.04-2.043a.941.941,0,0,1,1.332-1.33L24.447,50.2Zm-2.14-37.08V16.4H40.2V12.016H35.845a.941.941,0,0,1-.915-.721,3.158,3.158,0,0,0-6.138,0,.941.941,0,0,1-.915.721Zm8.338.368A1.083,1.083,0,1,1,32.944,11.3,1.083,1.083,0,0,1,31.86,12.384Z" fill-rule="evenodd"/>
    </g>
  </g>
</svg>
