<svg xmlns="http://www.w3.org/2000/svg" xmlns:xlink="http://www.w3.org/1999/xlink" width="118" height="118" viewBox="0 0 118 118">
  <defs>
    <filter id="Trazado_982547" x="0" y="0" width="118" height="118" filterUnits="userSpaceOnUse">
      <feOffset dy="3" input="SourceAlpha"/>
      <feGaussianBlur stdDeviation="3" result="blur"/>
      <feFlood flood-opacity="0.161"/>
      <feComposite operator="in" in2="blur"/>
      <feComposite in="SourceGraphic"/>
    </filter>
  </defs>
  <g id="Grupo_1209568" data-name="Grupo 1209568" transform="translate(-265 -8087.198)">
    <g id="Grupo_1209202" data-name="Grupo 1209202" transform="translate(-528.49 6856.982)">
      <g id="Grupo_1208492" data-name="Grupo 1208492" transform="translate(802.49 1236.215)">
        <g id="Grupo_1177675" data-name="Grupo 1177675" transform="translate(0 0)">
          <g id="Grupo_1176928" data-name="Grupo 1176928" transform="translate(0)">
            <g id="Grupo_1172322" data-name="Grupo 1172322" transform="translate(0 0)">
              <g id="Grupo_1164700" data-name="Grupo 1164700">
                <g id="Grupo_1160931" data-name="Grupo 1160931">
                  <g id="Grupo_1160749" data-name="Grupo 1160749">
                    <g id="Grupo_1158891" data-name="Grupo 1158891">
                      <g id="Grupo_1157406" data-name="Grupo 1157406">
                        <g id="Grupo_1155793" data-name="Grupo 1155793">
                          <g id="Grupo_1154704" data-name="Grupo 1154704">
                            <g id="Grupo_1150790" data-name="Grupo 1150790">
                              <g id="Grupo_1154214" data-name="Grupo 1154214">
                                <g id="Grupo_1152583" data-name="Grupo 1152583">
                                  <g id="Grupo_1146973" data-name="Grupo 1146973">
                                    <g id="Grupo_1146954" data-name="Grupo 1146954">
                                      <g transform="matrix(1, 0, 0, 1, -9, -6)" filter="url(#Trazado_982547)">
                                        <g id="Trazado_982547-2" data-name="Trazado 982547" transform="translate(9 6)" fill="#fef9e7">
                                          <path d="M 49.99995803833008 98.49976348876953 C 43.45184326171875 98.49976348876953 37.10039901733398 97.2176513671875 31.1220588684082 94.68901824951172 C 25.34690093994141 92.246337890625 20.15995788574219 88.74910736083984 15.70531558990479 84.29447937011719 C 11.25068664550781 79.83985137939453 7.753458023071289 74.65290832519531 5.31077241897583 68.87776184082031 C 2.782143831253052 62.89942169189453 1.500015139579773 56.54797744750977 1.500015139579773 49.9998779296875 C 1.500015139579773 43.45177841186523 2.782143831253052 37.10033416748047 5.31077241897583 31.12199211120605 C 7.753458023071289 25.34684944152832 11.25068664550781 20.15992164611816 15.70531558990479 15.70529174804688 C 20.15995788574219 11.25066375732422 25.34688568115234 7.753435134887695 31.1220588684082 5.310749530792236 C 37.10039901733398 2.782120704650879 43.45184326171875 1.500006556510925 49.99995803833008 1.500006556510925 C 56.54807281494141 1.500006556510925 62.89951705932617 2.782120704650879 68.87786865234375 5.310749530792236 C 74.65303039550781 7.753435134887695 79.83997344970703 11.25066375732422 84.29460144042969 15.70529174804688 C 88.74924468994141 20.15992164611816 92.24647521972656 25.34684944152832 94.68915557861328 31.12199211120605 C 97.21778869628906 37.10033416748047 98.49991607666016 43.45177841186523 98.49991607666016 49.9998779296875 C 98.49991607666016 56.54797744750977 97.21778869628906 62.89942169189453 94.68915557861328 68.87776184082031 C 92.24647521972656 74.65290832519531 88.74924468994141 79.83985137939453 84.29460144042969 84.29447937011719 C 79.83997344970703 88.74910736083984 74.65303039550781 92.246337890625 68.87786865234375 94.68901824951172 C 62.89951705932617 97.2176513671875 56.54807281494141 98.49976348876953 49.99995803833008 98.49976348876953 Z" stroke="none"/>
                                          <path d="M 49.99995803833008 3 C 43.65368270874023 3 37.49883651733398 4.24224853515625 31.70637512207031 6.692245483398438 C 26.11001586914062 9.059310913085938 21.08334350585938 12.44858551025391 16.76597595214844 16.76595306396484 C 12.44860076904297 21.08330535888672 9.059326171875 26.10997009277344 6.692268371582031 31.70632171630859 C 4.242263793945312 37.49877166748047 3.000007629394531 43.65361785888672 3.000007629394531 49.9998779296875 C 3.000007629394531 56.34613800048828 4.242263793945312 62.50098419189453 6.692268371582031 68.29343414306641 C 9.059326171875 73.88978576660156 12.44860076904297 78.91644287109375 16.76597595214844 83.23380279541016 C 21.08334350585938 87.55117034912109 26.11001586914062 90.94044494628906 31.70637512207031 93.30751037597656 C 37.49883651733398 95.75750732421875 43.65368270874023 96.999755859375 49.99995803833008 96.999755859375 C 56.34623336791992 96.999755859375 62.50107955932617 95.75750732421875 68.29354095458984 93.30751037597656 C 73.889892578125 90.94044494628906 78.91657257080078 87.55117034912109 83.23394012451172 83.23380279541016 C 87.55131530761719 78.91644287109375 90.94058990478516 73.88978576660156 93.30764770507812 68.29343414306641 C 95.75765228271484 62.50098419189453 96.99990844726562 56.34613800048828 96.99990844726562 49.9998779296875 C 96.99990844726562 43.65361785888672 95.75765228271484 37.49877166748047 93.30764770507812 31.70632171630859 C 90.94058990478516 26.10997009277344 87.55131530761719 21.08330535888672 83.23394012451172 16.76595306396484 C 78.91657257080078 12.44858551025391 73.889892578125 9.059310913085938 68.29354095458984 6.692245483398438 C 62.50107955932617 4.24224853515625 56.34623336791992 3 49.99995803833008 3 M 49.99995803833008 0 C 77.61415863037109 0 99.99990844726562 22.38571166992188 99.99990844726562 49.9998779296875 C 99.99990844726562 77.61404418945312 77.61415863037109 99.999755859375 49.99995803833008 99.999755859375 C 22.38575744628906 99.999755859375 7.62939453125e-06 77.61404418945312 7.62939453125e-06 49.9998779296875 C 7.62939453125e-06 22.38571166992188 22.38575744628906 0 49.99995803833008 0 Z" stroke="none" fill="#f8ce24"/>
                                        </g>
                                      </g>
                                    </g>
                                  </g>
                                </g>
                              </g>
                            </g>
                          </g>
                        </g>
                      </g>
                    </g>
                  </g>
                </g>
              </g>
            </g>
          </g>
        </g>
      </g>
    </g>
    <g id="analysis_17791862" transform="translate(289.354 8078.612)">
      <g id="Grupo_1209567" data-name="Grupo 1209567" transform="translate(1.329 35.901)">
        <g id="Grupo_1209551" data-name="Grupo 1209551" transform="translate(22.464 0)">
          <path id="Trazado_1048278" data-name="Trazado 1048278" d="M174.793,41.367h44.17v6.258h-44.17Z" transform="translate(-174.793 -41.367)" fill="#988393" fill-rule="evenodd"/>
        </g>
        <g id="Grupo_1209552" data-name="Grupo 1209552" transform="translate(22.464 31.532)">
          <path id="Trazado_1048279" data-name="Trazado 1048279" d="M174.793,277.313h44.17v6.262h-44.17Z" transform="translate(-174.793 -277.313)" fill="#988393" fill-rule="evenodd"/>
        </g>
        <g id="Grupo_1209553" data-name="Grupo 1209553" transform="translate(24.55 6.258)">
          <path id="Trazado_1048280" data-name="Trazado 1048280" d="M190.4,88.193h40v25.275h-40Z" transform="translate(-190.401 -88.193)" fill="#ececec" fill-rule="evenodd"/>
        </g>
        <g id="Grupo_1209554" data-name="Grupo 1209554" transform="translate(31.586 22.29)">
          <path id="Trazado_1048281" data-name="Trazado 1048281" d="M243.045,208.152h6.482v9.243h-6.482Z" transform="translate(-243.045 -208.152)" fill="#ff7e7b" fill-rule="evenodd"/>
        </g>
        <g id="Grupo_1209555" data-name="Grupo 1209555" transform="translate(38.067 19.096)">
          <path id="Trazado_1048282" data-name="Trazado 1048282" d="M291.545,184.257h6.482v12.436h-6.482Z" transform="translate(-291.545 -184.257)" fill="#ffe177" fill-rule="evenodd"/>
        </g>
        <g id="Grupo_1209556" data-name="Grupo 1209556" transform="translate(44.549 22.29)">
          <path id="Trazado_1048283" data-name="Trazado 1048283" d="M340.045,208.152h6.478v9.243h-6.478Z" transform="translate(-340.045 -208.152)" fill="#c9ef6c" fill-rule="evenodd"/>
        </g>
        <g id="Grupo_1209557" data-name="Grupo 1209557" transform="translate(51.027 16.597)">
          <path id="Trazado_1048284" data-name="Trazado 1048284" d="M388.517,165.555H395v14.936h-6.482Z" transform="translate(-388.517 -165.555)" fill="#8db9ff" fill-rule="evenodd"/>
        </g>
        <g id="Grupo_1209558" data-name="Grupo 1209558" transform="translate(41.458 42.088)">
          <path id="Trazado_1048285" data-name="Trazado 1048285" d="M320.007,362.471a3.089,3.089,0,1,0-3.091-3.091A3.1,3.1,0,0,0,320.007,362.471Z" transform="translate(-316.916 -356.293)" fill="#ec5a6e" fill-rule="evenodd"/>
        </g>
        <g id="Grupo_1209559" data-name="Grupo 1209559" transform="translate(0 13.657)">
          <path id="Trazado_1048286" data-name="Trazado 1048286" d="M32.231,143.561a3.372,3.372,0,1,1,0,6.743l-5.882.03a1.049,1.049,0,0,0-1.043,1.062l.118,9.683H12.607V162.2a2.961,2.961,0,0,1-2.951,2.951h0A2.961,2.961,0,0,1,6.7,162.2V147.631a4.057,4.057,0,0,1,4.047-4.043c7.161,0,14.321-.027,21.482-.027Z" transform="translate(-6.702 -143.561)" fill="#f7c5b8" fill-rule="evenodd"/>
        </g>
        <g id="Grupo_1209560" data-name="Grupo 1209560" transform="translate(8.735 13.669)">
          <path id="Trazado_1048287" data-name="Trazado 1048287" d="M72.059,143.657l7.153-.011v.008a3.576,3.576,0,0,1-7.153,0Z" transform="translate(-72.059 -143.646)" fill="#f7c5b8" fill-rule="evenodd"/>
        </g>
        <g id="Grupo_1209561" data-name="Grupo 1209561" transform="translate(3.907 31.176)">
          <path id="Trazado_1048288" data-name="Trazado 1048288" d="M37.931,274.645H50.746v19.991H35.932V278.559a2.96,2.96,0,0,0,2-2.791Z" transform="translate(-35.932 -274.645)" fill="#3bcbb0" fill-rule="evenodd"/>
        </g>
        <g id="Grupo_1209562" data-name="Grupo 1209562" transform="translate(1.669 51.167)">
          <path id="Trazado_1048289" data-name="Trazado 1048289" d="M28.834,424.233H21.021a1.835,1.835,0,0,0-1.832,1.832v3.459h9.645v-5.291Z" transform="translate(-19.189 -424.233)" fill="#5c85da" fill-rule="evenodd"/>
        </g>
        <g id="Grupo_1209563" data-name="Grupo 1209563" transform="translate(11.314 51.167)">
          <path id="Trazado_1048290" data-name="Trazado 1048290" d="M91.357,424.233H99.17a1.839,1.839,0,0,1,1.836,1.832v3.459H91.357Z" transform="translate(-91.357 -424.233)" fill="#5c85da" fill-rule="evenodd"/>
        </g>
        <g id="Grupo_1209564" data-name="Grupo 1209564" transform="translate(7.21 0.842)">
          <path id="Trazado_1048291" data-name="Trazado 1048291" d="M65.752,57.866a5.1,5.1,0,1,0-5.1-5.1A5.109,5.109,0,0,0,65.752,57.866Z" transform="translate(-60.651 -47.667)" fill="#f7c5b8" fill-rule="evenodd"/>
        </g>
        <g id="Grupo_1209565" data-name="Grupo 1209565" transform="translate(25.516 41.367)">
          <path id="Trazado_1048292" data-name="Trazado 1048292" d="M207.615,351.769,214.1,363a2.6,2.6,0,0,1-2.257,3.907H200.242A2.6,2.6,0,0,1,198,362.973l6.618-11.219a1.737,1.737,0,0,1,3,.015Z" transform="translate(-197.627 -350.901)" fill="#ffd06c" fill-rule="evenodd"/>
        </g>
        <g id="Grupo_1209566" data-name="Grupo 1209566" transform="translate(0 13.657)">
          <path id="Trazado_1048293" data-name="Trazado 1048293" d="M12.605,161.079H25.421L25.3,151.4a1.049,1.049,0,0,1,1.043-1.062l2.446-.011h.152v-6.762h-.152l-6.2.011v.008a3.577,3.577,0,0,1-7.153,0q-2.344.006-4.688,0A4.057,4.057,0,0,0,6.7,147.631v13.449Z" transform="translate(-6.7 -143.561)" fill="#4e9fe6" fill-rule="evenodd"/>
        </g>
      </g>
      <path id="Trazado_1048294" data-name="Trazado 1048294" d="M67.859,43.161a.932.932,0,0,0,.932-.932V35.99a.932.932,0,0,0-.932-.932H23.827a.932.932,0,0,0-.932.932v6.239a.932.932,0,0,0,.932.932h1.148v5.513H23.492l-.036,0-.037,0c-2.433,0-4.867.007-7.246.011-3.509.007-7.138.013-10.706.013A4.97,4.97,0,0,0,.5,53.662V68.189a3.878,3.878,0,0,0,3.874,3.874h.021V86.119a2.762,2.762,0,0,0-2.231,2.706v3.448a.932.932,0,0,0,.932.932h19.23a.932.932,0,0,0,.932-.932V88.825a2.762,2.762,0,0,0-2.231-2.706V67.069s0,0,0-.006,0,0,0-.006L20.91,57.4c0-.047.007-.055.026-.074l.012-.013c.018-.019.027-.028.075-.028l2.41-.012h.054l1.489-.008v9.223H23.827a.932.932,0,0,0-.932.932v6.242a.932.932,0,0,0,.932.932H44.911v2.526a4.01,4.01,0,1,0,1.864,0V74.6H67.859a.932.932,0,0,0,.932-.932V67.425a.932.932,0,0,0-.932-.932H66.712V43.161ZM47.989,81.025a2.148,2.148,0,1,1-2.146-2.146,2.15,2.15,0,0,1,2.146,2.146Zm-23.23-44.1H66.928V41.3H24.759ZM25.928,55.4h-.05l-1.491.008v-4.87h2.494a2.429,2.429,0,1,1,0,4.859Zm-9.758-4.85a2.632,2.632,0,0,1-4.925.008l4.925-.008ZM2.364,68.189V68H6.387v.187a2.012,2.012,0,0,1-4.023,0Zm5.887,0V68H19.163V86.067h-5.52V71.561a.932.932,0,0,0-1.864,0V86.067H6.258V71.572a3.875,3.875,0,0,0,1.992-3.383ZM4.028,88.825a.9.9,0,0,1,.894-.894h6.857v3.41H4.028Zm17.366,0v2.516H13.643v-3.41H20.5A.9.9,0,0,1,21.394,88.825ZM21,55.426a1.978,1.978,0,0,0-1.959,2l.106,8.709H8.251V55.47a.932.932,0,1,0-1.864,0V66.138H2.364V53.662a3.1,3.1,0,0,1,3.1-3.1l3.84,0a4.5,4.5,0,0,0,8.8-.014l4.416-.007v4.878ZM66.928,72.735H24.759V68.357H66.928Zm-9.1-6.242h-4.6V53.467h4.6Zm-6.462,0H46.775v-7.35h4.594Zm-6.458,0h-4.6V55.959h4.6Zm-6.462,0h-4.6v-7.35h4.6Zm26.4,0H59.695V52.535a.932.932,0,0,0-.932-.932H52.3a.932.932,0,0,0-.932.932v4.743H46.775V55.027a.932.932,0,0,0-.932-.932H39.381a.932.932,0,0,0-.932.932v2.252H32.92a.932.932,0,0,0-.932.932v8.282h-5.15V57.26h.049a4.293,4.293,0,0,0-.006-8.586h-.044V43.161h38.01V66.493ZM30.453,46.8a.932.932,0,0,1,.931-.915H31.4l8.836.159a.933.933,0,0,1,.524.173L45.5,49.591l3.869-2.438a.932.932,0,0,1,.5-.144h9.222a.932.932,0,0,1,0,1.864H50.131L45.962,51.5a.932.932,0,0,1-1.038-.029L39.915,47.9l-8.547-.154a.932.932,0,0,1-.915-.949ZM13.7,47.928a6.015,6.015,0,1,0-6.017-6.017A6.024,6.024,0,0,0,13.7,47.928Zm0-10.167a4.151,4.151,0,1,1-4.153,4.15,4.156,4.156,0,0,1,4.153-4.15ZM37.632,77.628A2.593,2.593,0,0,0,35.338,76.3h-.017a2.634,2.634,0,0,0-2.289,1.309l-6.6,11.186a3.528,3.528,0,0,0,3.042,5.321h11.57a3.529,3.529,0,0,0,3.056-5.3Zm4.856,13.789a1.607,1.607,0,0,1-1.443.831H29.475a1.664,1.664,0,0,1-1.436-2.511l6.6-11.184a.761.761,0,0,1,.689-.393h.006a.746.746,0,0,1,.686.4v0l6.468,11.186a1.618,1.618,0,0,1,0,1.67Zm-6.3-8.861v3.467a.932.932,0,0,1-1.864,0V82.556a.932.932,0,1,1,1.864,0Zm0,6.061v.042a.932.932,0,0,1-1.864,0v-.042a.932.932,0,0,1,1.864,0Z"/>
    </g>
  </g>
</svg>
