<svg xmlns="http://www.w3.org/2000/svg" xmlns:xlink="http://www.w3.org/1999/xlink" width="118" height="118" viewBox="0 0 118 118">
  <defs>
    <filter id="Trazado_982547" x="0" y="0" width="118" height="118" filterUnits="userSpaceOnUse">
      <feOffset dy="3" input="SourceAlpha"/>
      <feGaussianBlur stdDeviation="3" result="blur"/>
      <feFlood flood-opacity="0.161"/>
      <feComposite operator="in" in2="blur"/>
      <feComposite in="SourceGraphic"/>
    </filter>
  </defs>
  <g id="Grupo_1209569" data-name="Grupo 1209569" transform="translate(-583.5 -8087.198)">
    <g id="Grupo_1209199" data-name="Grupo 1209199" transform="translate(-209.99 6856.982)">
      <g id="Grupo_1208492" data-name="Grupo 1208492" transform="translate(802.49 1236.215)">
        <g id="Grupo_1177675" data-name="Grupo 1177675" transform="translate(0 0)">
          <g id="Grupo_1176928" data-name="Grupo 1176928" transform="translate(0)">
            <g id="Grupo_1172322" data-name="Grupo 1172322" transform="translate(0 0)">
              <g id="Grupo_1164700" data-name="Grupo 1164700">
                <g id="Grupo_1160931" data-name="Grupo 1160931">
                  <g id="Grupo_1160749" data-name="Grupo 1160749">
                    <g id="Grupo_1158891" data-name="Grupo 1158891">
                      <g id="Grupo_1157406" data-name="Grupo 1157406">
                        <g id="Grupo_1155793" data-name="Grupo 1155793">
                          <g id="Grupo_1154704" data-name="Grupo 1154704">
                            <g id="Grupo_1150790" data-name="Grupo 1150790">
                              <g id="Grupo_1154214" data-name="Grupo 1154214">
                                <g id="Grupo_1152583" data-name="Grupo 1152583">
                                  <g id="Grupo_1146973" data-name="Grupo 1146973">
                                    <g id="Grupo_1146954" data-name="Grupo 1146954">
                                      <g transform="matrix(1, 0, 0, 1, -9, -6)" filter="url(#Trazado_982547)">
                                        <g id="Trazado_982547-2" data-name="Trazado 982547" transform="translate(9 6)" fill="#fef9e7">
                                          <path d="M 49.99995803833008 98.49976348876953 C 43.45184326171875 98.49976348876953 37.10039901733398 97.2176513671875 31.1220588684082 94.68901824951172 C 25.34690093994141 92.246337890625 20.15995788574219 88.74910736083984 15.70531558990479 84.29447937011719 C 11.25068664550781 79.83985137939453 7.753458023071289 74.65290832519531 5.31077241897583 68.87776184082031 C 2.782143831253052 62.89942169189453 1.500015139579773 56.54797744750977 1.500015139579773 49.9998779296875 C 1.500015139579773 43.45177841186523 2.782143831253052 37.10033416748047 5.31077241897583 31.12199211120605 C 7.753458023071289 25.34684944152832 11.25068664550781 20.15992164611816 15.70531558990479 15.70529174804688 C 20.15995788574219 11.25066375732422 25.34688568115234 7.753435134887695 31.1220588684082 5.310749530792236 C 37.10039901733398 2.782120704650879 43.45184326171875 1.500006556510925 49.99995803833008 1.500006556510925 C 56.54807281494141 1.500006556510925 62.89951705932617 2.782120704650879 68.87786865234375 5.310749530792236 C 74.65303039550781 7.753435134887695 79.83997344970703 11.25066375732422 84.29460144042969 15.70529174804688 C 88.74924468994141 20.15992164611816 92.24647521972656 25.34684944152832 94.68915557861328 31.12199211120605 C 97.21778869628906 37.10033416748047 98.49991607666016 43.45177841186523 98.49991607666016 49.9998779296875 C 98.49991607666016 56.54797744750977 97.21778869628906 62.89942169189453 94.68915557861328 68.87776184082031 C 92.24647521972656 74.65290832519531 88.74924468994141 79.83985137939453 84.29460144042969 84.29447937011719 C 79.83997344970703 88.74910736083984 74.65303039550781 92.246337890625 68.87786865234375 94.68901824951172 C 62.89951705932617 97.2176513671875 56.54807281494141 98.49976348876953 49.99995803833008 98.49976348876953 Z" stroke="none"/>
                                          <path d="M 49.99995803833008 3 C 43.65368270874023 3 37.49883651733398 4.24224853515625 31.70637512207031 6.692245483398438 C 26.11001586914062 9.059310913085938 21.08334350585938 12.44858551025391 16.76597595214844 16.76595306396484 C 12.44860076904297 21.08330535888672 9.059326171875 26.10997009277344 6.692268371582031 31.70632171630859 C 4.242263793945312 37.49877166748047 3.000007629394531 43.65361785888672 3.000007629394531 49.9998779296875 C 3.000007629394531 56.34613800048828 4.242263793945312 62.50098419189453 6.692268371582031 68.29343414306641 C 9.059326171875 73.88978576660156 12.44860076904297 78.91644287109375 16.76597595214844 83.23380279541016 C 21.08334350585938 87.55117034912109 26.11001586914062 90.94044494628906 31.70637512207031 93.30751037597656 C 37.49883651733398 95.75750732421875 43.65368270874023 96.999755859375 49.99995803833008 96.999755859375 C 56.34623336791992 96.999755859375 62.50107955932617 95.75750732421875 68.29354095458984 93.30751037597656 C 73.889892578125 90.94044494628906 78.91657257080078 87.55117034912109 83.23394012451172 83.23380279541016 C 87.55131530761719 78.91644287109375 90.94058990478516 73.88978576660156 93.30764770507812 68.29343414306641 C 95.75765228271484 62.50098419189453 96.99990844726562 56.34613800048828 96.99990844726562 49.9998779296875 C 96.99990844726562 43.65361785888672 95.75765228271484 37.49877166748047 93.30764770507812 31.70632171630859 C 90.94058990478516 26.10997009277344 87.55131530761719 21.08330535888672 83.23394012451172 16.76595306396484 C 78.91657257080078 12.44858551025391 73.889892578125 9.059310913085938 68.29354095458984 6.692245483398438 C 62.50107955932617 4.24224853515625 56.34623336791992 3 49.99995803833008 3 M 49.99995803833008 0 C 77.61415863037109 0 99.99990844726562 22.38571166992188 99.99990844726562 49.9998779296875 C 99.99990844726562 77.61404418945312 77.61415863037109 99.999755859375 49.99995803833008 99.999755859375 C 22.38575744628906 99.999755859375 7.62939453125e-06 77.61404418945312 7.62939453125e-06 49.9998779296875 C 7.62939453125e-06 22.38571166992188 22.38575744628906 0 49.99995803833008 0 Z" stroke="none" fill="#f8ce24"/>
                                        </g>
                                      </g>
                                    </g>
                                  </g>
                                </g>
                              </g>
                            </g>
                          </g>
                        </g>
                      </g>
                    </g>
                  </g>
                </g>
              </g>
            </g>
          </g>
        </g>
      </g>
    </g>
    <g id="Engineer-Avatar-Occupation-Man-Gear" transform="translate(609 8103.86)">
      <path id="Trazado_1048295" data-name="Trazado 1048295" d="M47.539,52.115V63.383H3V52.115a8.891,8.891,0,0,1,6.247-8.5L20.816,40h8.908l11.569,3.619A8.891,8.891,0,0,1,47.539,52.115Z" transform="translate(0.113 4.312)" fill="#e6e7e8"/>
      <path id="Trazado_1048296" data-name="Trazado 1048296" d="M24.454,48l2.227,14.475H20L22.227,48Z" transform="translate(2.043 5.22)" fill="#898890"/>
      <path id="Trazado_1048297" data-name="Trazado 1048297" d="M26.619,44.349l-2.171,4.331H22.221L20.05,44.349,23.335,42Z" transform="translate(2.048 4.539)" fill="#898890"/>
      <path id="Trazado_1048298" data-name="Trazado 1048298" d="M30.794,41.047v6.748l-4.51-3.218L23,42.227,27.454,40Z" transform="translate(2.383 4.312)" fill="#bcbec0"/>
      <path id="Trazado_1048299" data-name="Trazado 1048299" d="M23.794,42.227,20.51,44.576,16,47.794V41.047L19.34,40Z" transform="translate(1.589 4.312)" fill="#bcbec0"/>
      <path id="Trazado_1048300" data-name="Trazado 1048300" d="M37.837,15a1.113,1.113,0,0,1,1.113,1.113V18.34a1.113,1.113,0,0,1-1.113,1.113H11.113A1.113,1.113,0,0,1,10,18.34V16.113A1.113,1.113,0,0,1,11.113,15Z" transform="translate(0.908 1.475)" fill="#d1d3d4"/>
      <path id="Trazado_1048301" data-name="Trazado 1048301" d="M36.5,16.135H12A11.135,11.135,0,0,1,23.135,5h2.227A11.135,11.135,0,0,1,36.5,16.135Z" transform="translate(1.135 0.34)" fill="#e6e7e8"/>
      <path id="Trazado_1048302" data-name="Trazado 1048302" d="M13.454,21v6.681H12.34a3.34,3.34,0,1,1,0-6.681Z" transform="translate(0.794 2.156)" fill="#ffb655"/>
      <path id="Trazado_1048303" data-name="Trazado 1048303" d="M34.113,21a3.34,3.34,0,0,1,0,6.681H33V21Z" transform="translate(3.518 2.156)" fill="#ffb655"/>
      <path id="Trazado_1048304" data-name="Trazado 1048304" d="M25.454,5.227V16.362H21V5.227a2.227,2.227,0,1,1,4.454,0Z" transform="translate(2.156 0.113)" fill="#e0e0e2"/>
      <path id="Trazado_1048305" data-name="Trazado 1048305" d="M27.908,35.16v5.389l-4.454,2.227L19,40.549V35.16Z" transform="translate(1.929 3.763)" fill="#ffc477"/>
      <path id="Trazado_1048306" data-name="Trazado 1048306" d="M63.5,50.021v4.454L60.88,55A9.322,9.322,0,0,1,60,57.114l1.481,2.216L58.33,62.481,56.114,61A9.322,9.322,0,0,1,54,61.88L53.475,64.5H49.021L48.5,61.88A9.322,9.322,0,0,1,46.382,61l-2.216,1.481L41.015,59.33,42.5,57.114A9.322,9.322,0,0,1,41.617,55L39,54.475V50.021l2.617-.523a9.322,9.322,0,0,1,.88-2.116l-1.481-2.216,3.151-3.151L46.382,43.5a9.322,9.322,0,0,1,2.116-.88L49.021,40h4.454L54,42.617a9.322,9.322,0,0,1,2.116.88l2.216-1.481,3.151,3.151L60,47.382a9.322,9.322,0,0,1,.88,2.116Z" transform="translate(4.198 4.312)" fill="#ff9811"/>
      <circle id="Elipse_12692" data-name="Elipse 12692" cx="5.5" cy="5.5" r="5.5" transform="translate(50 50.923)" fill="#ee8700"/>
      <path id="Trazado_1048307" data-name="Trazado 1048307" d="M27.908,35.16V38.5A11.072,11.072,0,0,1,19,38.5V35.16Z" transform="translate(1.929 3.763)" fill="#ffb655"/>
      <path id="Trazado_1048308" data-name="Trazado 1048308" d="M35.269,19v8.908a11.135,11.135,0,0,1-22.269,0V19Z" transform="translate(1.248 1.929)" fill="#ffc477"/>
      <path id="Trazado_1048309" data-name="Trazado 1048309" d="M31.589,28v6.837a11.135,11.135,0,0,1-15.589,0V28Z" transform="translate(1.589 2.95)" fill="#44ffe8"/>
      <path id="Trazado_1048310" data-name="Trazado 1048310" d="M50.681,45a6.681,6.681,0,1,0,6.681,6.681A6.681,6.681,0,0,0,50.681,45Zm0,11.135a4.454,4.454,0,1,1,4.454-4.454A4.454,4.454,0,0,1,50.681,56.135Z" transform="translate(4.766 4.879)"/>
      <path id="Trazado_1048311" data-name="Trazado 1048311" d="M67.918,53.242l-1.982-.4a10.021,10.021,0,0,0-.445-1.08l1.113-1.67a1.1,1.1,0,0,0-.134-1.4l-3.151-3.151a1.1,1.1,0,0,0-1.4-.134l-1.67,1.113c-.356-.167-.713-.312-1.08-.445l-.4-1.982a1.113,1.113,0,0,0-1.091-.891H53.22a1.114,1.114,0,0,0-1.091.891l-.4,1.982c-.367.134-.724.278-1.08.445L48.977,45.4a1.1,1.1,0,0,0-1.4.134L44.713,48.4a9.774,9.774,0,0,0-2.973-1.525L30.95,43.5V40.738a12.279,12.279,0,0,0,6.625-9.787h.056a4.454,4.454,0,1,0,0-8.908h1.113a2.234,2.234,0,0,0,2.227-2.227V17.589a2.234,2.234,0,0,0-2.227-2.227h-.056a12.158,12.158,0,0,0-3.53-7.549,12.3,12.3,0,0,0-6.581-3.407,3.324,3.324,0,0,0-6.391.011,12.158,12.158,0,0,0-10.11,10.945h-.056a2.234,2.234,0,0,0-2.227,2.227v2.227a2.234,2.234,0,0,0,2.227,2.227h1.113a4.454,4.454,0,1,0,0,8.908h.056a12.279,12.279,0,0,0,6.625,9.787V43.5L9.026,46.873A9.956,9.956,0,0,0,2,56.426V67.695a1.113,1.113,0,0,0,1.113,1.113H47.652a1.107,1.107,0,0,0,1.091-.98,1.114,1.114,0,0,0,.234-.111l1.67-1.113c.356.167.713.312,1.08.445l.4,1.982a1.113,1.113,0,0,0,1.091.891h4.454a1.114,1.114,0,0,0,1.091-.891l.4-1.982c.367-.134.724-.278,1.08-.445l1.67,1.113a1.1,1.1,0,0,0,1.4-.134l3.151-3.151a1.1,1.1,0,0,0,.134-1.4l-1.113-1.67a10.021,10.021,0,0,0,.445-1.08l1.982-.4a1.113,1.113,0,0,0,.891-1.091V54.333a1.114,1.114,0,0,0-.891-1.091ZM13.135,28.723a2.227,2.227,0,0,1,0-4.454ZM35.4,29.837A9.984,9.984,0,0,1,34.291,34.4V31.184L35.4,28.579Zm4.454-3.34a2.244,2.244,0,0,1-2.227,2.227V24.269A2.234,2.234,0,0,1,39.858,26.5ZM28.723,6.71A10.608,10.608,0,0,1,30.95,7.5v5.634h2.227V9.015c.134.122.278.245.4.379a9.954,9.954,0,0,1,2.884,5.968H28.723ZM24.269,5.34a1.113,1.113,0,1,1,2.227,0V15.362H24.269ZM17.589,8.993v4.142h2.227V7.489a10.153,10.153,0,0,1,2.227-.779v8.652H14.3a10.059,10.059,0,0,1,3.285-6.369ZM12.021,19.815V17.589H38.745v2.227ZM16.475,34.4a9.985,9.985,0,0,1-1.113-4.565V28.579l1.113,2.606ZM15.362,22.933v-.891H35.4v.891l-2.962,6.9H18.324ZM18.7,37.286v-.768h4.454V34.291H18.7V32.064H32.064v2.227H27.61v2.227h4.454v.768A9.962,9.962,0,0,1,18.7,37.286Zm6.681,8.006-3.34-1.67V41.606a11.892,11.892,0,0,0,6.681,0v2.015Zm1.859,3.942-1.436,2.873H24.96l-1.436-2.873,1.859-1.325ZM21.085,66.581h-7.95V55.447H10.908V66.581H4.227V56.426a7.754,7.754,0,0,1,5.467-7.438l6.781-2.116v5.233a1.122,1.122,0,0,0,.6.991,1.194,1.194,0,0,0,.512.122,1.068,1.068,0,0,0,.646-.212l3.452-2.461,1.425,2.85ZM18.7,49.946V46.171l2.127-.657,2.405,1.191Zm4.643,16.635,1.882-12.248h.312l1.882,12.248Zm6.592-21.067,2.127.657v3.775l-4.532-3.24Zm16.6,21.067H39.858V55.447H37.631V66.581h-7.95L27.654,53.4l1.425-2.85,3.452,2.461a1.068,1.068,0,0,0,.646.212,1.194,1.194,0,0,0,.512-.122,1.122,1.122,0,0,0,.6-.991V46.873l6.781,2.116a7.783,7.783,0,0,1,4.176,3.151c-.1.234-.212.468-.289.7l-1.982.4a1.113,1.113,0,0,0-.891,1.091v4.454a1.114,1.114,0,0,0,.891,1.091l1.982.4a10.021,10.021,0,0,0,.445,1.08l-1.113,1.67a1.1,1.1,0,0,0,.134,1.4l2.116,2.116Zm20.043-8.707-1.726.345a1.1,1.1,0,0,0-.846.791,9.308,9.308,0,0,1-.779,1.882,1.113,1.113,0,0,0,.045,1.158l.98,1.459-1.859,1.86-1.459-.98a1.132,1.132,0,0,0-1.169-.045,8.957,8.957,0,0,1-1.871.779,1.1,1.1,0,0,0-.791.846l-.345,1.726H54.133l-.345-1.726A1.1,1.1,0,0,0,53,65.123a8.957,8.957,0,0,1-1.871-.779,1.132,1.132,0,0,0-1.169.045l-1.459.98-1.859-1.86.98-1.459a1.113,1.113,0,0,0,.045-1.158,9.308,9.308,0,0,1-.779-1.882,1.1,1.1,0,0,0-.846-.791l-1.726-.345V55.246l1.726-.345a1.1,1.1,0,0,0,.846-.791,9.308,9.308,0,0,1,.779-1.882,1.113,1.113,0,0,0-.045-1.158l-.98-1.459L48.5,47.753l1.459.98a1.132,1.132,0,0,0,1.169.045A8.957,8.957,0,0,1,53,48a1.1,1.1,0,0,0,.791-.846l.345-1.726h2.628l.345,1.726A1.1,1.1,0,0,0,57.9,48a8.957,8.957,0,0,1,1.871.779,1.132,1.132,0,0,0,1.169-.045l1.459-.98,1.859,1.859-.98,1.459a1.113,1.113,0,0,0-.045,1.158,9.307,9.307,0,0,1,.779,1.882,1.1,1.1,0,0,0,.846.791l1.726.345Z" transform="translate(0 0)"/>
    </g>
  </g>
</svg>
