<svg xmlns="http://www.w3.org/2000/svg" xmlns:xlink="http://www.w3.org/1999/xlink" width="118" height="118" viewBox="0 0 118 118">
  <defs>
    <filter id="Trazado_982547" x="0" y="0" width="118" height="118" filterUnits="userSpaceOnUse">
      <feOffset dy="3" input="SourceAlpha"/>
      <feGaussianBlur stdDeviation="3" result="blur"/>
      <feFlood flood-opacity="0.161"/>
      <feComposite operator="in" in2="blur"/>
      <feComposite in="SourceGraphic"/>
    </filter>
  </defs>
  <g id="Grupo_1209570" data-name="Grupo 1209570" transform="translate(-898.5 -8087.198)">
    <g id="Grupo_1209200" data-name="Grupo 1209200" transform="translate(105.01 6856.982)">
      <g id="Grupo_1208492" data-name="Grupo 1208492" transform="translate(802.49 1236.215)">
        <g id="Grupo_1177675" data-name="Grupo 1177675" transform="translate(0 0)">
          <g id="Grupo_1176928" data-name="Grupo 1176928" transform="translate(0)">
            <g id="Grupo_1172322" data-name="Grupo 1172322" transform="translate(0 0)">
              <g id="Grupo_1164700" data-name="Grupo 1164700">
                <g id="Grupo_1160931" data-name="Grupo 1160931">
                  <g id="Grupo_1160749" data-name="Grupo 1160749">
                    <g id="Grupo_1158891" data-name="Grupo 1158891">
                      <g id="Grupo_1157406" data-name="Grupo 1157406">
                        <g id="Grupo_1155793" data-name="Grupo 1155793">
                          <g id="Grupo_1154704" data-name="Grupo 1154704">
                            <g id="Grupo_1150790" data-name="Grupo 1150790">
                              <g id="Grupo_1154214" data-name="Grupo 1154214">
                                <g id="Grupo_1152583" data-name="Grupo 1152583">
                                  <g id="Grupo_1146973" data-name="Grupo 1146973">
                                    <g id="Grupo_1146954" data-name="Grupo 1146954">
                                      <g transform="matrix(1, 0, 0, 1, -9, -6)" filter="url(#Trazado_982547)">
                                        <g id="Trazado_982547-2" data-name="Trazado 982547" transform="translate(9 6)" fill="#fef9e7">
                                          <path d="M 49.99995803833008 98.49976348876953 C 43.45184326171875 98.49976348876953 37.10039901733398 97.2176513671875 31.1220588684082 94.68901824951172 C 25.34690093994141 92.246337890625 20.15995788574219 88.74910736083984 15.70531558990479 84.29447937011719 C 11.25068664550781 79.83985137939453 7.753458023071289 74.65290832519531 5.31077241897583 68.87776184082031 C 2.782143831253052 62.89942169189453 1.500015139579773 56.54797744750977 1.500015139579773 49.9998779296875 C 1.500015139579773 43.45177841186523 2.782143831253052 37.10033416748047 5.31077241897583 31.12199211120605 C 7.753458023071289 25.34684944152832 11.25068664550781 20.15992164611816 15.70531558990479 15.70529174804688 C 20.15995788574219 11.25066375732422 25.34688568115234 7.753435134887695 31.1220588684082 5.310749530792236 C 37.10039901733398 2.782120704650879 43.45184326171875 1.500006556510925 49.99995803833008 1.500006556510925 C 56.54807281494141 1.500006556510925 62.89951705932617 2.782120704650879 68.87786865234375 5.310749530792236 C 74.65303039550781 7.753435134887695 79.83997344970703 11.25066375732422 84.29460144042969 15.70529174804688 C 88.74924468994141 20.15992164611816 92.24647521972656 25.34684944152832 94.68915557861328 31.12199211120605 C 97.21778869628906 37.10033416748047 98.49991607666016 43.45177841186523 98.49991607666016 49.9998779296875 C 98.49991607666016 56.54797744750977 97.21778869628906 62.89942169189453 94.68915557861328 68.87776184082031 C 92.24647521972656 74.65290832519531 88.74924468994141 79.83985137939453 84.29460144042969 84.29447937011719 C 79.83997344970703 88.74910736083984 74.65303039550781 92.246337890625 68.87786865234375 94.68901824951172 C 62.89951705932617 97.2176513671875 56.54807281494141 98.49976348876953 49.99995803833008 98.49976348876953 Z" stroke="none"/>
                                          <path d="M 49.99995803833008 3 C 43.65368270874023 3 37.49883651733398 4.24224853515625 31.70637512207031 6.692245483398438 C 26.11001586914062 9.059310913085938 21.08334350585938 12.44858551025391 16.76597595214844 16.76595306396484 C 12.44860076904297 21.08330535888672 9.059326171875 26.10997009277344 6.692268371582031 31.70632171630859 C 4.242263793945312 37.49877166748047 3.000007629394531 43.65361785888672 3.000007629394531 49.9998779296875 C 3.000007629394531 56.34613800048828 4.242263793945312 62.50098419189453 6.692268371582031 68.29343414306641 C 9.059326171875 73.88978576660156 12.44860076904297 78.91644287109375 16.76597595214844 83.23380279541016 C 21.08334350585938 87.55117034912109 26.11001586914062 90.94044494628906 31.70637512207031 93.30751037597656 C 37.49883651733398 95.75750732421875 43.65368270874023 96.999755859375 49.99995803833008 96.999755859375 C 56.34623336791992 96.999755859375 62.50107955932617 95.75750732421875 68.29354095458984 93.30751037597656 C 73.889892578125 90.94044494628906 78.91657257080078 87.55117034912109 83.23394012451172 83.23380279541016 C 87.55131530761719 78.91644287109375 90.94058990478516 73.88978576660156 93.30764770507812 68.29343414306641 C 95.75765228271484 62.50098419189453 96.99990844726562 56.34613800048828 96.99990844726562 49.9998779296875 C 96.99990844726562 43.65361785888672 95.75765228271484 37.49877166748047 93.30764770507812 31.70632171630859 C 90.94058990478516 26.10997009277344 87.55131530761719 21.08330535888672 83.23394012451172 16.76595306396484 C 78.91657257080078 12.44858551025391 73.889892578125 9.059310913085938 68.29354095458984 6.692245483398438 C 62.50107955932617 4.24224853515625 56.34623336791992 3 49.99995803833008 3 M 49.99995803833008 0 C 77.61415863037109 0 99.99990844726562 22.38571166992188 99.99990844726562 49.9998779296875 C 99.99990844726562 77.61404418945312 77.61415863037109 99.999755859375 49.99995803833008 99.999755859375 C 22.38575744628906 99.999755859375 7.62939453125e-06 77.61404418945312 7.62939453125e-06 49.9998779296875 C 7.62939453125e-06 22.38571166992188 22.38575744628906 0 49.99995803833008 0 Z" stroke="none" fill="#f8ce24"/>
                                        </g>
                                      </g>
                                    </g>
                                  </g>
                                </g>
                              </g>
                            </g>
                          </g>
                        </g>
                      </g>
                    </g>
                  </g>
                </g>
              </g>
            </g>
          </g>
        </g>
      </g>
    </g>
    <g id="environmental_12539771" transform="translate(916 8084.01)">
      <path id="Trazado_1048312" data-name="Trazado 1048312" d="M259.3,196.471A19.5,19.5,0,0,1,278.723,214.2H239.885A19.5,19.5,0,0,1,259.3,196.471Z" transform="translate(-200.783 -146.141)" fill="#2a92fa" fill-rule="evenodd"/>
      <path id="Trazado_1048313" data-name="Trazado 1048313" d="M275.15,218.118H239.885a19.515,19.515,0,0,1,13.913-16.94,19.71,19.71,0,0,1,2.008-.1A19.5,19.5,0,0,1,275.15,218.118Z" transform="translate(-200.783 -150.06)" fill="#4eb1fc" fill-rule="evenodd"/>
      <path id="Trazado_1048314" data-name="Trazado 1048314" d="M317.262,71.231a9.287,9.287,0,1,1-9.287,9.287A9.287,9.287,0,0,1,317.262,71.231Z" transform="translate(-258.741 -39.537)" fill="#fdb0a0" fill-rule="evenodd"/>
      <path id="Trazado_1048315" data-name="Trazado 1048315" d="M316.009,90.2a9.287,9.287,0,1,1,8.033-9.2A9.288,9.288,0,0,1,316.009,90.2Z" transform="translate(-258.742 -40.021)" fill="#ffcec0" fill-rule="evenodd"/>
      <path id="Trazado_1048316" data-name="Trazado 1048316" d="M322.43,48.46V46.926a10.159,10.159,0,1,0-20.318,0V48.46Z" transform="translate(-253.75 -10.202)" fill="#fdc72e" fill-rule="evenodd"/>
      <path id="Trazado_1048317" data-name="Trazado 1048317" d="M311.064,37.256a10.2,10.2,0,0,0-8.951,10.086v1.533h17.9V47.342a10.2,10.2,0,0,0-8.951-10.086Z" transform="translate(-253.751 -10.618)" fill="#fcdb35" fill-rule="evenodd"/>
      <path id="Trazado_1048318" data-name="Trazado 1048318" d="M298.93,112.744v-.776H320.2v.776c-4.14,1.532-7.372,2.362-10.633,2.386C306.3,115.106,303.07,114.276,298.93,112.744Z" transform="translate(-251.042 -74.212)" fill="#f19a00" fill-rule="evenodd"/>
      <path id="Trazado_1048319" data-name="Trazado 1048319" d="M298.93,111.969H320.2c-4.14,1.532-7.372,2.362-10.633,2.386C306.3,114.331,303.07,113.5,298.93,111.969Z" transform="translate(-251.042 -74.213)" fill="#f9ac00" fill-rule="evenodd"/>
      <path id="Trazado_1048320" data-name="Trazado 1048320" d="M291.11,203.913l4.253,4.253a3.16,3.16,0,0,0,4.461,0l4.253-4.253a19.5,19.5,0,0,1,6.242,3.615v13.032h-25.45V207.528a19.5,19.5,0,0,1,6.242-3.615Z" transform="translate(-239.073 -152.476)" fill="#fcdb35" fill-rule="evenodd"/>
      <path id="Trazado_1048321" data-name="Trazado 1048321" d="M403.806,205.424l1.51-1.51a19.5,19.5,0,0,1,6.242,3.615v4.645a19.581,19.581,0,0,0-7.752-6.75Z" transform="translate(-340.312 -152.477)" fill="#fdc72e" fill-rule="evenodd"/>
      <path id="Trazado_1048322" data-name="Trazado 1048322" d="M55.185,194.71c0,8.823,6.668,14.509,14.509,14.509C69.694,200.351,65.061,192.6,55.185,194.71Z" transform="translate(-43.567 -144.343)" fill="#43f043" fill-rule="evenodd"/>
      <path id="Trazado_1048323" data-name="Trazado 1048323" d="M55.185,196.718c0,8.823,6.668,14.509,14.508,14.509S55.185,196.718,55.185,196.718Z" transform="translate(-43.567 -146.351)" fill="#2dd62d" fill-rule="evenodd"/>
      <path id="Trazado_1048324" data-name="Trazado 1048324" d="M123.348,82.706a12.043,12.043,0,0,1,0,19.721,12.043,12.043,0,0,1,0-19.721Z" transform="translate(-97.221 -49.305)" fill="#96ff96" fill-rule="evenodd"/>
      <path id="Trazado_1048325" data-name="Trazado 1048325" d="M152.687,82.706a12.043,12.043,0,0,1,0,19.721Z" transform="translate(-126.56 -49.305)" fill="#43f043" fill-rule="evenodd"/>
      <path id="Trazado_1048326" data-name="Trazado 1048326" d="M41.732,353.693l2.454,1.646a.99.99,0,0,0,1.261-.123l3.8-3.8a.99.99,0,0,0,.123-1.261L47.723,347.7l2.087-5.039,2.9-.572a.99.99,0,0,0,.8-.979v-2.686H44.331v.013a11.873,11.873,0,1,1-23.746,0v-.013H11.4v2.686a.99.99,0,0,0,.8.979l2.9.572,2.087,5.039-1.646,2.454a.99.99,0,0,0,.123,1.261l3.8,3.8a.99.99,0,0,0,1.261.123l2.454-1.646,5.039,2.087.572,2.9a.99.99,0,0,0,.979.8h5.372a.99.99,0,0,0,.979-.8l.572-2.9,5.039-2.087Z" transform="translate(-6.299 -266.974)" fill="#909cd1" fill-rule="evenodd"/>
      <path id="Trazado_1048327" data-name="Trazado 1048327" d="M41.732,353.693l1.781,1.194,4.05-4.05-2.1-3.135,2.088-5.038,3.7-.73v-3.506h-6.92v.013a11.873,11.873,0,1,1-23.746,0v-.013H11.4v2.686a.99.99,0,0,0,.8.979l2.9.572,2.088,5.038-1.646,2.454a.99.99,0,0,0,.123,1.261l3.16,3.16,2.478-1.662,1.875.777,5.039,2.087.572,2.9a.99.99,0,0,0,.979.8H33.7l.956-4.848,5.242-2.172,1.833,1.229Z" transform="translate(-6.299 -266.974)" fill="#bdc7f2" fill-rule="evenodd"/>
      <path id="Trazado_1048328" data-name="Trazado 1048328" d="M75.46,350.288A11.873,11.873,0,0,1,64.352,338.44v-.013H62.821v.013a11.873,11.873,0,0,0,11.873,11.873C74.951,350.313,75.206,350.3,75.46,350.288Z" transform="translate(-50.067 -266.974)" fill="#909cd1" fill-rule="evenodd"/>
      <path id="Trazado_1048329" data-name="Trazado 1048329" d="M167.2,194.71c0,8.823-6.668,14.509-14.509,14.509C152.687,200.351,157.32,192.6,167.2,194.71Z" transform="translate(-126.56 -144.343)" fill="#43f043" fill-rule="evenodd"/>
      <path id="Trazado_1048330" data-name="Trazado 1048330" d="M157.657,196.718c0,8.823-6.668,14.509-14.508,14.509s14.509-14.509,14.509-14.509Z" transform="translate(-117.022 -146.351)" fill="#2dd62d" fill-rule="evenodd"/>
      <path id="Trazado_1048331" data-name="Trazado 1048331" d="M111.283,338.514a8.772,8.772,0,1,1-17.543,0Z" transform="translate(-76.385 -267.048)" fill="#a34f41" fill-rule="evenodd"/>
      <path id="Trazado_1048332" data-name="Trazado 1048332" d="M101.592,347.237a8.772,8.772,0,0,1-7.851-8.723h15.7a8.772,8.772,0,0,1-7.851,8.723Z" transform="translate(-76.386 -267.048)" fill="#c86f5c" fill-rule="evenodd"/>
      <path id="Trazado_1048333" data-name="Trazado 1048333" d="M72.283,67.046V57.481a18.353,18.353,0,0,1,4.5,9.565ZM44.764,57.481v9.565h-4.5A18.374,18.374,0,0,1,44.764,57.481Zm5.507-16.492c0-.173.007-.344.018-.515a26.916,26.916,0,0,0,8.227,1.493h.015a26.919,26.919,0,0,0,8.227-1.493c.011.171.018.342.018.515a8.252,8.252,0,1,1-16.5,0ZM65.1,38.8a23.451,23.451,0,0,1-6.577,1.081A23.452,23.452,0,0,1,51.946,38.8H65.1ZM55.236,28.224l-.19,5.1a1.041,1.041,0,0,0,2.081.077l.241-6.461a8.658,8.658,0,0,1,2.311,0l.24,6.461a1.042,1.042,0,0,0,1.04,1H61a1.041,1.041,0,0,0,1-1.079l-.19-5.1a9.2,9.2,0,0,1,5.838,8.5H49.4a9.2,9.2,0,0,1,5.838-8.5Zm4.329,29.309a4.169,4.169,0,0,0,1.924-1.1l3.791-3.791A18.283,18.283,0,0,1,70.2,55.5V67.046H59.565Zm-1.041-1.954a2.1,2.1,0,0,0,1.493-.616l3.028-3.028a18.945,18.945,0,0,0-9.042,0l3.028,3.028a2.1,2.1,0,0,0,1.493.616ZM46.847,55.5a18.29,18.29,0,0,1,4.92-2.857l3.791,3.793a4.176,4.176,0,0,0,1.924,1.1v9.513H46.847ZM78.994,67.994A20.565,20.565,0,0,0,63.659,49.953a10.343,10.343,0,0,0,5.2-8.964,10.554,10.554,0,0,0-.073-1.205c.242-.087.488-.176.739-.27a1.039,1.039,0,0,0,.68-.976v-.777a1.04,1.04,0,0,0-.473-.872V36.73a11.294,11.294,0,0,0-8.007-10.738,1.04,1.04,0,0,0-.805-.94,10.772,10.772,0,0,0-4.794,0,1.041,1.041,0,0,0-.805.94A11.3,11.3,0,0,0,47.315,36.73v.159a1.039,1.039,0,0,0-.474.872v.777a1.041,1.041,0,0,0,.68.976c.252.094.5.183.739.27a10.588,10.588,0,0,0-.073,1.205,10.341,10.341,0,0,0,5.2,8.964A20.565,20.565,0,0,0,38.052,67.994a1.041,1.041,0,0,0,1.037,1.135H77.957a1.041,1.041,0,0,0,1.037-1.135ZM20.581,53.006c2.665,2.155,4.273,6.051,4.482,10.792A12.924,12.924,0,0,1,12.686,51.227a9.639,9.639,0,0,1,7.9,1.779Zm1.46-9.745a11.014,11.014,0,0,0,3.046,7.595V44.005a1.042,1.042,0,0,1,2.084,0v6.851a10.994,10.994,0,0,0-1.042-16.151,11.025,11.025,0,0,0-4.087,8.556Zm9.635,9.745a8.97,8.97,0,0,1,5.81-1.951,13.3,13.3,0,0,1,2.086.171A12.926,12.926,0,0,1,27.194,63.8c.211-4.741,1.818-8.637,4.482-10.792ZM26.129,79.2a7.74,7.74,0,0,1-7.659-6.688H33.789A7.742,7.742,0,0,1,26.129,79.2ZM15.216,61.683a15.569,15.569,0,0,0,9.871,4.2v4.54H17.358a1.042,1.042,0,0,0-1.041,1.041,9.813,9.813,0,1,0,19.626,0A1.042,1.042,0,0,0,34.9,70.424h-7.73v-4.54a15.563,15.563,0,0,0,9.871-4.2,15.408,15.408,0,0,0,4.637-11.316,1.043,1.043,0,0,0-.823-1.02c-4.122-.882-7.75-.175-10.49,2.041a12.541,12.541,0,0,0-3.2,4.014V53.648a13.083,13.083,0,0,0-.442-21.1,1.043,1.043,0,0,0-1.2,0,13.082,13.082,0,0,0-.443,21.1V55.4a12.521,12.521,0,0,0-3.195-4.014c-2.741-2.217-6.368-2.921-10.49-2.041a1.043,1.043,0,0,0-.824,1.02,15.414,15.414,0,0,0,4.637,11.316ZM46.174,74.12V72.509H39.034a12.947,12.947,0,0,1-25.81,0H6.085V74.12l2.869.565a1.049,1.049,0,0,1,.76.623l2.091,5.047a1.046,1.046,0,0,1-.1.979l-1.628,2.428,3.754,3.755,2.428-1.63a1.039,1.039,0,0,1,.978-.1l5.046,2.091a1.038,1.038,0,0,1,.624.76l.565,2.869h5.31l.565-2.869a1.044,1.044,0,0,1,.623-.76l5.046-2.091a1.043,1.043,0,0,1,.98.1l2.429,1.63,3.754-3.755-1.63-2.428a1.045,1.045,0,0,1-.1-.979l2.091-5.047a1.044,1.044,0,0,1,.76-.623l2.869-.565Zm1.042-3.7H38.035a1.041,1.041,0,0,0-1.041,1.041,10.864,10.864,0,0,1-21.727,0,1.042,1.042,0,0,0-1.041-1.041H5.043A1.041,1.041,0,0,0,4,71.467v2.688a2.049,2.049,0,0,0,1.648,2L8,76.623l1.663,4.015L8.331,82.63a2.047,2.047,0,0,0,.252,2.581l3.8,3.8a2.048,2.048,0,0,0,2.581.252l1.992-1.336,4.015,1.663.464,2.354a2.049,2.049,0,0,0,2,1.648h5.376a2.046,2.046,0,0,0,2-1.648l.464-2.354L35.3,87.929l1.994,1.336a2.048,2.048,0,0,0,2.581-.252l3.8-3.8a2.048,2.048,0,0,0,.252-2.581l-1.336-1.992,1.663-4.015,2.354-.464a2.049,2.049,0,0,0,1.648-2V71.467a1.042,1.042,0,0,0-1.041-1.041Z" transform="translate(0 0)" fill-rule="evenodd"/>
    </g>
  </g>
</svg>
