<svg xmlns="http://www.w3.org/2000/svg" xmlns:xlink="http://www.w3.org/1999/xlink" width="118" height="118" viewBox="0 0 118 118">
  <defs>
    <filter id="Trazado_982547" x="0" y="0" width="118" height="118" filterUnits="userSpaceOnUse">
      <feOffset dy="3" input="SourceAlpha"/>
      <feGaussianBlur stdDeviation="3" result="blur"/>
      <feFlood flood-opacity="0.161"/>
      <feComposite operator="in" in2="blur"/>
      <feComposite in="SourceGraphic"/>
    </filter>
  </defs>
  <g id="Grupo_1209572" data-name="Grupo 1209572" transform="translate(-1213 -8086.783)">
    <g id="Grupo_1209201" data-name="Grupo 1209201" transform="translate(419.51 6856.567)">
      <g id="Grupo_1208492" data-name="Grupo 1208492" transform="translate(802.49 1236.215)">
        <g id="Grupo_1177675" data-name="Grupo 1177675" transform="translate(0 0)">
          <g id="Grupo_1176928" data-name="Grupo 1176928" transform="translate(0)">
            <g id="Grupo_1172322" data-name="Grupo 1172322" transform="translate(0 0)">
              <g id="Grupo_1164700" data-name="Grupo 1164700">
                <g id="Grupo_1160931" data-name="Grupo 1160931">
                  <g id="Grupo_1160749" data-name="Grupo 1160749">
                    <g id="Grupo_1158891" data-name="Grupo 1158891">
                      <g id="Grupo_1157406" data-name="Grupo 1157406">
                        <g id="Grupo_1155793" data-name="Grupo 1155793">
                          <g id="Grupo_1154704" data-name="Grupo 1154704">
                            <g id="Grupo_1150790" data-name="Grupo 1150790">
                              <g id="Grupo_1154214" data-name="Grupo 1154214">
                                <g id="Grupo_1152583" data-name="Grupo 1152583">
                                  <g id="Grupo_1146973" data-name="Grupo 1146973">
                                    <g id="Grupo_1146954" data-name="Grupo 1146954">
                                      <g transform="matrix(1, 0, 0, 1, -9, -6)" filter="url(#Trazado_982547)">
                                        <g id="Trazado_982547-2" data-name="Trazado 982547" transform="translate(9 6)" fill="#fef9e7">
                                          <path d="M 49.99995803833008 98.49976348876953 C 43.45184326171875 98.49976348876953 37.10039901733398 97.2176513671875 31.1220588684082 94.68901824951172 C 25.34690093994141 92.246337890625 20.15995788574219 88.74910736083984 15.70531558990479 84.29447937011719 C 11.25068664550781 79.83985137939453 7.753458023071289 74.65290832519531 5.31077241897583 68.87776184082031 C 2.782143831253052 62.89942169189453 1.500015139579773 56.54797744750977 1.500015139579773 49.9998779296875 C 1.500015139579773 43.45177841186523 2.782143831253052 37.10033416748047 5.31077241897583 31.12199211120605 C 7.753458023071289 25.34684944152832 11.25068664550781 20.15992164611816 15.70531558990479 15.70529174804688 C 20.15995788574219 11.25066375732422 25.34688568115234 7.753435134887695 31.1220588684082 5.310749530792236 C 37.10039901733398 2.782120704650879 43.45184326171875 1.500006556510925 49.99995803833008 1.500006556510925 C 56.54807281494141 1.500006556510925 62.89951705932617 2.782120704650879 68.87786865234375 5.310749530792236 C 74.65303039550781 7.753435134887695 79.83997344970703 11.25066375732422 84.29460144042969 15.70529174804688 C 88.74924468994141 20.15992164611816 92.24647521972656 25.34684944152832 94.68915557861328 31.12199211120605 C 97.21778869628906 37.10033416748047 98.49991607666016 43.45177841186523 98.49991607666016 49.9998779296875 C 98.49991607666016 56.54797744750977 97.21778869628906 62.89942169189453 94.68915557861328 68.87776184082031 C 92.24647521972656 74.65290832519531 88.74924468994141 79.83985137939453 84.29460144042969 84.29447937011719 C 79.83997344970703 88.74910736083984 74.65303039550781 92.246337890625 68.87786865234375 94.68901824951172 C 62.89951705932617 97.2176513671875 56.54807281494141 98.49976348876953 49.99995803833008 98.49976348876953 Z" stroke="none"/>
                                          <path d="M 49.99995803833008 3 C 43.65368270874023 3 37.49883651733398 4.24224853515625 31.70637512207031 6.692245483398438 C 26.11001586914062 9.059310913085938 21.08334350585938 12.44858551025391 16.76597595214844 16.76595306396484 C 12.44860076904297 21.08330535888672 9.059326171875 26.10997009277344 6.692268371582031 31.70632171630859 C 4.242263793945312 37.49877166748047 3.000007629394531 43.65361785888672 3.000007629394531 49.9998779296875 C 3.000007629394531 56.34613800048828 4.242263793945312 62.50098419189453 6.692268371582031 68.29343414306641 C 9.059326171875 73.88978576660156 12.44860076904297 78.91644287109375 16.76597595214844 83.23380279541016 C 21.08334350585938 87.55117034912109 26.11001586914062 90.94044494628906 31.70637512207031 93.30751037597656 C 37.49883651733398 95.75750732421875 43.65368270874023 96.999755859375 49.99995803833008 96.999755859375 C 56.34623336791992 96.999755859375 62.50107955932617 95.75750732421875 68.29354095458984 93.30751037597656 C 73.889892578125 90.94044494628906 78.91657257080078 87.55117034912109 83.23394012451172 83.23380279541016 C 87.55131530761719 78.91644287109375 90.94058990478516 73.88978576660156 93.30764770507812 68.29343414306641 C 95.75765228271484 62.50098419189453 96.99990844726562 56.34613800048828 96.99990844726562 49.9998779296875 C 96.99990844726562 43.65361785888672 95.75765228271484 37.49877166748047 93.30764770507812 31.70632171630859 C 90.94058990478516 26.10997009277344 87.55131530761719 21.08330535888672 83.23394012451172 16.76595306396484 C 78.91657257080078 12.44858551025391 73.889892578125 9.059310913085938 68.29354095458984 6.692245483398438 C 62.50107955932617 4.24224853515625 56.34623336791992 3 49.99995803833008 3 M 49.99995803833008 0 C 77.61415863037109 0 99.99990844726562 22.38571166992188 99.99990844726562 49.9998779296875 C 99.99990844726562 77.61404418945312 77.61415863037109 99.999755859375 49.99995803833008 99.999755859375 C 22.38575744628906 99.999755859375 7.62939453125e-06 77.61404418945312 7.62939453125e-06 49.9998779296875 C 7.62939453125e-06 22.38571166992188 22.38575744628906 0 49.99995803833008 0 Z" stroke="none" fill="#f8ce24"/>
                                        </g>
                                      </g>
                                    </g>
                                  </g>
                                </g>
                              </g>
                            </g>
                          </g>
                        </g>
                      </g>
                    </g>
                  </g>
                </g>
              </g>
            </g>
          </g>
        </g>
      </g>
    </g>
    <g id="documentation_9746449" transform="translate(1233.19 8085.105)">
      <g id="Grupo_1209571" data-name="Grupo 1209571" transform="translate(1.029 24.712)">
        <path id="Trazado_1048334" data-name="Trazado 1048334" d="M7.07,54.31l20.324-23.5a.3.3,0,0,1,.418-.029l30.1,26.034a.293.293,0,0,1,.029.418l-20.324,23.5a.3.3,0,0,1-.413.029L7.1,54.728a.3.3,0,0,1-.029-.418Z" transform="translate(-6.999 -30.708)" fill="#006694" fill-rule="evenodd"/>
        <path id="Trazado_1048335" data-name="Trazado 1048335" d="M95.059,78.433l14.188-6.47L132.415,92a.293.293,0,0,1,.029.418l-20.324,23.5a.3.3,0,0,1-.413.029l-1.445-1.249-15.8-34.659a1.214,1.214,0,0,1,.6-1.608Z" transform="translate(-81.501 -65.894)" fill="#005c85" fill-rule="evenodd"/>
        <path id="Trazado_1048336" data-name="Trazado 1048336" d="M100.772,46.738,129.04,33.848a.3.3,0,0,1,.393.146l16.511,36.212a.3.3,0,0,1-.146.393L117.524,83.489a.3.3,0,0,1-.388-.146L100.626,47.13a.3.3,0,0,1,.146-.393Z" transform="translate(-86.83 -33.364)" fill="#60b7ff" fill-rule="evenodd"/>
        <path id="Trazado_1048337" data-name="Trazado 1048337" d="M208.816,91.47h15.667l12.722,27.9a.3.3,0,0,1-.146.393l-28.272,12.889a.3.3,0,0,1-.388-.146l-.8-1.746V92.685a1.214,1.214,0,0,1,1.215-1.215Z" transform="translate(-178.092 -82.532)" fill="#56a5e6" fill-rule="evenodd"/>
        <path id="Trazado_1048338" data-name="Trazado 1048338" d="M214.145,97.717h23.135l8.228,8.228v31.864a.294.294,0,0,1-.292.3H214.145a.3.3,0,0,1-.3-.3v-39.8A.3.3,0,0,1,214.145,97.717Z" transform="translate(-183.421 -87.86)" fill="#eaf6ff" fill-rule="evenodd"/>
        <path id="Trazado_1048339" data-name="Trazado 1048339" d="M373.138,97.717V104.1a1.852,1.852,0,0,0,1.846,1.846h6.382Z" transform="translate(-319.279 -87.86)" fill="#bec7cf" fill-rule="evenodd"/>
        <path id="Trazado_1048340" data-name="Trazado 1048340" d="M128.506,239.428H152.79a4.662,4.662,0,0,1,4.645,4.645v19.075a4.659,4.659,0,0,1-4.645,4.645H109.744a4.656,4.656,0,0,1-4.644-4.645V234.783a3.82,3.82,0,0,1,3.813-3.813h8.111c1.341,0,2.255.827,3.216,1.763l5.05,4.933c.961.936,1.875,1.763,3.216,1.763Z" transform="translate(-90.669 -201.512)" fill="#ffba57" fill-rule="evenodd"/>
        <path id="Trazado_1048341" data-name="Trazado 1048341" d="M206.83,240.209a4.642,4.642,0,0,1,2.08,3.864v19.075a4.659,4.659,0,0,1-4.645,4.645h2.6a4.659,4.659,0,0,0,4.645-4.645V244.072a4.652,4.652,0,0,0-4.645-4.645h-2.6a4.59,4.59,0,0,1,2.564.781Zm-27.466-2.544-4.193-4.093-.856-.84c-.961-.936-1.875-1.763-3.216-1.763h-2.6c1.341,0,2.255.827,3.216,1.763l3.454,3.375,1.6,1.558c.961.936,1.875,1.763,3.216,1.763h2.6c-1.341,0-2.255-.827-3.216-1.763Z" transform="translate(-144.743 -201.512)" fill="#e6a74e" fill-rule="evenodd"/>
        <path id="Trazado_1048342" data-name="Trazado 1048342" d="M394.253,279.729a8.792,8.792,0,1,0-8.792-8.792A8.792,8.792,0,0,0,394.253,279.729Z" transform="translate(-329.79 -228.101)" fill="#25c73b" fill-rule="evenodd"/>
        <path id="Trazado_1048343" data-name="Trazado 1048343" d="M440.177,262.175a8.794,8.794,0,0,1,.447,17.475c-.15.021-.3.038-.447.05.146.012.3.021.447.025.1,0,.2,0,.3,0a8.792,8.792,0,1,0,0-17.584c-.25,0-.5.009-.743.03Z" transform="translate(-376.457 -228.101)" fill="#21b335" fill-rule="evenodd"/>
        <path id="Trazado_1048344" data-name="Trazado 1048344" d="M416.3,153.653v17.054a8.715,8.715,0,0,1,1.88-.768V153.653Z" transform="translate(-356.092 -135.568)" fill="#d3dde6" fill-rule="evenodd"/>
      </g>
      <path id="Trazado_1048345" data-name="Trazado 1048345" d="M35.549,41.741a1.03,1.03,0,0,1,1.03-1.03H50.2a1.03,1.03,0,1,1,0,2.059H36.579A1.03,1.03,0,0,1,35.549,41.741Zm1.03,6.042H58.085a1.03,1.03,0,1,0,0-2.059H36.579a1.03,1.03,0,0,0,0,2.059Zm21.507,2.948H36.579a1.03,1.03,0,0,0,0,2.059H58.085a1.03,1.03,0,1,0,0-2.059Zm0,5.008H36.579a1.03,1.03,0,0,0,0,2.059H58.085a1.03,1.03,0,1,0,0-2.059ZM68.83,76.818V86.36a5.673,5.673,0,0,1-5.666,5.666H20.192a5.673,5.673,0,0,1-5.667-5.666V61.651L.355,49.4A1.03,1.03,0,0,1,.25,47.943L20.927,24.034a1.03,1.03,0,0,1,1.453-.105l7.408,6.408,13.344-6.082a1.03,1.03,0,0,1,1.364.51l4.045,8.875h6.38a1.031,1.031,0,0,1,.728.3l8.214,8.214a1.03,1.03,0,0,1,.3.728v15a9.806,9.806,0,0,1,4.666,18.939ZM62.1,58.395V43.913H56.763a2.876,2.876,0,0,1-2.873-2.873V35.7H32.559V56.4l3.872,3.785c.878.859,1.57,1.466,2.491,1.466h18.79A9.851,9.851,0,0,1,62.1,58.395ZM55.95,41.041a.814.814,0,0,0,.813.813h3.885l-4.7-4.7Zm-12.9-14.484L30.1,32.461a1.039,1.039,0,0,1-.12.055l-13.811,6.3,6.561,14.4h4.733a4.685,4.685,0,0,1,3.04,1.23V34.67a1.03,1.03,0,0,1,1.03-1.03H46.277ZM14.526,58.927v-.883a4.844,4.844,0,0,1,4.841-4.837h1.1l-6.6-14.479a1.03,1.03,0,0,1,.51-1.364l13.352-6.087-5.915-5.117L2.482,48.512ZM66.77,77.315A9.8,9.8,0,0,1,56.5,63.71H38.922a5.634,5.634,0,0,1-3.931-2.053l-4.155-4.061c-.019-.017-.037-.035-.055-.053l-.827-.809c-.909-.885-1.574-1.466-2.495-1.466H19.367a2.782,2.782,0,0,0-2.781,2.777V86.36a3.611,3.611,0,0,0,3.607,3.607H63.164A3.611,3.611,0,0,0,66.77,86.36Zm6.484-9.722a7.747,7.747,0,1,0-7.747,7.747A7.747,7.747,0,0,0,73.255,67.592Zm-2.5-3.893a1.03,1.03,0,0,0-1.456,0l-5.6,5.6-1.974-1.974a1.03,1.03,0,1,0-1.456,1.456l2.7,2.7a1.03,1.03,0,0,0,1.456,0l6.33-6.329A1.03,1.03,0,0,0,70.751,63.7ZM61.258,83.537H22.1a1.03,1.03,0,0,0,0,2.059H61.258a1.03,1.03,0,1,0,0-2.059ZM22.1,78.562H32.142a1.03,1.03,0,1,0,0-2.059H22.1a1.03,1.03,0,0,0,0,2.059Z" transform="translate(0)"/>
    </g>
  </g>
</svg>
