<svg xmlns="http://www.w3.org/2000/svg" xmlns:xlink="http://www.w3.org/1999/xlink" width="113" height="113" viewBox="0 0 113 113">
  <defs>
    <filter id="Trazado_982547" x="0" y="0" width="113" height="113" filterUnits="userSpaceOnUse">
      <feOffset dy="3" input="SourceAlpha"/>
      <feGaussianBlur stdDeviation="3" result="blur"/>
      <feFlood flood-opacity="0.161"/>
      <feComposite operator="in" in2="blur"/>
      <feComposite in="SourceGraphic"/>
    </filter>
  </defs>
  <g id="Grupo_1209589" data-name="Grupo 1209589" transform="translate(-1112 -9292.712)">
    <g id="Grupo_1209205" data-name="Grupo 1209205" transform="translate(0 8062.496)">
      <g id="Grupo_1209049" data-name="Grupo 1209049">
        <g id="Grupo_1208493" data-name="Grupo 1208493" transform="translate(0 -4397.209)">
          <g id="Grupo_1202104" data-name="Grupo 1202104" transform="translate(0 -1149.226)">
            <g id="Grupo_1201923" data-name="Grupo 1201923" transform="translate(-4174.49 4856.378)">
              <g id="Grupo_1176928" data-name="Grupo 1176928" transform="translate(5295.49 1926.273)">
                <g id="Grupo_1172322" data-name="Grupo 1172322" transform="translate(0 0)">
                  <g id="Grupo_1164700" data-name="Grupo 1164700">
                    <g id="Grupo_1160931" data-name="Grupo 1160931">
                      <g id="Grupo_1160749" data-name="Grupo 1160749">
                        <g id="Grupo_1158891" data-name="Grupo 1158891">
                          <g id="Grupo_1157406" data-name="Grupo 1157406">
                            <g id="Grupo_1155793" data-name="Grupo 1155793">
                              <g id="Grupo_1154704" data-name="Grupo 1154704">
                                <g id="Grupo_1150790" data-name="Grupo 1150790">
                                  <g id="Grupo_1154214" data-name="Grupo 1154214">
                                    <g id="Grupo_1152583" data-name="Grupo 1152583">
                                      <g id="Grupo_1146973" data-name="Grupo 1146973">
                                        <g id="Grupo_1146954" data-name="Grupo 1146954">
                                          <g transform="matrix(1, 0, 0, 1, -9, -6)" filter="url(#Trazado_982547)">
                                            <g id="Trazado_982547-2" data-name="Trazado 982547" transform="translate(9 6)" fill="#fef9e7">
                                              <path d="M 47.5000114440918 93.49987030029297 C 41.28938293457031 93.49987030029297 35.26534652709961 92.28384399414062 29.5951976776123 89.88558959960938 C 24.11773109436035 87.56881713867188 19.19814491271973 84.25183868408203 14.97310447692871 80.02680206298828 C 10.74805164337158 75.80176544189453 7.43107795715332 70.88218688964844 5.114304542541504 65.40472412109375 C 2.716038227081299 59.73458862304688 1.500011444091797 53.71054840087891 1.500011444091797 47.49993515014648 C 1.500011444091797 41.28932189941406 2.716038227081299 35.26528167724609 5.114304542541504 29.59514808654785 C 7.43107795715332 24.1176815032959 10.74805164337158 19.1981086730957 14.97310447692871 14.97306823730469 C 19.19814491271973 10.74802875518799 24.11773109436035 7.431055068969727 29.5951976776123 5.11428165435791 C 35.26534652709961 2.716028451919556 41.28938293457031 1.500001788139343 47.5000114440918 1.500001788139343 C 53.71063995361328 1.500001788139343 59.73467636108398 2.716028451919556 65.40482330322266 5.11428165435791 C 70.88229370117188 7.431055068969727 75.8018798828125 10.74802875518799 80.02691650390625 14.97306823730469 C 84.25196838378906 19.1981086730957 87.56894683837891 24.1176815032959 89.88571929931641 29.59514808654785 C 92.28398132324219 35.26528167724609 93.50001525878906 41.28932189941406 93.50001525878906 47.49993515014648 C 93.50001525878906 53.71054840087891 92.28398132324219 59.73458862304688 89.88571929931641 65.40472412109375 C 87.56894683837891 70.88218688964844 84.25196838378906 75.80176544189453 80.02691650390625 80.02680206298828 C 75.8018798828125 84.25183868408203 70.88229370117188 87.56881713867188 65.40482330322266 89.88558959960938 C 59.73467636108398 92.28384399414062 53.71063995361328 93.49987030029297 47.5000114440918 93.49987030029297 Z" stroke="none"/>
                                              <path d="M 47.5000114440918 3 C 41.49122619628906 3 35.66378021240234 4.1761474609375 30.17951965332031 6.495796203613281 C 24.880859375 8.7369384765625 20.12153625488281 11.94596862792969 16.03376770019531 16.03373718261719 C 11.94598388671875 20.12149047851562 8.736968994140625 24.88081359863281 6.495811462402344 30.17947387695312 C 4.176162719726562 35.66371917724609 3.000007629394531 41.49116516113281 3.000007629394531 47.49993515014648 C 3.000007629394531 53.50870513916016 4.176162719726562 59.33615112304688 6.495811462402344 64.82039642333984 C 8.736968994140625 70.11905670166016 11.94598388671875 74.87837982177734 16.03376770019531 78.96613311767578 C 20.12153625488281 83.05390167236328 24.880859375 86.26293182373047 30.17951965332031 88.50407409667969 C 35.66378021240234 90.82372283935547 41.49122619628906 91.99987030029297 47.5000114440918 91.99987030029297 C 53.50879669189453 91.99987030029297 59.33624267578125 90.82372283935547 64.82050323486328 88.50407409667969 C 70.11916351318359 86.26293182373047 74.87848663330078 83.05390167236328 78.96625518798828 78.96613311767578 C 83.05403900146484 74.87837982177734 86.2630615234375 70.11905670166016 88.50421142578125 64.82039642333984 C 90.82386016845703 59.33615112304688 92.00001525878906 53.50870513916016 92.00001525878906 47.49993515014648 C 92.00001525878906 41.49116516113281 90.82386016845703 35.66371917724609 88.50421142578125 30.17947387695312 C 86.2630615234375 24.88081359863281 83.05403900146484 20.12149047851562 78.96625518798828 16.03373718261719 C 74.87848663330078 11.94596862792969 70.11916351318359 8.7369384765625 64.82050323486328 6.495796203613281 C 59.33624267578125 4.1761474609375 53.50879669189453 3 47.5000114440918 3 M 47.5000114440918 0 C 73.73353576660156 0 95.00001525878906 21.26644134521484 95.00001525878906 47.49993515014648 C 95.00001525878906 73.73342895507812 73.73353576660156 94.99987030029297 47.5000114440918 94.99987030029297 C 21.26648712158203 94.99987030029297 7.62939453125e-06 73.73342895507812 7.62939453125e-06 47.49993515014648 C 7.62939453125e-06 21.26644134521484 21.26648712158203 0 47.5000114440918 0 Z" stroke="none" fill="#f8ce24"/>
                                            </g>
                                          </g>
                                        </g>
                                      </g>
                                    </g>
                                  </g>
                                </g>
                              </g>
                            </g>
                          </g>
                        </g>
                      </g>
                    </g>
                  </g>
                </g>
              </g>
            </g>
          </g>
        </g>
      </g>
    </g>
    <g id="medical_13005223" transform="translate(1134.754 9308.619)">
      <path id="Trazado_1048395" data-name="Trazado 1048395" d="M51.876,44.13,39.654,40.316V36.9a13.126,13.126,0,0,1-11.021,0v3.416L16.411,44.13A7.714,7.714,0,0,0,11,51.5V64.562H57.287V51.5A7.714,7.714,0,0,0,51.876,44.13Z" transform="translate(0.102 3.664)" fill="#f2f2f2"/>
      <path id="Trazado_1048396" data-name="Trazado 1048396" d="M20,21v5.51a13.225,13.225,0,0,0,7.714,12.013v3.416l.375.551a6.161,6.161,0,0,0,10.271,0l.375-.551V38.523A13.225,13.225,0,0,0,46.45,26.51V21Z" transform="translate(1.021 2.041)" fill="#fddfb1"/>
      <path id="Trazado_1048397" data-name="Trazado 1048397" d="M20,21v5.51a13.225,13.225,0,0,0,1.785,6.612H37.633a4.408,4.408,0,0,0,4.408-4.408V21Z" transform="translate(1.021 2.041)" fill="#feecd0"/>
      <path id="Trazado_1048398" data-name="Trazado 1048398" d="M20.408,26.2V24h-1.1a3.306,3.306,0,1,0,0,6.612H21.18a13,13,0,0,1-.771-4.408Z" transform="translate(0.612 2.348)" fill="#fddfb1"/>
      <path id="Trazado_1048399" data-name="Trazado 1048399" d="M45.174,24h-1.1v2.2a13,13,0,0,1-.771,4.408h1.874a3.306,3.306,0,1,0,0-6.612Z" transform="translate(3.399 2.348)" fill="#fddfb1"/>
      <path id="Trazado_1048400" data-name="Trazado 1048400" d="M24,35.841a13.225,13.225,0,0,0,17.633,0V26H24Z" transform="translate(1.429 2.552)" fill="#bce4f8"/>
      <path id="Trazado_1048401" data-name="Trazado 1048401" d="M46.756,46.285V42.35l-5.51-1.73v5.114A3.306,3.306,0,0,1,39.581,48.6l-6.05,3.46-6.05-3.46a3.306,3.306,0,0,1-1.664-2.865V40.62l-5.51,1.73v3.934A11.3,11.3,0,0,1,17,54.264v9.919H50.062V54.264a11.3,11.3,0,0,1-3.306-7.979Z" transform="translate(0.714 4.044)" fill="#f3a845"/>
      <path id="Trazado_1048402" data-name="Trazado 1048402" d="M41.245,61.978a3.306,3.306,0,0,0,3.306-3.306V41.656L41.245,40.62v5.114A3.306,3.306,0,0,1,39.581,48.6l-6.05,3.46-6.05-3.46a3.306,3.306,0,0,1-1.664-2.865V40.62l-5.51,1.73v3.934A11.3,11.3,0,0,1,17,54.264v7.714Z" transform="translate(0.714 4.044)" fill="#eecc61"/>
      <path id="Trazado_1048403" data-name="Trazado 1048403" d="M17,54H50.062v4.408H17Z" transform="translate(0.714 5.409)" fill="#686868"/>
      <path id="Trazado_1048404" data-name="Trazado 1048404" d="M20.408,26.2V24h-1.1a3.306,3.306,0,1,0,0,6.612H21.18a13,13,0,0,1-.771-4.408Z" transform="translate(0.612 2.348)" fill="#fddfb1"/>
      <path id="Trazado_1048405" data-name="Trazado 1048405" d="M45.174,24h-1.1v2.2a13,13,0,0,1-.771,4.408h1.874a3.306,3.306,0,1,0,0-6.612Z" transform="translate(3.399 2.348)" fill="#fddfb1"/>
      <path id="Trazado_1048406" data-name="Trazado 1048406" d="M48.858,18.327H18l.2-1.256a15.409,15.409,0,0,1,30.461,0Z" transform="translate(0.817 0.306)" fill="#f3a845"/>
      <path id="Trazado_1048407" data-name="Trazado 1048407" d="M39.945,13.916a3.306,3.306,0,0,0,3.306-3.306V7.624A15.429,15.429,0,0,0,18.94,13.916Z" transform="translate(0.912 0.308)" fill="#eecc61"/>
      <path id="Trazado_1048408" data-name="Trazado 1048408" d="M16,17H51.266v4.408H16Z" transform="translate(0.612 1.633)" fill="#474747"/>
      <path id="Trazado_1048409" data-name="Trazado 1048409" d="M29,2l1.1,8.817H34.51L35.612,2Z" transform="translate(1.939 0.102)" fill="#f3a845"/>
      <path id="Trazado_1048410" data-name="Trazado 1048410" d="M16,19.2H46.858a2.2,2.2,0,0,0,2.2-2.2H16Z" transform="translate(0.612 1.633)" fill="#686868"/>
      <path id="Trazado_1048411" data-name="Trazado 1048411" d="M17,54H50.062v4.408H17Z" transform="translate(0.714 5.409)" fill="#939393"/>
      <path id="Trazado_1048412" data-name="Trazado 1048412" d="M17,56.2H28.021a2.2,2.2,0,0,0,2.2-2.2H17Z" transform="translate(0.714 5.409)" fill="#a9a9a9"/>
      <path id="Trazado_1048413" data-name="Trazado 1048413" d="M33,56.2H44.021a2.2,2.2,0,0,0,2.2-2.2H33Z" transform="translate(2.347 5.409)" fill="#a9a9a9"/>
      <path id="Trazado_1048414" data-name="Trazado 1048414" d="M52.308,46.747l-11.45-3.582V41.247a14.437,14.437,0,0,0,6.612-7.185h1.1a4.408,4.408,0,1,0,0-8.817v-1.1h3.306a1.1,1.1,0,0,0,1.1-1.1V18.633a1.1,1.1,0,0,0-1.1-1.1H50.622v-.32A16.608,16.608,0,0,0,38.5,3.755l.154-1.521A1.1,1.1,0,0,0,37.552,1H30.939a1.1,1.1,0,0,0-1.091,1.234l.187,1.521A16.608,16.608,0,0,0,17.913,17.211l-.055.32H16.612a1.1,1.1,0,0,0-1.1,1.1v4.408a1.1,1.1,0,0,0,1.1,1.1h3.306v1.1a4.408,4.408,0,1,0,0,8.817h1.1a14.437,14.437,0,0,0,6.612,7.185v1.918l-11.45,3.582A8.817,8.817,0,0,0,10,55.167V68.226a1.1,1.1,0,0,0,1.1,1.1H57.389a1.1,1.1,0,0,0,1.1-1.1V55.167a8.817,8.817,0,0,0-6.183-8.42ZM22.123,47.2l3.306-1.014V49.8a4.408,4.408,0,0,0,2.2,3.824l5.51,3.141v1.543H19.191a12.266,12.266,0,0,0,2.931-7.979ZM18.817,60.512H33.143v2.2H18.817Zm30.858,2.2H35.347v-2.2H49.674Zm-30.858,2.2H33.143v2.2H18.817Zm16.531,0H49.674v2.2H35.347Zm0-6.612V56.742l5.51-3.141a4.408,4.408,0,0,0,2.2-3.824V46.185l3.306,1.036v3.13A12.266,12.266,0,0,0,49.3,58.307ZM41.96,37.9a12.123,12.123,0,0,1-15.429,0V29.654H41.96Zm2.2-2.4V29.1l2.2-1.653v1.1A11.968,11.968,0,0,1,44.164,35.495Zm6.612-5.841a2.2,2.2,0,0,1-2.2,2.2h-.4a14.217,14.217,0,0,0,.4-3.306v-1.1A2.2,2.2,0,0,1,50.776,29.654ZM36.306,3.2,35.48,9.817H33.011L32.185,3.2Zm-6,2.755.628,5.092a1.1,1.1,0,0,0,1.1.97H36.45a1.1,1.1,0,0,0,1.1-.97l.639-5.092A14.426,14.426,0,0,1,48.385,17.531H20.106A14.426,14.426,0,0,1,30.311,5.959Zm-12.6,13.776H50.776v2.2H17.714Zm28.654,4.408v.551L42.7,27.45H25.793l-3.67-2.755v-.551Zm-26.45,7.714a2.2,2.2,0,0,1,0-4.408v1.1a14.217,14.217,0,0,0,.4,3.306Zm2.2-3.306v-1.1l2.2,1.653v6.392a11.968,11.968,0,0,1-2.2-6.943ZM34.245,42.878a14.206,14.206,0,0,0,4.408-.705V43.65l-.187.276a5.069,5.069,0,0,1-8.442,0l-.187-.276V42.173a14.206,14.206,0,0,0,4.408.705ZM28.283,45.27a7.263,7.263,0,0,0,11.924,0l.65.209v4.3a2.2,2.2,0,0,1-1.1,1.918l-5.51,3.141-5.51-3.141a2.2,2.2,0,0,1-1.1-1.918v-4.3ZM12.2,55.167a6.612,6.612,0,0,1,4.64-6.315l3.075-.959v2.436a10.073,10.073,0,0,1-2.987,7.2,1.1,1.1,0,0,0-.32.782v8.817H12.2ZM56.287,67.124H51.878V58.307a1.1,1.1,0,0,0-.32-.782,10.073,10.073,0,0,1-2.987-7.2V47.893l3.075.959a6.612,6.612,0,0,1,4.64,6.315Z" transform="translate(0 0)"/>
      <path id="Trazado_1048415" data-name="Trazado 1048415" d="M27,29H38.021v2.2H27Z" transform="translate(1.735 2.858)"/>
      <path id="Trazado_1048416" data-name="Trazado 1048416" d="M27,33H38.021v2.2H27Z" transform="translate(1.735 3.266)"/>
    </g>
  </g>
</svg>
