<svg xmlns="http://www.w3.org/2000/svg" xmlns:xlink="http://www.w3.org/1999/xlink" width="113" height="113" viewBox="0 0 113 113">
  <defs>
    <filter id="Trazado_982547" x="0" y="0" width="113" height="113" filterUnits="userSpaceOnUse">
      <feOffset dy="3" input="SourceAlpha"/>
      <feGaussianBlur stdDeviation="3" result="blur"/>
      <feFlood flood-opacity="0.161"/>
      <feComposite operator="in" in2="blur"/>
      <feComposite in="SourceGraphic"/>
    </filter>
  </defs>
  <g id="Grupo_1209615" data-name="Grupo 1209615" transform="translate(-4460 -9302.929)">
    <g id="Grupo_1209206" data-name="Grupo 1209206" transform="translate(3348 8072.713)">
      <g id="Grupo_1209049" data-name="Grupo 1209049">
        <g id="Grupo_1208493" data-name="Grupo 1208493" transform="translate(0 -4397.209)">
          <g id="Grupo_1202104" data-name="Grupo 1202104" transform="translate(0 -1149.226)">
            <g id="Grupo_1201923" data-name="Grupo 1201923" transform="translate(-4174.49 4856.378)">
              <g id="Grupo_1176928" data-name="Grupo 1176928" transform="translate(5295.49 1926.273)">
                <g id="Grupo_1172322" data-name="Grupo 1172322" transform="translate(0 0)">
                  <g id="Grupo_1164700" data-name="Grupo 1164700">
                    <g id="Grupo_1160931" data-name="Grupo 1160931">
                      <g id="Grupo_1160749" data-name="Grupo 1160749">
                        <g id="Grupo_1158891" data-name="Grupo 1158891">
                          <g id="Grupo_1157406" data-name="Grupo 1157406">
                            <g id="Grupo_1155793" data-name="Grupo 1155793">
                              <g id="Grupo_1154704" data-name="Grupo 1154704">
                                <g id="Grupo_1150790" data-name="Grupo 1150790">
                                  <g id="Grupo_1154214" data-name="Grupo 1154214">
                                    <g id="Grupo_1152583" data-name="Grupo 1152583">
                                      <g id="Grupo_1146973" data-name="Grupo 1146973">
                                        <g id="Grupo_1146954" data-name="Grupo 1146954">
                                          <g transform="matrix(1, 0, 0, 1, -9, -6)" filter="url(#Trazado_982547)">
                                            <g id="Trazado_982547-2" data-name="Trazado 982547" transform="translate(9 6)" fill="#fef9e7">
                                              <path d="M 47.5000114440918 93.49987030029297 C 41.28938293457031 93.49987030029297 35.26534652709961 92.28384399414062 29.5951976776123 89.88558959960938 C 24.11773109436035 87.56881713867188 19.19814491271973 84.25183868408203 14.97310447692871 80.02680206298828 C 10.74805164337158 75.80176544189453 7.43107795715332 70.88218688964844 5.114304542541504 65.40472412109375 C 2.716038227081299 59.73458862304688 1.500011444091797 53.71054840087891 1.500011444091797 47.49993515014648 C 1.500011444091797 41.28932189941406 2.716038227081299 35.26528167724609 5.114304542541504 29.59514808654785 C 7.43107795715332 24.1176815032959 10.74805164337158 19.1981086730957 14.97310447692871 14.97306823730469 C 19.19814491271973 10.74802875518799 24.11773109436035 7.431055068969727 29.5951976776123 5.11428165435791 C 35.26534652709961 2.716028451919556 41.28938293457031 1.500001788139343 47.5000114440918 1.500001788139343 C 53.71063995361328 1.500001788139343 59.73467636108398 2.716028451919556 65.40482330322266 5.11428165435791 C 70.88229370117188 7.431055068969727 75.8018798828125 10.74802875518799 80.02691650390625 14.97306823730469 C 84.25196838378906 19.1981086730957 87.56894683837891 24.1176815032959 89.88571929931641 29.59514808654785 C 92.28398132324219 35.26528167724609 93.50001525878906 41.28932189941406 93.50001525878906 47.49993515014648 C 93.50001525878906 53.71054840087891 92.28398132324219 59.73458862304688 89.88571929931641 65.40472412109375 C 87.56894683837891 70.88218688964844 84.25196838378906 75.80176544189453 80.02691650390625 80.02680206298828 C 75.8018798828125 84.25183868408203 70.88229370117188 87.56881713867188 65.40482330322266 89.88558959960938 C 59.73467636108398 92.28384399414062 53.71063995361328 93.49987030029297 47.5000114440918 93.49987030029297 Z" stroke="none"/>
                                              <path d="M 47.5000114440918 3 C 41.49122619628906 3 35.66378021240234 4.1761474609375 30.17951965332031 6.495796203613281 C 24.880859375 8.7369384765625 20.12153625488281 11.94596862792969 16.03376770019531 16.03373718261719 C 11.94598388671875 20.12149047851562 8.736968994140625 24.88081359863281 6.495811462402344 30.17947387695312 C 4.176162719726562 35.66371917724609 3.000007629394531 41.49116516113281 3.000007629394531 47.49993515014648 C 3.000007629394531 53.50870513916016 4.176162719726562 59.33615112304688 6.495811462402344 64.82039642333984 C 8.736968994140625 70.11905670166016 11.94598388671875 74.87837982177734 16.03376770019531 78.96613311767578 C 20.12153625488281 83.05390167236328 24.880859375 86.26293182373047 30.17951965332031 88.50407409667969 C 35.66378021240234 90.82372283935547 41.49122619628906 91.99987030029297 47.5000114440918 91.99987030029297 C 53.50879669189453 91.99987030029297 59.33624267578125 90.82372283935547 64.82050323486328 88.50407409667969 C 70.11916351318359 86.26293182373047 74.87848663330078 83.05390167236328 78.96625518798828 78.96613311767578 C 83.05403900146484 74.87837982177734 86.2630615234375 70.11905670166016 88.50421142578125 64.82039642333984 C 90.82386016845703 59.33615112304688 92.00001525878906 53.50870513916016 92.00001525878906 47.49993515014648 C 92.00001525878906 41.49116516113281 90.82386016845703 35.66371917724609 88.50421142578125 30.17947387695312 C 86.2630615234375 24.88081359863281 83.05403900146484 20.12149047851562 78.96625518798828 16.03373718261719 C 74.87848663330078 11.94596862792969 70.11916351318359 8.7369384765625 64.82050323486328 6.495796203613281 C 59.33624267578125 4.1761474609375 53.50879669189453 3 47.5000114440918 3 M 47.5000114440918 0 C 73.73353576660156 0 95.00001525878906 21.26644134521484 95.00001525878906 47.49993515014648 C 95.00001525878906 73.73342895507812 73.73353576660156 94.99987030029297 47.5000114440918 94.99987030029297 C 21.26648712158203 94.99987030029297 7.62939453125e-06 73.73342895507812 7.62939453125e-06 47.49993515014648 C 7.62939453125e-06 21.26644134521484 21.26648712158203 0 47.5000114440918 0 Z" stroke="none" fill="#f8ce24"/>
                                            </g>
                                          </g>
                                        </g>
                                      </g>
                                    </g>
                                  </g>
                                </g>
                              </g>
                            </g>
                          </g>
                        </g>
                      </g>
                    </g>
                  </g>
                </g>
              </g>
            </g>
          </g>
        </g>
      </g>
    </g>
    <g id="insurance_17485781" transform="translate(4486.47 9320.625)">
      <g id="Grupo_1209590" data-name="Grupo 1209590" transform="translate(0.77 41.805)">
        <path id="Trazado_1048417" data-name="Trazado 1048417" d="M50.372,63.6H3.682A1.909,1.909,0,0,1,1.77,61.688,20.022,20.022,0,0,1,21.788,41.67H32.276A20.022,20.022,0,0,1,52.294,61.688,1.931,1.931,0,0,1,50.372,63.6Z" transform="translate(-0.742 -40.632)" fill="#6cc2c1"/>
        <path id="Trazado_1048418" data-name="Trazado 1048418" d="M50.4,64.657H3.711A2.949,2.949,0,0,1,.77,61.707,21.067,21.067,0,0,1,21.817,40.66H32.3A21.067,21.067,0,0,1,53.351,61.707,2.964,2.964,0,0,1,50.4,64.657ZM21.817,42.716a19.011,19.011,0,0,0-18.99,18.99.893.893,0,0,0,.884.895H50.4a.886.886,0,0,0,.884-.895,19.018,19.018,0,0,0-18.99-18.99Z" transform="translate(-0.77 -40.66)"/>
      </g>
      <g id="Grupo_1209591" data-name="Grupo 1209591" transform="translate(12.512 41.816)">
        <path id="Trazado_1048419" data-name="Trazado 1048419" d="M13.19,63.6H40.21V43.469a19.826,19.826,0,0,0-8.266-1.8H21.456a19.987,19.987,0,0,0-8.266,1.8Z" transform="translate(-12.162 -40.642)" fill="#e18a86"/>
        <path id="Trazado_1048420" data-name="Trazado 1048420" d="M40.238,64.657H13.218a1.031,1.031,0,0,1-1.028-1.028V43.5a1.026,1.026,0,0,1,.607-.936,20.94,20.94,0,0,1,8.7-1.892H31.982a20.94,20.94,0,0,1,8.7,1.892,1.026,1.026,0,0,1,.607.936V63.629A1.056,1.056,0,0,1,40.238,64.657ZM14.246,62.6H39.21V44.166a18.872,18.872,0,0,0-7.238-1.45H21.485a18.682,18.682,0,0,0-7.238,1.45Z" transform="translate(-12.19 -40.67)"/>
      </g>
      <g id="Grupo_1209594" data-name="Grupo 1209594" transform="translate(9.201 21.026)">
        <g id="Grupo_1209592" data-name="Grupo 1209592" transform="translate(26.126)">
          <circle id="Elipse_12693" data-name="Elipse 12693" cx="3.568" cy="3.568" r="3.568" transform="translate(1.028 1.018)" fill="#ffcaca"/>
          <path id="Trazado_1048421" data-name="Trazado 1048421" d="M38.976,29.642a4.6,4.6,0,1,1,4.6-4.6A4.6,4.6,0,0,1,38.976,29.642Zm0-7.146a2.54,2.54,0,1,0,2.54,2.54A2.545,2.545,0,0,0,38.976,22.5Z" transform="translate(-34.38 -20.45)"/>
        </g>
        <g id="Grupo_1209593" data-name="Grupo 1209593">
          <circle id="Elipse_12694" data-name="Elipse 12694" cx="3.568" cy="3.568" r="3.568" transform="translate(1.028 1.018)" fill="#ffcaca"/>
          <path id="Trazado_1048422" data-name="Trazado 1048422" d="M13.566,29.642a4.6,4.6,0,1,1,4.6-4.6,4.6,4.6,0,0,1-4.6,4.6Zm0-7.146a2.54,2.54,0,1,0,2.54,2.54A2.545,2.545,0,0,0,13.566,22.5Z" transform="translate(-8.97 -20.45)"/>
        </g>
      </g>
      <g id="Grupo_1209595" data-name="Grupo 1209595" transform="translate(19.349 33.2)">
        <path id="Trazado_1048423" data-name="Trazado 1048423" d="M33.185,41.9l-6.673,5.151L19.85,41.9V33.29H33.185Z" transform="translate(-18.812 -32.262)" fill="#ffcaca"/>
        <path id="Trazado_1048424" data-name="Trazado 1048424" d="M26.541,48.1a1.009,1.009,0,0,1-.627-.216l-6.673-5.141a1.013,1.013,0,0,1-.4-.812V33.318a1.031,1.031,0,0,1,1.028-1.028H33.214a1.031,1.031,0,0,1,1.028,1.028v8.616a1.013,1.013,0,0,1-.4.812l-6.673,5.141A.988.988,0,0,1,26.541,48.1ZM20.907,41.42l5.645,4.349L32.2,41.42V34.336H20.907Z" transform="translate(-18.84 -32.29)"/>
      </g>
      <g id="Grupo_1209596" data-name="Grupo 1209596" transform="translate(12.594 15.467)">
        <path id="Trazado_1048425" data-name="Trazado 1048425" d="M39.756,21.006c0,8.092-5.933,18.281-13.243,18.281S13.27,29.1,13.27,21.006c0-5.408,5.922-5.3,9.85-4.627a20.378,20.378,0,0,0,6.8,0C33.833,15.711,39.756,15.6,39.756,21.006Z" transform="translate(-12.242 -15.014)" fill="#ffcaca"/>
        <path id="Trazado_1048426" data-name="Trazado 1048426" d="M26.541,40.343c-7.907,0-14.271-10.57-14.271-19.319a5.449,5.449,0,0,1,1.84-4.38c2.313-1.954,6.282-1.768,9.2-1.265a18.912,18.912,0,0,0,6.457,0c2.93-.5,6.9-.689,9.2,1.265a5.421,5.421,0,0,1,1.84,4.38c0,8.76-6.364,19.319-14.271,19.319ZM19.663,17.107a6.606,6.606,0,0,0-4.236,1.121,3.428,3.428,0,0,0-1.11,2.807c0,7.773,5.634,17.263,12.215,17.263s12.215-9.49,12.215-17.263a3.428,3.428,0,0,0-1.11-2.807c-1.326-1.121-4.01-1.409-7.536-.812a21.374,21.374,0,0,1-7.146,0,19.6,19.6,0,0,0-3.29-.308Z" transform="translate(-12.27 -15.043)"/>
      </g>
      <g id="Grupo_1209599" data-name="Grupo 1209599" transform="translate(17.581 16.506)" opacity="0.2">
        <g id="Grupo_1209597" data-name="Grupo 1209597" transform="translate(0 0.005)">
          <path id="Trazado_1048427" data-name="Trazado 1048427" d="M17.675,16.379a20.336,20.336,0,0,0,6.066.093c-.247-.031-.494-.051-.74-.093A16.136,16.136,0,0,0,17.12,16.3c.2.021.38.051.555.082Z" transform="translate(-17.12 -16.059)"/>
        </g>
        <g id="Grupo_1209598" data-name="Grupo 1209598" transform="translate(6.621)">
          <path id="Trazado_1048428" data-name="Trazado 1048428" d="M30.181,16.286c2.221.473,3.969,1.779,3.969,4.719,0,7.084-4.545,15.782-10.59,17.839a8.371,8.371,0,0,0,2.663.452c7.321,0,13.243-10.189,13.243-18.281,0-5.172-5.388-5.305-9.284-4.73Z" transform="translate(-23.56 -16.054)"/>
        </g>
      </g>
      <g id="Grupo_1209600" data-name="Grupo 1209600" transform="translate(9.88 13.13)">
        <path id="Trazado_1048429" data-name="Trazado 1048429" d="M41.177,18.674H11.987a1.356,1.356,0,0,1-1.357-1.357v-2.19a1.356,1.356,0,0,1,1.357-1.357h29.19a1.356,1.356,0,0,1,1.357,1.357v2.19A1.343,1.343,0,0,1,41.177,18.674Z" transform="translate(-9.602 -12.742)" fill="#6cc2c1"/>
        <path id="Trazado_1048430" data-name="Trazado 1048430" d="M41.205,19.731H12.015A2.387,2.387,0,0,1,9.63,17.345v-2.19a2.387,2.387,0,0,1,2.385-2.385h29.19a2.387,2.387,0,0,1,2.385,2.385v2.19A2.374,2.374,0,0,1,41.205,19.731Zm-29.19-4.915a.331.331,0,0,0-.329.329v2.19a.331.331,0,0,0,.329.329h29.19a.325.325,0,0,0,.329-.329v-2.19a.331.331,0,0,0-.329-.329Z" transform="translate(-9.63 -12.77)"/>
      </g>
      <g id="Grupo_1209601" data-name="Grupo 1209601" transform="translate(12.584 0)">
        <path id="Trazado_1048431" data-name="Trazado 1048431" d="M26.636,1h-.247A13.116,13.116,0,0,0,13.27,14.119h26.5A13.131,13.131,0,0,0,26.636,1Z" transform="translate(-12.232 0.028)" fill="#6cc2c1"/>
        <path id="Trazado_1048432" data-name="Trazado 1048432" d="M39.784,15.176h-26.5a1.031,1.031,0,0,1-1.028-1.028A14.169,14.169,0,0,1,26.418,0h.247A14.16,14.16,0,0,1,40.812,14.148,1.025,1.025,0,0,1,39.784,15.176ZM14.368,13.119H38.715A12.107,12.107,0,0,0,26.665,2.056h-.247a12.107,12.107,0,0,0-12.05,11.063Z" transform="translate(-12.26 0)"/>
      </g>
      <g id="Grupo_1209602" data-name="Grupo 1209602" transform="translate(22.228 0)">
        <path id="Trazado_1048433" data-name="Trazado 1048433" d="M26.249,7.107A3.607,3.607,0,0,0,29.858,3.5V1.483A13.086,13.086,0,0,0,26.372,1h-.247a12.97,12.97,0,0,0-3.485.483V3.509a3.6,3.6,0,0,0,3.609,3.6Z" transform="translate(-21.612 0.028)" fill="#65a4ab"/>
        <path id="Trazado_1048434" data-name="Trazado 1048434" d="M26.277,8.164A4.638,4.638,0,0,1,21.64,3.527V1.511a1.024,1.024,0,0,1,.751-.987A14.018,14.018,0,0,1,26.154,0H26.4a14.289,14.289,0,0,1,3.753.514A1.024,1.024,0,0,1,30.9,1.5V3.527a4.629,4.629,0,0,1-4.627,4.637ZM23.7,2.313V3.527a2.581,2.581,0,0,0,5.161,0V2.313A12.713,12.713,0,0,0,26.4,2.056h-.247a12.548,12.548,0,0,0-2.457.257Z" transform="translate(-21.64 0)"/>
      </g>
      <g id="Grupo_1209603" data-name="Grupo 1209603" transform="translate(25.837 47.532)">
        <path id="Trazado_1048435" data-name="Trazado 1048435" d="M26.178,64.5a1.031,1.031,0,0,1-1.028-1.028V47.258a1.028,1.028,0,0,1,2.056,0V63.472A1.031,1.031,0,0,1,26.178,64.5Z" transform="translate(-25.15 -46.23)"/>
      </g>
      <g id="Grupo_1209604" data-name="Grupo 1209604" transform="translate(32.777 3.344)">
        <path id="Trazado_1048436" data-name="Trazado 1048436" d="M34.812,4.25a6.593,6.593,0,0,0,.545,9.778H39.2A13.106,13.106,0,0,0,34.812,4.25Z" transform="translate(-31.872 -3.224)" fill="#65a4ab"/>
        <path id="Trazado_1048437" data-name="Trazado 1048437" d="M39.231,15.084H35.385a1.055,1.055,0,0,1-.648-.226,7.62,7.62,0,0,1-.627-11.3,1.025,1.025,0,0,1,1.419-.041,14.162,14.162,0,0,1,4.74,10.549A1.038,1.038,0,0,1,39.231,15.084Zm-3.465-2.056h2.4A12.157,12.157,0,0,0,34.923,5.79a5.561,5.561,0,0,0,.843,7.238Z" transform="translate(-31.9 -3.252)"/>
      </g>
      <g id="Grupo_1209605" data-name="Grupo 1209605" transform="translate(12.594 3.341)">
        <path id="Trazado_1048438" data-name="Trazado 1048438" d="M17.66,4.25a6.593,6.593,0,0,1-.545,9.778H13.27A13.033,13.033,0,0,1,17.66,4.25Z" transform="translate(-12.242 -3.221)" fill="#65a4ab"/>
        <path id="Trazado_1048439" data-name="Trazado 1048439" d="M17.144,15.084H13.3a1.031,1.031,0,0,1-1.028-1.028A14.178,14.178,0,0,1,17.01,3.507a1.046,1.046,0,0,1,1.419.041,7.62,7.62,0,0,1-.627,11.3A1,1,0,0,1,17.144,15.084Zm-2.776-2.056h2.4a5.561,5.561,0,0,0,.843-7.238,12.1,12.1,0,0,0-3.239,7.238Z" transform="translate(-12.27 -3.25)"/>
      </g>
      <g id="Grupo_1209609" data-name="Grupo 1209609" transform="translate(46.081 28.162)">
        <g id="Grupo_1209606" data-name="Grupo 1209606" transform="translate(0)">
          <path id="Trazado_1048440" data-name="Trazado 1048440" d="M48.7,44.707l5.573,3.444,5.573-3.444a6.016,6.016,0,0,0,2.858-5.12V31.454L54.271,28.39,45.84,31.454v8.133a6.029,6.029,0,0,0,2.858,5.12Z" transform="translate(-44.812 -27.362)" fill="#f0dba5"/>
          <path id="Trazado_1048441" data-name="Trazado 1048441" d="M54.3,49.208a1.069,1.069,0,0,1-.545-.154l-5.573-3.444a7,7,0,0,1-3.342-5.994V31.482a1.02,1.02,0,0,1,.679-.966l8.431-3.064a1.021,1.021,0,0,1,.7,0l8.431,3.064a1.02,1.02,0,0,1,.679.966v8.133a6.994,6.994,0,0,1-3.342,5.994l-5.573,3.444a1.069,1.069,0,0,1-.545.154ZM46.9,32.2v7.413a4.954,4.954,0,0,0,2.365,4.246l5.028,3.105,5.028-3.105a4.967,4.967,0,0,0,2.365-4.246V32.2l-7.4-2.694Z" transform="translate(-44.84 -27.39)"/>
        </g>
        <g id="Grupo_1209607" data-name="Grupo 1209607" transform="translate(6.529 1.028)" opacity="0.2">
          <path id="Trazado_1048442" data-name="Trazado 1048442" d="M54.12,28.39l-.823.3,4.956,1.8V38.62a6,6,0,0,1-2.858,5.12l-4.205,2.6,2.93,1.81,5.573-3.444a6.016,6.016,0,0,0,2.858-5.12V31.454Z" transform="translate(-51.19 -28.39)"/>
        </g>
        <g id="Grupo_1209608" data-name="Grupo 1209608" transform="translate(4.161 6.228)">
          <path id="Trazado_1048443" data-name="Trazado 1048443" d="M52.005,41.922h-.093a1.052,1.052,0,0,1-.751-.432l-2.087-2.971a1.027,1.027,0,0,1,1.686-1.172l1.378,1.974,5.573-5.573a1.025,1.025,0,0,1,1.45,1.45l-6.436,6.436a1.01,1.01,0,0,1-.72.288Z" transform="translate(-48.887 -33.447)"/>
        </g>
      </g>
      <g id="Grupo_1209610" data-name="Grupo 1209610" transform="translate(9.201 52.786)">
        <path id="Trazado_1048444" data-name="Trazado 1048444" d="M49.873,52.33H9.97v3.794H51.333A19.69,19.69,0,0,0,49.873,52.33Z" transform="translate(-8.942 -51.312)" fill="#f0dba5"/>
        <path id="Trazado_1048445" data-name="Trazado 1048445" d="M51.361,57.19H10A1.031,1.031,0,0,1,8.97,56.162V52.368A1.031,1.031,0,0,1,10,51.34H49.9a1.016,1.016,0,0,1,.915.565,21.2,21.2,0,0,1,1.532,3.989,1.024,1.024,0,0,1-.987,1.3ZM11.026,55.134H49.973a17.087,17.087,0,0,0-.709-1.738H11.026Z" transform="translate(-8.97 -51.34)"/>
      </g>
      <g id="Grupo_1209611" data-name="Grupo 1209611" transform="translate(35.327 56.58)">
        <path id="Trazado_1048446" data-name="Trazado 1048446" d="M35.38,56.03h4.205V63.2H35.38Z" transform="translate(-34.352 -55.002)" fill="#f0dba5"/>
        <path id="Trazado_1048447" data-name="Trazado 1048447" d="M39.613,64.253H35.408a1.031,1.031,0,0,1-1.028-1.028V56.058a1.031,1.031,0,0,1,1.028-1.028h4.205a1.031,1.031,0,0,1,1.028,1.028v7.166A1.025,1.025,0,0,1,39.613,64.253ZM36.436,62.2h2.149v-5.11H36.436Z" transform="translate(-34.38 -55.03)"/>
      </g>
      <g id="Grupo_1209614" data-name="Grupo 1209614" transform="translate(17.029 21.791)">
        <g id="Grupo_1209612" data-name="Grupo 1209612" transform="translate(2.879 9.565)">
          <path id="Trazado_1048448" data-name="Trazado 1048448" d="M20.418,31.837a.279.279,0,0,1-.175-.062,6.526,6.526,0,0,1-.8-.864.249.249,0,0,1,.041-.36.258.258,0,0,1,.36.041,7.047,7.047,0,0,0,.74.8.258.258,0,0,1,.021.36.241.241,0,0,1-.185.082Z" transform="translate(-19.383 -30.498)" fill="#fff"/>
        </g>
        <g id="Grupo_1209613" data-name="Grupo 1209613">
          <path id="Trazado_1048449" data-name="Trazado 1048449" d="M18.605,29.5a.255.255,0,0,1-.226-.134C17,26.711,16.282,23.287,16.7,21.4a.258.258,0,1,1,.5.113c-.391,1.758.319,5.1,1.625,7.619a.261.261,0,0,1-.113.35A.437.437,0,0,1,18.605,29.5Z" transform="translate(-16.583 -21.194)" fill="#fff"/>
        </g>
      </g>
    </g>
  </g>
</svg>
