<svg xmlns="http://www.w3.org/2000/svg" xmlns:xlink="http://www.w3.org/1999/xlink" width="113" height="113" viewBox="0 0 113 113">
  <defs>
    <filter id="Trazado_982547" x="0" y="0" width="113" height="113" filterUnits="userSpaceOnUse">
      <feOffset dy="3" input="SourceAlpha"/>
      <feGaussianBlur stdDeviation="3" result="blur"/>
      <feFlood flood-opacity="0.161"/>
      <feComposite operator="in" in2="blur"/>
      <feComposite in="SourceGraphic"/>
    </filter>
  </defs>
  <g id="Grupo_1209619" data-name="Grupo 1209619" transform="translate(-4795 -9302.929)">
    <g id="Grupo_1209207" data-name="Grupo 1209207" transform="translate(3683 8072.713)">
      <g id="Grupo_1209049" data-name="Grupo 1209049">
        <g id="Grupo_1208493" data-name="Grupo 1208493" transform="translate(0 -4397.209)">
          <g id="Grupo_1202104" data-name="Grupo 1202104" transform="translate(0 -1149.226)">
            <g id="Grupo_1201923" data-name="Grupo 1201923" transform="translate(-4174.49 4856.378)">
              <g id="Grupo_1176928" data-name="Grupo 1176928" transform="translate(5295.49 1926.273)">
                <g id="Grupo_1172322" data-name="Grupo 1172322" transform="translate(0 0)">
                  <g id="Grupo_1164700" data-name="Grupo 1164700">
                    <g id="Grupo_1160931" data-name="Grupo 1160931">
                      <g id="Grupo_1160749" data-name="Grupo 1160749">
                        <g id="Grupo_1158891" data-name="Grupo 1158891">
                          <g id="Grupo_1157406" data-name="Grupo 1157406">
                            <g id="Grupo_1155793" data-name="Grupo 1155793">
                              <g id="Grupo_1154704" data-name="Grupo 1154704">
                                <g id="Grupo_1150790" data-name="Grupo 1150790">
                                  <g id="Grupo_1154214" data-name="Grupo 1154214">
                                    <g id="Grupo_1152583" data-name="Grupo 1152583">
                                      <g id="Grupo_1146973" data-name="Grupo 1146973">
                                        <g id="Grupo_1146954" data-name="Grupo 1146954">
                                          <g transform="matrix(1, 0, 0, 1, -9, -6)" filter="url(#Trazado_982547)">
                                            <g id="Trazado_982547-2" data-name="Trazado 982547" transform="translate(9 6)" fill="#fef9e7">
                                              <path d="M 47.5000114440918 93.49987030029297 C 41.28938293457031 93.49987030029297 35.26534652709961 92.28384399414062 29.5951976776123 89.88558959960938 C 24.11773109436035 87.56881713867188 19.19814491271973 84.25183868408203 14.97310447692871 80.02680206298828 C 10.74805164337158 75.80176544189453 7.43107795715332 70.88218688964844 5.114304542541504 65.40472412109375 C 2.716038227081299 59.73458862304688 1.500011444091797 53.71054840087891 1.500011444091797 47.49993515014648 C 1.500011444091797 41.28932189941406 2.716038227081299 35.26528167724609 5.114304542541504 29.59514808654785 C 7.43107795715332 24.1176815032959 10.74805164337158 19.1981086730957 14.97310447692871 14.97306823730469 C 19.19814491271973 10.74802875518799 24.11773109436035 7.431055068969727 29.5951976776123 5.11428165435791 C 35.26534652709961 2.716028451919556 41.28938293457031 1.500001788139343 47.5000114440918 1.500001788139343 C 53.71063995361328 1.500001788139343 59.73467636108398 2.716028451919556 65.40482330322266 5.11428165435791 C 70.88229370117188 7.431055068969727 75.8018798828125 10.74802875518799 80.02691650390625 14.97306823730469 C 84.25196838378906 19.1981086730957 87.56894683837891 24.1176815032959 89.88571929931641 29.59514808654785 C 92.28398132324219 35.26528167724609 93.50001525878906 41.28932189941406 93.50001525878906 47.49993515014648 C 93.50001525878906 53.71054840087891 92.28398132324219 59.73458862304688 89.88571929931641 65.40472412109375 C 87.56894683837891 70.88218688964844 84.25196838378906 75.80176544189453 80.02691650390625 80.02680206298828 C 75.8018798828125 84.25183868408203 70.88229370117188 87.56881713867188 65.40482330322266 89.88558959960938 C 59.73467636108398 92.28384399414062 53.71063995361328 93.49987030029297 47.5000114440918 93.49987030029297 Z" stroke="none"/>
                                              <path d="M 47.5000114440918 3 C 41.49122619628906 3 35.66378021240234 4.1761474609375 30.17951965332031 6.495796203613281 C 24.880859375 8.7369384765625 20.12153625488281 11.94596862792969 16.03376770019531 16.03373718261719 C 11.94598388671875 20.12149047851562 8.736968994140625 24.88081359863281 6.495811462402344 30.17947387695312 C 4.176162719726562 35.66371917724609 3.000007629394531 41.49116516113281 3.000007629394531 47.49993515014648 C 3.000007629394531 53.50870513916016 4.176162719726562 59.33615112304688 6.495811462402344 64.82039642333984 C 8.736968994140625 70.11905670166016 11.94598388671875 74.87837982177734 16.03376770019531 78.96613311767578 C 20.12153625488281 83.05390167236328 24.880859375 86.26293182373047 30.17951965332031 88.50407409667969 C 35.66378021240234 90.82372283935547 41.49122619628906 91.99987030029297 47.5000114440918 91.99987030029297 C 53.50879669189453 91.99987030029297 59.33624267578125 90.82372283935547 64.82050323486328 88.50407409667969 C 70.11916351318359 86.26293182373047 74.87848663330078 83.05390167236328 78.96625518798828 78.96613311767578 C 83.05403900146484 74.87837982177734 86.2630615234375 70.11905670166016 88.50421142578125 64.82039642333984 C 90.82386016845703 59.33615112304688 92.00001525878906 53.50870513916016 92.00001525878906 47.49993515014648 C 92.00001525878906 41.49116516113281 90.82386016845703 35.66371917724609 88.50421142578125 30.17947387695312 C 86.2630615234375 24.88081359863281 83.05403900146484 20.12149047851562 78.96625518798828 16.03373718261719 C 74.87848663330078 11.94596862792969 70.11916351318359 8.7369384765625 64.82050323486328 6.495796203613281 C 59.33624267578125 4.1761474609375 53.50879669189453 3 47.5000114440918 3 M 47.5000114440918 0 C 73.73353576660156 0 95.00001525878906 21.26644134521484 95.00001525878906 47.49993515014648 C 95.00001525878906 73.73342895507812 73.73353576660156 94.99987030029297 47.5000114440918 94.99987030029297 C 21.26648712158203 94.99987030029297 7.62939453125e-06 73.73342895507812 7.62939453125e-06 47.49993515014648 C 7.62939453125e-06 21.26644134521484 21.26648712158203 0 47.5000114440918 0 Z" stroke="none" fill="#f8ce24"/>
                                            </g>
                                          </g>
                                        </g>
                                      </g>
                                    </g>
                                  </g>
                                </g>
                              </g>
                            </g>
                          </g>
                        </g>
                      </g>
                    </g>
                  </g>
                </g>
              </g>
            </g>
          </g>
        </g>
      </g>
    </g>
    <g id="architect_5696391" transform="translate(4770.086 9323.027)">
      <g id="Grupo_1209617" data-name="Grupo 1209617" transform="translate(57.095 0.949)">
        <path id="Trazado_1048450" data-name="Trazado 1048450" d="M135.678,135.758h4.058v6.087h-4.058Z" transform="translate(-126.588 -119.525)" fill="#b0a8af"/>
        <path id="Trazado_1048451" data-name="Trazado 1048451" d="M344.1,135.758h4.058v6.087H344.1Z" transform="translate(-308.629 -119.525)" fill="#b8b2b8"/>
        <path id="Trazado_1048452" data-name="Trazado 1048452" d="M108.265,348.922l-15.023-4.744h-10.1l-15.023,4.744a6.088,6.088,0,0,0-4.254,5.8l3.012,9.742h6.077l4.807-1.21,5.339,1.21h29.423v-9.743A6.087,6.087,0,0,0,108.265,348.922Z" transform="translate(-63.861 -301.566)" fill="#b8ddff"/>
        <path id="Trazado_1048453" data-name="Trazado 1048453" d="M200.136,280.048h14.2v11.16h-14.2Z" transform="translate(-182.888 -245.553)" fill="#fbbd80"/>
        <path id="Trazado_1048454" data-name="Trazado 1048454" d="M200.136,291.209h3.044V288.9a.977.977,0,0,1,.353-.759,1.1,1.1,0,0,1,.895-.229,16.222,16.222,0,0,0,9.913-1.4v-6.461h-14.2Z" transform="translate(-182.888 -245.554)" fill="#f4aa73"/>
        <path id="Trazado_1048455" data-name="Trazado 1048455" d="M152.015,148.847h-3.6v-5.073H126.092v5.073h-3.354a2.636,2.636,0,0,0-2.668,2.275,2.537,2.537,0,0,0,2.523,2.8h1.573a13.176,13.176,0,0,0,26.276,0h1.429a2.636,2.636,0,0,0,2.668-2.275A2.537,2.537,0,0,0,152.015,148.847Z" transform="translate(-112.944 -126.526)" fill="#ffd18d"/>
        <path id="Trazado_1048456" data-name="Trazado 1048456" d="M163.072,13.671V11.559a2.029,2.029,0,0,0-2.029-2.029h-1.015a1.015,1.015,0,0,0-1.015,1.015v.1A12.109,12.109,0,0,0,153.94,9.53h-1.015V8.516A1.015,1.015,0,0,0,151.911,7.5h-2.029a1.015,1.015,0,0,0-1.015,1.015V9.53h-1.015a12.109,12.109,0,0,0-5.073,1.118v-.1a1.015,1.015,0,0,0-1.015-1.015h-1.015a2.029,2.029,0,0,0-2.029,2.029v2.112a12.115,12.115,0,0,0-3.043,8.034v2.029h30.437V21.7a12.115,12.115,0,0,0-3.043-8.034Z" transform="translate(-126.588 -7.501)" fill="#ffd05b"/>
        <path id="Trazado_1048457" data-name="Trazado 1048457" d="M145.826,23.722a12.231,12.231,0,0,0-3.044.927v-.1a1.015,1.015,0,0,0-1.015-1.015h-1.015a2.029,2.029,0,0,0-2.029,2.029v2.112a12.114,12.114,0,0,0-3.043,8.034v2.029h10.146V23.722Z" transform="translate(-126.59 -21.503)" fill="#ffc263"/>
        <path id="Trazado_1048458" data-name="Trazado 1048458" d="M136.918,111.71a45.569,45.569,0,0,0-16.88,2.9.6.6,0,0,0,.24,1.159h33.278a.6.6,0,0,0,.24-1.159A45.566,45.566,0,0,0,136.918,111.71Z" transform="translate(-112.608 -98.521)" fill="#ffaa5a"/>
        <path id="Trazado_1048459" data-name="Trazado 1048459" d="M148.413,148.388v-4.614H126.092v5.073h-3.354a2.636,2.636,0,0,0-2.668,2.275,2.537,2.537,0,0,0,2.523,2.8h1.573a13.187,13.187,0,0,0,15.685,11.929c-6.08-1.176-11.2-6.52-11.2-12.943v-4.517h19.757Z" transform="translate(-112.944 -126.526)" fill="#fbbd80"/>
        <g id="Grupo_1209616" data-name="Grupo 1209616" transform="translate(0 40.97)">
          <path id="Trazado_1048460" data-name="Trazado 1048460" d="M144.809,472.435h-8.117a1.015,1.015,0,0,0-1.015,1.015v3.044h10.146V473.45A1.014,1.014,0,0,0,144.809,472.435Z" transform="translate(-126.588 -454.559)" fill="#91ccff"/>
          <path id="Trazado_1048461" data-name="Trazado 1048461" d="M265.525,331.761a1.014,1.014,0,0,0-1.4-.433l-8.2,4.558,6.17,5.288a1.015,1.015,0,0,0,1.541-.267l3.449-6.036Z" transform="translate(-231.612 -331.2)" fill="#91ccff"/>
          <path id="Trazado_1048462" data-name="Trazado 1048462" d="M169.3,331.761a1.014,1.014,0,0,1,1.4-.433l8.2,4.558-6.17,5.288a1.015,1.015,0,0,1-1.541-.267l-3.449-6.036Z" transform="translate(-154.594 -331.2)" fill="#91ccff"/>
          <path id="Trazado_1048463" data-name="Trazado 1048463" d="M69.021,365.265l8.883-2.736-.922-2.994-8.867,2.8a6.087,6.087,0,0,0-4.254,5.8v9.743h3.012v-9.709A3.028,3.028,0,0,1,69.021,365.265Z" transform="translate(-63.861 -355.949)" fill="#91ccff"/>
        </g>
      </g>
      <g id="Grupo_1209618" data-name="Grupo 1209618" transform="translate(56.115 0)">
        <path id="Trazado_1048464" data-name="Trazado 1048464" d="M238.425,249.449a.949.949,0,0,0-.949-.949h-4.058a.949.949,0,1,0,0,1.9h4.058A.949.949,0,0,0,238.425,249.449Z" transform="translate(-210.148 -217.048)"/>
        <path id="Trazado_1048465" data-name="Trazado 1048465" d="M101.747,47.419,93.228,44.8l-1.37-2.74a1.958,1.958,0,0,0-2.4-.974V38.95a14.159,14.159,0,0,0,5.961-9.658h.564a3.6,3.6,0,0,0,3.613-3.13,3.481,3.481,0,0,0-2.021-3.526v-3.49h1.08a.949.949,0,0,0,.507-1.752c-.5-.315-1.029-.614-1.587-.9V15.153a13.111,13.111,0,0,0-3.043-8.4V5.007A2.982,2.982,0,0,0,91.55,2.029H90.535a1.96,1.96,0,0,0-1.575.8,13.032,13.032,0,0,0-4.512-.8h-.065V1.964A1.966,1.966,0,0,0,82.418,0H80.389a1.966,1.966,0,0,0-1.964,1.964v.065H78.36a13.046,13.046,0,0,0-4.512.8,1.96,1.96,0,0,0-1.576-.8H71.258A2.982,2.982,0,0,0,68.28,5.007V6.749a13.11,13.11,0,0,0-3.043,8.4V16.5q-.841.425-1.587.9a.949.949,0,0,0,.507,1.752h1.08v3.542a3.463,3.463,0,0,0,1.467,6.6h.709a14.156,14.156,0,0,0,5.941,9.646v2.144a1.958,1.958,0,0,0-2.4.974L69.576,44.8l-8.5,2.616a7,7,0,0,0-4.966,6.725v9.709a.949.949,0,1,0,1.9,0V54.144a5.113,5.113,0,0,1,3.626-4.911L69.8,46.721,72.868,52.1a1.963,1.963,0,0,0,2.983.517l4.6-3.945V63.853a.949.949,0,1,0,1.9,0V48.669l4.6,3.945a1.956,1.956,0,0,0,1.276.473,1.989,1.989,0,0,0,.337-.029,1.958,1.958,0,0,0,1.37-.961l3.075-5.381,8.174,2.517a5.113,5.113,0,0,1,3.626,4.911v9.709a.949.949,0,1,0,1.9,0V54.144a7,7,0,0,0-4.966-6.725ZM67.134,15.153A11.212,11.212,0,0,1,69.94,7.729a.949.949,0,0,0,.237-.628V5.007a1.081,1.081,0,0,1,1.08-1.08h1.015a.065.065,0,0,1,.065.065V6.022a.949.949,0,1,0,1.9,0V4.71a11.151,11.151,0,0,1,4.124-.782h.065v1.08a.949.949,0,1,0,1.9,0V1.964a.065.065,0,0,1,.065-.065h2.029a.065.065,0,0,1,.065.065V5.007a.949.949,0,0,0,1.9,0V3.928h.065a11.14,11.14,0,0,1,4.124.781V6.022a.949.949,0,1,0,1.9,0V3.993a.065.065,0,0,1,.065-.065h1.015a1.081,1.081,0,0,1,1.08,1.08V7.1a.949.949,0,0,0,.237.628,11.212,11.212,0,0,1,2.806,7.425v.489A39.249,39.249,0,0,0,81.4,13.189a45.132,45.132,0,0,0-7.255.573.949.949,0,0,0,.306,1.874,43.222,43.222,0,0,1,6.949-.548,38.331,38.331,0,0,1,13.14,2.16H68.255q1.063-.4,2.248-.738a.949.949,0,0,0-.52-1.826,29.679,29.679,0,0,0-2.849.964Zm28.539,3.993v3.174H93.766V19.146Zm-5.138,2.16h-7.1a.949.949,0,0,0-.949.949v.269a2.967,2.967,0,0,0-2.16,0v-.269a.949.949,0,0,0-.949-.949h-7.1a.949.949,0,0,0-.949.949v.065h-.384V19.146H91.868v3.174h-.384v-.065A.949.949,0,0,0,90.535,21.306Zm-3.551,3.928a.949.949,0,0,0,.949-.949V23.2h1.653V25.3a1.081,1.081,0,0,1-1.08,1.08H85.462a1.081,1.081,0,0,1-1.08-1.08V23.2h1.652v1.08a.949.949,0,0,0,.949.949Zm-11.16,0a.949.949,0,0,0,.949-.949V23.2h1.653V25.3a1.081,1.081,0,0,1-1.08,1.08H74.3a1.081,1.081,0,0,1-1.08-1.08V23.2h1.653v1.08A.949.949,0,0,0,75.824,25.234Zm-8.689-6.087h1.907v3.174H67.134Zm2.039,8.182a.949.949,0,1,0-1.9,0v.065H66.7a1.588,1.588,0,0,1-1.579-1.754,1.684,1.684,0,0,1,1.724-1.42h4.476V25.3A2.982,2.982,0,0,0,74.3,28.277h3.044A2.982,2.982,0,0,0,80.324,25.3a1.08,1.08,0,1,1,2.16,0,2.982,2.982,0,0,0,2.978,2.978h3.044A2.982,2.982,0,0,0,91.484,25.3v-1.08h4.641A1.587,1.587,0,0,1,97.7,25.973a1.684,1.684,0,0,1-1.724,1.42h-.428v-.056a.949.949,0,0,0-.949-.949h0a.949.949,0,0,0-.949.949,12.24,12.24,0,0,1-24.48-.009ZM81.4,45.519,79.1,44.238a.949.949,0,1,0-.922,1.66l1.575.875-5.134,4.4a.06.06,0,0,1-.054.015.061.061,0,0,1-.046-.032l-3.2-5.6L72.648,42.9a.062.062,0,0,1,.039-.033.063.063,0,0,1,.051.005l2.074,1.152a.949.949,0,0,0,.922-1.66l-.483-.268v-2.05a14.118,14.118,0,0,0,12.306.009V42.1Zm6.887,5.637a.065.065,0,0,1-.1.017l-5.134-4.4,7.012-3.9a.065.065,0,0,1,.09.028l1.328,2.656Z" transform="translate(-56.115 0)"/>
        <path id="Trazado_1048466" data-name="Trazado 1048466" d="M138.259,429.927h-1.08v-2.095a.949.949,0,1,0-1.9,0v2.095h-2.16V425.8a.949.949,0,0,0-1.9,0v4.124h-1.08a1.966,1.966,0,0,0-1.964,1.964v3.044a.949.949,0,0,0,1.9,0v-3.044a.065.065,0,0,1,.065-.065h8.117a.065.065,0,0,1,.065.065v3.044a.949.949,0,0,0,1.9,0v-3.044A1.966,1.966,0,0,0,138.259,429.927Z" transform="translate(-119.058 -371.082)"/>
      </g>
    </g>
  </g>
</svg>
