<svg xmlns="http://www.w3.org/2000/svg" xmlns:xlink="http://www.w3.org/1999/xlink" width="113" height="113" viewBox="0 0 113 113">
  <defs>
    <filter id="Trazado_982547" x="0" y="0" width="113" height="113" filterUnits="userSpaceOnUse">
      <feOffset dy="3" input="SourceAlpha"/>
      <feGaussianBlur stdDeviation="3" result="blur"/>
      <feFlood flood-opacity="0.161"/>
      <feComposite operator="in" in2="blur"/>
      <feComposite in="SourceGraphic"/>
    </filter>
  </defs>
  <g id="Grupo_1209621" data-name="Grupo 1209621" transform="translate(-4460 -9673.929)">
    <g id="Grupo_1209208" data-name="Grupo 1209208" transform="translate(3348 8443.713)">
      <g id="Grupo_1209049" data-name="Grupo 1209049">
        <g id="Grupo_1208493" data-name="Grupo 1208493" transform="translate(0 -4397.209)">
          <g id="Grupo_1202104" data-name="Grupo 1202104" transform="translate(0 -1149.226)">
            <g id="Grupo_1201923" data-name="Grupo 1201923" transform="translate(-4174.49 4856.378)">
              <g id="Grupo_1176928" data-name="Grupo 1176928" transform="translate(5295.49 1926.273)">
                <g id="Grupo_1172322" data-name="Grupo 1172322" transform="translate(0 0)">
                  <g id="Grupo_1164700" data-name="Grupo 1164700">
                    <g id="Grupo_1160931" data-name="Grupo 1160931">
                      <g id="Grupo_1160749" data-name="Grupo 1160749">
                        <g id="Grupo_1158891" data-name="Grupo 1158891">
                          <g id="Grupo_1157406" data-name="Grupo 1157406">
                            <g id="Grupo_1155793" data-name="Grupo 1155793">
                              <g id="Grupo_1154704" data-name="Grupo 1154704">
                                <g id="Grupo_1150790" data-name="Grupo 1150790">
                                  <g id="Grupo_1154214" data-name="Grupo 1154214">
                                    <g id="Grupo_1152583" data-name="Grupo 1152583">
                                      <g id="Grupo_1146973" data-name="Grupo 1146973">
                                        <g id="Grupo_1146954" data-name="Grupo 1146954">
                                          <g transform="matrix(1, 0, 0, 1, -9, -6)" filter="url(#Trazado_982547)">
                                            <g id="Trazado_982547-2" data-name="Trazado 982547" transform="translate(9 6)" fill="#fef9e7">
                                              <path d="M 47.5000114440918 93.49987030029297 C 41.28938293457031 93.49987030029297 35.26534652709961 92.28384399414062 29.5951976776123 89.88558959960938 C 24.11773109436035 87.56881713867188 19.19814491271973 84.25183868408203 14.97310447692871 80.02680206298828 C 10.74805164337158 75.80176544189453 7.43107795715332 70.88218688964844 5.114304542541504 65.40472412109375 C 2.716038227081299 59.73458862304688 1.500011444091797 53.71054840087891 1.500011444091797 47.49993515014648 C 1.500011444091797 41.28932189941406 2.716038227081299 35.26528167724609 5.114304542541504 29.59514808654785 C 7.43107795715332 24.1176815032959 10.74805164337158 19.1981086730957 14.97310447692871 14.97306823730469 C 19.19814491271973 10.74802875518799 24.11773109436035 7.431055068969727 29.5951976776123 5.11428165435791 C 35.26534652709961 2.716028451919556 41.28938293457031 1.500001788139343 47.5000114440918 1.500001788139343 C 53.71063995361328 1.500001788139343 59.73467636108398 2.716028451919556 65.40482330322266 5.11428165435791 C 70.88229370117188 7.431055068969727 75.8018798828125 10.74802875518799 80.02691650390625 14.97306823730469 C 84.25196838378906 19.1981086730957 87.56894683837891 24.1176815032959 89.88571929931641 29.59514808654785 C 92.28398132324219 35.26528167724609 93.50001525878906 41.28932189941406 93.50001525878906 47.49993515014648 C 93.50001525878906 53.71054840087891 92.28398132324219 59.73458862304688 89.88571929931641 65.40472412109375 C 87.56894683837891 70.88218688964844 84.25196838378906 75.80176544189453 80.02691650390625 80.02680206298828 C 75.8018798828125 84.25183868408203 70.88229370117188 87.56881713867188 65.40482330322266 89.88558959960938 C 59.73467636108398 92.28384399414062 53.71063995361328 93.49987030029297 47.5000114440918 93.49987030029297 Z" stroke="none"/>
                                              <path d="M 47.5000114440918 3 C 41.49122619628906 3 35.66378021240234 4.1761474609375 30.17951965332031 6.495796203613281 C 24.880859375 8.7369384765625 20.12153625488281 11.94596862792969 16.03376770019531 16.03373718261719 C 11.94598388671875 20.12149047851562 8.736968994140625 24.88081359863281 6.495811462402344 30.17947387695312 C 4.176162719726562 35.66371917724609 3.000007629394531 41.49116516113281 3.000007629394531 47.49993515014648 C 3.000007629394531 53.50870513916016 4.176162719726562 59.33615112304688 6.495811462402344 64.82039642333984 C 8.736968994140625 70.11905670166016 11.94598388671875 74.87837982177734 16.03376770019531 78.96613311767578 C 20.12153625488281 83.05390167236328 24.880859375 86.26293182373047 30.17951965332031 88.50407409667969 C 35.66378021240234 90.82372283935547 41.49122619628906 91.99987030029297 47.5000114440918 91.99987030029297 C 53.50879669189453 91.99987030029297 59.33624267578125 90.82372283935547 64.82050323486328 88.50407409667969 C 70.11916351318359 86.26293182373047 74.87848663330078 83.05390167236328 78.96625518798828 78.96613311767578 C 83.05403900146484 74.87837982177734 86.2630615234375 70.11905670166016 88.50421142578125 64.82039642333984 C 90.82386016845703 59.33615112304688 92.00001525878906 53.50870513916016 92.00001525878906 47.49993515014648 C 92.00001525878906 41.49116516113281 90.82386016845703 35.66371917724609 88.50421142578125 30.17947387695312 C 86.2630615234375 24.88081359863281 83.05403900146484 20.12149047851562 78.96625518798828 16.03373718261719 C 74.87848663330078 11.94596862792969 70.11916351318359 8.7369384765625 64.82050323486328 6.495796203613281 C 59.33624267578125 4.1761474609375 53.50879669189453 3 47.5000114440918 3 M 47.5000114440918 0 C 73.73353576660156 0 95.00001525878906 21.26644134521484 95.00001525878906 47.49993515014648 C 95.00001525878906 73.73342895507812 73.73353576660156 94.99987030029297 47.5000114440918 94.99987030029297 C 21.26648712158203 94.99987030029297 7.62939453125e-06 73.73342895507812 7.62939453125e-06 47.49993515014648 C 7.62939453125e-06 21.26644134521484 21.26648712158203 0 47.5000114440918 0 Z" stroke="none" fill="#f8ce24"/>
                                            </g>
                                          </g>
                                        </g>
                                      </g>
                                    </g>
                                  </g>
                                </g>
                              </g>
                            </g>
                          </g>
                        </g>
                      </g>
                    </g>
                  </g>
                </g>
              </g>
            </g>
          </g>
        </g>
      </g>
    </g>
    <g id="man_15558395" transform="translate(4470.562 9691.994)">
      <g id="Grupo_1209620" data-name="Grupo 1209620" transform="translate(18.425 0.919)">
        <path id="Trazado_1048467" data-name="Trazado 1048467" d="M178.551,147.729a19.664,19.664,0,1,1-23.408-15.012A19.664,19.664,0,0,1,178.551,147.729Z" transform="translate(-124.567 -115.83)" fill="#3d9ae2" fill-rule="evenodd"/>
        <path id="Trazado_1048468" data-name="Trazado 1048468" d="M210.112,333.449a19.968,19.968,0,0,1-3.424,1.082,19.64,19.64,0,0,1-17.351-4.6,4.8,4.8,0,0,1,1.606-.885c1.613-.506,3,.554,4.484-.758,3-2.655,2.744-.469,5.517-1.353a2.346,2.346,0,0,0,1.48-2.617c-.866-3.287,4.673-6.741,6.607-.666A34.237,34.237,0,0,1,210.112,333.449Z" transform="translate(-167.716 -279.223)" fill="#91dc5a" fill-rule="evenodd"/>
        <path id="Trazado_1048469" data-name="Trazado 1048469" d="M196.89,146.869c-.554-.628-2.959-4.439-3.149-4.458-.48-1.034-1.669,1.29-1.632,2.1.156,3.487-4.235,2.892-4.2,5.878.022,2,4.194,3.513-.123,3.952-2.655.271-3.967-2.6-6.978-2.551-2.115.033-9.637-.859-7.6-3.837.915-1.338,5.651-1.42,7.57-3.725,4.149-4.993,5.272-1.878,9.592-5.763a9.932,9.932,0,0,0,1.807-3.063,19.744,19.744,0,0,1,12.061,7.9c-2.231,2.346-5.131,6.086-7.346,3.565Z" transform="translate(-153.402 -118.561)" fill="#91dc5a" fill-rule="evenodd"/>
        <path id="Trazado_1048470" data-name="Trazado 1048470" d="M373.928,251.192c-3.432,2.606-.532,3.919-.554,7.536-.011,1.755-.086,4.428.483,6.071a19.666,19.666,0,0,0,6.767-19.426c-.056-.245-.115-.491-.175-.729-3.443,1.056-4.331,4.885-6.521,6.547Z" transform="translate(-326.639 -213.473)" fill="#91dc5a" fill-rule="evenodd"/>
        <path id="Trazado_1048471" data-name="Trazado 1048471" d="M94.5,169.087h-18.8v-6.778a3.188,3.188,0,0,1,2.264-3.041c1.1-.331-.056-2.045-.431-2.855-.335-.732,16.968-2.052,16.968,5.9Z" transform="translate(-68.98 -136.325)" fill="#295d76" fill-rule="evenodd"/>
        <path id="Trazado_1048472" data-name="Trazado 1048472" d="M40.614,344.143H37.9c-8.823,5.7-12.782,3.759-13.4,21.1H56.731c-.621-17.34-4.58-15.4-13.407-21.1Z" transform="translate(-24.5 -299.922)" fill="#fb4455" fill-rule="evenodd"/>
        <path id="Trazado_1048473" data-name="Trazado 1048473" d="M119.431,314.975h7.327v6.982a3.664,3.664,0,1,1-7.328,0Z" transform="translate(-106.979 -274.58)" fill="#e2aa73" fill-rule="evenodd"/>
        <path id="Trazado_1048474" data-name="Trazado 1048474" d="M71.082,233.821a2.685,2.685,0,1,1-3.658,1.011A2.685,2.685,0,0,1,71.082,233.821Zm15.7,0a2.685,2.685,0,1,1-3.662,1.011A2.685,2.685,0,0,1,86.779,233.821Z" transform="translate(-61.489 -203.765)" fill="#e2aa73" fill-rule="evenodd"/>
        <path id="Trazado_1048475" data-name="Trazado 1048475" d="M126.763,319.507a6.633,6.633,0,0,1-3.655,1.264h-.018a6.623,6.623,0,0,1-3.655-1.264v-4.532h7.327Z" transform="translate(-106.984 -274.58)" fill="#cb9968" fill-rule="evenodd"/>
        <path id="Trazado_1048476" data-name="Trazado 1048476" d="M88.081,205.143c-1.141,5.35-.851,7.425-.387,9.518.755,3.394,4.075,7.432,7.469,7.465,3.4-.033,6.715-4.071,7.473-7.465.465-2.093.751-4.168-.387-9.518-3.688.584-7.053.089-9.41-2.647A6.629,6.629,0,0,1,88.081,205.143Z" transform="translate(-79.05 -176.853)" fill="#fbbd80" fill-rule="evenodd"/>
        <path id="Trazado_1048477" data-name="Trazado 1048477" d="M235.915,6.991q8.5,1.651,6.8,10.142-8.5-1.651-6.8-10.142Z" transform="translate(-207.938 -6.991)" fill="#76b249" fill-rule="evenodd"/>
        <path id="Trazado_1048478" data-name="Trazado 1048478" d="M178.111,65.951Q184.7,57.87,192.737,64.5,186.151,72.591,178.111,65.951Z" transform="translate(-157.963 -54.362)" fill="#91dc5a" fill-rule="evenodd"/>
        <path id="Trazado_1048479" data-name="Trazado 1048479" d="M27.75,369.232c.513-14.3,3.294-15.489,9.2-18.656v-1.84c-8.157,4.978-11.853,3.8-12.451,20.5Z" transform="translate(-24.5 -303.912)" fill="#e23d4d" fill-rule="evenodd"/>
        <path id="Trazado_1048480" data-name="Trazado 1048480" d="M80.606,159.489c-.171-.376,4.22-.9,8.578-.279a16.931,16.931,0,0,1,5.023,1.428,5.969,5.969,0,0,0-3.246-3.156c-5.041-2.405-13.671-1.591-13.433-1.071.376.811,1.535,2.525.431,2.855a3.188,3.188,0,0,0-2.265,3.041v4.216a2.7,2.7,0,0,1,2.026-.454c.082-.457.178-.941.29-1.457.323-.06.625-.123.911-.19a3.188,3.188,0,0,1,2.115-2.078c1.1-.331-.06-2.045-.431-2.855Z" transform="translate(-68.98 -136.322)" fill="#25546a" fill-rule="evenodd"/>
        <path id="Trazado_1048481" data-name="Trazado 1048481" d="M194.624,138.891a19.558,19.558,0,0,1,10.529-6.179c.658-.145,1.32-.253,1.978-.331a19.739,19.739,0,0,0-15.046,4.6A6.987,6.987,0,0,1,194.624,138.891Z" transform="translate(-170.105 -115.825)" fill="#378bcb" fill-rule="evenodd"/>
        <path id="Trazado_1048482" data-name="Trazado 1048482" d="M177.988,337.294A19.673,19.673,0,0,1,176.3,333.8a9.645,9.645,0,0,1-1,.918v1.041c.956.584,1.852,1.082,2.684,1.535Z" transform="translate(-155.525 -290.936)" fill="#378bcb" fill-rule="evenodd"/>
        <path id="Trazado_1048483" data-name="Trazado 1048483" d="M178.947,66.6q5.783-6.391,12.674-1.647c.149.1.3.208.45.32.223-.245.446-.5.666-.774-.193-.156-.383-.309-.576-.457a11.81,11.81,0,0,0-5.008-2.409q-4.818-.87-9.042,4.313c.283.231.558.45.836.654Z" transform="translate(-157.963 -54.356)" fill="#83c651" fill-rule="evenodd"/>
        <path id="Trazado_1048484" data-name="Trazado 1048484" d="M238.827,14.751q-2.682-2.549-1.785-7.5c-.361-.1-.74-.186-1.134-.264q-.942,4.673,1.212,7.276a9.239,9.239,0,0,1,1.707.487Z" transform="translate(-207.931 -6.988)" fill="#6aa042" fill-rule="evenodd"/>
      </g>
      <path id="Trazado_1048485" data-name="Trazado 1048485" d="M53.182,57.6A20.783,20.783,0,0,0,61.16,56l.029-.012a20.414,20.414,0,0,0,4.958-2.974.9.9,0,0,0,.145-.118,20.572,20.572,0,0,0,3.775-27.668.913.913,0,0,0-.123-.173,20.713,20.713,0,0,0-12.474-8.169.912.912,0,0,0-.182-.037,20.46,20.46,0,0,0-8.483.061,20.684,20.684,0,0,0-8.547,4.1l-.179-.075a24.88,24.88,0,0,0-8.352-1.4,27.657,27.657,0,0,0-3.334.148c-1.52.174-1.853.405-2.065.627a.979.979,0,0,0-.188,1.088c.073.159.166.335.264.521a7.493,7.493,0,0,1,.52,1.145,4.118,4.118,0,0,0-2.7,3.845v3.79a3.6,3.6,0,0,0,1.59,6.112,17.921,17.921,0,0,0,.361,2.121,12.168,12.168,0,0,0,3.785,6.215v.083c-1.131.673-2.188,1.24-3.131,1.744-2.874,1.539-5.143,2.754-6.713,5.467-1.58,2.73-2.359,6.848-2.607,13.772a.918.918,0,0,0,.918.951H50.657a.918.918,0,0,0,.918-.951,55.811,55.811,0,0,0-.863-8.752,20.368,20.368,0,0,0,2.469.15Zm6.737-3.087a18.8,18.8,0,0,1-2.718.812,18.605,18.605,0,0,1-6.954.2,13.878,13.878,0,0,0-1.281-3.1,9.967,9.967,0,0,0-1.707-2.191c1.024-.818,1.359-.743,1.908-.62a4.675,4.675,0,0,0,2.762-.114,3.253,3.253,0,0,0,2.091-3.728,2.291,2.291,0,0,1,.915-2.325,2.023,2.023,0,0,1,2.247-.3,4.075,4.075,0,0,1,1.683,2.48,33.448,33.448,0,0,1,1.053,8.883Zm6.288-4.011a31.008,31.008,0,0,1-.131-3.887l0-.441a9.469,9.469,0,0,0-.726-3.466c-.549-1.507-.754-2.071.918-3.34a11.54,11.54,0,0,0,2.372-2.817,9.421,9.421,0,0,1,2.942-3.194A18.757,18.757,0,0,1,66.206,50.505Zm4.918-18.973a10.3,10.3,0,0,0-4,3.992,10.1,10.1,0,0,1-1.962,2.383C62.408,40,63.027,41.7,63.626,43.339a7.7,7.7,0,0,1,.616,2.827l0,.435a23.812,23.812,0,0,0,.352,5.3,18.592,18.592,0,0,1-2.835,1.8,34.236,34.236,0,0,0-1.141-8.618,5.674,5.674,0,0,0-2.569-3.544,3.855,3.855,0,0,0-4.25.483,4.121,4.121,0,0,0-1.551,4.236,1.446,1.446,0,0,1-.871,1.507,2.884,2.884,0,0,1-1.8.072c-1.055-.237-1.957-.284-3.755,1.225a33.951,33.951,0,0,0-3.563-2.089c-.942-.5-2-1.072-3.129-1.744v-.087a12.191,12.191,0,0,0,3.785-6.211,17.376,17.376,0,0,0,.356-2.121,3.611,3.611,0,0,0,2.256-1.713l.013-.024c.111,0,.217,0,.313,0a5.376,5.376,0,0,1,3.11,1.211,6.33,6.33,0,0,0,3.5,1.357,4.351,4.351,0,0,0,.443-.023c1.379-.14,2.365-.4,2.691-1.232.337-.854-.294-1.575-.851-2.211-.4-.452-.887-1.014-.892-1.43-.01-.866.53-1.236,1.566-1.87,1.157-.708,2.74-1.678,2.635-4.04a2.992,2.992,0,0,1,.374-1.034c.3.425.777,1.131,1.152,1.688.84,1.25,1.371,2.032,1.649,2.348a3.071,3.071,0,0,0,2.312,1.151c2.009.022,3.915-2.015,5.6-3.837a18.614,18.614,0,0,1,1.989,4.386Zm-27.863.243a1.734,1.734,0,0,1,.147.093l.007.005a1.764,1.764,0,0,1-.089,2.931,25.692,25.692,0,0,0-.312-3.145,1.768,1.768,0,0,1,.247.115Zm14.4-12.849.046-.1A18.872,18.872,0,0,1,68.063,25.6l-.227.245c-1.288,1.394-3.049,3.3-4.263,3.3h-.014a1.249,1.249,0,0,1-.956-.528c-.219-.249-.931-1.307-1.5-2.158-.366-.545-.746-1.109-1.038-1.527a6.5,6.5,0,0,0-.575-.754,1.208,1.208,0,0,0-1.322-.554c-1.178.289-1.986,2.48-1.949,3.285.055,1.222-.6,1.683-1.759,2.394-1.1.672-2.465,1.509-2.443,3.457a4.215,4.215,0,0,0,1.346,2.619c.071.081.157.179.237.275a7.971,7.971,0,0,1-.882.131,4.238,4.238,0,0,1-2.754-1.044,7.178,7.178,0,0,0-3.97-1.509,3.619,3.619,0,0,0-.13-.877,3.577,3.577,0,0,0-1-1.667V28.5a5.855,5.855,0,0,0,1.647-1.331c2.053-2.469,3.223-2.747,4.577-3.069a9.717,9.717,0,0,0,4.925-2.6,7.368,7.368,0,0,0,1.655-2.581ZM49.2,18.7a18.647,18.647,0,0,1,6.66-.242,5.112,5.112,0,0,1-1.079,1.684,7.946,7.946,0,0,1-4.12,2.173c-1.534.364-3.12.741-5.564,3.681a3.156,3.156,0,0,1-.268.282,5.824,5.824,0,0,0-2.785-4.332A18.863,18.863,0,0,1,49.2,18.7ZM25.747,34.8a1.761,1.761,0,0,1,.317-3.139,25.317,25.317,0,0,0-.317,3.139Zm.812-5.782c-.052.241-.1.474-.145.7a3.56,3.56,0,0,0-.354.047V26.9a2.269,2.269,0,0,1,1.612-2.159,1.522,1.522,0,0,0,.993-.866,2.928,2.928,0,0,0-.391-2.348c2.448-.339,9.262-.351,12.711,1.918A3.975,3.975,0,0,1,43.024,26.9v2.864c-.118-.021-.236-.037-.356-.046-.046-.228-.093-.459-.144-.7a.918.918,0,0,0-1.041-.716c-3.883.611-6.687-.156-8.572-2.343a.935.935,0,0,0-.711-.319.918.918,0,0,0-.7.343c-1.31,1.629-2.244,1.945-4.217,2.325a.918.918,0,0,0-.725.71Zm1.408,9.507c-.433-1.948-.687-3.833.266-8.535a7.079,7.079,0,0,0,4.012-2.078c2.122,1.977,4.969,2.74,8.654,2.322.894,4.53.641,6.38.217,8.289a10.423,10.423,0,0,1-3.445,5.433c-.022.016-.043.032-.064.05a5.2,5.2,0,0,1-3.068,1.265A5.174,5.174,0,0,1,31.5,44.033a.909.909,0,0,0-.126-.1A10.407,10.407,0,0,1,27.966,38.526Zm9.32,7.865V48.3a2.746,2.746,0,0,1-5.491,0V46.393a6.181,6.181,0,0,0,2.735.716h.018a6.18,6.18,0,0,0,2.738-.718ZM19.381,65.32c.556-12.58,2.881-13.824,8.313-16.734.7-.373,1.456-.78,2.264-1.239V48.3a4.582,4.582,0,0,0,9.165,0v-.952c.807.459,1.566.866,2.262,1.238,3.714,1.989,5.975,3.2,7.213,7.787a.914.914,0,0,0,.1.379,45.034,45.034,0,0,1,1,8.568Zm52.892-47.23a26.685,26.685,0,0,0-18-7.922c.734-5.525-1.91-9.026-7.7-10.148A.919.919,0,0,0,45.5.74a10.532,10.532,0,0,0,.4,6.419q-.236.009-.47.032c-2.679.264-5.226,1.859-7.572,4.739a.918.918,0,0,0,.127,1.288c2.579,2.128,5.113,3.2,7.547,3.2q.4,0,.806-.039c2.569-.254,5.018-1.733,7.283-4.395A25.034,25.034,0,0,1,53.2,62.052a.918.918,0,0,0,0,1.836,26.873,26.873,0,0,0,19.074-45.8ZM46.161,14.553a9.137,9.137,0,0,1-6.267-2.174,9.133,9.133,0,0,1,5.72-3.361,9.121,9.121,0,0,1,6.265,2.176A9.132,9.132,0,0,1,46.161,14.553Zm6.359-5.16a12.49,12.49,0,0,0-4.386-2.029,7.178,7.178,0,0,1-.988-5.336C51.158,3.065,52.891,5.436,52.52,9.393Z" transform="translate(0 0)"/>
    </g>
  </g>
</svg>
