<svg xmlns="http://www.w3.org/2000/svg" xmlns:xlink="http://www.w3.org/1999/xlink" width="505" height="400.187" viewBox="0 0 505 400.187">
  <defs>
    <clipPath id="clip-path">
      <rect id="Rectángulo_418741" data-name="Rectángulo 418741" width="505" height="400.187" transform="translate(915 9796.783)" fill="#193141" stroke="#707070" stroke-width="1" opacity="0.49"/>
    </clipPath>
    <filter id="Rectángulo_418723" x="105.247" y="2.527" width="294.506" height="401.039" filterUnits="userSpaceOnUse">
      <feOffset dy="3" input="SourceAlpha"/>
      <feGaussianBlur stdDeviation="3" result="blur"/>
      <feFlood flood-opacity="0.161"/>
      <feComposite operator="in" in2="blur"/>
      <feComposite in="SourceGraphic"/>
    </filter>
    <clipPath id="clip-path-2">
      <rect id="Rectángulo_419207" data-name="Rectángulo 419207" width="411.337" height="411.337" fill="none"/>
    </clipPath>
    <clipPath id="clip-path-4">
      <rect id="Rectángulo_419152" data-name="Rectángulo 419152" width="201.825" height="22.49" fill="none"/>
    </clipPath>
    <clipPath id="clip-path-5">
      <rect id="Rectángulo_419154" data-name="Rectángulo 419154" width="100.193" height="0.464" fill="none"/>
    </clipPath>
    <clipPath id="clip-path-6">
      <rect id="Rectángulo_419181" data-name="Rectángulo 419181" width="132.019" height="0.876" fill="none"/>
    </clipPath>
    <clipPath id="clip-path-7">
      <rect id="Rectángulo_419182" data-name="Rectángulo 419182" width="104.826" height="47.951" fill="none"/>
    </clipPath>
    <clipPath id="clip-path-8">
      <rect id="Rectángulo_419185" data-name="Rectángulo 419185" width="35.08" height="17.631" fill="none"/>
    </clipPath>
    <clipPath id="clip-path-9">
      <rect id="Rectángulo_419186" data-name="Rectángulo 419186" width="1.479" height="6.279" fill="none"/>
    </clipPath>
    <clipPath id="clip-path-10">
      <rect id="Rectángulo_419187" data-name="Rectángulo 419187" width="8.964" height="2.896" fill="none"/>
    </clipPath>
    <clipPath id="clip-path-11">
      <rect id="Rectángulo_419188" data-name="Rectángulo 419188" width="5.231" height="3.878" fill="none"/>
    </clipPath>
    <clipPath id="clip-path-12">
      <rect id="Rectángulo_419189" data-name="Rectángulo 419189" width="9.245" height="5.369" fill="none"/>
    </clipPath>
    <clipPath id="clip-path-13">
      <rect id="Rectángulo_419190" data-name="Rectángulo 419190" width="7.291" height="0.943" fill="none"/>
    </clipPath>
    <clipPath id="clip-path-14">
      <rect id="Rectángulo_419191" data-name="Rectángulo 419191" width="15.158" height="0.193" fill="none"/>
    </clipPath>
    <clipPath id="clip-path-17">
      <rect id="Rectángulo_419194" data-name="Rectángulo 419194" width="10.921" height="43.775" fill="none"/>
    </clipPath>
    <clipPath id="clip-path-18">
      <rect id="Rectángulo_419196" data-name="Rectángulo 419196" width="21.732" height="12.392" fill="none"/>
    </clipPath>
    <clipPath id="clip-path-19">
      <rect id="Rectángulo_419197" data-name="Rectángulo 419197" width="3.972" height="0.78" fill="none"/>
    </clipPath>
    <clipPath id="clip-path-20">
      <rect id="Rectángulo_419198" data-name="Rectángulo 419198" width="30.422" height="50.675" fill="none"/>
    </clipPath>
    <clipPath id="clip-path-21">
      <rect id="Rectángulo_419199" data-name="Rectángulo 419199" width="19.11" height="47.079" fill="none"/>
    </clipPath>
    <clipPath id="clip-path-22">
      <rect id="Rectángulo_419200" data-name="Rectángulo 419200" width="10.275" height="34.237" fill="none"/>
    </clipPath>
    <clipPath id="clip-path-23">
      <rect id="Rectángulo_419201" data-name="Rectángulo 419201" width="8.331" height="56.452" fill="none"/>
    </clipPath>
    <clipPath id="clip-path-24">
      <rect id="Rectángulo_419202" data-name="Rectángulo 419202" width="5.819" height="41.884" fill="none"/>
    </clipPath>
    <clipPath id="clip-path-25">
      <rect id="Rectángulo_419203" data-name="Rectángulo 419203" width="2.102" height="1.164" fill="none"/>
    </clipPath>
    <clipPath id="clip-path-26">
      <rect id="Rectángulo_419204" data-name="Rectángulo 419204" width="1.541" height="22.925" fill="none"/>
    </clipPath>
  </defs>
  <g id="Enmascarar_grupo_1098800" data-name="Enmascarar grupo 1098800" transform="translate(-915 -9796.783)" clip-path="url(#clip-path)">
    <g id="Grupo_1209211" data-name="Grupo 1209211" transform="translate(915 9924.595)">
      <g id="Grupo_1209210" data-name="Grupo 1209210" transform="translate(114.247 -119.52)">
        <g transform="matrix(1, 0, 0, 1, -114.25, -8.29)" filter="url(#Rectángulo_418723)">
          <rect id="Rectángulo_418723-2" data-name="Rectángulo 418723" width="276.506" height="383.039" rx="8" transform="translate(114.25 8.53)" fill="#65b3d1" opacity="0.39"/>
        </g>
      </g>
    </g>
    <g id="Grupo_1209774" data-name="Grupo 1209774" transform="translate(968.906 9797.051)">
      <g id="Grupo_1209773" data-name="Grupo 1209773" clip-path="url(#clip-path-2)">
        <g id="Grupo_1209772" data-name="Grupo 1209772">
          <g id="Grupo_1209771" data-name="Grupo 1209771" clip-path="url(#clip-path-2)">
            <path id="Trazado_1048694" data-name="Trazado 1048694" d="M390.366,483.362s37.393-69.01,14.711-137.591c-14.784-44.7-60.118-91.374-103.644-60.667-18.58,13.108-73.919-10.8-96.753-53.988C160.306,147.183,18.526,216.9,46.719,345.771c13.645,62.361-34.685,75.386-6.576,137.722Z" transform="translate(-16.119 -100.509)" fill="#ecf0fb"/>
            <path id="Trazado_1048695" data-name="Trazado 1048695" d="M595.191,209.956c13.051,6.008,20.445,26.426,14.438,39.478s-26.427,20.442-39.478,14.438-20.445-26.426-14.438-39.477,26.426-20.445,39.477-14.438m-1.33-31.46a59.26,59.26,0,0,0-15.8-.606L570.07,165.6l-22.746,8.408,1.92,14.531a59.206,59.206,0,0,0-11.607,10.737l-14.332-3.037-10.139,22.03,11.625,8.913a59.451,59.451,0,0,0-.6,15.8L511.9,250.976l8.409,22.746,14.531-1.917a59.353,59.353,0,0,0,10.733,11.6l-3.03,14.333,22.027,10.14,8.913-11.625a59.456,59.456,0,0,0,15.8.6l7.994,12.288,22.746-8.408-1.92-14.531a59.49,59.49,0,0,0,11.6-10.736l14.335,3.036,10.139-22.029-11.628-8.913a59.324,59.324,0,0,0,.6-15.8l12.285-7.993-8.408-22.746L632.5,202.943a59.324,59.324,0,0,0-10.732-11.6l3.033-14.334-22.027-10.14Z" transform="translate(-264.513 -85.571)" fill="#ecf0fb"/>
            <path id="Trazado_1048696" data-name="Trazado 1048696" d="M595.191,209.956c13.051,6.008,20.445,26.426,14.438,39.478s-26.427,20.442-39.478,14.438-20.445-26.426-14.438-39.477,26.426-20.445,39.477-14.438m-1.33-31.46a59.26,59.26,0,0,0-15.8-.606L570.07,165.6l-22.746,8.408,1.92,14.531a59.206,59.206,0,0,0-11.607,10.737l-14.332-3.037-10.139,22.03,11.625,8.913a59.451,59.451,0,0,0-.6,15.8L511.9,250.976l8.409,22.746,14.531-1.917a59.353,59.353,0,0,0,10.733,11.6l-3.03,14.333,22.027,10.14,8.913-11.625a59.456,59.456,0,0,0,15.8.6l7.994,12.288,22.746-8.408-1.92-14.531a59.49,59.49,0,0,0,11.6-10.736l14.335,3.036,10.139-22.029-11.628-8.913a59.324,59.324,0,0,0,.6-15.8l12.285-7.993-8.408-22.746L632.5,202.943a59.324,59.324,0,0,0-10.732-11.6l3.033-14.334-22.027-10.14Z" transform="translate(-264.513 -85.571)" fill="none" stroke="#d0d9eb" stroke-linejoin="round" stroke-width="13.836"/>
            <path id="Trazado_1048697" data-name="Trazado 1048697" d="M407.231,439.368H182.466a9.627,9.627,0,0,1-9.879-9.354V120.079a9.627,9.627,0,0,1,9.879-9.354H407.231a9.627,9.627,0,0,1,9.879,9.354V430.013a9.627,9.627,0,0,1-9.879,9.354" transform="translate(-89.18 -57.215)" fill="#c4d4f2"/>
            <path id="Trazado_1048698" data-name="Trazado 1048698" d="M418.625,132.657V440.524H196.074V132.682H418.052Z" transform="translate(-101.317 -68.548)" fill="#fff" fill-rule="evenodd"/>
            <path id="Trazado_1048699" data-name="Trazado 1048699" d="M418.625,132.657V440.524H196.074V132.682H418.052Z" transform="translate(-101.317 -68.548)" fill="none" stroke="#364049" stroke-linejoin="round" stroke-width="2.218"/>
            <g id="Grupo_1209704" data-name="Grupo 1209704" transform="translate(105.12 49.121)" opacity="0.15">
              <g id="Grupo_1209703" data-name="Grupo 1209703">
                <g id="Grupo_1209702" data-name="Grupo 1209702" clip-path="url(#clip-path-4)">
                  <path id="Trazado_1048700" data-name="Trazado 1048700" d="M217.517,101.643v21.032l201.825,1.459-3.212-22.49Z" transform="translate(-217.517 -101.643)"/>
                </g>
              </g>
            </g>
            <path id="Trazado_1048701" data-name="Trazado 1048701" d="M410.561,81.91H366.92l1.8-2.4c1.99-2.647-.092-6.243-3.615-6.243H268.543c-3.521,0-5.6,3.591-3.618,6.239l1.8,2.4H223.086a5.337,5.337,0,0,0-5.569,5.071v19.361H416.13V86.981a5.337,5.337,0,0,0-5.569-5.071" transform="translate(-112.397 -37.86)" fill="#3645b8"/>
            <g id="Grupo_1209707" data-name="Grupo 1209707" transform="translate(154.33 43.818)" opacity="0.15">
              <g id="Grupo_1209706" data-name="Grupo 1209706">
                <g id="Grupo_1209705" data-name="Grupo 1209705" clip-path="url(#clip-path-5)">
                  <rect id="Rectángulo_419153" data-name="Rectángulo 419153" width="100.193" height="0.464"/>
                </g>
              </g>
            </g>
            <rect id="Rectángulo_419155" data-name="Rectángulo 419155" width="193.248" height="3.2" transform="translate(109.046 133.697)" fill="#c4d4f2"/>
            <rect id="Rectángulo_419156" data-name="Rectángulo 419156" width="193.249" height="3.2" transform="translate(109.043 124.773)" fill="#c4d4f2"/>
            <rect id="Rectángulo_419157" data-name="Rectángulo 419157" width="130.489" height="3.2" transform="translate(109.045 142.621)" fill="#c4d4f2"/>
            <rect id="Rectángulo_419158" data-name="Rectángulo 419158" width="193.248" height="3.2" transform="translate(109.046 348.406)" fill="#c4d4f2"/>
            <rect id="Rectángulo_419159" data-name="Rectángulo 419159" width="193.249" height="3.2" transform="translate(109.043 339.007)" fill="#c4d4f2"/>
            <rect id="Rectángulo_419160" data-name="Rectángulo 419160" width="130.489" height="3.2" transform="translate(109.045 357.657)" fill="#c4d4f2"/>
            <path id="Trazado_1048702" data-name="Trazado 1048702" d="M247.6,344.058H227.809a3.68,3.68,0,0,1-3.68-3.681V319.066a3.68,3.68,0,0,1,3.68-3.68H247.6a3.681,3.681,0,0,1,3.681,3.68v21.311a3.68,3.68,0,0,1-3.681,3.681" transform="translate(-115.814 -162.969)" fill="#c4d4f2"/>
            <rect id="Rectángulo_419161" data-name="Rectángulo 419161" width="159.303" height="2.743" transform="translate(142.354 168.85)" fill="#c4d4f2"/>
            <rect id="Rectángulo_419162" data-name="Rectángulo 419162" width="67.988" height="2.743" transform="translate(142.353 176.779)" fill="#c4d4f2"/>
            <rect id="Rectángulo_419163" data-name="Rectángulo 419163" width="159.303" height="10.262" transform="translate(142.354 153.67)" fill="#c4d4f2"/>
            <path id="Trazado_1048703" data-name="Trazado 1048703" d="M247.661,421.709H227.747a3.617,3.617,0,0,1-3.617-3.617V396.654a3.617,3.617,0,0,1,3.617-3.617h19.914a3.617,3.617,0,0,1,3.617,3.617v21.438a3.617,3.617,0,0,1-3.617,3.617" transform="translate(-115.814 -203.093)" fill="#c4d4f2"/>
            <rect id="Rectángulo_419164" data-name="Rectángulo 419164" width="159.303" height="2.743" transform="translate(142.354 206.052)" fill="#c4d4f2"/>
            <rect id="Rectángulo_419165" data-name="Rectángulo 419165" width="96.448" height="2.743" transform="translate(142.353 213.982)" fill="#c4d4f2"/>
            <rect id="Rectángulo_419166" data-name="Rectángulo 419166" width="159.303" height="10.262" transform="translate(142.354 191.197)" fill="#c4d4f2"/>
            <path id="Trazado_1048704" data-name="Trazado 1048704" d="M247.528,499.36h-19.65a3.749,3.749,0,0,1-3.749-3.749V474.437a3.749,3.749,0,0,1,3.749-3.749h19.65a3.749,3.749,0,0,1,3.749,3.749v21.175a3.749,3.749,0,0,1-3.749,3.749" transform="translate(-115.814 -243.218)" fill="#c4d4f2"/>
            <rect id="Rectángulo_419167" data-name="Rectángulo 419167" width="159.303" height="2.743" transform="translate(142.354 243.059)" fill="#c4d4f2"/>
            <rect id="Rectángulo_419168" data-name="Rectángulo 419168" width="38.597" height="2.743" transform="translate(142.353 250.989)" fill="#c4d4f2"/>
            <rect id="Rectángulo_419169" data-name="Rectángulo 419169" width="159.303" height="10.262" transform="translate(142.354 228.723)" fill="#c4d4f2"/>
            <path id="Trazado_1048705" data-name="Trazado 1048705" d="M247.528,577.01h-19.65a3.749,3.749,0,0,1-3.749-3.749V552.087a3.749,3.749,0,0,1,3.749-3.749h19.65a3.749,3.749,0,0,1,3.749,3.749v21.175a3.749,3.749,0,0,1-3.749,3.749" transform="translate(-115.814 -283.341)" fill="#c4d4f2"/>
            <rect id="Rectángulo_419170" data-name="Rectángulo 419170" width="159.303" height="2.743" transform="translate(142.354 280.586)" fill="#c4d4f2"/>
            <rect id="Rectángulo_419171" data-name="Rectángulo 419171" width="38.597" height="2.743" transform="translate(142.353 288.516)" fill="#c4d4f2"/>
            <rect id="Rectángulo_419172" data-name="Rectángulo 419172" width="159.303" height="10.262" transform="translate(142.354 266.25)" fill="#c4d4f2"/>
            <path id="Trazado_1048706" data-name="Trazado 1048706" d="M247.528,654.661h-19.65a3.749,3.749,0,0,1-3.749-3.749V629.738a3.749,3.749,0,0,1,3.749-3.749h19.65a3.749,3.749,0,0,1,3.749,3.749v21.174a3.749,3.749,0,0,1-3.749,3.749" transform="translate(-115.814 -323.466)" fill="#c4d4f2"/>
            <rect id="Rectángulo_419173" data-name="Rectángulo 419173" width="159.303" height="2.743" transform="translate(142.354 318.112)" fill="#c4d4f2"/>
            <rect id="Rectángulo_419174" data-name="Rectángulo 419174" width="38.597" height="2.743" transform="translate(142.353 326.042)" fill="#c4d4f2"/>
            <rect id="Rectángulo_419175" data-name="Rectángulo 419175" width="159.303" height="10.262" transform="translate(142.354 303.776)" fill="#c4d4f2"/>
            <path id="Trazado_1048707" data-name="Trazado 1048707" d="M247.868,322.1l-9.419,13.671-6-4.8-2.925,3.605,9.467,8.607L251.7,324.74Z" transform="translate(-118.6 -166.439)" fill="#3645b8"/>
            <path id="Trazado_1048708" data-name="Trazado 1048708" d="M247.868,400.1l-9.419,13.671-6-4.8-2.925,3.605,9.467,8.607L251.7,402.733Z" transform="translate(-118.6 -206.741)" fill="#3645b8"/>
            <path id="Trazado_1048709" data-name="Trazado 1048709" d="M247.868,556.085l-9.419,13.671-6-4.8-2.925,3.605,9.467,8.607L251.7,558.723Z" transform="translate(-118.6 -287.345)" fill="#3645b8"/>
            <path id="Trazado_1048710" data-name="Trazado 1048710" d="M247.868,478.091l-9.419,13.671-6-4.8-2.925,3.605,9.467,8.607L251.7,480.729Z" transform="translate(-118.6 -247.043)" fill="#3645b8"/>
            <path id="Trazado_1048711" data-name="Trazado 1048711" d="M247.868,634.079l-9.419,13.671-6-4.8-2.925,3.605,9.467,8.607L251.7,636.717Z" transform="translate(-118.6 -327.646)" fill="#3645b8"/>
            <path id="Trazado_1048712" data-name="Trazado 1048712" d="M278.85,230.567l-2.951-4.231a5.113,5.113,0,0,1-.557.02h-3.261v4.21H269.4V216.121h5.943c3.8,0,6.15,1.94,6.15,5.139a4.618,4.618,0,0,1-3.075,4.561l3.323,4.747Zm-3.632-12.176h-3.137v5.758h3.137c2.353,0,3.57-1.073,3.57-2.889s-1.218-2.869-3.57-2.869" transform="translate(-139.205 -111.676)" fill="#3645b8"/>
            <path id="Trazado_1048713" data-name="Trazado 1048713" d="M311.447,228.318v2.25H300.612V216.121h10.545v2.249h-7.863v3.756h6.976v2.208h-6.976v3.983Z" transform="translate(-155.335 -111.676)" fill="#3645b8"/>
            <path id="Trazado_1048714" data-name="Trazado 1048714" d="M337.857,222.958H340.4v5.758a9.144,9.144,0,0,1-5.654,1.837c-4.479,0-7.78-3.117-7.78-7.429s3.3-7.429,7.821-7.429a7.462,7.462,0,0,1,5.8,2.353l-1.692,1.651a5.361,5.361,0,0,0-3.983-1.651,5.079,5.079,0,1,0-.021,10.154,5.837,5.837,0,0,0,2.972-.743Z" transform="translate(-168.95 -111.455)" fill="#3645b8"/>
            <path id="Trazado_1048715" data-name="Trazado 1048715" d="M361.805,224.272V216.12h2.683v8.049c0,2.972,1.342,4.251,3.674,4.251s3.653-1.279,3.653-4.251V216.12h2.642v8.152c0,4.21-2.373,6.5-6.315,6.5-3.962,0-6.336-2.291-6.336-6.5" transform="translate(-186.955 -111.675)" fill="#3645b8"/>
            <path id="Trazado_1048716" data-name="Trazado 1048716" d="M395.753,216.121h2.683V228.3h7.554v2.27H395.753Z" transform="translate(-204.497 -111.676)" fill="#3645b8"/>
            <path id="Trazado_1048717" data-name="Trazado 1048717" d="M428.731,227.223h-7.223l-1.424,3.343h-2.765l6.5-14.446h2.642l6.521,14.446h-2.806Zm-.887-2.105L425.12,218.8l-2.7,6.315Z" transform="translate(-215.64 -111.675)" fill="#3645b8"/>
            <path id="Trazado_1048718" data-name="Trazado 1048718" d="M452.98,218.391h-4.788v-2.27h12.259v2.27h-4.788v12.176H452.98Z" transform="translate(-231.593 -111.676)" fill="#3645b8"/>
            <rect id="Rectángulo_419176" data-name="Rectángulo 419176" width="2.683" height="14.446" transform="translate(230.88 104.445)" fill="#3645b8"/>
            <path id="Trazado_1048719" data-name="Trazado 1048719" d="M489.228,223.123c0-4.272,3.3-7.429,7.78-7.429s7.78,3.137,7.78,7.429-3.3,7.429-7.78,7.429-7.78-3.157-7.78-7.429m12.857,0a5.077,5.077,0,1,0-5.077,5.077,4.923,4.923,0,0,0,5.077-5.077" transform="translate(-252.798 -111.455)" fill="#3645b8"/>
            <path id="Trazado_1048720" data-name="Trazado 1048720" d="M540.155,216.121v14.446h-2.208l-7.966-9.782v9.782h-2.662V216.121h2.208l7.966,9.782v-9.782Z" transform="translate(-272.48 -111.676)" fill="#3645b8"/>
            <path id="Trazado_1048721" data-name="Trazado 1048721" d="M559.388,228.819l.929-2.084a8,8,0,0,0,4.766,1.589c2.25,0,3.2-.8,3.2-1.878,0-3.116-8.584-1.073-8.584-6.439,0-2.332,1.857-4.313,5.819-4.313a9.133,9.133,0,0,1,4.809,1.28l-.847,2.084a8.022,8.022,0,0,0-3.983-1.135c-2.229,0-3.137.867-3.137,1.961,0,3.075,8.565,1.073,8.565,6.377,0,2.311-1.878,4.292-5.84,4.292a9.308,9.308,0,0,1-5.7-1.733" transform="translate(-289.051 -111.455)" fill="#3645b8"/>
            <path id="Trazado_1048722" data-name="Trazado 1048722" d="M316.191,185.7l1.706-3.831a11.582,11.582,0,0,0,6.061,1.81c2.152,0,2.991-.6,2.991-1.5,0-2.913-10.444-.787-10.444-7.61,0-3.279,2.677-5.956,8.134-5.956a13.761,13.761,0,0,1,6.665,1.6l-1.6,3.857a10.852,10.852,0,0,0-5.091-1.417c-2.178,0-2.965.735-2.965,1.653,0,2.808,10.417.708,10.417,7.478,0,3.2-2.676,5.93-8.134,5.93a14.468,14.468,0,0,1-7.741-2.021" transform="translate(-163.385 -87.131)" fill="#3645b8"/>
            <path id="Trazado_1048723" data-name="Trazado 1048723" d="M363.929,184.181h-7.767l-1.443,3.568h-5.3l8.108-18.367h5.117l8.134,18.367h-5.405Zm-1.522-3.831-2.361-5.878-2.362,5.878Z" transform="translate(-180.554 -87.524)" fill="#3645b8"/>
            <path id="Trazado_1048724" data-name="Trazado 1048724" d="M401.851,173.4v4.041h8.108v4.015h-8.108v6.3h-5.2V169.382h14.405V173.4Z" transform="translate(-204.963 -87.524)" fill="#3645b8"/>
            <path id="Trazado_1048725" data-name="Trazado 1048725" d="M446.259,183.734v4.015H431.513V169.382h14.4V173.4h-9.262v3.1h8.161v3.883h-8.161v3.359Z" transform="translate(-222.975 -87.524)" fill="#3645b8"/>
            <path id="Trazado_1048726" data-name="Trazado 1048726" d="M470.057,173.5h-5.641v-4.119h16.452V173.5h-5.615v14.248h-5.2Z" transform="translate(-239.976 -87.524)" fill="#3645b8"/>
            <path id="Trazado_1048727" data-name="Trazado 1048727" d="M508.868,181.163v6.586h-5.2v-6.665l-7.006-11.7h5.484l4.355,7.294,4.356-7.294H515.9Z" transform="translate(-256.642 -87.524)" fill="#3645b8"/>
            <rect id="Rectángulo_419177" data-name="Rectángulo 419177" width="5.475" height="16.537" transform="translate(126.588 290.062)" fill="#6464bc"/>
            <rect id="Rectángulo_419178" data-name="Rectángulo 419178" width="5.475" height="16.537" transform="translate(168.842 290.062)" fill="#6464bc"/>
            <path id="Trazado_1048728" data-name="Trazado 1048728" d="M282.261,592.007l-14.952,0s0,.79,0,1.366a.59.59,0,0,1-.591.591h-5.2a.59.59,0,0,1-.591-.591v-5.251a1.852,1.852,0,0,1,1.852-1.852h44.981a1.852,1.852,0,0,1,1.852,1.852v5.251a.59.59,0,0,1-.59.591h-5.2a.6.6,0,0,1-.418-.173.587.587,0,0,1-.172-.418c0-.576,0-1.366,0-1.366l-20.83,0Z" transform="translate(-134.829 -302.943)" fill="#29295f" fill-rule="evenodd"/>
            <path id="Rectángulo_419179" data-name="Rectángulo 419179" d="M5.972,0H126.046a5.973,5.973,0,0,1,5.973,5.973v70.3a5.972,5.972,0,0,1-5.972,5.972H5.972A5.972,5.972,0,0,1,0,76.272V5.972A5.972,5.972,0,0,1,5.972,0Z" transform="translate(84.432 299.909)" fill="#fdb11f"/>
            <path id="Trazado_1048729" data-name="Trazado 1048729" d="M286.238,642.121v12.337H273.9v11.471h12.337v12.337H297.71V665.929h12.337V654.458H297.71V642.121Z" transform="translate(-141.532 -331.802)" fill="#f6eede"/>
            <g id="Grupo_1209710" data-name="Grupo 1209710" transform="translate(84.432 355.185)" opacity="0.15">
              <g id="Grupo_1209709" data-name="Grupo 1209709">
                <g id="Grupo_1209708" data-name="Grupo 1209708" clip-path="url(#clip-path-6)">
                  <rect id="Rectángulo_419180" data-name="Rectángulo 419180" width="132.019" height="0.876"/>
                </g>
              </g>
            </g>
            <path id="Trazado_1048730" data-name="Trazado 1048730" d="M306.728,736.77v23.206a2.882,2.882,0,0,1-2.885,2.886H177.6a2.885,2.885,0,0,1-2.886-2.886V736.77Z" transform="translate(-90.277 -380.709)" fill="#d7971a" fill-rule="evenodd"/>
            <g id="Grupo_1209713" data-name="Grupo 1209713" transform="translate(111.626 334.201)" opacity="0.15">
              <g id="Grupo_1209712" data-name="Grupo 1209712">
                <g id="Grupo_1209711" data-name="Grupo 1209711" clip-path="url(#clip-path-7)">
                  <path id="Trazado_1048731" data-name="Trazado 1048731" d="M230.979,739.489c35.89,0,104.826-4.268,104.826-47.951V736.6a2.885,2.885,0,0,1-2.886,2.887Z" transform="translate(-230.979 -691.538)" fill-rule="evenodd"/>
                </g>
              </g>
            </g>
            <rect id="Rectángulo_419183" data-name="Rectángulo 419183" width="11.543" height="50.075" transform="translate(102.909 299.909)" fill="#29295f"/>
            <path id="Trazado_1048732" data-name="Trazado 1048732" d="M224.206,723.334v11.279a.806.806,0,0,1-.805.806H208.335a.806.806,0,0,1-.806-.806V723.334a.805.805,0,0,1,.806-.806H223.4a.805.805,0,0,1,.805.806m-1.611.806H209.14v9.667H222.6Z" transform="translate(-107.236 -373.35)" fill="#181949" fill-rule="evenodd"/>
            <rect id="Rectángulo_419184" data-name="Rectángulo 419184" width="11.543" height="50.075" transform="translate(186.529 299.909)" fill="#29295f"/>
            <path id="Trazado_1048733" data-name="Trazado 1048733" d="M397.236,723.334v11.279a.806.806,0,0,1-.806.806H381.364a.806.806,0,0,1-.806-.806V723.334a.805.805,0,0,1,.806-.806H396.43a.805.805,0,0,1,.806.806m-1.611.806H382.169v9.667h13.455Z" transform="translate(-196.645 -373.35)" fill="#181949" fill-rule="evenodd"/>
            <path id="Trazado_1048734" data-name="Trazado 1048734" d="M116.065,253.215s14.378,10.057,19.155,7.028,3.894-3.787,3.894-3.787-6.541-1.424-6.936-2.707a19.025,19.025,0,0,1-.23-3.494c-.029-2.573.055-5.555.055-5.555l-15.109-7.861s.029.356.071.947v0a40.3,40.3,0,0,1,.089,6.92c-.312,3.511-.99,8.507-.99,8.507" transform="translate(-59.974 -122.381)" fill="#fbc0a4"/>
            <path id="Trazado_1048735" data-name="Trazado 1048735" d="M117.781,236.838s.029.356.071.948v0c2.692,9.8,10.028,11.326,11.635,11.448a10.357,10.357,0,0,1,3.347,1.019c-.029-2.574.055-5.555.055-5.555Z" transform="translate(-60.861 -122.381)" fill="#f69d7d"/>
            <path id="Trazado_1048736" data-name="Trazado 1048736" d="M116.137,205.473c.289-8.326,5.654-19.461,12.7-19.671s9.884.8,10.37,9.114c.853,14.6-.1,17.363-2.091,21.242a9.955,9.955,0,0,1-6.82,4.74c-8.553.255-14.444-7.318-14.163-15.425" transform="translate(-60.006 -95.997)" fill="#fbc0a4"/>
            <path id="Trazado_1048737" data-name="Trazado 1048737" d="M108.45,227.492a1.836,1.836,0,0,0,2.5.3c.808-1.807-.349-4.806-.349-4.806,0-1.634-1.331-3.98-3.509-3.142a3.571,3.571,0,0,0-.645.329c-2.556,1.62.216,5.637,2,7.321" transform="translate(-54.47 -113.508)" fill="#fbc0a4"/>
            <path id="Trazado_1048738" data-name="Trazado 1048738" d="M108.266,223.807a3.28,3.28,0,0,0,1.087,2.618,3.749,3.749,0,0,0,1.214,1.084c.266.142.5.144.6-.14s-.121-.548-.293-.782-.708-.664-.482-.847c.1-.086.337-.3.293-.517-.058-.289-.08-.466-.135-.755a3.117,3.117,0,0,0-.364-.983,1.109,1.109,0,0,0-.97-.6,1.274,1.274,0,0,0-.953.923" transform="translate(-55.928 -115.168)" fill="#f69d7d"/>
            <path id="Trazado_1048739" data-name="Trazado 1048739" d="M104.7,191.213c0,.122.012.255.023.4a18.039,18.039,0,0,0,.446,2.71,52.005,52.005,0,0,1,1.55,10.324c2.178-.838,3.509,1.508,3.509,3.142,0,0,.482-6.306,3.794-8.245a12.93,12.93,0,0,0-.066-2.232,4.144,4.144,0,0,1-.025-.735c0-.1.008-.206.015-.316.068-1.146.291-2.639.291-2.639l-9.5-3.361a4.548,4.548,0,0,0-.034.95" transform="translate(-54.099 -98.314)" fill="#0a0933"/>
            <path id="Trazado_1048740" data-name="Trazado 1048740" d="M103.505,177.855a.81.81,0,0,0,.4.8,6.015,6.015,0,0,1,.8.548c1.822,1.473,4.5,4.289,8.625,4.608,0,0,.774.02,1.993-.061.71-.046,1.573-.128,2.519-.268,2.979-.441,9.858,1.643,14.066.389l.049-.015c.409-.123.8-.253,1.182-.394,3.5-1.3,5.685-3.454,5.419-8.277,0,0-.2,2.442-1.432,3.427a7.68,7.68,0,0,0,.332-4.651h0a3.8,3.8,0,0,0-.688-1.253C134.9,170.456,135,169.37,135,169.37a3.739,3.739,0,0,0-.923,2.561c-.066-.53-.458-1.961-2.678-3.673-2.819-2.174-3.182-2.208-4.441-2.035,0,0,.343,2.427-1.012,2.423s-1.026-1.1-3.277-.85c-1.729.191-5.29-.311-8.406.106a10.309,10.309,0,0,0-2.634.674c-3.028,1.285-7.1,5.162-7.979,8.536a5.355,5.355,0,0,0-.143.743" transform="translate(-53.481 -85.859)" fill="#0a0933"/>
            <path id="Trazado_1048741" data-name="Trazado 1048741" d="M161.5,200.95a1.044,1.044,0,0,1,.4.445,12.606,12.606,0,0,1,.771,1.68,10.615,10.615,0,0,0,.41-2.074c.056-.524.068-.893.068-.893s-2.072.7-1.645.842" transform="translate(-83.423 -103.401)" fill="#0a0933"/>
            <g id="Grupo_1209716" data-name="Grupo 1209716" transform="translate(50.019 82.043)" opacity="0.15">
              <g id="Grupo_1209715" data-name="Grupo 1209715">
                <g id="Grupo_1209714" data-name="Grupo 1209714" clip-path="url(#clip-path-8)">
                  <path id="Trazado_1048742" data-name="Trazado 1048742" d="M103.505,179.718a.81.81,0,0,0,.4.8,6.021,6.021,0,0,1,.8.548c1.822,1.474,4.5,4.289,8.625,4.608,0,0,.774.02,1.993-.06.71-.046,1.573-.128,2.519-.269,2.979-.441,9.858,1.644,14.066.389l.049-.015a12.55,12.55,0,0,1,.772,1.68,10.648,10.648,0,0,0,.41-2.074c3.5-1.3,5.685-3.454,5.419-8.277,0,0-.2,2.442-1.432,3.427a7.68,7.68,0,0,0,.332-4.651h0s.314,5.077-6.037,6.623c0,0,1.965-.922,2.3-2.123-.05.064-1.675,2.153-6.331,2.8,0,0,7.372-4.4,6.7-9.1,0,0-1.068,5.543-7.906,8.564.05-.038,1.649-1.231,1.649-1.9a4.491,4.491,0,0,1-4.465,1.284s3.99-2.079,5.067-3.886c0,0-4.886,3.716-8.691,3.707a32.632,32.632,0,0,1-9.153-.8s7.038-1.176,9.264-3.772c0,0-2.916,2.2-8.623,1.841,0,0,10.971-4.162,12.816-8.528-.148.291-2.268,4.078-13.7,6.415-9.384,1.918-1.865-4.359,3.917-7.179a10.311,10.311,0,0,0-2.634.674c-3.028,1.285-7.1,5.162-7.979,8.536a5.355,5.355,0,0,0-.143.743" transform="translate(-103.5 -169.765)"/>
                </g>
              </g>
            </g>
            <g id="Grupo_1209719" data-name="Grupo 1209719" transform="translate(75.852 82.583)" opacity="0.3">
              <g id="Grupo_1209718" data-name="Grupo 1209718">
                <g id="Grupo_1209717" data-name="Grupo 1209717" clip-path="url(#clip-path-9)">
                  <path id="Trazado_1048743" data-name="Trazado 1048743" d="M156.954,177.161s2.051-3.639.944-6.279c0,0,1.692,2.273-.944,6.279" transform="translate(-156.954 -170.882)"/>
                </g>
              </g>
            </g>
            <g id="Grupo_1209722" data-name="Grupo 1209722" transform="translate(63.241 90.677)" opacity="0.3">
              <g id="Grupo_1209721" data-name="Grupo 1209721">
                <g id="Grupo_1209720" data-name="Grupo 1209720" clip-path="url(#clip-path-10)">
                  <path id="Trazado_1048744" data-name="Trazado 1048744" d="M139.823,187.631s-3.061,2.847-8.964,2.817a11.523,11.523,0,0,0,8.964-2.817" transform="translate(-130.859 -187.631)"/>
                </g>
              </g>
            </g>
            <g id="Grupo_1209725" data-name="Grupo 1209725" transform="translate(63.221 88.959)" opacity="0.3">
              <g id="Grupo_1209724" data-name="Grupo 1209724">
                <g id="Grupo_1209723" data-name="Grupo 1209723" clip-path="url(#clip-path-11)">
                  <path id="Trazado_1048745" data-name="Trazado 1048745" d="M136.049,184.076s-.9,2.926-5.231,3.878c0,0,4.019-.387,5.231-3.878" transform="translate(-130.818 -184.076)"/>
                </g>
              </g>
            </g>
            <g id="Grupo_1209728" data-name="Grupo 1209728" transform="translate(50.602 92.898)" opacity="0.15">
              <g id="Grupo_1209727" data-name="Grupo 1209727">
                <g id="Grupo_1209726" data-name="Grupo 1209726" clip-path="url(#clip-path-12)">
                  <path id="Trazado_1048746" data-name="Trazado 1048746" d="M104.708,192.228c0,.122.012.255.023.4a34.536,34.536,0,0,0,4.34,3.324c3.042,1.788,4.868,1.64,4.868,1.64,0-.1.008-.206.015-.316-4.124-.318-6.8-3.134-8.625-4.608a6.133,6.133,0,0,0-.621-.443" transform="translate(-104.708 -192.228)"/>
                </g>
              </g>
            </g>
            <path id="Trazado_1048747" data-name="Trazado 1048747" d="M136.173,243.066c.121-.126.532.019,1.146.193a7.989,7.989,0,0,0,4.757.015c.613-.17,1.024-.313,1.145-.186.057.06.031.181-.085.345a2.412,2.412,0,0,1-.626.566,4.539,4.539,0,0,1-1.18.548,5.526,5.526,0,0,1-3.262-.01,4.586,4.586,0,0,1-1.183-.555,2.45,2.45,0,0,1-.627-.57c-.116-.164-.143-.285-.086-.346" transform="translate(-70.35 -125.574)" fill="#0a0933"/>
            <path id="Trazado_1048748" data-name="Trazado 1048748" d="M126.36,216.53c.022-.025.045-.046.068-.068a4.416,4.416,0,0,1,4.275-1.268.587.587,0,0,1,.39.26,2.3,2.3,0,0,1,.275,1.312,5.174,5.174,0,0,0-5.165.379.4.4,0,0,1,.008-.362.669.669,0,0,1,.149-.253" transform="translate(-65.193 -111.125)" fill="#0a0933"/>
            <path id="Trazado_1048749" data-name="Trazado 1048749" d="M155.743,216.22c-.024-.023-.048-.044-.072-.065a4.414,4.414,0,0,0-4.336-1.035.582.582,0,0,0-.376.28,2.306,2.306,0,0,0-.2,1.325,5.173,5.173,0,0,1,5.178.1.4.4,0,0,0-.028-.361.655.655,0,0,0-.162-.245" transform="translate(-77.895 -111.054)" fill="#0a0933"/>
            <path id="Trazado_1048750" data-name="Trazado 1048750" d="M132.8,222.322a1.255,1.255,0,1,1-1.2-1.516,1.38,1.38,0,0,1,1.2,1.516" transform="translate(-67.347 -114.097)" fill="#0a0933"/>
            <path id="Trazado_1048751" data-name="Trazado 1048751" d="M155.614,222.055a1.255,1.255,0,1,1-1.2-1.516,1.38,1.38,0,0,1,1.2,1.516" transform="translate(-79.136 -113.959)" fill="#0a0933"/>
            <path id="Trazado_1048752" data-name="Trazado 1048752" d="M143.725,223.23a.626.626,0,0,0-.022-.3c-.076-.23-.243-.555-.468.083a17.5,17.5,0,0,0,.218,5.593.627.627,0,0,1-.342.742l-.5.224a.6.6,0,0,0-.334.362c-.056.185,0,.393.514.408.938.028,2.047-.908,1.7-1.777a10.82,10.82,0,0,1-.768-5.34" transform="translate(-73.511 -115.046)" fill="#f69d7d"/>
            <path id="Trazado_1048753" data-name="Trazado 1048753" d="M152.965,751.48a57.321,57.321,0,0,0,0,8.351c.376,3.01-10.984,3.085-10.984,3.085V751.48Z" transform="translate(-73.365 -388.311)" fill="#fbc0a4"/>
            <path id="Trazado_1048754" data-name="Trazado 1048754" d="M140.746,768.339l.138,8.965.013.308a.623.623,0,0,0,.623.635h5.722a.766.766,0,0,0,.728-.426l.145-.373a.7.7,0,0,1,.059-.144.622.622,0,0,1,.826-.245c.934.48,2.826.63,5.563.995a21.874,21.874,0,0,0,2.933.193h11.653a1.943,1.943,0,0,0,.572-.193c.584-.3,1.245-1.048.038-2.828-1.365-2.014-13.367.06-16.346-8.91,0,0-.61-1.258-1.51,0-.844,1.181-8.436,2.007-10.764,1.675a.346.346,0,0,0-.395.347" transform="translate(-72.727 -395.688)" fill="#29295f"/>
            <g id="Grupo_1209731" data-name="Grupo 1209731" transform="translate(68.157 381.615)" opacity="0.35">
              <g id="Grupo_1209730" data-name="Grupo 1209730">
                <g id="Grupo_1209729" data-name="Grupo 1209729" clip-path="url(#clip-path-13)">
                  <path id="Trazado_1048755" data-name="Trazado 1048755" d="M141.032,789.649l.013.308a.623.623,0,0,0,.623.635h5.722a.766.766,0,0,0,.728-.426l.145-.374a.7.7,0,0,1,.059-.143Z" transform="translate(-141.032 -789.649)"/>
                </g>
              </g>
            </g>
            <g id="Grupo_1209734" data-name="Grupo 1209734" transform="translate(81.838 382.365)" opacity="0.35">
              <g id="Grupo_1209733" data-name="Grupo 1209733">
                <g id="Grupo_1209732" data-name="Grupo 1209732" clip-path="url(#clip-path-14)">
                  <path id="Trazado_1048756" data-name="Trazado 1048756" d="M169.341,791.2a21.968,21.968,0,0,0,2.933.192h11.652a1.949,1.949,0,0,0,.573-.192Z" transform="translate(-169.341 -791.201)"/>
                </g>
              </g>
            </g>
            <path id="Trazado_1048757" data-name="Trazado 1048757" d="M88.72,751.48a57.32,57.32,0,0,0,0,8.351c.376,3.01-10.984,3.085-10.984,3.085V751.48Z" transform="translate(-40.168 -388.311)" fill="#fbc0a4"/>
            <path id="Trazado_1048758" data-name="Trazado 1048758" d="M76.5,768.339l.138,8.965.013.308a.623.623,0,0,0,.624.635H83a.767.767,0,0,0,.728-.426l.145-.373a.727.727,0,0,1,.059-.144.623.623,0,0,1,.826-.245c.934.48,2.826.63,5.563.995a21.874,21.874,0,0,0,2.933.193h11.653a1.938,1.938,0,0,0,.572-.193c.584-.3,1.245-1.048.038-2.828-1.365-2.014-13.366.06-16.346-8.91,0,0-.61-1.258-1.51,0-.844,1.181-8.436,2.007-10.764,1.675a.345.345,0,0,0-.394.347" transform="translate(-39.53 -395.688)" fill="#29295f"/>
            <g id="Grupo_1209737" data-name="Grupo 1209737" transform="translate(37.109 381.615)" opacity="0.35">
              <g id="Grupo_1209736" data-name="Grupo 1209736">
                <g id="Grupo_1209735" data-name="Grupo 1209735" clip-path="url(#clip-path-13)">
                  <path id="Trazado_1048759" data-name="Trazado 1048759" d="M76.786,789.649l.013.308a.623.623,0,0,0,.623.635h5.722a.766.766,0,0,0,.728-.426l.145-.374a.7.7,0,0,1,.059-.143Z" transform="translate(-76.786 -789.649)"/>
                </g>
              </g>
            </g>
            <g id="Grupo_1209740" data-name="Grupo 1209740" transform="translate(50.79 382.365)" opacity="0.35">
              <g id="Grupo_1209739" data-name="Grupo 1209739">
                <g id="Grupo_1209738" data-name="Grupo 1209738" clip-path="url(#clip-path-14)">
                  <path id="Trazado_1048760" data-name="Trazado 1048760" d="M105.1,791.2a21.969,21.969,0,0,0,2.933.192h11.652a1.949,1.949,0,0,0,.573-.192Z" transform="translate(-105.095 -791.201)"/>
                </g>
              </g>
            </g>
            <path id="Trazado_1048761" data-name="Trazado 1048761" d="M76.569,578.857a.571.571,0,0,0,.571.582H89.848a.566.566,0,0,0,.564-.481c.578-3.783,4.424-29.206,7.7-55.86a405.653,405.653,0,0,1,7.182-41.342c.97-4.173,1.6-6.444,1.6-6.444a65.914,65.914,0,0,1,2.427,12.421l0,0a173.5,173.5,0,0,1,.683,28.473c-.626,8.654-2.328,56.755-2.536,62.64a.57.57,0,0,0,.571.591h12.4A.569.569,0,0,0,121,579c2.178-9.432,16.795-64.275,14.692-83.416-1.694-15.423-4.586-41.568-5.716-51.76-.043-.386-.082-.746-.118-1.084-.224-2.009-.352-3.164-.352-3.164l-1.717-28.937-5.89-.457-.546-.041-13.9-1.078-.091-.007L83.3,407.193l-6.4,27.448s.1,3.187.233,8.159q.017.555.032,1.142c.242,9,.585,22.981.722,34.815.212,18.274-1.183,92.773-1.322,100.1" transform="translate(-39.565 -210.408)" fill="#29295f"/>
            <g id="Grupo_1209743" data-name="Grupo 1209743" transform="translate(65.733 233.552)" opacity="0.15">
              <g id="Grupo_1209742" data-name="Grupo 1209742">
                <g id="Grupo_1209741" data-name="Grupo 1209741" clip-path="url(#clip-path-17)">
                  <path id="Trazado_1048762" data-name="Trazado 1048762" d="M136.016,521.068c.97-4.173,1.6-6.444,1.6-6.444a65.943,65.943,0,0,1,2.426,12.421l0,0s-.776-13.4.468-23.047.689-13.79,2-15.45c1.294-1.632,4.33-5.168,4.424-5.278-.135.1-5.191,3.751-5.908,5.693-.726,1.97-5.013,32.1-5.013,32.1" transform="translate(-136.016 -483.272)"/>
                </g>
              </g>
            </g>
            <path id="Trazado_1048763" data-name="Trazado 1048763" d="M112.693,290l4.723,55.538s26.775.18,28.1-.361-4.572-66.308-7.22-72.926a31.478,31.478,0,0,0-5.807-9.275l-.135-.148c-.671-.726-1.1-1.107-1.1-1.107s-.963-1.265-1.924-1.265a3.561,3.561,0,0,1-2.021,2.4c-.05.016-.1.029-.158.041-.036.009-.073.016-.109.023l-.075-.029-.048-.018c-1.292-.518-12.286-5.059-12.512-9.759,0,0-2.947,2.885-3.429,4.81v0a2.922,2.922,0,0,0-.052.5c-.212,4.394,1.767,31.569,1.767,31.569" transform="translate(-57.31 -130.795)" fill="#f6eede"/>
            <rect id="Rectángulo_419195" data-name="Rectángulo 419195" width="22.547" height="6.287" transform="translate(65.217 214.347)" fill="#0a0933"/>
            <path id="Trazado_1048764" data-name="Trazado 1048764" d="M152.251,449.727h7.355a1.329,1.329,0,0,0,1.329-1.329v-4.6a1.329,1.329,0,0,0-1.329-1.329h-7.355a1.329,1.329,0,0,0-1.329,1.329v4.6a1.329,1.329,0,0,0,1.329,1.329" transform="translate(-77.986 -228.634)" fill="#fff"/>
            <g id="Grupo_1209746" data-name="Grupo 1209746" transform="translate(53.615 127.139)" opacity="0.15">
              <g id="Grupo_1209745" data-name="Grupo 1209745">
                <g id="Grupo_1209744" data-name="Grupo 1209744" clip-path="url(#clip-path-18)">
                  <path id="Trazado_1048765" data-name="Trazado 1048765" d="M110.995,263.079a52.885,52.885,0,0,0,2.477,5.808,29.411,29.411,0,0,0,1.687,2.952,11.465,11.465,0,0,0,2.184,2.554,3.581,3.581,0,0,0,1.445.749,2.074,2.074,0,0,0,.795.014c.132-.025.267-.064.4-.094s.264-.086.4-.128a8.481,8.481,0,0,0,2.8-1.813c.116-.109.233-.219.347-.333a18.345,18.345,0,0,0,1.872-2.222,23.023,23.023,0,0,0,1.539-2.445c.007-.011.011-.023.018-.034s-.016-.041-.023-.062l.048.018.075.03c.037-.007.073-.014.11-.023.055-.012.107-.025.158-.041-.032.062-.064.123-.1.183q.186.425.384.847c.265.562.543,1.116.856,1.653a10.121,10.121,0,0,0,1.046,1.516,3.929,3.929,0,0,0,.484.475c.057.046.116.089.178.131a1.175,1.175,0,0,0,.787.235,1.266,1.266,0,0,0,.715-.413,2.3,2.3,0,0,0,.468-.749,5.5,5.5,0,0,0,.329-1.794,12.078,12.078,0,0,0-.077-1.858c-.009-.085-.018-.171-.03-.256l.135.148a11.8,11.8,0,0,1,.171,1.97,5.461,5.461,0,0,1-.3,1.879,2.646,2.646,0,0,1-.5.842,2.1,2.1,0,0,1-.383.322,1.2,1.2,0,0,1-.491.183,1.449,1.449,0,0,1-.975-.276,3.789,3.789,0,0,1-.722-.651,9.277,9.277,0,0,1-1.07-1.568,19.965,19.965,0,0,1-1.137-2.392,23.093,23.093,0,0,1-1.463,2.3,18.026,18.026,0,0,1-1.959,2.312c-.1.1-.2.192-.3.286a8.779,8.779,0,0,1-2.9,1.872c-.137.044-.276.091-.416.132s-.283.073-.429.1a2.311,2.311,0,0,1-.9-.02,3.811,3.811,0,0,1-1.559-.809,11.677,11.677,0,0,1-2.233-2.625A29.87,29.87,0,0,1,113.25,269a53.11,53.11,0,0,1-2.308-5.415,2.919,2.919,0,0,1,.053-.5" transform="translate(-110.942 -263.079)"/>
                </g>
              </g>
            </g>
            <path id="Trazado_1048766" data-name="Trazado 1048766" d="M137.286,278.772l1.968,2.425,3.8-.621.584-1.8a3.793,3.793,0,0,1-.722-.65,9.319,9.319,0,0,1-1.07-1.568,19.941,19.941,0,0,1-1.137-2.393,23.045,23.045,0,0,1-1.463,2.3,18.029,18.029,0,0,1-1.959,2.312" transform="translate(-70.939 -141.667)" fill="#fdb11f"/>
            <path id="Trazado_1048767" data-name="Trazado 1048767" d="M141.261,283.14c.016.347.034.571.034.571l.034.159c.338,1.635,3.155,15.475,3.155,24.024,0,8.679.6,29.267.559,31.094a.516.516,0,0,0,.059.254l3.4,6.581a.53.53,0,0,0,.932.021l4-6.988a.527.527,0,0,0,.071-.294c-.178-2.878-3.87-45.192-8.241-55.095-.057-.131-.114-.256-.173-.377-.142-.288-.276-.559-.408-.812-3.536-6.837-3.513-1.064-3.424.863" transform="translate(-72.981 -144.181)" fill="#fdb11f"/>
            <g id="Grupo_1209749" data-name="Grupo 1209749" transform="translate(68.314 138.909)" opacity="0.15">
              <g id="Grupo_1209748" data-name="Grupo 1209748">
                <g id="Grupo_1209747" data-name="Grupo 1209747" clip-path="url(#clip-path-19)">
                  <path id="Trazado_1048768" data-name="Trazado 1048768" d="M141.358,288.056s.011.055.034.16l3.938-.4c-.057-.13-.114-.255-.174-.376Z" transform="translate(-141.358 -287.435)"/>
                </g>
              </g>
            </g>
            <path id="Trazado_1048769" data-name="Trazado 1048769" d="M71.031,344.992c-.764,2.976-1.685,6.321-2.633,9.655l-.178.623c-1.8,6.307-3.671,12.494-4.737,15.979a2.374,2.374,0,0,0,.5,2.287,2.456,2.456,0,0,0,1.662.817c22.575,1.683,27.8,3.36,31.52-1.73,5.527-7.552,4.98-19.993,5.3-38.686.045-2.614.075-5.072.084-7.4.058-14.3-.715-23.495-4.1-31.913-3.806-9.471-10.376-25.536-12.04-31.772-.078-.29-.5-.24-.749-.077a136.232,136.232,0,0,1-13.286,7.652c-3.57,1.623-5.458,2.659-6.259,3.128a.794.794,0,0,0-.381.831l7.6,42.223s.014.238.032.665c.057,1.313.171,4.432.147,8.093-.009,1.514-.042,3.12-.111,4.729-.016.361-.032.722-.053,1.082-.1,1.9-.26,3.778-.5,5.486-.258,1.86-.938,4.84-1.833,8.326" transform="translate(-32.749 -135.717)" fill="#fdb11f"/>
            <g id="Grupo_1209752" data-name="Grupo 1209752" transform="translate(39.398 190.824)" opacity="0.15">
              <g id="Grupo_1209751" data-name="Grupo 1209751">
                <g id="Grupo_1209750" data-name="Grupo 1209750" clip-path="url(#clip-path-20)">
                  <path id="Trazado_1048770" data-name="Trazado 1048770" d="M81.524,443.19c.012.37.023.751.032,1.141,17.589,1.465,22.189,2.406,25.56-2.2,4.415-6.036,4.643-18.406,4.719-32.676.021-3.582.032-7.284.1-11.037q.03-1.866,0-3.557c-.009,2.324-.039,4.782-.085,7.4-.043,2.509-.071,4.906-.1,7.191-.185,14.754-.415,24.958-5.2,31.5-3.337,4.561-7.876,3.689-25.019,2.249" transform="translate(-81.524 -394.858)"/>
                </g>
              </g>
            </g>
            <g id="Grupo_1209755" data-name="Grupo 1209755" transform="translate(50.237 128.616)" opacity="0.15">
              <g id="Grupo_1209754" data-name="Grupo 1209754">
                <g id="Grupo_1209753" data-name="Grupo 1209753" clip-path="url(#clip-path-21)">
                  <path id="Trazado_1048771" data-name="Trazado 1048771" d="M104.169,266.137q-.186,3.246-.212,6.5c-.011,1.084-.008,2.168.017,3.253s.061,2.17.155,3.26c.026.273.053.547.094.823a4.513,4.513,0,0,0,.194.839,11.957,11.957,0,0,0,.685,1.516c.506.971,1.06,1.9,1.614,2.837,1.114,1.861,2.254,3.7,3.379,5.551,2.246,3.7,4.486,7.4,6.641,11.158q1.615,2.816,3.2,5.65c1.055,1.891,2.09,3.792,3.125,5.694-.958-1.942-1.947-3.87-2.951-5.789l-1.519-2.873-1.56-2.85q-3.147-5.686-6.505-11.253c-1.116-1.856-2.246-3.7-3.346-5.565-.547-.931-1.093-1.865-1.583-2.817a11.46,11.46,0,0,1-.645-1.444,7.135,7.135,0,0,1-.268-1.53c-.184-2.137-.234-4.306-.309-6.466Z" transform="translate(-103.952 -266.137)"/>
                </g>
              </g>
            </g>
            <g id="Grupo_1209758" data-name="Grupo 1209758" transform="translate(49.826 173.762)" opacity="0.15">
              <g id="Grupo_1209757" data-name="Grupo 1209757">
                <g id="Grupo_1209756" data-name="Grupo 1209756" clip-path="url(#clip-path-22)">
                  <path id="Trazado_1048772" data-name="Trazado 1048772" d="M113.167,359.553S115.7,373,103.1,393.791c0,0,10.112-17.425,10.065-34.238" transform="translate(-103.102 -359.553)"/>
                </g>
              </g>
            </g>
            <path id="Trazado_1048773" data-name="Trazado 1048773" d="M151.793,269.64c.712,1.566,5.15,10.843,6.107,18.118.646,4.912,2.214,20.237,3.376,35.384.742,9.679,1.319,19.285,1.383,26.053.162,17.361-.055,28.569,2.776,28.9,2.265.262,9.609.575,10.769.038.29-.13.536-.312.516-.564-.225-2.846-2.6-43.349-4.24-72.042-.89-15.537-.606-27.418-1.841-28.423a22.19,22.19,0,0,0-5.006-2.2c-2.416-.819-2.288-1.109-13.575-5.338-.087-.041-.306-.007-.265.08" transform="translate(-78.433 -139.28)" fill="#fdb11f"/>
            <g id="Grupo_1209761" data-name="Grupo 1209761" transform="translate(82.842 183.862)" opacity="0.15">
              <g id="Grupo_1209760" data-name="Grupo 1209760">
                <g id="Grupo_1209759" data-name="Grupo 1209759" clip-path="url(#clip-path-23)">
                  <path id="Trazado_1048774" data-name="Trazado 1048774" d="M172.466,396.484c-.252-4.974-.622-10.491-1.047-16.032.245,5.348.456,10.851.607,16,.068,2.3.123,4.526.165,6.636.032,1.609.055,3.15.069,4.6.164,17.361-.053,28.569,2.776,28.9a32.918,32.918,0,0,0,4.714.309q-.067-.6-.13-1.171a40.145,40.145,0,0,1-4.042-.321c-2.831-.327-2.614-11.535-2.776-28.9-.009-1.059-.032-2.189-.066-3.379-.058-2.056-.151-4.289-.27-6.643" transform="translate(-171.419 -380.452)"/>
                </g>
              </g>
            </g>
            <g id="Grupo_1209764" data-name="Grupo 1209764" transform="translate(76.295 131.878)" opacity="0.15">
              <g id="Grupo_1209763" data-name="Grupo 1209763">
                <g id="Grupo_1209762" data-name="Grupo 1209762" clip-path="url(#clip-path-24)">
                  <path id="Trazado_1048775" data-name="Trazado 1048775" d="M163.591,314.769c.036-1.791.053-3.581.072-5.372s.026-3.581.028-5.372l0-5.372c-.01-1.79-.035-3.582-.062-5.372s-.063-3.582-.13-5.375a23.7,23.7,0,0,0-.207-2.708,13.248,13.248,0,0,0-.329-1.331c-.143-.429-.272-.864-.434-1.284-.626-1.691-1.361-3.33-2.142-4.944s-1.621-3.2-2.511-4.755q1.129,2.439,2.2,4.9.538,1.228,1.043,2.468c.167.414.339.826.494,1.243l.238.624.223.629c.158.417.279.842.419,1.263.113.425.238.85.306,1.276a24.435,24.435,0,0,1,.213,2.643c.079,1.785.121,3.574.163,5.363Z" transform="translate(-157.872 -272.885)"/>
                </g>
              </g>
            </g>
            <path id="Trazado_1048776" data-name="Trazado 1048776" d="M263.688,239.94c-.012.049-.022.1-.033.142-.13.561-.2.905-.2.905l3.164,1.786.08-.336c.011-.051.024-.107.039-.168.207-.9.626-2.8.742-3.919a32.76,32.76,0,0,1,1.082-5.258c.462-1.531.617-1.973-.277-2.35s-1.735.586-2.881,3.468a44.1,44.1,0,0,0-1.714,5.731" transform="translate(-136.134 -119.19)" fill="#fbc0a4"/>
            <path id="Trazado_1048777" data-name="Trazado 1048777" d="M265.689,244.151a3.59,3.59,0,0,0,1.838.605,2.269,2.269,0,0,1-1.838-.605" transform="translate(-137.289 -126.16)" fill="#f69d7d"/>
            <path id="Trazado_1048778" data-name="Trazado 1048778" d="M267.508,238.572a3.02,3.02,0,0,0,1.547.509,1.91,1.91,0,0,1-1.547-.509" transform="translate(-138.229 -123.277)" fill="#f69d7d"/>
            <path id="Trazado_1048779" data-name="Trazado 1048779" d="M251.623,255.607a1.134,1.134,0,0,1-.143-.757,1.415,1.415,0,0,1,.031-.2.025.025,0,0,0-.006.008,1.825,1.825,0,0,1-.341.312.947.947,0,0,1-.177.572c.149-.1.637.06.637.06m-3.691-2.961c.506-2.078,1.99-1.89,2.733-1.543a1.709,1.709,0,0,0,.467.127c.323.054.7.06,1.027.085.486.034.874.1.867.4,0,0,.028-.042.079-.109a5.447,5.447,0,0,1,.984-1.012,1.462,1.462,0,0,1,2.03-.1c.687.654,1.668,1.663,2.543,2.6a26.3,26.3,0,0,1,1.888,2.184,9.436,9.436,0,0,1,.961,2.625c.307.994.252,1.369-.472,3.2s-1.125,4.107-2.288,5.533-.8,2.2-1.993,12.283l-9.129-2.846a58.339,58.339,0,0,0,1.21-8.564,7.02,7.02,0,0,0-1.165-4.432c-.64-1.39-.429-3.78-.787-5.065s.539-3.287,1.043-5.368" transform="translate(-127.532 -129.243)" fill="#fbc0a4"/>
            <path id="Trazado_1048780" data-name="Trazado 1048780" d="M255.38,257.679c-.1.164.444.035.525.219a1.906,1.906,0,0,0,.752,1,.469.469,0,0,1,.2.264,3.321,3.321,0,0,0,.941,1.5.509.509,0,0,1,.128.157,4.846,4.846,0,0,0,2.223,2.141.7.7,0,0,0,.434.06,1.572,1.572,0,0,0,1.043-.8.162.162,0,0,1,.237-.044,4.461,4.461,0,0,0,1.564.621s-1.352-.637-1.434-1.08c0,0,1.019-.1,1.664-.093a.017.017,0,0,0,.006-.033,6.471,6.471,0,0,1-1.333-.469c-.175-.163.619-.189,1.083-.384s-1.329-.012-1.494-.29-.1-.872-.289-.443-.284.719-.545.812.406.364.369.822-.708,1.309-1.239,1.052-2.074-1.7-2.059-2.173a2.816,2.816,0,0,1,1.05-2c1.077-.954,2.1-2.771,4.91.332a5.706,5.706,0,0,0-1.892-1.763c-1.2-.66-1.9.045-2.689.809a3.414,3.414,0,0,0-1.485,2.526c-.285-.287-1.06-1.1-1.041-1.569a2.236,2.236,0,0,1,.429-1.8c.662-.751,2.053-3.375,3.247-2.561a14.15,14.15,0,0,1,2.739,2.468,6.592,6.592,0,0,0-2.616-2.522,1,1,0,0,0-1.278-.029,14.07,14.07,0,0,0-2.211,2.531,2.659,2.659,0,0,0-.463,1.816,1.754,1.754,0,0,1-.812-1.044s-.488-.16-.636-.06c-.01.01-.019.023-.031.033" transform="translate(-131.956 -131.343)" fill="#f69d7d"/>
            <path id="Trazado_1048781" data-name="Trazado 1048781" d="M256.507,256.244a1.341,1.341,0,0,0-.031.2s1.97-1.553,1.627-3.246c-.052.068-.08.109-.08.109s.15,1.334-1.517,2.941" transform="translate(-132.528 -130.832)" fill="#f69d7d"/>
            <path id="Trazado_1048782" data-name="Trazado 1048782" d="M253.492,259.1a2.308,2.308,0,0,1-2.179-1,1.9,1.9,0,0,0,2.179,1" transform="translate(-129.86 -133.367)" fill="#f69d7d"/>
            <path id="Trazado_1048783" data-name="Trazado 1048783" d="M253.279,261.559s-.459.857-2,.409a2.029,2.029,0,0,0,2-.409" transform="translate(-129.844 -135.155)" fill="#f69d7d"/>
            <g id="Grupo_1209767" data-name="Grupo 1209767" transform="translate(122.525 121.987)" opacity="0.6">
              <g id="Grupo_1209766" data-name="Grupo 1209766">
                <g id="Grupo_1209765" data-name="Grupo 1209765" clip-path="url(#clip-path-25)">
                  <path id="Trazado_1048784" data-name="Trazado 1048784" d="M254.442,253.512a2.253,2.253,0,0,0,1.194-1.007c-.329-.025-.7-.032-1.028-.086v0c-.208.78-.935.814-1.048.919s.135.37.882.172" transform="translate(-253.533 -252.419)" fill="#fff"/>
                </g>
              </g>
            </g>
            <path id="Trazado_1048785" data-name="Trazado 1048785" d="M267.522,261.015a1.366,1.366,0,0,0,.254,1.33,1.047,1.047,0,0,1-.254-1.33" transform="translate(-138.174 -134.874)" fill="#f69d7d"/>
            <path id="Trazado_1048786" data-name="Trazado 1048786" d="M265.521,255.14a1.366,1.366,0,0,0,.254,1.33,1.047,1.047,0,0,1-.254-1.33" transform="translate(-137.14 -131.838)" fill="#f69d7d"/>
            <path id="Trazado_1048787" data-name="Trazado 1048787" d="M264.1,250.576a1.366,1.366,0,0,0,.254,1.33,1.046,1.046,0,0,1-.254-1.33" transform="translate(-136.406 -129.48)" fill="#f69d7d"/>
            <path id="Trazado_1048788" data-name="Trazado 1048788" d="M250.74,282.074a7.629,7.629,0,0,0,3.747,1.665,5.479,5.479,0,0,1-3.747-1.665" transform="translate(-129.564 -145.755)" fill="#f69d7d"/>
            <path id="Trazado_1048789" data-name="Trazado 1048789" d="M263.9,249.829c-.012.049-.022.1-.033.142a1.215,1.215,0,0,1,1.068.357c.54.515,1.264,1.25,1.975,2,.011-.051.024-.107.039-.168,0,0-1.522-1.568-1.846-1.875a1.319,1.319,0,0,0-1.2-.453" transform="translate(-136.349 -129.079)" fill="#f69d7d"/>
            <path id="Trazado_1048790" data-name="Trazado 1048790" d="M184.6,285.973s17.71,20.008,22.236,24.062a.6.6,0,0,0,.991-.375l3.983-24.138,12.341,2.517s-2.927,38.657-7.855,40.844c-7.078,3.141-13.42,1.1-30.286-14.162s-1.8-29.181-1.8-29.181" transform="translate(-91.987 -147.537)" fill="#fdb11f"/>
            <g id="Grupo_1209770" data-name="Grupo 1209770" transform="translate(92.505 144.258)" opacity="0.15">
              <g id="Grupo_1209769" data-name="Grupo 1209769">
                <g id="Grupo_1209768" data-name="Grupo 1209768" clip-path="url(#clip-path-26)">
                  <path id="Trazado_1048791" data-name="Trazado 1048791" d="M192.933,321.427a136.449,136.449,0,0,0-1.519-22.925Z" transform="translate(-191.414 -298.502)"/>
                </g>
              </g>
            </g>
            <path id="Trazado_1048792" data-name="Trazado 1048792" d="M141.553,308.418a8.848,8.848,0,0,0-8.377,8.033l-.538,5.758c-4.045,43.272,21.175,57.4,29.418,60.834a8.82,8.82,0,0,0,5.214.488c8.737-1.845,36.139-11.054,40.185-54.327l.537-5.742a8.87,8.87,0,0,0-6.862-9.46,55.522,55.522,0,0,1-23.8-12.017,8.84,8.84,0,0,0-10.141-1.021,57.862,57.862,0,0,1-25.633,7.453" transform="translate(-68.312 -154.926)" fill="#3645b8"/>
            <path id="Trazado_1048793" data-name="Trazado 1048793" d="M150.312,319.053a7.668,7.668,0,0,0-7.26,6.962l-.467,4.991c-3.506,37.5,18.371,49.547,25.515,52.522a7.644,7.644,0,0,0,4.519.422c7.572-1.6,31.3-9.379,34.808-46.882l.465-4.977a7.686,7.686,0,0,0-5.947-8.2,48.127,48.127,0,0,1-20.628-10.415,7.661,7.661,0,0,0-8.789-.885,50.148,50.148,0,0,1-22.216,6.459" transform="translate(-73.483 -161.014)" fill="#c4d4f2"/>
            <path id="Trazado_1048794" data-name="Trazado 1048794" d="M169.338,384.012a9.2,9.2,0,0,1-3.54-.71,41.994,41.994,0,0,1-17.419-13.838c-7.552-10.289-10.6-23.845-9.063-40.293l.466-4.99a9.285,9.285,0,0,1,8.764-8.4,48.45,48.45,0,0,0,21.508-6.255,9.261,9.261,0,0,1,10.6,1.066,46.466,46.466,0,0,0,19.948,10.069,9.3,9.3,0,0,1,7.166,9.887l-.465,4.977c-1.538,16.448-7.047,29.2-16.375,37.914a41.993,41.993,0,0,1-19.681,10.369,9.273,9.273,0,0,1-1.914.2M148.69,318.946h0a6.106,6.106,0,0,0-5.757,5.529l-.466,4.991c-3.305,35.35,16.066,47.382,24.547,50.914a6.038,6.038,0,0,0,3.583.335c8.99-1.9,30.255-10.131,33.56-45.482l.465-4.976a6.129,6.129,0,0,0-4.726-6.509,49.642,49.642,0,0,1-21.308-10.761,6.091,6.091,0,0,0-6.974-.7,51.646,51.646,0,0,1-22.924,6.663" transform="translate(-71.788 -159.326)" fill="#2a3378"/>
            <path id="Trazado_1048795" data-name="Trazado 1048795" d="M166.092,366.686l7.625-6.321,9.329,11.253,17.71-14.681,6.321,7.625-25.335,21Z" transform="translate(-85.824 -184.439)" fill="#3645b8" fill-rule="evenodd"/>
            <path id="Trazado_1048796" data-name="Trazado 1048796" d="M102.032,370.006l7.944-13.4s-2.206-1.222-5.1-3.025a84.275,84.275,0,0,1-9.533-6.732c-1.792-1.525-3.616-3.078-5.427-4.577-7.171-5.936-8.95-8.966-9.14-9.083l-.8-1.282c.345-9.862,2.082-25.953.485-39.382,0,0-11.022-7.8-11.822-7.327a.8.8,0,0,0-.382.831l7.6,42.223s.015.237.033.664c.057,1.313.169,4.432.146,8.094-.008,1.513-.042,3.119-.111,4.728q-.022.542-.052,1.082c-.1,1.9-.259,3.778-.5,5.486-.182,1.319-.578,3.2-1.111,5.428,10.116,5.907,27.765,16.268,27.765,16.268" transform="translate(-35.263 -147.361)" fill="#d7971a" fill-rule="evenodd"/>
            <path id="Trazado_1048797" data-name="Trazado 1048797" d="M143.366,433.549a12.8,12.8,0,0,0,3.118,1.974,21.255,21.255,0,0,0,5.744.319c2.314-.071,3.22.808,4.392,1.3s1.141,1.008,1.007,1.28-1.331,1.231-5.687-.041a27.6,27.6,0,0,0,4.485,2.606,30.362,30.362,0,0,0,4.544.6c1.072.088,1.92.688,1.324,1.788,0,0,1.286-.057,1.354.727s-.358,1.344-1.326,1.483c0,0,.168.894-1.292,1.237s-2.275.5-2.275.5.232.709-1.79,1.052-3.408.716-5.776-.517a19.09,19.09,0,0,1-4.955-3.406,8.023,8.023,0,0,0-3.431-2.231c-2.026-.9-2.893-1.362-2.893-1.362s2.522-6.277,3.457-7.311" transform="translate(-72.295 -224.027)" fill="#fbc0a4" fill-rule="evenodd"/>
            <path id="Trazado_1048798" data-name="Trazado 1048798" d="M173.552,440.7a.725.725,0,0,1-.742.555c-.685-.066-1.357-.47-1.412-.789a1.427,1.427,0,0,1,.283-.729c.418.21.8.43,1.209.6a3.052,3.052,0,0,1,.662.361" transform="translate(-88.565 -227.222)" fill="#fde6db" fill-rule="evenodd"/>
            <path id="Trazado_1048799" data-name="Trazado 1048799" d="M164.975,450.1c.026.045.043.1.069.142a19.644,19.644,0,0,0,4.081,1.767,41.523,41.523,0,0,0,5.569.01,3.935,3.935,0,0,0,.46-.042.1.1,0,0,0-.009-.164.163.163,0,0,0-.04-.018,55.367,55.367,0,0,1-5.933-.07,20.214,20.214,0,0,1-3.952-1.6l-.074-.036s-.009-.009-.015-.008c-.079.005-.078.015-.155.021" transform="translate(-85.247 -232.568)" fill="#f69d7d" fill-rule="evenodd"/>
            <path id="Trazado_1048800" data-name="Trazado 1048800" d="M161.471,453.607c.036.036.032.1.068.137a41.617,41.617,0,0,0,4.432,2.035,15.4,15.4,0,0,0,3.831.266c1.626.025,3.589-.018,3.592-.02l0,0a.092.092,0,0,0,.044-.081.1.1,0,0,0-.044-.08.212.212,0,0,0-.043-.022s-2.376-.018-4.608-.126a10.407,10.407,0,0,1-2.707-.268,29.389,29.389,0,0,1-3.366-1.389c-.315-.142-.769-.349-1.034-.47-.005,0-.01-.009-.016-.009-.076.011-.074.02-.15.03" transform="translate(-83.437 -234.376)" fill="#f69d7d" fill-rule="evenodd"/>
            <path id="Trazado_1048801" data-name="Trazado 1048801" d="M159.118,457.053c.033.039.032.1.065.139a26.205,26.205,0,0,0,4.42,2.008,19.783,19.783,0,0,0,4.485.364c.334,0,.467,0,.467,0h0a.1.1,0,0,0,.044-.088.1.1,0,0,0-.049-.085.2.2,0,0,0-.026-.012,29.95,29.95,0,0,1-5.128-.565,26.183,26.183,0,0,1-3.788-1.616c-.332-.163-.33-.171-.341-.169-.051.007-.1.018-.152.025" transform="translate(-82.221 -236.159)" fill="#f69d7d" fill-rule="evenodd"/>
            <path id="Trazado_1048802" data-name="Trazado 1048802" d="M66.78,304.27a9.988,9.988,0,1,0-10.151-9.484A9.836,9.836,0,0,0,66.78,304.27" transform="translate(-29.255 -146.915)" fill="#fdb11f"/>
            <path id="Trazado_1048803" data-name="Trazado 1048803" d="M71.644,348.488l0-1.171c.013-3.378.6-26.989,2.818-43.112l.16-1.167-18.834-4.629-.232.982c-2.9,13.9-.672,47.226-.6,48.687l.06,1.248,16.626-.837Z" transform="translate(-27.941 -154.196)" fill="#fdb11f"/>
            <path id="Trazado_1048804" data-name="Trazado 1048804" d="M64.645,400.475a8.406,8.406,0,0,0,7.743-6.857,8.674,8.674,0,0,0-6.5-10.217,8.107,8.107,0,0,0-2.121-.173,8.41,8.41,0,0,0-7.746,6.859,8.673,8.673,0,0,0,6.5,10.216,8.189,8.189,0,0,0,2.123.173" transform="translate(-28.858 -198.019)" fill="#fdb11f"/>
            <path id="Trazado_1048805" data-name="Trazado 1048805" d="M75.175,391.933a9.86,9.86,0,1,0-12.231,6.695,9.87,9.87,0,0,0,12.231-6.695" transform="translate(-28.86 -195.997)" fill="#fdb11f"/>
            <path id="Trazado_1048806" data-name="Trazado 1048806" d="M96.02,397.589c-1.657-1.411-3.345-2.847-5.021-4.234-6.632-5.491-10.452-9.436-10.629-9.545l-1.2-1.931L69.147,399.735l1.024.535C71.365,400.9,102.214,419,102.214,419l7.347-12.391s-8.426-4.671-13.541-9.025" transform="translate(-35.73 -197.327)" fill="#fdb11f"/>
            <rect id="Rectángulo_419205" data-name="Rectángulo 419205" width="373.712" height="2.821" transform="translate(18.813 382.543)" fill="#1d2227"/>
            <path id="Trazado_1048807" data-name="Trazado 1048807" d="M612.475,616.761a6.116,6.116,0,0,0,4.3-4.1c1.219-3.926,2.563-10.938-.749-16.828,0,0,2.911-18.1-2.181-32.131,0,0,.725-25.7-18.158-37.212-18.743-11.423-77.357-34.973-110.113,42.79a2.847,2.847,0,0,1-2.188,1.71c-1.593.255-4.531,1.479-9,6.117-7.243,7.514-12.309,10.8,1.314,20.274s25.834,16,31.547,18.436c5.069,2.161,8.418,4.9,20.357-.966,5.651-2.777,63.5,7.415,84.874,1.911" transform="translate(-241.391 -265.613)" fill="#fdb11f" fill-rule="evenodd"/>
            <path id="Trazado_1048808" data-name="Trazado 1048808" d="M501.529,628.325a.047.047,0,0,1-.005.013,2.846,2.846,0,0,1-2.187,1.71c-.063.01-.128.022-.2.036a9.594,9.594,0,0,0-.777,7.026c.457-.569,1.375-3.846,2.187-6.071.307-.841.733-1.914.979-2.713" transform="translate(-257.342 -324.673)" fill="#bf8406" fill-rule="evenodd"/>
            <path id="Trazado_1048809" data-name="Trazado 1048809" d="M499.375,589.029c.21-1.074.486-2.074,1.147-4.448.265-.95.482-1.685.482-1.685-.022-.065-.071-.12-.091-.185-.054.059-.146.072-.2.132,0,0-.354.938-.755,2.07-.275.779-.979,2.916-1.248,4.079-.046.2-.011.245.226.555A28.947,28.947,0,0,0,503,593.592a62.141,62.141,0,0,0,15.228,8.807c.018.008.2.083.225.089a.344.344,0,0,0,.4-.215c.071-.174.044-.184.838-2.2,5.3-13.444,25.991-59.855,55.769-63.7,34.459-4.451,50.617,20.754,54.175,37.469.082.387.073.393.082.4.052.019.11-.051.162-.032a51.006,51.006,0,0,0-16.23-28.058c-13.366-11.557-28.673-11.349-35.946-10.7a35.231,35.231,0,0,0-10.124,2.24c-29.039,11.094-47.617,59.659-49.242,64.015a65.786,65.786,0,0,1-12.3-6.652,29.694,29.694,0,0,1-6.667-6.027" transform="translate(-257.688 -276.555)" fill="#29295f" fill-rule="evenodd"/>
            <path id="Trazado_1048810" data-name="Trazado 1048810" d="M539.379,602.662c3.536.441,7.072.9,10.609,1.338a.292.292,0,0,0,.232-.148c.025-.046.919-2.841,2.714-7.468,7.311-18.857,23.875-53.466,45.211-55.887,16.136-1.83,26.149,2.787,30.949,5.569,14.426,8.361,19.9,23.008,21.235,27.422.051.169.175.487.314.942a.042.042,0,0,0,.082-.018l-.013-.067c0-.01-.013-.077-.032-.164a48.593,48.593,0,0,0-2.008-6.99c-5.848-15.8-21.862-34.892-52.288-31.127-34.85,4.312-57.234,66.1-57.257,66.183a.247.247,0,0,0-.015.149.323.323,0,0,0,.171.235c.032.012.065.016.1.029m110.823-30.2c-2.235-6.851-13.912-36.549-51.911-32.564-6.559.688-17.874,4.727-31.3,26.383-9,14.51-15.225,31.172-17.262,37.309l.21.069-10.1-1.557c3.4-9.175,24.763-61.682,56.582-65.724,7.6-.965,23.237-1.736,37.041,9.489a50.871,50.871,0,0,1,16.738,26.6" transform="translate(-278.571 -276.752)" fill="#29295f" fill-rule="evenodd"/>
            <path id="Trazado_1048811" data-name="Trazado 1048811" d="M650.988,572.775a50.872,50.872,0,0,0-16.738-26.6c-13.8-11.224-29.446-10.454-37.041-9.489-31.819,4.043-53.178,56.549-56.582,65.724l10.1,1.557-.21-.069c2.036-6.137,8.265-22.8,17.262-37.309,13.429-21.656,24.744-25.7,31.3-26.383,38-3.985,49.676,25.713,51.911,32.564" transform="translate(-279.357 -277.06)" fill="#d7971a" fill-rule="evenodd"/>
            <path id="Trazado_1048812" data-name="Trazado 1048812" d="M561.086,676.156c.081.124.042.3.122.429a52.9,52.9,0,0,0,6.887,3.6,60.626,60.626,0,0,0,20.467,5.12c.063,0,.178.029.187-.091,0-.05-.048-.1-.1-.114a63.058,63.058,0,0,1-14.042-3.125,70.724,70.724,0,0,1-11.537-4.984c-.117-.065-.836-.463-1.451-.841-.044-.027-.08-.083-.132-.083-.21,0-.194.086-.4.089" transform="translate(-289.929 -349.342)" fill="#29295f" fill-rule="evenodd"/>
            <path id="Trazado_1048813" data-name="Trazado 1048813" d="M697.6,684.9c-.047.032-.115.027-.162.058-.117.08-.686,2.216-4.8,4.1-4.442,2.029-15.374,5.119-49.694,2.38-6.261-.5-12.361-1.144-16.343-1.649a.537.537,0,0,0-.187-.025c-.055.014-.081.091-.137.1.093.028.152.131.247.159s13.476,2.021,27.442,2.78c19.689,1.072,39.136-.182,43.339-7.085a4.709,4.709,0,0,0,.353-.657c0-.057-.054-.106-.058-.163" transform="translate(-323.613 -353.908)" fill="#29295f" fill-rule="evenodd"/>
            <path id="Trazado_1048814" data-name="Trazado 1048814" d="M700.918,675.749l-1.608,13.12a.221.221,0,0,0,.223.249l25.821-.212a.223.223,0,0,0,.219-.2l1.471-12.9a.221.221,0,0,0-.055-.173.226.226,0,0,0-.166-.075l-25.684,0a.222.222,0,0,0-.221.195m.417.25,25.238,0-1.421,12.46-25.371.208Z" transform="translate(-361.352 -349.078)" fill="#29295f" fill-rule="evenodd"/>
            <path id="Trazado_1048815" data-name="Trazado 1048815" d="M719.927,668.373l-25.684-.005a.223.223,0,0,0-.221.2l-1.5,15.559a.223.223,0,0,0,.155.233l3.28,1.033a.221.221,0,0,0,.287-.185l1.584-12.924,25.487,0a.222.222,0,0,0,.159-.378l-3.389-3.472a.225.225,0,0,0-.159-.068m-.094.445,2.955,3.027-25.156,0a.222.222,0,0,0-.221.2l-1.575,12.856-2.852-.9,1.461-15.179Z" transform="translate(-357.846 -345.364)" fill="#29295f" fill-rule="evenodd"/>
            <path id="Trazado_1048816" data-name="Trazado 1048816" d="M700.289,689.147l25.371-.208,1.421-12.46-25.239,0Z" transform="translate(-361.859 -349.553)" fill="#fdb11f" fill-rule="evenodd"/>
            <path id="Trazado_1048817" data-name="Trazado 1048817" d="M724.844,672.321l-2.955-3.027-25.389-.006,2.967,3.223a.223.223,0,0,1,.221-.195Z" transform="translate(-359.901 -345.84)" fill="#daa22c" fill-rule="evenodd"/>
            <path id="Trazado_1048818" data-name="Trazado 1048818" d="M697.9,672.511l-2.967-3.223-1.461,15.179,2.852.9Z" transform="translate(-358.339 -345.84)" fill="#fdb11f" fill-rule="evenodd"/>
            <path id="Trazado_1048819" data-name="Trazado 1048819" d="M619.041,680.765c-.068.048-.162.047-.23.095-.024.016-.29,1.037-2.3,2.008-1.623.784-8.883,4.349-45.847,2.728-9.925-.436-21.9-1.278-30.052-2.192-14.615-1.642-18.151,5.069-25.736,3.559-7.13-1.419-28.084-15.478-38.282-22.172-.7-.46-6.706-4.161-4.178-9.512a6,6,0,0,1,.579-.966c.014-.021.043-.035.045-.059.01-.125-.032-.123-.023-.247-.084.024-.176.014-.262.039-.015,0-4.776,5.522,3.273,11.17,1.845,1.294,6.053,4.167,6.581,4.528,18.879,12.894,28.237,17.837,32.6,18.5,7.65,1.166,11.316-5.175,24.961-3.8.671.068,6.924.782,19.564,1.493,22.284,1.255,34.671.635,37.682.485,8.025-.4,19.944-1.516,21.674-5.317.016-.036.053-.07.048-.109-.017-.126-.077-.106-.094-.233" transform="translate(-243.557 -337.943)" fill="#29295f" fill-rule="evenodd"/>
            <path id="Trazado_1048820" data-name="Trazado 1048820" d="M587.019,516.931s-38.069-7.94-66.7,41.045c0,0,28.826-43.882,66.7-41.045" transform="translate(-268.863 -266.867)" fill="#daa22c" fill-rule="evenodd"/>
            <path id="Trazado_1048821" data-name="Trazado 1048821" d="M483.514,662.7s-13.236-6.212-4.345-14.172c3.943-3.529,1.2,1.938,1.957,5.642.95,4.651,4.627,8.34,2.387,8.53" transform="translate(-246.012 -334.523)" fill="#daa22c" fill-rule="evenodd"/>
            <path id="Trazado_1048822" data-name="Trazado 1048822" d="M668.409,721.353c17.771,1.5,37.429,2.649,48.06-.089a6.117,6.117,0,0,0,4.3-4.1c.088-.282.177-.581.263-.894-1.633,1.316-4.543,2.772-9.725,3.766-9.347,1.8-31.715,1.566-42.9,1.318" transform="translate(-345.385 -370.116)" fill="#bf8406" fill-rule="evenodd"/>
          </g>
        </g>
      </g>
    </g>
  </g>
</svg>
