<svg xmlns="http://www.w3.org/2000/svg" width="100" height="100" viewBox="0 0 100 100">
  <g id="Grupo_1209892" data-name="Grupo 1209892" transform="translate(-274 -12660.783)">
    <g id="Grupo_1209234" data-name="Grupo 1209234" transform="translate(-528.49 11424.567)">
      <g id="Grupo_1208492" data-name="Grupo 1208492" transform="translate(802.49 1236.215)">
        <g id="Grupo_1177675" data-name="Grupo 1177675" transform="translate(0 0)">
          <g id="Grupo_1176928" data-name="Grupo 1176928" transform="translate(0)">
            <g id="Grupo_1172322" data-name="Grupo 1172322" transform="translate(0 0)">
              <g id="Grupo_1164700" data-name="Grupo 1164700">
                <g id="Grupo_1160931" data-name="Grupo 1160931">
                  <g id="Grupo_1160749" data-name="Grupo 1160749">
                    <g id="Grupo_1158891" data-name="Grupo 1158891">
                      <g id="Grupo_1157406" data-name="Grupo 1157406">
                        <g id="Grupo_1155793" data-name="Grupo 1155793">
                          <g id="Grupo_1154704" data-name="Grupo 1154704">
                            <g id="Grupo_1150790" data-name="Grupo 1150790">
                              <g id="Grupo_1154214" data-name="Grupo 1154214">
                                <g id="Grupo_1152583" data-name="Grupo 1152583">
                                  <g id="Grupo_1146973" data-name="Grupo 1146973">
                                    <g id="Grupo_1146954" data-name="Grupo 1146954">
                                      <path id="Trazado_982547" data-name="Trazado 982547" d="M50,0a50,50,0,1,0,50,50A50,50,0,0,0,50,0Z" transform="translate(0)" fill="#fef9e7"/>
                                      <path id="Trazado_982547_-_Contorno" data-name="Trazado 982547 - Contorno" d="M50,3A47.013,47.013,0,0,0,31.706,93.308,47.013,47.013,0,0,0,68.294,6.692,46.7,46.7,0,0,0,50,3m0-3A50,50,0,1,1,0,50,50,50,0,0,1,50,0Z" transform="translate(0)" fill="#f8ce24"/>
                                    </g>
                                  </g>
                                </g>
                              </g>
                            </g>
                          </g>
                        </g>
                      </g>
                    </g>
                  </g>
                </g>
              </g>
            </g>
          </g>
        </g>
      </g>
    </g>
    <g id="Search" transform="translate(292 12678.783)">
      <path id="Trazado_1048950" data-name="Trazado 1048950" d="M43,53H61v8H43Z" fill="#fee9ab"/>
      <circle id="Elipse_12695" data-name="Elipse 12695" cx="4" cy="4" r="4" transform="translate(50 25)" fill="#ffde55"/>
      <path id="Trazado_1048951" data-name="Trazado 1048951" d="M50.38,10.62a3.978,3.978,0,1,1-2.825-1.177A4,4,0,0,1,50.38,10.62Z" fill="#9cdd05"/>
      <path id="Trazado_1048952" data-name="Trazado 1048952" d="M50.38,41.73a3.978,3.978,0,1,1-2.825-1.177A4,4,0,0,1,50.38,41.73Z" fill="#ff3051"/>
      <path id="Trazado_1048953" data-name="Trazado 1048953" d="M44,29A12,12,0,1,1,32,17,12,12,0,0,1,44,29Z" fill="#c0ab91"/>
      <circle id="Elipse_12696" data-name="Elipse 12696" cx="8" cy="8" r="8" transform="translate(24 21)" fill="#bdfdff"/>
      <path id="Trazado_1048954" data-name="Trazado 1048954" d="M36,45V57a4,4,0,0,1-8,0V45Z" fill="#898890"/>
      <circle id="Elipse_12697" data-name="Elipse 12697" cx="4" cy="4" r="4" transform="translate(28 3)" fill="#57a4ff"/>
      <path id="Trazado_1048955" data-name="Trazado 1048955" d="M34,40.83V45H30V40.83A11.85,11.85,0,0,0,34,40.83Z" fill="#c6c5ca"/>
      <path id="Trazado_1048956" data-name="Trazado 1048956" d="M3,53H21v8H3Z" fill="#fee9ab"/>
      <path id="Trazado_1048957" data-name="Trazado 1048957" d="M19.27,10.62a4,4,0,1,1-5.65,0,4,4,0,0,1,5.65,0Z" fill="#ff3051"/>
      <path id="Trazado_1048958" data-name="Trazado 1048958" d="M19.27,41.73a4,4,0,1,1-5.65,0,4,4,0,0,1,5.65,0Z" fill="#9cdd05"/>
      <circle id="Elipse_12698" data-name="Elipse 12698" cx="4" cy="4" r="4" transform="translate(6 25)" fill="#ffde55"/>
      <path id="Trazado_1048959" data-name="Trazado 1048959" d="M57,53h4v8H57Z" fill="#ffde55"/>
      <path id="Trazado_1048960" data-name="Trazado 1048960" d="M58,29a3.994,3.994,0,0,1-6,3.46,3.993,3.993,0,0,0,0-6.92A3.994,3.994,0,0,1,58,29Z" fill="#ffcd00"/>
      <path id="Trazado_1048961" data-name="Trazado 1048961" d="M50.38,16.27a3.962,3.962,0,0,1-4.82.62,3.69,3.69,0,0,0,.82-.62,3.978,3.978,0,0,0,0-5.65,4.075,4.075,0,0,0-.82-.63,3.992,3.992,0,0,1,4.82,6.28Z" fill="#5eac24"/>
      <path id="Trazado_1048962" data-name="Trazado 1048962" d="M50.38,47.38a3.964,3.964,0,0,1-4.82.63,4.075,4.075,0,0,0,.82-.63,3.978,3.978,0,0,0,0-5.65,3.69,3.69,0,0,0-.82-.62,3.987,3.987,0,0,1,4.82,6.27Z" fill="#cd2a00"/>
      <path id="Trazado_1048963" data-name="Trazado 1048963" d="M36,7a3.994,3.994,0,0,1-6,3.46,3.993,3.993,0,0,0,0-6.92A3.994,3.994,0,0,1,36,7Z" fill="#006df0"/>
      <path id="Trazado_1048964" data-name="Trazado 1048964" d="M17,53h4v8H17Z" fill="#ffde55"/>
      <path id="Trazado_1048965" data-name="Trazado 1048965" d="M19.27,16.27a3.962,3.962,0,0,1-4.82.62,3.69,3.69,0,0,0,.82-.62,4,4,0,0,0,0-5.65,4.075,4.075,0,0,0-.82-.63,3.992,3.992,0,0,1,4.82,6.28Z" fill="#cd2a00"/>
      <path id="Trazado_1048966" data-name="Trazado 1048966" d="M19.27,47.38a3.964,3.964,0,0,1-4.82.63,4.075,4.075,0,0,0,.82-.63,4,4,0,0,0,0-5.65,3.69,3.69,0,0,0-.82-.62,3.987,3.987,0,0,1,4.82,6.27Z" fill="#5eac24"/>
      <path id="Trazado_1048967" data-name="Trazado 1048967" d="M14,29a3.994,3.994,0,0,1-6,3.46,3.993,3.993,0,0,0,0-6.92A3.994,3.994,0,0,1,14,29Z" fill="#ffcd00"/>
      <path id="Trazado_1048968" data-name="Trazado 1048968" d="M44,29A11.988,11.988,0,0,1,30,40.83a12,12,0,0,0,0-23.66A11.988,11.988,0,0,1,44,29Z" fill="#a78966"/>
      <path id="Trazado_1048969" data-name="Trazado 1048969" d="M40,29a8.011,8.011,0,0,1-8,8,8.1,8.1,0,0,1-1.99-.25,8.009,8.009,0,0,0,0-15.5A8.1,8.1,0,0,1,32,21a8.011,8.011,0,0,1,8,8Z" fill="#46f8ff"/>
      <path id="Trazado_1048970" data-name="Trazado 1048970" d="M34,40.83V45H32V41a12,12,0,0,0,2-.17Z" fill="#898890"/>
      <path id="Trazado_1048971" data-name="Trazado 1048971" d="M36,45V57a3.994,3.994,0,0,1-6,3.46A3.98,3.98,0,0,0,32,57V45Z" fill="#57565c"/>
      <path id="Trazado_1048972" data-name="Trazado 1048972" d="M31,11.9V14h2V11.9a5,5,0,1,0-2,0ZM32,4a3,3,0,1,1-3,3,3,3,0,0,1,3-3Z"/>
      <path id="Trazado_1048973" data-name="Trazado 1048973" d="M12.908,16.979a5.01,5.01,0,0,0,6.293.636L20.687,19.1,22.1,17.687,20.615,16.2a5,5,0,1,0-7.707.778Zm1.414-5.657a2.984,2.984,0,1,1-.886,2.122,3,3,0,0,1,.886-2.122Z"/>
      <path id="Trazado_1048974" data-name="Trazado 1048974" d="M10,34a5.009,5.009,0,0,0,4.9-4H17V28H14.9A5,5,0,1,0,10,34Zm0-8a3,3,0,1,1-3,3,3,3,0,0,1,3-3Z"/>
      <path id="Trazado_1048975" data-name="Trazado 1048975" d="M19.2,40.385A5,5,0,1,0,20.615,41.8L22.1,40.313,20.687,38.9Zm-.636,6.293a3.073,3.073,0,0,1-4.243,0,3,3,0,1,1,4.243,0Z"/>
      <path id="Trazado_1048976" data-name="Trazado 1048976" d="M44.021,48.092a5,5,0,1,0,.779-7.707L43.313,38.9,41.9,40.313,43.385,41.8a5.01,5.01,0,0,0,.636,6.292Zm3.536-6.534a3,3,0,0,1,2.121,5.12,3.073,3.073,0,0,1-4.243,0,3,3,0,0,1,2.122-5.12Z"/>
      <path id="Trazado_1048977" data-name="Trazado 1048977" d="M49.1,28H47v2h2.1a5,5,0,1,0,0-2ZM54,26a3,3,0,1,1-3,3A3,3,0,0,1,54,26Z"/>
      <path id="Trazado_1048978" data-name="Trazado 1048978" d="M43.313,19.1,44.8,17.615A5,5,0,1,0,43.385,16.2L41.9,17.687Zm2.122-7.779a2.985,2.985,0,1,1-.885,2.122,3,3,0,0,1,.885-2.122Z"/>
      <path id="Trazado_1048979" data-name="Trazado 1048979" d="M45,29A13,13,0,1,0,29,41.637V44H28a1,1,0,0,0-1,1V57a5,5,0,1,0,10,0V45a1,1,0,0,0-1-1H35V41.637A13.014,13.014,0,0,0,45,29ZM21,29A11,11,0,1,1,32,40,11,11,0,0,1,21,29ZM35,57a3,3,0,0,1-6,0V46h6ZM33,44H31V41.949c.331.026.662.051,1,.051s.669-.025,1-.051Z"/>
      <path id="Trazado_1048980" data-name="Trazado 1048980" d="M41,29a9,9,0,1,0-9,9,9,9,0,0,0,9-9ZM25,29a7,7,0,1,1,7,7,7,7,0,0,1-7-7Z"/>
      <path id="Trazado_1048981" data-name="Trazado 1048981" d="M32,24a5.006,5.006,0,0,0-5,5h2a3,3,0,0,1,3-3Z"/>
      <path id="Trazado_1048982" data-name="Trazado 1048982" d="M31,48h2v2H31Z"/>
      <path id="Trazado_1048983" data-name="Trazado 1048983" d="M31,52h2v6H31Z"/>
      <path id="Trazado_1048984" data-name="Trazado 1048984" d="M21,52H3a1,1,0,0,0-1,1v8a1,1,0,0,0,1,1H21a1,1,0,0,0,1-1V53A1,1,0,0,0,21,52Zm-1,8H4V54H20Z"/>
      <path id="Trazado_1048985" data-name="Trazado 1048985" d="M61,52H43a1,1,0,0,0-1,1v8a1,1,0,0,0,1,1H61a1,1,0,0,0,1-1V53A1,1,0,0,0,61,52Zm-1,8H44V54H60Z"/>
      <path id="Trazado_1048986" data-name="Trazado 1048986" d="M2,2H6V4H2Z"/>
      <path id="Trazado_1048987" data-name="Trazado 1048987" d="M8,2h6V4H8Z"/>
      <path id="Trazado_1048988" data-name="Trazado 1048988" d="M2,6H6V8H2Z"/>
      <path id="Trazado_1048989" data-name="Trazado 1048989" d="M8,6h4V8H8Z"/>
      <path id="Trazado_1048990" data-name="Trazado 1048990" d="M2,10H6v2H2Z"/>
      <path id="Trazado_1048991" data-name="Trazado 1048991" d="M8,10h2v2H8Z"/>
      <path id="Trazado_1048992" data-name="Trazado 1048992" d="M58,2h4V4H58Z"/>
      <path id="Trazado_1048993" data-name="Trazado 1048993" d="M50,2h6V4H50Z"/>
      <path id="Trazado_1048994" data-name="Trazado 1048994" d="M58,6h4V8H58Z"/>
      <path id="Trazado_1048995" data-name="Trazado 1048995" d="M52,6h4V8H52Z"/>
      <path id="Trazado_1048996" data-name="Trazado 1048996" d="M58,10h4v2H58Z"/>
      <path id="Trazado_1048997" data-name="Trazado 1048997" d="M54,10h2v2H54Z"/>
      <path id="Trazado_1048998" data-name="Trazado 1048998" d="M6,56H8v2H6Z"/>
      <path id="Trazado_1048999" data-name="Trazado 1048999" d="M10,56h8v2H10Z"/>
      <path id="Trazado_1049000" data-name="Trazado 1049000" d="M46,56h2v2H46Z"/>
      <path id="Trazado_1049001" data-name="Trazado 1049001" d="M50,56h8v2H50Z"/>
    </g>
  </g>
</svg>
