<svg xmlns="http://www.w3.org/2000/svg" width="100" height="100" viewBox="0 0 100 100">
  <g id="Grupo_1209924" data-name="Grupo 1209924" transform="translate(-592.5 -12660.469)">
    <g id="Grupo_1209231" data-name="Grupo 1209231" transform="translate(-209.99 11424.253)">
      <g id="Grupo_1208492" data-name="Grupo 1208492" transform="translate(802.49 1236.215)">
        <g id="Grupo_1177675" data-name="Grupo 1177675" transform="translate(0 0)">
          <g id="Grupo_1176928" data-name="Grupo 1176928" transform="translate(0)">
            <g id="Grupo_1172322" data-name="Grupo 1172322" transform="translate(0 0)">
              <g id="Grupo_1164700" data-name="Grupo 1164700">
                <g id="Grupo_1160931" data-name="Grupo 1160931">
                  <g id="Grupo_1160749" data-name="Grupo 1160749">
                    <g id="Grupo_1158891" data-name="Grupo 1158891">
                      <g id="Grupo_1157406" data-name="Grupo 1157406">
                        <g id="Grupo_1155793" data-name="Grupo 1155793">
                          <g id="Grupo_1154704" data-name="Grupo 1154704">
                            <g id="Grupo_1150790" data-name="Grupo 1150790">
                              <g id="Grupo_1154214" data-name="Grupo 1154214">
                                <g id="Grupo_1152583" data-name="Grupo 1152583">
                                  <g id="Grupo_1146973" data-name="Grupo 1146973">
                                    <g id="Grupo_1146954" data-name="Grupo 1146954">
                                      <path id="Trazado_982547" data-name="Trazado 982547" d="M50,0a50,50,0,1,0,50,50A50,50,0,0,0,50,0Z" transform="translate(0)" fill="#fef9e7"/>
                                      <path id="Trazado_982547_-_Contorno" data-name="Trazado 982547 - Contorno" d="M50,3A47.013,47.013,0,0,0,31.706,93.308,47.013,47.013,0,0,0,68.294,6.692,46.7,46.7,0,0,0,50,3m0-3A50,50,0,1,1,0,50,50,50,0,0,1,50,0Z" transform="translate(0)" fill="#f8ce24"/>
                                    </g>
                                  </g>
                                </g>
                              </g>
                            </g>
                          </g>
                        </g>
                      </g>
                    </g>
                  </g>
                </g>
              </g>
            </g>
          </g>
        </g>
      </g>
    </g>
    <g id="Layer_10" transform="translate(609.352 12677.135)">
      <g id="Grupo_1209893" data-name="Grupo 1209893" transform="translate(4.057 12.512)">
        <path id="Trazado_1049002" data-name="Trazado 1049002" d="M63.183,12V62.728H4V12H9.284v1.86a7.868,7.868,0,0,0,6.3,7.567,7.408,7.408,0,0,0,8.5-7.313V12H43.1v2.114c0,.254,1.057.75,1.057.75v.021c.021.2.042.391.074.581a2.337,2.337,0,0,0,.053.264,1.105,1.105,0,0,0,.042.18,7.68,7.68,0,0,0,.264.877.058.058,0,0,0,.021.053,3.3,3.3,0,0,0,.159.412c.021.042.032.074.053.116.074.148.137.285.211.423a6.79,6.79,0,0,0,5.971,3.72,6.611,6.611,0,0,0,4.872-2.167,7.443,7.443,0,0,0,1.48-2.367c.074-.19.148-.391.211-.6l.032-.1c.042-.159.074-.317.106-.486a.241.241,0,0,0,.032-.116.978.978,0,0,0,.042-.243,2.912,2.912,0,0,0,.074-.518.125.125,0,0,0,.011-.085c.021-.233.032-.476.032-.719V12Z" transform="translate(-4 -12)" fill="#faa819"/>
      </g>
      <g id="Grupo_1209894" data-name="Grupo 1209894" transform="translate(49.501 20.98)">
        <path id="Trazado_1049003" data-name="Trazado 1049003" d="M48.057,22.113a1.091,1.091,0,0,1-.75-.306,1.111,1.111,0,0,1-.306-.75,1.052,1.052,0,0,1,.085-.4,1.22,1.22,0,0,1,.222-.349,1.107,1.107,0,0,1,1.5,0,1.22,1.22,0,0,1,.222.349,1,1,0,0,1,0,.8,1.22,1.22,0,0,1-.222.349A1.111,1.111,0,0,1,48.057,22.113Z" transform="translate(-47 -20.013)"/>
      </g>
      <g id="Grupo_1209895" data-name="Grupo 1209895" transform="translate(3 11.455)">
        <path id="Trazado_1049004" data-name="Trazado 1049004" d="M63.24,63.842H4.057A1.06,1.06,0,0,1,3,62.785V12.057A1.06,1.06,0,0,1,4.057,11H9.341A1.06,1.06,0,0,1,10.4,12.057v2.114a6.341,6.341,0,1,0,12.682,0V12.057A1.06,1.06,0,0,1,24.137,11H43.16a1.06,1.06,0,0,1,1.057,1.057v2.114a6.292,6.292,0,0,0,1.078,3.54,1.058,1.058,0,0,1-1.754,1.184A8.428,8.428,0,0,1,42.1,14.171V13.114H25.194v1.057a8.455,8.455,0,1,1-16.909,0V13.114H5.114V61.728h57.07V13.114H59.013v1.057a8.528,8.528,0,0,1-1.268,4.46,1.059,1.059,0,0,1-1.8-1.12,6.316,6.316,0,0,0,.951-3.34V12.057A1.06,1.06,0,0,1,57.956,11H63.24A1.06,1.06,0,0,1,64.3,12.057V62.785A1.06,1.06,0,0,1,63.24,63.842Z" transform="translate(-3 -11)"/>
      </g>
      <g id="Grupo_1209896" data-name="Grupo 1209896" transform="translate(12.512 27.307)">
        <path id="Trazado_1049005" data-name="Trazado 1049005" d="M12,26H54.274V57.705H12Z" transform="translate(-12 -26)" fill="#d6d7ed"/>
      </g>
      <g id="Grupo_1209897" data-name="Grupo 1209897" transform="translate(11.455 3)">
        <path id="Trazado_1049006" data-name="Trazado 1049006" d="M20.455,4V14.568a4.227,4.227,0,0,1-8.455,0V4Z" transform="translate(-10.943 -2.943)" fill="#d6d7ed"/>
        <path id="Trazado_1049007" data-name="Trazado 1049007" d="M16.284,19.909A5.286,5.286,0,0,1,11,14.625V4.057A1.06,1.06,0,0,1,12.057,3h8.455a1.06,1.06,0,0,1,1.057,1.057V14.625A5.286,5.286,0,0,1,16.284,19.909Zm-3.171-14.8v9.512a3.171,3.171,0,0,0,6.341,0V5.114Z" transform="translate(-11 -3)" fill="#231f20"/>
      </g>
      <g id="Grupo_1209898" data-name="Grupo 1209898" transform="translate(45.274 3)">
        <path id="Trazado_1049008" data-name="Trazado 1049008" d="M52.455,4V14.568a4.227,4.227,0,0,1-8.455,0V4Z" transform="translate(-42.943 -2.943)" fill="#d6d7ed"/>
        <path id="Trazado_1049009" data-name="Trazado 1049009" d="M48.284,19.909A5.286,5.286,0,0,1,43,14.625V4.057A1.06,1.06,0,0,1,44.057,3h8.455a1.06,1.06,0,0,1,1.057,1.057V14.625A5.286,5.286,0,0,1,48.284,19.909Zm-3.171-14.8v9.512a3.171,3.171,0,1,0,6.341,0V5.114Z" transform="translate(-43 -3)" fill="#231f20"/>
      </g>
      <g id="Grupo_1209899" data-name="Grupo 1209899" transform="translate(22.023 36.819)">
        <path id="Trazado_1049010" data-name="Trazado 1049010" d="M22,36H32.568V46.568H22Z" transform="translate(-20.943 -34.943)" fill="#d6d7ed"/>
        <path id="Trazado_1049011" data-name="Trazado 1049011" d="M32.625,47.682H22.057A1.06,1.06,0,0,1,21,46.625V36.057A1.06,1.06,0,0,1,22.057,35H32.625a1.06,1.06,0,0,1,1.057,1.057V46.625A1.06,1.06,0,0,1,32.625,47.682Zm-9.512-2.114h8.455V37.114H23.114Z" transform="translate(-21 -35)"/>
      </g>
      <g id="Grupo_1209901" data-name="Grupo 1209901" transform="translate(33.654 22.016)">
        <g id="Grupo_1209900" data-name="Grupo 1209900">
          <path id="Trazado_1049012" data-name="Trazado 1049012" d="M37.284,32.626A2.078,2.078,0,0,1,35.794,32l-3.171-3.171a2.115,2.115,0,0,1,2.991-2.991l1.554,1.554,4.851-5.665a2.114,2.114,0,0,1,3.213,2.748l-6.341,7.4a2.108,2.108,0,0,1-1.522.74A.233.233,0,0,1,37.284,32.626Z" transform="translate(-32.005 -20.993)" fill="#72bf44"/>
        </g>
      </g>
      <g id="Grupo_1209903" data-name="Grupo 1209903" transform="translate(23.085 22.016)">
        <g id="Grupo_1209902" data-name="Grupo 1209902">
          <path id="Trazado_1049013" data-name="Trazado 1049013" d="M27.284,32.626A2.078,2.078,0,0,1,25.794,32l-3.171-3.171a2.115,2.115,0,0,1,2.991-2.991l1.554,1.554,4.851-5.665a2.114,2.114,0,0,1,3.213,2.748l-6.341,7.4a2.108,2.108,0,0,1-1.522.74A.233.233,0,0,1,27.284,32.626Z" transform="translate(-22.005 -20.993)" fill="#72bf44"/>
        </g>
      </g>
      <g id="Grupo_1209905" data-name="Grupo 1209905" transform="translate(22.023 20.972)">
        <g id="Grupo_1209904" data-name="Grupo 1209904">
          <path id="Trazado_1049014" data-name="Trazado 1049014" d="M30.444,30.079,28.89,31.886a2.108,2.108,0,0,1-1.522.74h-.085A2.078,2.078,0,0,1,25.794,32l-3.171-3.171a2.115,2.115,0,0,1,2.991-2.991l1.554,1.554,4.851-5.665A2.121,2.121,0,0,1,35,21.5a2.1,2.1,0,0,1,.729,1.448" transform="translate(-20.943 -19.95)" fill="#72bf44"/>
          <path id="Trazado_1049015" data-name="Trazado 1049015" d="M27.341,33.739a3.142,3.142,0,0,1-2.241-.93L21.93,29.638a3.169,3.169,0,0,1,4.481-4.481l.75.75,4.111-4.8a3.186,3.186,0,0,1,4.47-.349,3.138,3.138,0,0,1,1.1,2.167,1.055,1.055,0,1,1-2.1.159,1,1,0,0,0-.37-.719,1.056,1.056,0,0,0-1.49.116l-4.851,5.665a1.062,1.062,0,0,1-1.554.063l-1.554-1.554a1.072,1.072,0,0,0-1.49,0,.975.975,0,0,0-.317.74,1.046,1.046,0,0,0,.306.75l3.171,3.171a1.046,1.046,0,0,0,.75.306,1.073,1.073,0,0,0,.8-.37L29.7,29.448A1.057,1.057,0,0,1,31.3,30.822l-1.554,1.807a3.17,3.17,0,0,1-2.283,1.1.559.559,0,0,1-.127.011Z" transform="translate(-21 -20.006)"/>
        </g>
      </g>
      <g id="Grupo_1209907" data-name="Grupo 1209907" transform="translate(32.592 20.972)">
        <g id="Grupo_1209906" data-name="Grupo 1209906">
          <path id="Trazado_1049016" data-name="Trazado 1049016" d="M40.349,30.184,38.88,31.9a2.108,2.108,0,0,1-1.522.74h-.085a2.078,2.078,0,0,1-1.49-.624l-3.171-3.171A2.115,2.115,0,0,1,35.6,25.851L37.158,27.4l4.851-5.665a2.121,2.121,0,0,1,2.98-.233,2.179,2.179,0,0,1,.676,1.078" transform="translate(-30.943 -19.949)" fill="#72bf44"/>
          <path id="Trazado_1049017" data-name="Trazado 1049017" d="M37.341,33.739a3.142,3.142,0,0,1-2.241-.93L31.93,29.638a3.164,3.164,0,0,1,0-4.481,3.25,3.25,0,0,1,4.481,0l.75.75,4.111-4.8a3.186,3.186,0,0,1,4.47-.349,3.1,3.1,0,0,1,1,1.617,1.059,1.059,0,0,1-2.05.528,1.059,1.059,0,0,0-1.828-.423l-4.851,5.665a1.062,1.062,0,0,1-1.554.063L34.91,26.658a1.072,1.072,0,0,0-1.49,0,1,1,0,0,0-.306.74,1.046,1.046,0,0,0,.306.75l3.171,3.171a1.046,1.046,0,0,0,.75.306,1.073,1.073,0,0,0,.8-.37L39.6,29.543a1.057,1.057,0,1,1,1.606,1.374l-1.458,1.712a3.17,3.17,0,0,1-2.283,1.1.559.559,0,0,1-.127.011Z" transform="translate(-31 -20.006)"/>
        </g>
      </g>
      <g id="Grupo_1209909" data-name="Grupo 1209909" transform="translate(43.16 20.972)">
        <g id="Grupo_1209908" data-name="Grupo 1209908">
          <path id="Trazado_1049018" data-name="Trazado 1049018" d="M47.284,32.626A2.078,2.078,0,0,1,45.794,32l-3.171-3.171a2.115,2.115,0,0,1,2.991-2.991l1.554,1.554,4.851-5.665a2.114,2.114,0,0,1,3.213,2.748l-6.341,7.4a2.108,2.108,0,0,1-1.522.74A.233.233,0,0,1,47.284,32.626Z" transform="translate(-40.943 -19.95)" fill="#72bf44"/>
          <path id="Trazado_1049019" data-name="Trazado 1049019" d="M47.341,33.739a3.142,3.142,0,0,1-2.241-.93L41.93,29.638a3.169,3.169,0,1,1,4.481-4.481l.75.75,4.111-4.8a3.171,3.171,0,0,1,4.819,4.122l-6.341,7.4a3.17,3.17,0,0,1-2.283,1.1.559.559,0,0,1-.127.011Zm-3.171-7.4a1.061,1.061,0,0,0-.75,1.807l3.171,3.171a1.046,1.046,0,0,0,.75.306v1.057l.042-1.057a1.054,1.054,0,0,0,.761-.37l6.341-7.4a1.057,1.057,0,1,0-1.606-1.374l-4.851,5.665a1.054,1.054,0,0,1-.761.37,1.074,1.074,0,0,1-.793-.306l-1.554-1.554a1.014,1.014,0,0,0-.75-.317Z" transform="translate(-41 -20.006)"/>
        </g>
      </g>
      <g id="Grupo_1209910" data-name="Grupo 1209910" transform="translate(11.455 26.251)">
        <path id="Trazado_1049020" data-name="Trazado 1049020" d="M22.625,37.682H12.057A1.06,1.06,0,0,1,11,36.625V26.057A1.06,1.06,0,0,1,12.057,25h7.4a1.057,1.057,0,0,1,0,2.114H13.114v8.455h8.455V32.4a1.057,1.057,0,0,1,2.114,0v4.227A1.06,1.06,0,0,1,22.625,37.682Z" transform="translate(-11 -25)"/>
      </g>
      <g id="Grupo_1209911" data-name="Grupo 1209911" transform="translate(22.023 32.592)">
        <path id="Trazado_1049021" data-name="Trazado 1049021" d="M32.625,37.341H22.057A1.06,1.06,0,0,1,21,36.284V32.057a1.057,1.057,0,0,1,2.114,0v3.171h8.455V32.057a1.057,1.057,0,0,1,2.114,0v4.227A1.06,1.06,0,0,1,32.625,37.341Z" transform="translate(-21 -31)"/>
      </g>
      <g id="Grupo_1209912" data-name="Grupo 1209912" transform="translate(32.592 32.592)">
        <path id="Trazado_1049022" data-name="Trazado 1049022" d="M42.625,37.341H32.057A1.06,1.06,0,0,1,31,36.284V32.057a1.057,1.057,0,0,1,2.114,0v3.171h8.455V32.057a1.057,1.057,0,0,1,2.114,0v4.227A1.06,1.06,0,0,1,42.625,37.341Z" transform="translate(-31 -31)"/>
      </g>
      <g id="Grupo_1209913" data-name="Grupo 1209913" transform="translate(43.16 32.592)">
        <path id="Trazado_1049023" data-name="Trazado 1049023" d="M52.625,37.341H42.057A1.06,1.06,0,0,1,41,36.284V32.057a1.057,1.057,0,0,1,2.114,0v3.171h8.455V32.057a1.057,1.057,0,0,1,2.114,0v4.227A1.06,1.06,0,0,1,52.625,37.341Z" transform="translate(-41 -31)"/>
      </g>
      <g id="Grupo_1209914" data-name="Grupo 1209914" transform="translate(11.455 36.819)">
        <path id="Trazado_1049024" data-name="Trazado 1049024" d="M22.625,47.682H12.057A1.06,1.06,0,0,1,11,46.625V36.057A1.06,1.06,0,0,1,12.057,35H22.625a1.06,1.06,0,0,1,1.057,1.057V46.625A1.06,1.06,0,0,1,22.625,47.682Zm-9.512-2.114h8.455V37.114H13.114Z" transform="translate(-11 -35)"/>
      </g>
      <g id="Grupo_1209915" data-name="Grupo 1209915" transform="translate(32.592 36.819)">
        <path id="Trazado_1049025" data-name="Trazado 1049025" d="M42.625,47.682H32.057A1.06,1.06,0,0,1,31,46.625V36.057A1.06,1.06,0,0,1,32.057,35H42.625a1.06,1.06,0,0,1,1.057,1.057V46.625A1.06,1.06,0,0,1,42.625,47.682Zm-9.512-2.114h8.455V37.114H33.114Z" transform="translate(-31 -35)"/>
      </g>
      <g id="Grupo_1209916" data-name="Grupo 1209916" transform="translate(43.16 36.819)">
        <path id="Trazado_1049026" data-name="Trazado 1049026" d="M52.625,47.682H42.057A1.06,1.06,0,0,1,41,46.625V36.057A1.06,1.06,0,0,1,42.057,35H52.625a1.06,1.06,0,0,1,1.057,1.057V46.625A1.06,1.06,0,0,1,52.625,47.682Zm-9.512-2.114h8.455V37.114H43.114Z" transform="translate(-41 -35)"/>
      </g>
      <g id="Grupo_1209917" data-name="Grupo 1209917" transform="translate(11.455 47.387)">
        <path id="Trazado_1049027" data-name="Trazado 1049027" d="M22.625,57.682H12.057A1.06,1.06,0,0,1,11,56.625V46.057A1.06,1.06,0,0,1,12.057,45H22.625a1.06,1.06,0,0,1,1.057,1.057V56.625A1.06,1.06,0,0,1,22.625,57.682Zm-9.512-2.114h8.455V47.114H13.114Z" transform="translate(-11 -45)"/>
      </g>
      <g id="Grupo_1209918" data-name="Grupo 1209918" transform="translate(22.023 47.387)">
        <path id="Trazado_1049028" data-name="Trazado 1049028" d="M32.625,57.682H22.057A1.06,1.06,0,0,1,21,56.625V46.057A1.06,1.06,0,0,1,22.057,45H32.625a1.06,1.06,0,0,1,1.057,1.057V56.625A1.06,1.06,0,0,1,32.625,57.682Zm-9.512-2.114h8.455V47.114H23.114Z" transform="translate(-21 -45)"/>
      </g>
      <g id="Grupo_1209919" data-name="Grupo 1209919" transform="translate(32.592 47.387)">
        <path id="Trazado_1049029" data-name="Trazado 1049029" d="M42.625,57.682H32.057A1.06,1.06,0,0,1,31,56.625V46.057A1.06,1.06,0,0,1,32.057,45H42.625a1.06,1.06,0,0,1,1.057,1.057V56.625A1.06,1.06,0,0,1,42.625,57.682Zm-9.512-2.114h8.455V47.114H33.114Z" transform="translate(-31 -45)"/>
      </g>
      <g id="Grupo_1209920" data-name="Grupo 1209920" transform="translate(43.16 47.387)">
        <path id="Trazado_1049030" data-name="Trazado 1049030" d="M52.625,57.682H42.057A1.06,1.06,0,0,1,41,56.625V46.057A1.06,1.06,0,0,1,42.057,45H52.625a1.06,1.06,0,0,1,1.057,1.057V56.625A1.06,1.06,0,0,1,52.625,57.682Zm-9.512-2.114h8.455V47.114H43.114Z" transform="translate(-41 -45)"/>
      </g>
      <g id="Grupo_1209921" data-name="Grupo 1209921" transform="translate(14.625 39.989)">
        <ellipse id="Elipse_12699" data-name="Elipse 12699" cx="2" cy="2.5" rx="2" ry="2.5" transform="translate(1.023 0.659)" fill="#ed1c24"/>
        <path id="Trazado_1049031" data-name="Trazado 1049031" d="M17.171,44.341a3.171,3.171,0,1,1,3.171-3.171A3.18,3.18,0,0,1,17.171,44.341Zm0-4.227a1.057,1.057,0,1,0,1.057,1.057A1.06,1.06,0,0,0,17.171,40.114Z" transform="translate(-14 -38)"/>
      </g>
      <g id="Grupo_1209922" data-name="Grupo 1209922" transform="translate(25.194 39.989)">
        <ellipse id="Elipse_12700" data-name="Elipse 12700" cx="2" cy="2.5" rx="2" ry="2.5" transform="translate(1.455 0.659)" fill="#ed1c24"/>
        <path id="Trazado_1049032" data-name="Trazado 1049032" d="M27.171,44.341a3.171,3.171,0,1,1,3.171-3.171A3.18,3.18,0,0,1,27.171,44.341Zm0-4.227a1.057,1.057,0,1,0,1.057,1.057A1.06,1.06,0,0,0,27.171,40.114Z" transform="translate(-24 -38)"/>
      </g>
      <g id="Grupo_1209923" data-name="Grupo 1209923" transform="translate(35.762 39.989)">
        <ellipse id="Elipse_12701" data-name="Elipse 12701" cx="2" cy="2.5" rx="2" ry="2.5" transform="translate(0.886 0.659)" fill="#ed1c24"/>
        <path id="Trazado_1049033" data-name="Trazado 1049033" d="M37.171,44.341a3.171,3.171,0,1,1,3.171-3.171A3.18,3.18,0,0,1,37.171,44.341Zm0-4.227a1.057,1.057,0,1,0,1.057,1.057A1.06,1.06,0,0,0,37.171,40.114Z" transform="translate(-34 -38)"/>
      </g>
    </g>
  </g>
</svg>
