<svg xmlns="http://www.w3.org/2000/svg" width="100" height="100" viewBox="0 0 100 100">
  <g id="Grupo_1209950" data-name="Grupo 1209950" transform="translate(-907.5 -12660.469)">
    <g id="Grupo_1209232" data-name="Grupo 1209232" transform="translate(105.01 11424.253)">
      <g id="Grupo_1208492" data-name="Grupo 1208492" transform="translate(802.49 1236.215)">
        <g id="Grupo_1177675" data-name="Grupo 1177675" transform="translate(0 0)">
          <g id="Grupo_1176928" data-name="Grupo 1176928" transform="translate(0)">
            <g id="Grupo_1172322" data-name="Grupo 1172322" transform="translate(0 0)">
              <g id="Grupo_1164700" data-name="Grupo 1164700">
                <g id="Grupo_1160931" data-name="Grupo 1160931">
                  <g id="Grupo_1160749" data-name="Grupo 1160749">
                    <g id="Grupo_1158891" data-name="Grupo 1158891">
                      <g id="Grupo_1157406" data-name="Grupo 1157406">
                        <g id="Grupo_1155793" data-name="Grupo 1155793">
                          <g id="Grupo_1154704" data-name="Grupo 1154704">
                            <g id="Grupo_1150790" data-name="Grupo 1150790">
                              <g id="Grupo_1154214" data-name="Grupo 1154214">
                                <g id="Grupo_1152583" data-name="Grupo 1152583">
                                  <g id="Grupo_1146973" data-name="Grupo 1146973">
                                    <g id="Grupo_1146954" data-name="Grupo 1146954">
                                      <path id="Trazado_982547" data-name="Trazado 982547" d="M50,0a50,50,0,1,0,50,50A50,50,0,0,0,50,0Z" transform="translate(0)" fill="#fef9e7"/>
                                      <path id="Trazado_982547_-_Contorno" data-name="Trazado 982547 - Contorno" d="M50,3A47.013,47.013,0,0,0,31.706,93.308,47.013,47.013,0,0,0,68.294,6.692,46.7,46.7,0,0,0,50,3m0-3A50,50,0,1,1,0,50,50,50,0,0,1,50,0Z" transform="translate(0)" fill="#f8ce24"/>
                                    </g>
                                  </g>
                                </g>
                              </g>
                            </g>
                          </g>
                        </g>
                      </g>
                    </g>
                  </g>
                </g>
              </g>
            </g>
          </g>
        </g>
      </g>
    </g>
    <g id="Icons" transform="translate(914.982 12663.978)">
      <g id="Grupo_1209949" data-name="Grupo 1209949" transform="translate(7.355 11.595)">
        <path id="Trazado_1049034" data-name="Trazado 1049034" d="M72.961,34.254a32.834,32.834,0,1,0,.032,25.354,16.85,16.85,0,0,0-.032-25.354Z" transform="translate(-9.126 -13.396)" fill="#eee"/>
        <path id="Trazado_1049035" data-name="Trazado 1049035" d="M36.832,185.847a5.87,5.87,0,0,0-5.952.924l-7.814,6.555L16.35,186.61l5.684-6.733a5.791,5.791,0,0,0,.676-6.517,28.173,28.173,0,0,0,14.122,12.487Z" transform="translate(-13.728 -126.21)" fill="#ffcbc3"/>
        <path id="Trazado_1049036" data-name="Trazado 1049036" d="M205.838,102.982a12.092,12.092,0,0,1-4.937,9.755,12.106,12.106,0,0,1,0-19.51A12.093,12.093,0,0,1,205.838,102.982Z" transform="translate(-140.99 -69.433)" fill="#72c2e9"/>
        <path id="Trazado_1049037" data-name="Trazado 1049037" d="M216.832,111.9a12.063,12.063,0,0,1-1.642,6.09,6.852,6.852,0,0,1,0-12.177A12.016,12.016,0,0,1,216.832,111.9Z" transform="translate(-151.984 -78.35)" fill="#868686"/>
        <g id="Grupo_1209945" data-name="Grupo 1209945" transform="translate(10.613 10.597)">
          <g id="Grupo_1209929" data-name="Grupo 1209929" transform="translate(0 18.566)">
            <g id="Grupo_1209926" data-name="Grupo 1209926">
              <g id="Grupo_1209925" data-name="Grupo 1209925">
                <path id="Trazado_1049038" data-name="Trazado 1049038" d="M48.973,111.65l-5.208,4.385,5.208,4.384v-2.676h4.953v-3.417H48.973Z" transform="translate(-43.765 -111.65)" fill="#fc5d3d"/>
              </g>
            </g>
            <g id="Grupo_1209928" data-name="Grupo 1209928" transform="translate(35.741)">
              <g id="Grupo_1209927" data-name="Grupo 1209927">
                <path id="Trazado_1049039" data-name="Trazado 1049039" d="M171.339,120.419l5.208-4.384-5.208-4.385v2.676h-4.953v3.417h4.953Z" transform="translate(-166.386 -111.65)" fill="#fc5d3d"/>
              </g>
            </g>
          </g>
          <g id="Grupo_1209934" data-name="Grupo 1209934" transform="translate(18.566)">
            <g id="Grupo_1209931" data-name="Grupo 1209931" transform="translate(0)">
              <g id="Grupo_1209930" data-name="Grupo 1209930">
                <path id="Trazado_1049040" data-name="Trazado 1049040" d="M116.232,53.16l-4.384-5.208-4.385,5.208h2.676v4.953h3.417V53.16Z" transform="translate(-107.463 -47.952)" fill="#fc5d3d"/>
              </g>
            </g>
            <g id="Grupo_1209933" data-name="Grupo 1209933" transform="translate(0 35.741)">
              <g id="Grupo_1209932" data-name="Grupo 1209932" transform="translate(0 0)">
                <path id="Trazado_1049041" data-name="Trazado 1049041" d="M107.463,175.526l4.385,5.208,4.384-5.208h-2.676v-4.953h-3.417v4.953Z" transform="translate(-107.463 -170.573)" fill="#fc5d3d"/>
              </g>
            </g>
          </g>
          <g id="Grupo_1209939" data-name="Grupo 1209939" transform="translate(6.722 6.722)">
            <g id="Grupo_1209936" data-name="Grupo 1209936" transform="translate(24.064)">
              <g id="Grupo_1209935" data-name="Grupo 1209935">
                <path id="Trazado_1049042" data-name="Trazado 1049042" d="M157.2,77.8l.582-6.783L151,71.6l1.892,1.892-3.5,3.5,2.416,2.416,3.5-3.5Z" transform="translate(-149.389 -71.015)" fill="#fc5d3d"/>
              </g>
            </g>
            <g id="Grupo_1209938" data-name="Grupo 1209938" transform="translate(0 24.064)">
              <g id="Grupo_1209937" data-name="Grupo 1209937">
                <path id="Trazado_1049043" data-name="Trazado 1049043" d="M67.41,155.186l-.582,6.783,6.783-.582-1.892-1.892,3.5-3.5L72.8,153.576l-3.5,3.5Z" transform="translate(-66.828 -153.576)" fill="#fc5d3d"/>
              </g>
            </g>
          </g>
          <g id="Grupo_1209944" data-name="Grupo 1209944" transform="translate(6.722 6.722)">
            <g id="Grupo_1209941" data-name="Grupo 1209941" transform="translate(24.064 24.064)">
              <g id="Grupo_1209940" data-name="Grupo 1209940">
                <path id="Trazado_1049044" data-name="Trazado 1049044" d="M151,161.387l6.783.582-.582-6.783-1.892,1.892-3.5-3.5-2.416,2.416,3.5,3.5Z" transform="translate(-149.389 -153.576)" fill="#fc5d3d"/>
              </g>
            </g>
            <g id="Grupo_1209943" data-name="Grupo 1209943">
              <g id="Grupo_1209942" data-name="Grupo 1209942">
                <path id="Trazado_1049045" data-name="Trazado 1049045" d="M73.611,71.6l-6.783-.582L67.41,77.8,69.3,75.906l3.5,3.5,2.416-2.416-3.5-3.5Z" transform="translate(-66.828 -71.015)" fill="#fc5d3d"/>
              </g>
            </g>
          </g>
        </g>
        <g id="Grupo_1209946" data-name="Grupo 1209946" transform="translate(25.506 25.12)">
          <path id="Trazado_1049046" data-name="Trazado 1049046" d="M108.969,111.874h-12.1a2.005,2.005,0,0,1-1.72-3.037L101.2,98.751a2.005,2.005,0,0,1,3.44,0l6.049,10.087A2.005,2.005,0,0,1,108.969,111.874Z" transform="translate(-94.864 -97.777)" fill="#f0c020"/>
        </g>
        <g id="Grupo_1209947" data-name="Grupo 1209947" transform="translate(7.626 7.639)">
          <path id="Trazado_1049047" data-name="Trazado 1049047" d="M35.233,73q-.161-.419-.308-.845a.729.729,0,1,1,1.378-.475q.139.4.291.8a.729.729,0,0,1-1.36.523Zm-1.119-3.731A25.93,25.93,0,0,1,80.026,47.959a.729.729,0,1,1-1.155.888A24.477,24.477,0,0,0,35.538,68.961a.729.729,0,0,1-1.424.311Z" transform="translate(-33.519 -37.802)" fill="#fff"/>
        </g>
        <g id="Grupo_1209948" data-name="Grupo 1209948" transform="translate(23.699 48.182)">
          <path id="Trazado_1049048" data-name="Trazado 1049048" d="M89.127,186.468a.729.729,0,0,1,.53-1.358,24.427,24.427,0,0,0,25.832-5.185.729.729,0,0,1,1.011,1.05,25.883,25.883,0,0,1-27.373,5.493Zm28.384-7.592a.729.729,0,0,1-.1-1.026q.271-.328.53-.665a.729.729,0,0,1,1.155.889q-.274.356-.56.7a.73.73,0,0,1-1.026.1Z" transform="translate(-88.663 -176.901)" fill="#fff"/>
        </g>
        <path id="Trazado_1049049" data-name="Trazado 1049049" d="M153.149,214.969a.728.728,0,1,0,.933.437A.741.741,0,0,0,153.149,214.969Z" transform="translate(-110.313 -155.661)"/>
        <path id="Trazado_1049050" data-name="Trazado 1049050" d="M71.8,32.016C66.132,18.767,52.868,11.237,40.9,11.608A33.377,33.377,0,0,0,23.879,16.26a.729.729,0,1,0,.743,1.253,32.093,32.093,0,0,1,45.9,15.222.727.727,0,0,0,.191.265,16.127,16.127,0,0,1,.028,24.258.729.729,0,0,0-.191.266A32.084,32.084,0,0,1,24.755,72.9l.219-.183a5.132,5.132,0,0,1,5.242-.8,28.751,28.751,0,0,0,17.608,1.221.73.73,0,0,0,.533-.883.739.739,0,0,0-.883-.533,27.347,27.347,0,1,1,18.9-36.56,12.854,12.854,0,0,0-4.5,7.347L59.13,40.2a.729.729,0,0,0-1.2.558v1.947H53.708a.729.729,0,0,0-.729.729v3.417a.729.729,0,0,0,.729.729h4.224v1.948a.729.729,0,0,0,1.2.557l2.741-2.308a12.888,12.888,0,0,0,4.513,7.361A27.364,27.364,0,0,1,52.808,69.8a.729.729,0,1,0,.635,1.312A28.822,28.822,0,0,0,67.864,55.357a12.819,12.819,0,0,0-.024-20.44A28.807,28.807,0,0,0,12.115,45.133c0,.012,0,.024,0,.036a28.835,28.835,0,0,0,3.58,13.916,5.081,5.081,0,0,1-.374,5.431A32.05,32.05,0,0,1,20,20.834a.726.726,0,0,0,.076-1.026.747.747,0,0,0-1.023-.079s0,0,0,0a33.5,33.5,0,0,0-4.682,45.936L9.418,71.526a.728.728,0,1,0,1.113.94l5.685-6.734a6.571,6.571,0,0,0,1.5-3.507,29.022,29.022,0,0,0,9.038,8.021A6.494,6.494,0,0,0,24.036,71.6l-7.813,6.556a.729.729,0,0,0,.937,1.116l6.415-5.382A33.533,33.533,0,0,0,71.828,58.24,17.584,17.584,0,0,0,71.8,32.016ZM58.661,46.123H54.437v-1.96h4.224a.729.729,0,0,0,.729-.729v-1.11l3.348,2.818L59.39,47.961v-1.11A.729.729,0,0,0,58.661,46.123Zm11.611,4.091a6.118,6.118,0,0,1,0-10.138,11.276,11.276,0,0,1,0,10.138Zm-.732-11.4a7.572,7.572,0,0,0,0,12.66,11.4,11.4,0,0,1-2.274,2.5,11.407,11.407,0,0,1-4.1-7.291l1.174-.988a.729.729,0,0,0,0-1.115L63.165,43.6a11.378,11.378,0,0,1,4.1-7.287,11.381,11.381,0,0,1,2.275,2.5Z" transform="translate(-7.355 -11.595)"/>
        <path id="Trazado_1049051" data-name="Trazado 1049051" d="M54.757,32.872a.728.728,0,1,0,1.014.166A.744.744,0,0,0,54.757,32.872Z" transform="translate(-40.725 -26.578)"/>
        <path id="Trazado_1049052" data-name="Trazado 1049052" d="M46.734,109.319,41.526,113.7a.729.729,0,0,0,0,1.115l5.208,4.385a.729.729,0,0,0,1.2-.557V116.7h4.224a.729.729,0,0,0,.729-.729v-3.417a.729.729,0,0,0-.729-.729H47.931v-1.947A.729.729,0,0,0,46.734,109.319Zm4.693,3.962v1.96H47.2a.729.729,0,0,0-.729.729v1.11l-3.348-2.819,3.348-2.818v1.11a.729.729,0,0,0,.729.729h4.224Z" transform="translate(-31.382 -80.713)"/>
        <path id="Trazado_1049053" data-name="Trazado 1049053" d="M108.368,57.1h3.417a.729.729,0,0,0,.729-.729V52.148h1.947a.729.729,0,0,0,.558-1.2l-4.384-5.208a.753.753,0,0,0-1.115,0l-4.384,5.208a.729.729,0,0,0,.558,1.2h1.947v4.224a.728.728,0,0,0,.728.729Zm-1.11-6.411,2.819-3.348,2.819,3.348h-1.11a.729.729,0,0,0-.729.729v4.224H109.1V51.419a.729.729,0,0,0-.729-.729Z" transform="translate(-76.513 -35.614)"/>
        <path id="Trazado_1049054" data-name="Trazado 1049054" d="M111.782,168.073h-3.417a.729.729,0,0,0-.729.729v4.224h-1.947a.729.729,0,0,0-.558,1.2l4.384,5.208a.729.729,0,0,0,1.115,0l4.384-5.208a.729.729,0,0,0-.558-1.2H112.51V168.8A.727.727,0,0,0,111.782,168.073Zm1.11,6.41-2.819,3.348-2.819-3.348h1.11a.729.729,0,0,0,.729-.729V169.53h1.96v4.224a.729.729,0,0,0,.729.729Z" transform="translate(-76.51 -122.464)"/>
        <path id="Trazado_1049055" data-name="Trazado 1049055" d="M147.1,75.736l2.416,2.416a.728.728,0,0,0,1.03,0l2.987-2.987,1.377,1.377a.729.729,0,0,0,1.241-.453l.582-6.783a.729.729,0,0,0-.788-.788l-6.783.582a.729.729,0,0,0-.453,1.241l1.377,1.377L147.1,74.706A.729.729,0,0,0,147.1,75.736Zm4.533-3.5a.728.728,0,0,0,0-1.03l-.785-.785,4.36-.374-.374,4.36-.785-.785a.728.728,0,0,0-1.03,0l-2.987,2.987-1.386-1.386Z" transform="translate(-106.218 -51.925)"/>
        <path id="Trazado_1049056" data-name="Trazado 1049056" d="M73.964,153.706l-2.416-2.416a.728.728,0,0,0-1.03,0l-2.987,2.987L66.154,152.9a.729.729,0,0,0-1.241.453l-.582,6.783a.729.729,0,0,0,.788.788l6.783-.582a.729.729,0,0,0,.453-1.241l-1.377-1.377,2.987-2.987a.729.729,0,0,0,0-1.03Zm-4.533,3.5a.728.728,0,0,0,0,1.03l.785.785-4.36.374.374-4.36.785.785a.728.728,0,0,0,1.03,0l2.987-2.987,1.386,1.386Z" transform="translate(-47.722 -110.421)"/>
        <path id="Trazado_1049057" data-name="Trazado 1049057" d="M156.735,160.134l-.582-6.783a.729.729,0,0,0-1.241-.453l-1.377,1.377-2.987-2.987a.728.728,0,0,0-1.03,0L147.1,153.7a.728.728,0,0,0,0,1.03l2.987,2.987-1.377,1.377a.729.729,0,0,0,.453,1.241l6.783.582A.729.729,0,0,0,156.735,160.134Zm-5.886-1.112.785-.785a.729.729,0,0,0,0-1.03l-2.987-2.987,1.386-1.386,2.987,2.987a.728.728,0,0,0,1.03,0l.785-.785.374,4.36Z" transform="translate(-106.218 -110.421)"/>
        <path id="Trazado_1049058" data-name="Trazado 1049058" d="M71.9,69.1l-6.783-.582a.729.729,0,0,0-.788.788l.582,6.783a.729.729,0,0,0,1.241.453l1.377-1.377,2.987,2.987a.728.728,0,0,0,1.03,0l2.416-2.416a.728.728,0,0,0,0-1.03l-2.987-2.987,1.377-1.377A.729.729,0,0,0,71.9,69.1Zm.517,6.121-1.386,1.386L68.045,73.62a.728.728,0,0,0-1.03,0l-.785.785-.374-4.36,4.36.374-.785.785a.729.729,0,0,0,0,1.03Z" transform="translate(-47.721 -51.925)"/>
        <path id="Trazado_1049059" data-name="Trazado 1049059" d="M109.539,106.691,103.49,96.6a2.734,2.734,0,0,0-4.69,0l-6.049,10.087a2.733,2.733,0,0,0,2.345,4.14h12.1A2.733,2.733,0,0,0,109.539,106.691ZM94,107.441l6.049-10.087a1.277,1.277,0,0,1,2.19,0l6.049,10.087a1.276,1.276,0,0,1-1.095,1.933H95.1A1.276,1.276,0,0,1,94,107.441Z" transform="translate(-67.582 -70.885)"/>
        <path id="Trazado_1049060" data-name="Trazado 1049060" d="M120.735,131.285a.729.729,0,0,0-.729.729v.694a.729.729,0,0,0,1.457,0v-.694A.729.729,0,0,0,120.735,131.285Z" transform="translate(-87.171 -96.399)"/>
        <path id="Trazado_1049061" data-name="Trazado 1049061" d="M120.735,108.681a.729.729,0,0,0-.729.729v3.924a.729.729,0,1,0,1.457,0V109.41A.729.729,0,0,0,120.735,108.681Z" transform="translate(-87.171 -80.383)"/>
      </g>
    </g>
  </g>
</svg>
