<svg xmlns="http://www.w3.org/2000/svg" width="100" height="100" viewBox="0 0 100 100">
  <g id="Grupo_1209233" data-name="Grupo 1209233" transform="translate(-802.49 -1236.216)">
    <g id="Grupo_1208492" data-name="Grupo 1208492" transform="translate(802.49 1236.215)">
      <g id="Grupo_1177675" data-name="Grupo 1177675" transform="translate(0 0)">
        <g id="Grupo_1176928" data-name="Grupo 1176928" transform="translate(0)">
          <g id="Grupo_1172322" data-name="Grupo 1172322" transform="translate(0 0)">
            <g id="Grupo_1164700" data-name="Grupo 1164700">
              <g id="Grupo_1160931" data-name="Grupo 1160931">
                <g id="Grupo_1160749" data-name="Grupo 1160749">
                  <g id="Grupo_1158891" data-name="Grupo 1158891">
                    <g id="Grupo_1157406" data-name="Grupo 1157406">
                      <g id="Grupo_1155793" data-name="Grupo 1155793">
                        <g id="Grupo_1154704" data-name="Grupo 1154704">
                          <g id="Grupo_1150790" data-name="Grupo 1150790">
                            <g id="Grupo_1154214" data-name="Grupo 1154214">
                              <g id="Grupo_1152583" data-name="Grupo 1152583">
                                <g id="Grupo_1146973" data-name="Grupo 1146973">
                                  <g id="Grupo_1146954" data-name="Grupo 1146954">
                                    <path id="Trazado_982547" data-name="Trazado 982547" d="M50,0a50,50,0,1,0,50,50A50,50,0,0,0,50,0Z" transform="translate(0)" fill="#fef9e7"/>
                                    <path id="Trazado_982547_-_Contorno" data-name="Trazado 982547 - Contorno" d="M50,3A47.013,47.013,0,0,0,31.706,93.308,47.013,47.013,0,0,0,68.294,6.692,46.7,46.7,0,0,0,50,3m0-3A50,50,0,1,1,0,50,50,50,0,0,1,50,0Z" transform="translate(0)" fill="#f8ce24"/>
                                  </g>
                                </g>
                              </g>
                            </g>
                          </g>
                        </g>
                      </g>
                    </g>
                  </g>
                </g>
              </g>
            </g>
          </g>
        </g>
      </g>
    </g>
    <g id="check_4944616" transform="translate(762.202 1250.587)">
      <g id="Grupo_1209504" data-name="Grupo 1209504" transform="translate(66.848 10.285)">
        <path id="Trazado_1048154" data-name="Trazado 1048154" d="M118.542,134.645H74.74a1.539,1.539,0,0,1-1.539-1.539V81.751a1.539,1.539,0,0,1,1.539-1.539h43.8a1.539,1.539,0,0,1,1.539,1.539v51.355A1.539,1.539,0,0,1,118.542,134.645Z" transform="translate(-73.201 -80.212)" fill="#98695e"/>
      </g>
      <g id="Grupo_1209505" data-name="Grupo 1209505" transform="translate(66.848 10.285)">
        <path id="Trazado_1048155" data-name="Trazado 1048155" d="M118.542,80.212h-.964v50.42a1.511,1.511,0,0,1-1.511,1.511H73.2v.964a1.539,1.539,0,0,0,1.539,1.539h43.8a1.539,1.539,0,0,0,1.539-1.539V81.751a1.539,1.539,0,0,0-1.539-1.539Z" transform="translate(-73.201 -80.212)" fill="#785252"/>
      </g>
      <g id="Grupo_1209506" data-name="Grupo 1209506" transform="translate(70.249 10.285)">
        <path id="Trazado_1048156" data-name="Trazado 1048156" d="M138.525,131.09H101.013a1.282,1.282,0,0,1-1.282-1.282V81.494a1.282,1.282,0,0,1,1.282-1.282h37.512a1.282,1.282,0,0,1,1.282,1.282v48.313A1.283,1.283,0,0,1,138.525,131.09Z" transform="translate(-99.731 -80.212)" fill="#f9f6f9"/>
      </g>
      <g id="Grupo_1209507" data-name="Grupo 1209507" transform="translate(70.249 10.285)">
        <path id="Trazado_1048157" data-name="Trazado 1048157" d="M138.524,80.212h-.932v47.417a1.246,1.246,0,0,1-1.246,1.246H99.73v.932a1.282,1.282,0,0,0,1.282,1.282h37.512a1.282,1.282,0,0,0,1.282-1.282V81.494a1.282,1.282,0,0,0-1.282-1.282Z" transform="translate(-99.73 -80.212)" fill="#f1eaf9"/>
      </g>
      <g id="Grupo_1209508" data-name="Grupo 1209508" transform="translate(73.293 44.045)">
        <path id="Trazado_1048158" data-name="Trazado 1048158" d="M130.5,343.943l-6.911,11.97a.9.9,0,0,0,.777,1.346h13.822a.9.9,0,0,0,.777-1.346l-6.911-11.97A.9.9,0,0,0,130.5,343.943Z" transform="translate(-123.465 -343.494)" fill="#ecb780"/>
      </g>
      <path id="Trazado_1048159" data-name="Trazado 1048159" d="M179.9,355.913l-6.911-11.97a.9.9,0,0,0-1.555,0l-1.011,1.752,6.677,11.565h2.023A.9.9,0,0,0,179.9,355.913Z" transform="translate(-91.107 -299.448)" fill="#e29375"/>
      <g id="Grupo_1209509" data-name="Grupo 1209509" transform="translate(82.766 0.935)">
        <path id="Trazado_1048160" data-name="Trazado 1048160" d="M210.765,10.566h-1.48a.746.746,0,0,1-.714-.511,3.964,3.964,0,0,0-7.557,0,.745.745,0,0,1-.714.511h-1.337a1.62,1.62,0,0,0-1.62,1.62v5.561a1.62,1.62,0,0,0,1.62,1.62h11.8a1.62,1.62,0,0,0,1.62-1.62V12.186A1.62,1.62,0,0,0,210.765,10.566Z" transform="translate(-197.342 -7.289)" fill="#e4d5f4"/>
      </g>
      <g id="Grupo_1209512" data-name="Grupo 1209512" transform="translate(82.766 1.081)">
        <g id="Grupo_1209510" data-name="Grupo 1209510" transform="translate(8.509)">
          <path id="Trazado_1048161" data-name="Trazado 1048161" d="M263.7,8.427a.763.763,0,0,0,.427.145A3.925,3.925,0,0,0,263.7,8.427Z" transform="translate(-263.702 -8.427)" fill="#ddc8f1"/>
        </g>
        <g id="Grupo_1209511" data-name="Grupo 1209511" transform="translate(0 3.131)">
          <path id="Trazado_1048162" data-name="Trazado 1048162" d="M210.766,32.845H209.4v4.2a1.62,1.62,0,0,1-1.62,1.62H197.343v1.365a1.62,1.62,0,0,0,1.62,1.62h11.8a1.62,1.62,0,0,0,1.62-1.62V34.465A1.62,1.62,0,0,0,210.766,32.845Z" transform="translate(-197.343 -32.845)" fill="#ddc8f1"/>
        </g>
      </g>
      <g id="Grupo_1209513" data-name="Grupo 1209513" transform="translate(74.409 18.532)">
        <circle id="Elipse_12686" data-name="Elipse 12686" cx="6.694" cy="6.694" r="6.694" transform="translate(0)" fill="#aaddb4"/>
      </g>
      <g id="Grupo_1209514" data-name="Grupo 1209514" transform="translate(75.294 19.417)">
        <path id="Trazado_1048163" data-name="Trazado 1048163" d="M148.2,151.427a6.693,6.693,0,0,1-9.134,9.134,6.693,6.693,0,1,0,9.134-9.134Z" transform="translate(-139.07 -151.427)" fill="#78d090"/>
      </g>
      <g id="Grupo_1209515" data-name="Grupo 1209515" transform="translate(73.293 34.291)">
        <path id="Trazado_1048164" data-name="Trazado 1048164" d="M130.5,267.873l-6.911,11.97a.9.9,0,0,0,.777,1.346h13.822a.9.9,0,0,0,.777-1.346l-6.911-11.97A.9.9,0,0,0,130.5,267.873Z" transform="translate(-123.465 -267.424)" fill="#ecb780"/>
      </g>
      <path id="Trazado_1048165" data-name="Trazado 1048165" d="M179.72,279.842l-6.911-11.97a.9.9,0,0,0-1.555,0l-1.038,1.8,6.651,11.519h2.075A.9.9,0,0,0,179.72,279.842Z" transform="translate(-90.929 -233.133)" fill="#e29375"/>
      <g id="Grupo_1209516" data-name="Grupo 1209516" transform="translate(65.913 0)">
        <path id="Trazado_1048166" data-name="Trazado 1048166" d="M113.727,232.839a.934.934,0,0,0-.935.935v9.451a.577.577,0,0,1-.576.576H68.358a.577.577,0,0,1-.576-.576V207.43a.935.935,0,0,0-1.869,0v35.794a2.448,2.448,0,0,0,2.445,2.445h43.859a2.448,2.448,0,0,0,2.445-2.445v-9.451A.935.935,0,0,0,113.727,232.839Z" transform="translate(-65.913 -180.017)"/>
        <path id="Trazado_1048167" data-name="Trazado 1048167" d="M112.217,9.351h-9.7a3.47,3.47,0,0,0-3.772-3.256,2.585,2.585,0,0,0-2.554-2.818h-1.35a4.9,4.9,0,0,0-9.245,0H84.386a2.585,2.585,0,0,0-2.554,2.818A3.47,3.47,0,0,0,78.06,9.351h-9.7A2.448,2.448,0,0,0,65.913,11.8V23.022a.935.935,0,1,0,1.869,0V11.8a.577.577,0,0,1,.576-.576h.982a2.17,2.17,0,0,0-.025.311V59.917A2.183,2.183,0,0,0,71.5,62.1H109.08a2.183,2.183,0,0,0,2.181-2.181V11.532a2.169,2.169,0,0,0-.025-.311h.982a.577.577,0,0,1,.576.576V49.445a.935.935,0,1,0,1.869,0V11.8a2.448,2.448,0,0,0-2.445-2.445ZM79.925,11.22h1.907a2.57,2.57,0,0,0,2.554,2.728h11.8a2.571,2.571,0,0,0,2.554-2.728h1.907v2.295c0,.322,0,1.433-1.558,1.433H81.482c-1.558,0-1.558-1.11-1.558-1.433ZM99.093,7.964a1.559,1.559,0,0,1,1.548,1.387h-1.9V7.964ZM83.7,5.832a.686.686,0,0,1,.685-.685h1.337a1.672,1.672,0,0,0,1.605-1.163,3.03,3.03,0,0,1,5.776,0,1.672,1.672,0,0,0,1.605,1.164h1.48a.686.686,0,0,1,.685.685v5.562a.686.686,0,0,1-.685.685h-11.8a.686.686,0,0,1-.685-.685V5.832ZM81.482,7.964h.349V9.351h-1.9a1.559,1.559,0,0,1,1.548-1.387Zm27.909,3.567V59.917a.312.312,0,0,1-.311.311H71.5a.312.312,0,0,1-.311-.311V11.532a.312.312,0,0,1,.311-.311h6.56v2.419c0,1,.445,3.177,3.427,3.177h17.61c2.982,0,3.427-2.177,3.427-3.177V11.22h6.56a.312.312,0,0,1,.312.312Z" transform="translate(-65.913 0)"/>
        <path id="Trazado_1048168" data-name="Trazado 1048168" d="M177.579,420.567a.98.98,0,1,0,.98.98A.98.98,0,0,0,177.579,420.567Z" transform="translate(-162.406 -366.639)"/>
        <path id="Trazado_1048169" data-name="Trazado 1048169" d="M132.508,152.494a7.628,7.628,0,1,0-7.628-7.628A7.637,7.637,0,0,0,132.508,152.494Zm0-13.388a5.759,5.759,0,1,1-5.759,5.759,5.766,5.766,0,0,1,5.759-5.759Z" transform="translate(-117.319 -119.639)"/>
        <path id="Trazado_1048170" data-name="Trazado 1048170" d="M155.939,181.677a1.31,1.31,0,0,0,1.85,0l3.414-3.414a.935.935,0,1,0-1.322-1.322l-3.017,3.017-1.309-1.309a.935.935,0,1,0-1.322,1.322Z" transform="translate(-142.67 -154.014)"/>
        <path id="Trazado_1048171" data-name="Trazado 1048171" d="M133.3,274.7a1.788,1.788,0,0,0,0-1.807l-1.016-1.76a.935.935,0,1,0-1.619.935l.962,1.667H117.938l6.847-11.859,3.675,6.366a.935.935,0,1,0,1.619-.935l-3.729-6.459a1.788,1.788,0,0,0-1.565-.9h0a1.789,1.789,0,0,0-1.565.9l-6.955,12.046a1.807,1.807,0,0,0,1.565,2.71h2.5l-4.067,7.044a1.807,1.807,0,0,0,1.565,2.71H131.74a1.807,1.807,0,0,0,1.565-2.71l-4.067-7.044h2.5A1.789,1.789,0,0,0,133.3,274.7Zm-1.672,8.789H117.938l4.553-7.885h1.344v2.519a.935.935,0,1,0,1.869,0V275.6h1.377Z" transform="translate(-109.595 -226.608)"/>
        <path id="Trazado_1048172" data-name="Trazado 1048172" d="M177.89,300.795a.934.934,0,0,0,.935-.935V297a.935.935,0,0,0-1.869,0v2.858A.934.934,0,0,0,177.89,300.795Z" transform="translate(-162.716 -258.104)"/>
        <path id="Trazado_1048173" data-name="Trazado 1048173" d="M177.579,346.458a.98.98,0,1,0-.98-.98A.98.98,0,0,0,177.579,346.458Z" transform="translate(-162.406 -300.324)"/>
        <path id="Trazado_1048174" data-name="Trazado 1048174" d="M263.834,172.255a.935.935,0,1,0,0,1.869h13.082a.935.935,0,1,0,0-1.869Z" transform="translate(-237.64 -150.167)"/>
        <path id="Trazado_1048175" data-name="Trazado 1048175" d="M276.915,203.993H263.834a.935.935,0,1,0,0,1.869h13.082a.935.935,0,1,0,0-1.869Z" transform="translate(-237.64 -177.835)"/>
        <path id="Trazado_1048176" data-name="Trazado 1048176" d="M263.834,237.6h5.217a.935.935,0,0,0,0-1.869h-5.217a.935.935,0,1,0,0,1.869Z" transform="translate(-237.64 -205.503)"/>
        <path id="Trazado_1048177" data-name="Trazado 1048177" d="M276.915,299.2H263.834a.935.935,0,1,0,0,1.869h13.082a.935.935,0,1,0,0-1.869Z" transform="translate(-237.64 -260.838)"/>
        <path id="Trazado_1048178" data-name="Trazado 1048178" d="M276.915,330.94H263.834a.935.935,0,1,0,0,1.869h13.082a.935.935,0,1,0,0-1.869Z" transform="translate(-237.64 -288.504)"/>
        <path id="Trazado_1048179" data-name="Trazado 1048179" d="M263.834,396.284h5.217a.935.935,0,1,0,0-1.869h-5.217a.935.935,0,1,0,0,1.869Z" transform="translate(-237.64 -343.84)"/>
        <path id="Trazado_1048180" data-name="Trazado 1048180" d="M276.915,426.151H263.834a.935.935,0,1,0,0,1.869h13.082a.935.935,0,1,0,0-1.869Z" transform="translate(-237.64 -371.507)"/>
      </g>
    </g>
  </g>
</svg>
