<svg xmlns="http://www.w3.org/2000/svg" xmlns:xlink="http://www.w3.org/1999/xlink" width="505" height="413.619" viewBox="0 0 505 413.619">
  <defs>
    <clipPath id="clip-path">
      <rect id="Rectángulo_419317" data-name="Rectángulo 419317" width="505" height="413.619" transform="translate(180 13143.151)" fill="#193141"/>
    </clipPath>
    <filter id="Rectángulo_418752" x="62.49" y="-6" width="380.019" height="434.242" filterUnits="userSpaceOnUse">
      <feOffset dy="3" input="SourceAlpha"/>
      <feGaussianBlur stdDeviation="3" result="blur"/>
      <feFlood flood-opacity="0.161"/>
      <feComposite operator="in" in2="blur"/>
      <feComposite in="SourceGraphic"/>
    </filter>
    <clipPath id="clip-path-2">
      <rect id="Rectángulo_419316" data-name="Rectángulo 419316" width="362.019" height="380.797" fill="none"/>
    </clipPath>
    <clipPath id="clip-path-4">
      <rect id="Rectángulo_419298" data-name="Rectángulo 419298" width="41.192" height="91.794" fill="none"/>
    </clipPath>
    <clipPath id="clip-path-6">
      <path id="Trazado_1049103" data-name="Trazado 1049103" d="M507.715,529.527a5.962,5.962,0,0,0-1.908,5.427,8.221,8.221,0,0,0,3.052,5.023,7.539,7.539,0,0,0,4.07,1.745c4.228.333,7.4-5.066,5.16-8.58-1.536-2.414-4.245-4.884-7.077-4.884a5.066,5.066,0,0,0-3.3,1.269" transform="translate(-505.736 -528.258)" fill="none"/>
    </clipPath>
    <linearGradient id="linear-gradient" x1="-5.376" y1="14.646" x2="-5.365" y2="14.646" gradientUnits="objectBoundingBox">
      <stop offset="0" stop-color="#efb6af"/>
      <stop offset="1" stop-color="#ffe4d9"/>
    </linearGradient>
    <clipPath id="clip-path-8">
      <rect id="Rectángulo_419304" data-name="Rectángulo 419304" width="61.211" height="10.864" fill="none"/>
    </clipPath>
    <clipPath id="clip-path-9">
      <rect id="Rectángulo_419302" data-name="Rectángulo 419302" width="10.94" height="10.645" fill="none"/>
    </clipPath>
    <clipPath id="clip-path-10">
      <rect id="Rectángulo_419303" data-name="Rectángulo 419303" width="7.757" height="10.864" fill="none"/>
    </clipPath>
    <clipPath id="clip-path-11">
      <path id="Trazado_1049109" data-name="Trazado 1049109" d="M660.258,734.952l2.813-7.343s-14.2-.48-19.494-3.247c0,0,.261,11.055,16.68,10.591" transform="translate(-643.578 -724.362)" fill="none"/>
    </clipPath>
    <linearGradient id="linear-gradient-2" x1="-6.596" y1="21.355" x2="-6.586" y2="21.355" xlink:href="#linear-gradient"/>
    <clipPath id="clip-path-12">
      <path id="Trazado_1049110" data-name="Trazado 1049110" d="M796.837,510.754c.071,3.045,2.818,5.516,5.783,6.213a8.293,8.293,0,0,0,6.7-1.166,6.2,6.2,0,0,0,2.524-6.124,3.389,3.389,0,0,0-.657-1.459,5.99,5.99,0,0,0-1.309-1.04,14.351,14.351,0,0,1-6.088-12.924Z" transform="translate(-796.837 -494.254)" fill="none"/>
    </clipPath>
    <linearGradient id="linear-gradient-3" x1="-5.501" y1="10.638" x2="-5.494" y2="10.638" xlink:href="#linear-gradient"/>
    <clipPath id="clip-path-14">
      <rect id="Rectángulo_419314" data-name="Rectángulo 419314" width="26.064" height="24.943" fill="none"/>
    </clipPath>
  </defs>
  <g id="Enmascarar_grupo_1098802" data-name="Enmascarar grupo 1098802" transform="translate(-180 -13143.151)" clip-path="url(#clip-path)">
    <g id="Grupo_1209236" data-name="Grupo 1209236" transform="translate(251.49 13143.151)">
      <g id="Grupo_1209235" data-name="Grupo 1209235">
        <g transform="matrix(1, 0, 0, 1, -71.49, 0)" filter="url(#Rectángulo_418752)">
          <rect id="Rectángulo_418752-2" data-name="Rectángulo 418752" width="362.019" height="416.242" rx="8" transform="translate(71.49)" fill="#65b3d1" opacity="0.39"/>
        </g>
      </g>
    </g>
    <g id="Grupo_1209981" data-name="Grupo 1209981" transform="translate(251.49 13175.974)">
      <g id="Grupo_1209980" data-name="Grupo 1209980" clip-path="url(#clip-path-2)">
        <g id="Grupo_1209955" data-name="Grupo 1209955">
          <g id="Grupo_1209954" data-name="Grupo 1209954" clip-path="url(#clip-path-2)">
            <path id="Trazado_1049063" data-name="Trazado 1049063" d="M1559.691,966.624q.276-2.182.5-4.379h-4.951V953.02H1552.5v9.224h-6.259V953.02H1543.5v9.224h-6.257V953.02H1534.5v9.224h-6.259V953.02H1525.5v9.224h-6.259V953.02H1516.5v9.224h-6.257V953.02H1507.5v9.224h-6.259V953.02H1498.5v123.475h2.741v-9.224h6.259v4.967q.411-.4.815-.813c.212-.212.423-.426.633-.639s.4-.408.6-.613q.348-.354.689-.709v-2.192h2.088q2.017-2.158,3.964-4.379h-6.052v-10h6.257v9.766q1.391-1.591,2.741-3.214v-6.551h5.213q.527-.7,1.047-1.4,1.1-1.481,2.17-2.983.288-.4.571-.805v-9.192h6.064c.064-.108.13-.214.2-.32q1.235-2.014,2.419-4.06c.108-.186.216-.374.322-.561v-9.438h5.049q.617-1.232,1.209-2.473.455-.95.9-1.906.947-2.038,1.842-4.1v-5.9h2.438q.857-2.176,1.656-4.379h-4.094v-10h6.259v3.66q.587-1.822,1.135-3.66.647-2.179,1.243-4.379c.124-.454.244-.909.364-1.367V981h2.034q.458-2.182.863-4.379h-2.9v-10Zm-58.45,0h6.259v10h-6.259Zm0,57.513h6.259v10h-6.259Zm6.259,24.376h-6.259v-10h6.259Zm-6.259-38.755h6.259v10h-6.259Zm0-14.379h6.259v10h-6.259Zm0-14.377h6.259v10h-6.259Zm6.259,81.889h-6.259v-10h6.259Zm9-14.379h-6.257v-10h6.257Zm0-14.377h-6.257v-10h6.257Zm0-14.379h-6.257v-10h6.257Zm0-14.379h-6.257v-10h6.257Zm0-14.379h-6.257V981h6.257Zm0-14.377h-6.257v-10h6.257Zm9,71.89h-6.259v-10h6.259Zm0-14.377h-6.259v-10h6.259Zm0-14.379h-6.259v-10h6.259Zm0-14.379h-6.259v-10h6.259Zm0-14.379h-6.259V981h6.259Zm0-14.377h-6.259v-10h6.259Zm9,57.513h-6.259v-10h6.259Zm0-14.379h-6.259v-10h6.259Zm0-14.379h-6.259v-10h6.259Zm0-14.379h-6.259V981h6.259Zm0-14.377h-6.259v-10h6.259Zm9,43.134h-6.257v-10h6.257Zm0-14.379h-6.257v-10h6.257Zm0-14.379h-6.257V981h6.257Zm0-14.377h-6.257v-10h6.257Zm9,14.377h-6.259V981h6.259Zm0-14.377h-6.259v-10h6.259Z" transform="translate(-1199.118 -762.619)" fill="#ada9ff"/>
            <path id="Trazado_1049064" data-name="Trazado 1049064" d="M1142.131,1456.88v64.136q-1.366.39-2.741.755V1456.88Z" transform="translate(-911.754 -1165.814)" fill="#ada9ff"/>
            <path id="Trazado_1049065" data-name="Trazado 1049065" d="M1187.181,1456.88v61.335q-1.367.465-2.741.909V1456.88Z" transform="translate(-947.804 -1165.814)" fill="#ada9ff"/>
            <path id="Trazado_1049066" data-name="Trazado 1049066" d="M1232.231,1456.88v58q-1.363.548-2.741,1.073V1456.88Z" transform="translate(-983.853 -1165.814)" fill="#ada9ff"/>
            <path id="Trazado_1049067" data-name="Trazado 1049067" d="M1277.271,1456.88v54.1q-1.367.638-2.741,1.249V1456.88Z" transform="translate(-1019.895 -1165.814)" fill="#ada9ff"/>
            <path id="Trazado_1049068" data-name="Trazado 1049068" d="M1322.321,1456.88v49.6q-1.364.731-2.741,1.438V1456.88Z" transform="translate(-1055.944 -1165.814)" fill="#ada9ff"/>
            <path id="Trazado_1049069" data-name="Trazado 1049069" d="M1367.371,1456.88v44.437q-1.363.836-2.741,1.644V1456.88Z" transform="translate(-1091.994 -1165.814)" fill="#ada9ff"/>
            <path id="Trazado_1049070" data-name="Trazado 1049070" d="M1412.411,1456.88v38.555q-1.36.95-2.741,1.872V1456.88Z" transform="translate(-1128.036 -1165.814)" fill="#ada9ff"/>
            <path id="Trazado_1049071" data-name="Trazado 1049071" d="M1457.461,1456.88v31.862q-1.36,1.079-2.741,2.13V1456.88Z" transform="translate(-1164.085 -1165.814)" fill="#ada9ff"/>
            <rect id="Rectángulo_419273" data-name="Rectángulo 419273" width="65.74" height="4.379" transform="translate(227.637 300.291)" fill="#ada9ff"/>
            <rect id="Rectángulo_419274" data-name="Rectángulo 419274" width="65.74" height="4.379" transform="translate(227.637 314.67)" fill="#ada9ff"/>
            <path id="Trazado_1049072" data-name="Trazado 1049072" d="M1196.949,1646.98q-.407.291-.819.575-1.361.95-2.741,1.872-1.462.98-2.945,1.932H1139.39v-4.379Z" transform="translate(-911.754 -1317.934)" fill="#ada9ff"/>
            <path id="Trazado_1049073" data-name="Trazado 1049073" d="M1172.765,1718.95q-1.807.893-3.634,1.742-1.367.638-2.741,1.249-1.588.71-3.193,1.389H1139.39v-4.379Z" transform="translate(-911.754 -1375.525)" fill="#ada9ff"/>
            <rect id="Rectángulo_419275" data-name="Rectángulo 419275" width="1.925" height="19.696" transform="translate(216.698 29.851)" fill="#ada9ff"/>
            <rect id="Rectángulo_419276" data-name="Rectángulo 419276" width="1.925" height="19.696" transform="translate(225.732 24.273)" fill="#ada9ff"/>
            <rect id="Rectángulo_419277" data-name="Rectángulo 419277" width="1.925" height="19.696" transform="translate(221.215 34.121)" fill="#ada9ff"/>
            <rect id="Rectángulo_419278" data-name="Rectángulo 419278" width="1.925" height="19.696" transform="translate(172.197 12.156)" fill="#c9c2ff"/>
            <rect id="Rectángulo_419279" data-name="Rectángulo 419279" width="1.925" height="19.696" transform="translate(176.714 16.006)" fill="#c9c2ff"/>
            <path id="Trazado_1049074" data-name="Trazado 1049074" d="M871.092,127.307V451.83a182.043,182.043,0,0,1-30.627,2.581q-8.274,0-16.365-.731V115.46l7.552,1.9,1.926.485,2.591.657h0l1.92.479h0Z" transform="translate(-659.455 -92.393)" fill="#ada9ff"/>
            <path id="Trazado_1049075" data-name="Trazado 1049075" d="M1080.244,183.545V494.414a179.159,179.159,0,0,1-20.934,4.869V174.76l5.061,2.124,1.926.807,2.591,1.089,1.926.807,2.591,1.089,1.926.807Z" transform="translate(-847.673 -139.845)" fill="#c9c2ff"/>
            <rect id="Rectángulo_419280" data-name="Rectángulo 419280" width="67.926" height="4.739" transform="translate(164.644 72.429)" fill="#e7e6ff"/>
            <rect id="Rectángulo_419281" data-name="Rectángulo 419281" width="67.926" height="4.739" transform="translate(164.644 122.975)" fill="#e7e6ff"/>
            <rect id="Rectángulo_419282" data-name="Rectángulo 419282" width="67.926" height="4.739" transform="translate(164.644 173.527)" fill="#e7e6ff"/>
            <rect id="Rectángulo_419283" data-name="Rectángulo 419283" width="67.926" height="4.739" transform="translate(164.644 222.222)" fill="#e7e6ff"/>
            <rect id="Rectángulo_419284" data-name="Rectángulo 419284" width="67.926" height="4.739" transform="translate(164.644 270.916)" fill="#e7e6ff"/>
            <rect id="Rectángulo_419285" data-name="Rectángulo 419285" width="67.926" height="4.739" transform="translate(164.644 319.61)" fill="#e7e6ff"/>
            <rect id="Rectángulo_419286" data-name="Rectángulo 419286" width="1.235" height="12.636" transform="translate(32.521 132.039)" fill="#ada9ff"/>
            <rect id="Rectángulo_419287" data-name="Rectángulo 419287" width="1.235" height="12.636" transform="translate(26.726 128.46)" fill="#ada9ff"/>
            <rect id="Rectángulo_419288" data-name="Rectángulo 419288" width="1.235" height="12.636" transform="translate(29.623 134.778)" fill="#ada9ff"/>
            <rect id="Rectángulo_419289" data-name="Rectángulo 419289" width="1.235" height="12.636" transform="translate(61.07 120.687)" fill="#c9c2ff"/>
            <rect id="Rectángulo_419290" data-name="Rectángulo 419290" width="1.235" height="12.636" transform="translate(58.172 123.157)" fill="#c9c2ff"/>
            <path id="Trazado_1049076" data-name="Trazado 1049076" d="M215.358,639.11V833.154a181.934,181.934,0,0,1-30.148-31.043V646.71l21.169-5.338h0l1.231-.308h0l1.662-.422,1.237-.312Z" transform="translate(-148.207 -511.424)" fill="#ada9ff"/>
            <path id="Trazado_1049077" data-name="Trazado 1049077" d="M131.42,677.15v155.4a180.568,180.568,0,0,1-13.43-20.3V682.786l3.153-1.323,1.235-.519,1.662-.7,1.237-.519,1.662-.7,1.235-.517Z" transform="translate(-94.417 -541.864)" fill="#c9c2ff"/>
            <rect id="Rectángulo_419291" data-name="Rectángulo 419291" width="43.577" height="3.04" transform="translate(23.573 159.354)" fill="#e7e6ff"/>
            <rect id="Rectángulo_419292" data-name="Rectángulo 419292" width="43.577" height="3.04" transform="translate(23.573 191.781)" fill="#e7e6ff"/>
            <rect id="Rectángulo_419293" data-name="Rectángulo 419293" width="43.577" height="3.04" transform="translate(23.573 224.212)" fill="#e7e6ff"/>
            <rect id="Rectángulo_419294" data-name="Rectángulo 419294" width="43.577" height="3.04" transform="translate(23.573 258.397)" fill="#e7e6ff"/>
            <path id="Trazado_1049078" data-name="Trazado 1049078" d="M1424.726,678.1h7.625l10.4,209.353h-28.422Z" transform="translate(-1131.763 -542.626)" fill="#5858e0"/>
            <path id="Trazado_1049079" data-name="Trazado 1049079" d="M975.4,675.32h149.736v-6.47L975.4,671.623Z" transform="translate(-780.525 -535.222)" fill="#5858e0"/>
            <rect id="Rectángulo_419295" data-name="Rectángulo 419295" width="29.462" height="19.064" transform="translate(315.146 131.086)" fill="#5858e0"/>
            <path id="Trazado_1049080" data-name="Trazado 1049080" d="M1004.312,722.308l92.253-23.092-.337-1.345-90.53,22.661V698.543h-1.387Z" transform="translate(-803.663 -558.445)" fill="#5858e0"/>
            <path id="Trazado_1049081" data-name="Trazado 1049081" d="M1481.989,604.825h1.386V558.873l32.067,18.132.682-1.206-34.136-19.3Z" transform="translate(-1185.906 -445.316)" fill="#5858e0"/>
            <rect id="Rectángulo_419296" data-name="Rectángulo 419296" width="98.836" height="1.387" transform="translate(201.162 137.407) rotate(-15.076)" fill="#5858e0"/>
            <rect id="Rectángulo_419297" data-name="Rectángulo 419297" width="28.018" height="17.562" transform="translate(187.334 168.347)" fill="#5858e0"/>
            <path id="Trazado_1049082" data-name="Trazado 1049082" d="M955.693,820.066l9.765-6.88,9.652,6.878.8-1.129-10.452-7.448-10.568,7.446Z" transform="translate(-764.118 -649.362)" fill="#5858e0"/>
            <path id="Trazado_1049083" data-name="Trazado 1049083" d="M189.363,50.144a34.946,34.946,0,1,0-22.219,18.574,16.724,16.724,0,0,1,13.2,1.845l8.945,5.485a1.645,1.645,0,0,0,2.449-1.83l-3.4-12.629a16.5,16.5,0,0,1,1.022-11.444" transform="translate(-98.294 0)" fill="#fff"/>
            <path id="Trazado_1049084" data-name="Trazado 1049084" d="M1343.035,24.532c-3.012,48.894-31.6,68.841-41.42,74.289a6.795,6.795,0,0,1-6.588,0c-9.821-5.448-38.408-25.395-41.42-74.289a6.815,6.815,0,0,1,7.141-7.247c7.873.437,20.772-1.426,32.4-14.914a6.824,6.824,0,0,1,10.342,0c11.633,13.487,24.532,15.351,32.405,14.914a6.813,6.813,0,0,1,7.138,7.247" transform="translate(-1003.141 0)" fill="#61bac9"/>
            <g id="Grupo_1209953" data-name="Grupo 1209953" transform="translate(253.988 3.94)" opacity="0.3">
              <g id="Grupo_1209952" data-name="Grupo 1209952">
                <g id="Grupo_1209951" data-name="Grupo 1209951" clip-path="url(#clip-path-4)">
                  <path id="Trazado_1049085" data-name="Trazado 1049085" d="M1312.48,19.715V111.51a6.25,6.25,0,0,1-3.034-.784c-9.044-5.017-35.372-23.388-38.146-68.417a6.276,6.276,0,0,1,6.576-6.674c7.25.4,19.13-1.314,29.842-13.735a6.262,6.262,0,0,1,4.762-2.184" transform="translate(-1271.288 -19.716)" fill="#fff"/>
                </g>
              </g>
            </g>
            <path id="Trazado_1049086" data-name="Trazado 1049086" d="M1396.386,161.52a26.981,26.981,0,1,1-26.981-26.981,26.981,26.981,0,0,1,26.981,26.981" transform="translate(-1074.224 -107.66)" fill="#4545c4"/>
            <path id="Trazado_1049087" data-name="Trazado 1049087" d="M1382.689,194.23l-16.338-16.811,6.363-6.184,10.135,10.428,28.638-28,6.2,6.344Z" transform="translate(-1093.371 -122.963)" fill="#fff"/>
            <path id="Trazado_1049088" data-name="Trazado 1049088" d="M202.036,47.726A31.716,31.716,0,1,1,170.319,16.01a31.716,31.716,0,0,1,31.716,31.716" transform="translate(-110.912 -12.811)" fill="#c9c2ff"/>
            <path id="Trazado_1049089" data-name="Trazado 1049089" d="M181.766,149.542a6.3,6.3,0,1,1-6.3-6.3,6.3,6.3,0,0,1,6.3,6.3" transform="translate(-135.375 -114.627)" fill="#fff"/>
            <path id="Trazado_1049090" data-name="Trazado 1049090" d="M278.43,149.542a6.3,6.3,0,1,1-6.3-6.3,6.3,6.3,0,0,1,6.3,6.3" transform="translate(-212.727 -114.627)" fill="#fff"/>
            <path id="Trazado_1049091" data-name="Trazado 1049091" d="M375.1,149.542a6.3,6.3,0,1,1-6.3-6.3,6.3,6.3,0,0,1,6.3,6.3" transform="translate(-290.079 -114.627)" fill="#fff"/>
          </g>
        </g>
        <g id="Grupo_1209957" data-name="Grupo 1209957">
          <g id="Grupo_1209956" data-name="Grupo 1209956" clip-path="url(#clip-path-2)">
            <path id="Trazado_1049092" data-name="Trazado 1049092" d="M902.352,914.553c-9.186,5.992-16.217,20.534-27.918,28.723a30.84,30.84,0,0,1-17.034,5.84c-26.444.905-41.328-27.984-41.328-27.984s-5.918-36.148,7.816-60.122c0,0,9.338,64.731,32.913,66.329s38.359-24.774,38.359-24.774l5.394-5.794s27.918-11.066,32.765,1.4c5.594,14.385-21.777,10.389-30.967,16.383" transform="translate(-652.016 -688.991)" fill="#df3e5f"/>
            <path id="Trazado_1049093" data-name="Trazado 1049093" d="M359.662,419.939s-23.733-13.416-39.181,8.531c-14.759,20.967,14.59,33.251,10.646,47.6a1.124,1.124,0,0,0,1.454,1.376,18.791,18.791,0,0,0,8.825-6.472,1.132,1.132,0,0,1,1.977.269l.727,1.941a1.134,1.134,0,0,0,2.042.173c2.218-3.829,6.142-12.785.995-21.8-6.736-11.8-2.865-26.453,12.814-25.876,0,0,5.956-3.206-.3-5.732" transform="translate(-253.105 -332.792)" fill="#1c2e42"/>
            <path id="Trazado_1049094" data-name="Trazado 1049094" d="M285.573,924.453c1.506,7.168,109.535,12.757,108.651-11.884-1.709-47.618-20.257-56.04-6.8-106.73,2.8-10.554,5.86-21.214,5.939-32.168,2.39-18.893-13.062-28.323-27.955-35.859-22.049-11.646-55.2-7.09-66.213,17.452-10.84,30.112,13.465,64.728-1.959,95.363-3.852,9.588-22.34,23.006-11.661,73.825" transform="translate(-225.895 -585.515)" fill="#df3e5f"/>
            <path id="Trazado_1049095" data-name="Trazado 1049095" d="M560.919,770.012l-1.586,1.493a11.132,11.132,0,0,0-1.9,13.85l5.5,9.133a5.057,5.057,0,0,0,7.857,1.014l5.154-5.013,5.39,6.252a5.057,5.057,0,0,0,8.249-.844,17.878,17.878,0,0,0-1.412-19.536Z" transform="translate(-444.785 -616.173)" fill="#ba274a"/>
            <path id="Trazado_1049096" data-name="Trazado 1049096" d="M385.959,1510.045l-.412,3.314-1.714,13.779-.589,4.739v.01l-1.231,9.891-3.38,27.2-2.405,19.347H331.9l.645-21.635a2.168,2.168,0,0,0-2.168-2.224h-4.831a2.164,2.164,0,0,0-2.156,1.944l-2.939,21.331-.08.583H267.679l-1.566-46.547-.334-9.9-.509-15.162-.26-7.708,3.9.034,10.305.088,3.984.034,31.267.268,22.82.194,5.224.046,2.579.022,1.824.016,1.049.008,1.289.012,23.863.2,3.6.03,1.013.008,2.7.024Z" transform="translate(-212.064 -1207.529)" fill="#263f5e"/>
            <path id="Trazado_1049097" data-name="Trazado 1049097" d="M512.936,505.864s-9.305,1.519-18.9-15.169.18-33.665.18-33.665Z" transform="translate(-391.964 -365.721)" fill="#263f5e"/>
            <path id="Trazado_1049098" data-name="Trazado 1049098" d="M385.548,1513.359l-3.534,28.42H354.145l-6.559-7.73-7.278,7.73h-74.2l-1.1-32.769,115.413.987Z" transform="translate(-212.064 -1207.529)" fill="#1c2e42"/>
            <path id="Trazado_1049099" data-name="Trazado 1049099" d="M552.856,361.05v0c.024.169.051.338.076.508,1.167,7.682,2.566,15.865,7.866,21.543.4.435.828.846,1.266,1.239,4.089,3.669,9.552,5.615,14.977,6.718,9.1,1.855,18.742,1.638,27.469-1.541a38.682,38.682,0,0,0,14.907-9.73,32.812,32.812,0,0,0,5.63-8.081c.009-.021.021-.042.03-.063a36.84,36.84,0,0,0,3.182-10.362c.257-1.572.426-3.164.532-4.768a91.88,91.88,0,0,0-.632-16.016c-.7-6.283-1.677-12.622-4.194-18.421-9.162-21.117-38.2-20.147-55.31-9.655-5.881,3.605-11.048,8.6-14.046,14.813-4.986,10.329-3.469,22.452-1.753,33.815" transform="translate(-441.092 -244.199)" fill="#ffe4d9"/>
            <path id="Trazado_1049100" data-name="Trazado 1049100" d="M529.488,421.419s2.9,8.082-3.439,11.648c0,0-.716,6.4-6.351,3.562l-4.837,1.957a26.268,26.268,0,0,1-3.033-11.479c-.1-6.405,15.6-9.772,17.66-5.687" transform="translate(-409.571 -335.797)" fill="#1c2e42"/>
            <path id="Trazado_1049101" data-name="Trazado 1049101" d="M609.377,266.886c-19.943,2.791-57.932-1.295-73.594-3.215a35.143,35.143,0,0,0-24.676,5.292c-2.146-22.92,14.974-46.954,44.8-46.954,25.121,0,36.379,14.722,40.439,22.082a16.434,16.434,0,0,0,5.58,5.944c5.294,3.356,8.4,8.567,10.023,12.151a3.346,3.346,0,0,1-2.571,4.7" transform="translate(-408.85 -177.655)" fill="#ffc83d"/>
            <path id="Trazado_1049102" data-name="Trazado 1049102" d="M480.508,500.837a11.232,11.232,0,0,0-3.594,10.223,15.485,15.485,0,0,0,5.749,9.463,14.2,14.2,0,0,0,7.668,3.287c7.965.626,13.933-9.544,9.72-16.162-4.019-6.315-12.3-12.837-19.544-6.811" transform="translate(-381.525 -398.863)" fill="#ffe4d9"/>
          </g>
        </g>
        <g id="Grupo_1209959" data-name="Grupo 1209959" transform="translate(101.04 105.539)">
          <g id="Grupo_1209958" data-name="Grupo 1209958" clip-path="url(#clip-path-6)">
            <rect id="Rectángulo_419301" data-name="Rectángulo 419301" width="18.416" height="18.971" transform="translate(-5.106 11.78) rotate(-67.521)" fill="url(#linear-gradient)"/>
          </g>
        </g>
        <g id="Grupo_1209970" data-name="Grupo 1209970">
          <g id="Grupo_1209969" data-name="Grupo 1209969" clip-path="url(#clip-path-2)">
            <path id="Trazado_1049104" data-name="Trazado 1049104" d="M577.86,641.632c-.845,2.253-1.7,4.664-1.186,7.015.715,3.251,3.826,5.377,6.87,6.724a35.325,35.325,0,0,0,11.971,2.938,7.742,7.742,0,0,0,4.91-.893c1.432-.978,2.129-2.7,2.749-4.317l7.978-20.826c.991-2.587,1.988-5.457,1.029-8.055a10.3,10.3,0,0,0-3.567-4.243A44.7,44.7,0,0,0,595.994,613c-2.8-1-8.887-3.858-9.618-.527-.283,1.288.863,3.208.622,4.748-.4,2.561-2,5.381-2.912,7.809l-6.225,16.6" transform="translate(-461.336 -488.856)" fill="#ffe4d9"/>
            <g id="Grupo_1209968" data-name="Grupo 1209968" transform="translate(125.955 116.582)" opacity="0.7">
              <g id="Grupo_1209967" data-name="Grupo 1209967">
                <g id="Grupo_1209966" data-name="Grupo 1209966" clip-path="url(#clip-path-8)">
                  <g id="Grupo_1209962" data-name="Grupo 1209962" transform="translate(0 0.148)" opacity="0.2">
                    <g id="Grupo_1209961" data-name="Grupo 1209961">
                      <g id="Grupo_1209960" data-name="Grupo 1209960" clip-path="url(#clip-path-9)">
                        <path id="Trazado_1049105" data-name="Trazado 1049105" d="M630.447,589.59c-.1,7.1,11.043,7.1,10.939,0,.1-7.1-11.043-7.1-10.939,0" transform="translate(-630.446 -584.268)" fill="#df3e5f"/>
                      </g>
                    </g>
                  </g>
                  <g id="Grupo_1209965" data-name="Grupo 1209965" transform="translate(53.454)" opacity="0.2">
                    <g id="Grupo_1209964" data-name="Grupo 1209964">
                      <g id="Grupo_1209963" data-name="Grupo 1209963" clip-path="url(#clip-path-10)">
                        <path id="Trazado_1049106" data-name="Trazado 1049106" d="M898,589a5.467,5.467,0,0,0,4.575,5.394,36.832,36.832,0,0,0,3.182-10.362,5.41,5.41,0,0,0-2.288-.5A5.47,5.47,0,0,0,898,589" transform="translate(-898 -583.529)" fill="#df3e5f"/>
                      </g>
                    </g>
                  </g>
                </g>
              </g>
            </g>
            <path id="Trazado_1049107" data-name="Trazado 1049107" d="M748.216,629.458c-.518-.1-1.018-.178-1.5-.238-.245-.04-.484-.065-.723-.1s-.474-.06-.707-.091c-.932-.12-1.826-.234-2.687-.377a24.594,24.594,0,0,1-4.754-1.19,14.882,14.882,0,0,1-4.02-2.285,13.2,13.2,0,0,1-1.795-1.709c-.141-.163-.27-.336-.418-.508-.133-.177-.258-.362-.4-.55-.121-.193-.251-.392-.388-.6s-.239-.427-.384-.653l-.252.012a8.191,8.191,0,0,0,.593,2.828,9.741,9.741,0,0,0,1.5,2.484,11.344,11.344,0,0,0,4.688,3.341,14.9,14.9,0,0,0,5.688.864,20.826,20.826,0,0,0,2.858-.307,26.029,26.029,0,0,0,2.783-.68Z" transform="translate(-584.298 -497.06)" fill="#df3e5f"/>
            <path id="Trazado_1049108" data-name="Trazado 1049108" d="M861.847,474.377a4.856,4.856,0,0,0,.148-.744,6.453,6.453,0,0,0,.012-.744,7.221,7.221,0,0,0-.1-.74c-.051-.243-.125-.478-.2-.725s-.187-.461-.289-.7-.243-.438-.372-.661-.286-.417-.44-.622c-.164-.189-.328-.386-.507-.568a8.3,8.3,0,0,0-2.468-1.716,9.469,9.469,0,0,0-8.425.293c-.21.117-.413.251-.613.378s-.391.283-.576.436-.366.313-.536.483-.332.353-.486.536-.295.386-.427.587-.251.417-.357.636a6.865,6.865,0,0,0-.276.68,4.942,4.942,0,0,0-.166.736l.239.27a9.672,9.672,0,0,1,1.885-1.183,10.653,10.653,0,0,1,2.084-.761,11.9,11.9,0,0,1,4.4-.3,10.056,10.056,0,0,1,4.156,1.379,7.987,7.987,0,0,1,2.973,3.195Z" transform="translate(-676.803 -373.148)" fill="#1c2e42"/>
          </g>
        </g>
        <g id="Grupo_1209972" data-name="Grupo 1209972" transform="translate(128.579 144.718)">
          <g id="Grupo_1209971" data-name="Grupo 1209971" clip-path="url(#clip-path-11)">
            <rect id="Rectángulo_419306" data-name="Rectángulo 419306" width="19.493" height="11.055" transform="translate(0 0)" fill="url(#linear-gradient-2)"/>
          </g>
        </g>
        <g id="Grupo_1209974" data-name="Grupo 1209974" transform="translate(159.198 98.746)">
          <g id="Grupo_1209973" data-name="Grupo 1209973" clip-path="url(#clip-path-12)">
            <rect id="Rectángulo_419307" data-name="Rectángulo 419307" width="27.818" height="26.676" transform="translate(-11.371 14.032) rotate(-50.981)" fill="url(#linear-gradient-3)"/>
          </g>
        </g>
        <g id="Grupo_1209979" data-name="Grupo 1209979">
          <g id="Grupo_1209978" data-name="Grupo 1209978" clip-path="url(#clip-path-2)">
            <path id="Trazado_1049111" data-name="Trazado 1049111" d="M749.912,645.387s1.007-1.96-2.367-3.02a11.123,11.123,0,0,0-6.4,0Z" transform="translate(-593.077 -513.653)" fill="#df3e5f"/>
            <path id="Trazado_1049112" data-name="Trazado 1049112" d="M782.878,653.507s.678-1.318-1.593-2.032a5.953,5.953,0,0,0-4.568.857Z" transform="translate(-621.539 -521.17)" fill="#df3e5f"/>
            <path id="Trazado_1049113" data-name="Trazado 1049113" d="M656.52,475.476a7.585,7.585,0,0,0-.214-.933c-.107-.294-.226-.591-.363-.884s-.312-.554-.481-.836c-.183-.263-.384-.514-.587-.777-.217-.238-.446-.471-.679-.707-.242-.218-.5-.424-.756-.632s-.537-.38-.817-.56c-.285-.159-.573-.328-.87-.474a11.76,11.76,0,0,0-3.778-1.092,13.194,13.194,0,0,0-3.894.122,12.982,12.982,0,0,0-6.823,3.474c-.231.226-.445.475-.661.712s-.4.51-.591.772-.358.54-.519.818-.3.575-.433.864-.236.6-.335.9-.167.62-.227.93-.082.635-.106.945a7.536,7.536,0,0,0,.046.955l.33.145a10.993,10.993,0,0,1,1.765-2.605,12.483,12.483,0,0,1,2.379-2.05,15.119,15.119,0,0,1,5.81-2.316,14.108,14.108,0,0,1,6.234.22,10.758,10.758,0,0,1,5.293,3.237Z" transform="translate(-507.644 -374.892)" fill="#1c2e42"/>
            <path id="Trazado_1049114" data-name="Trazado 1049114" d="M860.684,520.886c.158-.456.3-.873.457-1.255a5.744,5.744,0,0,1,.542-1.011,3.355,3.355,0,0,1,1.309-1.168l.177-.083c.063-.023.12-.05.183-.07a3.91,3.91,0,0,1,.372-.125,5.939,5.939,0,0,1,.8-.163,7.961,7.961,0,0,1,1.761-.023,8.492,8.492,0,0,1,1.761.361,6.968,6.968,0,0,1,.8.319c.128.06.248.129.368.2.06.034.124.067.179.105a2.024,2.024,0,0,1,.171.115,3.557,3.557,0,0,1,1.173,1.329,4.946,4.946,0,0,1,.39,1.055c.1.4.17.828.243,1.3l.232.088a5.926,5.926,0,0,0,.468-2.558,4.494,4.494,0,0,0-.946-2.455,5.7,5.7,0,0,0-2.072-1.623,7.7,7.7,0,0,0-2.527-.7,7.346,7.346,0,0,0-2.616.212,5.221,5.221,0,0,0-2.308,1.278,4.48,4.48,0,0,0-1.236,2.323,5.731,5.731,0,0,0-.094,1.309,8.36,8.36,0,0,0,.164,1.288Z" transform="translate(-688.399 -411.699)" fill="#1c2e42"/>
            <path id="Trazado_1049115" data-name="Trazado 1049115" d="M678.462,524.409c.174-.248.317-.484.46-.712.036-.057.065-.114.1-.169l.117-.163c.079-.107.147-.213.22-.315l.107-.153c.018-.025.035-.05.051-.075l.058-.073.228-.28c.078-.09.141-.183.213-.27l.236-.244c.078-.079.145-.159.216-.236s.16-.141.238-.209.149-.136.22-.2.16-.119.237-.177.156-.112.225-.171.161-.1.238-.147l.223-.146c.083-.039.16-.081.236-.122a7.721,7.721,0,0,1,1.86-.684,9.05,9.05,0,0,1,1.964-.231,10.205,10.205,0,0,1,2.024.183,9.646,9.646,0,0,1,2.022.624c.084.038.169.076.259.11s.163.089.248.133l.262.131c.08.052.166.1.251.152l.263.157c.082.059.16.122.249.181l.266.184c.087.065.159.141.249.209l.266.215c.093.072.16.159.252.237.17.163.357.328.519.515.086.092.166.188.259.283a3.362,3.362,0,0,1,.263.3c.171.205.344.421.547.643l.327-.045a8.944,8.944,0,0,0-.853-2.972,8.024,8.024,0,0,0-1.913-2.462,8.293,8.293,0,0,0-2.711-1.56,9.2,9.2,0,0,0-3.087-.518,8.552,8.552,0,0,0-3.076.6,7.365,7.365,0,0,0-2.611,1.74,7.245,7.245,0,0,0-1.616,2.674,9.087,9.087,0,0,0-.439,3.061Z" transform="translate(-542.648 -413.173)" fill="#1c2e42"/>
            <path id="Trazado_1049116" data-name="Trazado 1049116" d="M669.282,523.6a7.2,7.2,0,0,1-5.052-.276.165.165,0,0,0-.228.207,2.871,2.871,0,0,0,1.366,1.643.165.165,0,0,1,.061.255,2.6,2.6,0,0,1-2.437.843.166.166,0,0,0-.131.287,3.465,3.465,0,0,0,4.074.272c2.3-1.146,2.555-2.537,2.561-3.073a.165.165,0,0,0-.215-.158" transform="translate(-530.385 -418.76)" fill="#1c2e42"/>
            <path id="Trazado_1049117" data-name="Trazado 1049117" d="M910.287,523.774a4.8,4.8,0,0,0,3.349.388.11.11,0,0,1,.126.161,1.912,1.912,0,0,1-1.082.925.11.11,0,0,0-.069.16,1.732,1.732,0,0,0,1.506.828.111.111,0,0,1,.053.2,2.309,2.309,0,0,1-2.706-.281c-1.381-1.012-1.392-1.954-1.336-2.307a.11.11,0,0,1,.159-.08" transform="translate(-728.283 -419.121)" fill="#1c2e42"/>
            <path id="Trazado_1049118" data-name="Trazado 1049118" d="M376.132,914.218a3.175,3.175,0,0,1-3.173,3.075H348.248a11.017,11.017,0,0,1-10.553-7.852l-1.474-4.915-3.257,6.617a11.02,11.02,0,0,1-9.883,6.149H253.936a4.008,4.008,0,0,1-4-4.289,156.7,156.7,0,0,1,3.9-24.708,179.769,179.769,0,0,1,6.891-22.458c1.359-3.572,2.885-7.242,4.6-10.98.909-1.984,1.754-4.09,2.537-6.3a116.441,116.441,0,0,0,3.532-12.231c.679-2.885,1.285-5.858,1.828-8.887.679-3.784,1.259-7.656,1.752-11.55,4.01-31.592,2.369-64.693,2.337-65.317v-.008a56.875,56.875,0,0,1,7.754-4.649,58.463,58.463,0,0,1,5.658-2.5c1.44-.543,2.953-1.047,4.523-1.47a40.259,40.259,0,0,1,4.647-.983l32.517,53.951,22.514-40.477a18.237,18.237,0,0,1,4.265.923,21.661,21.661,0,0,1,3.133,1.361,27.554,27.554,0,0,1,4.911,3.36c.705.6,1.339,1.191,1.894,1.746a27.583,27.583,0,0,1,2.735,3.119s-5.87,35.62-7.908,61.245c-.176,2.2-.324,4.329-.436,6.355a97.569,97.569,0,0,0-.026,13.677,20.939,20.939,0,0,0,.483,3.033,56.471,56.471,0,0,0,1.844,5.806c1.738,4.7,3.946,9.494,5.882,15.873a104.6,104.6,0,0,1,4.108,23.155,188.631,188.631,0,0,1,.316,20.121" transform="translate(-199.997 -592.933)" fill="#ffc83d"/>
            <path id="Trazado_1049119" data-name="Trazado 1049119" d="M299.993,955.767H253.936a4.008,4.008,0,0,1-4-4.289,156.7,156.7,0,0,1,3.9-24.708,179.769,179.769,0,0,1,6.891-22.458c1.359-3.572,2.885-7.242,4.6-10.98.909-1.984,1.754-4.09,2.537-6.3A116.441,116.441,0,0,0,271.4,874.8c.679-2.885,1.285-5.858,1.828-8.887.679-3.784,1.259-7.656,1.752-11.55,4.01-31.592,2.369-64.693,2.337-65.317.322.148,21.2,9.884,20.542,38.741-.663,29.079-32.729,93.563-25.837,109.12s27.97,18.856,27.97,18.856" transform="translate(-199.997 -631.408)" fill="#f0b225"/>
            <path id="Trazado_1049120" data-name="Trazado 1049120" d="M437.67,1201.417c-16.5,4.579-46.766,9.136-85.032-2.174q-6.323-1.867-12.928-4.335a116.45,116.45,0,0,0,3.532-12.231c.679-2.885,1.285-5.858,1.828-8.886,2.329.621,7.65,1.97,14.894,3.4,18.474,3.642,49.475,7.8,75.4,1.71a97.576,97.576,0,0,0-.026,13.677,20.938,20.938,0,0,0,.484,3.033,56.465,56.465,0,0,0,1.844,5.806" transform="translate(-271.84 -939.281)" fill="#fff"/>
            <path id="Trazado_1049121" data-name="Trazado 1049121" d="M391.476,1394.23a415.57,415.57,0,0,1-104.733-2.855q-8.448-1.277-17.244-2.947a179.768,179.768,0,0,1,6.891-22.458c4.441.6,9.612,1.247,15.358,1.892,25.213,2.827,61.481,5.544,95.62,3.213a104.6,104.6,0,0,1,4.108,23.155" transform="translate(-215.657 -1093.066)" fill="#fff"/>
            <path id="Trazado_1049122" data-name="Trazado 1049122" d="M276.391,1365.97c4.441.6,9.612,1.247,15.358,1.892-2.763,9.272-4.735,17.475-5,23.513q-8.448-1.277-17.244-2.947a179.768,179.768,0,0,1,6.891-22.458" transform="translate(-215.657 -1093.066)" fill="#c9c2ff"/>
            <path id="Trazado_1049123" data-name="Trazado 1049123" d="M359.964,1177.19c-2.385,7.346-4.939,14.832-7.326,22.052q-6.323-1.867-12.928-4.335a116.45,116.45,0,0,0,3.532-12.231c.679-2.885,1.285-5.858,1.828-8.886,2.329.621,7.65,1.97,14.894,3.4" transform="translate(-271.84 -939.281)" fill="#c9c2ff"/>
            <path id="Trazado_1049124" data-name="Trazado 1049124" d="M662.8,1011.01s10.631,51.645,3.8,109.605Z" transform="translate(-530.381 -809.023)" fill="#f0b225"/>
            <path id="Trazado_1049125" data-name="Trazado 1049125" d="M643.367,1340.474s8.385-8.089,12.565-6.043-2.3,10.389-2.3,10.389Z" transform="translate(-514.83 -1067.563)" fill="#ffe4d9"/>
            <path id="Trazado_1049126" data-name="Trazado 1049126" d="M1182.375,959.01l-26.072,78.217,52.145,11.987,22.776-79.815Z" transform="translate(-925.288 -767.412)" fill="#1c2e42"/>
            <path id="Trazado_1049127" data-name="Trazado 1049127" d="M1172.133,1074.96l-2.664,7.326,47.549,10.655,21.843-75.75Z" transform="translate(-935.824 -813.969)" fill="#e7e6ff"/>
            <path id="Trazado_1049128" data-name="Trazado 1049128" d="M1208.614,977.716s-6.915,41.36-30.9,68.691l-42.5-9.961-3.55-.831s19.24-16.135,32.591-67.754l18.3,4.068Z" transform="translate(-905.577 -774.494)" fill="#fff"/>
            <path id="Trazado_1049129" data-name="Trazado 1049129" d="M1379.51,951.316l-4.636-5.26a4.308,4.308,0,0,0-4.958-1.108l-6.974,3.022-.794-1.833,6.974-3.022a6.3,6.3,0,0,1,7.252,1.62l4.636,5.26Z" transform="translate(-1090.008 -754.273)" fill="#e7e6ff"/>
            <path id="Trazado_1049130" data-name="Trazado 1049130" d="M1326.8,956.8l2.131-7.792,27.97,6.393-1.944,7.171Z" transform="translate(-1061.724 -759.41)" fill="#c9c2ff"/>
            <path id="Trazado_1049131" data-name="Trazado 1049131" d="M1182.45,974.3s-12.335,6.473-14.94,12.667-.491,7.608-2.092,11.833-11.47,8.537-11.47,8.537-10.359,18.57-18.728,29.105l-3.55-.831s19.24-16.135,32.591-67.754l7.065,1.57-.671,2.455Z" transform="translate(-905.577 -774.494)" fill="#e7e6ff"/>
            <path id="Trazado_1049132" data-name="Trazado 1049132" d="M1266.418,1133.009l-4.335-.919-1.572,4.649.386.082,5.027,1.053,1.361-4.681Zm-.873,4.3-4.024-.843-.346-.072,1.265-3.742,3.536.751.663.14Z" transform="translate(-1008.676 -905.913)" fill="#263f5e"/>
            <path id="Trazado_1049133" data-name="Trazado 1049133" d="M1285.425,1076.687l-2.437-.573-1.037-.244-1.57,5.151,1.133.262,3.562.827.717.166,1.359-5.182Zm-.01,4.963-.322-.074-3.333-.773-.715-.166,1.263-4.146.631.148,2.381.559,1.189.28Z" transform="translate(-1024.576 -860.925)" fill="#263f5e"/>
            <path id="Trazado_1049134" data-name="Trazado 1049134" d="M1305.423,1021.317l-2.763-.651h0l-.5-.116-.068.222-.388,1.269-.639,2.094-.477,1.564,3.682.855,1.73.4.8-3.061v0l.557-2.12Zm.663,3.253-.461,1.76-.979-.228-3.391-.785.419-1.372.621-2.04.224-.733,2.417.567a.007.007,0,0,1,.006,0l.174.04,1.6.378-.633,2.409Z" transform="translate(-1040.748 -816.657)" fill="#263f5e"/>
            <path id="Trazado_1049135" data-name="Trazado 1049135" d="M1236.236,1181.68l-1.626,3.728,5.6.909,1.411-3.752Zm3.588,4.185-4.527-.735,1.311-3,4.349.715Z" transform="translate(-987.95 -945.595)" fill="#263f5e"/>
            <path id="Trazado_1049136" data-name="Trazado 1049136" d="M1209.326,1226.28l-1.766,3.412,5.566,1.075,1.55-3.444Zm3.426,4.05-4.5-.869,1.423-2.747,4.319.843Z" transform="translate(-966.305 -981.285)" fill="#263f5e"/>
            <path id="Trazado_1049137" data-name="Trazado 1049137" d="M1187.75,1271.587l-5.606-1.037-1.984,2.939,4.449.815h0l1.684.31,1.744-2.973Zm-1.862,2.631-.973-.178-3.982-.731,1.6-2.365,4.761.881-.19.324Z" transform="translate(-944.379 -1016.71)" fill="#263f5e"/>
            <path id="Trazado_1049138" data-name="Trazado 1049138" d="M1218.916,1009.53c-.811,1.053-2.445,2.04-4.991,2.609-4.433.989,6.689,13.24-15.1,22.27l-5.974-9.48,0,0s8.429-15.885,18.013-18.916c6.931-2.192,10.093.869,8.053,3.518" transform="translate(-954.534 -804.424)" fill="#ffe4d9"/>
            <path id="Trazado_1049139" data-name="Trazado 1049139" d="M325.217,923.667c-47.438,10.789-76.207-21.977-76.207-55.591,0-50.732,27.171-78.658,27.567-79.06a.023.023,0,0,1,0-.006c33.748,44.145-15.761,68.028,13.985,106.687,11.8,15.334,30.368,12.387,30.368,12.387l.857,3.121Z" transform="translate(-199.261 -631.376)" fill="#df3e5f"/>
            <path id="Trazado_1049140" data-name="Trazado 1049140" d="M643.711,1264.111l-18.024,48.024a3.2,3.2,0,0,0,1.913,4.135l2.661.956a3.2,3.2,0,0,0,4.134-2.053l15.363-48.98a3.2,3.2,0,0,0-6.047-2.082" transform="translate(-500.518 -1009.897)" fill="#ba274a"/>
            <path id="Trazado_1049141" data-name="Trazado 1049141" d="M609.01,1360.885s12.986-9.29,21.377-4.795,6.08,15.981,1.8,23.974c-3,5.594-18.893-3.6-18.893-3.6Z" transform="translate(-487.337 -1084.178)" fill="#ffe4d9"/>
            <path id="Trazado_1049142" data-name="Trazado 1049142" d="M673.362,1213.324l-5.443,19.7a.215.215,0,0,1-.279.145l-5.281-1.875a.215.215,0,0,1-.124-.291,2.929,2.929,0,0,0-1.432-4.243c-3.1-1.343-3.513,1.343-3.513,1.343-2.183,4.955-6.555,3.991-6.915,3.9l-.022-.006c-.037-.012-.074-.019-.112-.028l-11.708-3.455a3.171,3.171,0,0,1-2.143-3.935l1.006-3.41a2.73,2.73,0,0,0-3.033-3.474,8.835,8.835,0,0,0-3.165,1.318.251.251,0,0,1-.326-.044l-.989-1.116a.248.248,0,0,1-.031-.3c.946-1.489,3.4-2.416,4.639-2.8a.253.253,0,0,0-.006-.484c-2.766-.784-5.9.831-6.68,1.271a.253.253,0,0,1-.32-.062l-1.268-1.557a.261.261,0,0,1,.022-.344c5.774-5.5,14.5-4.047,17.266-3.408a3.226,3.226,0,0,1,.412.09l11.247,3.318c10.149,3,10.909,1.085,11.761-2.155a.257.257,0,0,1,.32-.2l5.944,1.786a.25.25,0,0,1,.171.31" transform="translate(-501.065 -967.865)" fill="#5b5e72"/>
            <path id="Trazado_1049143" data-name="Trazado 1049143" d="M645.961,1504.588l3.153-3.247a.618.618,0,0,1,1.035.608l-1.234,4.1a.973.973,0,0,1-1.277.63l-1.324-.5a.973.973,0,0,1-.353-1.588" transform="translate(-516.686 -1201.239)" fill="#df3e5f"/>
            <path id="Trazado_1049144" data-name="Trazado 1049144" d="M712.9,1331.01l1.683-5.049a.57.57,0,0,0-1.053-.432l-2.308,4.7a.57.57,0,0,0,.234.749l.625.349a.57.57,0,0,0,.819-.317" transform="translate(-569.079 -1060.45)" fill="#df3e5f"/>
            <path id="Trazado_1049145" data-name="Trazado 1049145" d="M1024.352,1085.982l-3.165-4.42s-11.588,20.115-30.368,22.266c-23.748,2.719,9.59,10.389,9.59,10.389Z" transform="translate(-786.035 -865.479)" fill="#df3e5f"/>
            <path id="Trazado_1049146" data-name="Trazado 1049146" d="M397.357,1255.2s13.966,29.766,36.542,19.607l1.465,6.327-17.182,7.481-26.172-15.273Z" transform="translate(-313.691 -1004.43)" fill="#df3e5f"/>
            <path id="Trazado_1049147" data-name="Trazado 1049147" d="M874.433,943.276a30.84,30.84,0,0,1-17.034,5.84c-26.444.905-41.328-27.984-41.328-27.984s-5.918-36.148,7.816-60.122c0,0-7.776,44.665,0,57.966,9.138,15.63,26.226,32.746,50.546,24.3" transform="translate(-652.016 -688.991)" fill="#ba274a"/>
            <path id="Trazado_1049148" data-name="Trazado 1049148" d="M325.217,923.691c-47.438,10.789-76.207-21.977-76.207-55.591,0-50.732,27.171-78.658,27.567-79.06-.37.533-29.477,42.784-15.779,87.974,13.785,45.478,61.536,36.188,61.536,36.188Z" transform="translate(-199.261 -631.4)" fill="#ba274a"/>
            <path id="Trazado_1049149" data-name="Trazado 1049149" d="M645.949,207.973s5.264-7.844,13-7.644,20,1.931,26.284,24.507c0,0-22.113-15.944-39.282-16.863" transform="translate(-516.896 -160.303)" fill="#f0b225"/>
            <path id="Trazado_1049150" data-name="Trazado 1049150" d="M578.9,283.982s-14.456-9.09-27.683-8.74c0,0,2.845-8.992,9.127-9.316s16.979,7.268,18.556,18.056" transform="translate(-441.092 -212.789)" fill="#f0b225"/>
            <path id="Trazado_1049151" data-name="Trazado 1049151" d="M685.755,368.249s9.2,7.092,5.738,8.691-44.408,2.268-70.993-5.058c0,0,39.992,4.188,61.085,2.561,9.065-.7,4.17-6.193,4.17-6.193" transform="translate(-496.532 -294.677)" fill="#f0b225"/>
            <path id="Trazado_1049152" data-name="Trazado 1049152" d="M756.909,357.614l.972-4.23a1.55,1.55,0,0,1,1.626-1.2,192.007,192.007,0,0,0,25.038.358,1.551,1.551,0,0,1,1.58,1.033l1.629,4.645a1.551,1.551,0,0,1-1.437,2.065c-3.873.063-13.054.065-27.98-.775a1.552,1.552,0,0,1-1.426-1.9" transform="translate(-605.656 -281.818)" fill="#fff"/>
            <path id="Trazado_1049153" data-name="Trazado 1049153" d="M688.431,1265.487l8.548,6.4a.962.962,0,0,1-.82,1.7l-9.629-2.512a.962.962,0,0,1-.684-1.188l1.082-3.891a.962.962,0,0,1,1.5-.512" transform="translate(-548.794 -1012.505)" fill="#1c2e42"/>
            <path id="Trazado_1049154" data-name="Trazado 1049154" d="M816.6,1249.776l7.054-14.745a.147.147,0,0,1,.274.1l-4.412,15.687a.641.641,0,0,1-.827.432l-1.72-.594a.641.641,0,0,1-.369-.883" transform="translate(-653.406 -988.22)" fill="#1c2e42"/>
            <rect id="Rectángulo_419308" data-name="Rectángulo 419308" width="0.999" height="25.04" transform="translate(268.383 208.372) rotate(-79.426)" fill="#263f5e"/>
            <rect id="Rectángulo_419309" data-name="Rectángulo 419309" width="0.999" height="25.04" transform="translate(264.474 220.205) rotate(-79.426)" fill="#263f5e"/>
            <rect id="Rectángulo_419310" data-name="Rectángulo 419310" width="0.999" height="25.041" transform="translate(260.764 231.04) rotate(-79.426)" fill="#263f5e"/>
            <rect id="Rectángulo_419311" data-name="Rectángulo 419311" width="0.999" height="25.041" transform="translate(257.054 240.411) rotate(-79.426)" fill="#263f5e"/>
            <rect id="Rectángulo_419312" data-name="Rectángulo 419312" width="0.999" height="25.041" transform="translate(252.166 249.229) rotate(-79.426)" fill="#263f5e"/>
            <rect id="Rectángulo_419313" data-name="Rectángulo 419313" width="0.999" height="25.04" transform="translate(246.801 258.34) rotate(-79.426)" fill="#263f5e"/>
            <g id="Grupo_1209977" data-name="Grupo 1209977" transform="translate(238.319 205.042)" opacity="0.2">
              <g id="Grupo_1209976" data-name="Grupo 1209976">
                <g id="Grupo_1209975" data-name="Grupo 1209975" clip-path="url(#clip-path-14)">
                  <path id="Trazado_1049155" data-name="Trazado 1049155" d="M1218.924,1026.365c-.811,1.053-2.446,2.04-4.991,2.609-4.433.989,6.689,13.24-15.1,22.27l-5.974-9.48c.15.128,6.111,5.158,9.376,2.659,3.307-2.531,4.118-13.893,8.775-16.071,2.507-1.173,5.408-2.339,7.914-1.988" transform="translate(-1192.86 -1026.301)" fill="#df3e5f"/>
                </g>
              </g>
            </g>
            <path id="Trazado_1049156" data-name="Trazado 1049156" d="M369.779,438.386s-24.474-7.176-28.769,18.888c0,0,7.492-13.5,14.385-13.6,0,0-3,2.875-3.3,5.985,0,0,8.791-9.677,17.681-11.275" transform="translate(-272.88 -350.078)" fill="#263f5e"/>
            <path id="Trazado_1049157" data-name="Trazado 1049157" d="M426.5,627.735s5.288-6.75,5.97-13.584c0,0,6.109,5.64.833,14.839,0,0,.92-4.92-.442-6.795,0,0-2.9,4.253-6.36,5.539" transform="translate(-341.287 -491.451)" fill="#263f5e"/>
            <path id="Trazado_1049158" data-name="Trazado 1049158" d="M610.439,1819.355H599.81l.645-21.635Z" transform="translate(-479.975 -1438.558)" fill="#1c2e42"/>
          </g>
        </g>
      </g>
    </g>
  </g>
</svg>
