<svg xmlns="http://www.w3.org/2000/svg" xmlns:xlink="http://www.w3.org/1999/xlink" width="113" height="113" viewBox="0 0 113 113">
  <defs>
    <filter id="Trazado_982547" x="0" y="0" width="113" height="113" filterUnits="userSpaceOnUse">
      <feOffset dy="3" input="SourceAlpha"/>
      <feGaussianBlur stdDeviation="3" result="blur"/>
      <feFlood flood-opacity="0.161"/>
      <feComposite operator="in" in2="blur"/>
      <feComposite in="SourceGraphic"/>
    </filter>
  </defs>
  <g id="Grupo_1209381" data-name="Grupo 1209381" transform="translate(-1112 -2321.999)">
    <g id="Grupo_1209055" data-name="Grupo 1209055" transform="translate(0 1091.783)">
      <g id="Grupo_1209049" data-name="Grupo 1209049">
        <g id="Grupo_1208493" data-name="Grupo 1208493" transform="translate(0 -4397.209)">
          <g id="Grupo_1202104" data-name="Grupo 1202104" transform="translate(0 -1149.226)">
            <g id="Grupo_1201923" data-name="Grupo 1201923" transform="translate(-4174.49 4856.378)">
              <g id="Grupo_1176928" data-name="Grupo 1176928" transform="translate(5295.49 1926.273)">
                <g id="Grupo_1172322" data-name="Grupo 1172322" transform="translate(0 0)">
                  <g id="Grupo_1164700" data-name="Grupo 1164700">
                    <g id="Grupo_1160931" data-name="Grupo 1160931">
                      <g id="Grupo_1160749" data-name="Grupo 1160749">
                        <g id="Grupo_1158891" data-name="Grupo 1158891">
                          <g id="Grupo_1157406" data-name="Grupo 1157406">
                            <g id="Grupo_1155793" data-name="Grupo 1155793">
                              <g id="Grupo_1154704" data-name="Grupo 1154704">
                                <g id="Grupo_1150790" data-name="Grupo 1150790">
                                  <g id="Grupo_1154214" data-name="Grupo 1154214">
                                    <g id="Grupo_1152583" data-name="Grupo 1152583">
                                      <g id="Grupo_1146973" data-name="Grupo 1146973">
                                        <g id="Grupo_1146954" data-name="Grupo 1146954">
                                          <g transform="matrix(1, 0, 0, 1, -9, -6)" filter="url(#Trazado_982547)">
                                            <g id="Trazado_982547-2" data-name="Trazado 982547" transform="translate(9 6)" fill="#fef9e7">
                                              <path d="M 47.5000114440918 93.49987030029297 C 41.28938293457031 93.49987030029297 35.26534652709961 92.28384399414062 29.5951976776123 89.88558959960938 C 24.11773109436035 87.56881713867188 19.19814491271973 84.25183868408203 14.97310447692871 80.02680206298828 C 10.74805164337158 75.80176544189453 7.43107795715332 70.88218688964844 5.114304542541504 65.40472412109375 C 2.716038227081299 59.73458862304688 1.500011444091797 53.71054840087891 1.500011444091797 47.49993515014648 C 1.500011444091797 41.28932189941406 2.716038227081299 35.26528167724609 5.114304542541504 29.59514808654785 C 7.43107795715332 24.1176815032959 10.74805164337158 19.1981086730957 14.97310447692871 14.97306823730469 C 19.19814491271973 10.74802875518799 24.11773109436035 7.431055068969727 29.5951976776123 5.11428165435791 C 35.26534652709961 2.716028451919556 41.28938293457031 1.500001788139343 47.5000114440918 1.500001788139343 C 53.71063995361328 1.500001788139343 59.73467636108398 2.716028451919556 65.40482330322266 5.11428165435791 C 70.88229370117188 7.431055068969727 75.8018798828125 10.74802875518799 80.02691650390625 14.97306823730469 C 84.25196838378906 19.1981086730957 87.56894683837891 24.1176815032959 89.88571929931641 29.59514808654785 C 92.28398132324219 35.26528167724609 93.50001525878906 41.28932189941406 93.50001525878906 47.49993515014648 C 93.50001525878906 53.71054840087891 92.28398132324219 59.73458862304688 89.88571929931641 65.40472412109375 C 87.56894683837891 70.88218688964844 84.25196838378906 75.80176544189453 80.02691650390625 80.02680206298828 C 75.8018798828125 84.25183868408203 70.88229370117188 87.56881713867188 65.40482330322266 89.88558959960938 C 59.73467636108398 92.28384399414062 53.71063995361328 93.49987030029297 47.5000114440918 93.49987030029297 Z" stroke="none"/>
                                              <path d="M 47.5000114440918 3 C 41.49122619628906 3 35.66378021240234 4.1761474609375 30.17951965332031 6.495796203613281 C 24.880859375 8.7369384765625 20.12153625488281 11.94596862792969 16.03376770019531 16.03373718261719 C 11.94598388671875 20.12149047851562 8.736968994140625 24.88081359863281 6.495811462402344 30.17947387695312 C 4.176162719726562 35.66371917724609 3.000007629394531 41.49116516113281 3.000007629394531 47.49993515014648 C 3.000007629394531 53.50870513916016 4.176162719726562 59.33615112304688 6.495811462402344 64.82039642333984 C 8.736968994140625 70.11905670166016 11.94598388671875 74.87837982177734 16.03376770019531 78.96613311767578 C 20.12153625488281 83.05390167236328 24.880859375 86.26293182373047 30.17951965332031 88.50407409667969 C 35.66378021240234 90.82372283935547 41.49122619628906 91.99987030029297 47.5000114440918 91.99987030029297 C 53.50879669189453 91.99987030029297 59.33624267578125 90.82372283935547 64.82050323486328 88.50407409667969 C 70.11916351318359 86.26293182373047 74.87848663330078 83.05390167236328 78.96625518798828 78.96613311767578 C 83.05403900146484 74.87837982177734 86.2630615234375 70.11905670166016 88.50421142578125 64.82039642333984 C 90.82386016845703 59.33615112304688 92.00001525878906 53.50870513916016 92.00001525878906 47.49993515014648 C 92.00001525878906 41.49116516113281 90.82386016845703 35.66371917724609 88.50421142578125 30.17947387695312 C 86.2630615234375 24.88081359863281 83.05403900146484 20.12149047851562 78.96625518798828 16.03373718261719 C 74.87848663330078 11.94596862792969 70.11916351318359 8.7369384765625 64.82050323486328 6.495796203613281 C 59.33624267578125 4.1761474609375 53.50879669189453 3 47.5000114440918 3 M 47.5000114440918 0 C 73.73353576660156 0 95.00001525878906 21.26644134521484 95.00001525878906 47.49993515014648 C 95.00001525878906 73.73342895507812 73.73353576660156 94.99987030029297 47.5000114440918 94.99987030029297 C 21.26648712158203 94.99987030029297 7.62939453125e-06 73.73342895507812 7.62939453125e-06 47.49993515014648 C 7.62939453125e-06 21.26644134521484 21.26648712158203 0 47.5000114440918 0 Z" stroke="none" fill="#f8ce24"/>
                                            </g>
                                          </g>
                                        </g>
                                      </g>
                                    </g>
                                  </g>
                                </g>
                              </g>
                            </g>
                          </g>
                        </g>
                      </g>
                    </g>
                  </g>
                </g>
              </g>
            </g>
          </g>
        </g>
      </g>
    </g>
    <g id="traffic-cone_16847039_1_" data-name="traffic-cone_16847039 (1)" transform="translate(1133.62 2338.814)">
      <g id="Grupo_1209380" data-name="Grupo 1209380" transform="translate(6.509 9.219)">
        <g id="Grupo_1209378" data-name="Grupo 1209378" transform="translate(0)">
          <path id="Trazado_1047609" data-name="Trazado 1047609" d="M89.752,18.5h11.765l15.057,48.18-18.7,4.709L74.7,66.68Z" transform="translate(-67.763 -18.5)" fill="#fdcd56" fill-rule="evenodd"/>
          <g id="Grupo_1209377" data-name="Grupo 1209377" transform="translate(0 10.59)">
            <path id="Trazado_1047610" data-name="Trazado 1047610" d="M18.782,433.369H66.961a3.782,3.782,0,1,1,0,7.564H18.782a3.782,3.782,0,1,1,0-7.564Z" transform="translate(-15 -395.779)" fill="#f5b945" fill-rule="evenodd"/>
            <path id="Trazado_1047611" data-name="Trazado 1047611" d="M103.192,136.685l8.438-27h18.383l8.438,27Z" transform="translate(-92.95 -109.685)" fill="#f5b945" fill-rule="evenodd"/>
          </g>
        </g>
        <g id="Grupo_1209379" data-name="Grupo 1209379" transform="translate(19.935 15.133)">
          <path id="Trazado_1047612" data-name="Trazado 1047612" d="M186.66,151a11.338,11.338,0,0,0,5.611-2.189h4.65A11.338,11.338,0,0,0,202.533,151v6.934c0,4.474-4.542,8.234-7.936,9.144-3.395-.91-7.937-4.67-7.937-9.144Z" transform="translate(-186.66 -148.809)" fill="#66d4f1" fill-rule="evenodd"/>
        </g>
      </g>
      <path id="Trazado_1047613" data-name="Trazado 1047613" d="M55.917,56.18H58.47a4.595,4.595,0,1,1,0,9.19H10.291a4.595,4.595,0,1,1,0-9.19h2.553L27.722,8.57A.813.813,0,0,1,28.5,8H40.263a.813.813,0,0,1,.776.57Zm-41.37,0H54.214l-2.8-8.964H17.348ZM50.9,45.59l-7.93-25.375H25.786L17.856,45.59Zm-8.438-27-2.8-8.964H29.1l-2.8,8.964ZM10.291,57.805a2.969,2.969,0,1,0,0,5.938H58.47a2.969,2.969,0,1,0,0-5.938ZM26.38,25.324a10.513,10.513,0,0,0,5.2-2.04.813.813,0,0,1,.473-.151h4.65a.813.813,0,0,1,.473.151,10.513,10.513,0,0,0,5.2,2.04.813.813,0,0,1,.749.81v6.934a9.5,9.5,0,0,1-2.924,6.474A12.964,12.964,0,0,1,34.591,43a.815.815,0,0,1-.421,0,12.964,12.964,0,0,1-5.615-3.456,9.5,9.5,0,0,1-2.924-6.474V26.135a.813.813,0,0,1,.749-.81Zm.877,1.533v6.211a7.877,7.877,0,0,0,2.467,5.343,11.431,11.431,0,0,0,4.657,2.956,11.432,11.432,0,0,0,4.656-2.955A7.878,7.878,0,0,0,41.5,33.068V26.857a12.382,12.382,0,0,1-5.055-2.1H32.312a12.383,12.383,0,0,1-5.055,2.1ZM37.54,30.2a.813.813,0,0,1,1.025,1.262l-5.427,4.408a.813.813,0,0,1-1.187-.178l-1.918-2.856a.813.813,0,0,1,1.35-.906L32.8,34.049Zm25.014-16.93a.813.813,0,0,1,0,1.626H59.713a.813.813,0,0,1,0-1.626Zm-6.085,3.244a.813.813,0,1,1,1.626,0v2.842a.813.813,0,1,1-1.626,0Zm-1.618-3.244a.813.813,0,1,1,0,1.626H52.01a.813.813,0,1,1,0-1.626Zm1.618-4.459a.813.813,0,1,1,1.626,0v2.842a.813.813,0,1,1-1.626,0ZM62.252,30.6a.813.813,0,0,1,0,1.626H59.41a.813.813,0,0,1,0-1.626Zm-6.085,3.243a.813.813,0,1,1,1.626,0v2.842a.813.813,0,0,1-1.626,0ZM54.549,30.6a.813.813,0,0,1,0,1.626H51.707a.813.813,0,0,1,0-1.626Zm1.618-4.459a.813.813,0,1,1,1.626,0v2.842a.813.813,0,0,1-1.626,0ZM17.053,13.272a.813.813,0,1,1,0,1.626H14.212a.813.813,0,1,1,0-1.626Zm-6.085,3.244a.813.813,0,1,1,1.626,0v2.842a.813.813,0,1,1-1.626,0ZM9.35,13.272a.813.813,0,1,1,0,1.626H6.509a.813.813,0,0,1,0-1.626Zm1.618-4.459a.813.813,0,1,1,1.626,0v2.842a.813.813,0,1,1-1.626,0ZM16.751,30.6a.813.813,0,0,1,0,1.626H13.909a.813.813,0,0,1,0-1.626Zm-6.085,3.243a.813.813,0,1,1,1.626,0v2.842a.813.813,0,1,1-1.626,0ZM9.048,30.6a.813.813,0,0,1,0,1.626H6.206a.813.813,0,0,1,0-1.626Zm1.618-4.459a.813.813,0,1,1,1.626,0v2.842a.813.813,0,0,1-1.626,0Z" transform="translate(0)" fill-rule="evenodd"/>
    </g>
  </g>
</svg>
