<svg xmlns="http://www.w3.org/2000/svg" xmlns:xlink="http://www.w3.org/1999/xlink" width="113" height="113" viewBox="0 0 113 113">
  <defs>
    <filter id="Trazado_982547" x="0" y="0" width="113" height="113" filterUnits="userSpaceOnUse">
      <feOffset dy="3" input="SourceAlpha"/>
      <feGaussianBlur stdDeviation="3" result="blur"/>
      <feFlood flood-opacity="0.161"/>
      <feComposite operator="in" in2="blur"/>
      <feComposite in="SourceGraphic"/>
    </filter>
  </defs>
  <g id="Grupo_1209383" data-name="Grupo 1209383" transform="translate(-4442 -2332.216)">
    <g id="Grupo_1209056" data-name="Grupo 1209056" transform="translate(3330 1102)">
      <g id="Grupo_1209049" data-name="Grupo 1209049">
        <g id="Grupo_1208493" data-name="Grupo 1208493" transform="translate(0 -4397.209)">
          <g id="Grupo_1202104" data-name="Grupo 1202104" transform="translate(0 -1149.226)">
            <g id="Grupo_1201923" data-name="Grupo 1201923" transform="translate(-4174.49 4856.378)">
              <g id="Grupo_1176928" data-name="Grupo 1176928" transform="translate(5295.49 1926.273)">
                <g id="Grupo_1172322" data-name="Grupo 1172322" transform="translate(0 0)">
                  <g id="Grupo_1164700" data-name="Grupo 1164700">
                    <g id="Grupo_1160931" data-name="Grupo 1160931">
                      <g id="Grupo_1160749" data-name="Grupo 1160749">
                        <g id="Grupo_1158891" data-name="Grupo 1158891">
                          <g id="Grupo_1157406" data-name="Grupo 1157406">
                            <g id="Grupo_1155793" data-name="Grupo 1155793">
                              <g id="Grupo_1154704" data-name="Grupo 1154704">
                                <g id="Grupo_1150790" data-name="Grupo 1150790">
                                  <g id="Grupo_1154214" data-name="Grupo 1154214">
                                    <g id="Grupo_1152583" data-name="Grupo 1152583">
                                      <g id="Grupo_1146973" data-name="Grupo 1146973">
                                        <g id="Grupo_1146954" data-name="Grupo 1146954">
                                          <g transform="matrix(1, 0, 0, 1, -9, -6)" filter="url(#Trazado_982547)">
                                            <g id="Trazado_982547-2" data-name="Trazado 982547" transform="translate(9 6)" fill="#fef9e7">
                                              <path d="M 47.5000114440918 93.49987030029297 C 41.28938293457031 93.49987030029297 35.26534652709961 92.28384399414062 29.5951976776123 89.88558959960938 C 24.11773109436035 87.56881713867188 19.19814491271973 84.25183868408203 14.97310447692871 80.02680206298828 C 10.74805164337158 75.80176544189453 7.43107795715332 70.88218688964844 5.114304542541504 65.40472412109375 C 2.716038227081299 59.73458862304688 1.500011444091797 53.71054840087891 1.500011444091797 47.49993515014648 C 1.500011444091797 41.28932189941406 2.716038227081299 35.26528167724609 5.114304542541504 29.59514808654785 C 7.43107795715332 24.1176815032959 10.74805164337158 19.1981086730957 14.97310447692871 14.97306823730469 C 19.19814491271973 10.74802875518799 24.11773109436035 7.431055068969727 29.5951976776123 5.11428165435791 C 35.26534652709961 2.716028451919556 41.28938293457031 1.500001788139343 47.5000114440918 1.500001788139343 C 53.71063995361328 1.500001788139343 59.73467636108398 2.716028451919556 65.40482330322266 5.11428165435791 C 70.88229370117188 7.431055068969727 75.8018798828125 10.74802875518799 80.02691650390625 14.97306823730469 C 84.25196838378906 19.1981086730957 87.56894683837891 24.1176815032959 89.88571929931641 29.59514808654785 C 92.28398132324219 35.26528167724609 93.50001525878906 41.28932189941406 93.50001525878906 47.49993515014648 C 93.50001525878906 53.71054840087891 92.28398132324219 59.73458862304688 89.88571929931641 65.40472412109375 C 87.56894683837891 70.88218688964844 84.25196838378906 75.80176544189453 80.02691650390625 80.02680206298828 C 75.8018798828125 84.25183868408203 70.88229370117188 87.56881713867188 65.40482330322266 89.88558959960938 C 59.73467636108398 92.28384399414062 53.71063995361328 93.49987030029297 47.5000114440918 93.49987030029297 Z" stroke="none"/>
                                              <path d="M 47.5000114440918 3 C 41.49122619628906 3 35.66378021240234 4.1761474609375 30.17951965332031 6.495796203613281 C 24.880859375 8.7369384765625 20.12153625488281 11.94596862792969 16.03376770019531 16.03373718261719 C 11.94598388671875 20.12149047851562 8.736968994140625 24.88081359863281 6.495811462402344 30.17947387695312 C 4.176162719726562 35.66371917724609 3.000007629394531 41.49116516113281 3.000007629394531 47.49993515014648 C 3.000007629394531 53.50870513916016 4.176162719726562 59.33615112304688 6.495811462402344 64.82039642333984 C 8.736968994140625 70.11905670166016 11.94598388671875 74.87837982177734 16.03376770019531 78.96613311767578 C 20.12153625488281 83.05390167236328 24.880859375 86.26293182373047 30.17951965332031 88.50407409667969 C 35.66378021240234 90.82372283935547 41.49122619628906 91.99987030029297 47.5000114440918 91.99987030029297 C 53.50879669189453 91.99987030029297 59.33624267578125 90.82372283935547 64.82050323486328 88.50407409667969 C 70.11916351318359 86.26293182373047 74.87848663330078 83.05390167236328 78.96625518798828 78.96613311767578 C 83.05403900146484 74.87837982177734 86.2630615234375 70.11905670166016 88.50421142578125 64.82039642333984 C 90.82386016845703 59.33615112304688 92.00001525878906 53.50870513916016 92.00001525878906 47.49993515014648 C 92.00001525878906 41.49116516113281 90.82386016845703 35.66371917724609 88.50421142578125 30.17947387695312 C 86.2630615234375 24.88081359863281 83.05403900146484 20.12149047851562 78.96625518798828 16.03373718261719 C 74.87848663330078 11.94596862792969 70.11916351318359 8.7369384765625 64.82050323486328 6.495796203613281 C 59.33624267578125 4.1761474609375 53.50879669189453 3 47.5000114440918 3 M 47.5000114440918 0 C 73.73353576660156 0 95.00001525878906 21.26644134521484 95.00001525878906 47.49993515014648 C 95.00001525878906 73.73342895507812 73.73353576660156 94.99987030029297 47.5000114440918 94.99987030029297 C 21.26648712158203 94.99987030029297 7.62939453125e-06 73.73342895507812 7.62939453125e-06 47.49993515014648 C 7.62939453125e-06 21.26644134521484 21.26648712158203 0 47.5000114440918 0 Z" stroke="none" fill="#f8ce24"/>
                                            </g>
                                          </g>
                                        </g>
                                      </g>
                                    </g>
                                  </g>
                                </g>
                              </g>
                            </g>
                          </g>
                        </g>
                      </g>
                    </g>
                  </g>
                </g>
              </g>
            </g>
          </g>
        </g>
      </g>
    </g>
    <g id="_09-Light" data-name="09-Light" transform="translate(4464.84 2355.987)">
      <path id="Trazado_1047614" data-name="Trazado 1047614" d="M27,60H37.236v1.024l-2.047,2.047H29.047L27,61.024Z" transform="translate(0.542 1.392)" fill="#999"/>
      <path id="Trazado_1047615" data-name="Trazado 1047615" d="M27,57H37.236v3.071H27Z" transform="translate(0.542 1.321)" fill="#f6f6f6"/>
      <path id="Trazado_1047616" data-name="Trazado 1047616" d="M33,57h4.094v3.071H33Z" transform="translate(0.684 1.321)" fill="#e6e6e6"/>
      <path id="Trazado_1047617" data-name="Trazado 1047617" d="M38.283,53V57.1H26V53l.01-.061A8.292,8.292,0,0,0,27.024,53H37.259a8.292,8.292,0,0,0,1.013-.061Z" transform="translate(0.519 1.225)" fill="#999"/>
      <path id="Trazado_1047618" data-name="Trazado 1047618" d="M45.66,41a2.047,2.047,0,0,1,0,4.094H19.047a2.047,2.047,0,1,1,0-4.094Z" transform="translate(0.307 0.944)" fill="#999"/>
      <path id="Trazado_1047619" data-name="Trazado 1047619" d="M45.613,45a8.189,8.189,0,0,1-7.177,8.127,8.29,8.29,0,0,1-1.012.061H27.189a8.292,8.292,0,0,1-1.013-.061A8.189,8.189,0,0,1,19,45Z" transform="translate(0.354 1.038)" fill="#f6f6f6"/>
      <path id="Trazado_1047620" data-name="Trazado 1047620" d="M45.142,41H39a2.047,2.047,0,1,1,0,4.094h6.142a2.047,2.047,0,1,0,0-4.094Z" transform="translate(0.825 0.944)" fill="#878787"/>
      <path id="Trazado_1047621" data-name="Trazado 1047621" d="M39.189,45a8.189,8.189,0,0,1-7.177,8.127A8.291,8.291,0,0,1,31,53.189h6.142a8.292,8.292,0,0,0,1.013-.061A8.189,8.189,0,0,0,45.33,45Z" transform="translate(0.637 1.038)" fill="#e6e6e6"/>
      <path id="Trazado_1047622" data-name="Trazado 1047622" d="M26.827,3.031a8.183,8.183,0,0,0-2.733,6.111V41.9H20V9.142S20,3,26.142,3C26.377,3,26.612,3.01,26.827,3.031Z" transform="translate(0.377 0.047)" fill="#32c5f4"/>
      <path id="Trazado_1047623" data-name="Trazado 1047623" d="M44.157,9.142V41.9H40.063V9.142A8.183,8.183,0,0,0,37.33,3.031c.215-.02.45-.031.686-.031C44.157,3,44.157,9.142,44.157,9.142Z" transform="translate(0.786 0.047)" fill="#32c5f4"/>
      <path id="Trazado_1047624" data-name="Trazado 1047624" d="M35.142,9.071V41.825H29V9.071a3.071,3.071,0,1,1,6.142,0Z" transform="translate(0.59 0.118)" fill="#2695b9"/>
      <path id="Trazado_1047625" data-name="Trazado 1047625" d="M37.644,3.078a8.183,8.183,0,0,1,2.733,6.111V41.944H35.259V9.189a3.071,3.071,0,1,0-6.142,0V41.944H24V9.189A8.189,8.189,0,0,1,37.644,3.078Z" transform="translate(0.472 0)" fill="#69d3ff"/>
      <path id="Trazado_1047626" data-name="Trazado 1047626" d="M27,11.067V41.775h2.047V9.02a3.02,3.02,0,0,1,.143-.88A3.055,3.055,0,0,0,27,11.067Z" transform="translate(0.542 0.169)" fill="#abe7ff"/>
      <path id="Trazado_1047627" data-name="Trazado 1047627" d="M37.61,3.078A8.153,8.153,0,0,0,25.441,4.511,8.183,8.183,0,0,1,38.3,11.236V41.943h2.047V9.189A8.183,8.183,0,0,0,37.61,3.078Z" transform="translate(0.506 0)" fill="#abe7ff"/>
      <path id="Trazado_1047628" data-name="Trazado 1047628" d="M32.957,62.047a4.738,4.738,0,0,1-.558,1.024h2.662l2.047-2.047V60H33.184a4.606,4.606,0,0,1-.227,2.047Z" transform="translate(0.67 1.392)" fill="#878787"/>
      <path id="Trazado_1047629" data-name="Trazado 1047629" d="M38.127,52.94A8.292,8.292,0,0,1,37.113,53H32.6c-.008.016-.023.03-.031.047a5.953,5.953,0,0,0-.047,4.047h5.614V53Z" transform="translate(0.665 1.225)" fill="#878787"/>
      <g id="Grupo_1209382" data-name="Grupo 1209382" transform="translate(4 1)">
        <path id="Trazado_1047630" data-name="Trazado 1047630" d="M45.613,45a8.189,8.189,0,0,1-7.177,8.127,8.29,8.29,0,0,1-1.012.061H27.189a8.292,8.292,0,0,1-1.013-.061A8.189,8.189,0,0,1,19,45" transform="translate(-3.646 0.038)" fill="none" stroke="#252340" stroke-linejoin="round" stroke-width="2"/>
        <path id="Trazado_1047631" data-name="Trazado 1047631" d="M26,53v4.094H38.283V53" transform="translate(-3.481 0.226)" fill="none" stroke="#252340" stroke-linejoin="round" stroke-width="2"/>
        <path id="Trazado_1047632" data-name="Trazado 1047632" d="M27,57v4.094l2.047,2.047h6.142l2.047-2.047V57" transform="translate(-3.458 0.321)" fill="none" stroke="#252340" stroke-linejoin="round" stroke-width="2"/>
        <path id="Trazado_1047633" data-name="Trazado 1047633" d="M40.377,41.943V9.189A8.189,8.189,0,0,0,24,9.189V41.943" transform="translate(-3.528 -1)" fill="none" stroke="#252340" stroke-linejoin="round" stroke-width="2"/>
        <path id="Trazado_1047634" data-name="Trazado 1047634" d="M44.165,41.9V9.142S44.165,3,38.024,3c-.235,0-.471.01-.686.031-.113,0-.225.02-.338.031" transform="translate(-3.222 -0.953)" fill="none" stroke="#252340" stroke-linejoin="round" stroke-width="2"/>
        <path id="Trazado_1047635" data-name="Trazado 1047635" d="M20,41.9V9.142S20,3,26.142,3c.235,0,.471.01.686.031.113,0,.225.02.338.031" transform="translate(-3.623 -0.953)" fill="none" stroke="#252340" stroke-linejoin="round" stroke-width="2"/>
        <path id="Trazado_1047636" data-name="Trazado 1047636" d="M35.142,41.825V9.071a3.071,3.071,0,1,0-6.142,0V41.825" transform="translate(-3.41 -0.882)" fill="none" stroke="#252340" stroke-linejoin="round" stroke-width="2"/>
        <path id="Trazado_1047637" data-name="Trazado 1047637" d="M35.425,45.094H19.047a2.047,2.047,0,1,1,0-4.094H45.66a2.047,2.047,0,0,1,0,4.094H41.566" transform="translate(-3.693 -0.057)" fill="none" stroke="#252340" stroke-linejoin="round" stroke-width="2"/>
        <path id="Trazado_1047638" data-name="Trazado 1047638" d="M37,45h2.047" transform="translate(-3.222 0.038)" fill="none" stroke="#252340" stroke-linejoin="round" stroke-width="2"/>
        <path id="Trazado_1047639" data-name="Trazado 1047639" d="M37.236,60H27" transform="translate(-3.458 0.392)" fill="none" stroke="#252340" stroke-linejoin="round" stroke-width="2"/>
        <path id="Trazado_1047640" data-name="Trazado 1047640" d="M48,22H60.283" transform="translate(-2.962 -0.505)" fill="none" stroke="#252340" stroke-linejoin="round" stroke-width="2"/>
        <path id="Trazado_1047641" data-name="Trazado 1047641" d="M48,12.236,58.236,2" transform="translate(-2.962 -0.976)" fill="none" stroke="#252340" stroke-linejoin="round" stroke-width="2"/>
        <path id="Trazado_1047642" data-name="Trazado 1047642" d="M48,32,58.236,42.236" transform="translate(-2.962 -0.269)" fill="none" stroke="#252340" stroke-linejoin="round" stroke-width="2"/>
        <path id="Trazado_1047643" data-name="Trazado 1047643" d="M56,18l4.094,4.094L56,26.189" transform="translate(-2.774 -0.599)" fill="none" stroke="#252340" stroke-linejoin="round" stroke-width="2"/>
        <path id="Trazado_1047644" data-name="Trazado 1047644" d="M52,2h6.142V8.142" transform="translate(-2.868 -0.976)" fill="none" stroke="#252340" stroke-linejoin="round" stroke-width="2"/>
        <path id="Trazado_1047645" data-name="Trazado 1047645" d="M58.142,36v6.142H52" transform="translate(-2.868 -0.175)" fill="none" stroke="#252340" stroke-linejoin="round" stroke-width="2"/>
        <path id="Trazado_1047646" data-name="Trazado 1047646" d="M16.283,22H4" transform="translate(-4 -0.505)" fill="none" stroke="#252340" stroke-linejoin="round" stroke-width="2"/>
        <path id="Trazado_1047647" data-name="Trazado 1047647" d="M16.236,32,6,42.236" transform="translate(-3.953 -0.269)" fill="none" stroke="#252340" stroke-linejoin="round" stroke-width="2"/>
        <path id="Trazado_1047648" data-name="Trazado 1047648" d="M16.236,12.236,6,2" transform="translate(-3.953 -0.976)" fill="none" stroke="#252340" stroke-linejoin="round" stroke-width="2"/>
        <path id="Trazado_1047649" data-name="Trazado 1047649" d="M8.094,26.189,4,22.094,8.094,18" transform="translate(-4 -0.599)" fill="none" stroke="#252340" stroke-linejoin="round" stroke-width="2"/>
        <path id="Trazado_1047650" data-name="Trazado 1047650" d="M12.142,42.142H6V36" transform="translate(-3.953 -0.175)" fill="none" stroke="#252340" stroke-linejoin="round" stroke-width="2"/>
        <path id="Trazado_1047651" data-name="Trazado 1047651" d="M6,8.142V2h6.142" transform="translate(-3.953 -0.976)" fill="none" stroke="#252340" stroke-linejoin="round" stroke-width="2"/>
      </g>
    </g>
  </g>
</svg>
