<svg xmlns="http://www.w3.org/2000/svg" xmlns:xlink="http://www.w3.org/1999/xlink" width="108" height="108" viewBox="0 0 108 108">
  <defs>
    <filter id="Trazado_904820" x="0" y="0" width="108" height="108" filterUnits="userSpaceOnUse">
      <feOffset dy="3" input="SourceAlpha"/>
      <feGaussianBlur stdDeviation="3" result="blur"/>
      <feFlood flood-opacity="0.161"/>
      <feComposite operator="in" in2="blur"/>
      <feComposite in="SourceGraphic"/>
    </filter>
  </defs>
  <g id="Grupo_1210178" data-name="Grupo 1210178" transform="translate(-200 -2701.507)">
    <g id="Grupo_1210084" data-name="Grupo 1210084" transform="translate(0 2216.507)">
      <g id="Grupo_1206197" data-name="Grupo 1206197" transform="translate(0 -277)">
        <g id="Grupo_1202705" data-name="Grupo 1202705" transform="translate(209 768)">
          <g id="Grupo_1173585" data-name="Grupo 1173585" transform="translate(0 0)">
            <g id="Grupo_1173428" data-name="Grupo 1173428">
              <g id="Grupo_1171958" data-name="Grupo 1171958">
                <g id="Grupo_1167341" data-name="Grupo 1167341">
                  <g id="Grupo_1166792" data-name="Grupo 1166792">
                    <g transform="matrix(1, 0, 0, 1, -9, -6)" filter="url(#Trazado_904820)">
                      <g id="Trazado_904820-2" data-name="Trazado 904820" transform="translate(9 6)" fill="#fbedfe">
                        <path d="M 44.99999618530273 88.50002288818359 C 39.12687301635742 88.50002288818359 33.43022155761719 87.35009765625 28.06829643249512 85.08218383789062 C 22.88852119445801 82.89133453369141 18.23629570007324 79.75460815429688 14.24084663391113 75.75916290283203 C 10.24540901184082 71.76371002197266 7.108683586120605 67.11148834228516 4.917821407318115 61.93171310424805 C 2.649921178817749 56.56978607177734 1.499996185302734 50.87313461303711 1.499996185302734 45.0000114440918 C 1.499996185302734 39.12688827514648 2.649921178817749 33.43023681640625 4.917821407318115 28.06829833984375 C 7.108683586120605 22.88852310180664 10.24540901184082 18.2363109588623 14.24084663391113 14.2408618927002 C 18.23629570007324 10.24541187286377 22.88852119445801 7.108686447143555 28.06829643249512 4.917823791503906 C 33.43022155761719 2.649924039840698 39.12687301635742 1.499998927116394 44.99999618530273 1.499998927116394 C 50.87311935424805 1.499998927116394 56.56977081298828 2.649924039840698 61.93169784545898 4.917823791503906 C 67.11147308349609 7.108686447143555 71.76369476318359 10.24541187286377 75.75914764404297 14.2408618927002 C 79.75458526611328 18.2363109588623 82.89131164550781 22.88852310180664 85.08216857910156 28.06829833984375 C 87.35007476806641 33.43023681640625 88.5 39.12688827514648 88.5 45.0000114440918 C 88.5 50.87313461303711 87.35007476806641 56.56978607177734 85.08216857910156 61.93171310424805 C 82.89131164550781 67.11148834228516 79.75458526611328 71.76371002197266 75.75914764404297 75.75916290283203 C 71.76369476318359 79.75460815429688 67.11147308349609 82.89133453369141 61.93169784545898 85.08218383789062 C 56.56977081298828 87.35009765625 50.87311935424805 88.50002288818359 44.99999618530273 88.50002288818359 Z" stroke="none"/>
                        <path d="M 44.99999618530273 3 C 39.32870864868164 3 33.82865142822266 4.110054016113281 28.65262603759766 6.299339294433594 C 23.65165710449219 8.414566040039062 19.15968322753906 11.44333648681641 15.301513671875 15.30152893066406 C 11.44333648681641 19.15969848632812 8.414566040039062 23.65165710449219 6.299339294433594 28.65264129638672 C 4.110054016113281 33.82866668701172 2.999992370605469 39.3287239074707 2.999992370605469 45.0000114440918 C 2.999992370605469 50.67129898071289 4.110054016113281 56.17135620117188 6.299339294433594 61.34738159179688 C 8.414566040039062 66.34836578369141 11.44333648681641 70.84032440185547 15.301513671875 74.69849395751953 C 19.15968322753906 78.55668640136719 23.65165710449219 81.58545684814453 28.65262603759766 83.70068359375 C 33.82865142822266 85.88996887207031 39.32870864868164 87.00002288818359 44.99999618530273 87.00002288818359 C 50.67128372192383 87.00002288818359 56.17134094238281 85.88996887207031 61.34736633300781 83.70068359375 C 66.34834289550781 81.58545684814453 70.84030914306641 78.55668640136719 74.69847869873047 74.69849395751953 C 78.55665588378906 70.84032440185547 81.58542633056641 66.34836578369141 83.70065307617188 61.34738159179688 C 85.88993835449219 56.17135620117188 87 50.67129898071289 87 45.0000114440918 C 87 39.3287239074707 85.88993835449219 33.82866668701172 83.70065307617188 28.65264129638672 C 81.58542633056641 23.65165710449219 78.55665588378906 19.15969848632812 74.69847869873047 15.30152893066406 C 70.84030914306641 11.44333648681641 66.34834289550781 8.414566040039062 61.34736633300781 6.299339294433594 C 56.17134094238281 4.110054016113281 50.67128372192383 3 44.99999618530273 3 M 44.99999618530273 0 C 69.85281372070312 0 90 20.14719390869141 90 45.0000114440918 C 90 69.85282897949219 69.85281372070312 90.00002288818359 44.99999618530273 90.00002288818359 C 20.14717864990234 90.00002288818359 -7.62939453125e-06 69.85282897949219 -7.62939453125e-06 45.0000114440918 C -7.62939453125e-06 20.14719390869141 20.14717864990234 0 44.99999618530273 0 Z" stroke="none" fill="#7b3289"/>
                      </g>
                    </g>
                  </g>
                </g>
              </g>
            </g>
          </g>
        </g>
      </g>
    </g>
    <g id="Layer_x0020_1" transform="translate(162.982 2722.208)">
      <path id="Trazado_1049598" data-name="Trazado 1049598" d="M117.139,50.317H97.305c1.063,4.289,3.043,4.766,4.069,5.169a2.892,2.892,0,0,1,2.75,2.86c0,1.393.33,3.263-1.173,3.263h-23.9c-1.466,0-1.137-1.87-1.137-3.263a2.873,2.873,0,0,1,2.786-2.86c2.31-.55,3.446-2.97,4-5.169H64.86A2.863,2.863,0,0,1,62,47.457V15.488a2.863,2.863,0,0,1,2.86-2.86h7c.037-1.1,1.1-2.566,3.006-5.866a2.116,2.116,0,0,1,2.713-.807l3.666,1.613a14.8,14.8,0,0,1,4.546-2.6c.77-6.819-.11-5.939,7.992-5.939A2.1,2.1,0,0,1,95.8.97l.44,4a14.8,14.8,0,0,1,4.546,2.6c6.306-2.75,5.059-3.043,9.129,3.959a2.311,2.311,0,0,1,.257,1.1h6.966a2.871,2.871,0,0,1,2.9,2.86V47.457A2.871,2.871,0,0,1,117.139,50.317ZM91,31.693a12.447,12.447,0,1,1,12.465-12.428A12.439,12.439,0,0,1,91,31.693ZM91,8.266a10.98,10.98,0,1,0,11,11A11,11,0,0,0,91,8.266ZM73.438,12.849a1.694,1.694,0,0,1,.257.257l3.556,2.6c.807.623-.55,2.236.293,6.342a.832.832,0,0,1-.293.733l-3.593,2.64a.612.612,0,0,0-.257.807l2.75,4.8a.655.655,0,0,0,.843.147c.587-.257,4.033-1.833,4.4-1.833.733,0,1.613,1.723,5.316,2.97a.722.722,0,0,1,.477.623l.513,4.436v.073a1.3,1.3,0,0,0,.147.33.421.421,0,0,0,.4.22h5.573a.285.285,0,0,0,.257-.11c.147-.11.183-.33.257-.513l.513-4.436c.11-1.1,2.016-.477,5.316-3.41a.749.749,0,0,1,.77-.147l4.106,1.8a.664.664,0,0,0,.843-.147l2.75-4.8a.612.612,0,0,0-.257-.807l-3.593-2.64c-.807-.587.513-2.273-.293-6.306a.716.716,0,0,1,.293-.77l3.556-2.6.22-.22a.555.555,0,0,0,.073-.623L105.884,7.5a.673.673,0,0,0-.843-.183l-4.106,1.8c-.99.4-1.43-1.54-5.609-2.933a.719.719,0,0,1-.477-.587l-.513-4.473c-.037-.293-.22-.623-.55-.623H88.25c-.33,0-.513.33-.55.623L87.187,5.59c-.11,1.063-2.016.44-5.316,3.373a.726.726,0,0,1-.807.147l-4.069-1.8c-.293-.11-.7-.11-.843.183L73.4,12.262A.489.489,0,0,0,73.438,12.849Zm-.587,1.43a.842.842,0,0,1-.257-.22H64.86a1.424,1.424,0,0,0-1.393,1.43v27.24H65.52V16.955a.735.735,0,0,1,.733-.733h9.239C74.318,15.378,73.438,14.792,72.852,14.278Zm3.006,3.41H66.986v25.04h48.027V17.688h-8.872a14.54,14.54,0,0,1-.147,4.179c5.536,4.069,5.206,2.86,1.137,9.9a2.1,2.1,0,0,1-2.676.77l-3.666-1.613a15.693,15.693,0,0,1-4.546,2.64l-.44,3.959a2.234,2.234,0,0,1-.293.917,2.083,2.083,0,0,1-1.65,1.027h-.073c-2.53,0-4.179.11-5.279,0H88.25a1.742,1.742,0,0,1-.88-.22,1.408,1.408,0,0,1-.843-.807,1.8,1.8,0,0,1-.293-.99c-.183-.88-.257-2.126-.44-3.886a15.693,15.693,0,0,1-4.546-2.64c-6.306,2.75-5.1,3.043-9.129-3.959a2.1,2.1,0,0,1,.66-2.713L76,21.867A17.741,17.741,0,0,1,75.858,17.688Zm30.686-1.466h9.239a.735.735,0,0,1,.733.733V42.728h2.053V15.488a1.424,1.424,0,0,0-1.43-1.393h-7.7c-.073.037-.147.11-.22.147ZM93.126,26.01H88.91a.733.733,0,1,1,0-1.466h4.216A.733.733,0,0,1,93.126,26.01Zm-.147-7.882,1.54-.293a3.532,3.532,0,0,0-.587-.917c-.037-.037-.073-.11-.11-.147A4,4,0,0,0,91,15.562,3.886,3.886,0,0,0,88.286,22.2a.711.711,0,0,1-.073,1.1l-3.226,2.236a.689.689,0,0,1-.953-.11,9.132,9.132,0,0,1-.293-11.585.506.506,0,0,1,.11-.147A9.005,9.005,0,0,1,91,10.246a9.211,9.211,0,0,1,7,15.178.78.78,0,0,1-.55.257c-.477,0-3.08-1.98-3.63-2.383-1.173-.807,1.063-1.5,1.063-3.849v-.183l-1.686.293A2.094,2.094,0,0,1,91,21.5a2.255,2.255,0,0,1,0-4.509A2.087,2.087,0,0,1,92.979,18.128Zm3.006-.55.917-.183a.745.745,0,0,1,.257,1.466l-.843.147a5.145,5.145,0,0,1-.99,3.556l1.98,1.393a7.747,7.747,0,0,0,.183-8.725c-.587.367-1.356.917-2.016,1.32A5.372,5.372,0,0,1,95.985,17.578ZM91,18.458a.788.788,0,0,0,0,1.576A.788.788,0,0,0,91,18.458Zm-4.473-1.906c-.623-.4-1.43-.953-1.98-1.32a7.682,7.682,0,0,0,.183,8.725l1.943-1.393A5.374,5.374,0,0,1,86.527,16.551Zm-1.063-2.493,2.053,1.356A5.177,5.177,0,0,1,91,14.1a5.108,5.108,0,0,1,3.483,1.32l2.09-1.356A7.587,7.587,0,0,0,91,11.712,7.5,7.5,0,0,0,85.463,14.058ZM83.63,55.486H98.4a10.677,10.677,0,0,1-2.6-5.169H86.2A10.312,10.312,0,0,1,83.63,55.486Zm17.634,1.466H80.771c-1.723,0-1.393,1.98-1.393,3.19h23.28C102.658,58.932,102.951,56.953,101.265,56.953Zm2.163-9.679H100.6a.733.733,0,0,1,0-1.466h2.823A.733.733,0,0,1,103.428,47.274Zm6.159,0h-2.823a.733.733,0,0,1,0-1.466h2.823A.733.733,0,1,1,109.587,47.274Zm6.2,0H112.96a.733.733,0,0,1,0-1.466h2.823A.733.733,0,0,1,115.783,47.274Zm-52.316-3.08v3.226a1.4,1.4,0,0,0,1.393,1.43h52.279a1.432,1.432,0,0,0,1.43-1.43V44.194h-55.1Z" transform="translate(0 0)" fill-rule="evenodd"/>
      <path id="Trazado_1049599" data-name="Trazado 1049599" d="M1286.972,413.86v25.773h2.053v-27.24A1.424,1.424,0,0,0,1287.6,411h-7.7c-.073.037-.147.11-.22.147l-2.676,1.98h9.239A.735.735,0,0,1,1286.972,413.86Z" transform="translate(-1170.456 -396.905)" fill="#353f47" fill-rule="evenodd"/>
      <path id="Trazado_1049600" data-name="Trazado 1049600" d="M246.027,534.04V509h-8.872a14.539,14.539,0,0,1-.147,4.179c5.536,4.069,5.206,2.86,1.137,9.9a2.1,2.1,0,0,1-2.676.77l-3.666-1.613a15.7,15.7,0,0,1-4.546,2.64l-.44,3.959a2.1,2.1,0,0,1-2.016,1.943c-2.53,0-4.179.11-5.279,0a1.818,1.818,0,0,1-1.137-.22,1.408,1.408,0,0,1-.843-.807,1.8,1.8,0,0,1-.293-.99c-.183-.88-.257-2.126-.44-3.886a15.7,15.7,0,0,1-4.546-2.64c-6.306,2.75-5.1,3.043-9.129-3.959a2.1,2.1,0,0,1,.66-2.713l3.226-2.383a17.741,17.741,0,0,1-.147-4.179H198v25.04Z" transform="translate(-131.014 -491.312)" fill="#92c4fc" fill-rule="evenodd"/>
      <path id="Trazado_1049601" data-name="Trazado 1049601" d="M403.324,70.539l2.75-4.8a.612.612,0,0,0-.257-.807l-3.593-2.64c-.807-.587.513-2.273-.293-6.306a.716.716,0,0,1,.293-.77c.587-.44,3.41-2.456,3.776-2.823a.555.555,0,0,0,.073-.623L403.324,47a.673.673,0,0,0-.843-.183l-4.106,1.8c-.99.4-1.43-1.54-5.609-2.933a.719.719,0,0,1-.477-.587l-.513-4.473c-.037-.293-.22-.623-.55-.623H385.69c-.33,0-.513.33-.55.623l-.513,4.473c-.11,1.063-2.016.44-5.316,3.373a.727.727,0,0,1-.807.147l-4.069-1.8c-.293-.11-.7-.11-.843.183l-2.75,4.766a.489.489,0,0,0,.037.587,1.693,1.693,0,0,1,.257.257l3.556,2.6c.807.623-.55,2.236.293,6.342a.832.832,0,0,1-.293.733L371.1,64.93a.612.612,0,0,0-.257.807l2.75,4.8a.655.655,0,0,0,.843.147c.587-.257,4.033-1.833,4.4-1.833.733,0,1.613,1.723,5.316,2.97a.722.722,0,0,1,.477.623l.513,4.509c.073.257.22.55.55.55h5.573c.33-.037.477-.44.513-.623l.513-4.436c.11-1.1,2.016-.477,5.316-3.41a.749.749,0,0,1,.77-.147l4.106,1.8A.664.664,0,0,0,403.324,70.539ZM400.9,58.771A12.447,12.447,0,1,1,388.44,46.306,12.47,12.47,0,0,1,400.9,58.771Z" transform="translate(-297.44 -39.506)" fill="#6aa9cc" fill-rule="evenodd"/>
      <path id="Trazado_1049602" data-name="Trazado 1049602" d="M564.962,273.96A10.98,10.98,0,1,0,554,263,11,11,0,0,0,564.962,273.96Zm2.126-4.216h-4.216a.733.733,0,1,1,0-1.466h4.216A.733.733,0,0,1,567.088,269.744Zm.073-6.452a2.094,2.094,0,0,1-2.2,1.943,2.255,2.255,0,0,1,0-4.509,2.087,2.087,0,0,1,1.98,1.137l1.54-.293a3.87,3.87,0,1,0-6.232,4.363.712.712,0,0,1-.073,1.1l-3.226,2.236a.689.689,0,0,1-.953-.11,9.132,9.132,0,0,1-.293-11.585.507.507,0,0,1,.11-.147,9.005,9.005,0,0,1,7.149-3.446,9.211,9.211,0,0,1,7,15.178.78.78,0,0,1-.55.257c-.477,0-3.08-1.98-3.629-2.383-1.173-.807,1.173-1.576,1.063-4.033Z" transform="translate(-473.962 -243.734)" fill="#fff" fill-rule="evenodd"/>
      <path id="Trazado_1049603" data-name="Trazado 1049603" d="M645.77,449.332a5.374,5.374,0,0,1-.147-6.012c-.623-.4-1.43-.953-1.98-1.32a7.682,7.682,0,0,0,.183,8.725Z" transform="translate(-559.097 -426.768)" fill="#25a753" fill-rule="evenodd"/>
      <path id="Trazado_1049604" data-name="Trazado 1049604" d="M704.053,349.221a5.255,5.255,0,0,1,6.966,0l2.09-1.356a7.705,7.705,0,0,0-11.108,0Z" transform="translate(-616.537 -333.806)" fill="#ffe600" fill-rule="evenodd"/>
      <path id="Trazado_1049605" data-name="Trazado 1049605" d="M972.833,445.63l-.843.147a5.145,5.145,0,0,1-.99,3.556l1.98,1.393a7.747,7.747,0,0,0,.183-8.725c-.587.367-1.356.917-2.016,1.32a5.369,5.369,0,0,1,.513,1.026l.917-.183A.745.745,0,0,1,972.833,445.63Z" transform="translate(-875.675 -426.768)" fill="#ff1e5a" fill-rule="evenodd"/>
      <path id="Trazado_1049606" data-name="Trazado 1049606" d="M832.77,531.576a.788.788,0,0,0,0-1.576A.788.788,0,0,0,832.77,531.576Z" transform="translate(-741.77 -511.542)" fill="#003648" fill-rule="evenodd"/>
      <path id="Trazado_1049607" data-name="Trazado 1049607" d="M157.1,1232H102v3.226a1.4,1.4,0,0,0,1.393,1.43h52.279a1.432,1.432,0,0,0,1.43-1.43Zm-17.964,3.08a.733.733,0,0,1,0-1.466h2.823a.733.733,0,0,1,0,1.466Zm6.159,0a.733.733,0,0,1,0-1.466h2.823a.733.733,0,1,1,0,1.466Zm6.2,0a.733.733,0,0,1,0-1.466h2.823a.733.733,0,0,1,0,1.466Z" transform="translate(-38.534 -1187.806)" fill="#e6e6e6" fill-rule="evenodd"/>
      <path id="Trazado_1049608" data-name="Trazado 1049608" d="M664.172,1399h-9.605a10.313,10.313,0,0,1-2.566,5.169h14.775A10.678,10.678,0,0,1,664.172,1399Z" transform="translate(-568.37 -1348.683)" fill="#353f47" fill-rule="evenodd"/>
      <path id="Trazado_1049609" data-name="Trazado 1049609" d="M557.185,1579.987H536.728c-1.723,0-1.393,1.98-1.393,3.19h23.28c0-1.173.293-3.226-1.393-3.19Z" transform="translate(-455.958 -1523.035)" fill="#e6e6e6" fill-rule="evenodd"/>
      <path id="Trazado_1049610" data-name="Trazado 1049610" d="M104.053,438.669V412.9a.735.735,0,0,1,.733-.733h9.239c-1.173-.843-2.053-1.43-2.64-1.943a.842.842,0,0,1-.257-.22h-7.736A1.424,1.424,0,0,0,102,411.43v27.24Z" transform="translate(-38.534 -395.942)" fill="#353f47" fill-rule="evenodd"/>
    </g>
  </g>
</svg>
