<svg xmlns="http://www.w3.org/2000/svg" xmlns:xlink="http://www.w3.org/1999/xlink" width="108" height="108" viewBox="0 0 108 108">
  <defs>
    <filter id="Trazado_904820" x="0" y="0" width="108" height="108" filterUnits="userSpaceOnUse">
      <feOffset dy="3" input="SourceAlpha"/>
      <feGaussianBlur stdDeviation="3" result="blur"/>
      <feFlood flood-opacity="0.161"/>
      <feComposite operator="in" in2="blur"/>
      <feComposite in="SourceGraphic"/>
    </filter>
  </defs>
  <g id="Grupo_1210190" data-name="Grupo 1210190" transform="translate(-620 -495.543)">
    <g id="Grupo_1210085" data-name="Grupo 1210085" transform="translate(629 501.543)">
      <g id="Grupo_1206197" data-name="Grupo 1206197" transform="translate(0 0)">
        <g id="Grupo_1202705" data-name="Grupo 1202705" transform="translate(0)">
          <g id="Grupo_1173585" data-name="Grupo 1173585">
            <g id="Grupo_1173428" data-name="Grupo 1173428">
              <g id="Grupo_1171958" data-name="Grupo 1171958">
                <g id="Grupo_1167341" data-name="Grupo 1167341">
                  <g id="Grupo_1166792" data-name="Grupo 1166792">
                    <g transform="matrix(1, 0, 0, 1, -9, -6)" filter="url(#Trazado_904820)">
                      <g id="Trazado_904820-2" data-name="Trazado 904820" transform="translate(9 6)" fill="#fef9e7">
                        <path d="M 44.99999618530273 88.50003051757812 C 39.12687301635742 88.50003051757812 33.43022155761719 87.35010528564453 28.06829643249512 85.08219146728516 C 22.88852119445801 82.89134216308594 18.23629570007324 79.75461578369141 14.24084663391113 75.75916290283203 C 10.24540901184082 71.76371765136719 7.108683586120605 67.11148834228516 4.917821407318115 61.93171691894531 C 2.649921178817749 56.56978988647461 1.499996185302734 50.87313842773438 1.499996185302734 45.00001525878906 C 1.499996185302734 39.12689208984375 2.649921178817749 33.43024063110352 4.917821407318115 28.06830215454102 C 7.108683586120605 22.88852691650391 10.24540901184082 18.23631477355957 14.24084663391113 14.24086570739746 C 18.23629570007324 10.24541568756104 22.88852119445801 7.10869026184082 28.06829643249512 4.917827606201172 C 33.43022155761719 2.649927854537964 39.12687301635742 1.50000274181366 44.99999618530273 1.50000274181366 C 50.87311935424805 1.50000274181366 56.56977081298828 2.649927854537964 61.93169784545898 4.917827606201172 C 67.11147308349609 7.10869026184082 71.76369476318359 10.24541568756104 75.75914764404297 14.24086570739746 C 79.75458526611328 18.23631477355957 82.89131164550781 22.88852691650391 85.08216857910156 28.06830215454102 C 87.35007476806641 33.43024063110352 88.5 39.12689208984375 88.5 45.00001525878906 C 88.5 50.87313842773438 87.35007476806641 56.56978988647461 85.08216857910156 61.93171691894531 C 82.89131164550781 67.11148834228516 79.75458526611328 71.76371765136719 75.75914764404297 75.75916290283203 C 71.76369476318359 79.75461578369141 67.11147308349609 82.89134216308594 61.93169784545898 85.08219146728516 C 56.56977081298828 87.35010528564453 50.87311935424805 88.50003051757812 44.99999618530273 88.50003051757812 Z" stroke="none"/>
                        <path d="M 44.99999618530273 3 C 39.32870864868164 3 33.82865142822266 4.110061645507812 28.65262603759766 6.299346923828125 C 23.65165710449219 8.414573669433594 19.15968322753906 11.44334411621094 15.301513671875 15.301513671875 C 11.44333648681641 19.15968322753906 8.414566040039062 23.65165710449219 6.299339294433594 28.65262985229492 C 4.110054016113281 33.82867050170898 2.999992370605469 39.32872772216797 2.999992370605469 45.00001525878906 C 2.999992370605469 50.67130279541016 4.110054016113281 56.17136001586914 6.299339294433594 61.34738922119141 C 8.414566040039062 66.34837341308594 11.44333648681641 70.84033203125 15.301513671875 74.69850158691406 C 19.15968322753906 78.55668640136719 23.65165710449219 81.58545684814453 28.65262603759766 83.70068359375 C 33.82865142822266 85.88996887207031 39.32870864868164 87.00003051757812 44.99999618530273 87.00003051757812 C 50.67128372192383 87.00003051757812 56.17134094238281 85.88996887207031 61.34736633300781 83.70068359375 C 66.34834289550781 81.58545684814453 70.84030914306641 78.55668640136719 74.69847869873047 74.69850158691406 C 78.55665588378906 70.84033203125 81.58542633056641 66.34837341308594 83.70065307617188 61.34738922119141 C 85.88993835449219 56.17136001586914 87 50.67130279541016 87 45.00001525878906 C 87 39.32872772216797 85.88993835449219 33.82867050170898 83.70065307617188 28.65262985229492 C 81.58542633056641 23.65165710449219 78.55665588378906 19.15968322753906 74.69847869873047 15.301513671875 C 70.84030914306641 11.44334411621094 66.34834289550781 8.414573669433594 61.34736633300781 6.299346923828125 C 56.17134094238281 4.110061645507812 50.67128372192383 3 44.99999618530273 3 M 44.99999618530273 0 C 69.85281372070312 0 90 20.14718627929688 90 45.00001525878906 C 90 69.85282897949219 69.85281372070312 90.00003051757812 44.99999618530273 90.00003051757812 C 20.14717864990234 90.00003051757812 -7.62939453125e-06 69.85282897949219 -7.62939453125e-06 45.00001525878906 C -7.62939453125e-06 20.14718627929688 20.14717864990234 0 44.99999618530273 0 Z" stroke="none" fill="#887013"/>
                      </g>
                    </g>
                  </g>
                </g>
              </g>
            </g>
          </g>
        </g>
      </g>
    </g>
    <g id="performance_6902492" transform="translate(645.494 519.538)">
      <path id="Trazado_1049678" data-name="Trazado 1049678" d="M56.11,43v3.63a2,2,0,0,1-1.9,2.071H2.9A2,2,0,0,1,1,46.63V43Z" transform="translate(-0.05 -2.143)" fill="#9e9e9e"/>
      <path id="Trazado_1049679" data-name="Trazado 1049679" d="M55.9,43v3.63A2,2,0,0,1,54,48.7h2.85a2,2,0,0,0,1.9-2.071V43Z" transform="translate(-2.691 -2.143)" fill="#707070"/>
      <path id="Trazado_1049680" data-name="Trazado 1049680" d="M56.11,41.007V4.9a1.847,1.847,0,0,0-1.9-1.9H2.9A1.847,1.847,0,0,0,1,4.9V41.007Z" transform="translate(-0.05 -0.15)" fill="#02a9f4"/>
      <path id="Trazado_1049681" data-name="Trazado 1049681" d="M56.85,3H54a1.847,1.847,0,0,1,1.9,1.9V41.007h2.85V4.9A1.847,1.847,0,0,0,56.85,3Z" transform="translate(-2.691 -0.15)" fill="#0377bc"/>
      <path id="Trazado_1049682" data-name="Trazado 1049682" d="M37.053,49l2.85,5.7H19L21.85,49Z" transform="translate(-0.947 -2.442)" fill="#7f8e94"/>
      <path id="Trazado_1049683" data-name="Trazado 1049683" d="M37.85,49H35l2.85,5.7H40.7Z" transform="translate(-1.744 -2.442)" fill="#545c60"/>
      <rect id="Rectángulo_419503" data-name="Rectángulo 419503" width="32.306" height="3.801" rx="1.9" transform="translate(12.352 52.259)" fill="#9e9e9e"/>
      <path id="Trazado_1049684" data-name="Trazado 1049684" d="M44.85,55H42a1.9,1.9,0,0,1,0,3.8h2.85a1.9,1.9,0,0,0,0-3.8Z" transform="translate(-2.093 -2.741)" fill="#707070"/>
      <circle id="Elipse_11552" data-name="Elipse 11552" cx="19.953" cy="19.953" r="19.953" transform="translate(8.551 0.95)" fill="#f5f5f5"/>
      <path id="Trazado_1049685" data-name="Trazado 1049685" d="M29.925,1c-.481,0-.95.038-1.425.072a19.931,19.931,0,0,1,0,39.763c.475.034.944.072,1.425.072A19.953,19.953,0,0,0,29.925,1Z" transform="translate(-1.42 -0.05)" fill="#cfd8dc"/>
      <path id="Trazado_1049686" data-name="Trazado 1049686" d="M46.541,21.4a16.058,16.058,0,0,1-3.316,9.787,1.905,1.905,0,0,1-2.86.19l-1.3-1.3a1.951,1.951,0,0,1-.238-2.508A10.452,10.452,0,0,0,37.78,14.009L41.8,9.99A16.086,16.086,0,0,1,46.541,21.4Z" transform="translate(-1.883 -0.498)" fill="#f44335"/>
      <path id="Trazado_1049687" data-name="Trazado 1049687" d="M40.813,9.741l-4.019,4.019a10.378,10.378,0,0,0-6.129-2.974c-.076-.39-.162-.779-.238-1.15a1.045,1.045,0,0,0-2.052,0c-.076.371-.162.76-.238,1.15a10.378,10.378,0,0,0-6.129,2.974L17.99,9.741a16.1,16.1,0,0,1,22.823,0Z" transform="translate(-0.897 -0.249)" fill="#ffdf00"/>
      <path id="Trazado_1049688" data-name="Trazado 1049688" d="M20.715,27.568a1.951,1.951,0,0,1-.238,2.508l-1.3,1.3a1.905,1.905,0,0,1-2.86-.19,16.1,16.1,0,0,1,1.425-21.2l4.019,4.019a10.452,10.452,0,0,0-1.045,13.559Z" transform="translate(-0.648 -0.498)" fill="#a4c400"/>
      <path id="Trazado_1049689" data-name="Trazado 1049689" d="M32.7,21.342a2.85,2.85,0,0,1-5.7,0,72.979,72.979,0,0,1,1.587-10.357c.076-.39.162-.779.238-1.15a1.045,1.045,0,0,1,2.052,0c.076.371.162.76.238,1.15A72.979,72.979,0,0,1,32.7,21.342Z" transform="translate(-1.346 -0.448)" fill="#f44335"/>
      <path id="Trazado_1049690" data-name="Trazado 1049690" d="M54.159,1.9H37.2a20.829,20.829,0,0,0-17.388,0H2.85A2.789,2.789,0,0,0,0,4.751V44.487a2.946,2.946,0,0,0,2.85,3.022H19.366l-1.9,3.8H14.252a2.85,2.85,0,0,0,0,5.7h28.5a2.85,2.85,0,0,0,0-5.7H39.544l-1.9-3.8H54.159a2.946,2.946,0,0,0,2.851-3.022V4.751A2.789,2.789,0,0,0,54.159,1.9Zm0,1.9a.9.9,0,0,1,.95.95V39.907H37.2A20.884,20.884,0,0,0,40.5,3.8ZM47.508,20.9a19,19,0,1,1-19-19,19,19,0,0,1,19,19ZM2.85,3.8H16.508a20.884,20.884,0,0,0,3.3,36.106H1.9V4.751a.9.9,0,0,1,.95-.95ZM43.708,54.159a.95.95,0,0,1-.95.95h-28.5a.95.95,0,1,1,0-1.9h28.5A.95.95,0,0,1,43.708,54.159Zm-6.288-2.85H19.59l1.9-3.8H35.519Zm16.74-5.7H2.85a1.06,1.06,0,0,1-.95-1.121V41.807H55.11v2.679A1.06,1.06,0,0,1,54.159,45.608Z" transform="translate(0 0)"/>
      <path id="Trazado_1049691" data-name="Trazado 1049691" d="M15.516,31.47a2.869,2.869,0,0,0,2.09,1.113c.062,0,.122.006.182.006a2.85,2.85,0,0,0,2.016-.836l1.3-1.3a2.912,2.912,0,0,0,.333-3.741,9.486,9.486,0,0,1,5.193-14.771,62.739,62.739,0,0,0-1.33,9.156,3.8,3.8,0,1,0,7.6,0,62.738,62.738,0,0,0-1.33-9.156,9.49,9.49,0,0,1,5.2,14.771,2.909,2.909,0,0,0,.334,3.74l1.3,1.3a2.856,2.856,0,0,0,4.287-.285,17.09,17.09,0,1,0-27.179,0Zm4.384-3.64a1,1,0,0,1-.142,1.277l-1.3,1.3a.9.9,0,0,1-.733.277.95.95,0,0,1-.7-.374,15.112,15.112,0,0,1,.7-19.244L20.4,13.745a11.385,11.385,0,0,0-.5,14.084ZM29.1,23a1.907,1.907,0,0,1-1.9-1.91A76.129,76.129,0,0,1,29.008,9.778c.01-.045.016-.077.1-.077s.083.032.1.077A76.128,76.128,0,0,1,31,21.094,1.907,1.907,0,0,1,29.1,23Zm12.084,7.306a.95.95,0,0,1-.7.38.91.91,0,0,1-.734-.277l-1.3-1.3a1,1,0,0,1-.143-1.276,11.384,11.384,0,0,0-.5-14.085l2.679-2.678a15.115,15.115,0,0,1,.7,19.242ZM39.14,9.724,36.465,12.4a11.388,11.388,0,0,0-5.3-2.5c-.035-.172-.071-.345-.105-.512a2,2,0,0,0-3.905,0c-.034.167-.07.34-.105.512a11.392,11.392,0,0,0-5.3,2.5L19.067,9.724a15.084,15.084,0,0,1,20.072,0Z" transform="translate(-0.598 -0.2)"/>
      <path id="Trazado_1049692" data-name="Trazado 1049692" d="M34.352,30H31.5a.95.95,0,1,0,0,1.9h.557L29.6,34.357l-2.179-2.179a.95.95,0,0,0-1.344,0l-3.8,3.8a.95.95,0,1,0,1.344,1.344l3.129-3.129,2.179,2.179a.95.95,0,0,0,1.344,0L33.4,33.244V33.8a.95.95,0,0,0,1.9,0V30.95a.95.95,0,0,0-.95-.95Z" transform="translate(-1.096 -1.495)"/>
    </g>
  </g>
</svg>
