<svg xmlns="http://www.w3.org/2000/svg" xmlns:xlink="http://www.w3.org/1999/xlink" width="108" height="108" viewBox="0 0 108 108">
  <defs>
    <filter id="Trazado_904820" x="0" y="0" width="108" height="108" filterUnits="userSpaceOnUse">
      <feOffset dy="3" input="SourceAlpha"/>
      <feGaussianBlur stdDeviation="3" result="blur"/>
      <feFlood flood-opacity="0.161"/>
      <feComposite operator="in" in2="blur"/>
      <feComposite in="SourceGraphic"/>
    </filter>
  </defs>
  <g id="Grupo_1210174" data-name="Grupo 1210174" transform="translate(-200 -325.519)">
    <g id="Grupo_1209259" data-name="Grupo 1209259" transform="translate(0 -159.481)">
      <g id="Grupo_1206197" data-name="Grupo 1206197" transform="translate(0 -277)">
        <g id="Grupo_1202705" data-name="Grupo 1202705" transform="translate(209 768)">
          <g id="Grupo_1173585" data-name="Grupo 1173585" transform="translate(0 0)">
            <g id="Grupo_1173428" data-name="Grupo 1173428">
              <g id="Grupo_1171958" data-name="Grupo 1171958">
                <g id="Grupo_1167341" data-name="Grupo 1167341">
                  <g id="Grupo_1166792" data-name="Grupo 1166792">
                    <g transform="matrix(1, 0, 0, 1, -9, -6)" filter="url(#Trazado_904820)">
                      <g id="Trazado_904820-2" data-name="Trazado 904820" transform="translate(9 6)" fill="#edf5fb">
                        <path d="M 44.99999618530273 88.50002288818359 C 39.12687301635742 88.50002288818359 33.43022155761719 87.35009765625 28.06829643249512 85.08218383789062 C 22.88852119445801 82.89133453369141 18.23629570007324 79.75460815429688 14.24084663391113 75.75916290283203 C 10.24540901184082 71.76371002197266 7.108683586120605 67.11148834228516 4.917821407318115 61.93171310424805 C 2.649921178817749 56.56978607177734 1.499996185302734 50.87313461303711 1.499996185302734 45.0000114440918 C 1.499996185302734 39.12688827514648 2.649921178817749 33.43023681640625 4.917821407318115 28.06829833984375 C 7.108683586120605 22.88852310180664 10.24540901184082 18.2363109588623 14.24084663391113 14.2408618927002 C 18.23629570007324 10.24541187286377 22.88852119445801 7.108686447143555 28.06829643249512 4.917823791503906 C 33.43022155761719 2.649924039840698 39.12687301635742 1.499998927116394 44.99999618530273 1.499998927116394 C 50.87311935424805 1.499998927116394 56.56977081298828 2.649924039840698 61.93169784545898 4.917823791503906 C 67.11147308349609 7.108686447143555 71.76369476318359 10.24541187286377 75.75914764404297 14.2408618927002 C 79.75458526611328 18.2363109588623 82.89131164550781 22.88852310180664 85.08216857910156 28.06829833984375 C 87.35007476806641 33.43023681640625 88.5 39.12688827514648 88.5 45.0000114440918 C 88.5 50.87313461303711 87.35007476806641 56.56978607177734 85.08216857910156 61.93171310424805 C 82.89131164550781 67.11148834228516 79.75458526611328 71.76371002197266 75.75914764404297 75.75916290283203 C 71.76369476318359 79.75460815429688 67.11147308349609 82.89133453369141 61.93169784545898 85.08218383789062 C 56.56977081298828 87.35009765625 50.87311935424805 88.50002288818359 44.99999618530273 88.50002288818359 Z" stroke="none"/>
                        <path d="M 44.99999618530273 3 C 39.32870864868164 3 33.82865142822266 4.110054016113281 28.65262603759766 6.299339294433594 C 23.65165710449219 8.414566040039062 19.15968322753906 11.44333648681641 15.301513671875 15.30152893066406 C 11.44333648681641 19.15969848632812 8.414566040039062 23.65165710449219 6.299339294433594 28.65264129638672 C 4.110054016113281 33.82866668701172 2.999992370605469 39.3287239074707 2.999992370605469 45.0000114440918 C 2.999992370605469 50.67129898071289 4.110054016113281 56.17135620117188 6.299339294433594 61.34738159179688 C 8.414566040039062 66.34836578369141 11.44333648681641 70.84032440185547 15.301513671875 74.69849395751953 C 19.15968322753906 78.55668640136719 23.65165710449219 81.58545684814453 28.65262603759766 83.70068359375 C 33.82865142822266 85.88996887207031 39.32870864868164 87.00002288818359 44.99999618530273 87.00002288818359 C 50.67128372192383 87.00002288818359 56.17134094238281 85.88996887207031 61.34736633300781 83.70068359375 C 66.34834289550781 81.58545684814453 70.84030914306641 78.55668640136719 74.69847869873047 74.69849395751953 C 78.55665588378906 70.84032440185547 81.58542633056641 66.34836578369141 83.70065307617188 61.34738159179688 C 85.88993835449219 56.17135620117188 87 50.67129898071289 87 45.0000114440918 C 87 39.3287239074707 85.88993835449219 33.82866668701172 83.70065307617188 28.65264129638672 C 81.58542633056641 23.65165710449219 78.55665588378906 19.15969848632812 74.69847869873047 15.30152893066406 C 70.84030914306641 11.44333648681641 66.34834289550781 8.414566040039062 61.34736633300781 6.299339294433594 C 56.17134094238281 4.110054016113281 50.67128372192383 3 44.99999618530273 3 M 44.99999618530273 0 C 69.85281372070312 0 90 20.14719390869141 90 45.0000114440918 C 90 69.85282897949219 69.85281372070312 90.00002288818359 44.99999618530273 90.00002288818359 C 20.14717864990234 90.00002288818359 -7.62939453125e-06 69.85282897949219 -7.62939453125e-06 45.0000114440918 C -7.62939453125e-06 20.14719390869141 20.14717864990234 0 44.99999618530273 0 Z" stroke="none" fill="#2f5b79"/>
                      </g>
                    </g>
                  </g>
                </g>
              </g>
            </g>
          </g>
        </g>
      </g>
    </g>
    <g id="statistic_3063551" transform="translate(209.18 333.18)">
      <rect id="Rectángulo_419457" data-name="Rectángulo 419457" width="12" height="8" transform="translate(35.82 61.82)" fill="#d1e4ff"/>
      <path id="Trazado_1049582" data-name="Trazado 1049582" d="M72.707,136.8a1.988,1.988,0,0,1-1.988,1.988H25.988A1.988,1.988,0,0,1,24,136.8V105.988A1.988,1.988,0,0,1,25.988,104H62.767v7.952h9.94Z" transform="translate(-7.006 -77.066)" fill="#548aff"/>
      <rect id="Rectángulo_419458" data-name="Rectángulo 419458" width="8" height="13" transform="translate(33.82 43.82)" fill="#ffc431"/>
      <rect id="Rectángulo_419459" data-name="Rectángulo 419459" width="8" height="6" transform="translate(25.82 50.82)" fill="#ffa100"/>
      <rect id="Rectángulo_419460" data-name="Rectángulo 419460" width="8" height="20" transform="translate(41.82 36.82)" fill="#91c0ff"/>
      <rect id="Rectángulo_419461" data-name="Rectángulo 419461" width="8" height="13" transform="translate(49.82 43.82)" fill="#7dafff"/>
      <rect id="Rectángulo_419462" data-name="Rectángulo 419462" width="24" height="4" transform="translate(29.82 69.82)" fill="#e8f2ff"/>
      <path id="Trazado_1049583" data-name="Trazado 1049583" d="M316.618,39.528a1,1,0,0,1,.924-.618h2.314V32.946h-2.314a1,1,0,0,1-.707-1.708l1.636-1.636-4.217-4.217-1.636,1.636a1,1,0,0,1-1.708-.707V24h-5.964v2.314a1,1,0,0,1-1.708.707L301.6,25.385,297.385,29.6l1.636,1.636a1,1,0,0,1-.707,1.708H296V38.91h2.314a1,1,0,0,1,.924.618h0a1,1,0,0,1-.217,1.09l-1.636,1.636,4.217,4.217,1.636-1.636a1,1,0,0,1,1.708.707v2.314h5.964V45.543a1,1,0,0,1,1.708-.707l1.636,1.636,4.217-4.217-1.636-1.636a1,1,0,0,1-.217-1.09Zm-8.69.376a3.976,3.976,0,1,1,3.976-3.976A3.976,3.976,0,0,1,307.928,39.9Z" transform="translate(-245.209 -7.006)" fill="#ffc431"/>
      <path id="Trazado_1049584" data-name="Trazado 1049584" d="M90.382,159.9h13.129a2.382,2.382,0,0,0,2.382-2.382h0a2.382,2.382,0,0,0-.285-1.129L99.877,145.75A3.328,3.328,0,0,0,96.946,144h0a3.328,3.328,0,0,0-2.931,1.75l-5.731,10.643A2.382,2.382,0,0,0,88,157.523h0a2.382,2.382,0,0,0,2.382,2.382Z" transform="translate(-63.054 -112.096)" fill="#f5714f"/>
      <path id="Trazado_1049585" data-name="Trazado 1049585" d="M64.707,129.8a1,1,0,0,1-.994.994H18.982a1,1,0,0,1-.994-.994V98.982a1,1,0,0,1,.994-.994H47.809V96H18.982A2.985,2.985,0,0,0,16,98.982V129.8a2.985,2.985,0,0,0,2.982,2.982h15.9v5.964h-4.97a.994.994,0,0,0-.994.994v3.976a.994.994,0,0,0,.994.994H30.5l.7.7a.994.994,0,0,0,.7.291h2.982a.994.994,0,0,0,.7-.291l.7-.7H47.4l.7.7a.994.994,0,0,0,.7.291h2.982a.994.994,0,0,0,.7-.291l.7-.7h.582a.994.994,0,0,0,.994-.994v-3.976a.994.994,0,0,0-.994-.994H48.8v-5.964h14.91a2.985,2.985,0,0,0,2.982-2.982v-15.9H64.707ZM52.779,142.719H30.91v-1.988H52.779Zm-5.964-3.976h-9.94v-5.964H40.85v2.982a.994.994,0,0,0,1.988,0v-2.982h3.976Z" transform="translate(0 -70.06)"/>
      <path id="Trazado_1049586" data-name="Trazado 1049586" d="M96.5,153.892a3.376,3.376,0,0,0,2.972-4.976l-5.731-10.643a4.323,4.323,0,0,0-7.612,0L80.4,148.916a3.376,3.376,0,0,0,2.972,4.976Zm-14.517-3.376a1.392,1.392,0,0,1,.166-.658l5.731-10.643a2.334,2.334,0,0,1,4.111,0l5.731,10.643A1.388,1.388,0,0,1,96.5,151.9H83.376A1.389,1.389,0,0,1,81.988,150.517Z" transform="translate(-56.048 -105.09)"/>
      <rect id="Rectángulo_419463" data-name="Rectángulo 419463" width="2" height="6" transform="translate(32.82 35.82)"/>
      <circle id="Elipse_11551" data-name="Elipse 11551" cx="1" cy="1" r="1" transform="translate(32.82 42.82)"/>
      <path id="Trazado_1049587" data-name="Trazado 1049587" d="M84.826,176H77.868v1.988h5.964V195.88H77.868v-4.97H75.88v4.97H69.916v-4.97H67.928v4.97H61.964v-4.97H59.976v4.97H56v1.988H96.755V195.88H93.773V183.952a.994.994,0,0,0-.994-.994H85.82v-5.964a.994.994,0,0,0-.994-.994Zm6.958,8.946V195.88H85.82V184.946Z" transform="translate(-35.03 -140.12)"/>
      <path id="Trazado_1049588" data-name="Trazado 1049588" d="M312.85,24.946l-2.318-.011,1.636-1.636a.994.994,0,0,0,0-1.406l-4.217-4.217a1,1,0,0,0-1.406,0l-1.636,1.636-.011,0V16.994A.994.994,0,0,0,303.9,16H297.94a.994.994,0,0,0-.994.994l-.011,2.318L295.3,17.676a.994.994,0,0,0-1.406,0l-4.217,4.217a.994.994,0,0,0,0,1.406l1.631,1.647h-2.314a.994.994,0,0,0-.994.994V31.9a.994.994,0,0,0,.994.994l2.318.011-1.636,1.636a.994.994,0,0,0,0,1.406l4.217,4.217a.994.994,0,0,0,1.406,0l1.647-1.631V40.85a.994.994,0,0,0,.994.994H303.9a.994.994,0,0,0,.994-.994l.011-2.318,1.636,1.636a.994.994,0,0,0,1.406,0l4.217-4.217a.994.994,0,0,0,0-1.406L310.537,32.9h2.314a.994.994,0,0,0,.994-.994V25.94a.994.994,0,0,0-.994-.994Zm-.994,5.964h-1.32a1.994,1.994,0,0,0-1.41,3.4l.933.933-2.811,2.811-.933-.933a1.995,1.995,0,0,0-3.4,1.41v1.32h-3.976v-1.32a1.994,1.994,0,0,0-3.4-1.41l-.933.933-2.811-2.811.933-.933a1.994,1.994,0,0,0-1.41-3.4h-1.32V26.934h1.32a1.994,1.994,0,0,0,1.41-3.4l-.933-.933,2.811-2.811.933.933a1.994,1.994,0,0,0,3.4-1.41v-1.32h3.976v1.32a1.994,1.994,0,0,0,3.4,1.41l.933-.933L310.06,22.6l-.933.933a1.995,1.995,0,0,0,1.41,3.4h1.32Z" transform="translate(-238.203 0)"/>
      <path id="Trazado_1049589" data-name="Trazado 1049589" d="M356.97,80a4.97,4.97,0,1,0,4.97,4.97A4.97,4.97,0,0,0,356.97,80Zm0,7.952a2.982,2.982,0,1,1,2.982-2.982A2.982,2.982,0,0,1,356.97,87.952Z" transform="translate(-294.251 -56.048)"/>
    </g>
  </g>
</svg>
