<svg xmlns="http://www.w3.org/2000/svg" xmlns:xlink="http://www.w3.org/1999/xlink" width="108" height="108" viewBox="0 0 108 108">
  <defs>
    <filter id="Trazado_904820" x="0" y="0" width="108" height="108" filterUnits="userSpaceOnUse">
      <feOffset dy="3" input="SourceAlpha"/>
      <feGaussianBlur stdDeviation="3" result="blur"/>
      <feFlood flood-opacity="0.161"/>
      <feComposite operator="in" in2="blur"/>
      <feComposite in="SourceGraphic"/>
    </filter>
  </defs>
  <g id="Grupo_1210316" data-name="Grupo 1210316" transform="translate(-208 -8430.215)">
    <g id="Grupo_1210115" data-name="Grupo 1210115" transform="translate(217 8436.215)">
      <g id="Grupo_1206197" data-name="Grupo 1206197" transform="translate(0 0)">
        <g id="Grupo_1202705" data-name="Grupo 1202705">
          <g id="Grupo_1173585" data-name="Grupo 1173585">
            <g id="Grupo_1173428" data-name="Grupo 1173428">
              <g id="Grupo_1171958" data-name="Grupo 1171958">
                <g id="Grupo_1167341" data-name="Grupo 1167341">
                  <g id="Grupo_1166792" data-name="Grupo 1166792">
                    <g transform="matrix(1, 0, 0, 1, -9, -6)" filter="url(#Trazado_904820)">
                      <g id="Trazado_904820-2" data-name="Trazado 904820" transform="translate(9 6)" fill="#fbedfe">
                        <path d="M 44.99999618530273 88.50022125244141 C 39.12687301635742 88.50022125244141 33.43022155761719 87.35029602050781 28.06829643249512 85.08238220214844 C 22.88852119445801 82.89152526855469 18.23629570007324 79.75478363037109 14.24085903167725 75.75933837890625 C 10.24540901184082 71.76387023925781 7.108683586120605 67.11163330078125 4.917821407318115 61.93184661865234 C 2.649921178817749 56.56991195678711 1.499996185302734 50.87324905395508 1.499996185302734 45.0001106262207 C 1.499996185302734 39.12697219848633 2.649921178817749 33.4303092956543 4.917821407318115 28.06836128234863 C 7.108683586120605 22.88858604431152 10.24540901184082 18.23634719848633 14.24085903167725 14.24088573455811 C 18.23629570007324 10.24542331695557 22.88852119445801 7.108697891235352 28.06829643249512 4.917835712432861 C 33.43022155761719 2.649923086166382 39.12687301635742 1.499998092651367 44.99999618530273 1.499998092651367 C 50.87311935424805 1.499998092651367 56.56977081298828 2.649923086166382 61.93169784545898 4.917835712432861 C 67.11147308349609 7.108697891235352 71.76369476318359 10.24542331695557 75.75913238525391 14.24088573455811 C 79.75458526611328 18.23634719848633 82.89131164550781 22.88858604431152 85.08216857910156 28.06836128234863 C 87.35007476806641 33.4303092956543 88.5 39.12697219848633 88.5 45.0001106262207 C 88.5 50.87324905395508 87.35007476806641 56.56991195678711 85.08216857910156 61.93184661865234 C 82.89131164550781 67.11163330078125 79.75458526611328 71.76387023925781 75.75913238525391 75.75933837890625 C 71.76369476318359 79.75478363037109 67.11147308349609 82.89152526855469 61.93169784545898 85.08238220214844 C 56.56977081298828 87.35029602050781 50.87311935424805 88.50022125244141 44.99999618530273 88.50022125244141 Z" stroke="none"/>
                        <path d="M 44.99999618530273 3 C 39.32870864868164 3 33.82865142822266 4.110054016113281 28.65262603759766 6.299339294433594 C 23.65165710449219 8.414581298828125 19.15968322753906 11.44335174560547 15.301513671875 15.30153656005859 C 11.44333648681641 19.15972137451172 8.414566040039062 23.65169525146484 6.299339294433594 28.65268325805664 C 4.110054016113281 33.82873916625977 2.999992370605469 39.32881164550781 2.999992370605469 45.0001106262207 C 2.999992370605469 50.67140960693359 4.110054016113281 56.17146682739258 6.299339294433594 61.34752655029297 C 8.414566040039062 66.3485107421875 11.44333648681641 70.84048461914062 15.301513671875 74.69866943359375 C 19.15969848632812 78.55685424804688 23.65165710449219 81.58563995361328 28.65262603759766 83.70088195800781 C 33.82866668701172 85.89016723632812 39.32870864868164 87.00022125244141 44.99999618530273 87.00022125244141 C 50.67128372192383 87.00022125244141 56.17132568359375 85.89016723632812 61.34736633300781 83.70088195800781 C 66.34834289550781 81.58563995361328 70.84029388427734 78.55685424804688 74.69847869873047 74.69866943359375 C 78.55665588378906 70.84048461914062 81.58542633056641 66.3485107421875 83.70065307617188 61.34752655029297 C 85.88993835449219 56.17146682739258 87 50.67140960693359 87 45.0001106262207 C 87 39.32881164550781 85.88993835449219 33.82873916625977 83.70065307617188 28.65268325805664 C 81.58542633056641 23.65169525146484 78.55665588378906 19.15972137451172 74.69847869873047 15.30153656005859 C 70.84030914306641 11.44335174560547 66.34834289550781 8.414581298828125 61.34736633300781 6.299339294433594 C 56.17134094238281 4.110054016113281 50.67128372192383 3 44.99999618530273 3 M 44.99999618530273 0 C 69.85281372070312 0 90 20.14722442626953 90 45.0001106262207 C 90 69.85296630859375 69.85281372070312 90.00022125244141 44.99999618530273 90.00022125244141 C 20.14717864990234 90.00022125244141 -7.62939453125e-06 69.85296630859375 -7.62939453125e-06 45.0001106262207 C -7.62939453125e-06 20.14722442626953 20.14717864990234 0 44.99999618530273 0 Z" stroke="none" fill="#7b3289"/>
                      </g>
                    </g>
                  </g>
                </g>
              </g>
            </g>
          </g>
        </g>
      </g>
    </g>
    <g id="schedule_1473269_1_" data-name="schedule_1473269 (1)" transform="translate(234.143 8452.176)">
      <path id="Trazado_1050120" data-name="Trazado 1050120" d="M52.059,92.27H11.4a2.9,2.9,0,0,1-2.9-2.9V43.872A3.872,3.872,0,0,1,12.372,40H51.091a3.872,3.872,0,0,1,3.872,3.872V89.366A2.9,2.9,0,0,1,52.059,92.27Zm0,0" transform="translate(-7.032 -35.16)" fill="#6cbae5"/>
      <path id="Trazado_1050121" data-name="Trazado 1050121" d="M56.5,88H91.347v40.655H56.5Zm0,0" transform="translate(-49.225 -77.352)" fill="#fbd699"/>
      <path id="Trazado_1050122" data-name="Trazado 1050122" d="M130.436,256h13.552a1.936,1.936,0,1,1,0,3.872H130.436a1.936,1.936,0,1,1,0-3.872Zm0,0" transform="translate(-112.513 -225.025)" fill="#e48422"/>
      <path id="Trazado_1050123" data-name="Trazado 1050123" d="M164.116,150.52H152.5l3.373-12.649a2.52,2.52,0,0,1,4.869,0Zm0,0" transform="translate(-133.609 -119.544)" fill="#fd9226"/>
      <path id="Trazado_1050124" data-name="Trazado 1050124" d="M96.5,336h5.808v5.808H96.5Zm0,0" transform="translate(-84.385 -295.345)" fill="#fbb540"/>
      <path id="Trazado_1050125" data-name="Trazado 1050125" d="M92.371,319.743a.968.968,0,0,1-.774-.387l-2.9-3.872a.968.968,0,1,1,1.548-1.162l2.324,3.1,6.969-5.227a.968.968,0,1,1,1.162,1.548l-7.744,5.808A.961.961,0,0,1,92.371,319.743Zm0,0" transform="translate(-77.352 -274.249)" fill="#8dc79d"/>
      <g id="Grupo_1210315" data-name="Grupo 1210315" transform="translate(12.115 15.488)">
        <path id="Trazado_1050126" data-name="Trazado 1050126" d="M192.5,344h11.616v1.936H192.5Zm0,0" transform="translate(-180.884 -317.865)" fill="#fbb540"/>
        <path id="Trazado_1050127" data-name="Trazado 1050127" d="M192.5,376h11.616v1.936H192.5Zm0,0" transform="translate(-180.884 -345.993)" fill="#fbb540"/>
        <path id="Trazado_1050128" data-name="Trazado 1050128" d="M96.5,128h1.936v1.936H96.5Zm0,0" transform="translate(-96.5 -128)" fill="#fbb540"/>
        <path id="Trazado_1050129" data-name="Trazado 1050129" d="M96.5,160h1.936v1.936H96.5Zm0,0" transform="translate(-96.5 -156.128)" fill="#fbb540"/>
        <path id="Trazado_1050130" data-name="Trazado 1050130" d="M96.5,192h1.936v1.936H96.5Zm0,0" transform="translate(-96.5 -184.256)" fill="#fbb540"/>
      </g>
      <path id="Trazado_1050131" data-name="Trazado 1050131" d="M291.986,147.521l2.9-2.563a.968.968,0,0,1,1.366.085l2.391,2.709-4.356,3.844-2.391-2.708a.968.968,0,0,1,.086-1.367Zm0,0" transform="translate(-255.93 -127.205)" fill="#9c9c9c"/>
      <path id="Trazado_1050132" data-name="Trazado 1050132" d="M391.334,150.666l-4.354-3.844,2.388-2.7a.968.968,0,0,1,1.366-.085l2.9,2.563a.968.968,0,0,1,.085,1.366Zm0,0" transform="translate(-339.718 -126.391)" fill="#e06661"/>
      <path id="Trazado_1050133" data-name="Trazado 1050133" d="M319.987,345.423h-1.936V330.9a.968.968,0,0,0-.968-.968H307.4a.968.968,0,0,0-.968.968v14.52H304.5V330.9a2.9,2.9,0,0,1,2.9-2.9h9.68a2.9,2.9,0,0,1,2.9,2.9Zm0,0" transform="translate(-267.217 -288.313)" fill="#e06661"/>
      <path id="Trazado_1050134" data-name="Trazado 1050134" d="M311.74,164.5a7.744,7.744,0,0,1,7.744,7.744v1.936a7.744,7.744,0,1,1-15.487,0v-1.936A7.744,7.744,0,0,1,311.74,164.5Zm0,0" transform="translate(-266.774 -144.599)" fill="#c3c3c3"/>
      <path id="Trazado_1050135" data-name="Trazado 1050135" d="M336,212.5h7.744v5.808H336Zm0,0" transform="translate(-294.903 -186.792)" fill="#f7ba61"/>
      <path id="Trazado_1050136" data-name="Trazado 1050136" d="M347.868,308.84h-1.936A1.936,1.936,0,0,1,344,306.9V304H349.8v2.9A1.936,1.936,0,0,1,347.868,308.84Zm0,0" transform="translate(-301.935 -267.217)" fill="#8d8d8d"/>
      <path id="Trazado_1050137" data-name="Trazado 1050137" d="M306.1,260.5a7.733,7.733,0,0,0,14.979,0Zm0,0" transform="translate(-268.626 -228.977)" fill="#9c9c9c"/>
      <path id="Trazado_1050138" data-name="Trazado 1050138" d="M122.436,8h15.487a1.936,1.936,0,0,1,1.936,1.936V17.68a1.936,1.936,0,0,1-1.936,1.936H122.436A1.936,1.936,0,0,1,120.5,17.68V9.936A1.936,1.936,0,0,1,122.436,8Zm0,0" transform="translate(-105.481 -7.032)" fill="#cbcbcb"/>
      <path id="Trazado_1050139" data-name="Trazado 1050139" d="M51.659,16.917a1.936,1.936,0,0,0-2.733.168l-.028.033V8.712a4.846,4.846,0,0,0-4.84-4.84H35.347V2.9a2.9,2.9,0,0,0-2.9-2.9H16.955a2.9,2.9,0,0,0-2.9,2.9v.968H5.339A4.846,4.846,0,0,0,.5,8.712V54.207a3.872,3.872,0,0,0,3.872,3.872H51.8a.968.968,0,0,0,.968-.968V42.591a2.9,2.9,0,0,0-2.9-2.9H48.9V37.349a8.737,8.737,0,0,0,.89-.516c.06-.041.117-.084.175-.126.157-.109.31-.223.459-.343.067-.053.13-.109.193-.164q.2-.174.4-.36c.065-.062.128-.125.193-.193.122-.125.238-.256.353-.388.06-.069.121-.136.178-.207.109-.136.212-.276.312-.418.054-.075.112-.147.163-.225.112-.168.216-.344.318-.521.111-.193.211-.393.307-.6.028-.059.059-.117.086-.177.079-.179.15-.364.217-.549.018-.051.038-.1.055-.151.068-.193.126-.387.179-.59.007-.023.015-.044.021-.068v-.013a8.7,8.7,0,0,0,.283-2.165V27.644a8.661,8.661,0,0,0-.71-3.439l1.762-2a1.936,1.936,0,0,0-.168-2.732Zm.082,10.731v1.936a6.771,6.771,0,0,1-.077.968H49.805v-4.84a.968.968,0,0,0-.968-.968H41.093a.968.968,0,0,0-.968.968v4.84H38.267a6.774,6.774,0,0,1-.078-.968V27.648a6.776,6.776,0,0,1,13.552,0Zm-.683,4.882a6.764,6.764,0,0,1-.445.791,6.66,6.66,0,0,1-.528.688c-.043.051-.088.1-.134.147a6.561,6.561,0,0,1-.5.5c-.041.036-.078.075-.12.11a6.793,6.793,0,0,1-.666.493c-.054.036-.111.067-.166.1a6.5,6.5,0,0,1-.607.331c-.058.028-.114.057-.173.084a6.751,6.751,0,0,1-.8.3c-.042.013-.085.021-.127.033a6.734,6.734,0,0,1-.722.158c-.075.012-.148.025-.224.035a6.167,6.167,0,0,1-1.755,0c-.076-.01-.15-.023-.225-.035a6.692,6.692,0,0,1-.72-.158c-.043-.012-.086-.02-.128-.033a6.75,6.75,0,0,1-.8-.3c-.058-.026-.114-.055-.173-.084a6.5,6.5,0,0,1-.607-.331c-.055-.034-.112-.066-.166-.1a6.792,6.792,0,0,1-.666-.493c-.042-.035-.079-.074-.12-.11a6.649,6.649,0,0,1-.5-.5c-.045-.049-.091-.1-.134-.147a6.766,6.766,0,0,1-.528-.687v0a6.64,6.64,0,0,1-.444-.79l-.02-.043h12.22ZM14.229,11.616a2.9,2.9,0,0,0,2.726,1.936H32.443a2.9,2.9,0,0,0,2.726-1.936h5.986v5.717l-.122-.137a1.936,1.936,0,0,0-2.733-.172l-2.9,2.563a1.937,1.937,0,0,0-.169,2.734l1.712,1.936a8.672,8.672,0,0,0-.686,3.388v1.936a8.681,8.681,0,0,0,.285,2.169v.013c.007.023.015.044.021.068.053.2.112.4.179.591.017.05.037.1.055.151.068.186.138.369.218.548.027.062.059.12.087.181.1.2.193.4.306.594.1.177.205.352.318.521.051.077.108.149.163.225.1.142.2.283.312.418.057.071.118.138.178.207.114.132.231.263.353.387l.193.193q.192.186.4.36c.065.055.129.112.193.165.149.12.3.233.459.342.058.042.115.086.175.126a8.845,8.845,0,0,0,.95.546v1.883a2.833,2.833,0,0,0,.043.424h-.951a2.9,2.9,0,0,0-2.9,2.9v7.744H8.243V11.616ZM37.96,22.49l-1.283-1.452,2.9-2.562,1.307,1.479A8.763,8.763,0,0,0,37.96,22.49Zm1.258,20.1a.968.968,0,0,1,.968-.968h.968v8.712H39.218Zm3.872-3.028V38.087q.126.028.255.051c.174.033.35.059.527.081.091.012.181.026.273.035.271.025.544.041.82.041s.55-.016.821-.041c.1-.009.182-.023.273-.035.177-.022.354-.048.527-.081.1-.019.208-.043.312-.066v1.192a.963.963,0,0,1-.278.678.522.522,0,0,0-.05.039.959.959,0,0,1-.64.252H43.994a.959.959,0,0,1-.9-.67Zm4.779-9.012H42.061V26.68h5.808ZM44.058,5.808a2.9,2.9,0,0,1,2.9,2.9V19.176a8.47,8.47,0,0,0-3.872-.031v-8.5a.968.968,0,0,0-.968-.968H35.347V5.808ZM15.987,2.9a.968.968,0,0,1,.968-.968H32.443a.968.968,0,0,1,.968.968v7.744a.968.968,0,0,1-.968.968H16.955a.968.968,0,0,1-.968-.968ZM2.436,54.207V8.712a2.9,2.9,0,0,1,2.9-2.9h8.712V9.68H7.275a.968.968,0,0,0-.968.968V51.3a.968.968,0,0,0,.968.968H37.282v3.872H4.372A1.936,1.936,0,0,1,2.436,54.207Zm36.783,1.936V52.271h2.9a.968.968,0,0,0,.968-.968V42.01a2.876,2.876,0,0,0,.907.159h1.936a2.87,2.87,0,0,0,1.029-.194V54.207a1.936,1.936,0,0,1-1.936,1.936Zm10.648-14.52a.968.968,0,0,1,.968.968V56.143H48.36a3.831,3.831,0,0,0,.538-1.936V41.623Zm2.073-19.175a8.764,8.764,0,0,0-2.944-2.517l1.381-1.563,2.9,2.561Zm0,0"/>
      <path id="Trazado_1050140" data-name="Trazado 1050140" d="M123.4,148.279h13.552a2.9,2.9,0,0,0,0-5.808h-.225l-3.182-11.93a3.485,3.485,0,0,0-6.739,0l-3.182,11.93H123.4a2.9,2.9,0,1,0,0,5.808Zm5.276-17.24a1.548,1.548,0,0,1,3,0l3.049,11.432h-9.1ZM123.4,144.407h13.552a.968.968,0,1,1,0,1.936H123.4a.968.968,0,1,1,0-1.936Zm0,0" transform="translate(-105.481 -112.464)"/>
      <path id="Trazado_1050141" data-name="Trazado 1050141" d="M89.509,321.679h5.808a.968.968,0,0,0,.968-.968v-3.63l4.453-3.34a.968.968,0,0,0-1.162-1.548l-3.334,2.5a.953.953,0,0,0-.925-.758H89.509a1.016,1.016,0,0,0-.106.021.937.937,0,0,0-.194.04,10.714,10.714,0,0,0-.276.133c-.029.022-.026.034-.043.048a.9.9,0,0,0-.135.152.882.882,0,0,0-.1.145.922.922,0,0,0-.059.168.9.9,0,0,0-.039.194c0,.023-.014.043-.014.066v5.808A.968.968,0,0,0,89.509,321.679Zm4.84-1.936H90.477v-1.936l1.162,1.549a.968.968,0,0,0,1.355.193l1.355-1.016Zm0-3.63-1.742,1.307-1.162-1.549h2.9Zm0,0" transform="translate(-77.394 -274.248)"/>
      <path id="Trazado_1050142" data-name="Trazado 1050142" d="M192.5,344h11.616v1.936H192.5Zm0,0" transform="translate(-168.769 -302.377)"/>
      <path id="Trazado_1050143" data-name="Trazado 1050143" d="M192.5,376h11.616v1.936H192.5Zm0,0" transform="translate(-168.769 -330.505)"/>
      <path id="Trazado_1050144" data-name="Trazado 1050144" d="M96.5,128h1.936v1.936H96.5Zm0,0" transform="translate(-84.385 -112.512)"/>
      <path id="Trazado_1050145" data-name="Trazado 1050145" d="M96.5,160h1.936v1.936H96.5Zm0,0" transform="translate(-84.385 -140.64)"/>
      <path id="Trazado_1050146" data-name="Trazado 1050146" d="M96.5,192h1.936v1.936H96.5Zm0,0" transform="translate(-84.385 -168.768)"/>
    </g>
  </g>
</svg>
