<svg xmlns="http://www.w3.org/2000/svg" xmlns:xlink="http://www.w3.org/1999/xlink" width="113" height="113" viewBox="0 0 113 113">
  <defs>
    <filter id="Trazado_982547" x="0" y="0.001" width="113" height="113" filterUnits="userSpaceOnUse">
      <feOffset dy="3" input="SourceAlpha"/>
      <feGaussianBlur stdDeviation="3" result="blur"/>
      <feFlood flood-opacity="0.161"/>
      <feComposite operator="in" in2="blur"/>
      <feComposite in="SourceGraphic"/>
    </filter>
  </defs>
  <g id="Grupo_1210336" data-name="Grupo 1210336" transform="translate(-4507 -11352.699)">
    <g id="Grupo_1210125" data-name="Grupo 1210125" transform="translate(3395 9030.701)">
      <g id="Grupo_1209055" data-name="Grupo 1209055" transform="translate(0 1091.783)">
        <g id="Grupo_1209049" data-name="Grupo 1209049">
          <g id="Grupo_1208493" data-name="Grupo 1208493" transform="translate(0 -4397.209)">
            <g id="Grupo_1202104" data-name="Grupo 1202104" transform="translate(0 -1149.226)">
              <g id="Grupo_1201923" data-name="Grupo 1201923" transform="translate(-4174.49 4856.378)">
                <g id="Grupo_1176928" data-name="Grupo 1176928" transform="translate(5295.49 1926.273)">
                  <g id="Grupo_1172322" data-name="Grupo 1172322" transform="translate(0 0)">
                    <g id="Grupo_1164700" data-name="Grupo 1164700">
                      <g id="Grupo_1160931" data-name="Grupo 1160931">
                        <g id="Grupo_1160749" data-name="Grupo 1160749">
                          <g id="Grupo_1158891" data-name="Grupo 1158891">
                            <g id="Grupo_1157406" data-name="Grupo 1157406">
                              <g id="Grupo_1155793" data-name="Grupo 1155793">
                                <g id="Grupo_1154704" data-name="Grupo 1154704">
                                  <g id="Grupo_1150790" data-name="Grupo 1150790">
                                    <g id="Grupo_1154214" data-name="Grupo 1154214">
                                      <g id="Grupo_1152583" data-name="Grupo 1152583">
                                        <g id="Grupo_1146973" data-name="Grupo 1146973">
                                          <g id="Grupo_1146954" data-name="Grupo 1146954">
                                            <g transform="matrix(1, 0, 0, 1, -9, -6)" filter="url(#Trazado_982547)">
                                              <g id="Trazado_982547-2" data-name="Trazado 982547" transform="translate(9 6)" fill="#fef9e7">
                                                <path d="M 47.5000114440918 93.49987030029297 C 41.28938293457031 93.49987030029297 35.26534652709961 92.28384399414062 29.5951976776123 89.88558959960938 C 24.11773109436035 87.56881713867188 19.19814491271973 84.25183868408203 14.97310447692871 80.02680206298828 C 10.74805164337158 75.80176544189453 7.43107795715332 70.88218688964844 5.114304542541504 65.40472412109375 C 2.716038227081299 59.73458862304688 1.500011444091797 53.71054840087891 1.500011444091797 47.49993515014648 C 1.500011444091797 41.28932189941406 2.716038227081299 35.26528167724609 5.114304542541504 29.59514808654785 C 7.43107795715332 24.1176815032959 10.74805164337158 19.1981086730957 14.97310447692871 14.97306823730469 C 19.19814491271973 10.74802875518799 24.11773109436035 7.431055068969727 29.5951976776123 5.11428165435791 C 35.26534652709961 2.716028451919556 41.28938293457031 1.500001788139343 47.5000114440918 1.500001788139343 C 53.71063995361328 1.500001788139343 59.73467636108398 2.716028451919556 65.40482330322266 5.11428165435791 C 70.88229370117188 7.431055068969727 75.8018798828125 10.74802875518799 80.02691650390625 14.97306823730469 C 84.25196838378906 19.1981086730957 87.56894683837891 24.1176815032959 89.88571929931641 29.59514808654785 C 92.28398132324219 35.26528167724609 93.50001525878906 41.28932189941406 93.50001525878906 47.49993515014648 C 93.50001525878906 53.71054840087891 92.28398132324219 59.73458862304688 89.88571929931641 65.40472412109375 C 87.56894683837891 70.88218688964844 84.25196838378906 75.80176544189453 80.02691650390625 80.02680206298828 C 75.8018798828125 84.25183868408203 70.88229370117188 87.56881713867188 65.40482330322266 89.88558959960938 C 59.73467636108398 92.28384399414062 53.71063995361328 93.49987030029297 47.5000114440918 93.49987030029297 Z" stroke="none"/>
                                                <path d="M 47.5000114440918 3 C 41.49122619628906 3 35.66378021240234 4.1761474609375 30.17951965332031 6.495796203613281 C 24.880859375 8.7369384765625 20.12153625488281 11.94596862792969 16.03376770019531 16.03373718261719 C 11.94598388671875 20.12149047851562 8.736968994140625 24.88081359863281 6.495811462402344 30.17947387695312 C 4.176162719726562 35.66371917724609 3.000007629394531 41.49116516113281 3.000007629394531 47.49993515014648 C 3.000007629394531 53.50870513916016 4.176162719726562 59.33615112304688 6.495811462402344 64.82039642333984 C 8.736968994140625 70.11905670166016 11.94598388671875 74.87837982177734 16.03376770019531 78.96613311767578 C 20.12153625488281 83.05390167236328 24.880859375 86.26293182373047 30.17951965332031 88.50407409667969 C 35.66378021240234 90.82372283935547 41.49122619628906 91.99987030029297 47.5000114440918 91.99987030029297 C 53.50879669189453 91.99987030029297 59.33624267578125 90.82372283935547 64.82050323486328 88.50407409667969 C 70.11916351318359 86.26293182373047 74.87848663330078 83.05390167236328 78.96625518798828 78.96613311767578 C 83.05403900146484 74.87837982177734 86.2630615234375 70.11905670166016 88.50421142578125 64.82039642333984 C 90.82386016845703 59.33615112304688 92.00001525878906 53.50870513916016 92.00001525878906 47.49993515014648 C 92.00001525878906 41.49116516113281 90.82386016845703 35.66371917724609 88.50421142578125 30.17947387695312 C 86.2630615234375 24.88081359863281 83.05403900146484 20.12149047851562 78.96625518798828 16.03373718261719 C 74.87848663330078 11.94596862792969 70.11916351318359 8.7369384765625 64.82050323486328 6.495796203613281 C 59.33624267578125 4.1761474609375 53.50879669189453 3 47.5000114440918 3 M 47.5000114440918 0 C 73.73353576660156 0 95.00001525878906 21.26644134521484 95.00001525878906 47.49993515014648 C 95.00001525878906 73.73342895507812 73.73353576660156 94.99987030029297 47.5000114440918 94.99987030029297 C 21.26648712158203 94.99987030029297 7.62939453125e-06 73.73342895507812 7.62939453125e-06 47.49993515014648 C 7.62939453125e-06 21.26644134521484 21.26648712158203 0 47.5000114440918 0 Z" stroke="none" fill="#f8ce24"/>
                                              </g>
                                            </g>
                                          </g>
                                        </g>
                                      </g>
                                    </g>
                                  </g>
                                </g>
                              </g>
                            </g>
                          </g>
                        </g>
                      </g>
                    </g>
                  </g>
                </g>
              </g>
            </g>
          </g>
        </g>
      </g>
    </g>
    <g id="Layer_29" data-name="Layer 29" transform="translate(4522.598 11369.292)">
      <path id="Trazado_1050333" data-name="Trazado 1050333" d="M46.872,21.145,48,20.2a18.133,18.133,0,0,1,29.741,13.93,21.078,21.078,0,0,1-8.613,17L46.872,67.454,24.614,51.131a21.078,21.078,0,0,1-8.614-17A18.133,18.133,0,0,1,45.741,20.2Z" transform="translate(-6.971 -6.971)" fill="#b52f28"/>
      <path id="Trazado_1050334" data-name="Trazado 1050334" d="M80.525,16a18.133,18.133,0,0,0-11.608,4.2l-1.131.943L66.654,20.2a18.118,18.118,0,0,0-25.755,2.6,19.938,19.938,0,0,0-.9,5.937,23.186,23.186,0,0,0,9.475,18.7l22.8,16.72L90.044,51.13a21.079,21.079,0,0,0,8.613-17A18.133,18.133,0,0,0,80.524,16Z" transform="translate(-27.884 -6.971)" fill="#d23f34"/>
      <path id="Trazado_1050335" data-name="Trazado 1050335" d="M152,296v25.727h4.116V296" transform="translate(-125.477 -250.954)" fill="#ccc"/>
      <path id="Trazado_1050336" data-name="Trazado 1050336" d="M136,256.516v3.021a2.058,2.058,0,0,0,2.058,2.058h4.116a2.058,2.058,0,0,0,2.058-2.058v-3.021" transform="translate(-111.535 -216.548)" fill="#4fb5dc"/>
      <path id="Trazado_1050337" data-name="Trazado 1050337" d="M152,256.516v.963a2.058,2.058,0,0,0,2.058,2.058h4.116v-3.021Z" transform="translate(-125.477 -216.548)" fill="#5ed3f2"/>
      <circle id="Elipse_11570" data-name="Elipse 11570" cx="9.262" cy="9.262" r="9.262" transform="translate(19.32 22.407)" fill="#f2f2f2"/>
      <circle id="Elipse_11571" data-name="Elipse 11571" cx="4.116" cy="4.116" r="4.116" transform="translate(24.465 27.553)" fill="#b5b5b5"/>
      <path id="Trazado_1050338" data-name="Trazado 1050338" d="M154.058,160a4.087,4.087,0,0,0-1.688.37A4.1,4.1,0,0,0,157.8,165.8a4.1,4.1,0,0,0-3.746-5.8Z" transform="translate(-125.476 -132.447)" fill="#ccc"/>
      <path id="Trazado_1050339" data-name="Trazado 1050339" d="M277.378,134.413a1.029,1.029,0,0,1-.921-.569l-1.774-3.547h-2.451a1.03,1.03,0,0,1-.964-.667l-1.927-5.138-1.257,5.026a1.029,1.029,0,0,1-1,.78H264v-2.058h2.284l1.863-7.453a1.029,1.029,0,0,1,.94-.778,1.042,1.042,0,0,1,1.022.665l2.837,7.565h2.374a1.029,1.029,0,0,1,.921.569l1.138,2.275,1.138-2.275a1.029,1.029,0,0,1,.921-.569h10.291V130.3h-9.655l-1.774,3.548A1.029,1.029,0,0,1,277.378,134.413Z" transform="translate(-223.07 -97.599)" fill="#f6b940"/>
      <circle id="Elipse_11572" data-name="Elipse 11572" cx="12.349" cy="12.349" r="12.349" transform="translate(46.076 46.076)" fill="#6bc13b"/>
      <path id="Trazado_1050340" data-name="Trazado 1050340" d="M355.32,352l-6.174,6.174-2.058-2.058L344,359.2l5.145,5.145,9.262-9.262Z" transform="translate(-292.779 -299.751)" fill="#f2f2f2"/>
      <path id="Trazado_1050341" data-name="Trazado 1050341" d="M133.145,152a5.145,5.145,0,1,0,5.145,5.145A5.145,5.145,0,0,0,133.145,152Zm0,8.233a3.087,3.087,0,1,1,3.087-3.087A3.087,3.087,0,0,1,133.145,160.233Z" transform="translate(-104.564 -125.477)"/>
      <path id="Trazado_1050342" data-name="Trazado 1050342" d="M274.684,130.3l1.774,3.548a1.029,1.029,0,0,0,1.841,0l1.774-3.548h9.655v-2.058H279.436a1.029,1.029,0,0,0-.921.569l-1.138,2.275-1.138-2.275a1.029,1.029,0,0,0-.921-.569h-2.374l-2.837-7.565a1.042,1.042,0,0,0-1.022-.665,1.029,1.029,0,0,0-.94.778l-1.863,7.453H264V130.3h3.087a1.029,1.029,0,0,0,1-.78l1.257-5.026,1.927,5.138a1.03,1.03,0,0,0,.964.667Z" transform="translate(-223.07 -97.599)"/>
      <path id="Trazado_1050343" data-name="Trazado 1050343" d="M349.078,344.3a1.029,1.029,0,0,0-1.455,0l-5.447,5.447-1.331-1.331a1.029,1.029,0,0,0-1.455,0l-3.087,3.087a1.029,1.029,0,0,0,0,1.455l5.145,5.145a1.029,1.029,0,0,0,1.455,0l9.262-9.262a1.029,1.029,0,0,0,0-1.455Zm-6.9,11.621-3.69-3.69,1.632-1.632,1.331,1.331a1.029,1.029,0,0,0,1.455,0l5.447-5.447,1.632,1.632Z" transform="translate(-285.809 -292.781)"/>
      <path id="Trazado_1050344" data-name="Trazado 1050344" d="M62.007,45.548l.762-.559A22.185,22.185,0,0,0,71.8,27.162,19.162,19.162,0,0,0,40.374,12.441l-.472.394-.472-.394A19.162,19.162,0,0,0,8,27.162,22.185,22.185,0,0,0,17.034,44.99l8.46,6.2V70.774A1.029,1.029,0,0,0,26.523,71.8H30.64a1.029,1.029,0,0,0,1.029-1.029V55.723l7.624,5.591a1.03,1.03,0,0,0,1.217,0l4.56-3.344c-.005.152-.023.3-.023.455a13.378,13.378,0,1,0,16.96-12.876ZM28.582,39.9a8.233,8.233,0,1,1,8.233-8.233A8.233,8.233,0,0,1,28.582,39.9Zm0,2.058a10.254,10.254,0,0,0,3.087-.475v1.5a1.03,1.03,0,0,1-1.029,1.029H26.523a1.03,1.03,0,0,1-1.029-1.029v-1.5A10.254,10.254,0,0,0,28.582,41.96ZM27.552,69.745V46.076h2.058V69.745ZM39.9,59.207,31.669,53.17V45.886a3.082,3.082,0,0,0,2.058-2.9V40.567a10.291,10.291,0,1,0-10.291,0v2.421a3.082,3.082,0,0,0,2.058,2.9v2.755l-7.243-5.313a20.117,20.117,0,0,1-8.193-16.167A17.1,17.1,0,0,1,38.112,14.023l1.131.943a1.03,1.03,0,0,0,1.317,0l1.131-.943A17.1,17.1,0,0,1,69.745,27.162a20.117,20.117,0,0,1-8.193,16.168l-2.393,1.755c-.244-.013-.486-.037-.734-.037A13.39,13.39,0,0,0,45.477,55.118ZM58.425,69.745a11.32,11.32,0,1,1,11.32-11.32A11.32,11.32,0,0,1,58.425,69.745Z" transform="translate(0 0)"/>
    </g>
  </g>
</svg>
