<svg xmlns="http://www.w3.org/2000/svg" xmlns:xlink="http://www.w3.org/1999/xlink" width="108" height="108" viewBox="0 0 108 108">
  <defs>
    <filter id="Trazado_904820" x="0" y="0" width="108" height="108" filterUnits="userSpaceOnUse">
      <feOffset dy="3" input="SourceAlpha"/>
      <feGaussianBlur stdDeviation="3" result="blur"/>
      <feFlood flood-opacity="0.161"/>
      <feComposite operator="in" in2="blur"/>
      <feComposite in="SourceGraphic"/>
    </filter>
  </defs>
  <g id="Grupo_1210173" data-name="Grupo 1210173" transform="translate(-191 -775.966)">
    <g id="Grupo_1210072" data-name="Grupo 1210072" transform="translate(0 -669.034)">
      <g id="Grupo_1206690" data-name="Grupo 1206690" transform="translate(-9 683)">
        <g id="Grupo_1202705" data-name="Grupo 1202705" transform="translate(209 768)">
          <g id="Grupo_1173585" data-name="Grupo 1173585" transform="translate(0 0)">
            <g id="Grupo_1173428" data-name="Grupo 1173428">
              <g id="Grupo_1171958" data-name="Grupo 1171958">
                <g id="Grupo_1167341" data-name="Grupo 1167341">
                  <g id="Grupo_1166792" data-name="Grupo 1166792">
                    <g transform="matrix(1, 0, 0, 1, -9, -6)" filter="url(#Trazado_904820)">
                      <g id="Trazado_904820-2" data-name="Trazado 904820" transform="translate(9 6)" fill="#fef9e7">
                        <path d="M 44.99999618530273 88.50002288818359 C 39.12687301635742 88.50002288818359 33.43022155761719 87.35009765625 28.06829643249512 85.08218383789062 C 22.88852119445801 82.89133453369141 18.23629570007324 79.75460815429688 14.24084663391113 75.75916290283203 C 10.24540901184082 71.76371002197266 7.108683586120605 67.11148834228516 4.917821407318115 61.93171310424805 C 2.649921178817749 56.56978607177734 1.499996185302734 50.87313461303711 1.499996185302734 45.0000114440918 C 1.499996185302734 39.12688827514648 2.649921178817749 33.43023681640625 4.917821407318115 28.06829833984375 C 7.108683586120605 22.88852310180664 10.24540901184082 18.2363109588623 14.24084663391113 14.2408618927002 C 18.23629570007324 10.24541187286377 22.88852119445801 7.108686447143555 28.06829643249512 4.917823791503906 C 33.43022155761719 2.649924039840698 39.12687301635742 1.499998927116394 44.99999618530273 1.499998927116394 C 50.87311935424805 1.499998927116394 56.56977081298828 2.649924039840698 61.93169784545898 4.917823791503906 C 67.11147308349609 7.108686447143555 71.76369476318359 10.24541187286377 75.75914764404297 14.2408618927002 C 79.75458526611328 18.2363109588623 82.89131164550781 22.88852310180664 85.08216857910156 28.06829833984375 C 87.35007476806641 33.43023681640625 88.5 39.12688827514648 88.5 45.0000114440918 C 88.5 50.87313461303711 87.35007476806641 56.56978607177734 85.08216857910156 61.93171310424805 C 82.89131164550781 67.11148834228516 79.75458526611328 71.76371002197266 75.75914764404297 75.75916290283203 C 71.76369476318359 79.75460815429688 67.11147308349609 82.89133453369141 61.93169784545898 85.08218383789062 C 56.56977081298828 87.35009765625 50.87311935424805 88.50002288818359 44.99999618530273 88.50002288818359 Z" stroke="none"/>
                        <path d="M 44.99999618530273 3 C 39.32870864868164 3 33.82865142822266 4.110054016113281 28.65262603759766 6.299339294433594 C 23.65165710449219 8.414566040039062 19.15968322753906 11.44333648681641 15.301513671875 15.30152893066406 C 11.44333648681641 19.15969848632812 8.414566040039062 23.65165710449219 6.299339294433594 28.65264129638672 C 4.110054016113281 33.82866668701172 2.999992370605469 39.3287239074707 2.999992370605469 45.0000114440918 C 2.999992370605469 50.67129898071289 4.110054016113281 56.17135620117188 6.299339294433594 61.34738159179688 C 8.414566040039062 66.34836578369141 11.44333648681641 70.84032440185547 15.301513671875 74.69849395751953 C 19.15968322753906 78.55668640136719 23.65165710449219 81.58545684814453 28.65262603759766 83.70068359375 C 33.82865142822266 85.88996887207031 39.32870864868164 87.00002288818359 44.99999618530273 87.00002288818359 C 50.67128372192383 87.00002288818359 56.17134094238281 85.88996887207031 61.34736633300781 83.70068359375 C 66.34834289550781 81.58545684814453 70.84030914306641 78.55668640136719 74.69847869873047 74.69849395751953 C 78.55665588378906 70.84032440185547 81.58542633056641 66.34836578369141 83.70065307617188 61.34738159179688 C 85.88993835449219 56.17135620117188 87 50.67129898071289 87 45.0000114440918 C 87 39.3287239074707 85.88993835449219 33.82866668701172 83.70065307617188 28.65264129638672 C 81.58542633056641 23.65165710449219 78.55665588378906 19.15969848632812 74.69847869873047 15.30152893066406 C 70.84030914306641 11.44333648681641 66.34834289550781 8.414566040039062 61.34736633300781 6.299339294433594 C 56.17134094238281 4.110054016113281 50.67128372192383 3 44.99999618530273 3 M 44.99999618530273 0 C 69.85281372070312 0 90 20.14719390869141 90 45.0000114440918 C 90 69.85282897949219 69.85281372070312 90.00002288818359 44.99999618530273 90.00002288818359 C 20.14717864990234 90.00002288818359 -7.62939453125e-06 69.85282897949219 -7.62939453125e-06 45.0000114440918 C -7.62939453125e-06 20.14719390869141 20.14717864990234 0 44.99999618530273 0 Z" stroke="none" fill="#887013"/>
                      </g>
                    </g>
                  </g>
                </g>
              </g>
            </g>
          </g>
        </g>
      </g>
    </g>
    <g id="security_8716896" transform="translate(210.533 790.966)">
      <g id="Grupo_1210166" data-name="Grupo 1210166" transform="translate(7.5 7.501)">
        <g id="Grupo_1210161" data-name="Grupo 1210161" transform="translate(0 20.28)">
          <path id="Trazado_1049570" data-name="Trazado 1049570" d="M38.012,228.038H8.619A1.123,1.123,0,0,1,7.5,226.912v-31.4A1.119,1.119,0,0,1,9.1,194.5l29.462,14.164a1.127,1.127,0,0,1,.637,1.02l-.068,17.235A1.123,1.123,0,0,1,38.012,228.038Z" transform="translate(-7.5 -194.385)" fill="#d5cfd6"/>
          <path id="Trazado_1049571" data-name="Trazado 1049571" d="M179.727,228.038H150.334a1.123,1.123,0,0,1-1.119-1.126v-31.4a1.119,1.119,0,0,1,1.6-1.016l29.462,14.164a1.127,1.127,0,0,1,.637,1.02l-.068,17.235A1.123,1.123,0,0,1,179.727,228.038Z" transform="translate(-133.836 -194.385)" fill="#f6f3f5"/>
          <path id="Trazado_1049572" data-name="Trazado 1049572" d="M404.194,314.817l-2.815-1.353a1.128,1.128,0,0,1,.2.637l-.068,18.971a1.123,1.123,0,0,1-1.119,1.122h3.256a1.123,1.123,0,0,0,1.119-1.122l.068-17.235A1.127,1.127,0,0,0,404.194,314.817Z" transform="translate(-357.753 -300.542)" fill="#e8e5e8"/>
        </g>
        <g id="Grupo_1210165" data-name="Grupo 1210165" transform="translate(18.022 0)">
          <g id="Grupo_1210164" data-name="Grupo 1210164">
            <g id="Grupo_1210163" data-name="Grupo 1210163">
              <path id="Trazado_1049573" data-name="Trazado 1049573" d="M192.375,42.658c12.557-5.3,16.144-20.251,17.079-26.05a2.09,2.09,0,0,0-1.91-2.42,23.119,23.119,0,0,1-14.569-6.1,2.079,2.079,0,0,0-2.893,0c-3.711,3.63-9.434,5.646-14.614,6.089a2.087,2.087,0,0,0-1.876,2.392c1.557,10.563,7.043,21.819,17.146,26.094A2.1,2.1,0,0,0,192.375,42.658Z" transform="translate(-173.57 -7.501)" fill="#90d774"/>
              <g id="Grupo_1210162" data-name="Grupo 1210162" transform="translate(15.257 6.584)">
                <path id="Trazado_1049574" data-name="Trazado 1049574" d="M332.882,68.274c-.371-.027-.734-.063-1.091-.1a2.083,2.083,0,0,1,.288,1.438c-.935,5.8-4.522,20.75-17.079,26.05a2.114,2.114,0,0,1-.835.166q.927.5,1.912.921a2.1,2.1,0,0,0,1.636,0c12.557-5.3,16.144-20.252,17.079-26.051A2.09,2.09,0,0,0,332.882,68.274Z" transform="translate(-314.165 -68.171)" fill="#78d055"/>
              </g>
              <path id="Trazado_1049575" data-name="Trazado 1049575" d="M230.275,80.727a.925.925,0,0,1-.423-.1c-7.1-3.659-11.12-11.624-12.825-19.1a1.044,1.044,0,0,1,.813-1.261,28.577,28.577,0,0,0,11.774-5.006,1.043,1.043,0,0,1,1.263,0,27.09,27.09,0,0,0,11.695,5.054,1.045,1.045,0,0,1,.832,1.269c-1.386,5.78-4.775,14.979-12.7,19.04a.936.936,0,0,1-.425.1Z" transform="translate(-212.288 -49.889)" fill="#ffe589"/>
            </g>
          </g>
        </g>
      </g>
      <g id="Grupo_1210172" data-name="Grupo 1210172" transform="translate(7.5 7.501)">
        <g id="Grupo_1210168" data-name="Grupo 1210168" transform="translate(0 20.28)">
          <path id="Trazado_1049576" data-name="Trazado 1049576" d="M7.5,201.072v-5.559A1.119,1.119,0,0,1,9.1,194.5l13.773,6.622" transform="translate(-7.5 -194.385)" fill="none" stroke="#000" stroke-linecap="round" stroke-linejoin="round" stroke-miterlimit="10" stroke-width="1.5"/>
          <path id="Trazado_1049577" data-name="Trazado 1049577" d="M38.012,312.831H8.619A1.123,1.123,0,0,1,7.5,311.705V289.5" transform="translate(-7.5 -279.178)" fill="none" stroke="#000" stroke-linecap="round" stroke-linejoin="round" stroke-miterlimit="10" stroke-width="1.5"/>
          <path id="Trazado_1049578" data-name="Trazado 1049578" d="M175.582,206.4l4.7,2.258a1.127,1.127,0,0,1,.637,1.02l-.068,17.235a1.123,1.123,0,0,1-1.119,1.122H150.334a1.123,1.123,0,0,1-1.119-1.126v-31.4a1.119,1.119,0,0,1,1.6-1.016l5.452,2.621" transform="translate(-133.836 -194.385)" fill="none" stroke="#000" stroke-linecap="round" stroke-linejoin="round" stroke-miterlimit="10" stroke-width="1.5"/>
          <g id="Grupo_1210167" data-name="Grupo 1210167" transform="translate(0.504 16.803)">
            <line id="Línea_818" data-name="Línea 818" x2="9.287" fill="none" stroke="#000" stroke-linecap="round" stroke-linejoin="round" stroke-miterlimit="10" stroke-width="1.5"/>
            <line id="Línea_819" data-name="Línea 819" x2="9.287" transform="translate(0 5.132)" fill="none" stroke="#000" stroke-linecap="round" stroke-linejoin="round" stroke-miterlimit="10" stroke-width="1.5"/>
            <line id="Línea_820" data-name="Línea 820" x2="9.287" transform="translate(0 10.264)" fill="none" stroke="#000" stroke-linecap="round" stroke-linejoin="round" stroke-miterlimit="10" stroke-width="1.5"/>
            <line id="Línea_821" data-name="Línea 821" x2="9.287" transform="translate(14.962)" fill="none" stroke="#000" stroke-linecap="round" stroke-linejoin="round" stroke-miterlimit="10" stroke-width="1.5"/>
            <line id="Línea_822" data-name="Línea 822" x2="9.287" transform="translate(14.962 5.132)" fill="none" stroke="#000" stroke-linecap="round" stroke-linejoin="round" stroke-miterlimit="10" stroke-width="1.5"/>
            <line id="Línea_823" data-name="Línea 823" x2="9.287" transform="translate(14.962 10.264)" fill="none" stroke="#000" stroke-linecap="round" stroke-linejoin="round" stroke-miterlimit="10" stroke-width="1.5"/>
          </g>
        </g>
        <g id="Grupo_1210171" data-name="Grupo 1210171" transform="translate(18.022 0)">
          <g id="Grupo_1210170" data-name="Grupo 1210170">
            <g id="Grupo_1210169" data-name="Grupo 1210169">
              <path id="Trazado_1049579" data-name="Trazado 1049579" d="M208.108,22.547a49.41,49.41,0,0,0,1.346-5.939,2.09,2.09,0,0,0-1.91-2.42,23.119,23.119,0,0,1-14.569-6.1,2.079,2.079,0,0,0-2.893,0c-3.711,3.63-9.434,5.645-14.614,6.089a2.087,2.087,0,0,0-1.876,2.392c1.557,10.563,7.043,21.819,17.146,26.094a2.1,2.1,0,0,0,1.636,0c8-3.378,12.361-10.675,14.713-17.025" transform="translate(-173.57 -7.501)" fill="none" stroke="#000" stroke-linecap="round" stroke-linejoin="round" stroke-miterlimit="10" stroke-width="1.5"/>
              <path id="Trazado_1049580" data-name="Trazado 1049580" d="M230.276,80.727a.925.925,0,0,1-.423-.1,22.459,22.459,0,0,1-9.14-9.34,36.822,36.822,0,0,1-3.685-9.758,1.044,1.044,0,0,1,.813-1.261,31.794,31.794,0,0,0,5.7-1.653,26.026,26.026,0,0,0,6.077-3.352,1.043,1.043,0,0,1,1.263,0,27.09,27.09,0,0,0,11.695,5.054,1.045,1.045,0,0,1,.832,1.269c-1.386,5.78-4.775,14.979-12.7,19.04a.937.937,0,0,1-.425.1Z" transform="translate(-212.289 -49.889)" fill="none" stroke="#000" stroke-linecap="round" stroke-linejoin="round" stroke-miterlimit="10" stroke-width="1.5"/>
            </g>
          </g>
          <path id="Trazado_1049581" data-name="Trazado 1049581" d="M297.569,143.195l2.076,2.082a.529.529,0,0,0,.75,0l6.12-6.138" transform="translate(-284.113 -124.854)" fill="none" stroke="#000" stroke-linecap="round" stroke-linejoin="round" stroke-miterlimit="10" stroke-width="1.5"/>
        </g>
      </g>
    </g>
  </g>
</svg>
