<svg xmlns="http://www.w3.org/2000/svg" xmlns:xlink="http://www.w3.org/1999/xlink" width="98" height="98" viewBox="0 0 98 98">
  <defs>
    <filter id="Trazado_904820" x="0" y="0" width="98" height="98" filterUnits="userSpaceOnUse">
      <feOffset dy="3" input="SourceAlpha"/>
      <feGaussianBlur stdDeviation="3" result="blur"/>
      <feFlood flood-opacity="0.161"/>
      <feComposite operator="in" in2="blur"/>
      <feComposite in="SourceGraphic"/>
    </filter>
  </defs>
  <g id="Grupo_1210397" data-name="Grupo 1210397" transform="translate(-611 -12629.491)">
    <g id="Grupo_1210132" data-name="Grupo 1210132" transform="translate(411 11867.491)">
      <g id="Grupo_1202705" data-name="Grupo 1202705" transform="translate(209 768)">
        <g id="Grupo_1173585" data-name="Grupo 1173585" transform="translate(0 0)">
          <g id="Grupo_1173428" data-name="Grupo 1173428">
            <g id="Grupo_1171958" data-name="Grupo 1171958">
              <g id="Grupo_1167341" data-name="Grupo 1167341">
                <g id="Grupo_1166792" data-name="Grupo 1166792">
                  <g transform="matrix(1, 0, 0, 1, -9, -6)" filter="url(#Trazado_904820)">
                    <g id="Trazado_904820-2" data-name="Trazado 904820" transform="translate(9 6)" fill="#fef9e7">
                      <path d="M 39.99999618530273 78.50002288818359 C 34.80187225341797 78.50002288818359 29.76002883911133 77.4822998046875 25.01451873779297 75.47511291503906 C 20.43014144897461 73.53608703613281 16.31264114379883 70.7598876953125 12.77638530731201 67.22362518310547 C 9.240129470825195 63.6873664855957 6.463929653167725 59.56986618041992 4.524896144866943 54.98548889160156 C 2.517718315124512 50.2399787902832 1.499996185302734 45.19814300537109 1.499996185302734 40.0000114440918 C 1.499996185302734 34.8018798828125 2.517718315124512 29.76003456115723 4.524896144866943 25.01453399658203 C 6.463929653167725 20.43015670776367 9.240129470825195 16.31264495849609 12.77638530731201 12.77638912200928 C 16.31264114379883 9.240133285522461 20.43014144897461 6.46393346786499 25.01451873779297 4.524900436401367 C 29.76002883911133 2.517722606658936 34.80186462402344 1.500000357627869 39.99999618530273 1.500000357627869 C 45.19812774658203 1.500000357627869 50.23996353149414 2.517722606658936 54.9854736328125 4.524900436401367 C 59.56985092163086 6.46393346786499 63.68735122680664 9.240133285522461 67.22360992431641 12.77638912200928 C 70.75986480712891 16.31264495849609 73.53606414794922 20.43015670776367 75.47509765625 25.01453399658203 C 77.48227691650391 29.76003456115723 78.5 34.8018798828125 78.5 40.0000114440918 C 78.5 45.19814300537109 77.48227691650391 50.2399787902832 75.47509765625 54.98548889160156 C 73.53606414794922 59.56986618041992 70.75986480712891 63.6873664855957 67.22360992431641 67.22362518310547 C 63.68735122680664 70.7598876953125 59.56985092163086 73.53608703613281 54.9854736328125 75.47511291503906 C 50.23996353149414 77.4822998046875 45.1981201171875 78.50002288818359 39.99999618530273 78.50002288818359 Z" stroke="none"/>
                      <path d="M 39.99999618530273 3 C 35.00370407104492 3 30.15846252441406 3.977851867675781 25.59885025024414 5.906410217285156 C 21.19327545166016 7.769813537597656 17.23603439331055 10.43806457519531 13.83705139160156 13.83705139160156 C 10.43806457519531 17.23603820800781 7.769805908203125 21.19327926635742 5.906410217285156 25.59885025024414 C 3.977851867675781 30.15846633911133 2.999992370605469 35.00371932983398 2.999992370605469 40.0000114440918 C 2.999992370605469 44.99630355834961 3.977851867675781 49.84154510498047 5.906410217285156 54.40115737915039 C 7.769805908203125 58.80674743652344 10.43806457519531 62.76398468017578 13.83705139160156 66.16297149658203 C 17.23603439331055 69.56195831298828 21.19327545166016 72.23020935058594 25.59885025024414 74.09361267089844 C 30.15846252441406 76.02217102050781 35.00370407104492 77.00002288818359 39.99999618530273 77.00002288818359 C 44.99628829956055 77.00002288818359 49.84152984619141 76.02217102050781 54.40114212036133 74.09361267089844 C 58.80671691894531 72.23020935058594 62.76395416259766 69.56195831298828 66.16294097900391 66.16297149658203 C 69.56192779541016 62.76398468017578 72.23017883300781 58.80674743652344 74.09358215332031 54.40115737915039 C 76.02214050292969 49.84154510498047 77 44.99630355834961 77 40.0000114440918 C 77 35.00371932983398 76.02214050292969 30.15846633911133 74.09358215332031 25.59885025024414 C 72.23017883300781 21.19327926635742 69.56192779541016 17.23603820800781 66.16294097900391 13.83705139160156 C 62.76395416259766 10.43806457519531 58.80671691894531 7.769813537597656 54.40114212036133 5.906410217285156 C 49.84152984619141 3.977851867675781 44.99628829956055 3 39.99999618530273 3 M 39.99999618530273 0 C 62.09138488769531 0 80 17.90861129760742 80 40.0000114440918 C 80 62.09140014648438 62.09138488769531 80.00002288818359 39.99999618530273 80.00002288818359 C 17.90861129760742 80.00002288818359 -7.62939453125e-06 62.09140014648438 -7.62939453125e-06 40.0000114440918 C -7.62939453125e-06 17.90861129760742 17.90861129760742 0 39.99999618530273 0 Z" stroke="none" fill="#887013"/>
                    </g>
                  </g>
                </g>
              </g>
            </g>
          </g>
        </g>
      </g>
    </g>
    <g id="Layer_x0020_1" transform="translate(631.951 12591.848)">
      <path id="Trazado_1050499" data-name="Trazado 1050499" d="M563.406,91.031A15.978,15.978,0,0,1,547.67,77.964a.636.636,0,0,1,.5-.745.606.606,0,0,1,.714.5,14.775,14.775,0,0,0,29.051,0,.621.621,0,0,1,.714-.5.658.658,0,0,1,.528.745A16.036,16.036,0,0,1,563.406,91.031ZM548.26,72.812h-.093a.606.606,0,0,1-.5-.714,16.021,16.021,0,0,1,31.5,0,.63.63,0,0,1-1.242.217,14.775,14.775,0,0,0-29.051,0A.6.6,0,0,1,548.26,72.812Z" transform="translate(-530.594 0)" fill-rule="evenodd"/>
      <path id="Trazado_1050500" data-name="Trazado 1050500" d="M39.548,113.133H19.684a.586.586,0,0,1-.466-.186L15.9,109.129c-1.707-1.676-5.618-.435-5.649-.435-1.8.5-3.1.372-3.942-.4a3.019,3.019,0,0,1-.838-2.514V105a2.732,2.732,0,0,1-1.645-2.824c.062-.559.5-.807.838-1.055A1.2,1.2,0,0,0,5.437,100c0-.279-.217-.4-1.024-.776L4.1,99.1a.7.7,0,0,1-.372-.59V96.155C1.744,95.565.564,94.758.192,93.8a1.654,1.654,0,0,1,.124-1.521l4.811-6.425a4.381,4.381,0,0,0-.062-2.39c-.062-.372-.155-.807-.217-1.3a16.888,16.888,0,0,1-.093-1.769,16.387,16.387,0,0,1,22.254-15.3.619.619,0,0,1,.341.807.6.6,0,0,1-.776.341,15.442,15.442,0,0,0-5.432-.993A15.116,15.116,0,0,0,6.089,82.033a9.884,9.884,0,0,0,.186,1.148,5.209,5.209,0,0,1,0,3.1.335.335,0,0,1-.093.217L1.34,92.958a.46.46,0,0,0,.031.4c.124.31.683,1.055,3.135,1.738a.6.6,0,0,1,.466.59v2.452c.807.341,1.707.776,1.707,1.862a2.43,2.43,0,0,1-1.335,2.173,1.091,1.091,0,0,0-.279.217c-.062.435.062,1.055,1.3,1.676a.586.586,0,0,1,.341.559v1.3a1.859,1.859,0,0,0,.435,1.459c.5.435,1.459.466,2.762.124.155-.062,4.625-1.49,6.89.776l3.166,3.631H38.679l-3.042-9.467a13.252,13.252,0,0,1,.621-7.977.635.635,0,0,1,.838-.31.591.591,0,0,1,.31.807,12.326,12.326,0,0,0-.559,7.139l3.29,10.211a.6.6,0,0,1-.093.559A.648.648,0,0,1,39.548,113.133Z" transform="translate(0 -4.845)" fill-rule="evenodd"/>
      <path id="Trazado_1050501" data-name="Trazado 1050501" d="M840.588,312.412a8.755,8.755,0,0,1-6.735-3.2.634.634,0,0,1,.093-.869.6.6,0,0,1,.869.093,7.467,7.467,0,0,0,11.67-.155.618.618,0,1,1,.962.776A8.722,8.722,0,0,1,840.588,312.412Zm6.363-13.067a.648.648,0,0,1-.5-.248,7.293,7.293,0,0,0-5.866-2.855,7.454,7.454,0,0,0-5.773,2.731.628.628,0,0,1-.962-.807,8.746,8.746,0,0,1,13.595.155.63.63,0,0,1-.093.869A.654.654,0,0,1,846.951,299.345Z" transform="translate(-807.776 -228.675)" fill-rule="evenodd"/>
      <path id="Trazado_1050502" data-name="Trazado 1050502" d="M947.369,456.822a3.89,3.89,0,0,1-3.352-1.862.619.619,0,0,1,.217-.869.584.584,0,0,1,.838.217,2.68,2.68,0,0,0,2.3,1.273,2.625,2.625,0,0,0,2.359-1.428.657.657,0,0,1,.838-.248.622.622,0,0,1,.279.838A3.89,3.89,0,0,1,947.369,456.822Zm2.918-4.811a.654.654,0,0,1-.559-.341,2.683,2.683,0,0,0-2.359-1.428,2.641,2.641,0,0,0-2.3,1.3.6.6,0,0,1-.838.186.584.584,0,0,1-.217-.838,3.93,3.93,0,0,1,6.828.186.622.622,0,0,1-.279.838A.5.5,0,0,1,950.287,452.011Z" transform="translate(-914.556 -377.895)" fill-rule="evenodd"/>
      <path id="Trazado_1050503" data-name="Trazado 1050503" d="M423.329,346.177a1.577,1.577,0,0,1-1.552-1.552v-2.607h-9.156A.623.623,0,0,1,412,341.4v-5.649a.623.623,0,0,1,.621-.621h9.156v-2.576A1.537,1.537,0,0,1,423.329,331a1.825,1.825,0,0,1,1.366.559l5.649,5.649a1.893,1.893,0,0,1,0,2.731l-5.649,5.649A1.852,1.852,0,0,1,423.329,346.177Zm-10.087-5.4H422.4a.623.623,0,0,1,.621.621v3.228a.334.334,0,0,0,.31.31.733.733,0,0,0,.5-.217l5.649-5.649a.693.693,0,0,0,0-.993l-5.649-5.649a.7.7,0,0,0-.5-.186.311.311,0,0,0-.31.31v3.2a.623.623,0,0,1-.621.621h-9.156Z" transform="translate(-399.145 -263.558)" fill-rule="evenodd"/>
      <path id="Trazado_1050504" data-name="Trazado 1050504" d="M1104.847,346.177a1.852,1.852,0,0,1-1.366-.59l-5.649-5.649a1.894,1.894,0,0,1,0-2.731l5.649-5.649a1.826,1.826,0,0,1,1.366-.559,1.556,1.556,0,0,1,1.552,1.552v2.576h9.156a.623.623,0,0,1,.621.621V341.4a.623.623,0,0,1-.621.621H1106.4v2.607A1.577,1.577,0,0,1,1104.847,346.177Zm0-13.936a.705.705,0,0,0-.5.186l-5.649,5.649a.693.693,0,0,0,0,.993l5.649,5.649a.733.733,0,0,0,.5.217.334.334,0,0,0,.31-.31V341.4a.623.623,0,0,1,.621-.621h9.156V336.37h-9.156a.623.623,0,0,1-.621-.621v-3.2A.311.311,0,0,0,1104.847,332.242Z" transform="translate(-1063.126 -263.558)" fill-rule="evenodd"/>
      <path id="Trazado_1050505" data-name="Trazado 1050505" d="M615.278,690.159a1.852,1.852,0,0,1-1.366-.59l-1.148-1.117a8.673,8.673,0,0,1-12.663.155l-.993.962a1.852,1.852,0,0,1-1.366.59,1.577,1.577,0,0,1-1.552-1.552V686H592a14.779,14.779,0,0,0,28.741,0H616.83v2.607A1.577,1.577,0,0,1,615.278,690.159Z" transform="translate(-573.558 -607.539)" fill="#f55a3e" fill-rule="evenodd"/>
      <path id="Trazado_1050506" data-name="Trazado 1050506" d="M886.4,660.966a7.4,7.4,0,0,0,5.525-2.452L889.411,656a3.959,3.959,0,0,1-5.9.155L881,658.638A7.446,7.446,0,0,0,886.4,660.966Z" transform="translate(-853.588 -578.47)" fill="#f4fbff" fill-rule="evenodd"/>
      <path id="Trazado_1050507" data-name="Trazado 1050507" d="M886.4,338.538a3.963,3.963,0,0,1,3.011,1.4l2.514-2.514A7.372,7.372,0,0,0,886.4,335a7.539,7.539,0,0,0-5.4,2.3l2.514,2.514A3.9,3.9,0,0,1,886.4,338.538Z" transform="translate(-853.588 -267.434)" fill="#f4fbff" fill-rule="evenodd"/>
      <path id="Trazado_1050508" data-name="Trazado 1050508" d="M1141.494,372.8l-3.445,3.445-.59.59a.693.693,0,0,0,0,.993l4.035,4.066h.031l1.583,1.583c.31.31.807.248.807-.093v-3.228a.623.623,0,0,1,.621-.621h9.156v-4.407h-9.156a.623.623,0,0,1-.621-.621v-3.2a.311.311,0,0,0-.31-.31.7.7,0,0,0-.5.186l-1.583,1.583Z" transform="translate(-1101.884 -302.316)" fill="#dee893" fill-rule="evenodd"/>
      <path id="Trazado_1050509" data-name="Trazado 1050509" d="M468.233,376.445l-5.649-5.649c-.31-.31-.807-.248-.807.124v3.2a.623.623,0,0,1-.621.621H452v4.407h9.156a.623.623,0,0,1,.621.621v3.228c0,.341.5.4.807.093l5.649-5.649A.693.693,0,0,0,468.233,376.445Z" transform="translate(-437.903 -301.926)" fill="#dee893" fill-rule="evenodd"/>
      <path id="Trazado_1050510" data-name="Trazado 1050510" d="M992.017,489a2.776,2.776,0,0,0-2.017.9l.4.4a1.893,1.893,0,0,1,0,2.731l-.4.4a2.663,2.663,0,0,0,2.017.9,2.692,2.692,0,0,0,2.142-1.024l-.248-.279a1.893,1.893,0,0,1,0-2.731l.248-.248A2.721,2.721,0,0,0,992.017,489Z" transform="translate(-959.205 -416.654)" fill="#e1385f" fill-rule="evenodd"/>
      <path id="Trazado_1050511" data-name="Trazado 1050511" d="M600.1,107.753a8.706,8.706,0,0,1,12.663.124l1.148-1.117a1.657,1.657,0,0,1,2.918.993v2.576h3.911a14.779,14.779,0,0,0-28.741,0h4.19v-2.576a1.657,1.657,0,0,1,2.918-.993Z" transform="translate(-573.558 -38.758)" fill="#f55a3e" fill-rule="evenodd"/>
      <path id="Trazado_1050512" data-name="Trazado 1050512" d="M71.5,134.634a16.012,16.012,0,0,1-15.643-12.57H52.167a.623.623,0,0,1-.621-.621v-5.649a.623.623,0,0,1,.621-.621H55.86a15.867,15.867,0,0,1,8.008-10.615A14.724,14.724,0,0,0,59.833,104,15.116,15.116,0,0,0,44.78,120.791a9.883,9.883,0,0,0,.186,1.148,5.209,5.209,0,0,1,0,3.1.335.335,0,0,1-.093.217l-4.842,6.456a.46.46,0,0,0,.031.4c.124.31.683,1.055,3.135,1.738a.6.6,0,0,1,.466.59V136.9c.807.341,1.707.776,1.707,1.862a2.43,2.43,0,0,1-1.335,2.173,1.091,1.091,0,0,0-.279.217c-.062.435.062,1.055,1.3,1.676a.586.586,0,0,1,.341.559v1.3a1.859,1.859,0,0,0,.435,1.459c.5.435,1.459.466,2.762.124.155-.062,4.625-1.49,6.89.776l3.166,3.631H77.37l-3.042-9.467a12.784,12.784,0,0,1,.248-6.859A16.641,16.641,0,0,1,71.5,134.634Z" transform="translate(-38.691 -43.603)" fill="#ffc29f" fill-rule="evenodd"/>
    </g>
  </g>
</svg>
