<svg xmlns="http://www.w3.org/2000/svg" xmlns:xlink="http://www.w3.org/1999/xlink" width="108" height="108" viewBox="0 0 108 108">
  <defs>
    <filter id="Trazado_904820" x="0" y="0" width="108" height="108" filterUnits="userSpaceOnUse">
      <feOffset dy="3" input="SourceAlpha"/>
      <feGaussianBlur stdDeviation="3" result="blur"/>
      <feFlood flood-opacity="0.161"/>
      <feComposite operator="in" in2="blur"/>
      <feComposite in="SourceGraphic"/>
    </filter>
  </defs>
  <g id="Grupo_1210176" data-name="Grupo 1210176" transform="translate(-611 -775.966)">
    <g id="Grupo_1210073" data-name="Grupo 1210073" transform="translate(0 -669.034)">
      <g id="Grupo_1206691" data-name="Grupo 1206691" transform="translate(411 683)">
        <g id="Grupo_1202705" data-name="Grupo 1202705" transform="translate(209 768)">
          <g id="Grupo_1173585" data-name="Grupo 1173585" transform="translate(0 0)">
            <g id="Grupo_1173428" data-name="Grupo 1173428">
              <g id="Grupo_1171958" data-name="Grupo 1171958">
                <g id="Grupo_1167341" data-name="Grupo 1167341">
                  <g id="Grupo_1166792" data-name="Grupo 1166792">
                    <g transform="matrix(1, 0, 0, 1, -9, -6)" filter="url(#Trazado_904820)">
                      <g id="Trazado_904820-2" data-name="Trazado 904820" transform="translate(9 6)" fill="#fef9e7">
                        <path d="M 44.99999618530273 88.50002288818359 C 39.12687301635742 88.50002288818359 33.43022155761719 87.35009765625 28.06829643249512 85.08218383789062 C 22.88852119445801 82.89133453369141 18.23629570007324 79.75460815429688 14.24084663391113 75.75916290283203 C 10.24540901184082 71.76371002197266 7.108683586120605 67.11148834228516 4.917821407318115 61.93171310424805 C 2.649921178817749 56.56978607177734 1.499996185302734 50.87313461303711 1.499996185302734 45.0000114440918 C 1.499996185302734 39.12688827514648 2.649921178817749 33.43023681640625 4.917821407318115 28.06829833984375 C 7.108683586120605 22.88852310180664 10.24540901184082 18.2363109588623 14.24084663391113 14.2408618927002 C 18.23629570007324 10.24541187286377 22.88852119445801 7.108686447143555 28.06829643249512 4.917823791503906 C 33.43022155761719 2.649924039840698 39.12687301635742 1.499998927116394 44.99999618530273 1.499998927116394 C 50.87311935424805 1.499998927116394 56.56977081298828 2.649924039840698 61.93169784545898 4.917823791503906 C 67.11147308349609 7.108686447143555 71.76369476318359 10.24541187286377 75.75914764404297 14.2408618927002 C 79.75458526611328 18.2363109588623 82.89131164550781 22.88852310180664 85.08216857910156 28.06829833984375 C 87.35007476806641 33.43023681640625 88.5 39.12688827514648 88.5 45.0000114440918 C 88.5 50.87313461303711 87.35007476806641 56.56978607177734 85.08216857910156 61.93171310424805 C 82.89131164550781 67.11148834228516 79.75458526611328 71.76371002197266 75.75914764404297 75.75916290283203 C 71.76369476318359 79.75460815429688 67.11147308349609 82.89133453369141 61.93169784545898 85.08218383789062 C 56.56977081298828 87.35009765625 50.87311935424805 88.50002288818359 44.99999618530273 88.50002288818359 Z" stroke="none"/>
                        <path d="M 44.99999618530273 3 C 39.32870864868164 3 33.82865142822266 4.110054016113281 28.65262603759766 6.299339294433594 C 23.65165710449219 8.414566040039062 19.15968322753906 11.44333648681641 15.301513671875 15.30152893066406 C 11.44333648681641 19.15969848632812 8.414566040039062 23.65165710449219 6.299339294433594 28.65264129638672 C 4.110054016113281 33.82866668701172 2.999992370605469 39.3287239074707 2.999992370605469 45.0000114440918 C 2.999992370605469 50.67129898071289 4.110054016113281 56.17135620117188 6.299339294433594 61.34738159179688 C 8.414566040039062 66.34836578369141 11.44333648681641 70.84032440185547 15.301513671875 74.69849395751953 C 19.15968322753906 78.55668640136719 23.65165710449219 81.58545684814453 28.65262603759766 83.70068359375 C 33.82865142822266 85.88996887207031 39.32870864868164 87.00002288818359 44.99999618530273 87.00002288818359 C 50.67128372192383 87.00002288818359 56.17134094238281 85.88996887207031 61.34736633300781 83.70068359375 C 66.34834289550781 81.58545684814453 70.84030914306641 78.55668640136719 74.69847869873047 74.69849395751953 C 78.55665588378906 70.84032440185547 81.58542633056641 66.34836578369141 83.70065307617188 61.34738159179688 C 85.88993835449219 56.17135620117188 87 50.67129898071289 87 45.0000114440918 C 87 39.3287239074707 85.88993835449219 33.82866668701172 83.70065307617188 28.65264129638672 C 81.58542633056641 23.65165710449219 78.55665588378906 19.15969848632812 74.69847869873047 15.30152893066406 C 70.84030914306641 11.44333648681641 66.34834289550781 8.414566040039062 61.34736633300781 6.299339294433594 C 56.17134094238281 4.110054016113281 50.67128372192383 3 44.99999618530273 3 M 44.99999618530273 0 C 69.85281372070312 0 90 20.14719390869141 90 45.0000114440918 C 90 69.85282897949219 69.85281372070312 90.00002288818359 44.99999618530273 90.00002288818359 C 20.14717864990234 90.00002288818359 -7.62939453125e-06 69.85282897949219 -7.62939453125e-06 45.0000114440918 C -7.62939453125e-06 20.14719390869141 20.14717864990234 0 44.99999618530273 0 Z" stroke="none" fill="#887013"/>
                      </g>
                    </g>
                  </g>
                </g>
              </g>
            </g>
          </g>
        </g>
      </g>
    </g>
    <g id="carbon-neutral_18493479" transform="translate(627.403 788.686)">
      <path id="Trazado_1049590" data-name="Trazado 1049590" d="M264.972,19.4c6.893-6.359,20-2.888,17.181,8.5C271.993,31.279,269.7,20.378,264.972,19.4Z" transform="translate(-228.315 -8.818)" fill="#adffad" fill-rule="evenodd"/>
      <path id="Trazado_1049591" data-name="Trazado 1049591" d="M348.972,200.558l-2.282,34.886H359.9l-2.282-34.886a1.111,1.111,0,0,1-.191.017h-8.262a1.11,1.11,0,0,1-.191-.017Z" transform="translate(-300.375 -171.346)" fill="#d8dbdf" fill-rule="evenodd"/>
      <path id="Trazado_1049592" data-name="Trazado 1049592" d="M359.284,150.052h8.262a1.117,1.117,0,0,1,1.117,1.117v3.752a1.118,1.118,0,0,1-1.117,1.117h-8.262a1.117,1.117,0,0,1-1.117-1.117v-3.752a1.117,1.117,0,0,1,1.117-1.117Z" transform="translate(-310.496 -126.808)" fill="#b1b6ba"/>
      <path id="Trazado_1049593" data-name="Trazado 1049593" d="M88.41,248.708v-2.166l10.378-4.8v6.963h9.532v23.056H68.5V246.541l10.378-4.8v6.963Z" transform="translate(-55.063 -207.665)" fill="#c9b0a9" fill-rule="evenodd"/>
      <path id="Trazado_1049594" data-name="Trazado 1049594" d="M293.123,405.256h2.093a2.584,2.584,0,0,1,2.576,2.576v8.119h-7.246v-8.119A2.584,2.584,0,0,1,293.123,405.256Z" transform="translate(-250.867 -351.852)" fill="#ebdbd6" fill-rule="evenodd"/>
      <path id="Trazado_1049595" data-name="Trazado 1049595" d="M112.514,347.946h9.507v5.318h-9.507Z" transform="translate(-93.874 -301.315)" fill="#ebdbd6"/>
      <g id="Grupo_1210175" data-name="Grupo 1210175" transform="translate(6.059 6.249)">
        <path id="Trazado_1049596" data-name="Trazado 1049596" d="M23.967,87.959c2.5-1.511,5.848-3.293,7.191-5.555a5.056,5.056,0,0,0,.721-2.655V71.989a66.724,66.724,0,0,1-7.912-3.4,66.725,66.725,0,0,1-7.912,3.4v7.759a5.056,5.056,0,0,0,.721,2.655c1.344,2.262,4.691,4.044,7.191,5.555Z" transform="translate(-14.874 -61.221)" fill="#85caff" fill-rule="evenodd"/>
        <path id="Trazado_1049597" data-name="Trazado 1049597" d="M10.118,22.78A1.182,1.182,0,1,1,12.164,21.6l1.526,2.644,4.641-4.64A1.182,1.182,0,0,1,20,21.273L14.273,27a1.181,1.181,0,0,1-1.859-.244l-2.3-3.978ZM8.423,17.863v6.914a3.865,3.865,0,0,0,.556,2.052C10,28.555,12.665,30.134,14.806,31.4l.347.207L15.5,31.4c2.14-1.269,4.8-2.848,5.826-4.574a3.848,3.848,0,0,0,.556-2.052V17.863a72.4,72.4,0,0,1-6.73-2.937,72.161,72.161,0,0,1-6.73,2.937ZM13.6,33.436c.323.191.639.379.943.563a1.184,1.184,0,0,0,1.223,0c.3-.183.619-.371.942-.563,2.494-1.479,5.32-3.156,6.654-5.4a6.209,6.209,0,0,0,.886-3.259V17.018a1.181,1.181,0,0,0-.817-1.124,66.065,66.065,0,0,1-7.765-3.343,1.184,1.184,0,0,0-1.022,0,65.989,65.989,0,0,1-7.767,3.343,1.182,1.182,0,0,0-.817,1.124v7.759a6.221,6.221,0,0,0,.886,3.259C8.28,30.28,11.105,31.957,13.6,33.436ZM30.965,10.6a1.182,1.182,0,0,1,1.635-.349,9.327,9.327,0,0,1,4.117,5.759,1.181,1.181,0,1,1-2.294.565,6.952,6.952,0,0,0-3.11-4.341,1.181,1.181,0,0,1-.348-1.634Zm-9.708-.211a1.181,1.181,0,0,1,1.261-1.1c3.186.223,7.1,1.174,9.079,6.594a1.182,1.182,0,1,1-2.219.812c-1.419-3.881-3.835-4.825-7.025-5.048a1.181,1.181,0,0,1-1.1-1.262Zm-4.406-.239a1.183,1.183,0,0,1,1.177-1.187h.319a1.182,1.182,0,0,1,0,2.363l-.313,0h-.006a1.182,1.182,0,0,1-1.182-1.177ZM26.965,50.768H19.823V47.813h7.143Zm1.182-5.318H18.641a1.182,1.182,0,0,0-1.182,1.181V51.95a1.183,1.183,0,0,0,1.182,1.182h9.506a1.182,1.182,0,0,0,1.182-1.182V46.631A1.181,1.181,0,0,0,28.147,45.45ZM52.077,62.916V42.225h-8.35a1.182,1.182,0,0,1-1.182-1.182V35.928l-8.014,3.7V52.806a1.182,1.182,0,0,1-2.364,0V42.225H23.817a1.183,1.183,0,0,1-1.182-1.182V35.928l-8.014,3.7V62.916H38.5V55.98a3.762,3.762,0,0,1,3.757-3.758h2.094a3.761,3.761,0,0,1,3.757,3.758v6.936h3.969Zm-6.332,0H40.863V55.98a1.4,1.4,0,0,1,1.394-1.394h2.094a1.4,1.4,0,0,1,1.393,1.394Zm18.213,0a1.182,1.182,0,0,1,0,2.364H9.009a1.182,1.182,0,1,1,0-2.364h3.249V38.877a1.183,1.183,0,0,1,.685-1.073l10.379-4.8A1.181,1.181,0,0,1,25,34.08v5.781h7.169v-.984a1.181,1.181,0,0,1,.685-1.073l10.377-4.8a1.182,1.182,0,0,1,1.678,1.072v5.781h8.35a1.181,1.181,0,0,1,1.181,1.182V62.916h9.517Zm-15.1-38.491h8.132v3.622H48.855Zm-2.363-.065a2.3,2.3,0,0,1,2.3-2.3h8.262a2.3,2.3,0,0,1,2.3,2.3v3.752a2.3,2.3,0,0,1-.877,1.8L60.5,60.9a1.183,1.183,0,0,1-1.1,1.256l-.08,0a1.178,1.178,0,0,1-1.173-1.1L56.137,30.411H49.7l-.493,7.526a1.182,1.182,0,0,1-1.178,1.106l-.078,0a1.182,1.182,0,0,1-1.1-1.256l.515-7.867a2.294,2.294,0,0,1-.877-1.8Zm3.13-14.513a6.875,6.875,0,0,1,3.424,6.477,27.2,27.2,0,0,0-5.591-4.57,1.182,1.182,0,1,0-1.241,2.011,24.825,24.825,0,0,1,5.53,4.64c-4.686.817-7.2-2.093-9.643-4.917a18.477,18.477,0,0,0-3.181-3.157,10.515,10.515,0,0,1,10.7-.484Zm-13.2,1.894c1.276.264,2.547,1.735,3.893,3.292,2.214,2.562,5.079,5.879,9.869,5.879a12.753,12.753,0,0,0,4.031-.705,1.183,1.183,0,0,0,.774-.837,11.426,11.426,0,0,0-.26-7.051,9.134,9.134,0,0,0-3.9-4.507,12.12,12.12,0,0,0-7.519-1.476,13.286,13.286,0,0,0-7.449,3.379,1.182,1.182,0,0,0,.562,2.026Z" transform="translate(-6.059 -6.249)" fill-rule="evenodd"/>
      </g>
    </g>
  </g>
</svg>
