<svg xmlns="http://www.w3.org/2000/svg" xmlns:xlink="http://www.w3.org/1999/xlink" width="113" height="113" viewBox="0 0 113 113">
  <defs>
    <filter id="Trazado_982547" x="0" y="0" width="113" height="113" filterUnits="userSpaceOnUse">
      <feOffset dy="3" input="SourceAlpha"/>
      <feGaussianBlur stdDeviation="3" result="blur"/>
      <feFlood flood-opacity="0.161"/>
      <feComposite operator="in" in2="blur"/>
      <feComposite in="SourceGraphic"/>
    </filter>
  </defs>
  <g id="Grupo_1210432" data-name="Grupo 1210432" transform="translate(-4465 -12894.369)">
    <g id="Grupo_1210137" data-name="Grupo 1210137" transform="translate(3353 10572.37)">
      <g id="Grupo_1209055" data-name="Grupo 1209055" transform="translate(0 1091.783)">
        <g id="Grupo_1209049" data-name="Grupo 1209049">
          <g id="Grupo_1208493" data-name="Grupo 1208493" transform="translate(0 -4397.209)">
            <g id="Grupo_1202104" data-name="Grupo 1202104" transform="translate(0 -1149.226)">
              <g id="Grupo_1201923" data-name="Grupo 1201923" transform="translate(-4174.49 4856.378)">
                <g id="Grupo_1176928" data-name="Grupo 1176928" transform="translate(5295.49 1926.273)">
                  <g id="Grupo_1172322" data-name="Grupo 1172322" transform="translate(0 0)">
                    <g id="Grupo_1164700" data-name="Grupo 1164700">
                      <g id="Grupo_1160931" data-name="Grupo 1160931">
                        <g id="Grupo_1160749" data-name="Grupo 1160749">
                          <g id="Grupo_1158891" data-name="Grupo 1158891">
                            <g id="Grupo_1157406" data-name="Grupo 1157406">
                              <g id="Grupo_1155793" data-name="Grupo 1155793">
                                <g id="Grupo_1154704" data-name="Grupo 1154704">
                                  <g id="Grupo_1150790" data-name="Grupo 1150790">
                                    <g id="Grupo_1154214" data-name="Grupo 1154214">
                                      <g id="Grupo_1152583" data-name="Grupo 1152583">
                                        <g id="Grupo_1146973" data-name="Grupo 1146973">
                                          <g id="Grupo_1146954" data-name="Grupo 1146954">
                                            <g transform="matrix(1, 0, 0, 1, -9, -6)" filter="url(#Trazado_982547)">
                                              <g id="Trazado_982547-2" data-name="Trazado 982547" transform="translate(9 6)" fill="#fef9e7">
                                                <path d="M 47.5000114440918 93.49987030029297 C 41.28938293457031 93.49987030029297 35.26534652709961 92.28384399414062 29.5951976776123 89.88558959960938 C 24.11773109436035 87.56881713867188 19.19814491271973 84.25183868408203 14.97310447692871 80.02680206298828 C 10.74805164337158 75.80176544189453 7.43107795715332 70.88218688964844 5.114304542541504 65.40472412109375 C 2.716038227081299 59.73458862304688 1.500011444091797 53.71054840087891 1.500011444091797 47.49993515014648 C 1.500011444091797 41.28932189941406 2.716038227081299 35.26528167724609 5.114304542541504 29.59514808654785 C 7.43107795715332 24.1176815032959 10.74805164337158 19.1981086730957 14.97310447692871 14.97306823730469 C 19.19814491271973 10.74802875518799 24.11773109436035 7.431055068969727 29.5951976776123 5.11428165435791 C 35.26534652709961 2.716028451919556 41.28938293457031 1.500001788139343 47.5000114440918 1.500001788139343 C 53.71063995361328 1.500001788139343 59.73467636108398 2.716028451919556 65.40482330322266 5.11428165435791 C 70.88229370117188 7.431055068969727 75.8018798828125 10.74802875518799 80.02691650390625 14.97306823730469 C 84.25196838378906 19.1981086730957 87.56894683837891 24.1176815032959 89.88571929931641 29.59514808654785 C 92.28398132324219 35.26528167724609 93.50001525878906 41.28932189941406 93.50001525878906 47.49993515014648 C 93.50001525878906 53.71054840087891 92.28398132324219 59.73458862304688 89.88571929931641 65.40472412109375 C 87.56894683837891 70.88218688964844 84.25196838378906 75.80176544189453 80.02691650390625 80.02680206298828 C 75.8018798828125 84.25183868408203 70.88229370117188 87.56881713867188 65.40482330322266 89.88558959960938 C 59.73467636108398 92.28384399414062 53.71063995361328 93.49987030029297 47.5000114440918 93.49987030029297 Z" stroke="none"/>
                                                <path d="M 47.5000114440918 3 C 41.49122619628906 3 35.66378021240234 4.1761474609375 30.17951965332031 6.495796203613281 C 24.880859375 8.7369384765625 20.12153625488281 11.94596862792969 16.03376770019531 16.03373718261719 C 11.94598388671875 20.12149047851562 8.736968994140625 24.88081359863281 6.495811462402344 30.17947387695312 C 4.176162719726562 35.66371917724609 3.000007629394531 41.49116516113281 3.000007629394531 47.49993515014648 C 3.000007629394531 53.50870513916016 4.176162719726562 59.33615112304688 6.495811462402344 64.82039642333984 C 8.736968994140625 70.11905670166016 11.94598388671875 74.87837982177734 16.03376770019531 78.96613311767578 C 20.12153625488281 83.05390167236328 24.880859375 86.26293182373047 30.17951965332031 88.50407409667969 C 35.66378021240234 90.82372283935547 41.49122619628906 91.99987030029297 47.5000114440918 91.99987030029297 C 53.50879669189453 91.99987030029297 59.33624267578125 90.82372283935547 64.82050323486328 88.50407409667969 C 70.11916351318359 86.26293182373047 74.87848663330078 83.05390167236328 78.96625518798828 78.96613311767578 C 83.05403900146484 74.87837982177734 86.2630615234375 70.11905670166016 88.50421142578125 64.82039642333984 C 90.82386016845703 59.33615112304688 92.00001525878906 53.50870513916016 92.00001525878906 47.49993515014648 C 92.00001525878906 41.49116516113281 90.82386016845703 35.66371917724609 88.50421142578125 30.17947387695312 C 86.2630615234375 24.88081359863281 83.05403900146484 20.12149047851562 78.96625518798828 16.03373718261719 C 74.87848663330078 11.94596862792969 70.11916351318359 8.7369384765625 64.82050323486328 6.495796203613281 C 59.33624267578125 4.1761474609375 53.50879669189453 3 47.5000114440918 3 M 47.5000114440918 0 C 73.73353576660156 0 95.00001525878906 21.26644134521484 95.00001525878906 47.49993515014648 C 95.00001525878906 73.73342895507812 73.73353576660156 94.99987030029297 47.5000114440918 94.99987030029297 C 21.26648712158203 94.99987030029297 7.62939453125e-06 73.73342895507812 7.62939453125e-06 47.49993515014648 C 7.62939453125e-06 21.26644134521484 21.26648712158203 0 47.5000114440918 0 Z" stroke="none" fill="#f8ce24"/>
                                              </g>
                                            </g>
                                          </g>
                                        </g>
                                      </g>
                                    </g>
                                  </g>
                                </g>
                              </g>
                            </g>
                          </g>
                        </g>
                      </g>
                    </g>
                  </g>
                </g>
              </g>
            </g>
          </g>
        </g>
      </g>
    </g>
    <g id="hanging_12015132" transform="translate(4489.986 12915.986)">
      <g id="color" transform="translate(2.535 14.955)">
        <path id="Trazado_1050595" data-name="Trazado 1050595" d="M47.4,47.119H6L26.7,14Z" transform="translate(2.28 -1.58)" fill="#ffc943"/>
        <path id="Trazado_1050596" data-name="Trazado 1050596" d="M57.888,8H4.07A2.076,2.076,0,0,0,2,10.07V43.189a2.076,2.076,0,0,0,2.07,2.07H15.455L30.979,20.42,46.5,45.259H57.888a2.076,2.076,0,0,0,2.07-2.07V10.07A2.076,2.076,0,0,0,57.888,8ZM10.28,20.42a4.14,4.14,0,1,1,4.14-4.14A4.14,4.14,0,0,1,10.28,20.42Zm41.4,0a4.14,4.14,0,1,1,4.14-4.14A4.152,4.152,0,0,1,51.679,20.42Z" transform="translate(-2 -8)" fill="#43b3ff"/>
      </g>
      <g id="outline" transform="translate(1.5 1.5)">
        <g id="Grupo_1210431" data-name="Grupo 1210431">
          <path id="Trazado_1050597" data-name="Trazado 1050597" d="M28.112,13.969a1.076,1.076,0,0,0-1.755,0l-20.7,33.12a1.034,1.034,0,0,0,.877,1.583h41.4a1.034,1.034,0,0,0,.877-1.583ZM8.4,46.6,27.234,16.471,46.066,46.6Z" transform="translate(2.78 11.356)"/>
          <path id="Trazado_1050598" data-name="Trazado 1050598" d="M15.5,20.535v10.35a1.035,1.035,0,0,0,2.07,0V20.535a1.035,1.035,0,0,0-2.07,0Z" transform="translate(13.479 17.759)"/>
          <ellipse id="Elipse_11576" data-name="Elipse 11576" cx="0.5" cy="1" rx="0.5" ry="1" transform="translate(29.514 52.514)"/>
          <path id="Trazado_1050599" data-name="Trazado 1050599" d="M58.423,13.92H44.362L32.246,1.8a1.035,1.035,0,0,0-1.463,0L18.666,13.92H4.6a3.108,3.108,0,0,0-3.1,3.1V39.794a1.035,1.035,0,1,0,2.07,0V17.025A1.036,1.036,0,0,1,4.6,15.99H16.6l-2.932,2.932a5.19,5.19,0,1,0,1.463,1.463l4.4-4.4H43.505l4.4,4.4a5.19,5.19,0,1,0,1.463-1.463L46.432,15.99H58.423a1.036,1.036,0,0,1,1.035,1.035V50.144a1.037,1.037,0,0,1-1.035,1.035h-6.21a1.035,1.035,0,0,0,0,2.07h6.21a3.108,3.108,0,0,0,3.1-3.1V17.025a3.108,3.108,0,0,0-3.1-3.1Zm-44.5,9.315a3.1,3.1,0,1,1-3.1-3.1,3.069,3.069,0,0,1,1.33.311L10.083,22.5a1.035,1.035,0,1,0,1.464,1.464L13.608,21.9a3.069,3.069,0,0,1,.311,1.33Zm38.294-3.1a3.1,3.1,0,1,1-3.1,3.1,3.069,3.069,0,0,1,.311-1.33l2.062,2.062A1.035,1.035,0,1,0,52.945,22.5l-2.062-2.062a3.069,3.069,0,0,1,1.33-.311ZM21.593,13.92,31.514,4l9.921,9.921Z" transform="translate(-1.5 -1.5)"/>
          <path id="Trazado_1050600" data-name="Trazado 1050600" d="M4.6,29.71h6.21a1.035,1.035,0,0,0,0-2.07H4.6A1.036,1.036,0,0,1,3.57,26.6v-2.07a1.035,1.035,0,0,0-2.07,0V26.6a3.108,3.108,0,0,0,3.1,3.1Z" transform="translate(-1.5 22.039)"/>
          <circle id="Elipse_11577" data-name="Elipse 11577" cx="1" cy="1" r="1" transform="translate(0.514 41.514)"/>
        </g>
      </g>
    </g>
  </g>
</svg>
