<svg xmlns="http://www.w3.org/2000/svg" xmlns:xlink="http://www.w3.org/1999/xlink" width="113" height="113" viewBox="0 0 113 113">
  <defs>
    <filter id="Trazado_982547" x="0" y="0" width="113" height="113" filterUnits="userSpaceOnUse">
      <feOffset dy="3" input="SourceAlpha"/>
      <feGaussianBlur stdDeviation="3" result="blur"/>
      <feFlood flood-opacity="0.161"/>
      <feComposite operator="in" in2="blur"/>
      <feComposite in="SourceGraphic"/>
    </filter>
  </defs>
  <g id="Grupo_1210435" data-name="Grupo 1210435" transform="translate(-4797 -12894.369)">
    <g id="Grupo_1210138" data-name="Grupo 1210138" transform="translate(3685 10572.37)">
      <g id="Grupo_1209055" data-name="Grupo 1209055" transform="translate(0 1091.783)">
        <g id="Grupo_1209049" data-name="Grupo 1209049">
          <g id="Grupo_1208493" data-name="Grupo 1208493" transform="translate(0 -4397.209)">
            <g id="Grupo_1202104" data-name="Grupo 1202104" transform="translate(0 -1149.226)">
              <g id="Grupo_1201923" data-name="Grupo 1201923" transform="translate(-4174.49 4856.378)">
                <g id="Grupo_1176928" data-name="Grupo 1176928" transform="translate(5295.49 1926.273)">
                  <g id="Grupo_1172322" data-name="Grupo 1172322" transform="translate(0 0)">
                    <g id="Grupo_1164700" data-name="Grupo 1164700">
                      <g id="Grupo_1160931" data-name="Grupo 1160931">
                        <g id="Grupo_1160749" data-name="Grupo 1160749">
                          <g id="Grupo_1158891" data-name="Grupo 1158891">
                            <g id="Grupo_1157406" data-name="Grupo 1157406">
                              <g id="Grupo_1155793" data-name="Grupo 1155793">
                                <g id="Grupo_1154704" data-name="Grupo 1154704">
                                  <g id="Grupo_1150790" data-name="Grupo 1150790">
                                    <g id="Grupo_1154214" data-name="Grupo 1154214">
                                      <g id="Grupo_1152583" data-name="Grupo 1152583">
                                        <g id="Grupo_1146973" data-name="Grupo 1146973">
                                          <g id="Grupo_1146954" data-name="Grupo 1146954">
                                            <g transform="matrix(1, 0, 0, 1, -9, -6)" filter="url(#Trazado_982547)">
                                              <g id="Trazado_982547-2" data-name="Trazado 982547" transform="translate(9 6)" fill="#fef9e7">
                                                <path d="M 47.5000114440918 93.49987030029297 C 41.28938293457031 93.49987030029297 35.26534652709961 92.28384399414062 29.5951976776123 89.88558959960938 C 24.11773109436035 87.56881713867188 19.19814491271973 84.25183868408203 14.97310447692871 80.02680206298828 C 10.74805164337158 75.80176544189453 7.43107795715332 70.88218688964844 5.114304542541504 65.40472412109375 C 2.716038227081299 59.73458862304688 1.500011444091797 53.71054840087891 1.500011444091797 47.49993515014648 C 1.500011444091797 41.28932189941406 2.716038227081299 35.26528167724609 5.114304542541504 29.59514808654785 C 7.43107795715332 24.1176815032959 10.74805164337158 19.1981086730957 14.97310447692871 14.97306823730469 C 19.19814491271973 10.74802875518799 24.11773109436035 7.431055068969727 29.5951976776123 5.11428165435791 C 35.26534652709961 2.716028451919556 41.28938293457031 1.500001788139343 47.5000114440918 1.500001788139343 C 53.71063995361328 1.500001788139343 59.73467636108398 2.716028451919556 65.40482330322266 5.11428165435791 C 70.88229370117188 7.431055068969727 75.8018798828125 10.74802875518799 80.02691650390625 14.97306823730469 C 84.25196838378906 19.1981086730957 87.56894683837891 24.1176815032959 89.88571929931641 29.59514808654785 C 92.28398132324219 35.26528167724609 93.50001525878906 41.28932189941406 93.50001525878906 47.49993515014648 C 93.50001525878906 53.71054840087891 92.28398132324219 59.73458862304688 89.88571929931641 65.40472412109375 C 87.56894683837891 70.88218688964844 84.25196838378906 75.80176544189453 80.02691650390625 80.02680206298828 C 75.8018798828125 84.25183868408203 70.88229370117188 87.56881713867188 65.40482330322266 89.88558959960938 C 59.73467636108398 92.28384399414062 53.71063995361328 93.49987030029297 47.5000114440918 93.49987030029297 Z" stroke="none"/>
                                                <path d="M 47.5000114440918 3 C 41.49122619628906 3 35.66378021240234 4.1761474609375 30.17951965332031 6.495796203613281 C 24.880859375 8.7369384765625 20.12153625488281 11.94596862792969 16.03376770019531 16.03373718261719 C 11.94598388671875 20.12149047851562 8.736968994140625 24.88081359863281 6.495811462402344 30.17947387695312 C 4.176162719726562 35.66371917724609 3.000007629394531 41.49116516113281 3.000007629394531 47.49993515014648 C 3.000007629394531 53.50870513916016 4.176162719726562 59.33615112304688 6.495811462402344 64.82039642333984 C 8.736968994140625 70.11905670166016 11.94598388671875 74.87837982177734 16.03376770019531 78.96613311767578 C 20.12153625488281 83.05390167236328 24.880859375 86.26293182373047 30.17951965332031 88.50407409667969 C 35.66378021240234 90.82372283935547 41.49122619628906 91.99987030029297 47.5000114440918 91.99987030029297 C 53.50879669189453 91.99987030029297 59.33624267578125 90.82372283935547 64.82050323486328 88.50407409667969 C 70.11916351318359 86.26293182373047 74.87848663330078 83.05390167236328 78.96625518798828 78.96613311767578 C 83.05403900146484 74.87837982177734 86.2630615234375 70.11905670166016 88.50421142578125 64.82039642333984 C 90.82386016845703 59.33615112304688 92.00001525878906 53.50870513916016 92.00001525878906 47.49993515014648 C 92.00001525878906 41.49116516113281 90.82386016845703 35.66371917724609 88.50421142578125 30.17947387695312 C 86.2630615234375 24.88081359863281 83.05403900146484 20.12149047851562 78.96625518798828 16.03373718261719 C 74.87848663330078 11.94596862792969 70.11916351318359 8.7369384765625 64.82050323486328 6.495796203613281 C 59.33624267578125 4.1761474609375 53.50879669189453 3 47.5000114440918 3 M 47.5000114440918 0 C 73.73353576660156 0 95.00001525878906 21.26644134521484 95.00001525878906 47.49993515014648 C 95.00001525878906 73.73342895507812 73.73353576660156 94.99987030029297 47.5000114440918 94.99987030029297 C 21.26648712158203 94.99987030029297 7.62939453125e-06 73.73342895507812 7.62939453125e-06 47.49993515014648 C 7.62939453125e-06 21.26644134521484 21.26648712158203 0 47.5000114440918 0 Z" stroke="none" fill="#f8ce24"/>
                                              </g>
                                            </g>
                                          </g>
                                        </g>
                                      </g>
                                    </g>
                                  </g>
                                </g>
                              </g>
                            </g>
                          </g>
                        </g>
                      </g>
                    </g>
                  </g>
                </g>
              </g>
            </g>
          </g>
        </g>
      </g>
    </g>
    <g id="presentation_296890" transform="translate(4823.521 12919.521)">
      <path id="Trazado_1050601" data-name="Trazado 1050601" d="M181.6,118.261H171.546V108.206A10.052,10.052,0,0,1,181.6,118.261Z" transform="translate(-151.122 -95.323)" fill="#fdb51e"/>
      <path id="Trazado_1050602" data-name="Trazado 1050602" d="M97.148,118.261H107.2a10.055,10.055,0,1,1-10.055-10.055v10.055Z" transform="translate(-76.724 -95.323)" fill="#ffd311"/>
      <g id="Grupo_1210433" data-name="Grupo 1210433" transform="translate(0.943 0.943)">
        <rect id="Rectángulo_419571" data-name="Rectángulo 419571" width="7.541" height="4.399" transform="translate(25.765 54.673)" fill="#7e8488"/>
        <path id="Trazado_1050603" data-name="Trazado 1050603" d="M66.99,340.454v5.027H7.918v-5.027H66.99Z" transform="translate(-7.918 -300.863)" fill="#7e8488"/>
        <rect id="Rectángulo_419572" data-name="Rectángulo 419572" width="8.798" height="4.399" transform="translate(25.137)" fill="#7e8488"/>
      </g>
      <path id="Trazado_1050604" data-name="Trazado 1050604" d="M79.054,44.866V80.058h-55.3V44.866h55.3ZM41.349,72.517A10.055,10.055,0,1,0,31.294,62.462,10.052,10.052,0,0,0,41.349,72.517Z" transform="translate(-20.925 -39.524)" fill="#afb6bb"/>
      <path id="Trazado_1050605" data-name="Trazado 1050605" d="M51.31,63.762a10.051,10.051,0,1,1-9.961-11.356h.017a36.854,36.854,0,0,1-3.376-7.542H23.753V80.056h55.3v-5.8A50.03,50.03,0,0,1,51.31,63.762Z" transform="translate(-20.925 -39.523)" fill="#9ca2a7"/>
      <g id="Grupo_1210434" data-name="Grupo 1210434" transform="translate(5.97 8.798)">
        <rect id="Rectángulo_419573" data-name="Rectángulo 419573" width="2.514" height="1.885" transform="translate(8.798 13.197)" fill="#fff"/>
        <rect id="Rectángulo_419574" data-name="Rectángulo 419574" width="2.514" height="1.885" transform="translate(16.967 17.596)" fill="#fff"/>
        <rect id="Rectángulo_419575" data-name="Rectángulo 419575" width="16.339" height="1.885" transform="translate(28.279 15.711)" fill="#fff"/>
        <rect id="Rectángulo_419576" data-name="Rectángulo 419576" width="10.055" height="1.885" transform="translate(28.279 5.656)" fill="#fff"/>
        <rect id="Rectángulo_419577" data-name="Rectángulo 419577" width="2.514" height="1.885" transform="translate(28.279 20.738)" fill="#fff"/>
        <rect id="Rectángulo_419578" data-name="Rectángulo 419578" width="2.514" height="1.885" transform="translate(46.503)" fill="#fff"/>
        <rect id="Rectángulo_419579" data-name="Rectángulo 419579" width="2.514" height="1.885" transform="translate(0 26.394)" fill="#fff"/>
      </g>
      <path id="Trazado_1050606" data-name="Trazado 1050606" d="M59.072,39.591V4.4H35.82V0H25.137V4.4H1.885V39.591H0V46.5H60.957V39.591Zm0,5.027H1.885V41.476H29.222V39.591H3.771V6.284H28.593V4.4H27.022V1.885h6.913V4.4H30.479V6.284H57.187V39.591H52.473v1.885h6.6Z"/>
      <path id="Trazado_1050607" data-name="Trazado 1050607" d="M222.069,403.794h-1.885v6.6h-3.771v6.284h9.426v-6.284h-3.771Zm1.885,11H218.3v-2.514h5.656Z" transform="translate(-190.648 -355.72)"/>
      <path id="Trazado_1050608" data-name="Trazado 1050608" d="M90.172,100.289a11,11,0,1,0,11,11A11.01,11.01,0,0,0,90.172,100.289Zm0,20.11a9.112,9.112,0,1,1,9.063-10.055H91.115v-5.97H89.23v7.855H99.236A9.125,9.125,0,0,1,90.172,120.4Z" transform="translate(-69.749 -88.349)"/>
      <rect id="Rectángulo_419580" data-name="Rectángulo 419580" width="2.514" height="1.885" transform="translate(19.167 26.394)"/>
      <rect id="Rectángulo_419581" data-name="Rectángulo 419581" width="16.339" height="1.885" transform="translate(34.249 19.481)"/>
      <rect id="Rectángulo_419582" data-name="Rectángulo 419582" width="8.798" height="1.885" transform="translate(41.79 29.536)"/>
      <rect id="Rectángulo_419583" data-name="Rectángulo 419583" width="2.514" height="1.885" transform="translate(38.02 29.536)"/>
      <rect id="Rectángulo_419584" data-name="Rectángulo 419584" width="2.514" height="1.885" transform="translate(5.97 8.798)"/>
      <rect id="Rectángulo_419585" data-name="Rectángulo 419585" width="2.514" height="1.885" transform="translate(52.473 35.192)"/>
      <rect id="Rectángulo_419586" data-name="Rectángulo 419586" width="17.596" height="1.885" transform="translate(32.992 39.591)"/>
    </g>
  </g>
</svg>
