<svg xmlns="http://www.w3.org/2000/svg" xmlns:xlink="http://www.w3.org/1999/xlink" width="118" height="118" viewBox="0 0 118 118">
  <defs>
    <filter id="Trazado_982547" x="0" y="0" width="118" height="118" filterUnits="userSpaceOnUse">
      <feOffset dy="3" input="SourceAlpha"/>
      <feGaussianBlur stdDeviation="3" result="blur"/>
      <feFlood flood-opacity="0.161"/>
      <feComposite operator="in" in2="blur"/>
      <feComposite in="SourceGraphic"/>
    </filter>
  </defs>
  <g id="Grupo_1210467" data-name="Grupo 1210467" transform="translate(-898.5 -13883.072)">
    <g id="Grupo_1210143" data-name="Grupo 1210143" transform="translate(0 8472.707)">
      <g id="Grupo_1209181" data-name="Grupo 1209181" transform="translate(105.01 4180.149)">
        <g id="Grupo_1208492" data-name="Grupo 1208492" transform="translate(802.49 1236.215)">
          <g id="Grupo_1177675" data-name="Grupo 1177675" transform="translate(0 0)">
            <g id="Grupo_1176928" data-name="Grupo 1176928" transform="translate(0)">
              <g id="Grupo_1172322" data-name="Grupo 1172322" transform="translate(0 0)">
                <g id="Grupo_1164700" data-name="Grupo 1164700">
                  <g id="Grupo_1160931" data-name="Grupo 1160931">
                    <g id="Grupo_1160749" data-name="Grupo 1160749">
                      <g id="Grupo_1158891" data-name="Grupo 1158891">
                        <g id="Grupo_1157406" data-name="Grupo 1157406">
                          <g id="Grupo_1155793" data-name="Grupo 1155793">
                            <g id="Grupo_1154704" data-name="Grupo 1154704">
                              <g id="Grupo_1150790" data-name="Grupo 1150790">
                                <g id="Grupo_1154214" data-name="Grupo 1154214">
                                  <g id="Grupo_1152583" data-name="Grupo 1152583">
                                    <g id="Grupo_1146973" data-name="Grupo 1146973">
                                      <g id="Grupo_1146954" data-name="Grupo 1146954">
                                        <g transform="matrix(1, 0, 0, 1, -9, -6)" filter="url(#Trazado_982547)">
                                          <g id="Trazado_982547-2" data-name="Trazado 982547" transform="translate(9 6)" fill="#fbedfe">
                                            <path d="M 49.99995803833008 98.49976348876953 C 43.45184326171875 98.49976348876953 37.10039901733398 97.2176513671875 31.1220588684082 94.68901824951172 C 25.34690093994141 92.246337890625 20.15995788574219 88.74910736083984 15.70531558990479 84.29447937011719 C 11.25068664550781 79.83985137939453 7.753458023071289 74.65290832519531 5.31077241897583 68.87776184082031 C 2.782143831253052 62.89942169189453 1.500015139579773 56.54797744750977 1.500015139579773 49.9998779296875 C 1.500015139579773 43.45177841186523 2.782143831253052 37.10033416748047 5.31077241897583 31.12199211120605 C 7.753458023071289 25.34684944152832 11.25068664550781 20.15992164611816 15.70531558990479 15.70529174804688 C 20.15995788574219 11.25066375732422 25.34688568115234 7.753435134887695 31.1220588684082 5.310749530792236 C 37.10039901733398 2.782120704650879 43.45184326171875 1.500006556510925 49.99995803833008 1.500006556510925 C 56.54807281494141 1.500006556510925 62.89951705932617 2.782120704650879 68.87786865234375 5.310749530792236 C 74.65303039550781 7.753435134887695 79.83997344970703 11.25066375732422 84.29460144042969 15.70529174804688 C 88.74924468994141 20.15992164611816 92.24647521972656 25.34684944152832 94.68915557861328 31.12199211120605 C 97.21778869628906 37.10033416748047 98.49991607666016 43.45177841186523 98.49991607666016 49.9998779296875 C 98.49991607666016 56.54797744750977 97.21778869628906 62.89942169189453 94.68915557861328 68.87776184082031 C 92.24647521972656 74.65290832519531 88.74924468994141 79.83985137939453 84.29460144042969 84.29447937011719 C 79.83997344970703 88.74910736083984 74.65303039550781 92.246337890625 68.87786865234375 94.68901824951172 C 62.89951705932617 97.2176513671875 56.54807281494141 98.49976348876953 49.99995803833008 98.49976348876953 Z" stroke="none"/>
                                            <path d="M 49.99995803833008 3 C 43.65368270874023 3 37.49883651733398 4.24224853515625 31.70637512207031 6.692245483398438 C 26.11001586914062 9.059310913085938 21.08334350585938 12.44858551025391 16.76597595214844 16.76595306396484 C 12.44860076904297 21.08330535888672 9.059326171875 26.10997009277344 6.692268371582031 31.70632171630859 C 4.242263793945312 37.49877166748047 3.000007629394531 43.65361785888672 3.000007629394531 49.9998779296875 C 3.000007629394531 56.34613800048828 4.242263793945312 62.50098419189453 6.692268371582031 68.29343414306641 C 9.059326171875 73.88978576660156 12.44860076904297 78.91644287109375 16.76597595214844 83.23380279541016 C 21.08334350585938 87.55117034912109 26.11001586914062 90.94044494628906 31.70637512207031 93.30751037597656 C 37.49883651733398 95.75750732421875 43.65368270874023 96.999755859375 49.99995803833008 96.999755859375 C 56.34623336791992 96.999755859375 62.50107955932617 95.75750732421875 68.29354095458984 93.30751037597656 C 73.889892578125 90.94044494628906 78.91657257080078 87.55117034912109 83.23394012451172 83.23380279541016 C 87.55131530761719 78.91644287109375 90.94058990478516 73.88978576660156 93.30764770507812 68.29343414306641 C 95.75765228271484 62.50098419189453 96.99990844726562 56.34613800048828 96.99990844726562 49.9998779296875 C 96.99990844726562 43.65361785888672 95.75765228271484 37.49877166748047 93.30764770507812 31.70632171630859 C 90.94058990478516 26.10997009277344 87.55131530761719 21.08330535888672 83.23394012451172 16.76595306396484 C 78.91657257080078 12.44858551025391 73.889892578125 9.059310913085938 68.29354095458984 6.692245483398438 C 62.50107955932617 4.24224853515625 56.34623336791992 3 49.99995803833008 3 M 49.99995803833008 0 C 77.61415863037109 0 99.99990844726562 22.38571166992188 99.99990844726562 49.9998779296875 C 99.99990844726562 77.61404418945312 77.61415863037109 99.999755859375 49.99995803833008 99.999755859375 C 22.38575744628906 99.999755859375 7.62939453125e-06 77.61404418945312 7.62939453125e-06 49.9998779296875 C 7.62939453125e-06 22.38571166992188 22.38575744628906 0 49.99995803833008 0 Z" stroke="none" fill="#7b3289"/>
                                          </g>
                                        </g>
                                      </g>
                                    </g>
                                  </g>
                                </g>
                              </g>
                            </g>
                          </g>
                        </g>
                      </g>
                    </g>
                  </g>
                </g>
              </g>
            </g>
          </g>
        </g>
      </g>
    </g>
    <g id="stars_1469392" transform="translate(924.926 13906.563)">
      <path id="Trazado_1050660" data-name="Trazado 1050660" d="M1.158,13H3.4a8.676,8.676,0,0,0,7.508,7.509V26a1.083,1.083,0,0,0,2.167,0V20.509A8.676,8.676,0,0,0,20.583,13h4.408a1.083,1.083,0,0,0,0-2.167H20.583a8.675,8.675,0,0,0-7.509-7.508V1.083a1.083,1.083,0,1,0-2.167,0V3.326A8.675,8.675,0,0,0,3.4,10.833H1.158a1.083,1.083,0,0,0,0,2.167ZM11.991,5.417a6.5,6.5,0,1,1-6.5,6.5A6.5,6.5,0,0,1,11.991,5.417Zm0,0" transform="translate(0 0)"/>
      <path id="Trazado_1050661" data-name="Trazado 1050661" d="M259.318,96.5V97.74a1.083,1.083,0,1,0,2.167,0V96.5a4.326,4.326,0,0,0,3.1-3.1h1.237a1.083,1.083,0,1,0,0-2.167h-1.237a4.325,4.325,0,1,0-5.263,5.263Zm1.083-6.346a2.167,2.167,0,1,1-2.167,2.167A2.166,2.166,0,0,1,260.4,90.157Zm0,0" transform="translate(-221.327 -76.074)"/>
      <path id="Trazado_1050662" data-name="Trazado 1050662" d="M82.491,256.667H80.227a6.507,6.507,0,0,0-5.319-5.318v-2.265a1.083,1.083,0,0,0-2.167,0v2.265a6.507,6.507,0,0,0-5.319,5.318H65.157a1.083,1.083,0,0,0,0,2.167h2.265a6.492,6.492,0,0,0,12.8,0h2.264a1.083,1.083,0,0,0,0-2.167Zm-8.667,5.417a4.333,4.333,0,1,1,4.333-4.333A4.334,4.334,0,0,1,73.824,262.083Zm0,0" transform="translate(-55.333 -214.417)"/>
      <path id="Trazado_1050663" data-name="Trazado 1050663" d="M265.814,342.5h-1.237a4.328,4.328,0,0,0-3.126-3.105,1.035,1.035,0,0,0,.029-.145v-2.167a1.083,1.083,0,0,0-2.167,0v2.167a1.122,1.122,0,0,0,.03.145,4.313,4.313,0,0,0-.03,8.368v2.321a1.083,1.083,0,1,0,2.167,0v-2.321a4.326,4.326,0,0,0,3.1-3.1h1.237a1.083,1.083,0,1,0,0-2.167Zm-5.417,3.25a2.167,2.167,0,1,1,2.167-2.167A2.167,2.167,0,0,1,260.4,345.75Zm0,0" transform="translate(-221.323 -290.5)"/>
      <path id="Trazado_1050664" data-name="Trazado 1050664" d="M337.824,220.333h-1.282a3.249,3.249,0,0,0-1.968-1.966v-1.284a1.083,1.083,0,0,0-2.167,0v1.284a3.249,3.249,0,0,0-1.967,1.966h-1.283a1.083,1.083,0,1,0,0,2.167h1.283a3.251,3.251,0,0,0,1.967,1.965v1.283a1.083,1.083,0,0,0,2.167,0v-1.283a3.252,3.252,0,0,0,1.968-1.967h1.282a1.083,1.083,0,1,0,0-2.167Zm-4.333,2.167a1.083,1.083,0,1,1,1.083-1.083A1.083,1.083,0,0,1,333.491,222.5Zm0,0" transform="translate(-283.583 -186.75)"/>
      <path id="Trazado_1050665" data-name="Trazado 1050665" d="M131.324,432a3.25,3.25,0,1,0,3.25,3.25A3.25,3.25,0,0,0,131.324,432Zm0,4.333a1.083,1.083,0,1,1,1.083-1.083A1.083,1.083,0,0,1,131.324,436.333Zm0,0" transform="translate(-110.666 -373.5)"/>
      <path id="Trazado_1050666" data-name="Trazado 1050666" d="M5.491,434.167H4.408v-1.083a1.083,1.083,0,1,0-2.167,0v1.083H1.158a1.083,1.083,0,0,0,0,2.167H2.241v1.083a1.083,1.083,0,1,0,2.167,0v-1.083H5.491a1.083,1.083,0,0,0,0-2.167Zm0,0" transform="translate(0 -373.5)"/>
      <path id="Trazado_1050667" data-name="Trazado 1050667" d="M433.157,4.333h1.083V5.417a1.083,1.083,0,0,0,2.167,0V4.333h1.083a1.083,1.083,0,1,0,0-2.167h-1.083V1.083a1.083,1.083,0,0,0-2.167,0V2.167h-1.083a1.083,1.083,0,0,0,0,2.167Zm0,0" transform="translate(-373.5)"/>
      <path id="Trazado_1050668" data-name="Trazado 1050668" d="M416.439,414.831a3.233,3.233,0,0,0-4.316-4.316l-.907-.907a1.083,1.083,0,1,0-1.532,1.532l.9.906a3.229,3.229,0,0,0,4.316,4.315l.907.908a1.083,1.083,0,1,0,1.532-1.532Zm-3.691-.627a1.083,1.083,0,1,1,1.531,0A1.084,1.084,0,0,1,412.748,414.2Zm0,0" transform="translate(-353.856 -353.854)"/>
      <path id="Trazado_1050669" data-name="Trazado 1050669" d="M204.007,200.32a1.083,1.083,0,0,0-1.531,0l-.318.317-.317-.317a1.083,1.083,0,0,0-1.531,1.532l.317.317-.317.317a1.083,1.083,0,1,0,1.531,1.532l.317-.317.318.317a1.083,1.083,0,0,0,1.531-1.532l-.317-.317.317-.317A1.083,1.083,0,0,0,204.007,200.32Zm0,0" transform="translate(-172.833 -172.919)"/>
      <path id="Trazado_1050670" data-name="Trazado 1050670" d="M435.324,304a3.25,3.25,0,1,0,3.25,3.25A3.25,3.25,0,0,0,435.324,304Zm0,4.333a1.083,1.083,0,1,1,1.083-1.083A1.083,1.083,0,0,1,435.324,308.333Zm0,0" transform="translate(-373.5 -262.833)"/>
      <path id="Trazado_1050671" data-name="Trazado 1050671" d="M419.036,118.27c.074.005.147.007.216.007a3.265,3.265,0,1,0-.216-.007Zm-.5-4.057a1.072,1.072,0,0,1,.714-.269h.074a1.085,1.085,0,0,1,.744.368,1.067,1.067,0,0,1,.264.784,1.083,1.083,0,1,1-1.793-.887Zm0,0" transform="translate(-359.595 -96.611)"/>
      <path id="Trazado_1050672" data-name="Trazado 1050672" d="M339.324,22.5a3.25,3.25,0,1,0-3.25-3.25A3.25,3.25,0,0,0,339.324,22.5Zm0-4.333a1.083,1.083,0,1,1-1.083,1.083A1.083,1.083,0,0,1,339.324,18.167Zm0,0" transform="translate(-290.5 -13.833)"/>
      <path id="Trazado_1050673" data-name="Trazado 1050673" d="M3.324,216a3.25,3.25,0,1,0,3.25,3.25A3.25,3.25,0,0,0,3.324,216Zm0,4.333a1.083,1.083,0,1,1,1.083-1.083A1.083,1.083,0,0,1,3.324,220.333Zm0,0" transform="translate(0 -186.75)"/>
      <path id="Trazado_1050674" data-name="Trazado 1050674" d="M203.324,0a3.25,3.25,0,1,0,3.25,3.25A3.25,3.25,0,0,0,203.324,0Zm0,4.333a1.083,1.083,0,1,1,1.083-1.083A1.083,1.083,0,0,1,203.324,4.333Zm0,0" transform="translate(-172.916)"/>
      <g id="Grupo_1210466" data-name="Grupo 1210466" transform="translate(4.408 4.354)">
        <path id="Trazado_1050675" data-name="Trazado 1050675" d="M47.241,39.736a7.583,7.583,0,1,1-7.583-7.583A7.583,7.583,0,0,1,47.241,39.736Zm0,0" transform="translate(-32.074 -32.152)" fill="#506f86"/>
        <path id="Trazado_1050676" data-name="Trazado 1050676" d="M270.574,99.4a3.25,3.25,0,1,1-3.25-3.25A3.25,3.25,0,0,1,270.574,99.4Zm0,0" transform="translate(-232.657 -87.485)" fill="#506f86"/>
        <path id="Trazado_1050677" data-name="Trazado 1050677" d="M106.907,285.569a5.417,5.417,0,1,1-5.417-5.417A5.417,5.417,0,0,1,106.907,285.569Zm0,0" transform="translate(-87.407 -246.569)" fill="#506f86"/>
        <path id="Trazado_1050678" data-name="Trazado 1050678" d="M270.574,371.4a3.25,3.25,0,1,1-3.25-3.25A3.25,3.25,0,0,1,270.574,371.4Zm0,0" transform="translate(-232.657 -322.652)" fill="#506f86"/>
        <path id="Trazado_1050679" data-name="Trazado 1050679" d="M356.407,242.319a2.167,2.167,0,1,1-2.167-2.167A2.166,2.166,0,0,1,356.407,242.319Zm0,0" transform="translate(-308.741 -211.985)" fill="#506f86"/>
        <path id="Trazado_1050680" data-name="Trazado 1050680" d="M428.407,426.319a2.167,2.167,0,1,1-2.167-2.167A2.166,2.166,0,0,1,428.407,426.319Zm0,0" transform="translate(-370.99 -371.069)" fill="#506f86"/>
      </g>
      <path id="Trazado_1050681" data-name="Trazado 1050681" d="M140.407,442.319a2.167,2.167,0,1,1-2.167-2.167A2.166,2.166,0,0,1,140.407,442.319Zm0,0" transform="translate(-117.583 -380.548)" fill="#2f3c4f"/>
      <path id="Trazado_1050682" data-name="Trazado 1050682" d="M444.407,314.319a2.167,2.167,0,1,1-2.167-2.167A2.166,2.166,0,0,1,444.407,314.319Zm0,0" transform="translate(-380.416 -269.881)" fill="#fbb040"/>
      <path id="Trazado_1050683" data-name="Trazado 1050683" d="M428.407,122.319a2.167,2.167,0,1,1-2.167-2.167A2.166,2.166,0,0,1,428.407,122.319Zm0,0" transform="translate(-366.583 -103.881)" fill="#2f3c4f"/>
      <path id="Trazado_1050684" data-name="Trazado 1050684" d="M348.407,26.319a2.167,2.167,0,1,1-2.167-2.167A2.166,2.166,0,0,1,348.407,26.319Zm0,0" transform="translate(-297.416 -20.882)" fill="#fbb040"/>
      <path id="Trazado_1050685" data-name="Trazado 1050685" d="M12.408,226.319a2.167,2.167,0,1,1-2.167-2.167A2.166,2.166,0,0,1,12.408,226.319Zm0,0" transform="translate(-6.917 -193.798)" fill="#fbb040"/>
      <path id="Trazado_1050686" data-name="Trazado 1050686" d="M212.407,10.319a2.167,2.167,0,1,1-2.167-2.167A2.166,2.166,0,0,1,212.407,10.319Zm0,0" transform="translate(-179.833 -7.048)" fill="#2f3c4f"/>
      <path id="Trazado_1050687" data-name="Trazado 1050687" d="M1.158,13.152H3.4a8.676,8.676,0,0,0,7.508,7.509v5.491a1.083,1.083,0,1,0,2.167,0V20.661a8.676,8.676,0,0,0,7.509-7.509h4.408a1.083,1.083,0,1,0,0-2.167H20.583a8.674,8.674,0,0,0-7.509-7.508V1.236a1.083,1.083,0,1,0-2.167,0V3.478A8.674,8.674,0,0,0,3.4,10.986H1.158a1.083,1.083,0,1,0,0,2.167ZM11.991,5.569a6.5,6.5,0,1,1-6.5,6.5A6.5,6.5,0,0,1,11.991,5.569Zm0,0" transform="translate(0 -0.132)"/>
      <path id="Trazado_1050688" data-name="Trazado 1050688" d="M259.318,96.656v1.237a1.083,1.083,0,0,0,2.167,0V96.656a4.327,4.327,0,0,0,3.1-3.1h1.237a1.083,1.083,0,1,0,0-2.167h-1.237a4.325,4.325,0,1,0-5.263,5.263ZM260.4,90.31a2.167,2.167,0,1,1-2.167,2.167A2.166,2.166,0,0,1,260.4,90.31Zm0,0" transform="translate(-221.327 -76.206)"/>
      <path id="Trazado_1050689" data-name="Trazado 1050689" d="M82.491,256.819H80.227a6.507,6.507,0,0,0-5.319-5.314v-2.269a1.083,1.083,0,0,0-2.167,0V251.5a6.507,6.507,0,0,0-5.319,5.318H65.157a1.083,1.083,0,1,0,0,2.167h2.265a6.492,6.492,0,0,0,12.8,0h2.264a1.083,1.083,0,1,0,0-2.167Zm-8.667,5.417a4.333,4.333,0,1,1,4.333-4.333A4.334,4.334,0,0,1,73.824,262.235Zm0,0" transform="translate(-55.333 -214.548)"/>
      <path id="Trazado_1050690" data-name="Trazado 1050690" d="M265.814,342.652h-1.237a4.328,4.328,0,0,0-3.126-3.105,1.035,1.035,0,0,0,.029-.145v-2.167a1.083,1.083,0,0,0-2.167,0V339.4a1.122,1.122,0,0,0,.03.145,4.313,4.313,0,0,0-.03,8.368v2.321a1.083,1.083,0,0,0,2.167,0v-2.321a4.327,4.327,0,0,0,3.1-3.1h1.237a1.083,1.083,0,1,0,0-2.167ZM260.4,345.9a2.167,2.167,0,1,1,2.167-2.167A2.167,2.167,0,0,1,260.4,345.9Zm0,0" transform="translate(-221.323 -290.631)"/>
      <path id="Trazado_1050691" data-name="Trazado 1050691" d="M337.824,220.485h-1.282a3.249,3.249,0,0,0-1.968-1.966v-1.284a1.083,1.083,0,0,0-2.167,0v1.284a3.249,3.249,0,0,0-1.967,1.966h-1.283a1.083,1.083,0,1,0,0,2.167h1.283a3.252,3.252,0,0,0,1.967,1.967V225.9a1.083,1.083,0,1,0,2.167,0v-1.283a3.252,3.252,0,0,0,1.968-1.967h1.282a1.083,1.083,0,1,0,0-2.167Zm-4.333,2.167a1.083,1.083,0,1,1,1.083-1.083A1.083,1.083,0,0,1,333.491,222.652Zm0,0" transform="translate(-283.583 -186.881)"/>
      <path id="Trazado_1050692" data-name="Trazado 1050692" d="M131.324,432.152a3.25,3.25,0,1,0,3.25,3.25A3.25,3.25,0,0,0,131.324,432.152Zm0,4.333a1.083,1.083,0,1,1,1.083-1.083A1.083,1.083,0,0,1,131.324,436.485Zm0,0" transform="translate(-110.666 -373.631)"/>
      <path id="Trazado_1050693" data-name="Trazado 1050693" d="M5.491,434.319H4.408v-1.083a1.083,1.083,0,1,0-2.167,0v1.083H1.158a1.083,1.083,0,0,0,0,2.167H2.241v1.083a1.083,1.083,0,1,0,2.167,0v-1.083H5.491a1.083,1.083,0,0,0,0-2.167Zm0,0" transform="translate(0 -373.631)"/>
      <path id="Trazado_1050694" data-name="Trazado 1050694" d="M433.157,4.486h1.083V5.569a1.083,1.083,0,0,0,2.167,0V4.486h1.083a1.083,1.083,0,1,0,0-2.167h-1.083V1.236a1.083,1.083,0,0,0-2.167,0V2.319h-1.083a1.083,1.083,0,0,0,0,2.167Zm0,0" transform="translate(-373.5 -0.132)"/>
      <path id="Trazado_1050695" data-name="Trazado 1050695" d="M416.439,414.983a3.233,3.233,0,0,0-4.316-4.316l-.907-.907a1.083,1.083,0,1,0-1.532,1.532l.9.906a3.228,3.228,0,0,0,4.316,4.312l.907.908a1.083,1.083,0,1,0,1.532-1.532Zm-3.691-.627a1.083,1.083,0,1,1,1.531,0A1.084,1.084,0,0,1,412.748,414.355Zm0,0" transform="translate(-353.856 -353.985)"/>
      <path id="Trazado_1050696" data-name="Trazado 1050696" d="M204.007,200.488a1.083,1.083,0,0,0-1.531,0l-.318.315-.317-.317a1.083,1.083,0,0,0-1.531,1.532l.317.317-.317.317a1.083,1.083,0,1,0,1.531,1.532l.317-.317.318.317a1.083,1.083,0,0,0,1.531-1.53l-.317-.317.317-.317A1.083,1.083,0,0,0,204.007,200.488Zm0,0" transform="translate(-172.833 -173.065)"/>
      <path id="Trazado_1050697" data-name="Trazado 1050697" d="M435.324,304.152a3.25,3.25,0,1,0,3.25,3.25A3.25,3.25,0,0,0,435.324,304.152Zm0,4.333a1.083,1.083,0,1,1,1.083-1.083A1.083,1.083,0,0,1,435.324,308.485Zm0,0" transform="translate(-373.5 -262.965)"/>
      <path id="Trazado_1050698" data-name="Trazado 1050698" d="M419.166,118.918c.074,0,.147.006.216.006a3.227,3.227,0,1,0-.216-.006Zm-.5-4.059a1.072,1.072,0,0,1,.714-.269h.074a1.083,1.083,0,0,1,.744.368,1.067,1.067,0,0,1,.264.784,1.083,1.083,0,1,1-1.793-.888Zm0,0" transform="translate(-359.725 -97.236)"/>
      <path id="Trazado_1050699" data-name="Trazado 1050699" d="M339.324,22.652a3.25,3.25,0,1,0-3.25-3.25A3.25,3.25,0,0,0,339.324,22.652Zm0-4.333a1.083,1.083,0,1,1-1.083,1.083A1.083,1.083,0,0,1,339.324,18.319Zm0,0" transform="translate(-290.5 -13.965)"/>
      <path id="Trazado_1050700" data-name="Trazado 1050700" d="M3.324,216.152a3.25,3.25,0,1,0,3.25,3.25A3.25,3.25,0,0,0,3.324,216.152Zm0,4.333A1.083,1.083,0,1,1,4.408,219.4,1.083,1.083,0,0,1,3.324,220.485Zm0,0" transform="translate(0 -186.881)"/>
      <path id="Trazado_1050701" data-name="Trazado 1050701" d="M203.324.152a3.25,3.25,0,1,0,3.25,3.25,3.25,3.25,0,0,0-3.25-3.25Zm0,4.333A1.083,1.083,0,1,1,204.407,3.4,1.083,1.083,0,0,1,203.324,4.486Zm0,0" transform="translate(-172.916 -0.132)"/>
    </g>
  </g>
</svg>
