<svg xmlns="http://www.w3.org/2000/svg" xmlns:xlink="http://www.w3.org/1999/xlink" width="108" height="108" viewBox="0 0 108 108">
  <defs>
    <filter id="Trazado_904820" x="0" y="0" width="108" height="108" filterUnits="userSpaceOnUse">
      <feOffset dy="3" input="SourceAlpha"/>
      <feGaussianBlur stdDeviation="3" result="blur"/>
      <feFlood flood-opacity="0.161"/>
      <feComposite operator="in" in2="blur"/>
      <feComposite in="SourceGraphic"/>
    </filter>
    <clipPath id="clip-path">
      <path id="path2830" d="M0-682.665H64.93v64.93H0Z" transform="translate(0 682.665)"/>
    </clipPath>
  </defs>
  <g id="Grupo_1210177" data-name="Grupo 1210177" transform="translate(-1031 -775.966)">
    <g id="Grupo_1210074" data-name="Grupo 1210074" transform="translate(0 -669.034)">
      <g id="Grupo_1206692" data-name="Grupo 1206692" transform="translate(831 683)">
        <g id="Grupo_1202705" data-name="Grupo 1202705" transform="translate(209 768)">
          <g id="Grupo_1173585" data-name="Grupo 1173585" transform="translate(0 0)">
            <g id="Grupo_1173428" data-name="Grupo 1173428">
              <g id="Grupo_1171958" data-name="Grupo 1171958">
                <g id="Grupo_1167341" data-name="Grupo 1167341">
                  <g id="Grupo_1166792" data-name="Grupo 1166792">
                    <g transform="matrix(1, 0, 0, 1, -9, -6)" filter="url(#Trazado_904820)">
                      <g id="Trazado_904820-2" data-name="Trazado 904820" transform="translate(9 6)" fill="#fef9e7">
                        <path d="M 44.99999618530273 88.50002288818359 C 39.12687301635742 88.50002288818359 33.43022155761719 87.35009765625 28.06829643249512 85.08218383789062 C 22.88852119445801 82.89133453369141 18.23629570007324 79.75460815429688 14.24084663391113 75.75916290283203 C 10.24540901184082 71.76371002197266 7.108683586120605 67.11148834228516 4.917821407318115 61.93171310424805 C 2.649921178817749 56.56978607177734 1.499996185302734 50.87313461303711 1.499996185302734 45.0000114440918 C 1.499996185302734 39.12688827514648 2.649921178817749 33.43023681640625 4.917821407318115 28.06829833984375 C 7.108683586120605 22.88852310180664 10.24540901184082 18.2363109588623 14.24084663391113 14.2408618927002 C 18.23629570007324 10.24541187286377 22.88852119445801 7.108686447143555 28.06829643249512 4.917823791503906 C 33.43022155761719 2.649924039840698 39.12687301635742 1.499998927116394 44.99999618530273 1.499998927116394 C 50.87311935424805 1.499998927116394 56.56977081298828 2.649924039840698 61.93169784545898 4.917823791503906 C 67.11147308349609 7.108686447143555 71.76369476318359 10.24541187286377 75.75914764404297 14.2408618927002 C 79.75458526611328 18.2363109588623 82.89131164550781 22.88852310180664 85.08216857910156 28.06829833984375 C 87.35007476806641 33.43023681640625 88.5 39.12688827514648 88.5 45.0000114440918 C 88.5 50.87313461303711 87.35007476806641 56.56978607177734 85.08216857910156 61.93171310424805 C 82.89131164550781 67.11148834228516 79.75458526611328 71.76371002197266 75.75914764404297 75.75916290283203 C 71.76369476318359 79.75460815429688 67.11147308349609 82.89133453369141 61.93169784545898 85.08218383789062 C 56.56977081298828 87.35009765625 50.87311935424805 88.50002288818359 44.99999618530273 88.50002288818359 Z" stroke="none"/>
                        <path d="M 44.99999618530273 3 C 39.32870864868164 3 33.82865142822266 4.110054016113281 28.65262603759766 6.299339294433594 C 23.65165710449219 8.414566040039062 19.15968322753906 11.44333648681641 15.301513671875 15.30152893066406 C 11.44333648681641 19.15969848632812 8.414566040039062 23.65165710449219 6.299339294433594 28.65264129638672 C 4.110054016113281 33.82866668701172 2.999992370605469 39.3287239074707 2.999992370605469 45.0000114440918 C 2.999992370605469 50.67129898071289 4.110054016113281 56.17135620117188 6.299339294433594 61.34738159179688 C 8.414566040039062 66.34836578369141 11.44333648681641 70.84032440185547 15.301513671875 74.69849395751953 C 19.15968322753906 78.55668640136719 23.65165710449219 81.58545684814453 28.65262603759766 83.70068359375 C 33.82865142822266 85.88996887207031 39.32870864868164 87.00002288818359 44.99999618530273 87.00002288818359 C 50.67128372192383 87.00002288818359 56.17134094238281 85.88996887207031 61.34736633300781 83.70068359375 C 66.34834289550781 81.58545684814453 70.84030914306641 78.55668640136719 74.69847869873047 74.69849395751953 C 78.55665588378906 70.84032440185547 81.58542633056641 66.34836578369141 83.70065307617188 61.34738159179688 C 85.88993835449219 56.17135620117188 87 50.67129898071289 87 45.0000114440918 C 87 39.3287239074707 85.88993835449219 33.82866668701172 83.70065307617188 28.65264129638672 C 81.58542633056641 23.65165710449219 78.55665588378906 19.15969848632812 74.69847869873047 15.30152893066406 C 70.84030914306641 11.44333648681641 66.34834289550781 8.414566040039062 61.34736633300781 6.299339294433594 C 56.17134094238281 4.110054016113281 50.67128372192383 3 44.99999618530273 3 M 44.99999618530273 0 C 69.85281372070312 0 90 20.14719390869141 90 45.0000114440918 C 90 69.85282897949219 69.85281372070312 90.00002288818359 44.99999618530273 90.00002288818359 C 20.14717864990234 90.00002288818359 -7.62939453125e-06 69.85282897949219 -7.62939453125e-06 45.0000114440918 C -7.62939453125e-06 20.14719390869141 20.14717864990234 0 44.99999618530273 0 Z" stroke="none" fill="#887013"/>
                      </g>
                    </g>
                  </g>
                </g>
              </g>
            </g>
          </g>
        </g>
      </g>
    </g>
    <g id="g2820" transform="translate(1052.535 1478.166)">
      <g id="g2822" transform="translate(8.783 -647.774)">
        <path id="path2824" d="M0,0H0Z" fill="#e9a52d"/>
      </g>
      <g id="g2826" transform="translate(0 -682.665)">
        <g id="g2828" clip-path="url(#clip-path)">
          <g id="g2834" transform="translate(7.954 8.802)">
            <path id="path2836" d="M0-6.154V19.288H6.445V-6.154A.647.647,0,0,0,5.8-6.8H.647A.647.647,0,0,0,0-6.154" transform="translate(0 6.801)" fill="#6dc17d"/>
          </g>
          <g id="g2838" transform="translate(22.198 13.15)">
            <path id="path2840" d="M0-6.16V14.933H6.445V-6.16A.648.648,0,0,0,5.8-6.808H.647A.647.647,0,0,0,0-6.16" transform="translate(0 6.808)" fill="#e9a52d"/>
          </g>
          <g id="g2842" transform="translate(36.442 17.498)">
            <path id="path2844" d="M0-6.157V10.589H6.445V-6.157A.647.647,0,0,0,5.8-6.8H.647A.647.647,0,0,0,0-6.157" transform="translate(0 6.804)" fill="#5392f9"/>
          </g>
          <g id="g2846" transform="translate(50.686 21.847)">
            <path id="path2848" d="M0-6.157v12.4H6.445v-12.4A.647.647,0,0,0,5.8-6.8H.647A.647.647,0,0,0,0-6.157" transform="translate(0 6.804)" fill="#91dafa"/>
          </g>
          <g id="g2850" transform="translate(4.072 20.708)">
            <path id="path2852" d="M0-356.348v-36.29A1.166,1.166,0,0,1,1.166-393.8h24.75a1.166,1.166,0,0,1,1.166,1.166v36.29a1.166,1.166,0,0,1-1.166,1.166H1.166A1.166,1.166,0,0,1,0-356.348" transform="translate(0 393.804)" fill="#5392f9"/>
          </g>
          <g id="g2854" transform="translate(26.564 20.708)">
            <path id="path2856" d="M-32.575,0H-36a1.166,1.166,0,0,1,1.166,1.166v36.29A1.166,1.166,0,0,1-36,38.622h3.424a1.166,1.166,0,0,0,1.166-1.166V1.166A1.166,1.166,0,0,0-32.575,0" transform="translate(35.999)" fill="#4071f7"/>
          </g>
          <g id="g2858" transform="translate(9.48 26.714)">
            <path id="path2860" d="M0-6.952v3.474a.731.731,0,0,0,.731.731H15.536a.731.731,0,0,0,.731-.731V-6.952a.731.731,0,0,0-.731-.731H.731A.731.731,0,0,0,0-6.952" transform="translate(0 7.683)" fill="#f7f3f1"/>
          </g>
          <g id="g2862" transform="translate(9.48 37.056)">
            <path id="path2864" d="M-147.806-154.757h-14.805a.731.731,0,0,1-.731-.731v-14.8a.731.731,0,0,1,.731-.731h14.805a.731.731,0,0,1,.731.731v14.805a.731.731,0,0,1-.731.731" transform="translate(163.342 171.024)" fill="#91dafa"/>
          </g>
          <g id="g2866" transform="translate(9.48 37.056)">
            <path id="path2868" d="M-77.374,0V8.134h-8.133V.731A.73.73,0,0,1-84.776,0Z" transform="translate(85.506 0)" fill="#f7f3f1"/>
          </g>
          <g id="g2870" transform="translate(17.613 45.19)">
            <path id="path2872" d="M-77.383,0V7.4a.731.731,0,0,1-.731.731h-7.4V0Z" transform="translate(85.517)" fill="#6cbff8"/>
          </g>
          <g id="g2874" transform="translate(36.442 44.322)">
            <path id="path2876" d="M-93.508,0a9.829,9.829,0,0,0-9.829,9.829,9.829,9.829,0,0,0,9.829,9.829A9.829,9.829,0,0,0-83.68,9.829,9.829,9.829,0,0,0-93.508,0" transform="translate(103.337)" fill="#e9a52d"/>
          </g>
          <g id="g2878" transform="translate(44.559 44.322)">
            <path id="path2880" d="M-16.287,0A9.876,9.876,0,0,0-18,.152,9.829,9.829,0,0,1-9.882,9.829,9.829,9.829,0,0,1-18,19.506a9.876,9.876,0,0,0,1.712.152A9.829,9.829,0,0,0-6.458,9.829,9.829,9.829,0,0,0-16.287,0" transform="translate(17.999)" fill="#e38523"/>
          </g>
          <g id="g2882" transform="translate(31.154 34.891)">
            <path id="path2884" d="M-282.6,0h-29.7" transform="translate(312.305)" fill="none" stroke="#000" stroke-linecap="round" stroke-linejoin="round" stroke-miterlimit="10" stroke-width="1.5"/>
          </g>
          <g id="g2886" transform="translate(7.954 8.802)">
            <path id="path2888" d="M-61.319-113.269v-11.259a.647.647,0,0,0-.648-.647h-5.15a.647.647,0,0,0-.647.647v11.259" transform="translate(67.764 125.174)" fill="none" stroke="#000" stroke-linecap="round" stroke-linejoin="round" stroke-miterlimit="10" stroke-width="1.5"/>
          </g>
          <g id="g2890" transform="translate(22.198 13.15)">
            <path id="path2892" d="M-61.316-71.906v-6.911a.647.647,0,0,0-.647-.648h-5.151a.648.648,0,0,0-.647.648v6.911" transform="translate(67.761 79.464)" fill="none" stroke="#000" stroke-linecap="round" stroke-linejoin="round" stroke-miterlimit="10" stroke-width="1.5"/>
          </g>
          <g id="g2894" transform="translate(36.442 17.498)">
            <path id="path2896" d="M0-6.157V10.589H6.445V-6.157A.647.647,0,0,0,5.8-6.8H.647A.647.647,0,0,0,0-6.157Z" transform="translate(0 6.804)" fill="none" stroke="#000" stroke-linecap="round" stroke-linejoin="round" stroke-miterlimit="10" stroke-width="1.5"/>
          </g>
          <g id="g2898" transform="translate(50.686 21.847)">
            <path id="path2900" d="M0-6.157v12.4H6.445v-12.4A.647.647,0,0,0,5.8-6.8H.647A.647.647,0,0,0,0-6.157Z" transform="translate(0 6.804)" fill="none" stroke="#000" stroke-linecap="round" stroke-linejoin="round" stroke-miterlimit="10" stroke-width="1.5"/>
          </g>
          <g id="g2902" transform="translate(4.072 20.708)">
            <path id="path2904" d="M0-82.982v-7.557A1.166,1.166,0,0,1,1.166-91.7h24.75a1.166,1.166,0,0,1,1.166,1.166v36.29a1.166,1.166,0,0,1-1.166,1.166H1.166A1.166,1.166,0,0,1,0-54.248v-24.3" transform="translate(0 91.704)" fill="none" stroke="#000" stroke-linecap="round" stroke-linejoin="round" stroke-miterlimit="10" stroke-width="1.5"/>
          </g>
          <g id="g2906" transform="translate(9.48 26.714)">
            <path id="path2908" d="M0-6.952v3.474a.731.731,0,0,0,.731.731H15.536a.731.731,0,0,0,.731-.731V-6.952a.731.731,0,0,0-.731-.731H.731A.731.731,0,0,0,0-6.952Z" transform="translate(0 7.683)" fill="none" stroke="#000" stroke-linecap="round" stroke-linejoin="round" stroke-miterlimit="10" stroke-width="1.5"/>
          </g>
          <g id="g2910" transform="translate(9.48 37.056)">
            <path id="path2912" d="M-147.806-154.757h-14.805a.731.731,0,0,1-.731-.731v-14.8a.731.731,0,0,1,.731-.731h14.805a.731.731,0,0,1,.731.731v14.805A.731.731,0,0,1-147.806-154.757Z" transform="translate(163.342 171.024)" fill="none" stroke="#000" stroke-linecap="round" stroke-linejoin="round" stroke-miterlimit="10" stroke-width="1.5"/>
          </g>
          <g id="g2914" transform="translate(17.613 37.056)">
            <path id="path2916" d="M0,0V16.267" fill="none" stroke="#000" stroke-linecap="round" stroke-linejoin="round" stroke-miterlimit="10" stroke-width="1.5"/>
          </g>
          <g id="g2918" transform="translate(9.48 45.19)">
            <path id="path2920" d="M-154.758,0h-16.267" transform="translate(171.025)" fill="none" stroke="#000" stroke-linecap="round" stroke-linejoin="round" stroke-miterlimit="10" stroke-width="1.5"/>
          </g>
          <g id="g2922" transform="translate(36.442 44.322)">
            <path id="path2924" d="M-178.436-132.687a9.792,9.792,0,0,0,.9-4.118,9.829,9.829,0,0,0-9.829-9.829,9.829,9.829,0,0,0-9.829,9.829,9.829,9.829,0,0,0,9.829,9.829,9.788,9.788,0,0,0,6.225-2.223" transform="translate(197.192 146.634)" fill="none" stroke="#000" stroke-linecap="round" stroke-linejoin="round" stroke-miterlimit="10" stroke-width="1.5"/>
          </g>
          <g id="g2926" transform="translate(43.548 49.958)">
            <path id="path2928" d="M-49.163-8.2a3.824,3.824,0,0,0-3.279-.73c-1.629.491-1.914,2.465-.678,3.137a18.757,18.757,0,0,0,2.439.989c3.088,1.139,1.758,4.126-.728,4.126A3.96,3.96,0,0,1-54.331-1.92" transform="translate(54.331 9.062)" fill="none" stroke="#000" stroke-linecap="round" stroke-linejoin="round" stroke-miterlimit="10" stroke-width="1.5"/>
          </g>
          <g id="g2930" transform="translate(46.27 58.337)">
            <path id="path2932" d="M0-15.715v-1.652" transform="translate(0 17.367)" fill="none" stroke="#000" stroke-linecap="round" stroke-linejoin="round" stroke-miterlimit="10" stroke-width="1.5"/>
          </g>
          <g id="g2934" transform="translate(46.27 48.313)">
            <path id="path2936" d="M0-15.662v-1.646" transform="translate(0 17.308)" fill="none" stroke="#000" stroke-linecap="round" stroke-linejoin="round" stroke-miterlimit="10" stroke-width="1.5"/>
          </g>
          <g id="g2938" transform="translate(10.693 0.951)">
            <path id="path2940" d="M-450.981-116.731l-47.4-12.27" transform="translate(498.384 129.001)" fill="none" stroke="#000" stroke-linecap="round" stroke-linejoin="round" stroke-miterlimit="10" stroke-width="1.5"/>
          </g>
          <g id="g2942" transform="translate(53.349 8.44)">
            <path id="path2944" d="M-18.752,0l2.689,4.228a.7.7,0,0,1-.257.994l-4.4,2.393" transform="translate(20.723)" fill="none" stroke="#000" stroke-linecap="round" stroke-linejoin="round" stroke-miterlimit="10" stroke-width="1.5"/>
          </g>
        </g>
      </g>
    </g>
  </g>
</svg>
