<svg xmlns="http://www.w3.org/2000/svg" xmlns:xlink="http://www.w3.org/1999/xlink" width="103" height="103" viewBox="0 0 103 103">
  <defs>
    <filter id="Trazado_904820" x="0" y="0" width="103" height="103" filterUnits="userSpaceOnUse">
      <feOffset dy="3" input="SourceAlpha"/>
      <feGaussianBlur stdDeviation="3" result="blur"/>
      <feFlood flood-opacity="0.161"/>
      <feComposite operator="in" in2="blur"/>
      <feComposite in="SourceGraphic"/>
    </filter>
    <clipPath id="clip-path">
      <path id="path3702" d="M0-682.665H60.063V-622.6H0Z" transform="translate(0 682.665)"/>
    </clipPath>
  </defs>
  <g id="Grupo_1210207" data-name="Grupo 1210207" transform="translate(-815 -844.783)">
    <g id="Grupo_1210087" data-name="Grupo 1210087" transform="translate(824 850.783)">
      <g id="Grupo_1209250" data-name="Grupo 1209250">
        <g id="Grupo_1202705" data-name="Grupo 1202705" transform="translate(0)">
          <g id="Grupo_1173585" data-name="Grupo 1173585" transform="translate(0 0)">
            <g id="Grupo_1173428" data-name="Grupo 1173428">
              <g id="Grupo_1171958" data-name="Grupo 1171958">
                <g id="Grupo_1167341" data-name="Grupo 1167341">
                  <g id="Grupo_1166792" data-name="Grupo 1166792">
                    <g transform="matrix(1, 0, 0, 1, -9, -6)" filter="url(#Trazado_904820)">
                      <g id="Trazado_904820-2" data-name="Trazado 904820" transform="translate(9 6)" fill="#fef9e7">
                        <path d="M 42.49999618530273 83.50002288818359 C 36.96437454223633 83.50002288818359 31.59512519836426 82.41619873046875 26.54140853881836 80.27865600585938 C 21.65933799743652 78.21370697021484 17.27447891235352 75.25724792480469 13.50861930847168 71.49138641357422 C 9.742773056030273 67.72554016113281 6.786302089691162 63.34067153930664 4.721360683441162 58.45859909057617 C 2.583819627761841 53.40488052368164 1.499996185302734 48.0356330871582 1.499996185302734 42.5000114440918 C 1.499996185302734 36.96438980102539 2.583819627761841 31.59514045715332 4.721360683441162 26.54142379760742 C 6.786302089691162 21.65933990478516 9.742773056030273 17.27448272705078 13.50861930847168 13.50862312316895 C 17.27447891235352 9.742775917053223 21.65933799743652 6.78630542755127 26.54140853881836 4.721364498138428 C 31.59512519836426 2.583823204040527 36.96437454223633 1.499999642372131 42.49999618530273 1.499999642372131 C 48.03561782836914 1.499999642372131 53.40486526489258 2.583823204040527 58.45858383178711 4.721364498138428 C 63.34065628051758 6.78630542755127 67.72551727294922 9.742775917053223 71.49137115478516 13.50862312316895 C 75.25721740722656 17.27448272705078 78.21369171142578 21.65933990478516 80.27863311767578 26.54142379760742 C 82.41617584228516 31.59514045715332 83.5 36.96438980102539 83.5 42.5000114440918 C 83.5 48.0356330871582 82.41617584228516 53.40488052368164 80.27863311767578 58.45859909057617 C 78.21369171142578 63.34067153930664 75.25721740722656 67.72554016113281 71.49137115478516 71.49138641357422 C 67.72551727294922 75.25724792480469 63.34065628051758 78.21370697021484 58.45858383178711 80.27865600585938 C 53.40486526489258 82.41619873046875 48.03561782836914 83.50002288818359 42.49999618530273 83.50002288818359 Z" stroke="none"/>
                        <path d="M 42.49999618530273 3 C 37.16621017456055 3 31.99356842041016 4.043960571289062 27.1257438659668 6.102874755859375 C 22.42246246337891 8.092201232910156 18.19786071777344 10.94070434570312 14.56927490234375 14.56929016113281 C 10.94070434570312 18.19786834716797 8.092185974121094 22.42246627807617 6.102874755859375 27.1257438659668 C 4.043952941894531 31.99357223510742 2.999992370605469 37.16622543334961 2.999992370605469 42.5000114440918 C 2.999992370605469 47.83379745483398 4.043952941894531 53.00645065307617 6.102874755859375 57.8742790222168 C 8.092185974121094 62.57754516601562 10.94070434570312 66.80214691162109 14.56927490234375 70.43073272705078 C 18.19786071777344 74.05931854248047 22.42246246337891 76.90782165527344 27.1257438659668 78.89714813232422 C 31.99356842041016 80.95606231689453 37.16621017456055 82.00002288818359 42.49999618530273 82.00002288818359 C 47.83378219604492 82.00002288818359 53.00642395019531 80.95606231689453 57.87425231933594 78.89714813232422 C 62.57752990722656 76.90782165527344 66.80213165283203 74.05931854248047 70.43071746826172 70.43073272705078 C 74.05928802490234 66.80214691162109 76.90780639648438 62.57754516601562 78.89711761474609 57.8742790222168 C 80.95603942871094 53.00645065307617 82 47.83379745483398 82 42.5000114440918 C 82 37.16622543334961 80.95603942871094 31.99357223510742 78.89711761474609 27.1257438659668 C 76.90780639648438 22.42246627807617 74.05928802490234 18.19786834716797 70.43071746826172 14.56929016113281 C 66.80213165283203 10.94070434570312 62.57752990722656 8.092201232910156 57.87425231933594 6.102874755859375 C 53.00642395019531 4.043960571289062 47.83378219604492 3 42.49999618530273 3 M 42.49999618530273 0 C 65.97209167480469 0 85 19.02790832519531 85 42.5000114440918 C 85 65.97210693359375 65.97209167480469 85.00002288818359 42.49999618530273 85.00002288818359 C 19.02790069580078 85.00002288818359 -7.62939453125e-06 65.97210693359375 -7.62939453125e-06 42.5000114440918 C -7.62939453125e-06 19.02790832519531 19.02790069580078 0 42.49999618530273 0 Z" stroke="none" fill="#887013"/>
                      </g>
                    </g>
                  </g>
                </g>
              </g>
            </g>
          </g>
        </g>
      </g>
    </g>
    <g id="g3696" transform="translate(836.469 1547.417)">
      <g id="g3698" transform="translate(0 -682.665)">
        <g id="g3700" clip-path="url(#clip-path)">
          <g id="g3706" transform="translate(17.743 10.21)">
            <path id="path3708" d="M-181.891-22.9v-1.742A27.359,27.359,0,0,0-187.2-25.1a27.361,27.361,0,0,0-5.309.466v1.7a6.079,6.079,0,0,1-2.281,4.772,12.216,12.216,0,0,0-4.647,9.518A12.27,12.27,0,0,0-187.224,3.672,12.238,12.238,0,0,0-174.963-8.566a12.216,12.216,0,0,0-4.671-9.619,5.989,5.989,0,0,1-2.258-4.711" transform="translate(199.438 25.104)" fill="#fedba6"/>
          </g>
          <g id="g3710" transform="translate(32.475 10.302)">
            <path id="path3712" d="M-101-170.491a12.2,12.2,0,0,1-4,9.053,13.436,13.436,0,0,0,1.912-6.932,13.491,13.491,0,0,0-5.158-10.622,6.612,6.612,0,0,1-2.492-5.2v-2.744a22.485,22.485,0,0,1,2.814.375v1.743a5.992,5.992,0,0,0,2.258,4.711A12.214,12.214,0,0,1-101-170.491" transform="translate(110.738 186.938)" fill="#fdcf85"/>
          </g>
          <g id="g3714" transform="translate(17.743 10.21)">
            <path id="path3716" d="M-230.251-244.946a12.183,12.183,0,0,0,2.263-7.092,12.216,12.216,0,0,0-4.671-9.619,5.989,5.989,0,0,1-2.258-4.711v-1.742a27.349,27.349,0,0,0-5.309-.466,27.35,27.35,0,0,0-5.309.466v1.7a6.079,6.079,0,0,1-2.282,4.772,12.216,12.216,0,0,0-4.647,9.518A12.27,12.27,0,0,0-240.249-239.8a12.181,12.181,0,0,0,7.188-2.316" transform="translate(252.464 268.577)" fill="none" stroke="#000" stroke-linecap="round" stroke-linejoin="round" stroke-miterlimit="10" stroke-width="1.5"/>
          </g>
          <g id="g3718" transform="translate(23.803 3.968)">
            <path id="path3720" d="M0-29.751v3.48a.717.717,0,0,0,.833.708,34.088,34.088,0,0,1,5.345-.39,34.09,34.09,0,0,1,5.345.39.717.717,0,0,0,.833-.708v-3.48a2.87,2.87,0,0,0-2.87-2.87H2.87A2.87,2.87,0,0,0,0-29.751" transform="translate(0 32.621)" fill="#7ca2b1"/>
          </g>
          <g id="g3722" transform="translate(31.056 3.967)">
            <path id="path3724" d="M-52.892-29.746v3.481a.717.717,0,0,1-.832.707c-.5-.081-1.036-.152-1.6-.208a.708.708,0,0,0,.2-.5v-3.481a2.87,2.87,0,0,0-2.87-2.87h2.233a2.87,2.87,0,0,1,2.87,2.87" transform="translate(57.995 32.616)" fill="#688d98"/>
          </g>
          <g id="g3726" transform="translate(23.803 3.968)">
            <path id="path3728" d="M-43.895,0h-1.364a2.87,2.87,0,0,0-2.87,2.87V6.35a.717.717,0,0,0,.833.708,34.087,34.087,0,0,1,5.345-.39,34.091,34.091,0,0,1,5.346.39.717.717,0,0,0,.832-.708V2.87A2.87,2.87,0,0,0-38.643,0h-1.263" transform="translate(48.129)" fill="none" stroke="#000" stroke-linecap="round" stroke-linejoin="round" stroke-miterlimit="10" stroke-width="1.5"/>
          </g>
          <g id="g3730" transform="translate(27.101 10.726)">
            <path id="path3732" d="M-10.2,0l-.984,12.326" transform="translate(11.184)" fill="none" stroke="#000" stroke-linecap="round" stroke-linejoin="round" stroke-miterlimit="10" stroke-width="1.5"/>
          </g>
          <g id="g3734" transform="translate(31.876 10.726)">
            <path id="path3736" d="M0,0,.984,12.326" fill="none" stroke="#000" stroke-linecap="round" stroke-linejoin="round" stroke-miterlimit="10" stroke-width="1.5"/>
          </g>
          <g id="g3738" transform="translate(24.117 19.925)">
            <path id="path3740" d="M0-54.969v-3.593a1.71,1.71,0,0,1,1.71-1.71h8.307a1.71,1.71,0,0,1,1.71,1.71v3.593" transform="translate(0 60.272)" fill="none" stroke="#000" stroke-linecap="round" stroke-linejoin="round" stroke-miterlimit="10" stroke-width="1.5"/>
          </g>
          <g id="g3742" transform="translate(27.924 43.162)">
            <path id="path3744" d="M-36.544-134.066h-2.938a.588.588,0,0,1-.588-.588v-11.758a.588.588,0,0,1,.588-.588h2.938a.588.588,0,0,1,.588.588v11.758a.588.588,0,0,1-.588.588" transform="translate(40.069 147)" fill="#feb541"/>
          </g>
          <g id="g3746" transform="translate(29.393 43.162)">
            <path id="path3748" d="M-27.408-6.091V5.667A.588.588,0,0,1-28,6.255h-2.056a.588.588,0,0,0,.588-.588V-6.091a.588.588,0,0,0-.588-.588H-28a.588.588,0,0,1,.588.588" transform="translate(30.052 6.679)" fill="#fea714"/>
          </g>
          <g id="g3750" transform="translate(27.924 43.162)">
            <path id="path3752" d="M-36.544-134.066h-2.938a.588.588,0,0,1-.588-.588v-11.758a.588.588,0,0,1,.588-.588h2.938a.588.588,0,0,1,.588.588v11.758A.588.588,0,0,1-36.544-134.066Z" transform="translate(40.069 147)" fill="none" stroke="#000" stroke-linecap="round" stroke-linejoin="round" stroke-miterlimit="10" stroke-width="1.5"/>
          </g>
          <g id="g3754" transform="translate(36.549 40.169)">
            <path id="path3756" d="M-96.452-116.921-99-115.453a.588.588,0,0,1-.8-.215l-5.879-10.183a.588.588,0,0,1,.215-.8l2.544-1.469a.588.588,0,0,1,.8.215l5.879,10.183a.588.588,0,0,1-.215.8" transform="translate(105.757 128.201)" fill="#feb541"/>
          </g>
          <g id="g3758" transform="translate(37.606 40.169)">
            <path id="path3760" d="M-26.782-3.046-20.9,7.137a.588.588,0,0,1-.215.8L-22.9,8.968a.588.588,0,0,0,.215-.8L-28.563-2.018a.587.587,0,0,0-.8-.215l1.781-1.028a.588.588,0,0,1,.8.215" transform="translate(29.365 3.34)" fill="#fea714"/>
          </g>
          <g id="g3762" transform="translate(36.549 40.169)">
            <path id="path3764" d="M-96.452-116.921-99-115.453a.588.588,0,0,1-.8-.215l-5.879-10.183a.588.588,0,0,1,.215-.8l2.544-1.469a.588.588,0,0,1,.8.215l5.879,10.183A.588.588,0,0,1-96.452-116.921Z" transform="translate(105.757 128.201)" fill="none" stroke="#000" stroke-linecap="round" stroke-linejoin="round" stroke-miterlimit="10" stroke-width="1.5"/>
          </g>
          <g id="g3766" transform="translate(13.813 40.169)">
            <path id="path3768" d="M-29.42-132.148l-2.544-1.469a.587.587,0,0,1-.215-.8L-26.3-144.6a.588.588,0,0,1,.8-.215l2.544,1.469a.587.587,0,0,1,.215.8l-5.879,10.183a.588.588,0,0,1-.8.215" transform="translate(32.258 144.897)" fill="#feb541"/>
          </g>
          <g id="g3770" transform="translate(14.87 40.688)">
            <path id="path3772" d="M-87.725-18.978-93.6-8.8a.588.588,0,0,1-.8.215l-1.781-1.028a.588.588,0,0,0,.8-.215l5.879-10.183a.588.588,0,0,0-.215-.8l1.781,1.028a.588.588,0,0,1,.215.8" transform="translate(96.188 20.809)" fill="#fea714"/>
          </g>
          <g id="g3774" transform="translate(13.813 40.169)">
            <path id="path3776" d="M-29.42-132.148l-2.544-1.469a.587.587,0,0,1-.215-.8L-26.3-144.6a.588.588,0,0,1,.8-.215l2.544,1.469a.587.587,0,0,1,.215.8l-5.879,10.183A.588.588,0,0,1-29.42-132.148Z" transform="translate(32.258 144.897)" fill="none" stroke="#000" stroke-linecap="round" stroke-linejoin="round" stroke-miterlimit="10" stroke-width="1.5"/>
          </g>
          <g id="g3778" transform="translate(43.257 33.461)">
            <path id="path3780" d="M-132.148-70.079l-1.469,2.544a.588.588,0,0,1-.8.215L-144.6-73.2a.587.587,0,0,1-.215-.8l1.469-2.544a.587.587,0,0,1,.8-.215l10.183,5.879a.588.588,0,0,1,.215.8" transform="translate(144.896 76.84)" fill="#feb541"/>
          </g>
          <g id="g3782" transform="translate(43.776 33.461)">
            <path id="path3784" d="M-18.978-.816-8.8,5.063a.588.588,0,0,1,.215.8L-9.608,7.647a.588.588,0,0,0-.215-.8L-20.007.965a.588.588,0,0,0-.8.215L-19.781-.6a.588.588,0,0,1,.8-.215" transform="translate(20.809 0.895)" fill="#fea714"/>
          </g>
          <g id="g3786" transform="translate(43.257 33.461)">
            <path id="path3788" d="M-132.148-70.079l-1.469,2.544a.588.588,0,0,1-.8.215L-144.6-73.2a.587.587,0,0,1-.215-.8l1.469-2.544a.587.587,0,0,1,.8-.215l10.183,5.879A.588.588,0,0,1-132.148-70.079Z" transform="translate(144.896 76.84)" fill="none" stroke="#000" stroke-linecap="round" stroke-linejoin="round" stroke-miterlimit="10" stroke-width="1.5"/>
          </g>
          <g id="g3790" transform="translate(43.257 10.725)">
            <path id="path3792" d="M-132.148-29.419l-1.469-2.544a.588.588,0,0,0-.8-.215L-144.6-26.3a.587.587,0,0,0-.215.8l1.469,2.544a.588.588,0,0,0,.8.215l10.183-5.879a.588.588,0,0,0,.215-.8" transform="translate(144.896 32.257)" fill="#feb541"/>
          </g>
          <g id="g3794" transform="translate(43.776 11.782)">
            <path id="path3796" d="M-18.978-87.726-8.8-93.605a.588.588,0,0,0,.215-.8l-1.028-1.781a.588.588,0,0,1-.215.8l-10.183,5.879a.588.588,0,0,1-.8-.215l1.028,1.781a.588.588,0,0,0,.8.215" transform="translate(20.809 96.189)" fill="#fea714"/>
          </g>
          <g id="g3798" transform="translate(43.257 10.725)">
            <path id="path3800" d="M-132.148-29.419l-1.469-2.544a.588.588,0,0,0-.8-.215L-144.6-26.3a.587.587,0,0,0-.215.8l1.469,2.544a.588.588,0,0,0,.8.215l10.183-5.879A.588.588,0,0,0-132.148-29.419Z" transform="translate(144.896 32.257)" fill="none" stroke="#000" stroke-linecap="round" stroke-linejoin="round" stroke-miterlimit="10" stroke-width="1.5"/>
          </g>
          <g id="g3802" transform="translate(3.877 10.725)">
            <path id="path3804" d="M-132.148-70.079l-1.469,2.544a.588.588,0,0,1-.8.215L-144.6-73.2a.588.588,0,0,1-.215-.8l1.469-2.544a.588.588,0,0,1,.8-.215l10.183,5.879a.588.588,0,0,1,.215.8" transform="translate(144.896 76.84)" fill="#feb541"/>
          </g>
          <g id="g3806" transform="translate(4.397 10.725)">
            <path id="path3808" d="M-18.978-.817-8.8,5.063a.588.588,0,0,1,.215.8L-9.608,7.646a.588.588,0,0,0-.215-.8L-20.007.964a.588.588,0,0,0-.8.215L-19.781-.6a.588.588,0,0,1,.8-.215" transform="translate(20.809 0.895)" fill="#fea714"/>
          </g>
          <g id="g3810" transform="translate(3.877 10.725)">
            <path id="path3812" d="M-132.148-70.079l-1.469,2.544a.588.588,0,0,1-.8.215L-144.6-73.2a.588.588,0,0,1-.215-.8l1.469-2.544a.588.588,0,0,1,.8-.215l10.183,5.879A.588.588,0,0,1-132.148-70.079Z" transform="translate(144.896 76.84)" fill="none" stroke="#000" stroke-linecap="round" stroke-linejoin="round" stroke-miterlimit="10" stroke-width="1.5"/>
          </g>
          <g id="g3814" transform="translate(3.877 33.461)">
            <path id="path3816" d="M-16.044-96.453-17.513-99a.588.588,0,0,1,.215-.8l10.183-5.879a.587.587,0,0,1,.8.215l1.469,2.544a.588.588,0,0,1-.215.8l-10.183,5.879a.588.588,0,0,1-.8-.215" transform="translate(17.592 105.758)" fill="#feb541"/>
          </g>
          <g id="g3818" transform="translate(4.396 34.519)">
            <path id="path3820" d="M-124.536-26.78-134.719-20.9a.587.587,0,0,1-.8-.215L-136.55-22.9a.588.588,0,0,0,.8.215l10.183-5.879a.588.588,0,0,0,.215-.8l1.028,1.781a.588.588,0,0,1-.215.8" transform="translate(136.55 29.364)" fill="#fea714"/>
          </g>
          <g id="g3822" transform="translate(3.877 33.461)">
            <path id="path3824" d="M-16.044-96.453-17.513-99a.588.588,0,0,1,.215-.8l10.183-5.879a.587.587,0,0,1,.8.215l1.469,2.544a.588.588,0,0,1-.215.8l-10.183,5.879A.588.588,0,0,1-16.044-96.453Z" transform="translate(17.592 105.758)" fill="none" stroke="#000" stroke-linecap="round" stroke-linejoin="round" stroke-miterlimit="10" stroke-width="1.5"/>
          </g>
          <g id="g3826" transform="translate(46.25 24.836)">
            <path id="path3828" d="M-134.065-6.091v2.938a.587.587,0,0,1-.588.587h-11.758A.587.587,0,0,1-147-3.153V-6.091a.587.587,0,0,1,.588-.588h11.758a.588.588,0,0,1,.588.588" transform="translate(146.998 6.679)" fill="#feb541"/>
          </g>
          <g id="g3830" transform="translate(56.519 24.836)">
            <path id="path3832" d="M-27.615-6.091v2.938a.588.588,0,0,1-.588.588h-2.076a.588.588,0,0,0,.587-.588V-6.091a.588.588,0,0,0-.587-.588H-28.2a.588.588,0,0,1,.588.588" transform="translate(30.279 6.679)" fill="#fea714"/>
          </g>
          <g id="g3834" transform="translate(46.25 24.836)">
            <path id="path3836" d="M-134.065-6.091v2.938a.587.587,0,0,1-.588.587h-11.758A.587.587,0,0,1-147-3.153V-6.091a.587.587,0,0,1,.588-.588h11.758A.588.588,0,0,1-134.065-6.091Z" transform="translate(146.998 6.679)" fill="none" stroke="#000" stroke-linecap="round" stroke-linejoin="round" stroke-miterlimit="10" stroke-width="1.5"/>
          </g>
          <g id="g3838" transform="translate(0.88 24.836)">
            <path id="path3840" d="M-134.066-6.091v2.938a.588.588,0,0,1-.588.587h-11.758A.588.588,0,0,1-147-3.153V-6.091a.588.588,0,0,1,.588-.588h11.758a.588.588,0,0,1,.588.588" transform="translate(147 6.679)" fill="#feb541"/>
          </g>
          <g id="g3842" transform="translate(11.149 24.836)">
            <path id="path3844" d="M-27.615-6.091v2.938a.588.588,0,0,1-.588.588h-2.076a.588.588,0,0,0,.587-.588V-6.091a.588.588,0,0,0-.587-.588H-28.2a.588.588,0,0,1,.588.588" transform="translate(30.279 6.679)" fill="#fea714"/>
          </g>
          <g id="g3846" transform="translate(0.88 24.836)">
            <path id="path3848" d="M-97.89-42.635h2.9a.588.588,0,0,0,.588-.587V-46.16a.588.588,0,0,0-.588-.588h-11.758a.588.588,0,0,0-.588.588v2.938a.588.588,0,0,0,.588.588h4.867" transform="translate(107.333 46.748)" fill="none" stroke="#000" stroke-linecap="round" stroke-linejoin="round" stroke-miterlimit="10" stroke-width="1.5"/>
          </g>
        </g>
      </g>
    </g>
  </g>
</svg>
