<svg xmlns="http://www.w3.org/2000/svg" xmlns:xlink="http://www.w3.org/1999/xlink" width="98" height="98" viewBox="0 0 98 98">
  <defs>
    <filter id="Trazado_904820" x="0" y="0" width="98" height="98" filterUnits="userSpaceOnUse">
      <feOffset dy="3" input="SourceAlpha"/>
      <feGaussianBlur stdDeviation="3" result="blur"/>
      <feFlood flood-opacity="0.161"/>
      <feComposite operator="in" in2="blur"/>
      <feComposite in="SourceGraphic"/>
    </filter>
  </defs>
  <g id="Grupo_1210483" data-name="Grupo 1210483" transform="translate(-611 -15318.875)">
    <g id="Grupo_1210155" data-name="Grupo 1210155" transform="translate(411 14556.875)">
      <g id="Grupo_1202705" data-name="Grupo 1202705" transform="translate(209 768)">
        <g id="Grupo_1173585" data-name="Grupo 1173585" transform="translate(0 0)">
          <g id="Grupo_1173428" data-name="Grupo 1173428">
            <g id="Grupo_1171958" data-name="Grupo 1171958">
              <g id="Grupo_1167341" data-name="Grupo 1167341">
                <g id="Grupo_1166792" data-name="Grupo 1166792">
                  <g transform="matrix(1, 0, 0, 1, -9, -6)" filter="url(#Trazado_904820)">
                    <g id="Trazado_904820-2" data-name="Trazado 904820" transform="translate(9 6)" fill="#fef9e7">
                      <path d="M 39.99999618530273 78.50002288818359 C 34.80187225341797 78.50002288818359 29.76002883911133 77.4822998046875 25.01451873779297 75.47511291503906 C 20.43014144897461 73.53608703613281 16.31264114379883 70.7598876953125 12.77638530731201 67.22362518310547 C 9.240129470825195 63.6873664855957 6.463929653167725 59.56986618041992 4.524896144866943 54.98548889160156 C 2.517718315124512 50.2399787902832 1.499996185302734 45.19814300537109 1.499996185302734 40.0000114440918 C 1.499996185302734 34.8018798828125 2.517718315124512 29.76003456115723 4.524896144866943 25.01453399658203 C 6.463929653167725 20.43015670776367 9.240129470825195 16.31264495849609 12.77638530731201 12.77638912200928 C 16.31264114379883 9.240133285522461 20.43014144897461 6.46393346786499 25.01451873779297 4.524900436401367 C 29.76002883911133 2.517722606658936 34.80186462402344 1.500000357627869 39.99999618530273 1.500000357627869 C 45.19812774658203 1.500000357627869 50.23996353149414 2.517722606658936 54.9854736328125 4.524900436401367 C 59.56985092163086 6.46393346786499 63.68735122680664 9.240133285522461 67.22360992431641 12.77638912200928 C 70.75986480712891 16.31264495849609 73.53606414794922 20.43015670776367 75.47509765625 25.01453399658203 C 77.48227691650391 29.76003456115723 78.5 34.8018798828125 78.5 40.0000114440918 C 78.5 45.19814300537109 77.48227691650391 50.2399787902832 75.47509765625 54.98548889160156 C 73.53606414794922 59.56986618041992 70.75986480712891 63.6873664855957 67.22360992431641 67.22362518310547 C 63.68735122680664 70.7598876953125 59.56985092163086 73.53608703613281 54.9854736328125 75.47511291503906 C 50.23996353149414 77.4822998046875 45.1981201171875 78.50002288818359 39.99999618530273 78.50002288818359 Z" stroke="none"/>
                      <path d="M 39.99999618530273 3 C 35.00370407104492 3 30.15846252441406 3.977851867675781 25.59885025024414 5.906410217285156 C 21.19327545166016 7.769813537597656 17.23603439331055 10.43806457519531 13.83705139160156 13.83705139160156 C 10.43806457519531 17.23603820800781 7.769805908203125 21.19327926635742 5.906410217285156 25.59885025024414 C 3.977851867675781 30.15846633911133 2.999992370605469 35.00371932983398 2.999992370605469 40.0000114440918 C 2.999992370605469 44.99630355834961 3.977851867675781 49.84154510498047 5.906410217285156 54.40115737915039 C 7.769805908203125 58.80674743652344 10.43806457519531 62.76398468017578 13.83705139160156 66.16297149658203 C 17.23603439331055 69.56195831298828 21.19327545166016 72.23020935058594 25.59885025024414 74.09361267089844 C 30.15846252441406 76.02217102050781 35.00370407104492 77.00002288818359 39.99999618530273 77.00002288818359 C 44.99628829956055 77.00002288818359 49.84152984619141 76.02217102050781 54.40114212036133 74.09361267089844 C 58.80671691894531 72.23020935058594 62.76395416259766 69.56195831298828 66.16294097900391 66.16297149658203 C 69.56192779541016 62.76398468017578 72.23017883300781 58.80674743652344 74.09358215332031 54.40115737915039 C 76.02214050292969 49.84154510498047 77 44.99630355834961 77 40.0000114440918 C 77 35.00371932983398 76.02214050292969 30.15846633911133 74.09358215332031 25.59885025024414 C 72.23017883300781 21.19327926635742 69.56192779541016 17.23603820800781 66.16294097900391 13.83705139160156 C 62.76395416259766 10.43806457519531 58.80671691894531 7.769813537597656 54.40114212036133 5.906410217285156 C 49.84152984619141 3.977851867675781 44.99628829956055 3 39.99999618530273 3 M 39.99999618530273 0 C 62.09138488769531 0 80 17.90861129760742 80 40.0000114440918 C 80 62.09140014648438 62.09138488769531 80.00002288818359 39.99999618530273 80.00002288818359 C 17.90861129760742 80.00002288818359 -7.62939453125e-06 62.09140014648438 -7.62939453125e-06 40.0000114440918 C -7.62939453125e-06 17.90861129760742 17.90861129760742 0 39.99999618530273 0 Z" stroke="none" fill="#887013"/>
                    </g>
                  </g>
                </g>
              </g>
            </g>
          </g>
        </g>
      </g>
    </g>
    <g id="experiment_18289442" transform="translate(613.602 15317.574)">
      <g id="Grupo_1210482" data-name="Grupo 1210482" transform="translate(20.526 21.05)">
        <path id="Trazado_1050759" data-name="Trazado 1050759" d="M220.266,124.3l-.346-36.057L214.132,82.4l-24.592.256.407,41.961Z" transform="translate(-172.127 -76.506)" fill="#dfc49c" fill-rule="evenodd"/>
        <path id="Trazado_1050760" data-name="Trazado 1050760" d="M216.67,84.957,214.141,82.4l-24.591.255.4,41.322a47.785,47.785,0,0,0,14.238-10.432C212.746,104.55,217.188,93.651,216.67,84.957Z" transform="translate(-172.136 -76.506)" fill="#ffe0b2" fill-rule="evenodd"/>
        <path id="Trazado_1050761" data-name="Trazado 1050761" d="M419.41,82.4l.057,5.9,5.732-.057Z" transform="translate(-377.405 -76.506)" fill="#aa8d6a" fill-rule="evenodd"/>
        <path id="Trazado_1050762" data-name="Trazado 1050762" d="M35.946,249.05h9.073v10.074a3.426,3.426,0,0,0,.886,2.344l7.818,8.861a1.872,1.872,0,0,1-1.4,3.109H28.647a1.871,1.871,0,0,1-1.4-3.109l7.815-8.861a3.411,3.411,0,0,0,.886-2.344Z" transform="translate(-26.772 -225.327)" fill="#c0d6f2" fill-rule="evenodd"/>
        <path id="Trazado_1050763" data-name="Trazado 1050763" d="M63.156,249.05h6.162v10.074a3.426,3.426,0,0,0,.886,2.344l7.818,8.861a1.872,1.872,0,0,1-1.4,3.109H55.857a1.871,1.871,0,0,1-1.4-3.109l7.815-8.861a3.411,3.411,0,0,0,.886-2.344Z" transform="translate(-51.071 -225.327)" fill="#e5eef9" fill-rule="evenodd"/>
        <path id="Trazado_1050764" data-name="Trazado 1050764" d="M47.333,380.24l6.39,7.245a1.872,1.872,0,0,1-1.4,3.109H28.647a1.871,1.871,0,0,1-1.4-3.109l6-6.8c2.141.246,4.248.788,5.908,1.091,3.245.592,5.189-1.1,8.185-1.537Z" transform="translate(-26.772 -342.482)" fill="#9857bd" fill-rule="evenodd"/>
        <path id="Trazado_1050765" data-name="Trazado 1050765" d="M72.49,380.24l6.39,7.245a1.872,1.872,0,0,1-1.4,3.109H56.817a1.871,1.871,0,0,1-1.4-3.109l5.62-6.374c1.189.233,2.3.491,3.269.668,3.245.591,5.189-1.1,8.185-1.538Z" transform="translate(-51.928 -342.482)" fill="#bd80e1" fill-rule="evenodd"/>
        <path id="Trazado_1050766" data-name="Trazado 1050766" d="M95.668,234.43h11.809a.493.493,0,0,1,.491.491v2.711a.493.493,0,0,1-.491.491H95.668a.49.49,0,0,1-.488-.491v-2.711A.49.49,0,0,1,95.668,234.43Z" transform="translate(-87.862 -212.271)" fill="#c0d6f2" fill-rule="evenodd"/>
        <path id="Trazado_1050767" data-name="Trazado 1050767" d="M126.007,234.43h8.281a.582.582,0,0,1,.64.491v2.711a.582.582,0,0,1-.64.491h-8.281a.581.581,0,0,1-.637-.491v-2.711A.581.581,0,0,1,126.007,234.43Z" transform="translate(-114.822 -212.271)" fill="#e5eef9" fill-rule="evenodd"/>
        <path id="Trazado_1050768" data-name="Trazado 1050768" d="M185.26,64.532l4.066-7.042,15.363,8.87a4.063,4.063,0,1,1-4.063,7.038Z" transform="translate(-168.305 -54.261)" fill="#c0d6f2" fill-rule="evenodd"/>
        <path id="Trazado_1050769" data-name="Trazado 1050769" d="M196.86,62.388l2.826-4.9,15.363,8.87a4.04,4.04,0,0,1,1.8,2.165,3.683,3.683,0,0,1-.266.552,4.077,4.077,0,0,1-5.552,1.489Z" transform="translate(-178.664 -54.261)" fill="#e5eef9" fill-rule="evenodd"/>
        <path id="Trazado_1050770" data-name="Trazado 1050770" d="M215.355,91.33l9.088,5.25a4.064,4.064,0,1,1-4.066,7.038l-13-7.5Z" transform="translate(-188.058 -84.48)" fill="#fec01b" fill-rule="evenodd"/>
        <path id="Trazado_1050771" data-name="Trazado 1050771" d="M235.636,91.33l9.088,5.25a4.04,4.04,0,0,1,1.8,2.165,3.686,3.686,0,0,1-.266.552,4.077,4.077,0,0,1-5.552,1.489l-10.61-6.129Z" transform="translate(-208.339 -84.48)" fill="#ffd11a" fill-rule="evenodd"/>
        <path id="Trazado_1050772" data-name="Trazado 1050772" d="M149.912,37.113l5.531-9.58a.463.463,0,0,1,.628-.17l2.2,1.271a.465.465,0,0,1,.17.628l-5.531,9.58a.461.461,0,0,1-.628.167l-2.2-1.268A.46.46,0,0,1,149.912,37.113Z" transform="translate(-136.683 -27.303)" fill="#c0d6f2" fill-rule="evenodd"/>
        <path id="Trazado_1050773" data-name="Trazado 1050773" d="M164.379,34.468l3.878-6.721a.545.545,0,0,1,.7-.288l2.2,1.271a.548.548,0,0,1,.1.749L167.376,36.2a.545.545,0,0,1-.7.288l-2.2-1.271A.539.539,0,0,1,164.379,34.468Z" transform="translate(-149.568 -27.4)" fill="#e5eef9" fill-rule="evenodd"/>
        <path id="Trazado_1050774" data-name="Trazado 1050774" d="M123.166,153.375a4.309,4.309,0,0,0-2.1-3.815,4.3,4.3,0,0,0-2.1,3.939C119.172,156.461,123.047,156.44,123.166,153.375Z" transform="translate(-109.097 -136.481)" fill="#fec01b" fill-rule="evenodd"/>
        <path id="Trazado_1050775" data-name="Trazado 1050775" d="M133.291,153.375a4.309,4.309,0,0,0-2.1-3.815l-.124.079a4.178,4.178,0,0,0-.759,2.686,2.107,2.107,0,0,0,2.765,2.083A2.921,2.921,0,0,0,133.291,153.375Z" transform="translate(-119.222 -136.481)" fill="#ffd11a" fill-rule="evenodd"/>
      </g>
      <path id="Trazado_1050776" data-name="Trazado 1050776" d="M44.119,44.715a.749.749,0,0,1,0-1.5h2.869a.749.749,0,0,1,0,1.5Zm8.57,0a.749.749,0,1,1,0-1.5H64.747a.749.749,0,1,1,0,1.5ZM48.144,62.229a.749.749,0,1,1,0-1.5h9.4a.749.749,0,1,1,0,1.5Zm12.743,0a.749.749,0,1,1,0-1.5h3.86a.749.749,0,1,1,0,1.5ZM44.119,56.391a.749.749,0,0,1,0-1.5h4.625a.749.749,0,1,1,0,1.5Zm9.025,0a.749.749,0,0,1,0-1.5h11.6a.749.749,0,1,1,0,1.5Zm-9.025-5.838a.749.749,0,0,1,0-1.5H56.07a.749.749,0,0,1,0,1.5Zm16.688,0a.749.749,0,0,1,0-1.5h3.939a.749.749,0,0,1,0,1.5ZM33.848,37.92a3.539,3.539,0,0,0-1.355-2.878c-1.922,1.537-1.716,4.506.018,4.479C33.275,39.508,33.812,38.875,33.848,37.92Zm.883-2.5c.982,1.783.868,4.327-.964,5.283a2.843,2.843,0,0,1-4.116-2.58A5.026,5.026,0,0,1,32.086,33.5a.744.744,0,0,1,.8-.01A5.231,5.231,0,0,1,34.73,35.417Zm-1.622-4.931,5.531-9.58,0,0a1.207,1.207,0,0,1,1.65-.44l2.154,1.243a1.208,1.208,0,0,1,.451,1.734L42.567,24l4.081,2.357L62.49,26.2a.735.735,0,0,1,.567.218l5.789,5.843v0a.735.735,0,0,1,.215.519l.349,36.057a.745.745,0,0,1-.74.752l-21.907.225a2.721,2.721,0,0,1-.688.091H22.4a2.621,2.621,0,0,1-1.965-4.352L28.254,56.7a2.655,2.655,0,0,0,.7-1.85v-7.2c-.585,0-1.058.073-1.492-.367a1.233,1.233,0,0,1-.364-.873V43.7a1.245,1.245,0,0,1,1.238-1.24h9.01l-.091-9.295a1.205,1.205,0,0,1-1.5.236v0l-2.2-1.271a1.2,1.2,0,0,1-.44-1.646ZM41.821,25.3,38.5,31.047l1.337.77,6.514-3.906Zm-2.035-3.4-5.243,9.079,1.7.985,5.243-9.083Zm-.279,11.448-.767-.443.094,9.552h1.307a1.247,1.247,0,0,1,1.24,1.24V46.41a1.247,1.247,0,0,1-1.24,1.24h-.618v7.2a2.644,2.644,0,0,0,.7,1.85l7.815,8.861a2.579,2.579,0,0,1,.446,2.75l19.43-.2-.334-34.568-4.985.051a.746.746,0,0,1-.752-.74L61.792,27.7l-12.6.131L57.286,32.5l0,0a4.813,4.813,0,0,1-4.813,8.337Zm8.324-4.582-6.514,3.906,11.9,6.868a3.318,3.318,0,0,0,3.36-5.722.934.934,0,0,1-.1-.061Zm-9.8,18.883H30.449v7.2a4.177,4.177,0,0,1-1.073,2.838l-.9,1.022c1.589.264,3.093.633,4.561.9,2.544.464,4.376-.673,6.641-1.271a6.094,6.094,0,0,1-1.383-1.974,4.286,4.286,0,0,1-.266-1.519Zm1.855-3.693H28.593v2.2h11.29ZM40.8,59.614a17.584,17.584,0,0,0-2.5.724,10.05,10.05,0,0,1-5.537.74c-1.835-.337-3.5-.777-5.474-1.035l-5.734,6.5a1.119,1.119,0,0,0,.84,1.865H38.627l7.881-.082a1.119,1.119,0,0,0,.179-.091,1.131,1.131,0,0,0,.228-1.692ZM63.294,28.779l.03,3.317,3.22-.033Z" transform="translate(0 0)"/>
    </g>
  </g>
</svg>
