<svg xmlns="http://www.w3.org/2000/svg" xmlns:xlink="http://www.w3.org/1999/xlink" width="113" height="113" viewBox="0 0 113 113">
  <defs>
    <filter id="Trazado_982547" x="0" y="-0.001" width="113" height="113" filterUnits="userSpaceOnUse">
      <feOffset dy="3" input="SourceAlpha"/>
      <feGaussianBlur stdDeviation="3" result="blur"/>
      <feFlood flood-opacity="0.161"/>
      <feComposite operator="in" in2="blur"/>
      <feComposite in="SourceGraphic"/>
    </filter>
  </defs>
  <g id="Grupo_1210485" data-name="Grupo 1210485" transform="translate(-823 -15701.991)">
    <g id="Grupo_1210149" data-name="Grupo 1210149" transform="translate(29.51 13379.992)">
      <g id="Grupo_1209048" data-name="Grupo 1209048" transform="translate(0 1091.783)">
        <g id="Grupo_1208492" data-name="Grupo 1208492" transform="translate(0 -4397.209)">
          <g id="Grupo_1177675" data-name="Grupo 1177675" transform="translate(-4493 3707.152)">
            <g id="Grupo_1176928" data-name="Grupo 1176928" transform="translate(5295.49 1926.273)">
              <g id="Grupo_1172322" data-name="Grupo 1172322" transform="translate(0 0)">
                <g id="Grupo_1164700" data-name="Grupo 1164700">
                  <g id="Grupo_1160931" data-name="Grupo 1160931">
                    <g id="Grupo_1160749" data-name="Grupo 1160749">
                      <g id="Grupo_1158891" data-name="Grupo 1158891">
                        <g id="Grupo_1157406" data-name="Grupo 1157406">
                          <g id="Grupo_1155793" data-name="Grupo 1155793">
                            <g id="Grupo_1154704" data-name="Grupo 1154704">
                              <g id="Grupo_1150790" data-name="Grupo 1150790">
                                <g id="Grupo_1154214" data-name="Grupo 1154214">
                                  <g id="Grupo_1152583" data-name="Grupo 1152583">
                                    <g id="Grupo_1146973" data-name="Grupo 1146973">
                                      <g id="Grupo_1146954" data-name="Grupo 1146954">
                                        <g transform="matrix(1, 0, 0, 1, -9, -6)" filter="url(#Trazado_982547)">
                                          <g id="Trazado_982547-2" data-name="Trazado 982547" transform="translate(9 6)" fill="#fef9e7">
                                            <path d="M 47.5000114440918 93.49987030029297 C 41.28938293457031 93.49987030029297 35.26534652709961 92.28384399414062 29.5951976776123 89.88558959960938 C 24.11773109436035 87.56881713867188 19.19814491271973 84.25183868408203 14.97310447692871 80.02680206298828 C 10.74805164337158 75.80176544189453 7.43107795715332 70.88218688964844 5.114304542541504 65.40472412109375 C 2.716038227081299 59.73458862304688 1.500011444091797 53.71054840087891 1.500011444091797 47.49993515014648 C 1.500011444091797 41.28932189941406 2.716038227081299 35.26528167724609 5.114304542541504 29.59514808654785 C 7.43107795715332 24.1176815032959 10.74805164337158 19.1981086730957 14.97310447692871 14.97306823730469 C 19.19814491271973 10.74802875518799 24.11773109436035 7.431055068969727 29.5951976776123 5.11428165435791 C 35.26534652709961 2.716028451919556 41.28938293457031 1.500001788139343 47.5000114440918 1.500001788139343 C 53.71063995361328 1.500001788139343 59.73467636108398 2.716028451919556 65.40482330322266 5.11428165435791 C 70.88229370117188 7.431055068969727 75.8018798828125 10.74802875518799 80.02691650390625 14.97306823730469 C 84.25196838378906 19.1981086730957 87.56894683837891 24.1176815032959 89.88571929931641 29.59514808654785 C 92.28398132324219 35.26528167724609 93.50001525878906 41.28932189941406 93.50001525878906 47.49993515014648 C 93.50001525878906 53.71054840087891 92.28398132324219 59.73458862304688 89.88571929931641 65.40472412109375 C 87.56894683837891 70.88218688964844 84.25196838378906 75.80176544189453 80.02691650390625 80.02680206298828 C 75.8018798828125 84.25183868408203 70.88229370117188 87.56881713867188 65.40482330322266 89.88558959960938 C 59.73467636108398 92.28384399414062 53.71063995361328 93.49987030029297 47.5000114440918 93.49987030029297 Z" stroke="none"/>
                                            <path d="M 47.5000114440918 3 C 41.49122619628906 3 35.66378021240234 4.1761474609375 30.17951965332031 6.495796203613281 C 24.880859375 8.7369384765625 20.12153625488281 11.94596862792969 16.03376770019531 16.03373718261719 C 11.94598388671875 20.12149047851562 8.736968994140625 24.88081359863281 6.495811462402344 30.17947387695312 C 4.176162719726562 35.66371917724609 3.000007629394531 41.49116516113281 3.000007629394531 47.49993515014648 C 3.000007629394531 53.50870513916016 4.176162719726562 59.33615112304688 6.495811462402344 64.82039642333984 C 8.736968994140625 70.11905670166016 11.94598388671875 74.87837982177734 16.03376770019531 78.96613311767578 C 20.12153625488281 83.05390167236328 24.880859375 86.26293182373047 30.17951965332031 88.50407409667969 C 35.66378021240234 90.82372283935547 41.49122619628906 91.99987030029297 47.5000114440918 91.99987030029297 C 53.50879669189453 91.99987030029297 59.33624267578125 90.82372283935547 64.82050323486328 88.50407409667969 C 70.11916351318359 86.26293182373047 74.87848663330078 83.05390167236328 78.96625518798828 78.96613311767578 C 83.05403900146484 74.87837982177734 86.2630615234375 70.11905670166016 88.50421142578125 64.82039642333984 C 90.82386016845703 59.33615112304688 92.00001525878906 53.50870513916016 92.00001525878906 47.49993515014648 C 92.00001525878906 41.49116516113281 90.82386016845703 35.66371917724609 88.50421142578125 30.17947387695312 C 86.2630615234375 24.88081359863281 83.05403900146484 20.12149047851562 78.96625518798828 16.03373718261719 C 74.87848663330078 11.94596862792969 70.11916351318359 8.7369384765625 64.82050323486328 6.495796203613281 C 59.33624267578125 4.1761474609375 53.50879669189453 3 47.5000114440918 3 M 47.5000114440918 0 C 73.73353576660156 0 95.00001525878906 21.26644134521484 95.00001525878906 47.49993515014648 C 95.00001525878906 73.73342895507812 73.73353576660156 94.99987030029297 47.5000114440918 94.99987030029297 C 21.26648712158203 94.99987030029297 7.62939453125e-06 73.73342895507812 7.62939453125e-06 47.49993515014648 C 7.62939453125e-06 21.26644134521484 21.26648712158203 0 47.5000114440918 0 Z" stroke="none" fill="#f8ce24"/>
                                          </g>
                                        </g>
                                      </g>
                                    </g>
                                  </g>
                                </g>
                              </g>
                            </g>
                          </g>
                        </g>
                      </g>
                    </g>
                  </g>
                </g>
              </g>
            </g>
          </g>
        </g>
      </g>
    </g>
    <g id="broken_6327517" transform="translate(844.148 15717.456)">
      <rect id="Rect치ngulo_419604" data-name="Rect치ngulo 419604" width="42.172" height="26.635" rx="2" transform="translate(14.266 34.294)" fill="#adcdf7"/>
      <path id="Trazado_1050777" data-name="Trazado 1050777" d="M41.147,43.323l-3.708,1.911,1.27,3.974-3.974-1.27-1.911,3.708-1.911-3.708-3.974,1.27,1.27-3.974L24.5,43.323l3.708-1.911-1.27-3.974,3.974,1.27L32.823,35l1.911,3.708,3.974-1.27-1.27,3.974Z" transform="translate(2.528 3.733)" fill="#5a6c80"/>
      <path id="Trazado_1050778" data-name="Trazado 1050778" d="M47.756,14.984a4.316,4.316,0,0,0,1.325-3c0-3.064-3.727-5.549-8.323-5.549a12.3,12.3,0,0,0-1.965.162,6.183,6.183,0,0,0-5.8-4.6,6.1,6.1,0,0,0-5.564,3.933A6.653,6.653,0,1,0,21.75,17.968a5.572,5.572,0,0,0-3.743,5.118,5.846,5.846,0,0,0,6.1,5.549,6.615,6.615,0,0,0,2.261-.4,60.719,60.719,0,0,1,3.843,15.934h6.659a52.277,52.277,0,0,1,5.9-18.962,9.36,9.36,0,0,0,1.31.1c3.984,0,7.214-2.485,7.214-5.549a5.466,5.466,0,0,0-3.545-4.772Z" transform="translate(1.807 0.11)" fill="#e6e6e6"/>
      <path id="Trazado_1050779" data-name="Trazado 1050779" d="M63.793,59.722s-3.759-7.99-4.587-12.018A4.209,4.209,0,0,0,57,44.807,44.681,44.681,0,0,1,52,41.625v10.4a66.043,66.043,0,0,0-6.548-3.859,2.442,2.442,0,0,0-3.468,1.435v.008a2.454,2.454,0,0,0,1.324,2.955c1.912.888,4.65,2.5,5.652,4.8a22.768,22.768,0,0,0,4.328,6.452Z" transform="translate(4.436 4.46)" fill="#ffc173"/>
      <path id="Trazado_1050780" data-name="Trazado 1050780" d="M2.375,59.722S6.134,51.732,6.962,47.7a4.209,4.209,0,0,1,2.211-2.9,44.682,44.682,0,0,0,4.994-3.182v10.4a66.043,66.043,0,0,1,6.548-3.859,2.442,2.442,0,0,1,3.468,1.435v.008a2.454,2.454,0,0,1-1.324,2.955c-1.912.888-4.65,2.5-5.652,4.8a22.768,22.768,0,0,1-4.328,6.452Z" transform="translate(0.099 4.46)" fill="#ffc173"/>
      <path id="Trazado_1050781" data-name="Trazado 1050781" d="M64.73,49.914a5.311,5.311,0,0,0-2.786-3.662,40.323,40.323,0,0,1-4.4-2.774V34.488a3.329,3.329,0,0,0-3.329-3.329H42.353a54.071,54.071,0,0,1,5.02-10.482l-1.847-1.232a54.2,54.2,0,0,0-7.955,22.711l2.22.2a44.309,44.309,0,0,1,1.824-8.979h12.6a1.11,1.11,0,0,1,1.11,1.11V52.41c-1.665-1.031-3.5-2.039-4.924-2.787a3.557,3.557,0,1,0-3.13,6.387,15.588,15.588,0,0,1,3,1.783H20.433a15.588,15.588,0,0,1,3-1.783,3.558,3.558,0,1,0-3.13-6.387c-1.421.748-3.262,1.756-4.924,2.787V34.488a1.11,1.11,0,0,1,1.11-1.11H29.3a54.746,54.746,0,0,1,1.61,8.979l2.22-.2a63.871,63.871,0,0,0-5.648-20.343l-2.013.937a65.242,65.242,0,0,1,3.2,8.41H16.485a3.329,3.329,0,0,0-3.329,3.329v8.989a40.321,40.321,0,0,1-4.4,2.774,5.311,5.311,0,0,0-2.786,3.662c-.792,3.856-4.47,11.693-4.5,11.771l2.009.944C3.634,62.3,7.3,54.476,8.148,50.363a3.107,3.107,0,0,1,1.63-2.135,35.111,35.111,0,0,0,3.378-2.046v8.282a1.11,1.11,0,0,0,1.747.908,65.586,65.586,0,0,1,6.43-3.785,1.332,1.332,0,0,1,1.894.793A1.35,1.35,0,0,1,22.495,54c-2.21,1.025-5.079,2.789-6.2,5.364a21.886,21.886,0,0,1-4.091,6.1l1.554,1.581a23.765,23.765,0,0,0,4.572-6.8c.034-.078.084-.155.124-.233h33.8c.04.078.09.155.124.233a23.765,23.765,0,0,0,4.569,6.8L58.5,65.465a21.886,21.886,0,0,1-4.091-6.1c-1.123-2.575-4-4.338-6.2-5.364a1.353,1.353,0,0,1-.73-1.626,1.332,1.332,0,0,1,1.887-.784,65.586,65.586,0,0,1,6.43,3.785,1.11,1.11,0,0,0,1.756-.91V46.182a35.109,35.109,0,0,0,3.378,2.046,3.107,3.107,0,0,1,1.63,2.135C63.4,54.476,67.069,62.3,67.224,62.63l2.009-.944C69.2,61.607,65.522,53.771,64.73,49.914Z" transform="translate(0 2.025)"/>
      <path id="Trazado_1050782" data-name="Trazado 1050782" d="M17,23.2a6.782,6.782,0,0,0,5.273,6.415l.555-2.15A4.568,4.568,0,0,1,19.22,23.2a4.456,4.456,0,0,1,3.029-4.081,1.11,1.11,0,0,0,.092-2.034A5.549,5.549,0,0,1,24.768,6.549a5.438,5.438,0,0,1,1.372.182,8.19,8.19,0,0,0-.262,2.038,8.017,8.017,0,0,0,2.586,5.963l1.487-1.649A5.783,5.783,0,0,1,28.1,8.769a5.8,5.8,0,0,1,.455-2.294h0A5.008,5.008,0,0,1,33.092,3.22a5.065,5.065,0,0,1,4.74,3.809,1.11,1.11,0,0,0,1.243.777c4.631-.759,9,1.528,9,4.293a3.287,3.287,0,0,1-1.013,2.225l-.01.013a8.076,8.076,0,0,1-4.674,2.1l.3,2.2a10.629,10.629,0,0,0,5.364-2.2,4.1,4.1,0,0,1,2.256,3.428c0,1.756-1.443,3.353-3.669,4.067l.679,2.109c3.164-1.011,5.209-3.437,5.209-6.176a6.243,6.243,0,0,0-2.99-5.112,5.064,5.064,0,0,0,.77-2.657c0-3.733-4.143-6.659-9.433-6.659-.4,0-.813.02-1.221.059a6.979,6.979,0,0,0-12.663-.846,7.679,7.679,0,0,0-2.208-.323,7.768,7.768,0,0,0-5.061,13.661A6.464,6.464,0,0,0,17,23.2Z" transform="translate(1.705 0)"/>
      <path id="Trazado_1050783" data-name="Trazado 1050783" d="M33.213,41.993a86.773,86.773,0,0,0,0-19.135l-2.2.315A86.063,86.063,0,0,1,31,41.771Z" transform="translate(3.242 2.4)"/>
      <path id="Trazado_1050784" data-name="Trazado 1050784" d="M33.859,46.845l-.926,1.8-.926-1.8a1.11,1.11,0,0,0-1.324-.548l-1.924.615.615-1.924a1.11,1.11,0,0,0-.548-1.324l-1.795-.924.861-.444-1.017-1.973L24.1,41.753a1.11,1.11,0,0,0,0,1.973l2.873,1.482-.984,3.081a1.11,1.11,0,0,0,1.394,1.393l3.08-.983,1.482,2.873a1.11,1.11,0,0,0,1.973,0L35.4,48.7l3.082.984a1.11,1.11,0,0,0,1.393-1.394l-.983-3.08,2.873-1.482a1.11,1.11,0,0,0,0-1.973L38.99,40.323,37.974,42.3l.861.444-1.795.926a1.11,1.11,0,0,0-.548,1.324l.615,1.924L35.183,46.3A1.11,1.11,0,0,0,33.859,46.845Z" transform="translate(2.418 4.317)"/>
      <rect id="Rect치ngulo_419605" data-name="Rect치ngulo 419605" width="2.22" height="2.22" transform="translate(34.242 46.501)"/>
    </g>
  </g>
</svg>
