<svg xmlns="http://www.w3.org/2000/svg" xmlns:xlink="http://www.w3.org/1999/xlink" width="113" height="113" viewBox="0 0 113 113">
  <defs>
    <filter id="Trazado_982547" x="0" y="0" width="113" height="113" filterUnits="userSpaceOnUse">
      <feOffset dy="3" input="SourceAlpha"/>
      <feGaussianBlur stdDeviation="3" result="blur"/>
      <feFlood flood-opacity="0.161"/>
      <feComposite operator="in" in2="blur"/>
      <feComposite in="SourceGraphic"/>
    </filter>
  </defs>
  <g id="Grupo_1210489" data-name="Grupo 1210489" transform="translate(-1138 -15701.991)">
    <g id="Grupo_1210150" data-name="Grupo 1210150" transform="translate(26 13379.992)">
      <g id="Grupo_1209055" data-name="Grupo 1209055" transform="translate(0 1091.783)">
        <g id="Grupo_1209049" data-name="Grupo 1209049">
          <g id="Grupo_1208493" data-name="Grupo 1208493" transform="translate(0 -4397.209)">
            <g id="Grupo_1202104" data-name="Grupo 1202104" transform="translate(0 -1149.226)">
              <g id="Grupo_1201923" data-name="Grupo 1201923" transform="translate(-4174.49 4856.378)">
                <g id="Grupo_1176928" data-name="Grupo 1176928" transform="translate(5295.49 1926.273)">
                  <g id="Grupo_1172322" data-name="Grupo 1172322" transform="translate(0 0)">
                    <g id="Grupo_1164700" data-name="Grupo 1164700">
                      <g id="Grupo_1160931" data-name="Grupo 1160931">
                        <g id="Grupo_1160749" data-name="Grupo 1160749">
                          <g id="Grupo_1158891" data-name="Grupo 1158891">
                            <g id="Grupo_1157406" data-name="Grupo 1157406">
                              <g id="Grupo_1155793" data-name="Grupo 1155793">
                                <g id="Grupo_1154704" data-name="Grupo 1154704">
                                  <g id="Grupo_1150790" data-name="Grupo 1150790">
                                    <g id="Grupo_1154214" data-name="Grupo 1154214">
                                      <g id="Grupo_1152583" data-name="Grupo 1152583">
                                        <g id="Grupo_1146973" data-name="Grupo 1146973">
                                          <g id="Grupo_1146954" data-name="Grupo 1146954">
                                            <g transform="matrix(1, 0, 0, 1, -9, -6)" filter="url(#Trazado_982547)">
                                              <g id="Trazado_982547-2" data-name="Trazado 982547" transform="translate(9 6)" fill="#fef9e7">
                                                <path d="M 47.5000114440918 93.49987030029297 C 41.28938293457031 93.49987030029297 35.26534652709961 92.28384399414062 29.5951976776123 89.88558959960938 C 24.11773109436035 87.56881713867188 19.19814491271973 84.25183868408203 14.97310447692871 80.02680206298828 C 10.74805164337158 75.80176544189453 7.43107795715332 70.88218688964844 5.114304542541504 65.40472412109375 C 2.716038227081299 59.73458862304688 1.500011444091797 53.71054840087891 1.500011444091797 47.49993515014648 C 1.500011444091797 41.28932189941406 2.716038227081299 35.26528167724609 5.114304542541504 29.59514808654785 C 7.43107795715332 24.1176815032959 10.74805164337158 19.1981086730957 14.97310447692871 14.97306823730469 C 19.19814491271973 10.74802875518799 24.11773109436035 7.431055068969727 29.5951976776123 5.11428165435791 C 35.26534652709961 2.716028451919556 41.28938293457031 1.500001788139343 47.5000114440918 1.500001788139343 C 53.71063995361328 1.500001788139343 59.73467636108398 2.716028451919556 65.40482330322266 5.11428165435791 C 70.88229370117188 7.431055068969727 75.8018798828125 10.74802875518799 80.02691650390625 14.97306823730469 C 84.25196838378906 19.1981086730957 87.56894683837891 24.1176815032959 89.88571929931641 29.59514808654785 C 92.28398132324219 35.26528167724609 93.50001525878906 41.28932189941406 93.50001525878906 47.49993515014648 C 93.50001525878906 53.71054840087891 92.28398132324219 59.73458862304688 89.88571929931641 65.40472412109375 C 87.56894683837891 70.88218688964844 84.25196838378906 75.80176544189453 80.02691650390625 80.02680206298828 C 75.8018798828125 84.25183868408203 70.88229370117188 87.56881713867188 65.40482330322266 89.88558959960938 C 59.73467636108398 92.28384399414062 53.71063995361328 93.49987030029297 47.5000114440918 93.49987030029297 Z" stroke="none"/>
                                                <path d="M 47.5000114440918 3 C 41.49122619628906 3 35.66378021240234 4.1761474609375 30.17951965332031 6.495796203613281 C 24.880859375 8.7369384765625 20.12153625488281 11.94596862792969 16.03376770019531 16.03373718261719 C 11.94598388671875 20.12149047851562 8.736968994140625 24.88081359863281 6.495811462402344 30.17947387695312 C 4.176162719726562 35.66371917724609 3.000007629394531 41.49116516113281 3.000007629394531 47.49993515014648 C 3.000007629394531 53.50870513916016 4.176162719726562 59.33615112304688 6.495811462402344 64.82039642333984 C 8.736968994140625 70.11905670166016 11.94598388671875 74.87837982177734 16.03376770019531 78.96613311767578 C 20.12153625488281 83.05390167236328 24.880859375 86.26293182373047 30.17951965332031 88.50407409667969 C 35.66378021240234 90.82372283935547 41.49122619628906 91.99987030029297 47.5000114440918 91.99987030029297 C 53.50879669189453 91.99987030029297 59.33624267578125 90.82372283935547 64.82050323486328 88.50407409667969 C 70.11916351318359 86.26293182373047 74.87848663330078 83.05390167236328 78.96625518798828 78.96613311767578 C 83.05403900146484 74.87837982177734 86.2630615234375 70.11905670166016 88.50421142578125 64.82039642333984 C 90.82386016845703 59.33615112304688 92.00001525878906 53.50870513916016 92.00001525878906 47.49993515014648 C 92.00001525878906 41.49116516113281 90.82386016845703 35.66371917724609 88.50421142578125 30.17947387695312 C 86.2630615234375 24.88081359863281 83.05403900146484 20.12149047851562 78.96625518798828 16.03373718261719 C 74.87848663330078 11.94596862792969 70.11916351318359 8.7369384765625 64.82050323486328 6.495796203613281 C 59.33624267578125 4.1761474609375 53.50879669189453 3 47.5000114440918 3 M 47.5000114440918 0 C 73.73353576660156 0 95.00001525878906 21.26644134521484 95.00001525878906 47.49993515014648 C 95.00001525878906 73.73342895507812 73.73353576660156 94.99987030029297 47.5000114440918 94.99987030029297 C 21.26648712158203 94.99987030029297 7.62939453125e-06 73.73342895507812 7.62939453125e-06 47.49993515014648 C 7.62939453125e-06 21.26644134521484 21.26648712158203 0 47.5000114440918 0 Z" stroke="none" fill="#f8ce24"/>
                                              </g>
                                            </g>
                                          </g>
                                        </g>
                                      </g>
                                    </g>
                                  </g>
                                </g>
                              </g>
                            </g>
                          </g>
                        </g>
                      </g>
                    </g>
                  </g>
                </g>
              </g>
            </g>
          </g>
        </g>
      </g>
    </g>
    <g id="chemical_11873377" transform="translate(1156.071 15717.062)">
      <g id="Grupo_1210488" data-name="Grupo 1210488" transform="translate(9.835 9.83)">
        <path id="Trazado_1050785" data-name="Trazado 1050785" d="M56.459,22.806a4.307,4.307,0,0,1,1.182.164,5.153,5.153,0,0,1,8.963-4.9,6.831,6.831,0,0,1,8.575,2.348A4.305,4.305,0,1,1,75.3,27.89a6.827,6.827,0,0,1-10.85.922,4.31,4.31,0,0,1-4.142.234,4.305,4.305,0,1,1-3.847-6.24Z" transform="translate(-47.848 -15.976)" fill="#e4e8eb" fill-rule="evenodd"/>
        <g id="Grupo_1210486" data-name="Grupo 1210486" transform="translate(0 19.291)">
          <path id="Trazado_1050786" data-name="Trazado 1050786" d="M189.351,220.645,175.7,226.8a.351.351,0,0,0-.211.326v24.516h14.369V220.971a.357.357,0,0,0-.5-.326Z" transform="translate(-156.486 -215.521)" fill="#cad0d7" fill-rule="evenodd"/>
          <path id="Trazado_1050787" data-name="Trazado 1050787" d="M64.114,177.883H57.275a.358.358,0,0,0-.357.357v25.851h7.553V178.24A.358.358,0,0,0,64.114,177.883Z" transform="translate(-52.045 -177.883)" fill="#a9b0bb" fill-rule="evenodd"/>
          <path id="Trazado_1050788" data-name="Trazado 1050788" d="M16.374,381.251H49.387V365.732H16.374a.358.358,0,0,0-.357.357v14.8a.358.358,0,0,0,.357.357Z" transform="translate(-16.017 -343.35)" fill="#cad0d7" fill-rule="evenodd"/>
          <path id="Trazado_1050789" data-name="Trazado 1050789" d="M223.4,391.4H201.121a.358.358,0,0,0-.357.357v12.1H223.4Z" transform="translate(-178.751 -365.961)" fill="#a9b0bb" fill-rule="evenodd"/>
        </g>
        <g id="Grupo_1210487" data-name="Grupo 1210487" transform="translate(30.495 14.435)">
          <path id="Trazado_1050790" data-name="Trazado 1050790" d="M290.228,176.527a13.349,13.349,0,1,1-9.859,0V162.556h9.859Z" transform="translate(-271.95 -159.526)" fill="#c7e0ec" fill-rule="evenodd"/>
          <path id="Trazado_1050791" data-name="Trazado 1050791" d="M328.178,137.125h10.437a1.627,1.627,0,0,1,1.624,1.624v1.634a1.627,1.627,0,0,1-1.624,1.624H328.178a1.627,1.627,0,0,1-1.624-1.624v-1.634A1.627,1.627,0,0,1,328.178,137.125Z" transform="translate(-320.048 -137.125)" fill="#a4d4ff" fill-rule="evenodd"/>
          <path id="Trazado_1050792" data-name="Trazado 1050792" d="M305.033,321.052c-8.912-2.169-8.633,3.574-19.414.014a11.992,11.992,0,1,0,19.414-.014Z" transform="translate(-281.982 -298.692)" fill="#fdcd56" fill-rule="evenodd"/>
        </g>
      </g>
      <path id="Trazado_1050793" data-name="Trazado 1050793" d="M54.671,54.554a.843.843,0,1,1-.842-.843A.844.844,0,0,1,54.671,54.554Zm-7.548-2.961a.843.843,0,1,1,.844-.843A.845.845,0,0,1,47.123,51.593ZM59.1,60.571a.843.843,0,1,1-.844-.843A.845.845,0,0,1,59.1,60.571ZM49.022,58.1a1.2,1.2,0,1,1-1.2-1.2A1.206,1.206,0,0,1,49.022,58.1ZM61.34,51.528a1.2,1.2,0,1,1-1.2-1.2A1.207,1.207,0,0,1,61.34,51.528ZM18.444,17.5a3.471,3.471,0,0,1,.953.133.835.835,0,0,0,1.008-1.1,4.32,4.32,0,0,1,4.033-5.863,4.337,4.337,0,0,1,3.478,1.76.835.835,0,0,0,1.03.259,6,6,0,0,1,7.526,2.062A.835.835,0,0,0,37.591,15a3.471,3.471,0,1,1,.1,6.021.835.835,0,0,0-1.11.284,5.992,5.992,0,0,1-9.524.81.835.835,0,0,0-1.064-.149,3.49,3.49,0,0,1-3.338.189.835.835,0,0,0-1.106.377,3.471,3.471,0,1,1-3.1-5.03Zm0,8.61a5.113,5.113,0,0,0,4.2-2.175,5.2,5.2,0,0,0,3.631-.235,7.66,7.66,0,0,0,11.292-.9,5.139,5.139,0,1,0-.153-9.57,7.668,7.668,0,0,0-8.58-2.3,5.987,5.987,0,0,0-10.322,4.907h-.068a5.139,5.139,0,0,0,0,10.278ZM50.05,15.2c.542-1.75,1.01-3.262.035-4.952a.834.834,0,1,1,1.445-.834c1.34,2.322.689,4.425.113,6.28-.5,1.614-.933,3.008-.113,4.427a.834.834,0,0,1-1.445.834c-1.183-2.05-.573-4.018-.035-5.755Zm5.633,0c.543-1.75,1.012-3.262.036-4.952a.834.834,0,1,1,1.444-.834c1.341,2.322.689,4.425.113,6.28-.5,1.614-.931,3.008-.113,4.427a.834.834,0,1,1-1.444.834c-1.184-2.05-.574-4.018-.036-5.755ZM53.677,66.191a12.536,12.536,0,0,0,11.108-18.3c-4.941-1.548-7.19-.854-9.567-.118a15.506,15.506,0,0,1-4.947.905,22.034,22.034,0,0,1-7.3-1.493,12.532,12.532,0,0,0,10.711,19.01Zm-21,0H47.009A14.216,14.216,0,0,1,39.6,55.4H32.681v2.629h4.613a.834.834,0,1,1,0,1.668H32.681v6.5ZM10.667,55.915h15.5a.834.834,0,1,0,0-1.668h-15.5V52.341h28.89c-.04.442-.064.887-.064,1.335,0,.018,0,.037,0,.055H31.846a.834.834,0,0,0-.834.834V66.191H10.667Zm4.873-25.957h5.884V32H17.517a.834.834,0,1,0,0,1.668h3.908v17H15.541ZM29.668,48.012H37.3a.834.834,0,1,0,0-1.668H29.668V43.716H37.3a.834.834,0,1,0,0-1.668H29.668v-1.01l12.7-5.725v9.806c-.125.165-.248.333-.367.5a14.083,14.083,0,0,0-2.188,5.05H29.668Zm19.387-5.968a.835.835,0,0,0,.525-.776V29.984h8.191V41.269a.835.835,0,0,0,.525.776,12.514,12.514,0,0,1,5.1,3.732,14.257,14.257,0,0,0-8.673.4c-2.551.789-4.97,1.538-10.688-.389v-.109a12.523,12.523,0,0,1,5.019-3.633ZM47.668,27.525V25.892a.791.791,0,0,1,.79-.79H58.895a.791.791,0,0,1,.791.79v1.633a.791.791,0,0,1-.791.79H48.458A.791.791,0,0,1,47.668,27.525Zm17.684,18.1a14.173,14.173,0,0,0-5.911-4.907V29.92a2.46,2.46,0,0,0,1.914-2.395V25.892a2.462,2.462,0,0,0-2.459-2.458H48.458A2.46,2.46,0,0,0,46,25.892v1.633a2.46,2.46,0,0,0,1.912,2.395V40.715a14.151,14.151,0,0,0-3.876,2.558V34.021a.833.833,0,0,0-1.176-.76l-14.37,6.478A.833.833,0,0,0,28,40.5V50.672H23.093V29.124a.834.834,0,0,0-.834-.834H14.706a.834.834,0,0,0-.834.834V50.672H9.833A.834.834,0,0,0,9,51.507V67.025a.834.834,0,0,0,.834.834H53.677A14.184,14.184,0,0,0,65.352,45.622Z" transform="translate(0 0)" fill-rule="evenodd"/>
    </g>
  </g>
</svg>
