<svg xmlns="http://www.w3.org/2000/svg" xmlns:xlink="http://www.w3.org/1999/xlink" width="103" height="103" viewBox="0 0 103 103">
  <defs>
    <filter id="Trazado_904820" x="0" y="0" width="103" height="103" filterUnits="userSpaceOnUse">
      <feOffset dy="3" input="SourceAlpha"/>
      <feGaussianBlur stdDeviation="3" result="blur"/>
      <feFlood flood-opacity="0.161"/>
      <feComposite operator="in" in2="blur"/>
      <feComposite in="SourceGraphic"/>
    </filter>
  </defs>
  <g id="Grupo_1210206" data-name="Grupo 1210206" transform="translate(-1133 -844.783)">
    <g id="Grupo_1210089" data-name="Grupo 1210089" transform="translate(3 -1506.217)">
      <g id="Grupo_1209252" data-name="Grupo 1209252" transform="translate(930 1589)">
        <g id="Grupo_1202705" data-name="Grupo 1202705" transform="translate(209 768)">
          <g id="Grupo_1173585" data-name="Grupo 1173585" transform="translate(0 0)">
            <g id="Grupo_1173428" data-name="Grupo 1173428">
              <g id="Grupo_1171958" data-name="Grupo 1171958">
                <g id="Grupo_1167341" data-name="Grupo 1167341">
                  <g id="Grupo_1166792" data-name="Grupo 1166792">
                    <g transform="matrix(1, 0, 0, 1, -9, -6)" filter="url(#Trazado_904820)">
                      <g id="Trazado_904820-2" data-name="Trazado 904820" transform="translate(9 6)" fill="#fef9e7">
                        <path d="M 42.49999618530273 83.50002288818359 C 36.96437454223633 83.50002288818359 31.59512519836426 82.41619873046875 26.54140853881836 80.27865600585938 C 21.65933799743652 78.21370697021484 17.27447891235352 75.25724792480469 13.50861930847168 71.49138641357422 C 9.742773056030273 67.72554016113281 6.786302089691162 63.34067153930664 4.721360683441162 58.45859909057617 C 2.583819627761841 53.40488052368164 1.499996185302734 48.0356330871582 1.499996185302734 42.5000114440918 C 1.499996185302734 36.96438980102539 2.583819627761841 31.59514045715332 4.721360683441162 26.54142379760742 C 6.786302089691162 21.65933990478516 9.742773056030273 17.27448272705078 13.50861930847168 13.50862312316895 C 17.27447891235352 9.742775917053223 21.65933799743652 6.78630542755127 26.54140853881836 4.721364498138428 C 31.59512519836426 2.583823204040527 36.96437454223633 1.499999642372131 42.49999618530273 1.499999642372131 C 48.03561782836914 1.499999642372131 53.40486526489258 2.583823204040527 58.45858383178711 4.721364498138428 C 63.34065628051758 6.78630542755127 67.72551727294922 9.742775917053223 71.49137115478516 13.50862312316895 C 75.25721740722656 17.27448272705078 78.21369171142578 21.65933990478516 80.27863311767578 26.54142379760742 C 82.41617584228516 31.59514045715332 83.5 36.96438980102539 83.5 42.5000114440918 C 83.5 48.0356330871582 82.41617584228516 53.40488052368164 80.27863311767578 58.45859909057617 C 78.21369171142578 63.34067153930664 75.25721740722656 67.72554016113281 71.49137115478516 71.49138641357422 C 67.72551727294922 75.25724792480469 63.34065628051758 78.21370697021484 58.45858383178711 80.27865600585938 C 53.40486526489258 82.41619873046875 48.03561782836914 83.50002288818359 42.49999618530273 83.50002288818359 Z" stroke="none"/>
                        <path d="M 42.49999618530273 3 C 37.16621017456055 3 31.99356842041016 4.043960571289062 27.1257438659668 6.102874755859375 C 22.42246246337891 8.092201232910156 18.19786071777344 10.94070434570312 14.56927490234375 14.56929016113281 C 10.94070434570312 18.19786834716797 8.092185974121094 22.42246627807617 6.102874755859375 27.1257438659668 C 4.043952941894531 31.99357223510742 2.999992370605469 37.16622543334961 2.999992370605469 42.5000114440918 C 2.999992370605469 47.83379745483398 4.043952941894531 53.00645065307617 6.102874755859375 57.8742790222168 C 8.092185974121094 62.57754516601562 10.94070434570312 66.80214691162109 14.56927490234375 70.43073272705078 C 18.19786071777344 74.05931854248047 22.42246246337891 76.90782165527344 27.1257438659668 78.89714813232422 C 31.99356842041016 80.95606231689453 37.16621017456055 82.00002288818359 42.49999618530273 82.00002288818359 C 47.83378219604492 82.00002288818359 53.00642395019531 80.95606231689453 57.87425231933594 78.89714813232422 C 62.57752990722656 76.90782165527344 66.80213165283203 74.05931854248047 70.43071746826172 70.43073272705078 C 74.05928802490234 66.80214691162109 76.90780639648438 62.57754516601562 78.89711761474609 57.8742790222168 C 80.95603942871094 53.00645065307617 82 47.83379745483398 82 42.5000114440918 C 82 37.16622543334961 80.95603942871094 31.99357223510742 78.89711761474609 27.1257438659668 C 76.90780639648438 22.42246627807617 74.05928802490234 18.19786834716797 70.43071746826172 14.56929016113281 C 66.80213165283203 10.94070434570312 62.57752990722656 8.092201232910156 57.87425231933594 6.102874755859375 C 53.00642395019531 4.043960571289062 47.83378219604492 3 42.49999618530273 3 M 42.49999618530273 0 C 65.97209167480469 0 85 19.02790832519531 85 42.5000114440918 C 85 65.97210693359375 65.97209167480469 85.00002288818359 42.49999618530273 85.00002288818359 C 19.02790069580078 85.00002288818359 -7.62939453125e-06 65.97210693359375 -7.62939453125e-06 42.5000114440918 C -7.62939453125e-06 19.02790832519531 19.02790069580078 0 42.49999618530273 0 Z" stroke="none" fill="#887013"/>
                      </g>
                    </g>
                  </g>
                </g>
              </g>
            </g>
          </g>
        </g>
      </g>
    </g>
    <g id="hazardous_17609056" transform="translate(1160.313 863.278)">
      <g id="Grupo_1210205" data-name="Grupo 1210205" transform="translate(-2.34 1.83)">
        <g id="Grupo_1210202" data-name="Grupo 1210202" transform="translate(0)">
          <g id="Grupo_1210201" data-name="Grupo 1210201" transform="translate(1.485)">
            <path id="Trazado_1049717" data-name="Trazado 1049717" d="M209.749,9h9.7a1.439,1.439,0,0,1,1.435,1.435v7a.415.415,0,0,1-.414.414h-11.74a.415.415,0,0,1-.414-.414v-7A1.44,1.44,0,0,1,209.749,9Z" transform="translate(-187.902 -9)" fill="#465759" fill-rule="evenodd"/>
            <path id="Trazado_1049718" data-name="Trazado 1049718" d="M210.129,9h9.7a1.439,1.439,0,0,1,1.435,1.435v7a.415.415,0,0,1-.414.414h-.626V11.475a1.439,1.439,0,0,0-1.435-1.435h-9.7a1.424,1.424,0,0,0-.352.044A1.441,1.441,0,0,1,210.129,9Z" transform="translate(-188.282 -9)" fill="#3e4d4f" fill-rule="evenodd"/>
            <path id="Trazado_1049719" data-name="Trazado 1049719" d="M20.422,90.34h8.221l.554-2.446a4.872,4.872,0,0,1,4.795-3.83H44.806a2.6,2.6,0,0,1,2.577,2.17l.528,3.06h1.153a4.611,4.611,0,0,1,4.6,4.6v29.741a3.983,3.983,0,0,1-3.975,3.975H15.924a3.983,3.983,0,0,1-3.975-3.975V98.813a8.489,8.489,0,0,1,8.473-8.473Z" transform="translate(-11.949 -76.261)" fill="#64b5f6" fill-rule="evenodd"/>
            <path id="Trazado_1049720" data-name="Trazado 1049720" d="M20.422,90.34h8.221l.554-2.446a4.872,4.872,0,0,1,4.795-3.83H44.806a2.6,2.6,0,0,1,2.577,2.17l.037.213a2.62,2.62,0,0,0-1.343-.366H35.262a4.872,4.872,0,0,0-4.795,3.83l-.554,2.446H21.692a8.489,8.489,0,0,0-8.473,8.473v24.825a3.961,3.961,0,0,0,.129,1.006,3.969,3.969,0,0,1-1.4-3.024V98.813a8.489,8.489,0,0,1,8.473-8.473Zm28.411-1.046h.231a4.615,4.615,0,0,1,4.4,3.25,4.584,4.584,0,0,0-3.129-1.232H49.181Z" transform="translate(-11.949 -76.261)" fill="#42a5f5" fill-rule="evenodd"/>
          </g>
          <circle id="Elipse_11556" data-name="Elipse 11556" cx="12.163" cy="12.163" r="12.163" transform="translate(0 32.8) rotate(-45)" fill="#fc685b"/>
          <path id="Trazado_1049721" data-name="Trazado 1049721" d="M76.366,207.542a12.163,12.163,0,0,1,8.6,20.766A12.164,12.164,0,0,0,66.3,212.881a12.151,12.151,0,0,1,10.07-5.339Z" transform="translate(-59.161 -186.903)" fill="#fb4737" fill-rule="evenodd"/>
          <circle id="Elipse_11557" data-name="Elipse 11557" cx="1.25" cy="1.25" r="1.25" transform="translate(15.696 33.743) rotate(-76.7)" fill="#da8c36"/>
          <path id="Trazado_1049722" data-name="Trazado 1049722" d="M96.476,248.821a8.693,8.693,0,0,1-3.636,7.137l-3.321-4.073c.147-.059-.134.077,0,0a3.449,3.449,0,0,0,1.672-3.607l5.284.543ZM83.6,241.089a8.693,8.693,0,0,1,8.009-.1l-2.059,4.835c-.121-.1.13.083,0,0a3.449,3.449,0,0,0-3.971.2l-1.979-4.93Zm-.5,15.219a8.693,8.693,0,0,1-4.152-6.85l5.212-.678c-.027.156.005-.154,0,0a3.449,3.449,0,0,0,2.185,3.321Z" transform="translate(-70.501 -216.04)" fill="#ffda2d" fill-rule="evenodd"/>
          <path id="Trazado_1049723" data-name="Trazado 1049723" d="M96.475,248.821a8.7,8.7,0,0,1-3.087,6.711,8.7,8.7,0,0,0,2.048-5.672l-4.229-.435a3.421,3.421,0,0,0-.015-1.148Zm-6.911,3.12-.046-.056c.147-.059-.134.077,0,0,.048-.028.1-.057.142-.086q-.046.072-.1.143ZM83.6,241.089a8.693,8.693,0,0,1,8.009-.1l-2.059,4.835c-.121-.1.13.083,0,0a3.413,3.413,0,0,0-.487-.257l1.507-3.539a8.694,8.694,0,0,0-6.771-.44l-.2-.5Zm-.5,15.219-.16-.1,2.366-3.066a3.449,3.449,0,0,1-2.185-3.321c.005-.154-.027.156,0,0l-4.068.529a8.616,8.616,0,0,1-.1-.891l5.212-.678c-.027.156.005-.154,0,0a3.449,3.449,0,0,0,2.185,3.321L83.1,256.308Z" transform="translate(-70.5 -216.04)" fill="#ffc700" fill-rule="evenodd"/>
          <circle id="Elipse_11558" data-name="Elipse 11558" cx="1.25" cy="1.25" r="1.25" transform="translate(15.696 33.743) rotate(-76.7)" fill="#ffda2d"/>
          <path id="Trazado_1049724" data-name="Trazado 1049724" d="M157.29,312.525a1.25,1.25,0,0,1,.067,2.5,1.25,1.25,0,0,0-.682-2.3l-.067,0a1.244,1.244,0,0,1,.682-.2Z" transform="translate(-140.086 -280.973)" fill="#ffc700" fill-rule="evenodd"/>
        </g>
        <g id="Grupo_1210204" data-name="Grupo 1210204" transform="translate(30.262 21.029)">
          <path id="Trazado_1049725" data-name="Trazado 1049725" d="M307.747,216.46l.146,11.086-3.73,1.958H293.64a1.944,1.944,0,0,1,0-3.887h-.974a1.95,1.95,0,0,1,0-3.9h-.974a1.95,1.95,0,0,1,0-3.9h-.974a1.95,1.95,0,0,1,0-3.9l6.939.035c-1.777-.48-3.987-.093-4.1-1.309-.152-1.679,4.184-1.587,5.653-.794l8.534,4.608Z" transform="translate(-288.773 -211.302)" fill="#ffd6bd" fill-rule="evenodd"/>
          <path id="Trazado_1049726" data-name="Trazado 1049726" d="M309.071,216.462l.146,11.086-1.046.549-.14-10.6-8.534-4.608a7.437,7.437,0,0,0-4.618-.323c-.013-1.6,4.211-1.5,5.657-.716l8.534,4.608Zm-15.9,10.348q.033-.078.072-.152h.679A1.926,1.926,0,0,0,293.173,226.81Zm-.973-3.9c.022-.052.046-.1.073-.152h.678a1.921,1.921,0,0,0-.75.152Zm-.975-3.9c.022-.052.046-.1.073-.152h.678a1.92,1.92,0,0,0-.75.152Zm-.974-3.9a1.921,1.921,0,0,1,.75-.152l6.939.035c-1.646-.445-3.663-.146-4.039-1.065l-1.861-.009a1.951,1.951,0,0,0-1.79,1.191Z" transform="translate(-290.097 -211.304)" fill="#f9c6aa" fill-rule="evenodd"/>
          <path id="Trazado_1049727" data-name="Trazado 1049727" d="M461.512,242.9h2.747a.665.665,0,0,1,.664.664v13.588a.665.665,0,0,1-.664.664h-2.747a.665.665,0,0,1-.664-.664V243.568a.665.665,0,0,1,.664-.664Z" transform="translate(-442.96 -239.619)" fill="#72d561"/>
          <g id="Grupo_1210203" data-name="Grupo 1210203" transform="translate(17.887 3.285)">
            <path id="Trazado_1049728" data-name="Trazado 1049728" d="M464.258,257.821h-.375V244.609a.666.666,0,0,0-.664-.664h-2.371v-.375a.666.666,0,0,1,.664-.664h2.746a.666.666,0,0,1,.664.664v13.588a.666.666,0,0,1-.664.664Z" transform="translate(-460.847 -242.905)" fill="#42c345" fill-rule="evenodd"/>
            <path id="Trazado_1049729" data-name="Trazado 1049729" d="M472.449,342.519a.832.832,0,0,1,1.663,0v1a.832.832,0,0,1-1.663,0Z" transform="translate(-471.243 -331.419)" fill="#eff4f7" fill-rule="evenodd"/>
          </g>
        </g>
      </g>
      <path id="Trazado_1049730" data-name="Trazado 1049730" d="M20.5,35.051a.419.419,0,1,1,.419-.419A.419.419,0,0,1,20.5,35.051Zm2.082-.419A2.082,2.082,0,1,0,20.5,36.714a2.084,2.084,0,0,0,2.082-2.082Zm-6.867,6.341a7.85,7.85,0,0,1-3.051-5.005l3.539-.461a4.284,4.284,0,0,0,1.69,2.643l-2.179,2.823Zm3.73-3.855A.832.832,0,0,1,19.8,38.4l-3.245,4.206a.834.834,0,0,1-1.09.2,9.509,9.509,0,0,1-4.55-7.507.831.831,0,0,1,.723-.878l4.948-.644a.854.854,0,0,1,.427-.084.833.833,0,0,1,.775.9s0,.006,0,.01a2.613,2.613,0,0,0,1.657,2.515Zm8.965-1.759a7.85,7.85,0,0,1-2.648,5.23l-2.255-2.766a4.284,4.284,0,0,0,1.356-2.829l3.547.365ZM23.376,33.5a.827.827,0,0,1,.7-.263l5.284.543a.833.833,0,0,1,.747.82,9.51,9.51,0,0,1-3.984,7.821.83.83,0,0,1-1.127-.152l-3.153-3.867a.844.844,0,0,1-.3-.319.832.832,0,0,1,.352-1.13l.009,0a2.613,2.613,0,0,0,1.265-2.734.83.83,0,0,1,.207-.714Zm-.053-6.3-1.4,3.284a4.285,4.285,0,0,0-3.135.116l-1.328-3.309a7.85,7.85,0,0,1,5.861-.091Zm-5.716,4.917-1.979-4.929a.832.832,0,0,1,.378-1.043,9.509,9.509,0,0,1,8.777-.114.832.832,0,0,1,.391,1.068l-1.955,4.591a.837.837,0,0,1-1.309.625L21.9,32.31a2.612,2.612,0,0,0-3.008.153.832.832,0,0,1-.514.177.848.848,0,0,1-.215-.028.83.83,0,0,1-.557-.494ZM20.5,45.963A11.332,11.332,0,1,0,9.169,34.632,11.344,11.344,0,0,0,20.5,45.963Zm0-24.327a12.995,12.995,0,1,0,13,13,13.01,13.01,0,0,0-13-13Zm32.151,16.6v-.995a.832.832,0,0,1,1.663,0v.995a.832.832,0,0,1-1.663,0Zm2.038,1.99V26.976H52.277V40.228Zm-5.946,0H38.425a1.112,1.112,0,1,1,0-2.223h3.653a.832.832,0,1,0,0-1.663H37.45a1.118,1.118,0,0,1,0-2.236H41.1a.832.832,0,1,0,0-1.663H36.476a1.118,1.118,0,0,1,0-2.236h3.652a.832.832,0,1,0,0-1.663H35.5a1.118,1.118,0,0,1,0-2.236l6.94.035a.831.831,0,0,0,.221-1.634,12.157,12.157,0,0,0-1.969-.308,5.094,5.094,0,0,1-1.517-.281c.061-.089.528-.4,1.809-.428a6.178,6.178,0,0,1,2.621.449l2.5,1.348.007,0,4.507,2.433V39.247l-1.87.981Zm-3.075,8.978V41.892H38.425a2.774,2.774,0,0,1-2.348-4.253,2.782,2.782,0,0,1-.973-3.9,2.782,2.782,0,0,1-.975-3.9,2.782,2.782,0,0,1,1.373-5.2l2.087.01a1.86,1.86,0,0,1-.072-.377,1.714,1.714,0,0,1,.834-1.625c1.491-.983,4.723-.688,6.043.025l1.275.688v-3.9A3.776,3.776,0,0,0,41.9,15.694H40.743a.832.832,0,0,1-.819-.69l-.528-3.06a1.758,1.758,0,0,0-1.757-1.48H26.824a4.063,4.063,0,0,0-3.984,3.182l-.554,2.446a.831.831,0,0,1-.811.648H13.254a7.65,7.65,0,0,0-7.641,7.642V49.207A3.147,3.147,0,0,0,8.756,52.35H42.524a3.147,3.147,0,0,0,3.143-3.143ZM26.026,3.265a.6.6,0,0,1,.6-.6h.878V8.8h-.683a5.876,5.876,0,0,0-.8.055Zm6.284-.6h1.475V8.8H32.309ZM29.171,8.8V2.661h1.475V8.8ZM36.93,3.265V8.8H35.448V2.661h.878A.6.6,0,0,1,36.93,3.265ZM54.856,25.313H52.109a1.5,1.5,0,0,0-1.329.813l-3.449-1.862v-4.8A5.44,5.44,0,0,0,41.9,14.031h-.453l-.409-2.37a3.438,3.438,0,0,0-2.442-2.727V3.265A2.27,2.27,0,0,0,36.326,1h-9.7a2.27,2.27,0,0,0-2.267,2.267V9.348a5.72,5.72,0,0,0-3.144,3.93l-.407,1.8H13.255a9.315,9.315,0,0,0-9.3,9.3V49.207a4.813,4.813,0,0,0,4.807,4.807H42.524a4.813,4.813,0,0,0,4.807-4.807V41.892h1.617a.834.834,0,0,0,.386-.095l1.43-.751a1.5,1.5,0,0,0,1.345.845h2.747a1.5,1.5,0,0,0,1.5-1.5V26.809a1.5,1.5,0,0,0-1.5-1.5Z" transform="translate(-5.636)" fill-rule="evenodd"/>
    </g>
  </g>
</svg>
