<svg xmlns="http://www.w3.org/2000/svg" xmlns:xlink="http://www.w3.org/1999/xlink" width="113" height="113" viewBox="0 0 113 113">
  <defs>
    <filter id="Trazado_982547" x="0" y="0.001" width="113" height="113" filterUnits="userSpaceOnUse">
      <feOffset dy="3" input="SourceAlpha"/>
      <feGaussianBlur stdDeviation="3" result="blur"/>
      <feFlood flood-opacity="0.161"/>
      <feComposite operator="in" in2="blur"/>
      <feComposite in="SourceGraphic"/>
    </filter>
    <clipPath id="clip-path">
      <path id="path10425" d="M0-682.665H76.448v76.448H0Z" transform="translate(0 682.665)"/>
    </clipPath>
  </defs>
  <g id="Grupo_1210493" data-name="Grupo 1210493" transform="translate(-4799 -15712.207)">
    <g id="Grupo_1210153" data-name="Grupo 1210153" transform="translate(3687 13390.209)">
      <g id="Grupo_1209055" data-name="Grupo 1209055" transform="translate(0 1091.783)">
        <g id="Grupo_1209049" data-name="Grupo 1209049">
          <g id="Grupo_1208493" data-name="Grupo 1208493" transform="translate(0 -4397.209)">
            <g id="Grupo_1202104" data-name="Grupo 1202104" transform="translate(0 -1149.226)">
              <g id="Grupo_1201923" data-name="Grupo 1201923" transform="translate(-4174.49 4856.378)">
                <g id="Grupo_1176928" data-name="Grupo 1176928" transform="translate(5295.49 1926.273)">
                  <g id="Grupo_1172322" data-name="Grupo 1172322" transform="translate(0 0)">
                    <g id="Grupo_1164700" data-name="Grupo 1164700">
                      <g id="Grupo_1160931" data-name="Grupo 1160931">
                        <g id="Grupo_1160749" data-name="Grupo 1160749">
                          <g id="Grupo_1158891" data-name="Grupo 1158891">
                            <g id="Grupo_1157406" data-name="Grupo 1157406">
                              <g id="Grupo_1155793" data-name="Grupo 1155793">
                                <g id="Grupo_1154704" data-name="Grupo 1154704">
                                  <g id="Grupo_1150790" data-name="Grupo 1150790">
                                    <g id="Grupo_1154214" data-name="Grupo 1154214">
                                      <g id="Grupo_1152583" data-name="Grupo 1152583">
                                        <g id="Grupo_1146973" data-name="Grupo 1146973">
                                          <g id="Grupo_1146954" data-name="Grupo 1146954">
                                            <g transform="matrix(1, 0, 0, 1, -9, -6)" filter="url(#Trazado_982547)">
                                              <g id="Trazado_982547-2" data-name="Trazado 982547" transform="translate(9 6)" fill="#fef9e7">
                                                <path d="M 47.5000114440918 93.49987030029297 C 41.28938293457031 93.49987030029297 35.26534652709961 92.28384399414062 29.5951976776123 89.88558959960938 C 24.11773109436035 87.56881713867188 19.19814491271973 84.25183868408203 14.97310447692871 80.02680206298828 C 10.74805164337158 75.80176544189453 7.43107795715332 70.88218688964844 5.114304542541504 65.40472412109375 C 2.716038227081299 59.73458862304688 1.500011444091797 53.71054840087891 1.500011444091797 47.49993515014648 C 1.500011444091797 41.28932189941406 2.716038227081299 35.26528167724609 5.114304542541504 29.59514808654785 C 7.43107795715332 24.1176815032959 10.74805164337158 19.1981086730957 14.97310447692871 14.97306823730469 C 19.19814491271973 10.74802875518799 24.11773109436035 7.431055068969727 29.5951976776123 5.11428165435791 C 35.26534652709961 2.716028451919556 41.28938293457031 1.500001788139343 47.5000114440918 1.500001788139343 C 53.71063995361328 1.500001788139343 59.73467636108398 2.716028451919556 65.40482330322266 5.11428165435791 C 70.88229370117188 7.431055068969727 75.8018798828125 10.74802875518799 80.02691650390625 14.97306823730469 C 84.25196838378906 19.1981086730957 87.56894683837891 24.1176815032959 89.88571929931641 29.59514808654785 C 92.28398132324219 35.26528167724609 93.50001525878906 41.28932189941406 93.50001525878906 47.49993515014648 C 93.50001525878906 53.71054840087891 92.28398132324219 59.73458862304688 89.88571929931641 65.40472412109375 C 87.56894683837891 70.88218688964844 84.25196838378906 75.80176544189453 80.02691650390625 80.02680206298828 C 75.8018798828125 84.25183868408203 70.88229370117188 87.56881713867188 65.40482330322266 89.88558959960938 C 59.73467636108398 92.28384399414062 53.71063995361328 93.49987030029297 47.5000114440918 93.49987030029297 Z" stroke="none"/>
                                                <path d="M 47.5000114440918 3 C 41.49122619628906 3 35.66378021240234 4.1761474609375 30.17951965332031 6.495796203613281 C 24.880859375 8.7369384765625 20.12153625488281 11.94596862792969 16.03376770019531 16.03373718261719 C 11.94598388671875 20.12149047851562 8.736968994140625 24.88081359863281 6.495811462402344 30.17947387695312 C 4.176162719726562 35.66371917724609 3.000007629394531 41.49116516113281 3.000007629394531 47.49993515014648 C 3.000007629394531 53.50870513916016 4.176162719726562 59.33615112304688 6.495811462402344 64.82039642333984 C 8.736968994140625 70.11905670166016 11.94598388671875 74.87837982177734 16.03376770019531 78.96613311767578 C 20.12153625488281 83.05390167236328 24.880859375 86.26293182373047 30.17951965332031 88.50407409667969 C 35.66378021240234 90.82372283935547 41.49122619628906 91.99987030029297 47.5000114440918 91.99987030029297 C 53.50879669189453 91.99987030029297 59.33624267578125 90.82372283935547 64.82050323486328 88.50407409667969 C 70.11916351318359 86.26293182373047 74.87848663330078 83.05390167236328 78.96625518798828 78.96613311767578 C 83.05403900146484 74.87837982177734 86.2630615234375 70.11905670166016 88.50421142578125 64.82039642333984 C 90.82386016845703 59.33615112304688 92.00001525878906 53.50870513916016 92.00001525878906 47.49993515014648 C 92.00001525878906 41.49116516113281 90.82386016845703 35.66371917724609 88.50421142578125 30.17947387695312 C 86.2630615234375 24.88081359863281 83.05403900146484 20.12149047851562 78.96625518798828 16.03373718261719 C 74.87848663330078 11.94596862792969 70.11916351318359 8.7369384765625 64.82050323486328 6.495796203613281 C 59.33624267578125 4.1761474609375 53.50879669189453 3 47.5000114440918 3 M 47.5000114440918 0 C 73.73353576660156 0 95.00001525878906 21.26644134521484 95.00001525878906 47.49993515014648 C 95.00001525878906 73.73342895507812 73.73353576660156 94.99987030029297 47.5000114440918 94.99987030029297 C 21.26648712158203 94.99987030029297 7.62939453125e-06 73.73342895507812 7.62939453125e-06 47.49993515014648 C 7.62939453125e-06 21.26644134521484 21.26648712158203 0 47.5000114440918 0 Z" stroke="none" fill="#f8ce24"/>
                                              </g>
                                            </g>
                                          </g>
                                        </g>
                                      </g>
                                    </g>
                                  </g>
                                </g>
                              </g>
                            </g>
                          </g>
                        </g>
                      </g>
                    </g>
                  </g>
                </g>
              </g>
            </g>
          </g>
        </g>
      </g>
    </g>
    <g id="g10419" transform="translate(4817.276 16405.148)">
      <g id="g10421" transform="translate(0 -682.665)">
        <g id="g10423" clip-path="url(#clip-path)">
          <g id="g10429" transform="translate(63.166 34.323)">
            <path id="path10431" d="M-96.445-133.918h-9.691a2.472,2.472,0,0,1-2.472-2.472v-11.945a2.472,2.472,0,0,1,2.472-2.472h9.691Z" transform="translate(108.608 150.806)" fill="#fea713"/>
          </g>
          <path id="path10433" d="M646.439-359.273h-3.307V-376.16h3.307Z" transform="translate(-571.111 410.484)" fill="#fd9a01"/>
          <g id="g10435" transform="translate(56.551 36.795)">
            <path id="path10437" d="M-52.451-94.718h-5.006a1.608,1.608,0,0,1-1.609-1.608v-8.728a1.608,1.608,0,0,1,1.609-1.608h5.006Z" transform="translate(59.065 106.662)" fill="#fd3581"/>
          </g>
          <path id="path10439" d="M537.826-342.147h-3.307v-11.945h3.307Z" transform="translate(-474.661 390.888)" fill="#fe0364"/>
          <g id="g10441" transform="translate(26.788 40.776)">
            <path id="path10443" d="M-236.018,0V3.982h-16.213A5.179,5.179,0,0,0-255.893,5.5l-6.488,6.488a1.992,1.992,0,0,1-2.817,0,1.992,1.992,0,0,1,0-2.817l7.655-7.654A5.179,5.179,0,0,1-253.881,0Z" transform="translate(265.782)" fill="#766e6e"/>
          </g>
          <g id="g10445" transform="translate(27.435 44.758)">
            <path id="path10447" d="M-80.975,0h2.692a5.185,5.185,0,0,0-3.663,1.517l-6.488,6.489a1.989,1.989,0,0,1-2.753.058l.061-.058,6.487-6.489A5.182,5.182,0,0,1-80.975,0" transform="translate(91.186 0)" fill="#5c5555"/>
          </g>
          <path id="path10449" d="M483.639-314.564h-2.694v-3.982h2.694Z" transform="translate(-427.087 359.322)" fill="#5c5555"/>
          <path id="path10451" d="M292.322-161.429H244.358v-6.538h47.964Z" transform="translate(-216.994 225.606)" fill="#b9acac"/>
          <path id="path10453" d="M646.439-161.434h-3.307v-6.539h3.307Z" transform="translate(-571.111 225.611)" fill="#9e9797"/>
          <g id="g10455" transform="translate(20.826 57.638)">
            <path id="path10457" d="M0-51.849H6.539v-6.539H2.546A2.546,2.546,0,0,0,0-55.842Z" transform="translate(0 58.388)" fill="#eaf6ff"/>
          </g>
          <path id="path10459" d="M218.431-161.434h-3.27v-6.54h3.27Z" transform="translate(-191.066 225.612)" fill="#c8effe"/>
          <g id="g10461" transform="translate(63.166 34.323)">
            <path id="path10463" d="M-96.445-133.918h-9.691a2.472,2.472,0,0,1-2.472-2.472v-11.945a2.472,2.472,0,0,1,2.472-2.472h9.691" transform="translate(108.608 150.806)" fill="none" stroke="#000" stroke-linecap="round" stroke-linejoin="round" stroke-miterlimit="10" stroke-width="1"/>
          </g>
          <g id="g10465" transform="translate(56.551 36.795)">
            <path id="path10467" d="M-52.451-94.718h-5.006a1.608,1.608,0,0,1-1.609-1.608v-8.728a1.608,1.608,0,0,1,1.609-1.608h5.006Z" transform="translate(59.065 106.662)" fill="none" stroke="#000" stroke-linecap="round" stroke-linejoin="round" stroke-miterlimit="10" stroke-width="1"/>
          </g>
          <g id="g10469" transform="translate(26.788 40.776)">
            <path id="path10471" d="M-26.963-95.059a1.992,1.992,0,0,1-2.816,0,1.992,1.992,0,0,1,0-2.817l7.655-7.654a5.179,5.179,0,0,1,3.662-1.517H-.6v3.982H-16.813a5.178,5.178,0,0,0-3.662,1.517l-2.585,2.585" transform="translate(30.363 107.046)" fill="none" stroke="#000" stroke-linecap="round" stroke-linejoin="round" stroke-miterlimit="10" stroke-width="1"/>
          </g>
          <g id="g10473" transform="translate(1.12 64.177)">
            <path id="path10475" d="M0,0H74.208" transform="translate(0 0)" fill="none" stroke="#000" stroke-linecap="round" stroke-linejoin="round" stroke-miterlimit="10" stroke-width="1"/>
          </g>
          <g id="g10477" transform="translate(27.364 57.638)">
            <path id="path10479" d="M-380.343-51.846h-47.964v-6.538h47.964" transform="translate(428.307 58.384)" fill="none" stroke="#000" stroke-linecap="round" stroke-linejoin="round" stroke-miterlimit="10" stroke-width="1"/>
          </g>
          <g id="g10481" transform="translate(28.87 12.271)">
            <path id="path10483" d="M0,0V24.934" fill="none" stroke="#000" stroke-linecap="round" stroke-linejoin="round" stroke-miterlimit="10" stroke-width="1"/>
          </g>
          <g id="g10485" transform="translate(9.545 48.512)">
            <path id="path10487" d="M0,0,5.742,2.536" fill="none" stroke="#000" stroke-linecap="round" stroke-linejoin="round" stroke-miterlimit="10" stroke-width="1"/>
          </g>
          <g id="g10489" transform="translate(2.385 45.349)">
            <path id="path10491" d="M0,0,2.406,1.063" fill="none" stroke="#000" stroke-linecap="round" stroke-linejoin="round" stroke-miterlimit="10" stroke-width="1"/>
          </g>
          <g id="g10493" transform="translate(39.3 29.832)">
            <path id="path10495" d="M-55.63,0l-7.015,10.945" transform="translate(62.645)" fill="none" stroke="#000" stroke-linecap="round" stroke-linejoin="round" stroke-miterlimit="10" stroke-width="1"/>
          </g>
          <g id="g10497" transform="translate(42.453 49.058)">
            <path id="path10499" d="M-35.717,0l-4.5,1.989" transform="translate(40.221)" fill="none" stroke="#000" stroke-linecap="round" stroke-linejoin="round" stroke-miterlimit="10" stroke-width="1"/>
          </g>
          <g id="g10501" transform="translate(12.441 31.416)">
            <path id="path10503" d="M0,0,8.416,13.13" fill="none" stroke="#000" stroke-linecap="round" stroke-linejoin="round" stroke-miterlimit="10" stroke-width="1"/>
          </g>
          <g id="g10505" transform="translate(20.826 57.638)">
            <path id="path10507" d="M0-51.849H6.539v-6.539H2.546A2.546,2.546,0,0,0,0-55.842Z" transform="translate(0 58.388)" fill="none" stroke="#000" stroke-linecap="round" stroke-linejoin="round" stroke-miterlimit="10" stroke-width="1"/>
          </g>
          <g id="g10509" transform="translate(8.624 26.088)">
            <path id="path10511" d="M-17.76-8.88a1.12,1.12,0,0,1-1.12,1.12A1.12,1.12,0,0,1-20-8.88,1.12,1.12,0,0,1-18.88-10a1.12,1.12,0,0,1,1.12,1.12" transform="translate(20 10)"/>
          </g>
          <g id="g10513" transform="translate(27.75 41.079)">
            <path id="path10515" d="M-17.76-8.88a1.12,1.12,0,0,1-1.12,1.12A1.12,1.12,0,0,1-20-8.88,1.12,1.12,0,0,1-18.88-10a1.12,1.12,0,0,1,1.12,1.12" transform="translate(20 10)"/>
          </g>
        </g>
      </g>
    </g>
  </g>
</svg>
